<?xml version="1.0" encoding="UTF-8" standalone="no"?>
<!DOCTYPE svg PUBLIC "-//W3C//DTD SVG 1.1//EN"
 "http://www.w3.org/Graphics/SVG/1.1/DTD/svg11.dtd">
<!-- Generated by graphviz version 2.44.0 (20200408.0750)
 -->
<!-- Title: dependency&#45;cruiser output Pages: 1 -->
<svg width="338pt" height="178pt"
 viewBox="0.00 0.00 338.01 178.00" xmlns="http://www.w3.org/2000/svg" xmlns:xlink="http://www.w3.org/1999/xlink">
<g id="graph0" class="graph" transform="scale(1 1) rotate(0) translate(4 174)">
<title>dependency&#45;cruiser output</title>
<polygon fill="white" stroke="transparent" points="-4,4 -4,-174 334.01,-174 334.01,4 -4,4"/>
<g id="clust1" class="cluster">
<title>cluster_separated</title>
<path fill="#ffffff" stroke="black" stroke-width="2" d="M20,-8C20,-8 310.01,-8 310.01,-8 316.01,-8 322.01,-14 322.01,-20 322.01,-20 322.01,-150 322.01,-150 322.01,-156 316.01,-162 310.01,-162 310.01,-162 20,-162 20,-162 14,-162 8,-156 8,-150 8,-150 8,-20 8,-20 8,-14 14,-8 20,-8"/>
<text text-anchor="middle" x="165" y="-149.9" font-family="Helvetica,sans-Serif" font-weight="bold" font-size="9.00">separated</text>
</g>
<g id="clust2" class="cluster">
<title>cluster_separated/debugger</title>
<path fill="#ffffff" stroke="black" stroke-width="2" d="M28,-16C28,-16 302.01,-16 302.01,-16 308.01,-16 314.01,-22 314.01,-28 314.01,-28 314.01,-123 314.01,-123 314.01,-129 308.01,-135 302.01,-135 302.01,-135 28,-135 28,-135 22,-135 16,-129 16,-123 16,-123 16,-28 16,-28 16,-22 22,-16 28,-16"/>
<text text-anchor="middle" x="165" y="-122.9" font-family="Helvetica,sans-Serif" font-weight="bold" font-size="9.00">debugger</text>
</g>
<g id="clust3" class="cluster">
<title>cluster_separated/debugger/src</title>
<path fill="#ffffff" stroke="black" stroke-width="2" d="M36,-24C36,-24 294.01,-24 294.01,-24 300.01,-24 306.01,-30 306.01,-36 306.01,-36 306.01,-96 306.01,-96 306.01,-102 300.01,-108 294.01,-108 294.01,-108 36,-108 36,-108 30,-108 24,-102 24,-96 24,-96 24,-36 24,-36 24,-30 30,-24 36,-24"/>
<text text-anchor="middle" x="165" y="-95.9" font-family="Helvetica,sans-Serif" font-weight="bold" font-size="9.00">src</text>
</g>
<!-- separated/debugger/src/handler.js -->
<g id="node1" class="node">
<title>separated/debugger/src/handler.js</title>
<g id="a_node1"><a xlink:href="separated/debugger/src/handler.js" xlink:title="handler.js">
<path fill="#ffffcc" stroke="black" d="M219.81,-81.3C219.81,-81.3 177.2,-81.3 177.2,-81.3 174.1,-81.3 171,-78.2 171,-75.1 171,-75.1 171,-68.9 171,-68.9 171,-65.8 174.1,-62.7 177.2,-62.7 177.2,-62.7 219.81,-62.7 219.81,-62.7 222.91,-62.7 226.01,-65.8 226.01,-68.9 226.01,-68.9 226.01,-75.1 226.01,-75.1 226.01,-78.2 222.91,-81.3 219.81,-81.3"/>
<text text-anchor="middle" x="198.5" y="-69.3" font-family="Helvetica,sans-Serif" font-size="9.00">handler.js</text>
</a>
</g>
</g>
<!-- separated/debugger/src/logic.js -->
<g id="node2" class="node">
<title>separated/debugger/src/logic.js</title>
<g id="a_node2"><a xlink:href="separated/debugger/src/logic.js" xlink:title="logic.js">
<path fill="#ffffcc" stroke="black" d="M291.81,-65.3C291.81,-65.3 250.21,-65.3 250.21,-65.3 247.11,-65.3 244.01,-62.2 244.01,-59.1 244.01,-59.1 244.01,-52.9 244.01,-52.9 244.01,-49.8 247.11,-46.7 250.21,-46.7 250.21,-46.7 291.81,-46.7 291.81,-46.7 294.91,-46.7 298.01,-49.8 298.01,-52.9 298.01,-52.9 298.01,-59.1 298.01,-59.1 298.01,-62.2 294.91,-65.3 291.81,-65.3"/>
<text text-anchor="middle" x="271.01" y="-53.3" font-family="Helvetica,sans-Serif" font-size="9.00">logic.js</text>
</a>
</g>
</g>
<!-- separated/debugger/src/handler.js&#45;&gt;separated/debugger/src/logic.js -->
<g id="edge1" class="edge">
<title>separated/debugger/src/handler.js&#45;&gt;separated/debugger/src/logic.js</title>
<path fill="none" stroke="#000000" stroke-width="2" stroke-opacity="0.200000" d="M226.16,-65.95C229.94,-65.09 233.87,-64.2 237.75,-63.32"/>
<polygon fill="#000000" fill-opacity="0.200000" stroke="#000000" stroke-width="2" stroke-opacity="0.200000" points="238.39,-65.33 243.78,-61.95 237.47,-61.23 238.39,-65.33"/>
</g>
<!-- separated/debugger/src/init.js -->
<g id="node3" class="node">
<title>separated/debugger/src/init.js</title>
<g id="a_node3"><a xlink:href="separated/debugger/src/init.js" xlink:title="init.js">
<path fill="#ffffcc" stroke="black" d="M79.8,-81.3C79.8,-81.3 38.2,-81.3 38.2,-81.3 35.1,-81.3 32,-78.2 32,-75.1 32,-75.1 32,-68.9 32,-68.9 32,-65.8 35.1,-62.7 38.2,-62.7 38.2,-62.7 79.8,-62.7 79.8,-62.7 82.9,-62.7 86,-65.8 86,-68.9 86,-68.9 86,-75.1 86,-75.1 86,-78.2 82.9,-81.3 79.8,-81.3"/>
<text text-anchor="middle" x="59" y="-69.3" font-family="Helvetica,sans-Serif" font-size="9.00">init.js</text>
</a>
</g>
</g>
<!-- separated/debugger/src/listener.js -->
<g id="node4" class="node">
<title>separated/debugger/src/listener.js</title>
<g id="a_node4"><a xlink:href="separated/debugger/src/listener.js" xlink:title="listener.js">
<path fill="#ffffcc" stroke="black" d="M146.8,-81.3C146.8,-81.3 105.2,-81.3 105.2,-81.3 102.1,-81.3 99,-78.2 99,-75.1 99,-75.1 99,-68.9 99,-68.9 99,-65.8 102.1,-62.7 105.2,-62.7 105.2,-62.7 146.8,-62.7 146.8,-62.7 149.9,-62.7 153,-65.8 153,-68.9 153,-68.9 153,-75.1 153,-75.1 153,-78.2 149.9,-81.3 146.8,-81.3"/>
<text text-anchor="middle" x="126" y="-69.3" font-family="Helvetica,sans-Serif" font-size="9.00">listener.js</text>
</a>
</g>
</g>
<!-- separated/debugger/src/init.js&#45;&gt;separated/debugger/src/listener.js -->
<g id="edge2" class="edge">
<title>separated/debugger/src/init.js&#45;&gt;separated/debugger/src/listener.js</title>
<path fill="none" stroke="#000000" stroke-width="2" stroke-opacity="0.200000" d="M86.06,-72C88.32,-72 90.61,-72 92.9,-72"/>
<polygon fill="#000000" fill-opacity="0.200000" stroke="#000000" stroke-width="2" stroke-opacity="0.200000" points="92.93,-74.1 98.93,-72 92.93,-69.9 92.93,-74.1"/>
</g>
<!-- separated/debugger/src/listener.js&#45;&gt;separated/debugger/src/handler.js -->
<g id="edge3" class="edge">
<title>separated/debugger/src/listener.js&#45;&gt;separated/debugger/src/handler.js</title>
<path fill="none" stroke="#000000" stroke-width="2" stroke-opacity="0.200000" d="M153.25,-72C157.06,-72 161.01,-72 164.92,-72"/>
<polygon fill="#000000" fill-opacity="0.200000" stroke="#000000" stroke-width="2" stroke-opacity="0.200000" points="164.99,-74.1 170.99,-72 164.99,-69.9 164.99,-74.1"/>
</g>
<!-- separated/debugger/src/logic.spec.js -->
<g id="node5" class="node">
<title>separated/debugger/src/logic.spec.js</title>
<g id="a_node5"><a xlink:href="separated/debugger/src/logic.spec.js" xlink:title="logic.spec.js">
<path fill="#ffffcc" stroke="black" d="M224.81,-50.3C224.81,-50.3 172.2,-50.3 172.2,-50.3 169.1,-50.3 166,-47.2 166,-44.1 166,-44.1 166,-37.9 166,-37.9 166,-34.8 169.1,-31.7 172.2,-31.7 172.2,-31.7 224.81,-31.7 224.81,-31.7 227.91,-31.7 231.01,-34.8 231.01,-37.9 231.01,-37.9 231.01,-44.1 231.01,-44.1 231.01,-47.2 227.91,-50.3 224.81,-50.3"/>
<text text-anchor="middle" x="198.5" y="-38.3" font-family="Helvetica,sans-Serif" font-size="9.00">logic.spec.js</text>
</a>
</g>
</g>
<!-- separated/debugger/src/logic.spec.js&#45;&gt;separated/debugger/src/logic.js -->
<g id="edge4" class="edge">
<title>separated/debugger/src/logic.spec.js&#45;&gt;separated/debugger/src/logic.js</title>
<path fill="none" stroke="#000000" stroke-width="2" stroke-opacity="0.200000" d="M231.04,-47.71C233.3,-48.19 235.58,-48.68 237.84,-49.16"/>
<polygon fill="#000000" fill-opacity="0.200000" stroke="#000000" stroke-width="2" stroke-opacity="0.200000" points="237.46,-51.22 243.77,-50.42 238.34,-47.12 237.46,-51.22"/>
</g>
</g>
</svg>
