<?xml version="1.0" encoding="UTF-8" standalone="no"?>
<!DOCTYPE svg PUBLIC "-//W3C//DTD SVG 1.1//EN"
 "http://www.w3.org/Graphics/SVG/1.1/DTD/svg11.dtd">
<!-- Generated by graphviz version 2.44.0 (20200408.0750)
 -->
<!-- Title: dependency&#45;cruiser output Pages: 1 -->
<svg width="563pt" height="345pt"
 viewBox="0.00 0.00 562.52 345.00" xmlns="http://www.w3.org/2000/svg" xmlns:xlink="http://www.w3.org/1999/xlink">
<g id="graph0" class="graph" transform="scale(1 1) rotate(0) translate(4 341)">
<title>dependency&#45;cruiser output</title>
<polygon fill="white" stroke="transparent" points="-4,4 -4,-341 558.52,-341 558.52,4 -4,4"/>
<g id="clust1" class="cluster">
<title>cluster_lib</title>
<path fill="#ffffff" stroke="black" stroke-width="2" d="M358.76,-8C358.76,-8 534.52,-8 534.52,-8 540.52,-8 546.52,-14 546.52,-20 546.52,-20 546.52,-49 546.52,-49 546.52,-55 540.52,-61 534.52,-61 534.52,-61 358.76,-61 358.76,-61 352.76,-61 346.76,-55 346.76,-49 346.76,-49 346.76,-20 346.76,-20 346.76,-14 352.76,-8 358.76,-8"/>
<text text-anchor="middle" x="446.64" y="-48.9" font-family="Helvetica,sans-Serif" font-weight="bold" font-size="9.00">lib</text>
</g>
<g id="clust2" class="cluster">
<title>cluster_separated</title>
<path fill="#ffffff" stroke="black" stroke-width="2" d="M20,-69C20,-69 449.01,-69 449.01,-69 455.01,-69 461.01,-75 461.01,-81 461.01,-81 461.01,-317 461.01,-317 461.01,-323 455.01,-329 449.01,-329 449.01,-329 20,-329 20,-329 14,-329 8,-323 8,-317 8,-317 8,-81 8,-81 8,-75 14,-69 20,-69"/>
<text text-anchor="middle" x="234.5" y="-316.9" font-family="Helvetica,sans-Serif" font-weight="bold" font-size="9.00">separated</text>
</g>
<g id="clust3" class="cluster">
<title>cluster_separated/tic&#45;tac&#45;toe</title>
<path fill="#ffffff" stroke="black" stroke-width="2" d="M28,-77C28,-77 441.01,-77 441.01,-77 447.01,-77 453.01,-83 453.01,-89 453.01,-89 453.01,-290 453.01,-290 453.01,-296 447.01,-302 441.01,-302 441.01,-302 28,-302 28,-302 22,-302 16,-296 16,-290 16,-290 16,-89 16,-89 16,-83 22,-77 28,-77"/>
<text text-anchor="middle" x="234.5" y="-289.9" font-family="Helvetica,sans-Serif" font-weight="bold" font-size="9.00">tic&#45;tac&#45;toe</text>
</g>
<g id="clust4" class="cluster">
<title>cluster_separated/tic&#45;tac&#45;toe/src</title>
<path fill="#ffffff" stroke="black" stroke-width="2" d="M36,-85C36,-85 433.01,-85 433.01,-85 439.01,-85 445.01,-91 445.01,-97 445.01,-97 445.01,-263 445.01,-263 445.01,-269 439.01,-275 433.01,-275 433.01,-275 36,-275 36,-275 30,-275 24,-269 24,-263 24,-263 24,-97 24,-97 24,-91 30,-85 36,-85"/>
<text text-anchor="middle" x="234.5" y="-262.9" font-family="Helvetica,sans-Serif" font-weight="bold" font-size="9.00">src</text>
</g>
<g id="clust5" class="cluster">
<title>cluster_separated/tic&#45;tac&#45;toe/src/handlers</title>
<path fill="#ffffff" stroke="black" stroke-width="2" d="M231.76,-154C231.76,-154 295.26,-154 295.26,-154 301.26,-154 307.26,-160 307.26,-166 307.26,-166 307.26,-226 307.26,-226 307.26,-232 301.26,-238 295.26,-238 295.26,-238 231.76,-238 231.76,-238 225.76,-238 219.76,-232 219.76,-226 219.76,-226 219.76,-166 219.76,-166 219.76,-160 225.76,-154 231.76,-154"/>
<text text-anchor="middle" x="263.51" y="-225.9" font-family="Helvetica,sans-Serif" font-weight="bold" font-size="9.00">handlers</text>
</g>
<g id="clust6" class="cluster">
<title>cluster_separated/tic&#45;tac&#45;toe/src/init</title>
<path fill="#ffffff" stroke="black" stroke-width="2" d="M44,-195C44,-195 171.5,-195 171.5,-195 177.5,-195 183.5,-201 183.5,-207 183.5,-207 183.5,-236 183.5,-236 183.5,-242 177.5,-248 171.5,-248 171.5,-248 44,-248 44,-248 38,-248 32,-242 32,-236 32,-236 32,-207 32,-207 32,-201 38,-195 44,-195"/>
<text text-anchor="middle" x="107.75" y="-235.9" font-family="Helvetica,sans-Serif" font-weight="bold" font-size="9.00">init</text>
</g>
<g id="clust7" class="cluster">
<title>cluster_separated/tic&#45;tac&#45;toe/src/listeners</title>
<path fill="#ffffff" stroke="black" stroke-width="2" d="M114,-103C114,-103 177.5,-103 177.5,-103 183.5,-103 189.5,-109 189.5,-115 189.5,-115 189.5,-175 189.5,-175 189.5,-181 183.5,-187 177.5,-187 177.5,-187 114,-187 114,-187 108,-187 102,-181 102,-175 102,-175 102,-115 102,-115 102,-109 108,-103 114,-103"/>
<text text-anchor="middle" x="145.75" y="-174.9" font-family="Helvetica,sans-Serif" font-weight="bold" font-size="9.00">listeners</text>
</g>
<g id="clust8" class="cluster">
<title>cluster_separated/tic&#45;tac&#45;toe/src/logic</title>
<path fill="#ffffff" stroke="black" stroke-width="2" d="M209.5,-93C209.5,-93 425.01,-93 425.01,-93 431.01,-93 437.01,-99 437.01,-105 437.01,-105 437.01,-134 437.01,-134 437.01,-140 431.01,-146 425.01,-146 425.01,-146 209.5,-146 209.5,-146 203.5,-146 197.5,-140 197.5,-134 197.5,-134 197.5,-105 197.5,-105 197.5,-99 203.5,-93 209.5,-93"/>
<text text-anchor="middle" x="317.26" y="-133.9" font-family="Helvetica,sans-Serif" font-weight="bold" font-size="9.00">logic</text>
</g>
<!-- lib/deep&#45;clone.js -->
<g id="node1" class="node">
<title>lib/deep&#45;clone.js</title>
<g id="a_node1"><a xlink:href="lib/deep-clone.js" xlink:title="deep&#45;clone.js">
<path fill="#ffffcc" stroke="black" d="M532.08,-34.3C532.08,-34.3 475.45,-34.3 475.45,-34.3 472.35,-34.3 469.25,-31.2 469.25,-28.1 469.25,-28.1 469.25,-21.9 469.25,-21.9 469.25,-18.8 472.35,-15.7 475.45,-15.7 475.45,-15.7 532.08,-15.7 532.08,-15.7 535.18,-15.7 538.28,-18.8 538.28,-21.9 538.28,-21.9 538.28,-28.1 538.28,-28.1 538.28,-31.2 535.18,-34.3 532.08,-34.3"/>
<text text-anchor="middle" x="503.77" y="-22.3" font-family="Helvetica,sans-Serif" font-size="9.00">deep&#45;clone.js</text>
</a>
</g>
</g>
<!-- lib/logger.js -->
<g id="node2" class="node">
<title>lib/logger.js</title>
<g id="a_node2"><a xlink:href="lib/logger.js" xlink:title="logger.js">
<path fill="#ffffcc" stroke="black" d="M402.56,-34.3C402.56,-34.3 360.96,-34.3 360.96,-34.3 357.86,-34.3 354.76,-31.2 354.76,-28.1 354.76,-28.1 354.76,-21.9 354.76,-21.9 354.76,-18.8 357.86,-15.7 360.96,-15.7 360.96,-15.7 402.56,-15.7 402.56,-15.7 405.66,-15.7 408.76,-18.8 408.76,-21.9 408.76,-21.9 408.76,-28.1 408.76,-28.1 408.76,-31.2 405.66,-34.3 402.56,-34.3"/>
<text text-anchor="middle" x="381.76" y="-22.3" font-family="Helvetica,sans-Serif" font-size="9.00">logger.js</text>
</a>
</g>
</g>
<!-- lib/logger.js&#45;&gt;lib/deep&#45;clone.js -->
<g id="edge1" class="edge">
<title>lib/logger.js&#45;&gt;lib/deep&#45;clone.js</title>
<path fill="none" stroke="#000000" stroke-width="2" stroke-opacity="0.200000" d="M408.8,-25C424.52,-25 444.87,-25 462.61,-25"/>
<polygon fill="#000000" fill-opacity="0.200000" stroke="#000000" stroke-width="2" stroke-opacity="0.200000" points="463.02,-27.1 469.02,-25 463.02,-22.9 463.02,-27.1"/>
</g>
<!-- separated/tic&#45;tac&#45;toe/src/data.js -->
<g id="node3" class="node">
<title>separated/tic&#45;tac&#45;toe/src/data.js</title>
<g id="a_node3"><a xlink:href="separated/tic-tac-toe/src/data.js" xlink:title="data.js">
<path fill="#ffffcc" stroke="black" d="M402.56,-211.3C402.56,-211.3 360.96,-211.3 360.96,-211.3 357.86,-211.3 354.76,-208.2 354.76,-205.1 354.76,-205.1 354.76,-198.9 354.76,-198.9 354.76,-195.8 357.86,-192.7 360.96,-192.7 360.96,-192.7 402.56,-192.7 402.56,-192.7 405.66,-192.7 408.76,-195.8 408.76,-198.9 408.76,-198.9 408.76,-205.1 408.76,-205.1 408.76,-208.2 405.66,-211.3 402.56,-211.3"/>
<text text-anchor="middle" x="381.76" y="-199.3" font-family="Helvetica,sans-Serif" font-size="9.00">data.js</text>
</a>
</g>
</g>
<!-- separated/tic&#45;tac&#45;toe/src/handlers/place&#45;move.js -->
<g id="node4" class="node">
<title>separated/tic&#45;tac&#45;toe/src/handlers/place&#45;move.js</title>
<g id="a_node4"><a xlink:href="separated/tic-tac-toe/src/handlers/place-move.js" xlink:title="place&#45;move.js">
<path fill="#ffffcc" stroke="black" d="M292.81,-211.3C292.81,-211.3 234.2,-211.3 234.2,-211.3 231.1,-211.3 228,-208.2 228,-205.1 228,-205.1 228,-198.9 228,-198.9 228,-195.8 231.1,-192.7 234.2,-192.7 234.2,-192.7 292.81,-192.7 292.81,-192.7 295.91,-192.7 299.01,-195.8 299.01,-198.9 299.01,-198.9 299.01,-205.1 299.01,-205.1 299.01,-208.2 295.91,-211.3 292.81,-211.3"/>
<text text-anchor="middle" x="263.51" y="-199.3" font-family="Helvetica,sans-Serif" font-size="9.00">place&#45;move.js</text>
</a>
</g>
</g>
<!-- separated/tic&#45;tac&#45;toe/src/handlers/place&#45;move.js&#45;&gt;lib/logger.js -->
<g id="edge2" class="edge">
<title>separated/tic&#45;tac&#45;toe/src/handlers/place&#45;move.js&#45;&gt;lib/logger.js</title>
<path fill="none" stroke="#000000" stroke-width="2" stroke-opacity="0.200000" d="M299.16,-198.94C307.57,-196.57 315.78,-192.59 321.51,-186 349.77,-153.51 318.68,-130.04 334.51,-90 342.15,-70.67 356.73,-51.67 367.48,-39.25"/>
<polygon fill="#000000" fill-opacity="0.200000" stroke="#000000" stroke-width="2" stroke-opacity="0.200000" points="369.14,-40.55 371.54,-34.67 365.99,-37.77 369.14,-40.55"/>
</g>
<!-- separated/tic&#45;tac&#45;toe/src/handlers/place&#45;move.js&#45;&gt;separated/tic&#45;tac&#45;toe/src/data.js -->
<g id="edge3" class="edge">
<title>separated/tic&#45;tac&#45;toe/src/handlers/place&#45;move.js&#45;&gt;separated/tic&#45;tac&#45;toe/src/data.js</title>
<path fill="none" stroke="#000000" stroke-width="2" stroke-opacity="0.200000" d="M299.07,-202C314.65,-202 332.95,-202 348.27,-202"/>
<polygon fill="#000000" fill-opacity="0.200000" stroke="#000000" stroke-width="2" stroke-opacity="0.200000" points="348.64,-204.1 354.64,-202 348.64,-199.9 348.64,-204.1"/>
</g>
<!-- separated/tic&#45;tac&#45;toe/src/logic/determine&#45;winner.js -->
<g id="node5" class="node">
<title>separated/tic&#45;tac&#45;toe/src/logic/determine&#45;winner.js</title>
<g id="a_node5"><a xlink:href="separated/tic-tac-toe/src/logic/determine-winner.js" xlink:title="determine&#45;winner.js">
<path fill="#ffffcc" stroke="black" d="M423.06,-119.3C423.06,-119.3 340.46,-119.3 340.46,-119.3 337.36,-119.3 334.26,-116.2 334.26,-113.1 334.26,-113.1 334.26,-106.9 334.26,-106.9 334.26,-103.8 337.36,-100.7 340.46,-100.7 340.46,-100.7 423.06,-100.7 423.06,-100.7 426.16,-100.7 429.26,-103.8 429.26,-106.9 429.26,-106.9 429.26,-113.1 429.26,-113.1 429.26,-116.2 426.16,-119.3 423.06,-119.3"/>
<text text-anchor="middle" x="381.76" y="-107.3" font-family="Helvetica,sans-Serif" font-size="9.00">determine&#45;winner.js</text>
</a>
</g>
</g>
<!-- separated/tic&#45;tac&#45;toe/src/handlers/place&#45;move.js&#45;&gt;separated/tic&#45;tac&#45;toe/src/logic/determine&#45;winner.js -->
<g id="edge4" class="edge">
<title>separated/tic&#45;tac&#45;toe/src/handlers/place&#45;move.js&#45;&gt;separated/tic&#45;tac&#45;toe/src/logic/determine&#45;winner.js</title>
<path fill="none" stroke="#000000" stroke-width="2" stroke-opacity="0.200000" d="M299.15,-198.59C307.46,-196.21 315.62,-192.32 321.51,-186 339.71,-166.48 318.27,-146.73 334.54,-124.21"/>
<polygon fill="#000000" fill-opacity="0.200000" stroke="#000000" stroke-width="2" stroke-opacity="0.200000" points="336.36,-125.31 338.61,-119.36 333.14,-122.61 336.36,-125.31"/>
</g>
<!-- separated/tic&#45;tac&#45;toe/src/handlers/reset&#45;game.js -->
<g id="node6" class="node">
<title>separated/tic&#45;tac&#45;toe/src/handlers/reset&#45;game.js</title>
<g id="a_node6"><a xlink:href="separated/tic-tac-toe/src/handlers/reset-game.js" xlink:title="reset&#45;game.js">
<path fill="#ffffcc" stroke="black" d="M292.31,-180.3C292.31,-180.3 234.7,-180.3 234.7,-180.3 231.6,-180.3 228.5,-177.2 228.5,-174.1 228.5,-174.1 228.5,-167.9 228.5,-167.9 228.5,-164.8 231.6,-161.7 234.7,-161.7 234.7,-161.7 292.31,-161.7 292.31,-161.7 295.41,-161.7 298.51,-164.8 298.51,-167.9 298.51,-167.9 298.51,-174.1 298.51,-174.1 298.51,-177.2 295.41,-180.3 292.31,-180.3"/>
<text text-anchor="middle" x="263.51" y="-168.3" font-family="Helvetica,sans-Serif" font-size="9.00">reset&#45;game.js</text>
</a>
</g>
</g>
<!-- separated/tic&#45;tac&#45;toe/src/handlers/reset&#45;game.js&#45;&gt;lib/logger.js -->
<g id="edge5" class="edge">
<title>separated/tic&#45;tac&#45;toe/src/handlers/reset&#45;game.js&#45;&gt;lib/logger.js</title>
<path fill="none" stroke="#000000" stroke-width="2" stroke-opacity="0.200000" d="M298.67,-163.94C307.18,-160.67 315.57,-155.92 321.51,-149 339.01,-128.63 323.62,-114.54 334.51,-90 343.04,-70.78 357.72,-51.49 368.26,-38.98"/>
<polygon fill="#000000" fill-opacity="0.200000" stroke="#000000" stroke-width="2" stroke-opacity="0.200000" points="369.9,-40.29 372.21,-34.37 366.71,-37.56 369.9,-40.29"/>
</g>
<!-- separated/tic&#45;tac&#45;toe/src/handlers/reset&#45;game.js&#45;&gt;separated/tic&#45;tac&#45;toe/src/data.js -->
<g id="edge6" class="edge">
<title>separated/tic&#45;tac&#45;toe/src/handlers/reset&#45;game.js&#45;&gt;separated/tic&#45;tac&#45;toe/src/data.js</title>
<path fill="none" stroke="#000000" stroke-width="2" stroke-opacity="0.200000" d="M298.76,-180.13C314.49,-184.33 333.04,-189.27 348.51,-193.4"/>
<polygon fill="#000000" fill-opacity="0.200000" stroke="#000000" stroke-width="2" stroke-opacity="0.200000" points="348.16,-195.48 354.5,-195 349.24,-191.42 348.16,-195.48"/>
</g>
<!-- separated/tic&#45;tac&#45;toe/src/init/index.js -->
<g id="node7" class="node">
<title>separated/tic&#45;tac&#45;toe/src/init/index.js</title>
<g id="a_node7"><a xlink:href="separated/tic-tac-toe/src/init/index.js" xlink:title="index.js">
<path fill="#ffffcc" stroke="black" d="M87.8,-221.3C87.8,-221.3 46.2,-221.3 46.2,-221.3 43.1,-221.3 40,-218.2 40,-215.1 40,-215.1 40,-208.9 40,-208.9 40,-205.8 43.1,-202.7 46.2,-202.7 46.2,-202.7 87.8,-202.7 87.8,-202.7 90.9,-202.7 94,-205.8 94,-208.9 94,-208.9 94,-215.1 94,-215.1 94,-218.2 90.9,-221.3 87.8,-221.3"/>
<text text-anchor="middle" x="67" y="-209.3" font-family="Helvetica,sans-Serif" font-size="9.00">index.js</text>
</a>
</g>
</g>
<!-- separated/tic&#45;tac&#45;toe/src/listeners/place&#45;move.js -->
<g id="node8" class="node">
<title>separated/tic&#45;tac&#45;toe/src/listeners/place&#45;move.js</title>
<g id="a_node8"><a xlink:href="separated/tic-tac-toe/src/listeners/place-move.js" xlink:title="place&#45;move.js">
<path fill="#ffffcc" stroke="black" d="M175.06,-160.3C175.06,-160.3 116.45,-160.3 116.45,-160.3 113.35,-160.3 110.25,-157.2 110.25,-154.1 110.25,-154.1 110.25,-147.9 110.25,-147.9 110.25,-144.8 113.35,-141.7 116.45,-141.7 116.45,-141.7 175.06,-141.7 175.06,-141.7 178.16,-141.7 181.26,-144.8 181.26,-147.9 181.26,-147.9 181.26,-154.1 181.26,-154.1 181.26,-157.2 178.16,-160.3 175.06,-160.3"/>
<text text-anchor="middle" x="145.75" y="-148.3" font-family="Helvetica,sans-Serif" font-size="9.00">place&#45;move.js</text>
</a>
</g>
</g>
<!-- separated/tic&#45;tac&#45;toe/src/init/index.js&#45;&gt;separated/tic&#45;tac&#45;toe/src/listeners/place&#45;move.js -->
<g id="edge7" class="edge">
<title>separated/tic&#45;tac&#45;toe/src/init/index.js&#45;&gt;separated/tic&#45;tac&#45;toe/src/listeners/place&#45;move.js</title>
<path fill="none" stroke="#000000" stroke-width="2" stroke-opacity="0.200000" d="M79.99,-202.47C92.83,-192.26 113.32,-175.98 127.8,-164.47"/>
<polygon fill="#000000" fill-opacity="0.200000" stroke="#000000" stroke-width="2" stroke-opacity="0.200000" points="129.45,-165.84 132.84,-160.46 126.84,-162.55 129.45,-165.84"/>
</g>
<!-- separated/tic&#45;tac&#45;toe/src/listeners/reset&#45;game.js -->
<g id="node9" class="node">
<title>separated/tic&#45;tac&#45;toe/src/listeners/reset&#45;game.js</title>
<g id="a_node9"><a xlink:href="separated/tic-tac-toe/src/listeners/reset-game.js" xlink:title="reset&#45;game.js">
<path fill="#ffffcc" stroke="black" d="M174.56,-129.3C174.56,-129.3 116.95,-129.3 116.95,-129.3 113.85,-129.3 110.75,-126.2 110.75,-123.1 110.75,-123.1 110.75,-116.9 110.75,-116.9 110.75,-113.8 113.85,-110.7 116.95,-110.7 116.95,-110.7 174.56,-110.7 174.56,-110.7 177.66,-110.7 180.76,-113.8 180.76,-116.9 180.76,-116.9 180.76,-123.1 180.76,-123.1 180.76,-126.2 177.66,-129.3 174.56,-129.3"/>
<text text-anchor="middle" x="145.75" y="-117.3" font-family="Helvetica,sans-Serif" font-size="9.00">reset&#45;game.js</text>
</a>
</g>
</g>
<!-- separated/tic&#45;tac&#45;toe/src/init/index.js&#45;&gt;separated/tic&#45;tac&#45;toe/src/listeners/reset&#45;game.js -->
<g id="edge8" class="edge">
<title>separated/tic&#45;tac&#45;toe/src/init/index.js&#45;&gt;separated/tic&#45;tac&#45;toe/src/listeners/reset&#45;game.js</title>
<path fill="none" stroke="#000000" stroke-width="2" stroke-opacity="0.200000" d="M69.78,-202.45C73.24,-186.53 82.3,-154.51 102,-136 103.3,-134.78 104.7,-133.65 106.18,-132.6"/>
<polygon fill="#000000" fill-opacity="0.200000" stroke="#000000" stroke-width="2" stroke-opacity="0.200000" points="107.43,-134.3 111.44,-129.37 105.23,-130.72 107.43,-134.3"/>
</g>
<!-- separated/tic&#45;tac&#45;toe/src/init/log&#45;state.js -->
<g id="node10" class="node">
<title>separated/tic&#45;tac&#45;toe/src/init/log&#45;state.js</title>
<g id="a_node10"><a xlink:href="separated/tic-tac-toe/src/init/log-state.js" xlink:title="log&#45;state.js">
<path fill="#ffffcc" stroke="black" d="M169.06,-221.3C169.06,-221.3 122.44,-221.3 122.44,-221.3 119.34,-221.3 116.24,-218.2 116.24,-215.1 116.24,-215.1 116.24,-208.9 116.24,-208.9 116.24,-205.8 119.34,-202.7 122.44,-202.7 122.44,-202.7 169.06,-202.7 169.06,-202.7 172.16,-202.7 175.26,-205.8 175.26,-208.9 175.26,-208.9 175.26,-215.1 175.26,-215.1 175.26,-218.2 172.16,-221.3 169.06,-221.3"/>
<text text-anchor="middle" x="145.75" y="-209.3" font-family="Helvetica,sans-Serif" font-size="9.00">log&#45;state.js</text>
</a>
</g>
</g>
<!-- separated/tic&#45;tac&#45;toe/src/init/index.js&#45;&gt;separated/tic&#45;tac&#45;toe/src/init/log&#45;state.js -->
<g id="edge9" class="edge">
<title>separated/tic&#45;tac&#45;toe/src/init/index.js&#45;&gt;separated/tic&#45;tac&#45;toe/src/init/log&#45;state.js</title>
<path fill="none" stroke="#000000" stroke-width="2" stroke-opacity="0.200000" d="M94.41,-212C99.46,-212 104.82,-212 110.08,-212"/>
<polygon fill="#000000" fill-opacity="0.200000" stroke="#000000" stroke-width="2" stroke-opacity="0.200000" points="110.19,-214.1 116.19,-212 110.19,-209.9 110.19,-214.1"/>
</g>
<!-- separated/tic&#45;tac&#45;toe/src/listeners/place&#45;move.js&#45;&gt;separated/tic&#45;tac&#45;toe/src/handlers/place&#45;move.js -->
<g id="edge12" class="edge">
<title>separated/tic&#45;tac&#45;toe/src/listeners/place&#45;move.js&#45;&gt;separated/tic&#45;tac&#45;toe/src/handlers/place&#45;move.js</title>
<path fill="none" stroke="#000000" stroke-width="2" stroke-opacity="0.200000" d="M157.73,-160.33C167.56,-168.24 182.67,-179.33 197.5,-186 205.11,-189.42 213.55,-192.18 221.77,-194.38"/>
<polygon fill="#000000" fill-opacity="0.200000" stroke="#000000" stroke-width="2" stroke-opacity="0.200000" points="221.66,-196.52 227.99,-195.95 222.69,-192.44 221.66,-196.52"/>
</g>
<!-- separated/tic&#45;tac&#45;toe/src/listeners/reset&#45;game.js&#45;&gt;separated/tic&#45;tac&#45;toe/src/handlers/reset&#45;game.js -->
<g id="edge13" class="edge">
<title>separated/tic&#45;tac&#45;toe/src/listeners/reset&#45;game.js&#45;&gt;separated/tic&#45;tac&#45;toe/src/handlers/reset&#45;game.js</title>
<path fill="none" stroke="#000000" stroke-width="2" stroke-opacity="0.200000" d="M179.3,-129.52C182.95,-131.34 186.44,-133.48 189.5,-136 194.74,-140.31 192.2,-144.77 197.5,-149 204.76,-154.79 213.63,-159.09 222.45,-162.27"/>
<polygon fill="#000000" fill-opacity="0.200000" stroke="#000000" stroke-width="2" stroke-opacity="0.200000" points="221.86,-164.29 228.22,-164.21 223.2,-160.31 221.86,-164.29"/>
</g>
<!-- separated/tic&#45;tac&#45;toe/src/init/log&#45;state.js&#45;&gt;lib/logger.js -->
<g id="edge10" class="edge">
<title>separated/tic&#45;tac&#45;toe/src/init/log&#45;state.js&#45;&gt;lib/logger.js</title>
<path fill="none" stroke="#000000" stroke-width="2" stroke-opacity="0.200000" d="M175.22,-202.5C180.79,-199.36 185.99,-195.28 189.5,-190 201.86,-171.45 183.92,-107.68 197.5,-90 233.66,-42.92 306.61,-29.85 348.75,-26.28"/>
<polygon fill="#000000" fill-opacity="0.200000" stroke="#000000" stroke-width="2" stroke-opacity="0.200000" points="348.92,-28.37 354.74,-25.82 348.59,-24.19 348.92,-28.37"/>
</g>
<!-- separated/tic&#45;tac&#45;toe/src/init/log&#45;state.js&#45;&gt;separated/tic&#45;tac&#45;toe/src/data.js -->
<g id="edge11" class="edge">
<title>separated/tic&#45;tac&#45;toe/src/init/log&#45;state.js&#45;&gt;separated/tic&#45;tac&#45;toe/src/data.js</title>
<path fill="none" stroke="#000000" stroke-width="2" stroke-opacity="0.200000" d="M158.88,-221.36C168.69,-228.3 183.18,-237.2 197.5,-241 250.77,-255.15 268.71,-256.82 321.51,-241 338.08,-236.04 354.31,-224.77 365.58,-215.62"/>
<polygon fill="#000000" fill-opacity="0.200000" stroke="#000000" stroke-width="2" stroke-opacity="0.200000" points="367.14,-217.06 370.39,-211.6 364.44,-213.84 367.14,-217.06"/>
</g>
<!-- separated/tic&#45;tac&#45;toe/src/logic/determine&#45;winner.spec.js -->
<g id="node11" class="node">
<title>separated/tic&#45;tac&#45;toe/src/logic/determine&#45;winner.spec.js</title>
<g id="a_node11"><a xlink:href="separated/tic-tac-toe/src/logic/determine-winner.spec.js" xlink:title="determine&#45;winner.spec.js">
<path fill="#ffffcc" stroke="black" d="M315.31,-119.3C315.31,-119.3 211.7,-119.3 211.7,-119.3 208.6,-119.3 205.5,-116.2 205.5,-113.1 205.5,-113.1 205.5,-106.9 205.5,-106.9 205.5,-103.8 208.6,-100.7 211.7,-100.7 211.7,-100.7 315.31,-100.7 315.31,-100.7 318.41,-100.7 321.51,-103.8 321.51,-106.9 321.51,-106.9 321.51,-113.1 321.51,-113.1 321.51,-116.2 318.41,-119.3 315.31,-119.3"/>
<text text-anchor="middle" x="263.51" y="-107.3" font-family="Helvetica,sans-Serif" font-size="9.00">determine&#45;winner.spec.js</text>
</a>
</g>
</g>
<!-- separated/tic&#45;tac&#45;toe/src/logic/determine&#45;winner.spec.js&#45;&gt;separated/tic&#45;tac&#45;toe/src/logic/determine&#45;winner.js -->
<g id="edge14" class="edge">
<title>separated/tic&#45;tac&#45;toe/src/logic/determine&#45;winner.spec.js&#45;&gt;separated/tic&#45;tac&#45;toe/src/logic/determine&#45;winner.js</title>
<path fill="none" stroke="#000000" stroke-width="2" stroke-opacity="0.200000" d="M321.61,-110C323.74,-110 325.86,-110 327.98,-110"/>
<polygon fill="#000000" fill-opacity="0.200000" stroke="#000000" stroke-width="2" stroke-opacity="0.200000" points="328.29,-112.1 334.29,-110 328.29,-107.9 328.29,-112.1"/>
</g>
</g>
</svg>
