<?xml version="1.0" encoding="UTF-8" standalone="no"?>
<!DOCTYPE svg PUBLIC "-//W3C//DTD SVG 1.1//EN"
 "http://www.w3.org/Graphics/SVG/1.1/DTD/svg11.dtd">
<!-- Generated by graphviz version 2.44.0 (20200408.0750)
 -->
<!-- Title: dependency&#45;cruiser output Pages: 1 -->
<svg width="484pt" height="447pt"
 viewBox="0.00 0.00 484.01 447.00" xmlns="http://www.w3.org/2000/svg" xmlns:xlink="http://www.w3.org/1999/xlink">
<g id="graph0" class="graph" transform="scale(1 1) rotate(0) translate(4 443)">
<title>dependency&#45;cruiser output</title>
<polygon fill="white" stroke="transparent" points="-4,4 -4,-443 480.01,-443 480.01,4 -4,4"/>
<g id="clust1" class="cluster">
<title>cluster_..</title>
<path fill="#ffffff" stroke="black" stroke-width="2" d="M353.51,-85C353.51,-85 456.01,-85 456.01,-85 462.01,-85 468.01,-91 468.01,-97 468.01,-97 468.01,-161 468.01,-161 468.01,-167 462.01,-173 456.01,-173 456.01,-173 353.51,-173 353.51,-173 347.51,-173 341.51,-167 341.51,-161 341.51,-161 341.51,-97 341.51,-97 341.51,-91 347.51,-85 353.51,-85"/>
<text text-anchor="middle" x="404.76" y="-160.9" font-family="Helvetica,sans-Serif" font-weight="bold" font-size="9.00">..</text>
</g>
<g id="clust2" class="cluster">
<title>cluster_../utils</title>
<path fill="#ffffff" stroke="black" stroke-width="2" d="M361.51,-93C361.51,-93 448.01,-93 448.01,-93 454.01,-93 460.01,-99 460.01,-105 460.01,-105 460.01,-134 460.01,-134 460.01,-140 454.01,-146 448.01,-146 448.01,-146 361.51,-146 361.51,-146 355.51,-146 349.51,-140 349.51,-134 349.51,-134 349.51,-105 349.51,-105 349.51,-99 355.51,-93 361.51,-93"/>
<text text-anchor="middle" x="404.76" y="-133.9" font-family="Helvetica,sans-Serif" font-weight="bold" font-size="9.00">utils</text>
</g>
<g id="clust3" class="cluster">
<title>cluster_</title>
<path fill="#ffffff" stroke="black" stroke-width="2" d="M373.76,-8C373.76,-8 435.76,-8 435.76,-8 441.76,-8 447.76,-14 447.76,-20 447.76,-20 447.76,-65 447.76,-65 447.76,-71 441.76,-77 435.76,-77 435.76,-77 373.76,-77 373.76,-77 367.76,-77 361.76,-71 361.76,-65 361.76,-65 361.76,-20 361.76,-20 361.76,-14 367.76,-8 373.76,-8"/>
</g>
<g id="clust4" class="cluster">
<title>cluster_/.lib</title>
<path fill="#ffffff" stroke="black" stroke-width="2" d="M381.76,-16C381.76,-16 427.76,-16 427.76,-16 433.76,-16 439.76,-22 439.76,-28 439.76,-28 439.76,-57 439.76,-57 439.76,-63 433.76,-69 427.76,-69 427.76,-69 381.76,-69 381.76,-69 375.76,-69 369.76,-63 369.76,-57 369.76,-57 369.76,-28 369.76,-28 369.76,-22 375.76,-16 381.76,-16"/>
<text text-anchor="middle" x="404.76" y="-56.9" font-family="Helvetica,sans-Serif" font-weight="bold" font-size="9.00">.lib</text>
</g>
<g id="clust5" class="cluster">
<title>cluster_separated</title>
<path fill="#ffffff" stroke="black" stroke-width="2" d="M20,-181C20,-181 443.76,-181 443.76,-181 449.76,-181 455.76,-187 455.76,-193 455.76,-193 455.76,-419 455.76,-419 455.76,-425 449.76,-431 443.76,-431 443.76,-431 20,-431 20,-431 14,-431 8,-425 8,-419 8,-419 8,-193 8,-193 8,-187 14,-181 20,-181"/>
<text text-anchor="middle" x="231.88" y="-418.9" font-family="Helvetica,sans-Serif" font-weight="bold" font-size="9.00">separated</text>
</g>
<g id="clust6" class="cluster">
<title>cluster_separated/tic&#45;tac&#45;toe</title>
<path fill="#ffffff" stroke="black" stroke-width="2" d="M28,-189C28,-189 435.76,-189 435.76,-189 441.76,-189 447.76,-195 447.76,-201 447.76,-201 447.76,-392 447.76,-392 447.76,-398 441.76,-404 435.76,-404 435.76,-404 28,-404 28,-404 22,-404 16,-398 16,-392 16,-392 16,-201 16,-201 16,-195 22,-189 28,-189"/>
<text text-anchor="middle" x="231.88" y="-391.9" font-family="Helvetica,sans-Serif" font-weight="bold" font-size="9.00">tic&#45;tac&#45;toe</text>
</g>
<g id="clust7" class="cluster">
<title>cluster_separated/tic&#45;tac&#45;toe/src</title>
<path fill="#ffffff" stroke="black" stroke-width="2" d="M36,-197C36,-197 427.76,-197 427.76,-197 433.76,-197 439.76,-203 439.76,-209 439.76,-209 439.76,-365 439.76,-365 439.76,-371 433.76,-377 427.76,-377 427.76,-377 36,-377 36,-377 30,-377 24,-371 24,-365 24,-365 24,-209 24,-209 24,-203 30,-197 36,-197"/>
<text text-anchor="middle" x="231.88" y="-364.9" font-family="Helvetica,sans-Serif" font-weight="bold" font-size="9.00">src</text>
</g>
<g id="clust8" class="cluster">
<title>cluster_separated/tic&#45;tac&#45;toe/src/handlers</title>
<path fill="#ffffff" stroke="black" stroke-width="2" d="M258,-205C258,-205 321.51,-205 321.51,-205 327.51,-205 333.51,-211 333.51,-217 333.51,-217 333.51,-277 333.51,-277 333.51,-283 327.51,-289 321.51,-289 321.51,-289 258,-289 258,-289 252,-289 246,-283 246,-277 246,-277 246,-217 246,-217 246,-211 252,-205 258,-205"/>
<text text-anchor="middle" x="289.75" y="-276.9" font-family="Helvetica,sans-Serif" font-weight="bold" font-size="9.00">handlers</text>
</g>
<g id="clust9" class="cluster">
<title>cluster_separated/tic&#45;tac&#45;toe/src/init</title>
<path fill="#ffffff" stroke="black" stroke-width="2" d="M64.25,-297C64.25,-297 220,-297 220,-297 226,-297 232,-303 232,-309 232,-309 232,-338 232,-338 232,-344 226,-350 220,-350 220,-350 64.25,-350 64.25,-350 58.25,-350 52.25,-344 52.25,-338 52.25,-338 52.25,-309 52.25,-309 52.25,-303 58.25,-297 64.25,-297"/>
<text text-anchor="middle" x="142.13" y="-337.9" font-family="Helvetica,sans-Serif" font-weight="bold" font-size="9.00">init</text>
</g>
<g id="clust10" class="cluster">
<title>cluster_separated/tic&#45;tac&#45;toe/src/listeners</title>
<path fill="#ffffff" stroke="black" stroke-width="2" d="M162.5,-205C162.5,-205 226,-205 226,-205 232,-205 238,-211 238,-217 238,-217 238,-277 238,-277 238,-283 232,-289 226,-289 226,-289 162.5,-289 162.5,-289 156.5,-289 150.5,-283 150.5,-277 150.5,-277 150.5,-217 150.5,-217 150.5,-211 156.5,-205 162.5,-205"/>
<text text-anchor="middle" x="194.25" y="-276.9" font-family="Helvetica,sans-Serif" font-weight="bold" font-size="9.00">listeners</text>
</g>
<g id="clust11" class="cluster">
<title>cluster_separated/tic&#45;tac&#45;toe/src/logic</title>
<path fill="#ffffff" stroke="black" stroke-width="2" d="M44,-220C44,-220 130.5,-220 130.5,-220 136.5,-220 142.5,-226 142.5,-232 142.5,-232 142.5,-261 142.5,-261 142.5,-267 136.5,-273 130.5,-273 130.5,-273 44,-273 44,-273 38,-273 32,-267 32,-261 32,-261 32,-232 32,-232 32,-226 38,-220 44,-220"/>
<text text-anchor="middle" x="87.25" y="-260.9" font-family="Helvetica,sans-Serif" font-weight="bold" font-size="9.00">logic</text>
</g>
<!-- ../utils/determine&#45;winner.js -->
<g id="node1" class="node">
<title>../utils/determine&#45;winner.js</title>
<path fill="#ffffcc" stroke="red" d="M446.06,-119.3C446.06,-119.3 363.46,-119.3 363.46,-119.3 360.35,-119.3 357.25,-116.2 357.25,-113.1 357.25,-113.1 357.25,-106.9 357.25,-106.9 357.25,-103.8 360.35,-100.7 363.46,-100.7 363.46,-100.7 446.06,-100.7 446.06,-100.7 449.16,-100.7 452.26,-103.8 452.26,-106.9 452.26,-106.9 452.26,-113.1 452.26,-113.1 452.26,-116.2 449.16,-119.3 446.06,-119.3"/>
<text text-anchor="middle" x="404.76" y="-107.3" font-family="Helvetica,sans-Serif" font-size="9.00" fill="red">determine&#45;winner.js</text>
</g>
<!-- /.lib/logger.js -->
<g id="node2" class="node">
<title>/.lib/logger.js</title>
<polygon fill="#ffffcc" stroke="red" points="431.76,-42.3 430.21,-44.37 419.35,-44.37 417.8,-42.3 377.76,-42.3 377.76,-23.7 431.76,-23.7 431.76,-42.3"/>
<text text-anchor="middle" x="404.76" y="-30.3" font-family="Helvetica,sans-Serif" font-size="9.00" fill="red">logger.js</text>
</g>
<!-- separated/tic&#45;tac&#45;toe/src/data.js -->
<g id="node3" class="node">
<title>separated/tic&#45;tac&#45;toe/src/data.js</title>
<g id="a_node3"><a xlink:href="separated/tic-tac-toe/src/data.js" xlink:title="data.js">
<path fill="#ffffcc" stroke="black" d="M425.55,-262.3C425.55,-262.3 383.96,-262.3 383.96,-262.3 380.86,-262.3 377.76,-259.2 377.76,-256.1 377.76,-256.1 377.76,-249.9 377.76,-249.9 377.76,-246.8 380.86,-243.7 383.96,-243.7 383.96,-243.7 425.55,-243.7 425.55,-243.7 428.66,-243.7 431.76,-246.8 431.76,-249.9 431.76,-249.9 431.76,-256.1 431.76,-256.1 431.76,-259.2 428.66,-262.3 425.55,-262.3"/>
<text text-anchor="middle" x="404.76" y="-250.3" font-family="Helvetica,sans-Serif" font-size="9.00">data.js</text>
</a>
</g>
</g>
<!-- separated/tic&#45;tac&#45;toe/src/handlers/place&#45;move.js -->
<g id="node4" class="node">
<title>separated/tic&#45;tac&#45;toe/src/handlers/place&#45;move.js</title>
<g id="a_node4"><a xlink:href="separated/tic-tac-toe/src/handlers/place-move.js" xlink:title="place&#45;move.js">
<path fill="#ffffcc" stroke="black" d="M319.06,-262.3C319.06,-262.3 260.45,-262.3 260.45,-262.3 257.35,-262.3 254.25,-259.2 254.25,-256.1 254.25,-256.1 254.25,-249.9 254.25,-249.9 254.25,-246.8 257.35,-243.7 260.45,-243.7 260.45,-243.7 319.06,-243.7 319.06,-243.7 322.16,-243.7 325.26,-246.8 325.26,-249.9 325.26,-249.9 325.26,-256.1 325.26,-256.1 325.26,-259.2 322.16,-262.3 319.06,-262.3"/>
<text text-anchor="middle" x="289.75" y="-250.3" font-family="Helvetica,sans-Serif" font-size="9.00">place&#45;move.js</text>
</a>
</g>
</g>
<!-- separated/tic&#45;tac&#45;toe/src/handlers/place&#45;move.js&#45;&gt;../utils/determine&#45;winner.js -->
<g id="edge2" class="edge">
<title>separated/tic&#45;tac&#45;toe/src/handlers/place&#45;move.js&#45;&gt;../utils/determine&#45;winner.js</title>
<path fill="none" stroke="#000000" stroke-width="2" stroke-opacity="0.200000" d="M325.54,-243.75C328.53,-241.9 331.26,-239.67 333.51,-237 346,-222.11 333.74,-211.82 341.51,-194 353.46,-166.55 375.85,-139.6 390.27,-123.91"/>
<polygon fill="#000000" fill-opacity="0.200000" stroke="#000000" stroke-width="2" stroke-opacity="0.200000" points="391.91,-125.23 394.47,-119.41 388.84,-122.36 391.91,-125.23"/>
</g>
<!-- separated/tic&#45;tac&#45;toe/src/handlers/place&#45;move.js&#45;&gt;/.lib/logger.js -->
<g id="edge3" class="edge">
<title>separated/tic&#45;tac&#45;toe/src/handlers/place&#45;move.js&#45;&gt;/.lib/logger.js</title>
<path fill="none" stroke="#000000" stroke-width="2" stroke-opacity="0.200000" d="M325.5,-244.3C328.58,-242.34 331.35,-239.94 333.51,-237 352.87,-210.63 327.52,-119.57 341.51,-90 350.32,-71.36 368.26,-55.99 382.62,-45.93"/>
<polygon fill="#000000" fill-opacity="0.200000" stroke="#000000" stroke-width="2" stroke-opacity="0.200000" points="383.94,-47.57 387.73,-42.46 381.58,-44.09 383.94,-47.57"/>
</g>
<!-- separated/tic&#45;tac&#45;toe/src/handlers/place&#45;move.js&#45;&gt;separated/tic&#45;tac&#45;toe/src/data.js -->
<g id="edge1" class="edge">
<title>separated/tic&#45;tac&#45;toe/src/handlers/place&#45;move.js&#45;&gt;separated/tic&#45;tac&#45;toe/src/data.js</title>
<path fill="none" stroke="#000000" stroke-width="2" stroke-opacity="0.200000" d="M325.27,-253C340.04,-253 357.18,-253 371.67,-253"/>
<polygon fill="#000000" fill-opacity="0.200000" stroke="#000000" stroke-width="2" stroke-opacity="0.200000" points="371.7,-255.1 377.7,-253 371.7,-250.9 371.7,-255.1"/>
</g>
<!-- separated/tic&#45;tac&#45;toe/src/handlers/reset&#45;game.js -->
<g id="node5" class="node">
<title>separated/tic&#45;tac&#45;toe/src/handlers/reset&#45;game.js</title>
<g id="a_node5"><a xlink:href="separated/tic-tac-toe/src/handlers/reset-game.js" xlink:title="reset&#45;game.js">
<path fill="#ffffcc" stroke="black" d="M318.56,-231.3C318.56,-231.3 260.95,-231.3 260.95,-231.3 257.85,-231.3 254.75,-228.2 254.75,-225.1 254.75,-225.1 254.75,-218.9 254.75,-218.9 254.75,-215.8 257.85,-212.7 260.95,-212.7 260.95,-212.7 318.56,-212.7 318.56,-212.7 321.66,-212.7 324.76,-215.8 324.76,-218.9 324.76,-218.9 324.76,-225.1 324.76,-225.1 324.76,-228.2 321.66,-231.3 318.56,-231.3"/>
<text text-anchor="middle" x="289.75" y="-219.3" font-family="Helvetica,sans-Serif" font-size="9.00">reset&#45;game.js</text>
</a>
</g>
</g>
<!-- separated/tic&#45;tac&#45;toe/src/handlers/reset&#45;game.js&#45;&gt;/.lib/logger.js -->
<g id="edge5" class="edge">
<title>separated/tic&#45;tac&#45;toe/src/handlers/reset&#45;game.js&#45;&gt;/.lib/logger.js</title>
<path fill="none" stroke="#000000" stroke-width="2" stroke-opacity="0.200000" d="M295.37,-212.43C303.78,-194.71 321.84,-155.45 333.51,-121 338.07,-107.52 334.18,-102.2 341.51,-90 352.33,-71.99 370.56,-56.27 384.5,-45.93"/>
<polygon fill="#000000" fill-opacity="0.200000" stroke="#000000" stroke-width="2" stroke-opacity="0.200000" points="385.79,-47.59 389.42,-42.37 383.33,-44.18 385.79,-47.59"/>
</g>
<!-- separated/tic&#45;tac&#45;toe/src/handlers/reset&#45;game.js&#45;&gt;separated/tic&#45;tac&#45;toe/src/data.js -->
<g id="edge4" class="edge">
<title>separated/tic&#45;tac&#45;toe/src/handlers/reset&#45;game.js&#45;&gt;separated/tic&#45;tac&#45;toe/src/data.js</title>
<path fill="none" stroke="#000000" stroke-width="2" stroke-opacity="0.200000" d="M324.97,-231.39C339.74,-235.44 356.94,-240.16 371.5,-244.15"/>
<polygon fill="#000000" fill-opacity="0.200000" stroke="#000000" stroke-width="2" stroke-opacity="0.200000" points="371.22,-246.25 377.56,-245.81 372.33,-242.2 371.22,-246.25"/>
</g>
<!-- separated/tic&#45;tac&#45;toe/src/init/index.js -->
<g id="node6" class="node">
<title>separated/tic&#45;tac&#45;toe/src/init/index.js</title>
<g id="a_node6"><a xlink:href="separated/tic-tac-toe/src/init/index.js" xlink:title="index.js">
<path fill="#ffffcc" stroke="black" d="M108.05,-323.3C108.05,-323.3 66.45,-323.3 66.45,-323.3 63.35,-323.3 60.25,-320.2 60.25,-317.1 60.25,-317.1 60.25,-310.9 60.25,-310.9 60.25,-307.8 63.35,-304.7 66.45,-304.7 66.45,-304.7 108.05,-304.7 108.05,-304.7 111.15,-304.7 114.25,-307.8 114.25,-310.9 114.25,-310.9 114.25,-317.1 114.25,-317.1 114.25,-320.2 111.15,-323.3 108.05,-323.3"/>
<text text-anchor="middle" x="87.25" y="-311.3" font-family="Helvetica,sans-Serif" font-size="9.00">index.js</text>
</a>
</g>
</g>
<!-- separated/tic&#45;tac&#45;toe/src/listeners/place&#45;move.js -->
<g id="node7" class="node">
<title>separated/tic&#45;tac&#45;toe/src/listeners/place&#45;move.js</title>
<g id="a_node7"><a xlink:href="separated/tic-tac-toe/src/listeners/place-move.js" xlink:title="place&#45;move.js">
<path fill="#ffffcc" stroke="black" d="M223.56,-262.3C223.56,-262.3 164.95,-262.3 164.95,-262.3 161.85,-262.3 158.75,-259.2 158.75,-256.1 158.75,-256.1 158.75,-249.9 158.75,-249.9 158.75,-246.8 161.85,-243.7 164.95,-243.7 164.95,-243.7 223.56,-243.7 223.56,-243.7 226.66,-243.7 229.76,-246.8 229.76,-249.9 229.76,-249.9 229.76,-256.1 229.76,-256.1 229.76,-259.2 226.66,-262.3 223.56,-262.3"/>
<text text-anchor="middle" x="194.25" y="-250.3" font-family="Helvetica,sans-Serif" font-size="9.00">place&#45;move.js</text>
</a>
</g>
</g>
<!-- separated/tic&#45;tac&#45;toe/src/init/index.js&#45;&gt;separated/tic&#45;tac&#45;toe/src/listeners/place&#45;move.js -->
<g id="edge6" class="edge">
<title>separated/tic&#45;tac&#45;toe/src/init/index.js&#45;&gt;separated/tic&#45;tac&#45;toe/src/listeners/place&#45;move.js</title>
<path fill="none" stroke="#000000" stroke-width="2" stroke-opacity="0.200000" d="M104.66,-304.47C122.69,-293.99 151.73,-277.12 171.61,-265.57"/>
<polygon fill="#000000" fill-opacity="0.200000" stroke="#000000" stroke-width="2" stroke-opacity="0.200000" points="172.83,-267.29 176.96,-262.46 170.72,-263.66 172.83,-267.29"/>
</g>
<!-- separated/tic&#45;tac&#45;toe/src/listeners/reset&#45;game.js -->
<g id="node8" class="node">
<title>separated/tic&#45;tac&#45;toe/src/listeners/reset&#45;game.js</title>
<g id="a_node8"><a xlink:href="separated/tic-tac-toe/src/listeners/reset-game.js" xlink:title="reset&#45;game.js">
<path fill="#ffffcc" stroke="black" d="M223.06,-231.3C223.06,-231.3 165.45,-231.3 165.45,-231.3 162.35,-231.3 159.25,-228.2 159.25,-225.1 159.25,-225.1 159.25,-218.9 159.25,-218.9 159.25,-215.8 162.35,-212.7 165.45,-212.7 165.45,-212.7 223.06,-212.7 223.06,-212.7 226.16,-212.7 229.26,-215.8 229.26,-218.9 229.26,-218.9 229.26,-225.1 229.26,-225.1 229.26,-228.2 226.16,-231.3 223.06,-231.3"/>
<text text-anchor="middle" x="194.25" y="-219.3" font-family="Helvetica,sans-Serif" font-size="9.00">reset&#45;game.js</text>
</a>
</g>
</g>
<!-- separated/tic&#45;tac&#45;toe/src/init/index.js&#45;&gt;separated/tic&#45;tac&#45;toe/src/listeners/reset&#45;game.js -->
<g id="edge7" class="edge">
<title>separated/tic&#45;tac&#45;toe/src/init/index.js&#45;&gt;separated/tic&#45;tac&#45;toe/src/listeners/reset&#45;game.js</title>
<path fill="none" stroke="#000000" stroke-width="2" stroke-opacity="0.200000" d="M108.48,-304.66C120.19,-298.23 134.2,-288.57 142.5,-276 152.01,-261.6 139.25,-251.09 150.5,-238 151.54,-236.79 152.68,-235.67 153.9,-234.64"/>
<polygon fill="#000000" fill-opacity="0.200000" stroke="#000000" stroke-width="2" stroke-opacity="0.200000" points="155.27,-236.24 158.94,-231.06 152.83,-232.82 155.27,-236.24"/>
</g>
<!-- separated/tic&#45;tac&#45;toe/src/init/log&#45;state.js -->
<g id="node9" class="node">
<title>separated/tic&#45;tac&#45;toe/src/init/log&#45;state.js</title>
<g id="a_node9"><a xlink:href="separated/tic-tac-toe/src/init/log-state.js" xlink:title="log&#45;state.js">
<path fill="#ffffcc" stroke="black" d="M217.56,-323.3C217.56,-323.3 170.94,-323.3 170.94,-323.3 167.84,-323.3 164.74,-320.2 164.74,-317.1 164.74,-317.1 164.74,-310.9 164.74,-310.9 164.74,-307.8 167.84,-304.7 170.94,-304.7 170.94,-304.7 217.56,-304.7 217.56,-304.7 220.66,-304.7 223.76,-307.8 223.76,-310.9 223.76,-310.9 223.76,-317.1 223.76,-317.1 223.76,-320.2 220.66,-323.3 217.56,-323.3"/>
<text text-anchor="middle" x="194.25" y="-311.3" font-family="Helvetica,sans-Serif" font-size="9.00">log&#45;state.js</text>
</a>
</g>
</g>
<!-- separated/tic&#45;tac&#45;toe/src/init/index.js&#45;&gt;separated/tic&#45;tac&#45;toe/src/init/log&#45;state.js -->
<g id="edge8" class="edge">
<title>separated/tic&#45;tac&#45;toe/src/init/index.js&#45;&gt;separated/tic&#45;tac&#45;toe/src/init/log&#45;state.js</title>
<path fill="none" stroke="#000000" stroke-width="2" stroke-opacity="0.200000" d="M114.48,-314C127.76,-314 144.08,-314 158.4,-314"/>
<polygon fill="#000000" fill-opacity="0.200000" stroke="#000000" stroke-width="2" stroke-opacity="0.200000" points="158.41,-316.1 164.41,-314 158.41,-311.9 158.41,-316.1"/>
</g>
<!-- separated/tic&#45;tac&#45;toe/src/listeners/place&#45;move.js&#45;&gt;separated/tic&#45;tac&#45;toe/src/handlers/place&#45;move.js -->
<g id="edge11" class="edge">
<title>separated/tic&#45;tac&#45;toe/src/listeners/place&#45;move.js&#45;&gt;separated/tic&#45;tac&#45;toe/src/handlers/place&#45;move.js</title>
<path fill="none" stroke="#000000" stroke-width="2" stroke-opacity="0.200000" d="M229.8,-253C235.73,-253 241.95,-253 248.02,-253"/>
<polygon fill="#000000" fill-opacity="0.200000" stroke="#000000" stroke-width="2" stroke-opacity="0.200000" points="248.03,-255.1 254.03,-253 248.03,-250.9 248.03,-255.1"/>
</g>
<!-- separated/tic&#45;tac&#45;toe/src/listeners/reset&#45;game.js&#45;&gt;separated/tic&#45;tac&#45;toe/src/handlers/reset&#45;game.js -->
<g id="edge12" class="edge">
<title>separated/tic&#45;tac&#45;toe/src/listeners/reset&#45;game.js&#45;&gt;separated/tic&#45;tac&#45;toe/src/handlers/reset&#45;game.js</title>
<path fill="none" stroke="#000000" stroke-width="2" stroke-opacity="0.200000" d="M229.27,-222C235.46,-222 241.97,-222 248.32,-222"/>
<polygon fill="#000000" fill-opacity="0.200000" stroke="#000000" stroke-width="2" stroke-opacity="0.200000" points="248.6,-224.1 254.6,-222 248.6,-219.9 248.6,-224.1"/>
</g>
<!-- separated/tic&#45;tac&#45;toe/src/init/log&#45;state.js&#45;&gt;/.lib/logger.js -->
<g id="edge10" class="edge">
<title>separated/tic&#45;tac&#45;toe/src/init/log&#45;state.js&#45;&gt;/.lib/logger.js</title>
<path fill="none" stroke="#000000" stroke-width="2" stroke-opacity="0.200000" d="M223.69,-304.47C229.26,-301.34 234.46,-297.26 238,-292 249.21,-275.34 238.23,-220.51 246,-202 271.32,-141.68 296.07,-137.07 341.51,-90 356.42,-74.55 374.66,-58.11 387.53,-46.88"/>
<polygon fill="#000000" fill-opacity="0.200000" stroke="#000000" stroke-width="2" stroke-opacity="0.200000" points="389.19,-48.21 392.35,-42.69 386.44,-45.04 389.19,-48.21"/>
</g>
<!-- separated/tic&#45;tac&#45;toe/src/init/log&#45;state.js&#45;&gt;separated/tic&#45;tac&#45;toe/src/data.js -->
<g id="edge9" class="edge">
<title>separated/tic&#45;tac&#45;toe/src/init/log&#45;state.js&#45;&gt;separated/tic&#45;tac&#45;toe/src/data.js</title>
<path fill="none" stroke="#000000" stroke-width="2" stroke-opacity="0.200000" d="M224.02,-312.35C252.49,-310.04 296.98,-304.61 333.51,-292 352.02,-285.61 371.35,-274.5 385.03,-265.77"/>
<polygon fill="#000000" fill-opacity="0.200000" stroke="#000000" stroke-width="2" stroke-opacity="0.200000" points="386.28,-267.47 390.17,-262.44 384,-263.94 386.28,-267.47"/>
</g>
<!-- separated/tic&#45;tac&#45;toe/src/logic/determine&#45;winner.js -->
<g id="node10" class="node">
<title>separated/tic&#45;tac&#45;toe/src/logic/determine&#45;winner.js</title>
<g id="a_node10"><a xlink:href="separated/tic-tac-toe/src/logic/determine-winner.js" xlink:title="determine&#45;winner.js">
<path fill="#ccffcc" stroke="black" d="M128.55,-246.3C128.55,-246.3 45.95,-246.3 45.95,-246.3 42.85,-246.3 39.75,-243.2 39.75,-240.1 39.75,-240.1 39.75,-233.9 39.75,-233.9 39.75,-230.8 42.85,-227.7 45.95,-227.7 45.95,-227.7 128.55,-227.7 128.55,-227.7 131.65,-227.7 134.75,-230.8 134.75,-233.9 134.75,-233.9 134.75,-240.1 134.75,-240.1 134.75,-243.2 131.65,-246.3 128.55,-246.3"/>
<text text-anchor="middle" x="87.25" y="-234.3" font-family="Helvetica,sans-Serif" font-size="9.00">determine&#45;winner.js</text>
</a>
</g>
</g>
</g>
</svg>
