<?xml version="1.0" encoding="UTF-8" standalone="no"?>
<!DOCTYPE svg PUBLIC "-//W3C//DTD SVG 1.1//EN"
 "http://www.w3.org/Graphics/SVG/1.1/DTD/svg11.dtd">
<!-- Generated by graphviz version 2.44.0 (20200408.0750)
 -->
<!-- Title: dependency&#45;cruiser output Pages: 1 -->
<svg width="498pt" height="397pt"
 viewBox="0.00 0.00 497.51 397.00" xmlns="http://www.w3.org/2000/svg" xmlns:xlink="http://www.w3.org/1999/xlink">
<g id="graph0" class="graph" transform="scale(1 1) rotate(0) translate(4 393)">
<title>dependency&#45;cruiser output</title>
<polygon fill="white" stroke="transparent" points="-4,4 -4,-393 493.51,-393 493.51,4 -4,4"/>
<g id="clust1" class="cluster">
<title>cluster_lib</title>
<path fill="#ffffff" stroke="black" stroke-width="2" d="M322,-8C322,-8 469.51,-8 469.51,-8 475.51,-8 481.51,-14 481.51,-20 481.51,-20 481.51,-49 481.51,-49 481.51,-55 475.51,-61 469.51,-61 469.51,-61 322,-61 322,-61 316,-61 310,-55 310,-49 310,-49 310,-20 310,-20 310,-14 316,-8 322,-8"/>
<text text-anchor="middle" x="395.76" y="-48.9" font-family="Helvetica,sans-Serif" font-weight="bold" font-size="9.00">lib</text>
</g>
<g id="clust2" class="cluster">
<title>cluster_separated</title>
<path fill="#ffffff" stroke="black" stroke-width="2" d="M20,-69C20,-69 384,-69 384,-69 390,-69 396,-75 396,-81 396,-81 396,-369 396,-369 396,-375 390,-381 384,-381 384,-381 20,-381 20,-381 14,-381 8,-375 8,-369 8,-369 8,-81 8,-81 8,-75 14,-69 20,-69"/>
<text text-anchor="middle" x="202" y="-368.9" font-family="Helvetica,sans-Serif" font-weight="bold" font-size="9.00">separated</text>
</g>
<g id="clust3" class="cluster">
<title>cluster_separated/increment</title>
<path fill="#ffffff" stroke="black" stroke-width="2" d="M28,-77C28,-77 376,-77 376,-77 382,-77 388,-83 388,-89 388,-89 388,-342 388,-342 388,-348 382,-354 376,-354 376,-354 28,-354 28,-354 22,-354 16,-348 16,-342 16,-342 16,-89 16,-89 16,-83 22,-77 28,-77"/>
<text text-anchor="middle" x="202" y="-341.9" font-family="Helvetica,sans-Serif" font-weight="bold" font-size="9.00">increment</text>
</g>
<g id="clust4" class="cluster">
<title>cluster_separated/increment/src</title>
<path fill="#ffffff" stroke="black" stroke-width="2" d="M36,-85C36,-85 368,-85 368,-85 374,-85 380,-91 380,-97 380,-97 380,-315 380,-315 380,-321 374,-327 368,-327 368,-327 36,-327 36,-327 30,-327 24,-321 24,-315 24,-315 24,-97 24,-97 24,-91 30,-85 36,-85"/>
<text text-anchor="middle" x="202" y="-314.9" font-family="Helvetica,sans-Serif" font-weight="bold" font-size="9.00">src</text>
</g>
<g id="clust5" class="cluster">
<title>cluster_separated/increment/src/handlers</title>
<path fill="#ffffff" stroke="black" stroke-width="2" d="M202.5,-93C202.5,-93 290,-93 290,-93 296,-93 302,-99 302,-105 302,-105 302,-196 302,-196 302,-202 296,-208 290,-208 290,-208 202.5,-208 202.5,-208 196.5,-208 190.5,-202 190.5,-196 190.5,-196 190.5,-105 190.5,-105 190.5,-99 196.5,-93 202.5,-93"/>
<text text-anchor="middle" x="246.25" y="-195.9" font-family="Helvetica,sans-Serif" font-weight="bold" font-size="9.00">handlers</text>
</g>
<g id="clust6" class="cluster">
<title>cluster_separated/increment/src/init</title>
<path fill="#ffffff" stroke="black" stroke-width="2" d="M44,-216C44,-216 168,-216 168,-216 174,-216 180,-222 180,-228 180,-228 180,-288 180,-288 180,-294 174,-300 168,-300 168,-300 44,-300 44,-300 38,-300 32,-294 32,-288 32,-288 32,-228 32,-228 32,-222 38,-216 44,-216"/>
<text text-anchor="middle" x="106" y="-287.9" font-family="Helvetica,sans-Serif" font-weight="bold" font-size="9.00">init</text>
</g>
<g id="clust7" class="cluster">
<title>cluster_separated/increment/src/listeners</title>
<path fill="#ffffff" stroke="black" stroke-width="2" d="M114,-93C114,-93 170.5,-93 170.5,-93 176.5,-93 182.5,-99 182.5,-105 182.5,-105 182.5,-196 182.5,-196 182.5,-202 176.5,-208 170.5,-208 170.5,-208 114,-208 114,-208 108,-208 102,-202 102,-196 102,-196 102,-105 102,-105 102,-99 108,-93 114,-93"/>
<text text-anchor="middle" x="142.25" y="-195.9" font-family="Helvetica,sans-Serif" font-weight="bold" font-size="9.00">listeners</text>
</g>
<!-- lib/deep&#45;clone.js -->
<g id="node1" class="node">
<title>lib/deep&#45;clone.js</title>
<g id="a_node1"><a xlink:href="lib/deep-clone.js" xlink:title="deep&#45;clone.js">
<path fill="#ffffcc" stroke="black" d="M467.07,-34.3C467.07,-34.3 410.44,-34.3 410.44,-34.3 407.34,-34.3 404.24,-31.2 404.24,-28.1 404.24,-28.1 404.24,-21.9 404.24,-21.9 404.24,-18.8 407.34,-15.7 410.44,-15.7 410.44,-15.7 467.07,-15.7 467.07,-15.7 470.17,-15.7 473.27,-18.8 473.27,-21.9 473.27,-21.9 473.27,-28.1 473.27,-28.1 473.27,-31.2 470.17,-34.3 467.07,-34.3"/>
<text text-anchor="middle" x="438.76" y="-22.3" font-family="Helvetica,sans-Serif" font-size="9.00">deep&#45;clone.js</text>
</a>
</g>
</g>
<!-- lib/logger.js -->
<g id="node2" class="node">
<title>lib/logger.js</title>
<g id="a_node2"><a xlink:href="lib/logger.js" xlink:title="logger.js">
<path fill="#ffffcc" stroke="black" d="M365.8,-34.3C365.8,-34.3 324.2,-34.3 324.2,-34.3 321.1,-34.3 318,-31.2 318,-28.1 318,-28.1 318,-21.9 318,-21.9 318,-18.8 321.1,-15.7 324.2,-15.7 324.2,-15.7 365.8,-15.7 365.8,-15.7 368.9,-15.7 372,-18.8 372,-21.9 372,-21.9 372,-28.1 372,-28.1 372,-31.2 368.9,-34.3 365.8,-34.3"/>
<text text-anchor="middle" x="345" y="-22.3" font-family="Helvetica,sans-Serif" font-size="9.00">logger.js</text>
</a>
</g>
</g>
<!-- lib/logger.js&#45;&gt;lib/deep&#45;clone.js -->
<g id="edge1" class="edge">
<title>lib/logger.js&#45;&gt;lib/deep&#45;clone.js</title>
<path fill="none" stroke="#000000" stroke-width="2" stroke-opacity="0.200000" d="M372.05,-25C380.14,-25 389.25,-25 398.06,-25"/>
<polygon fill="#000000" fill-opacity="0.200000" stroke="#000000" stroke-width="2" stroke-opacity="0.200000" points="398.09,-27.1 404.09,-25 398.09,-22.9 398.09,-27.1"/>
</g>
<!-- separated/increment/src/data.js -->
<g id="node3" class="node">
<title>separated/increment/src/data.js</title>
<g id="a_node3"><a xlink:href="separated/increment/src/data.js" xlink:title="data.js">
<path fill="#ffffcc" stroke="black" d="M365.8,-181.3C365.8,-181.3 324.2,-181.3 324.2,-181.3 321.1,-181.3 318,-178.2 318,-175.1 318,-175.1 318,-168.9 318,-168.9 318,-165.8 321.1,-162.7 324.2,-162.7 324.2,-162.7 365.8,-162.7 365.8,-162.7 368.9,-162.7 372,-165.8 372,-168.9 372,-168.9 372,-175.1 372,-175.1 372,-178.2 368.9,-181.3 365.8,-181.3"/>
<text text-anchor="middle" x="345" y="-169.3" font-family="Helvetica,sans-Serif" font-size="9.00">data.js</text>
</a>
</g>
</g>
<!-- separated/increment/src/handlers/increment&#45;current.js -->
<g id="node4" class="node">
<title>separated/increment/src/handlers/increment&#45;current.js</title>
<g id="a_node4"><a xlink:href="separated/increment/src/handlers/increment-current.js" xlink:title="increment&#45;current.js">
<path fill="#ffffcc" stroke="black" d="M288.05,-150.3C288.05,-150.3 204.45,-150.3 204.45,-150.3 201.35,-150.3 198.25,-147.2 198.25,-144.1 198.25,-144.1 198.25,-137.9 198.25,-137.9 198.25,-134.8 201.35,-131.7 204.45,-131.7 204.45,-131.7 288.05,-131.7 288.05,-131.7 291.15,-131.7 294.25,-134.8 294.25,-137.9 294.25,-137.9 294.25,-144.1 294.25,-144.1 294.25,-147.2 291.15,-150.3 288.05,-150.3"/>
<text text-anchor="middle" x="246.25" y="-138.3" font-family="Helvetica,sans-Serif" font-size="9.00">increment&#45;current.js</text>
</a>
</g>
</g>
<!-- separated/increment/src/handlers/increment&#45;current.js&#45;&gt;lib/logger.js -->
<g id="edge2" class="edge">
<title>separated/increment/src/handlers/increment&#45;current.js&#45;&gt;lib/logger.js</title>
<path fill="none" stroke="#000000" stroke-width="2" stroke-opacity="0.200000" d="M294.01,-131.56C296.96,-129.74 299.68,-127.57 302,-125 315.04,-110.58 303.14,-100.19 310,-82 315.8,-66.62 325.7,-50.68 333.32,-39.58"/>
<polygon fill="#000000" fill-opacity="0.200000" stroke="#000000" stroke-width="2" stroke-opacity="0.200000" points="335.13,-40.66 336.85,-34.55 331.69,-38.25 335.13,-40.66"/>
</g>
<!-- separated/increment/src/handlers/increment&#45;current.js&#45;&gt;separated/increment/src/data.js -->
<g id="edge3" class="edge">
<title>separated/increment/src/handlers/increment&#45;current.js&#45;&gt;separated/increment/src/data.js</title>
<path fill="none" stroke="#000000" stroke-width="2" stroke-opacity="0.200000" d="M280.35,-150.33C287.51,-152.45 295.03,-154.74 302,-157 305.4,-158.1 308.93,-159.29 312.45,-160.51"/>
<polygon fill="#000000" fill-opacity="0.200000" stroke="#000000" stroke-width="2" stroke-opacity="0.200000" points="311.96,-162.56 318.32,-162.56 313.35,-158.6 311.96,-162.56"/>
</g>
<!-- separated/increment/src/handlers/reset.js -->
<g id="node5" class="node">
<title>separated/increment/src/handlers/reset.js</title>
<g id="a_node5"><a xlink:href="separated/increment/src/handlers/reset.js" xlink:title="reset.js">
<path fill="#ffffcc" stroke="black" d="M267.05,-119.3C267.05,-119.3 225.45,-119.3 225.45,-119.3 222.35,-119.3 219.25,-116.2 219.25,-113.1 219.25,-113.1 219.25,-106.9 219.25,-106.9 219.25,-103.8 222.35,-100.7 225.45,-100.7 225.45,-100.7 267.05,-100.7 267.05,-100.7 270.15,-100.7 273.25,-103.8 273.25,-106.9 273.25,-106.9 273.25,-113.1 273.25,-113.1 273.25,-116.2 270.15,-119.3 267.05,-119.3"/>
<text text-anchor="middle" x="246.25" y="-107.3" font-family="Helvetica,sans-Serif" font-size="9.00">reset.js</text>
</a>
</g>
</g>
<!-- separated/increment/src/handlers/reset.js&#45;&gt;lib/logger.js -->
<g id="edge4" class="edge">
<title>separated/increment/src/handlers/reset.js&#45;&gt;lib/logger.js</title>
<path fill="none" stroke="#000000" stroke-width="2" stroke-opacity="0.200000" d="M257.97,-100.58C275.12,-85.52 308.78,-55.95 328.53,-38.6"/>
<polygon fill="#000000" fill-opacity="0.200000" stroke="#000000" stroke-width="2" stroke-opacity="0.200000" points="330.11,-40 333.23,-34.46 327.34,-36.85 330.11,-40"/>
</g>
<!-- separated/increment/src/handlers/reset.js&#45;&gt;separated/increment/src/data.js -->
<g id="edge5" class="edge">
<title>separated/increment/src/handlers/reset.js&#45;&gt;separated/increment/src/data.js</title>
<path fill="none" stroke="#000000" stroke-width="2" stroke-opacity="0.200000" d="M273.27,-114.53C282.79,-116.96 293.35,-120.6 302,-126 314.97,-134.09 326.42,-147.27 334.08,-157.45"/>
<polygon fill="#000000" fill-opacity="0.200000" stroke="#000000" stroke-width="2" stroke-opacity="0.200000" points="332.5,-158.85 337.73,-162.46 335.89,-156.38 332.5,-158.85"/>
</g>
<!-- separated/increment/src/handlers/set&#45;step.js -->
<g id="node6" class="node">
<title>separated/increment/src/handlers/set&#45;step.js</title>
<g id="a_node6"><a xlink:href="separated/increment/src/handlers/set-step.js" xlink:title="set&#45;step.js">
<path fill="#ffffcc" stroke="black" d="M268.56,-181.3C268.56,-181.3 223.95,-181.3 223.95,-181.3 220.85,-181.3 217.75,-178.2 217.75,-175.1 217.75,-175.1 217.75,-168.9 217.75,-168.9 217.75,-165.8 220.85,-162.7 223.95,-162.7 223.95,-162.7 268.56,-162.7 268.56,-162.7 271.66,-162.7 274.76,-165.8 274.76,-168.9 274.76,-168.9 274.76,-175.1 274.76,-175.1 274.76,-178.2 271.66,-181.3 268.56,-181.3"/>
<text text-anchor="middle" x="246.25" y="-169.3" font-family="Helvetica,sans-Serif" font-size="9.00">set&#45;step.js</text>
</a>
</g>
</g>
<!-- separated/increment/src/handlers/set&#45;step.js&#45;&gt;lib/logger.js -->
<g id="edge6" class="edge">
<title>separated/increment/src/handlers/set&#45;step.js&#45;&gt;lib/logger.js</title>
<path fill="none" stroke="#000000" stroke-width="2" stroke-opacity="0.200000" d="M274.96,-170.19C284.92,-168.1 295.33,-163.97 302,-156 312.62,-143.32 304.75,-97.69 310,-82 315.21,-66.41 325.18,-50.5 332.97,-39.46"/>
<polygon fill="#000000" fill-opacity="0.200000" stroke="#000000" stroke-width="2" stroke-opacity="0.200000" points="334.78,-40.55 336.6,-34.46 331.38,-38.08 334.78,-40.55"/>
</g>
<!-- separated/increment/src/handlers/set&#45;step.js&#45;&gt;separated/increment/src/data.js -->
<g id="edge7" class="edge">
<title>separated/increment/src/handlers/set&#45;step.js&#45;&gt;separated/increment/src/data.js</title>
<path fill="none" stroke="#000000" stroke-width="2" stroke-opacity="0.200000" d="M274.98,-172C286.48,-172 299.91,-172 311.85,-172"/>
<polygon fill="#000000" fill-opacity="0.200000" stroke="#000000" stroke-width="2" stroke-opacity="0.200000" points="311.93,-174.1 317.93,-172 311.93,-169.9 311.93,-174.1"/>
</g>
<!-- separated/increment/src/init/index.js -->
<g id="node7" class="node">
<title>separated/increment/src/init/index.js</title>
<g id="a_node7"><a xlink:href="separated/increment/src/init/index.js" xlink:title="index.js">
<path fill="#ffffcc" stroke="black" d="M87.8,-242.3C87.8,-242.3 46.2,-242.3 46.2,-242.3 43.1,-242.3 40,-239.2 40,-236.1 40,-236.1 40,-229.9 40,-229.9 40,-226.8 43.1,-223.7 46.2,-223.7 46.2,-223.7 87.8,-223.7 87.8,-223.7 90.9,-223.7 94,-226.8 94,-229.9 94,-229.9 94,-236.1 94,-236.1 94,-239.2 90.9,-242.3 87.8,-242.3"/>
<text text-anchor="middle" x="67" y="-230.3" font-family="Helvetica,sans-Serif" font-size="9.00">index.js</text>
</a>
</g>
</g>
<!-- separated/increment/src/listeners/increment.js -->
<g id="node8" class="node">
<title>separated/increment/src/listeners/increment.js</title>
<g id="a_node8"><a xlink:href="separated/increment/src/listeners/increment.js" xlink:title="increment.js">
<path fill="#ffffcc" stroke="black" d="M168.05,-150.3C168.05,-150.3 116.45,-150.3 116.45,-150.3 113.35,-150.3 110.25,-147.2 110.25,-144.1 110.25,-144.1 110.25,-137.9 110.25,-137.9 110.25,-134.8 113.35,-131.7 116.45,-131.7 116.45,-131.7 168.05,-131.7 168.05,-131.7 171.15,-131.7 174.25,-134.8 174.25,-137.9 174.25,-137.9 174.25,-144.1 174.25,-144.1 174.25,-147.2 171.15,-150.3 168.05,-150.3"/>
<text text-anchor="middle" x="142.25" y="-138.3" font-family="Helvetica,sans-Serif" font-size="9.00">increment.js</text>
</a>
</g>
</g>
<!-- separated/increment/src/init/index.js&#45;&gt;separated/increment/src/listeners/increment.js -->
<g id="edge8" class="edge">
<title>separated/increment/src/init/index.js&#45;&gt;separated/increment/src/listeners/increment.js</title>
<path fill="none" stroke="#000000" stroke-width="2" stroke-opacity="0.200000" d="M69.84,-223.51C73.38,-207.68 82.57,-175.79 102,-157 103.16,-155.88 104.4,-154.84 105.71,-153.86"/>
<polygon fill="#000000" fill-opacity="0.200000" stroke="#000000" stroke-width="2" stroke-opacity="0.200000" points="107.13,-155.45 111.05,-150.44 104.86,-151.91 107.13,-155.45"/>
</g>
<!-- separated/increment/src/listeners/reset.js -->
<g id="node9" class="node">
<title>separated/increment/src/listeners/reset.js</title>
<g id="a_node9"><a xlink:href="separated/increment/src/listeners/reset.js" xlink:title="reset.js">
<path fill="#ffffcc" stroke="black" d="M163.05,-119.3C163.05,-119.3 121.45,-119.3 121.45,-119.3 118.35,-119.3 115.25,-116.2 115.25,-113.1 115.25,-113.1 115.25,-106.9 115.25,-106.9 115.25,-103.8 118.35,-100.7 121.45,-100.7 121.45,-100.7 163.05,-100.7 163.05,-100.7 166.15,-100.7 169.25,-103.8 169.25,-106.9 169.25,-106.9 169.25,-113.1 169.25,-113.1 169.25,-116.2 166.15,-119.3 163.05,-119.3"/>
<text text-anchor="middle" x="142.25" y="-107.3" font-family="Helvetica,sans-Serif" font-size="9.00">reset.js</text>
</a>
</g>
</g>
<!-- separated/increment/src/init/index.js&#45;&gt;separated/increment/src/listeners/reset.js -->
<g id="edge9" class="edge">
<title>separated/increment/src/init/index.js&#45;&gt;separated/increment/src/listeners/reset.js</title>
<path fill="none" stroke="#000000" stroke-width="2" stroke-opacity="0.200000" d="M68.39,-223.69C69.74,-203.35 75.68,-154.49 102,-126 104.25,-123.57 106.92,-121.5 109.79,-119.73"/>
<polygon fill="#000000" fill-opacity="0.200000" stroke="#000000" stroke-width="2" stroke-opacity="0.200000" points="110.83,-121.56 115.14,-116.88 108.86,-117.85 110.83,-121.56"/>
</g>
<!-- separated/increment/src/listeners/set&#45;step.js -->
<g id="node10" class="node">
<title>separated/increment/src/listeners/set&#45;step.js</title>
<g id="a_node10"><a xlink:href="separated/increment/src/listeners/set-step.js" xlink:title="set&#45;step.js">
<path fill="#ffffcc" stroke="black" d="M164.56,-181.3C164.56,-181.3 119.95,-181.3 119.95,-181.3 116.85,-181.3 113.74,-178.2 113.74,-175.1 113.74,-175.1 113.74,-168.9 113.74,-168.9 113.74,-165.8 116.85,-162.7 119.95,-162.7 119.95,-162.7 164.56,-162.7 164.56,-162.7 167.66,-162.7 170.76,-165.8 170.76,-168.9 170.76,-168.9 170.76,-175.1 170.76,-175.1 170.76,-178.2 167.66,-181.3 164.56,-181.3"/>
<text text-anchor="middle" x="142.25" y="-169.3" font-family="Helvetica,sans-Serif" font-size="9.00">set&#45;step.js</text>
</a>
</g>
</g>
<!-- separated/increment/src/init/index.js&#45;&gt;separated/increment/src/listeners/set&#45;step.js -->
<g id="edge10" class="edge">
<title>separated/increment/src/init/index.js&#45;&gt;separated/increment/src/listeners/set&#45;step.js</title>
<path fill="none" stroke="#000000" stroke-width="2" stroke-opacity="0.200000" d="M79.45,-223.47C91.63,-213.32 111.02,-197.17 124.83,-185.67"/>
<polygon fill="#000000" fill-opacity="0.200000" stroke="#000000" stroke-width="2" stroke-opacity="0.200000" points="126.38,-187.12 129.64,-181.67 123.69,-183.89 126.38,-187.12"/>
</g>
<!-- separated/increment/src/init/log&#45;state.js -->
<g id="node11" class="node">
<title>separated/increment/src/init/log&#45;state.js</title>
<g id="a_node11"><a xlink:href="separated/increment/src/init/log-state.js" xlink:title="log&#45;state.js">
<path fill="#ffffcc" stroke="black" d="M165.56,-242.3C165.56,-242.3 118.94,-242.3 118.94,-242.3 115.84,-242.3 112.74,-239.2 112.74,-236.1 112.74,-236.1 112.74,-229.9 112.74,-229.9 112.74,-226.8 115.84,-223.7 118.94,-223.7 118.94,-223.7 165.56,-223.7 165.56,-223.7 168.66,-223.7 171.76,-226.8 171.76,-229.9 171.76,-229.9 171.76,-236.1 171.76,-236.1 171.76,-239.2 168.66,-242.3 165.56,-242.3"/>
<text text-anchor="middle" x="142.25" y="-230.3" font-family="Helvetica,sans-Serif" font-size="9.00">log&#45;state.js</text>
</a>
</g>
</g>
<!-- separated/increment/src/init/index.js&#45;&gt;separated/increment/src/init/log&#45;state.js -->
<g id="edge11" class="edge">
<title>separated/increment/src/init/index.js&#45;&gt;separated/increment/src/init/log&#45;state.js</title>
<path fill="none" stroke="#000000" stroke-width="2" stroke-opacity="0.200000" d="M94.03,-233C98.07,-233 102.29,-233 106.48,-233"/>
<polygon fill="#000000" fill-opacity="0.200000" stroke="#000000" stroke-width="2" stroke-opacity="0.200000" points="106.56,-235.1 112.56,-233 106.56,-230.9 106.56,-235.1"/>
</g>
<!-- separated/increment/src/init/ui.js -->
<g id="node12" class="node">
<title>separated/increment/src/init/ui.js</title>
<g id="a_node12"><a xlink:href="separated/increment/src/init/ui.js" xlink:title="ui.js">
<path fill="#ffffcc" stroke="black" d="M163.05,-273.3C163.05,-273.3 121.45,-273.3 121.45,-273.3 118.35,-273.3 115.25,-270.2 115.25,-267.1 115.25,-267.1 115.25,-260.9 115.25,-260.9 115.25,-257.8 118.35,-254.7 121.45,-254.7 121.45,-254.7 163.05,-254.7 163.05,-254.7 166.15,-254.7 169.25,-257.8 169.25,-260.9 169.25,-260.9 169.25,-267.1 169.25,-267.1 169.25,-270.2 166.15,-273.3 163.05,-273.3"/>
<text text-anchor="middle" x="142.25" y="-261.3" font-family="Helvetica,sans-Serif" font-size="9.00">ui.js</text>
</a>
</g>
</g>
<!-- separated/increment/src/init/index.js&#45;&gt;separated/increment/src/init/ui.js -->
<g id="edge12" class="edge">
<title>separated/increment/src/init/index.js&#45;&gt;separated/increment/src/init/ui.js</title>
<path fill="none" stroke="#000000" stroke-width="2" stroke-opacity="0.200000" d="M89.18,-242.46C93.42,-244.32 97.84,-246.24 102,-248 105.3,-249.4 108.76,-250.85 112.21,-252.27"/>
<polygon fill="#000000" fill-opacity="0.200000" stroke="#000000" stroke-width="2" stroke-opacity="0.200000" points="111.61,-254.29 117.96,-254.63 113.21,-250.41 111.61,-254.29"/>
</g>
<!-- separated/increment/src/listeners/increment.js&#45;&gt;separated/increment/src/handlers/increment&#45;current.js -->
<g id="edge16" class="edge">
<title>separated/increment/src/listeners/increment.js&#45;&gt;separated/increment/src/handlers/increment&#45;current.js</title>
<path fill="none" stroke="#000000" stroke-width="2" stroke-opacity="0.200000" d="M174.41,-141C180.03,-141 186.04,-141 192.08,-141"/>
<polygon fill="#000000" fill-opacity="0.200000" stroke="#000000" stroke-width="2" stroke-opacity="0.200000" points="192.13,-143.1 198.13,-141 192.13,-138.9 192.13,-143.1"/>
</g>
<!-- separated/increment/src/listeners/reset.js&#45;&gt;separated/increment/src/handlers/reset.js -->
<g id="edge17" class="edge">
<title>separated/increment/src/listeners/reset.js&#45;&gt;separated/increment/src/handlers/reset.js</title>
<path fill="none" stroke="#000000" stroke-width="2" stroke-opacity="0.200000" d="M169.25,-110C182.46,-110 198.64,-110 212.66,-110"/>
<polygon fill="#000000" fill-opacity="0.200000" stroke="#000000" stroke-width="2" stroke-opacity="0.200000" points="212.94,-112.1 218.94,-110 212.94,-107.9 212.94,-112.1"/>
</g>
<!-- separated/increment/src/listeners/set&#45;step.js&#45;&gt;separated/increment/src/handlers/set&#45;step.js -->
<g id="edge18" class="edge">
<title>separated/increment/src/listeners/set&#45;step.js&#45;&gt;separated/increment/src/handlers/set&#45;step.js</title>
<path fill="none" stroke="#000000" stroke-width="2" stroke-opacity="0.200000" d="M170.85,-172C183.33,-172 198.18,-172 211.33,-172"/>
<polygon fill="#000000" fill-opacity="0.200000" stroke="#000000" stroke-width="2" stroke-opacity="0.200000" points="211.63,-174.1 217.63,-172 211.63,-169.9 211.63,-174.1"/>
</g>
<!-- separated/increment/src/init/log&#45;state.js&#45;&gt;lib/logger.js -->
<g id="edge13" class="edge">
<title>separated/increment/src/init/log&#45;state.js&#45;&gt;lib/logger.js</title>
<path fill="none" stroke="#000000" stroke-width="2" stroke-opacity="0.200000" d="M168.67,-223.6C174.08,-220.42 179.17,-216.28 182.5,-211 196.88,-188.21 174.88,-111.96 190.5,-90 218.64,-50.43 275.84,-34.8 311.91,-28.74"/>
<polygon fill="#000000" fill-opacity="0.200000" stroke="#000000" stroke-width="2" stroke-opacity="0.200000" points="312.35,-30.79 317.95,-27.78 311.69,-26.65 312.35,-30.79"/>
</g>
<!-- separated/increment/src/init/log&#45;state.js&#45;&gt;separated/increment/src/data.js -->
<g id="edge14" class="edge">
<title>separated/increment/src/init/log&#45;state.js&#45;&gt;separated/increment/src/data.js</title>
<path fill="none" stroke="#000000" stroke-width="2" stroke-opacity="0.200000" d="M171.95,-234.09C204.93,-234.23 259.89,-230.98 302,-211 314.14,-205.24 325.15,-194.71 332.86,-186.04"/>
<polygon fill="#000000" fill-opacity="0.200000" stroke="#000000" stroke-width="2" stroke-opacity="0.200000" points="334.47,-187.38 336.78,-181.46 331.28,-184.65 334.47,-187.38"/>
</g>
<!-- separated/increment/src/init/ui.js&#45;&gt;separated/increment/src/data.js -->
<g id="edge15" class="edge">
<title>separated/increment/src/init/ui.js&#45;&gt;separated/increment/src/data.js</title>
<path fill="none" stroke="#000000" stroke-width="2" stroke-opacity="0.200000" d="M169.5,-262.98C202.78,-260.57 260.79,-252.55 302,-226 317.07,-216.29 328.96,-199.27 336.19,-186.93"/>
<polygon fill="#000000" fill-opacity="0.200000" stroke="#000000" stroke-width="2" stroke-opacity="0.200000" points="338.06,-187.88 339.18,-181.63 334.4,-185.82 338.06,-187.88"/>
</g>
</g>
</svg>
