<?xml version="1.0" encoding="UTF-8" standalone="no"?>
<!DOCTYPE svg PUBLIC "-//W3C//DTD SVG 1.1//EN"
 "http://www.w3.org/Graphics/SVG/1.1/DTD/svg11.dtd">
<!-- Generated by graphviz version 2.44.0 (20200408.0750)
 -->
<!-- Title: dependency&#45;cruiser output Pages: 1 -->
<svg width="420pt" height="413pt"
 viewBox="0.00 0.00 420.00 413.00" xmlns="http://www.w3.org/2000/svg" xmlns:xlink="http://www.w3.org/1999/xlink">
<g id="graph0" class="graph" transform="scale(1 1) rotate(0) translate(4 409)">
<title>dependency&#45;cruiser output</title>
<polygon fill="white" stroke="transparent" points="-4,4 -4,-409 416,-409 416,4 -4,4"/>
<g id="clust1" class="cluster">
<title>cluster_</title>
<path fill="#ffffff" stroke="black" stroke-width="2" d="M322,-8C322,-8 384,-8 384,-8 390,-8 396,-14 396,-20 396,-20 396,-65 396,-65 396,-71 390,-77 384,-77 384,-77 322,-77 322,-77 316,-77 310,-71 310,-65 310,-65 310,-20 310,-20 310,-14 316,-8 322,-8"/>
</g>
<g id="clust2" class="cluster">
<title>cluster_/.lib</title>
<path fill="#ffffff" stroke="black" stroke-width="2" d="M330,-16C330,-16 376,-16 376,-16 382,-16 388,-22 388,-28 388,-28 388,-57 388,-57 388,-63 382,-69 376,-69 376,-69 330,-69 330,-69 324,-69 318,-63 318,-57 318,-57 318,-28 318,-28 318,-22 324,-16 330,-16"/>
<text text-anchor="middle" x="353" y="-56.9" font-family="Helvetica,sans-Serif" font-weight="bold" font-size="9.00">.lib</text>
</g>
<g id="clust3" class="cluster">
<title>cluster_separated</title>
<path fill="#ffffff" stroke="black" stroke-width="2" d="M20,-85C20,-85 392,-85 392,-85 398,-85 404,-91 404,-97 404,-97 404,-385 404,-385 404,-391 398,-397 392,-397 392,-397 20,-397 20,-397 14,-397 8,-391 8,-385 8,-385 8,-97 8,-97 8,-91 14,-85 20,-85"/>
<text text-anchor="middle" x="206" y="-384.9" font-family="Helvetica,sans-Serif" font-weight="bold" font-size="9.00">separated</text>
</g>
<g id="clust4" class="cluster">
<title>cluster_separated/increment</title>
<path fill="#ffffff" stroke="black" stroke-width="2" d="M28,-93C28,-93 384,-93 384,-93 390,-93 396,-99 396,-105 396,-105 396,-358 396,-358 396,-364 390,-370 384,-370 384,-370 28,-370 28,-370 22,-370 16,-364 16,-358 16,-358 16,-105 16,-105 16,-99 22,-93 28,-93"/>
<text text-anchor="middle" x="206" y="-357.9" font-family="Helvetica,sans-Serif" font-weight="bold" font-size="9.00">increment</text>
</g>
<g id="clust5" class="cluster">
<title>cluster_separated/increment/src</title>
<path fill="#ffffff" stroke="black" stroke-width="2" d="M36,-101C36,-101 376,-101 376,-101 382,-101 388,-107 388,-113 388,-113 388,-331 388,-331 388,-337 382,-343 376,-343 376,-343 36,-343 36,-343 30,-343 24,-337 24,-331 24,-331 24,-113 24,-113 24,-107 30,-101 36,-101"/>
<text text-anchor="middle" x="206" y="-330.9" font-family="Helvetica,sans-Serif" font-weight="bold" font-size="9.00">src</text>
</g>
<g id="clust6" class="cluster">
<title>cluster_separated/increment/src/handlers</title>
<path fill="#ffffff" stroke="black" stroke-width="2" d="M202.5,-109C202.5,-109 290,-109 290,-109 296,-109 302,-115 302,-121 302,-121 302,-212 302,-212 302,-218 296,-224 290,-224 290,-224 202.5,-224 202.5,-224 196.5,-224 190.5,-218 190.5,-212 190.5,-212 190.5,-121 190.5,-121 190.5,-115 196.5,-109 202.5,-109"/>
<text text-anchor="middle" x="246.25" y="-211.9" font-family="Helvetica,sans-Serif" font-weight="bold" font-size="9.00">handlers</text>
</g>
<g id="clust7" class="cluster">
<title>cluster_separated/increment/src/init</title>
<path fill="#ffffff" stroke="black" stroke-width="2" d="M44,-232C44,-232 168,-232 168,-232 174,-232 180,-238 180,-244 180,-244 180,-304 180,-304 180,-310 174,-316 168,-316 168,-316 44,-316 44,-316 38,-316 32,-310 32,-304 32,-304 32,-244 32,-244 32,-238 38,-232 44,-232"/>
<text text-anchor="middle" x="106" y="-303.9" font-family="Helvetica,sans-Serif" font-weight="bold" font-size="9.00">init</text>
</g>
<g id="clust8" class="cluster">
<title>cluster_separated/increment/src/listeners</title>
<path fill="#ffffff" stroke="black" stroke-width="2" d="M114,-109C114,-109 170.5,-109 170.5,-109 176.5,-109 182.5,-115 182.5,-121 182.5,-121 182.5,-212 182.5,-212 182.5,-218 176.5,-224 170.5,-224 170.5,-224 114,-224 114,-224 108,-224 102,-218 102,-212 102,-212 102,-121 102,-121 102,-115 108,-109 114,-109"/>
<text text-anchor="middle" x="142.25" y="-211.9" font-family="Helvetica,sans-Serif" font-weight="bold" font-size="9.00">listeners</text>
</g>
<!-- /.lib/logger.js -->
<g id="node1" class="node">
<title>/.lib/logger.js</title>
<polygon fill="#ffffcc" stroke="red" points="380,-42.3 378.45,-44.37 367.6,-44.37 366.05,-42.3 326,-42.3 326,-23.7 380,-23.7 380,-42.3"/>
<text text-anchor="middle" x="353" y="-30.3" font-family="Helvetica,sans-Serif" font-size="9.00" fill="red">logger.js</text>
</g>
<!-- separated/increment/src/data.js -->
<g id="node2" class="node">
<title>separated/increment/src/data.js</title>
<g id="a_node2"><a xlink:href="separated/increment/src/data.js" xlink:title="data.js">
<path fill="#ffffcc" stroke="black" d="M373.8,-197.3C373.8,-197.3 332.2,-197.3 332.2,-197.3 329.1,-197.3 326,-194.2 326,-191.1 326,-191.1 326,-184.9 326,-184.9 326,-181.8 329.1,-178.7 332.2,-178.7 332.2,-178.7 373.8,-178.7 373.8,-178.7 376.9,-178.7 380,-181.8 380,-184.9 380,-184.9 380,-191.1 380,-191.1 380,-194.2 376.9,-197.3 373.8,-197.3"/>
<text text-anchor="middle" x="353" y="-185.3" font-family="Helvetica,sans-Serif" font-size="9.00">data.js</text>
</a>
</g>
</g>
<!-- separated/increment/src/handlers/increment&#45;current.js -->
<g id="node3" class="node">
<title>separated/increment/src/handlers/increment&#45;current.js</title>
<g id="a_node3"><a xlink:href="separated/increment/src/handlers/increment-current.js" xlink:title="increment&#45;current.js">
<path fill="#ffffcc" stroke="black" d="M288.05,-166.3C288.05,-166.3 204.45,-166.3 204.45,-166.3 201.35,-166.3 198.25,-163.2 198.25,-160.1 198.25,-160.1 198.25,-153.9 198.25,-153.9 198.25,-150.8 201.35,-147.7 204.45,-147.7 204.45,-147.7 288.05,-147.7 288.05,-147.7 291.15,-147.7 294.25,-150.8 294.25,-153.9 294.25,-153.9 294.25,-160.1 294.25,-160.1 294.25,-163.2 291.15,-166.3 288.05,-166.3"/>
<text text-anchor="middle" x="246.25" y="-154.3" font-family="Helvetica,sans-Serif" font-size="9.00">increment&#45;current.js</text>
</a>
</g>
</g>
<!-- separated/increment/src/handlers/increment&#45;current.js&#45;&gt;/.lib/logger.js -->
<g id="edge2" class="edge">
<title>separated/increment/src/handlers/increment&#45;current.js&#45;&gt;/.lib/logger.js</title>
<path fill="none" stroke="#000000" stroke-width="2" stroke-opacity="0.200000" d="M294.01,-147.56C296.96,-145.74 299.68,-143.57 302,-141 315.04,-126.58 302.81,-116.06 310,-98 317.48,-79.21 330.68,-60.05 340.29,-47.45"/>
<polygon fill="#000000" fill-opacity="0.200000" stroke="#000000" stroke-width="2" stroke-opacity="0.200000" points="342.14,-48.49 344.16,-42.47 338.82,-45.91 342.14,-48.49"/>
</g>
<!-- separated/increment/src/handlers/increment&#45;current.js&#45;&gt;separated/increment/src/data.js -->
<g id="edge1" class="edge">
<title>separated/increment/src/handlers/increment&#45;current.js&#45;&gt;separated/increment/src/data.js</title>
<path fill="none" stroke="#000000" stroke-width="2" stroke-opacity="0.200000" d="M279.4,-166.35C286.82,-168.52 294.69,-170.84 302,-173 307.8,-174.72 313.98,-176.56 319.94,-178.34"/>
<polygon fill="#000000" fill-opacity="0.200000" stroke="#000000" stroke-width="2" stroke-opacity="0.200000" points="319.45,-180.39 325.8,-180.1 320.66,-176.37 319.45,-180.39"/>
</g>
<!-- separated/increment/src/handlers/reset.js -->
<g id="node4" class="node">
<title>separated/increment/src/handlers/reset.js</title>
<g id="a_node4"><a xlink:href="separated/increment/src/handlers/reset.js" xlink:title="reset.js">
<path fill="#ffffcc" stroke="black" d="M267.05,-135.3C267.05,-135.3 225.45,-135.3 225.45,-135.3 222.35,-135.3 219.25,-132.2 219.25,-129.1 219.25,-129.1 219.25,-122.9 219.25,-122.9 219.25,-119.8 222.35,-116.7 225.45,-116.7 225.45,-116.7 267.05,-116.7 267.05,-116.7 270.15,-116.7 273.25,-119.8 273.25,-122.9 273.25,-122.9 273.25,-129.1 273.25,-129.1 273.25,-132.2 270.15,-135.3 267.05,-135.3"/>
<text text-anchor="middle" x="246.25" y="-123.3" font-family="Helvetica,sans-Serif" font-size="9.00">reset.js</text>
</a>
</g>
</g>
<!-- separated/increment/src/handlers/reset.js&#45;&gt;/.lib/logger.js -->
<g id="edge4" class="edge">
<title>separated/increment/src/handlers/reset.js&#45;&gt;/.lib/logger.js</title>
<path fill="none" stroke="#000000" stroke-width="2" stroke-opacity="0.200000" d="M258.07,-116.4C276.82,-99.74 315.43,-65.47 336.85,-46.45"/>
<polygon fill="#000000" fill-opacity="0.200000" stroke="#000000" stroke-width="2" stroke-opacity="0.200000" points="338.31,-47.97 341.4,-42.41 335.52,-44.82 338.31,-47.97"/>
</g>
<!-- separated/increment/src/handlers/reset.js&#45;&gt;separated/increment/src/data.js -->
<g id="edge3" class="edge">
<title>separated/increment/src/handlers/reset.js&#45;&gt;separated/increment/src/data.js</title>
<path fill="none" stroke="#000000" stroke-width="2" stroke-opacity="0.200000" d="M273.3,-131.01C282.73,-133.48 293.21,-137.03 302,-142 316.65,-150.27 330.5,-163.61 339.89,-173.8"/>
<polygon fill="#000000" fill-opacity="0.200000" stroke="#000000" stroke-width="2" stroke-opacity="0.200000" points="338.56,-175.45 344.13,-178.51 341.68,-172.64 338.56,-175.45"/>
</g>
<!-- separated/increment/src/handlers/set&#45;step.js -->
<g id="node5" class="node">
<title>separated/increment/src/handlers/set&#45;step.js</title>
<g id="a_node5"><a xlink:href="separated/increment/src/handlers/set-step.js" xlink:title="set&#45;step.js">
<path fill="#ffffcc" stroke="black" d="M268.56,-197.3C268.56,-197.3 223.95,-197.3 223.95,-197.3 220.85,-197.3 217.75,-194.2 217.75,-191.1 217.75,-191.1 217.75,-184.9 217.75,-184.9 217.75,-181.8 220.85,-178.7 223.95,-178.7 223.95,-178.7 268.56,-178.7 268.56,-178.7 271.66,-178.7 274.76,-181.8 274.76,-184.9 274.76,-184.9 274.76,-191.1 274.76,-191.1 274.76,-194.2 271.66,-197.3 268.56,-197.3"/>
<text text-anchor="middle" x="246.25" y="-185.3" font-family="Helvetica,sans-Serif" font-size="9.00">set&#45;step.js</text>
</a>
</g>
</g>
<!-- separated/increment/src/handlers/set&#45;step.js&#45;&gt;/.lib/logger.js -->
<g id="edge6" class="edge">
<title>separated/increment/src/handlers/set&#45;step.js&#45;&gt;/.lib/logger.js</title>
<path fill="none" stroke="#000000" stroke-width="2" stroke-opacity="0.200000" d="M274.96,-186.19C284.92,-184.1 295.33,-179.97 302,-172 312.62,-159.32 304.47,-113.59 310,-98 316.76,-78.94 330.09,-59.83 339.92,-47.31"/>
<polygon fill="#000000" fill-opacity="0.200000" stroke="#000000" stroke-width="2" stroke-opacity="0.200000" points="341.77,-48.36 343.9,-42.37 338.5,-45.73 341.77,-48.36"/>
</g>
<!-- separated/increment/src/handlers/set&#45;step.js&#45;&gt;separated/increment/src/data.js -->
<g id="edge5" class="edge">
<title>separated/increment/src/handlers/set&#45;step.js&#45;&gt;separated/increment/src/data.js</title>
<path fill="none" stroke="#000000" stroke-width="2" stroke-opacity="0.200000" d="M274.77,-188C288.56,-188 305.35,-188 319.74,-188"/>
<polygon fill="#000000" fill-opacity="0.200000" stroke="#000000" stroke-width="2" stroke-opacity="0.200000" points="319.75,-190.1 325.75,-188 319.75,-185.9 319.75,-190.1"/>
</g>
<!-- separated/increment/src/init/index.js -->
<g id="node6" class="node">
<title>separated/increment/src/init/index.js</title>
<g id="a_node6"><a xlink:href="separated/increment/src/init/index.js" xlink:title="index.js">
<path fill="#ffffcc" stroke="black" d="M87.8,-258.3C87.8,-258.3 46.2,-258.3 46.2,-258.3 43.1,-258.3 40,-255.2 40,-252.1 40,-252.1 40,-245.9 40,-245.9 40,-242.8 43.1,-239.7 46.2,-239.7 46.2,-239.7 87.8,-239.7 87.8,-239.7 90.9,-239.7 94,-242.8 94,-245.9 94,-245.9 94,-252.1 94,-252.1 94,-255.2 90.9,-258.3 87.8,-258.3"/>
<text text-anchor="middle" x="67" y="-246.3" font-family="Helvetica,sans-Serif" font-size="9.00">index.js</text>
</a>
</g>
</g>
<!-- separated/increment/src/listeners/increment.js -->
<g id="node7" class="node">
<title>separated/increment/src/listeners/increment.js</title>
<g id="a_node7"><a xlink:href="separated/increment/src/listeners/increment.js" xlink:title="increment.js">
<path fill="#ffffcc" stroke="black" d="M168.05,-166.3C168.05,-166.3 116.45,-166.3 116.45,-166.3 113.35,-166.3 110.25,-163.2 110.25,-160.1 110.25,-160.1 110.25,-153.9 110.25,-153.9 110.25,-150.8 113.35,-147.7 116.45,-147.7 116.45,-147.7 168.05,-147.7 168.05,-147.7 171.15,-147.7 174.25,-150.8 174.25,-153.9 174.25,-153.9 174.25,-160.1 174.25,-160.1 174.25,-163.2 171.15,-166.3 168.05,-166.3"/>
<text text-anchor="middle" x="142.25" y="-154.3" font-family="Helvetica,sans-Serif" font-size="9.00">increment.js</text>
</a>
</g>
</g>
<!-- separated/increment/src/init/index.js&#45;&gt;separated/increment/src/listeners/increment.js -->
<g id="edge7" class="edge">
<title>separated/increment/src/init/index.js&#45;&gt;separated/increment/src/listeners/increment.js</title>
<path fill="none" stroke="#000000" stroke-width="2" stroke-opacity="0.200000" d="M69.84,-239.51C73.38,-223.68 82.57,-191.79 102,-173 103.16,-171.88 104.4,-170.84 105.71,-169.86"/>
<polygon fill="#000000" fill-opacity="0.200000" stroke="#000000" stroke-width="2" stroke-opacity="0.200000" points="107.13,-171.45 111.05,-166.44 104.86,-167.91 107.13,-171.45"/>
</g>
<!-- separated/increment/src/listeners/reset.js -->
<g id="node8" class="node">
<title>separated/increment/src/listeners/reset.js</title>
<g id="a_node8"><a xlink:href="separated/increment/src/listeners/reset.js" xlink:title="reset.js">
<path fill="#ffffcc" stroke="black" d="M163.05,-135.3C163.05,-135.3 121.45,-135.3 121.45,-135.3 118.35,-135.3 115.25,-132.2 115.25,-129.1 115.25,-129.1 115.25,-122.9 115.25,-122.9 115.25,-119.8 118.35,-116.7 121.45,-116.7 121.45,-116.7 163.05,-116.7 163.05,-116.7 166.15,-116.7 169.25,-119.8 169.25,-122.9 169.25,-122.9 169.25,-129.1 169.25,-129.1 169.25,-132.2 166.15,-135.3 163.05,-135.3"/>
<text text-anchor="middle" x="142.25" y="-123.3" font-family="Helvetica,sans-Serif" font-size="9.00">reset.js</text>
</a>
</g>
</g>
<!-- separated/increment/src/init/index.js&#45;&gt;separated/increment/src/listeners/reset.js -->
<g id="edge8" class="edge">
<title>separated/increment/src/init/index.js&#45;&gt;separated/increment/src/listeners/reset.js</title>
<path fill="none" stroke="#000000" stroke-width="2" stroke-opacity="0.200000" d="M68.39,-239.69C69.74,-219.35 75.68,-170.49 102,-142 104.25,-139.57 106.92,-137.5 109.79,-135.73"/>
<polygon fill="#000000" fill-opacity="0.200000" stroke="#000000" stroke-width="2" stroke-opacity="0.200000" points="110.83,-137.56 115.14,-132.88 108.86,-133.85 110.83,-137.56"/>
</g>
<!-- separated/increment/src/listeners/set&#45;step.js -->
<g id="node9" class="node">
<title>separated/increment/src/listeners/set&#45;step.js</title>
<g id="a_node9"><a xlink:href="separated/increment/src/listeners/set-step.js" xlink:title="set&#45;step.js">
<path fill="#ffffcc" stroke="black" d="M164.56,-197.3C164.56,-197.3 119.95,-197.3 119.95,-197.3 116.85,-197.3 113.74,-194.2 113.74,-191.1 113.74,-191.1 113.74,-184.9 113.74,-184.9 113.74,-181.8 116.85,-178.7 119.95,-178.7 119.95,-178.7 164.56,-178.7 164.56,-178.7 167.66,-178.7 170.76,-181.8 170.76,-184.9 170.76,-184.9 170.76,-191.1 170.76,-191.1 170.76,-194.2 167.66,-197.3 164.56,-197.3"/>
<text text-anchor="middle" x="142.25" y="-185.3" font-family="Helvetica,sans-Serif" font-size="9.00">set&#45;step.js</text>
</a>
</g>
</g>
<!-- separated/increment/src/init/index.js&#45;&gt;separated/increment/src/listeners/set&#45;step.js -->
<g id="edge9" class="edge">
<title>separated/increment/src/init/index.js&#45;&gt;separated/increment/src/listeners/set&#45;step.js</title>
<path fill="none" stroke="#000000" stroke-width="2" stroke-opacity="0.200000" d="M79.45,-239.47C91.63,-229.32 111.02,-213.17 124.83,-201.67"/>
<polygon fill="#000000" fill-opacity="0.200000" stroke="#000000" stroke-width="2" stroke-opacity="0.200000" points="126.38,-203.12 129.64,-197.67 123.69,-199.89 126.38,-203.12"/>
</g>
<!-- separated/increment/src/init/log&#45;state.js -->
<g id="node10" class="node">
<title>separated/increment/src/init/log&#45;state.js</title>
<g id="a_node10"><a xlink:href="separated/increment/src/init/log-state.js" xlink:title="log&#45;state.js">
<path fill="#ffffcc" stroke="black" d="M165.56,-258.3C165.56,-258.3 118.94,-258.3 118.94,-258.3 115.84,-258.3 112.74,-255.2 112.74,-252.1 112.74,-252.1 112.74,-245.9 112.74,-245.9 112.74,-242.8 115.84,-239.7 118.94,-239.7 118.94,-239.7 165.56,-239.7 165.56,-239.7 168.66,-239.7 171.76,-242.8 171.76,-245.9 171.76,-245.9 171.76,-252.1 171.76,-252.1 171.76,-255.2 168.66,-258.3 165.56,-258.3"/>
<text text-anchor="middle" x="142.25" y="-246.3" font-family="Helvetica,sans-Serif" font-size="9.00">log&#45;state.js</text>
</a>
</g>
</g>
<!-- separated/increment/src/init/index.js&#45;&gt;separated/increment/src/init/log&#45;state.js -->
<g id="edge10" class="edge">
<title>separated/increment/src/init/index.js&#45;&gt;separated/increment/src/init/log&#45;state.js</title>
<path fill="none" stroke="#000000" stroke-width="2" stroke-opacity="0.200000" d="M94.03,-249C98.07,-249 102.29,-249 106.48,-249"/>
<polygon fill="#000000" fill-opacity="0.200000" stroke="#000000" stroke-width="2" stroke-opacity="0.200000" points="106.56,-251.1 112.56,-249 106.56,-246.9 106.56,-251.1"/>
</g>
<!-- separated/increment/src/init/ui.js -->
<g id="node11" class="node">
<title>separated/increment/src/init/ui.js</title>
<g id="a_node11"><a xlink:href="separated/increment/src/init/ui.js" xlink:title="ui.js">
<path fill="#ffffcc" stroke="black" d="M163.05,-289.3C163.05,-289.3 121.45,-289.3 121.45,-289.3 118.35,-289.3 115.25,-286.2 115.25,-283.1 115.25,-283.1 115.25,-276.9 115.25,-276.9 115.25,-273.8 118.35,-270.7 121.45,-270.7 121.45,-270.7 163.05,-270.7 163.05,-270.7 166.15,-270.7 169.25,-273.8 169.25,-276.9 169.25,-276.9 169.25,-283.1 169.25,-283.1 169.25,-286.2 166.15,-289.3 163.05,-289.3"/>
<text text-anchor="middle" x="142.25" y="-277.3" font-family="Helvetica,sans-Serif" font-size="9.00">ui.js</text>
</a>
</g>
</g>
<!-- separated/increment/src/init/index.js&#45;&gt;separated/increment/src/init/ui.js -->
<g id="edge11" class="edge">
<title>separated/increment/src/init/index.js&#45;&gt;separated/increment/src/init/ui.js</title>
<path fill="none" stroke="#000000" stroke-width="2" stroke-opacity="0.200000" d="M89.18,-258.46C93.42,-260.32 97.84,-262.24 102,-264 105.3,-265.4 108.76,-266.85 112.21,-268.27"/>
<polygon fill="#000000" fill-opacity="0.200000" stroke="#000000" stroke-width="2" stroke-opacity="0.200000" points="111.61,-270.29 117.96,-270.63 113.21,-266.41 111.61,-270.29"/>
</g>
<!-- separated/increment/src/listeners/increment.js&#45;&gt;separated/increment/src/handlers/increment&#45;current.js -->
<g id="edge15" class="edge">
<title>separated/increment/src/listeners/increment.js&#45;&gt;separated/increment/src/handlers/increment&#45;current.js</title>
<path fill="none" stroke="#000000" stroke-width="2" stroke-opacity="0.200000" d="M174.41,-157C180.03,-157 186.04,-157 192.08,-157"/>
<polygon fill="#000000" fill-opacity="0.200000" stroke="#000000" stroke-width="2" stroke-opacity="0.200000" points="192.13,-159.1 198.13,-157 192.13,-154.9 192.13,-159.1"/>
</g>
<!-- separated/increment/src/listeners/reset.js&#45;&gt;separated/increment/src/handlers/reset.js -->
<g id="edge16" class="edge">
<title>separated/increment/src/listeners/reset.js&#45;&gt;separated/increment/src/handlers/reset.js</title>
<path fill="none" stroke="#000000" stroke-width="2" stroke-opacity="0.200000" d="M169.25,-126C182.46,-126 198.64,-126 212.66,-126"/>
<polygon fill="#000000" fill-opacity="0.200000" stroke="#000000" stroke-width="2" stroke-opacity="0.200000" points="212.94,-128.1 218.94,-126 212.94,-123.9 212.94,-128.1"/>
</g>
<!-- separated/increment/src/listeners/set&#45;step.js&#45;&gt;separated/increment/src/handlers/set&#45;step.js -->
<g id="edge17" class="edge">
<title>separated/increment/src/listeners/set&#45;step.js&#45;&gt;separated/increment/src/handlers/set&#45;step.js</title>
<path fill="none" stroke="#000000" stroke-width="2" stroke-opacity="0.200000" d="M170.85,-188C183.33,-188 198.18,-188 211.33,-188"/>
<polygon fill="#000000" fill-opacity="0.200000" stroke="#000000" stroke-width="2" stroke-opacity="0.200000" points="211.63,-190.1 217.63,-188 211.63,-185.9 211.63,-190.1"/>
</g>
<!-- separated/increment/src/init/log&#45;state.js&#45;&gt;/.lib/logger.js -->
<g id="edge13" class="edge">
<title>separated/increment/src/init/log&#45;state.js&#45;&gt;/.lib/logger.js</title>
<path fill="none" stroke="#000000" stroke-width="2" stroke-opacity="0.200000" d="M168.67,-239.6C174.08,-236.42 179.17,-232.28 182.5,-227 196.88,-204.21 175.15,-128.15 190.5,-106 220.25,-63.09 281.51,-44.99 319.45,-37.67"/>
<polygon fill="#000000" fill-opacity="0.200000" stroke="#000000" stroke-width="2" stroke-opacity="0.200000" points="320.26,-39.65 325.78,-36.5 319.5,-35.52 320.26,-39.65"/>
</g>
<!-- separated/increment/src/init/log&#45;state.js&#45;&gt;separated/increment/src/data.js -->
<g id="edge12" class="edge">
<title>separated/increment/src/init/log&#45;state.js&#45;&gt;separated/increment/src/data.js</title>
<path fill="none" stroke="#000000" stroke-width="2" stroke-opacity="0.200000" d="M171.95,-249.43C204.69,-248.95 259.2,-245.1 302,-227 315.82,-221.16 329.09,-210.49 338.48,-201.78"/>
<polygon fill="#000000" fill-opacity="0.200000" stroke="#000000" stroke-width="2" stroke-opacity="0.200000" points="340.14,-203.11 343.02,-197.45 337.23,-200.07 340.14,-203.11"/>
</g>
<!-- separated/increment/src/init/ui.js&#45;&gt;separated/increment/src/data.js -->
<g id="edge14" class="edge">
<title>separated/increment/src/init/ui.js&#45;&gt;separated/increment/src/data.js</title>
<path fill="none" stroke="#000000" stroke-width="2" stroke-opacity="0.200000" d="M169.4,-278.13C202.33,-274.79 259.7,-265.65 302,-241 318.64,-231.3 333.17,-214.39 342.22,-202.28"/>
<polygon fill="#000000" fill-opacity="0.200000" stroke="#000000" stroke-width="2" stroke-opacity="0.200000" points="343.92,-203.51 345.75,-197.42 340.53,-201.04 343.92,-203.51"/>
</g>
</g>
</svg>
