<?xml version="1.0" encoding="UTF-8" standalone="no"?>
<!DOCTYPE svg PUBLIC "-//W3C//DTD SVG 1.1//EN"
 "http://www.w3.org/Graphics/SVG/1.1/DTD/svg11.dtd">
<!-- Generated by graphviz version 2.44.0 (20200408.0750)
 -->
<!-- Title: dependency&#45;cruiser output Pages: 1 -->
<svg width="158pt" height="243pt"
 viewBox="0.00 0.00 158.00 243.00" xmlns="http://www.w3.org/2000/svg" xmlns:xlink="http://www.w3.org/1999/xlink">
<g id="graph0" class="graph" transform="scale(1 1) rotate(0) translate(4 239)">
<title>dependency&#45;cruiser output</title>
<polygon fill="white" stroke="transparent" points="-4,4 -4,-239 154,-239 154,4 -4,4"/>
<g id="clust1" class="cluster">
<title>cluster_reverse&#45;engineering</title>
<path fill="#ffffff" stroke="black" stroke-width="2" d="M20,-8C20,-8 130,-8 130,-8 136,-8 142,-14 142,-20 142,-20 142,-215 142,-215 142,-221 136,-227 130,-227 130,-227 20,-227 20,-227 14,-227 8,-221 8,-215 8,-215 8,-20 8,-20 8,-14 14,-8 20,-8"/>
<text text-anchor="middle" x="75" y="-214.9" font-family="Helvetica,sans-Serif" font-weight="bold" font-size="9.00">reverse&#45;engineering</text>
</g>
<g id="clust2" class="cluster">
<title>cluster_reverse&#45;engineering/level&#45;3</title>
<path fill="#ffffff" stroke="black" stroke-width="2" d="M28,-16C28,-16 122,-16 122,-16 128,-16 134,-22 134,-28 134,-28 134,-188 134,-188 134,-194 128,-200 122,-200 122,-200 28,-200 28,-200 22,-200 16,-194 16,-188 16,-188 16,-28 16,-28 16,-22 22,-16 28,-16"/>
<text text-anchor="middle" x="75" y="-187.9" font-family="Helvetica,sans-Serif" font-weight="bold" font-size="9.00">level&#45;3</text>
</g>
<g id="clust3" class="cluster">
<title>cluster_reverse&#45;engineering/level&#45;3/tic&#45;tac&#45;toe</title>
<path fill="#ffffff" stroke="black" stroke-width="2" d="M36,-24C36,-24 114,-24 114,-24 120,-24 126,-30 126,-36 126,-36 126,-161 126,-161 126,-167 120,-173 114,-173 114,-173 36,-173 36,-173 30,-173 24,-167 24,-161 24,-161 24,-36 24,-36 24,-30 30,-24 36,-24"/>
<text text-anchor="middle" x="75" y="-160.9" font-family="Helvetica,sans-Serif" font-weight="bold" font-size="9.00">tic&#45;tac&#45;toe</text>
</g>
<g id="clust4" class="cluster">
<title>cluster_reverse&#45;engineering/level&#45;3/tic&#45;tac&#45;toe/src</title>
<path fill="#ffffff" stroke="black" stroke-width="2" d="M44,-32C44,-32 106,-32 106,-32 112,-32 118,-38 118,-44 118,-44 118,-134 118,-134 118,-140 112,-146 106,-146 106,-146 44,-146 44,-146 38,-146 32,-140 32,-134 32,-134 32,-44 32,-44 32,-38 38,-32 44,-32"/>
<text text-anchor="middle" x="75" y="-133.9" font-family="Helvetica,sans-Serif" font-weight="bold" font-size="9.00">src</text>
</g>
<g id="clust5" class="cluster">
<title>cluster_reverse&#45;engineering/level&#45;3/tic&#45;tac&#45;toe/src/init</title>
<path fill="#ffffff" stroke="black" stroke-width="2" d="M52,-66C52,-66 98,-66 98,-66 104,-66 110,-72 110,-78 110,-78 110,-107 110,-107 110,-113 104,-119 98,-119 98,-119 52,-119 52,-119 46,-119 40,-113 40,-107 40,-107 40,-78 40,-78 40,-72 46,-66 52,-66"/>
<text text-anchor="middle" x="75" y="-106.9" font-family="Helvetica,sans-Serif" font-weight="bold" font-size="9.00">init</text>
</g>
<!-- reverse&#45;engineering/level&#45;3/tic&#45;tac&#45;toe/src/data.js -->
<g id="node1" class="node">
<title>reverse&#45;engineering/level&#45;3/tic&#45;tac&#45;toe/src/data.js</title>
<g id="a_node1"><a xlink:href="reverse-engineering/level-3/tic-tac-toe/src/data.js" xlink:title="data.js">
<path fill="#ccffcc" stroke="black" d="M95.8,-58.3C95.8,-58.3 54.2,-58.3 54.2,-58.3 51.1,-58.3 48,-55.2 48,-52.1 48,-52.1 48,-45.9 48,-45.9 48,-42.8 51.1,-39.7 54.2,-39.7 54.2,-39.7 95.8,-39.7 95.8,-39.7 98.9,-39.7 102,-42.8 102,-45.9 102,-45.9 102,-52.1 102,-52.1 102,-55.2 98.9,-58.3 95.8,-58.3"/>
<text text-anchor="middle" x="75" y="-46.3" font-family="Helvetica,sans-Serif" font-size="9.00">data.js</text>
</a>
</g>
</g>
<!-- reverse&#45;engineering/level&#45;3/tic&#45;tac&#45;toe/src/init/index.js -->
<g id="node2" class="node">
<title>reverse&#45;engineering/level&#45;3/tic&#45;tac&#45;toe/src/init/index.js</title>
<g id="a_node2"><a xlink:href="reverse-engineering/level-3/tic-tac-toe/src/init/index.js" xlink:title="index.js">
<path fill="#ccffcc" stroke="black" d="M95.8,-92.3C95.8,-92.3 54.2,-92.3 54.2,-92.3 51.1,-92.3 48,-89.2 48,-86.1 48,-86.1 48,-79.9 48,-79.9 48,-76.8 51.1,-73.7 54.2,-73.7 54.2,-73.7 95.8,-73.7 95.8,-73.7 98.9,-73.7 102,-76.8 102,-79.9 102,-79.9 102,-86.1 102,-86.1 102,-89.2 98.9,-92.3 95.8,-92.3"/>
<text text-anchor="middle" x="75" y="-80.3" font-family="Helvetica,sans-Serif" font-size="9.00">index.js</text>
</a>
</g>
</g>
</g>
</svg>
