<?xml version="1.0" encoding="UTF-8" standalone="no"?>
<!DOCTYPE svg PUBLIC "-//W3C//DTD SVG 1.1//EN"
 "http://www.w3.org/Graphics/SVG/1.1/DTD/svg11.dtd">
<!-- Generated by graphviz version 2.44.0 (20200408.0750)
 -->
<!-- Title: dependency&#45;cruiser output Pages: 1 -->
<svg width="354pt" height="213pt"
 viewBox="0.00 0.00 354.01 213.00" xmlns="http://www.w3.org/2000/svg" xmlns:xlink="http://www.w3.org/1999/xlink">
<g id="graph0" class="graph" transform="scale(1 1) rotate(0) translate(4 209)">
<title>dependency&#45;cruiser output</title>
<polygon fill="white" stroke="transparent" points="-4,4 -4,-209 350.01,-209 350.01,4 -4,4"/>
<g id="clust1" class="cluster">
<title>cluster_stepped</title>
<path fill="#ffffff" stroke="black" stroke-width="2" d="M20,-8C20,-8 326.01,-8 326.01,-8 332.01,-8 338.01,-14 338.01,-20 338.01,-20 338.01,-185 338.01,-185 338.01,-191 332.01,-197 326.01,-197 326.01,-197 20,-197 20,-197 14,-197 8,-191 8,-185 8,-185 8,-20 8,-20 8,-14 14,-8 20,-8"/>
<text text-anchor="middle" x="173" y="-184.9" font-family="Helvetica,sans-Serif" font-weight="bold" font-size="9.00">stepped</text>
</g>
<g id="clust2" class="cluster">
<title>cluster_stepped/madlibs&#45;separated</title>
<path fill="#ffffff" stroke="black" stroke-width="2" d="M28,-16C28,-16 318.01,-16 318.01,-16 324.01,-16 330.01,-22 330.01,-28 330.01,-28 330.01,-158 330.01,-158 330.01,-164 324.01,-170 318.01,-170 318.01,-170 28,-170 28,-170 22,-170 16,-164 16,-158 16,-158 16,-28 16,-28 16,-22 22,-16 28,-16"/>
<text text-anchor="middle" x="173" y="-157.9" font-family="Helvetica,sans-Serif" font-weight="bold" font-size="9.00">madlibs&#45;separated</text>
</g>
<g id="clust3" class="cluster">
<title>cluster_stepped/madlibs&#45;separated/5&#45;refactor&#45;logic</title>
<path fill="#ffffff" stroke="black" stroke-width="2" d="M36,-24C36,-24 310.01,-24 310.01,-24 316.01,-24 322.01,-30 322.01,-36 322.01,-36 322.01,-131 322.01,-131 322.01,-137 316.01,-143 310.01,-143 310.01,-143 36,-143 36,-143 30,-143 24,-137 24,-131 24,-131 24,-36 24,-36 24,-30 30,-24 36,-24"/>
<text text-anchor="middle" x="173" y="-130.9" font-family="Helvetica,sans-Serif" font-weight="bold" font-size="9.00">5&#45;refactor&#45;logic</text>
</g>
<g id="clust4" class="cluster">
<title>cluster_stepped/madlibs&#45;separated/5&#45;refactor&#45;logic/src</title>
<path fill="#ffffff" stroke="black" stroke-width="2" d="M44,-32C44,-32 302.01,-32 302.01,-32 308.01,-32 314.01,-38 314.01,-44 314.01,-44 314.01,-104 314.01,-104 314.01,-110 308.01,-116 302.01,-116 302.01,-116 44,-116 44,-116 38,-116 32,-110 32,-104 32,-104 32,-44 32,-44 32,-38 38,-32 44,-32"/>
<text text-anchor="middle" x="173" y="-103.9" font-family="Helvetica,sans-Serif" font-weight="bold" font-size="9.00">src</text>
</g>
<!-- stepped/madlibs&#45;separated/5&#45;refactor&#45;logic/src/handler.js -->
<g id="node1" class="node">
<title>stepped/madlibs&#45;separated/5&#45;refactor&#45;logic/src/handler.js</title>
<g id="a_node1"><a xlink:href="stepped/madlibs-separated/5-refactor-logic/src/handler.js" xlink:title="handler.js">
<path fill="#ffffcc" stroke="black" d="M227.81,-89.3C227.81,-89.3 185.2,-89.3 185.2,-89.3 182.1,-89.3 179,-86.2 179,-83.1 179,-83.1 179,-76.9 179,-76.9 179,-73.8 182.1,-70.7 185.2,-70.7 185.2,-70.7 227.81,-70.7 227.81,-70.7 230.91,-70.7 234.01,-73.8 234.01,-76.9 234.01,-76.9 234.01,-83.1 234.01,-83.1 234.01,-86.2 230.91,-89.3 227.81,-89.3"/>
<text text-anchor="middle" x="206.5" y="-77.3" font-family="Helvetica,sans-Serif" font-size="9.00">handler.js</text>
</a>
</g>
</g>
<!-- stepped/madlibs&#45;separated/5&#45;refactor&#45;logic/src/logic.js -->
<g id="node2" class="node">
<title>stepped/madlibs&#45;separated/5&#45;refactor&#45;logic/src/logic.js</title>
<g id="a_node2"><a xlink:href="stepped/madlibs-separated/5-refactor-logic/src/logic.js" xlink:title="logic.js">
<path fill="#ffffcc" stroke="black" d="M299.81,-73.3C299.81,-73.3 258.21,-73.3 258.21,-73.3 255.11,-73.3 252.01,-70.2 252.01,-67.1 252.01,-67.1 252.01,-60.9 252.01,-60.9 252.01,-57.8 255.11,-54.7 258.21,-54.7 258.21,-54.7 299.81,-54.7 299.81,-54.7 302.91,-54.7 306.01,-57.8 306.01,-60.9 306.01,-60.9 306.01,-67.1 306.01,-67.1 306.01,-70.2 302.91,-73.3 299.81,-73.3"/>
<text text-anchor="middle" x="279.01" y="-61.3" font-family="Helvetica,sans-Serif" font-size="9.00">logic.js</text>
</a>
</g>
</g>
<!-- stepped/madlibs&#45;separated/5&#45;refactor&#45;logic/src/handler.js&#45;&gt;stepped/madlibs&#45;separated/5&#45;refactor&#45;logic/src/logic.js -->
<g id="edge1" class="edge">
<title>stepped/madlibs&#45;separated/5&#45;refactor&#45;logic/src/handler.js&#45;&gt;stepped/madlibs&#45;separated/5&#45;refactor&#45;logic/src/logic.js</title>
<path fill="none" stroke="#000000" stroke-width="2" stroke-opacity="0.200000" d="M234.16,-73.95C237.94,-73.09 241.87,-72.2 245.75,-71.32"/>
<polygon fill="#000000" fill-opacity="0.200000" stroke="#000000" stroke-width="2" stroke-opacity="0.200000" points="246.39,-73.33 251.78,-69.95 245.47,-69.23 246.39,-73.33"/>
</g>
<!-- stepped/madlibs&#45;separated/5&#45;refactor&#45;logic/src/init.js -->
<g id="node3" class="node">
<title>stepped/madlibs&#45;separated/5&#45;refactor&#45;logic/src/init.js</title>
<g id="a_node3"><a xlink:href="stepped/madlibs-separated/5-refactor-logic/src/init.js" xlink:title="init.js">
<path fill="#ffffcc" stroke="black" d="M87.8,-89.3C87.8,-89.3 46.2,-89.3 46.2,-89.3 43.1,-89.3 40,-86.2 40,-83.1 40,-83.1 40,-76.9 40,-76.9 40,-73.8 43.1,-70.7 46.2,-70.7 46.2,-70.7 87.8,-70.7 87.8,-70.7 90.9,-70.7 94,-73.8 94,-76.9 94,-76.9 94,-83.1 94,-83.1 94,-86.2 90.9,-89.3 87.8,-89.3"/>
<text text-anchor="middle" x="67" y="-77.3" font-family="Helvetica,sans-Serif" font-size="9.00">init.js</text>
</a>
</g>
</g>
<!-- stepped/madlibs&#45;separated/5&#45;refactor&#45;logic/src/listener.js -->
<g id="node4" class="node">
<title>stepped/madlibs&#45;separated/5&#45;refactor&#45;logic/src/listener.js</title>
<g id="a_node4"><a xlink:href="stepped/madlibs-separated/5-refactor-logic/src/listener.js" xlink:title="listener.js">
<path fill="#ffffcc" stroke="black" d="M154.8,-89.3C154.8,-89.3 113.2,-89.3 113.2,-89.3 110.1,-89.3 107,-86.2 107,-83.1 107,-83.1 107,-76.9 107,-76.9 107,-73.8 110.1,-70.7 113.2,-70.7 113.2,-70.7 154.8,-70.7 154.8,-70.7 157.9,-70.7 161,-73.8 161,-76.9 161,-76.9 161,-83.1 161,-83.1 161,-86.2 157.9,-89.3 154.8,-89.3"/>
<text text-anchor="middle" x="134" y="-77.3" font-family="Helvetica,sans-Serif" font-size="9.00">listener.js</text>
</a>
</g>
</g>
<!-- stepped/madlibs&#45;separated/5&#45;refactor&#45;logic/src/init.js&#45;&gt;stepped/madlibs&#45;separated/5&#45;refactor&#45;logic/src/listener.js -->
<g id="edge2" class="edge">
<title>stepped/madlibs&#45;separated/5&#45;refactor&#45;logic/src/init.js&#45;&gt;stepped/madlibs&#45;separated/5&#45;refactor&#45;logic/src/listener.js</title>
<path fill="none" stroke="#000000" stroke-width="2" stroke-opacity="0.200000" d="M94.06,-80C96.32,-80 98.61,-80 100.9,-80"/>
<polygon fill="#000000" fill-opacity="0.200000" stroke="#000000" stroke-width="2" stroke-opacity="0.200000" points="100.93,-82.1 106.93,-80 100.93,-77.9 100.93,-82.1"/>
</g>
<!-- stepped/madlibs&#45;separated/5&#45;refactor&#45;logic/src/listener.js&#45;&gt;stepped/madlibs&#45;separated/5&#45;refactor&#45;logic/src/handler.js -->
<g id="edge3" class="edge">
<title>stepped/madlibs&#45;separated/5&#45;refactor&#45;logic/src/listener.js&#45;&gt;stepped/madlibs&#45;separated/5&#45;refactor&#45;logic/src/handler.js</title>
<path fill="none" stroke="#000000" stroke-width="2" stroke-opacity="0.200000" d="M161.25,-80C165.06,-80 169.01,-80 172.92,-80"/>
<polygon fill="#000000" fill-opacity="0.200000" stroke="#000000" stroke-width="2" stroke-opacity="0.200000" points="172.99,-82.1 178.99,-80 172.99,-77.9 172.99,-82.1"/>
</g>
<!-- stepped/madlibs&#45;separated/5&#45;refactor&#45;logic/src/logic.spec.js -->
<g id="node5" class="node">
<title>stepped/madlibs&#45;separated/5&#45;refactor&#45;logic/src/logic.spec.js</title>
<g id="a_node5"><a xlink:href="stepped/madlibs-separated/5-refactor-logic/src/logic.spec.js" xlink:title="logic.spec.js">
<path fill="#ffffcc" stroke="black" d="M232.81,-58.3C232.81,-58.3 180.2,-58.3 180.2,-58.3 177.1,-58.3 174,-55.2 174,-52.1 174,-52.1 174,-45.9 174,-45.9 174,-42.8 177.1,-39.7 180.2,-39.7 180.2,-39.7 232.81,-39.7 232.81,-39.7 235.91,-39.7 239.01,-42.8 239.01,-45.9 239.01,-45.9 239.01,-52.1 239.01,-52.1 239.01,-55.2 235.91,-58.3 232.81,-58.3"/>
<text text-anchor="middle" x="206.5" y="-46.3" font-family="Helvetica,sans-Serif" font-size="9.00">logic.spec.js</text>
</a>
</g>
</g>
<!-- stepped/madlibs&#45;separated/5&#45;refactor&#45;logic/src/logic.spec.js&#45;&gt;stepped/madlibs&#45;separated/5&#45;refactor&#45;logic/src/logic.js -->
<g id="edge4" class="edge">
<title>stepped/madlibs&#45;separated/5&#45;refactor&#45;logic/src/logic.spec.js&#45;&gt;stepped/madlibs&#45;separated/5&#45;refactor&#45;logic/src/logic.js</title>
<path fill="none" stroke="#000000" stroke-width="2" stroke-opacity="0.200000" d="M239.04,-55.71C241.3,-56.19 243.58,-56.68 245.84,-57.16"/>
<polygon fill="#000000" fill-opacity="0.200000" stroke="#000000" stroke-width="2" stroke-opacity="0.200000" points="245.46,-59.22 251.77,-58.42 246.34,-55.12 245.46,-59.22"/>
</g>
</g>
</svg>
