<?xml version="1.0" encoding="UTF-8" standalone="no"?>
<!DOCTYPE svg PUBLIC "-//W3C//DTD SVG 1.1//EN"
 "http://www.w3.org/Graphics/SVG/1.1/DTD/svg11.dtd">
<!-- Generated by graphviz version 2.44.0 (20200408.0750)
 -->
<!-- Title: dependency&#45;cruiser output Pages: 1 -->
<svg width="478pt" height="509pt"
 viewBox="0.00 0.00 478.28 509.00" xmlns="http://www.w3.org/2000/svg" xmlns:xlink="http://www.w3.org/1999/xlink">
<g id="graph0" class="graph" transform="scale(1 1) rotate(0) translate(4 505)">
<title>dependency&#45;cruiser output</title>
<polygon fill="white" stroke="transparent" points="-4,4 -4,-505 474.28,-505 474.28,4 -4,4"/>
<g id="clust1" class="cluster">
<title>cluster_..</title>
<path fill="#ffffff" stroke="black" stroke-width="2" d="M378.53,-85C378.53,-85 444.04,-85 444.04,-85 450.04,-85 456.04,-91 456.04,-97 456.04,-97 456.04,-161 456.04,-161 456.04,-167 450.04,-173 444.04,-173 444.04,-173 378.53,-173 378.53,-173 372.53,-173 366.53,-167 366.53,-161 366.53,-161 366.53,-97 366.53,-97 366.53,-91 372.53,-85 378.53,-85"/>
<text text-anchor="middle" x="411.28" y="-160.9" font-family="Helvetica,sans-Serif" font-weight="bold" font-size="9.00">..</text>
</g>
<g id="clust2" class="cluster">
<title>cluster_../utils</title>
<path fill="#ffffff" stroke="black" stroke-width="2" d="M386.53,-93C386.53,-93 436.04,-93 436.04,-93 442.04,-93 448.04,-99 448.04,-105 448.04,-105 448.04,-134 448.04,-134 448.04,-140 442.04,-146 436.04,-146 436.04,-146 386.53,-146 386.53,-146 380.53,-146 374.53,-140 374.53,-134 374.53,-134 374.53,-105 374.53,-105 374.53,-99 380.53,-93 386.53,-93"/>
<text text-anchor="middle" x="411.28" y="-133.9" font-family="Helvetica,sans-Serif" font-weight="bold" font-size="9.00">utils</text>
</g>
<g id="clust3" class="cluster">
<title>cluster_</title>
<path fill="#ffffff" stroke="black" stroke-width="2" d="M380.28,-8C380.28,-8 442.28,-8 442.28,-8 448.28,-8 454.28,-14 454.28,-20 454.28,-20 454.28,-65 454.28,-65 454.28,-71 448.28,-77 442.28,-77 442.28,-77 380.28,-77 380.28,-77 374.28,-77 368.28,-71 368.28,-65 368.28,-65 368.28,-20 368.28,-20 368.28,-14 374.28,-8 380.28,-8"/>
</g>
<g id="clust4" class="cluster">
<title>cluster_/.lib</title>
<path fill="#ffffff" stroke="black" stroke-width="2" d="M388.28,-16C388.28,-16 434.28,-16 434.28,-16 440.28,-16 446.28,-22 446.28,-28 446.28,-28 446.28,-57 446.28,-57 446.28,-63 440.28,-69 434.28,-69 434.28,-69 388.28,-69 388.28,-69 382.28,-69 376.28,-63 376.28,-57 376.28,-57 376.28,-28 376.28,-28 376.28,-22 382.28,-16 388.28,-16"/>
<text text-anchor="middle" x="411.28" y="-56.9" font-family="Helvetica,sans-Serif" font-weight="bold" font-size="9.00">.lib</text>
</g>
<g id="clust5" class="cluster">
<title>cluster_separated</title>
<path fill="#ffffff" stroke="black" stroke-width="2" d="M20,-181C20,-181 450.28,-181 450.28,-181 456.28,-181 462.28,-187 462.28,-193 462.28,-193 462.28,-481 462.28,-481 462.28,-487 456.28,-493 450.28,-493 450.28,-493 20,-493 20,-493 14,-493 8,-487 8,-481 8,-481 8,-193 8,-193 8,-187 14,-181 20,-181"/>
<text text-anchor="middle" x="235.14" y="-480.9" font-family="Helvetica,sans-Serif" font-weight="bold" font-size="9.00">separated</text>
</g>
<g id="clust6" class="cluster">
<title>cluster_separated/average</title>
<path fill="#ffffff" stroke="black" stroke-width="2" d="M28,-189C28,-189 442.28,-189 442.28,-189 448.28,-189 454.28,-195 454.28,-201 454.28,-201 454.28,-454 454.28,-454 454.28,-460 448.28,-466 442.28,-466 442.28,-466 28,-466 28,-466 22,-466 16,-460 16,-454 16,-454 16,-201 16,-201 16,-195 22,-189 28,-189"/>
<text text-anchor="middle" x="235.14" y="-453.9" font-family="Helvetica,sans-Serif" font-weight="bold" font-size="9.00">average</text>
</g>
<g id="clust7" class="cluster">
<title>cluster_separated/average/src</title>
<path fill="#ffffff" stroke="black" stroke-width="2" d="M36,-197C36,-197 434.28,-197 434.28,-197 440.28,-197 446.28,-203 446.28,-209 446.28,-209 446.28,-427 446.28,-427 446.28,-433 440.28,-439 434.28,-439 434.28,-439 36,-439 36,-439 30,-439 24,-433 24,-427 24,-427 24,-209 24,-209 24,-203 30,-197 36,-197"/>
<text text-anchor="middle" x="235.14" y="-426.9" font-family="Helvetica,sans-Serif" font-weight="bold" font-size="9.00">src</text>
</g>
<g id="clust8" class="cluster">
<title>cluster_separated/average/src/handlers</title>
<path fill="#ffffff" stroke="black" stroke-width="2" d="M218.52,-227C218.52,-227 346.53,-227 346.53,-227 352.53,-227 358.53,-233 358.53,-239 358.53,-239 358.53,-299 358.53,-299 358.53,-305 352.53,-311 346.53,-311 346.53,-311 218.52,-311 218.52,-311 212.52,-311 206.52,-305 206.52,-299 206.52,-299 206.52,-239 206.52,-239 206.52,-233 212.52,-227 218.52,-227"/>
<text text-anchor="middle" x="282.52" y="-298.9" font-family="Helvetica,sans-Serif" font-weight="bold" font-size="9.00">handlers</text>
</g>
<g id="clust9" class="cluster">
<title>cluster_separated/average/src/init</title>
<path fill="#ffffff" stroke="black" stroke-width="2" d="M45.75,-328C45.75,-328 182.52,-328 182.52,-328 188.52,-328 194.52,-334 194.52,-340 194.52,-340 194.52,-400 194.52,-400 194.52,-406 188.52,-412 182.52,-412 182.52,-412 45.75,-412 45.75,-412 39.75,-412 33.75,-406 33.75,-400 33.75,-400 33.75,-340 33.75,-340 33.75,-334 39.75,-328 45.75,-328"/>
<text text-anchor="middle" x="114.14" y="-399.9" font-family="Helvetica,sans-Serif" font-weight="bold" font-size="9.00">init</text>
</g>
<g id="clust10" class="cluster">
<title>cluster_separated/average/src/listeners</title>
<path fill="#ffffff" stroke="black" stroke-width="2" d="M125.51,-205C125.51,-205 186.52,-205 186.52,-205 192.52,-205 198.52,-211 198.52,-217 198.52,-217 198.52,-308 198.52,-308 198.52,-314 192.52,-320 186.52,-320 186.52,-320 125.51,-320 125.51,-320 119.51,-320 113.51,-314 113.51,-308 113.51,-308 113.51,-217 113.51,-217 113.51,-211 119.51,-205 125.51,-205"/>
<text text-anchor="middle" x="156.01" y="-307.9" font-family="Helvetica,sans-Serif" font-weight="bold" font-size="9.00">listeners</text>
</g>
<g id="clust11" class="cluster">
<title>cluster_separated/average/src/logic</title>
<path fill="#ffffff" stroke="black" stroke-width="2" d="M44,-236C44,-236 93.51,-236 93.51,-236 99.51,-236 105.51,-242 105.51,-248 105.51,-248 105.51,-277 105.51,-277 105.51,-283 99.51,-289 93.51,-289 93.51,-289 44,-289 44,-289 38,-289 32,-283 32,-277 32,-277 32,-248 32,-248 32,-242 38,-236 44,-236"/>
<text text-anchor="middle" x="68.75" y="-276.9" font-family="Helvetica,sans-Serif" font-weight="bold" font-size="9.00">logic</text>
</g>
<!-- ../utils/average.js -->
<g id="node1" class="node">
<title>../utils/average.js</title>
<path fill="#ffffcc" stroke="red" d="M433.6,-119.3C433.6,-119.3 388.97,-119.3 388.97,-119.3 385.87,-119.3 382.77,-116.2 382.77,-113.1 382.77,-113.1 382.77,-106.9 382.77,-106.9 382.77,-103.8 385.87,-100.7 388.97,-100.7 388.97,-100.7 433.6,-100.7 433.6,-100.7 436.7,-100.7 439.8,-103.8 439.8,-106.9 439.8,-106.9 439.8,-113.1 439.8,-113.1 439.8,-116.2 436.7,-119.3 433.6,-119.3"/>
<text text-anchor="middle" x="411.28" y="-107.3" font-family="Helvetica,sans-Serif" font-size="9.00" fill="red">average.js</text>
</g>
<!-- /.lib/logger.js -->
<g id="node2" class="node">
<title>/.lib/logger.js</title>
<polygon fill="#ffffcc" stroke="red" points="438.28,-42.3 436.73,-44.37 425.88,-44.37 424.33,-42.3 384.28,-42.3 384.28,-23.7 438.28,-23.7 438.28,-42.3"/>
<text text-anchor="middle" x="411.28" y="-30.3" font-family="Helvetica,sans-Serif" font-size="9.00" fill="red">logger.js</text>
</g>
<!-- separated/average/src/data.js -->
<g id="node3" class="node">
<title>separated/average/src/data.js</title>
<g id="a_node3"><a xlink:href="separated/average/src/data.js" xlink:title="data.js">
<path fill="#ffffcc" stroke="black" d="M432.08,-289.3C432.08,-289.3 390.49,-289.3 390.49,-289.3 387.39,-289.3 384.28,-286.2 384.28,-283.1 384.28,-283.1 384.28,-276.9 384.28,-276.9 384.28,-273.8 387.39,-270.7 390.49,-270.7 390.49,-270.7 432.08,-270.7 432.08,-270.7 435.18,-270.7 438.28,-273.8 438.28,-276.9 438.28,-276.9 438.28,-283.1 438.28,-283.1 438.28,-286.2 435.18,-289.3 432.08,-289.3"/>
<text text-anchor="middle" x="411.28" y="-277.3" font-family="Helvetica,sans-Serif" font-size="9.00">data.js</text>
</a>
</g>
</g>
<!-- separated/average/src/handlers/add.js -->
<g id="node4" class="node">
<title>separated/average/src/handlers/add.js</title>
<g id="a_node4"><a xlink:href="separated/average/src/handlers/add.js" xlink:title="add.js">
<path fill="#ffffcc" stroke="black" d="M344.33,-253.3C344.33,-253.3 302.73,-253.3 302.73,-253.3 299.63,-253.3 296.53,-250.2 296.53,-247.1 296.53,-247.1 296.53,-240.9 296.53,-240.9 296.53,-237.8 299.63,-234.7 302.73,-234.7 302.73,-234.7 344.33,-234.7 344.33,-234.7 347.43,-234.7 350.53,-237.8 350.53,-240.9 350.53,-240.9 350.53,-247.1 350.53,-247.1 350.53,-250.2 347.43,-253.3 344.33,-253.3"/>
<text text-anchor="middle" x="323.53" y="-241.3" font-family="Helvetica,sans-Serif" font-size="9.00">add.js</text>
</a>
</g>
</g>
<!-- separated/average/src/handlers/add.js&#45;&gt;../utils/average.js -->
<g id="edge2" class="edge">
<title>separated/average/src/handlers/add.js&#45;&gt;../utils/average.js</title>
<path fill="none" stroke="#000000" stroke-width="2" stroke-opacity="0.200000" d="M335.17,-234.58C342.33,-227.9 351.68,-218.47 358.53,-209 359.22,-208.05 388.36,-152.12 402.61,-124.76"/>
<polygon fill="#000000" fill-opacity="0.200000" stroke="#000000" stroke-width="2" stroke-opacity="0.200000" points="404.5,-125.67 405.4,-119.38 400.77,-123.73 404.5,-125.67"/>
</g>
<!-- separated/average/src/handlers/add.js&#45;&gt;/.lib/logger.js -->
<g id="edge3" class="edge">
<title>separated/average/src/handlers/add.js&#45;&gt;/.lib/logger.js</title>
<path fill="none" stroke="#000000" stroke-width="2" stroke-opacity="0.200000" d="M337.53,-234.51C345.08,-228.2 353.98,-219.21 358.53,-209 380.1,-160.58 347.81,-139.59 366.53,-90 372.79,-73.4 385.6,-57.65 395.75,-46.93"/>
<polygon fill="#000000" fill-opacity="0.200000" stroke="#000000" stroke-width="2" stroke-opacity="0.200000" points="397.51,-48.14 400.19,-42.38 394.5,-45.21 397.51,-48.14"/>
</g>
<!-- separated/average/src/handlers/add.js&#45;&gt;separated/average/src/data.js -->
<g id="edge1" class="edge">
<title>separated/average/src/handlers/add.js&#45;&gt;separated/average/src/data.js</title>
<path fill="none" stroke="#000000" stroke-width="2" stroke-opacity="0.200000" d="M349.47,-253.36C352.53,-254.56 355.61,-255.79 358.53,-257 366.95,-260.48 376.05,-264.45 384.24,-268.1"/>
<polygon fill="#000000" fill-opacity="0.200000" stroke="#000000" stroke-width="2" stroke-opacity="0.200000" points="383.41,-270.03 389.74,-270.57 385.13,-266.2 383.41,-270.03"/>
</g>
<!-- separated/average/src/handlers/close&#45;open.js -->
<g id="node5" class="node">
<title>separated/average/src/handlers/close&#45;open.js</title>
<g id="a_node5"><a xlink:href="separated/average/src/handlers/close-open.js" xlink:title="close&#45;open.js">
<path fill="#ffffcc" stroke="black" d="M277.33,-253.3C277.33,-253.3 220.72,-253.3 220.72,-253.3 217.62,-253.3 214.51,-250.2 214.51,-247.1 214.51,-247.1 214.51,-240.9 214.51,-240.9 214.51,-237.8 217.62,-234.7 220.72,-234.7 220.72,-234.7 277.33,-234.7 277.33,-234.7 280.43,-234.7 283.53,-237.8 283.53,-240.9 283.53,-240.9 283.53,-247.1 283.53,-247.1 283.53,-250.2 280.43,-253.3 277.33,-253.3"/>
<text text-anchor="middle" x="249.02" y="-241.3" font-family="Helvetica,sans-Serif" font-size="9.00">close&#45;open.js</text>
</a>
</g>
</g>
<!-- separated/average/src/handlers/close&#45;open.js&#45;&gt;/.lib/logger.js -->
<g id="edge6" class="edge">
<title>separated/average/src/handlers/close&#45;open.js&#45;&gt;/.lib/logger.js</title>
<path fill="none" stroke="#000000" stroke-width="2" stroke-opacity="0.200000" d="M258,-234.66C280.19,-208.55 342.14,-134.98 358.53,-108 363.07,-100.52 362.06,-97.52 366.53,-90 375.71,-74.56 388.4,-58.46 397.75,-47.33"/>
<polygon fill="#000000" fill-opacity="0.200000" stroke="#000000" stroke-width="2" stroke-opacity="0.200000" points="399.5,-48.51 401.79,-42.58 396.3,-45.79 399.5,-48.51"/>
</g>
<!-- separated/average/src/handlers/close&#45;open.js&#45;&gt;separated/average/src/data.js -->
<g id="edge4" class="edge">
<title>separated/average/src/handlers/close&#45;open.js&#45;&gt;separated/average/src/data.js</title>
<path fill="none" stroke="#000000" stroke-width="2" stroke-opacity="0.200000" d="M276.9,-253.32C283.29,-255.36 290.11,-257.38 296.53,-259 323.7,-265.86 355.05,-271.48 377.94,-275.17"/>
<polygon fill="#000000" fill-opacity="0.200000" stroke="#000000" stroke-width="2" stroke-opacity="0.200000" points="377.62,-277.25 383.87,-276.12 378.28,-273.1 377.62,-277.25"/>
</g>
<!-- separated/average/src/handlers/close&#45;open.js&#45;&gt;separated/average/src/handlers/add.js -->
<g id="edge5" class="edge">
<title>separated/average/src/handlers/close&#45;open.js&#45;&gt;separated/average/src/handlers/add.js</title>
<path fill="none" stroke="#000000" stroke-width="2" stroke-opacity="0.200000" d="M283.73,-244C285.88,-244 288.03,-244 290.17,-244"/>
<polygon fill="#000000" fill-opacity="0.200000" stroke="#000000" stroke-width="2" stroke-opacity="0.200000" points="290.5,-246.1 296.5,-244 290.5,-241.9 290.5,-246.1"/>
</g>
<!-- separated/average/src/handlers/reset.js -->
<g id="node6" class="node">
<title>separated/average/src/handlers/reset.js</title>
<g id="a_node6"><a xlink:href="separated/average/src/handlers/reset.js" xlink:title="reset.js">
<path fill="#ffffcc" stroke="black" d="M269.82,-284.3C269.82,-284.3 228.23,-284.3 228.23,-284.3 225.13,-284.3 222.02,-281.2 222.02,-278.1 222.02,-278.1 222.02,-271.9 222.02,-271.9 222.02,-268.8 225.13,-265.7 228.23,-265.7 228.23,-265.7 269.82,-265.7 269.82,-265.7 272.92,-265.7 276.02,-268.8 276.02,-271.9 276.02,-271.9 276.02,-278.1 276.02,-278.1 276.02,-281.2 272.92,-284.3 269.82,-284.3"/>
<text text-anchor="middle" x="249.02" y="-272.3" font-family="Helvetica,sans-Serif" font-size="9.00">reset.js</text>
</a>
</g>
</g>
<!-- separated/average/src/handlers/reset.js&#45;&gt;/.lib/logger.js -->
<g id="edge9" class="edge">
<title>separated/average/src/handlers/reset.js&#45;&gt;/.lib/logger.js</title>
<path fill="none" stroke="#000000" stroke-width="2" stroke-opacity="0.200000" d="M275.17,-265.52C278.23,-263.67 281.11,-261.51 283.53,-259 293.62,-248.54 288.77,-241.29 296.53,-229 318.9,-193.58 341.54,-196.3 358.53,-158 370.87,-130.18 355.08,-118.19 366.53,-90 373.21,-73.56 385.97,-57.8 396,-47.03"/>
<polygon fill="#000000" fill-opacity="0.200000" stroke="#000000" stroke-width="2" stroke-opacity="0.200000" points="397.75,-48.24 400.38,-42.45 394.71,-45.33 397.75,-48.24"/>
</g>
<!-- separated/average/src/handlers/reset.js&#45;&gt;separated/average/src/data.js -->
<g id="edge7" class="edge">
<title>separated/average/src/handlers/reset.js&#45;&gt;separated/average/src/data.js</title>
<path fill="none" stroke="#000000" stroke-width="2" stroke-opacity="0.200000" d="M276.13,-275.81C303.95,-276.68 348.04,-278.06 378.02,-278.99"/>
<polygon fill="#000000" fill-opacity="0.200000" stroke="#000000" stroke-width="2" stroke-opacity="0.200000" points="378.13,-281.1 384.19,-279.19 378.26,-276.9 378.13,-281.1"/>
</g>
<!-- separated/average/src/handlers/reset.js&#45;&gt;separated/average/src/handlers/add.js -->
<g id="edge8" class="edge">
<title>separated/average/src/handlers/reset.js&#45;&gt;separated/average/src/handlers/add.js</title>
<path fill="none" stroke="#000000" stroke-width="2" stroke-opacity="0.200000" d="M272.17,-265.53C279.34,-262.47 287.38,-259.03 294.9,-255.82"/>
<polygon fill="#000000" fill-opacity="0.200000" stroke="#000000" stroke-width="2" stroke-opacity="0.200000" points="295.83,-257.7 300.52,-253.41 294.18,-253.84 295.83,-257.7"/>
</g>
<!-- separated/average/src/init/index.js -->
<g id="node7" class="node">
<title>separated/average/src/init/index.js</title>
<g id="a_node7"><a xlink:href="separated/average/src/init/index.js" xlink:title="index.js">
<path fill="#ffffcc" stroke="black" d="M89.55,-354.3C89.55,-354.3 47.96,-354.3 47.96,-354.3 44.86,-354.3 41.75,-351.2 41.75,-348.1 41.75,-348.1 41.75,-341.9 41.75,-341.9 41.75,-338.8 44.86,-335.7 47.96,-335.7 47.96,-335.7 89.55,-335.7 89.55,-335.7 92.65,-335.7 95.75,-338.8 95.75,-341.9 95.75,-341.9 95.75,-348.1 95.75,-348.1 95.75,-351.2 92.65,-354.3 89.55,-354.3"/>
<text text-anchor="middle" x="68.75" y="-342.3" font-family="Helvetica,sans-Serif" font-size="9.00">index.js</text>
</a>
</g>
</g>
<!-- separated/average/src/listeners/add.js -->
<g id="node8" class="node">
<title>separated/average/src/listeners/add.js</title>
<g id="a_node8"><a xlink:href="separated/average/src/listeners/add.js" xlink:title="add.js">
<path fill="#ffffcc" stroke="black" d="M176.81,-231.3C176.81,-231.3 135.22,-231.3 135.22,-231.3 132.12,-231.3 129.01,-228.2 129.01,-225.1 129.01,-225.1 129.01,-218.9 129.01,-218.9 129.01,-215.8 132.12,-212.7 135.22,-212.7 135.22,-212.7 176.81,-212.7 176.81,-212.7 179.91,-212.7 183.01,-215.8 183.01,-218.9 183.01,-218.9 183.01,-225.1 183.01,-225.1 183.01,-228.2 179.91,-231.3 176.81,-231.3"/>
<text text-anchor="middle" x="156.01" y="-219.3" font-family="Helvetica,sans-Serif" font-size="9.00">add.js</text>
</a>
</g>
</g>
<!-- separated/average/src/init/index.js&#45;&gt;separated/average/src/listeners/add.js -->
<g id="edge10" class="edge">
<title>separated/average/src/init/index.js&#45;&gt;separated/average/src/listeners/add.js</title>
<path fill="none" stroke="#000000" stroke-width="2" stroke-opacity="0.200000" d="M78.04,-335.59C86.41,-325.53 99,-308.76 105.51,-292 114.29,-269.38 98.35,-256.94 113.51,-238 116.1,-234.76 119.44,-232.17 123.09,-230.11"/>
<polygon fill="#000000" fill-opacity="0.200000" stroke="#000000" stroke-width="2" stroke-opacity="0.200000" points="124.12,-231.95 128.61,-227.45 122.29,-228.16 124.12,-231.95"/>
</g>
<!-- separated/average/src/listeners/close&#45;open.js -->
<g id="node9" class="node">
<title>separated/average/src/listeners/close&#45;open.js</title>
<g id="a_node9"><a xlink:href="separated/average/src/listeners/close-open.js" xlink:title="close&#45;open.js">
<path fill="#ffffcc" stroke="black" d="M184.32,-262.3C184.32,-262.3 127.71,-262.3 127.71,-262.3 124.61,-262.3 121.5,-259.2 121.5,-256.1 121.5,-256.1 121.5,-249.9 121.5,-249.9 121.5,-246.8 124.61,-243.7 127.71,-243.7 127.71,-243.7 184.32,-243.7 184.32,-243.7 187.42,-243.7 190.52,-246.8 190.52,-249.9 190.52,-249.9 190.52,-256.1 190.52,-256.1 190.52,-259.2 187.42,-262.3 184.32,-262.3"/>
<text text-anchor="middle" x="156.01" y="-250.3" font-family="Helvetica,sans-Serif" font-size="9.00">close&#45;open.js</text>
</a>
</g>
</g>
<!-- separated/average/src/init/index.js&#45;&gt;separated/average/src/listeners/close&#45;open.js -->
<g id="edge11" class="edge">
<title>separated/average/src/init/index.js&#45;&gt;separated/average/src/listeners/close&#45;open.js</title>
<path fill="none" stroke="#000000" stroke-width="2" stroke-opacity="0.200000" d="M77.13,-335.69C84.98,-325.45 97.36,-308.28 105.51,-292 110.35,-282.32 105.98,-276.78 113.51,-269 114.59,-267.88 115.76,-266.84 116.99,-265.87"/>
<polygon fill="#000000" fill-opacity="0.200000" stroke="#000000" stroke-width="2" stroke-opacity="0.200000" points="118.23,-267.57 122.03,-262.48 115.88,-264.09 118.23,-267.57"/>
</g>
<!-- separated/average/src/listeners/reset.js -->
<g id="node10" class="node">
<title>separated/average/src/listeners/reset.js</title>
<g id="a_node10"><a xlink:href="separated/average/src/listeners/reset.js" xlink:title="reset.js">
<path fill="#ffffcc" stroke="black" d="M176.81,-293.3C176.81,-293.3 135.22,-293.3 135.22,-293.3 132.12,-293.3 129.01,-290.2 129.01,-287.1 129.01,-287.1 129.01,-280.9 129.01,-280.9 129.01,-277.8 132.12,-274.7 135.22,-274.7 135.22,-274.7 176.81,-274.7 176.81,-274.7 179.91,-274.7 183.01,-277.8 183.01,-280.9 183.01,-280.9 183.01,-287.1 183.01,-287.1 183.01,-290.2 179.91,-293.3 176.81,-293.3"/>
<text text-anchor="middle" x="156.01" y="-281.3" font-family="Helvetica,sans-Serif" font-size="9.00">reset.js</text>
</a>
</g>
</g>
<!-- separated/average/src/init/index.js&#45;&gt;separated/average/src/listeners/reset.js -->
<g id="edge12" class="edge">
<title>separated/average/src/init/index.js&#45;&gt;separated/average/src/listeners/reset.js</title>
<path fill="none" stroke="#000000" stroke-width="2" stroke-opacity="0.200000" d="M83.08,-335.47C97.47,-325.17 120.49,-308.7 136.61,-297.17"/>
<polygon fill="#000000" fill-opacity="0.200000" stroke="#000000" stroke-width="2" stroke-opacity="0.200000" points="138.13,-298.66 141.79,-293.46 135.68,-295.25 138.13,-298.66"/>
</g>
<!-- separated/average/src/init/log&#45;state.js -->
<g id="node11" class="node">
<title>separated/average/src/init/log&#45;state.js</title>
<g id="a_node11"><a xlink:href="separated/average/src/init/log-state.js" xlink:title="log&#45;state.js">
<path fill="#ffffcc" stroke="black" d="M179.32,-354.3C179.32,-354.3 132.71,-354.3 132.71,-354.3 129.61,-354.3 126.51,-351.2 126.51,-348.1 126.51,-348.1 126.51,-341.9 126.51,-341.9 126.51,-338.8 129.61,-335.7 132.71,-335.7 132.71,-335.7 179.32,-335.7 179.32,-335.7 182.42,-335.7 185.52,-338.8 185.52,-341.9 185.52,-341.9 185.52,-348.1 185.52,-348.1 185.52,-351.2 182.42,-354.3 179.32,-354.3"/>
<text text-anchor="middle" x="156.01" y="-342.3" font-family="Helvetica,sans-Serif" font-size="9.00">log&#45;state.js</text>
</a>
</g>
</g>
<!-- separated/average/src/init/index.js&#45;&gt;separated/average/src/init/log&#45;state.js -->
<g id="edge13" class="edge">
<title>separated/average/src/init/index.js&#45;&gt;separated/average/src/init/log&#45;state.js</title>
<path fill="none" stroke="#000000" stroke-width="2" stroke-opacity="0.200000" d="M95.8,-345C103.53,-345 112.11,-345 120.3,-345"/>
<polygon fill="#000000" fill-opacity="0.200000" stroke="#000000" stroke-width="2" stroke-opacity="0.200000" points="120.46,-347.1 126.46,-345 120.46,-342.9 120.46,-347.1"/>
</g>
<!-- separated/average/src/init/ui&#45;values.js -->
<g id="node12" class="node">
<title>separated/average/src/init/ui&#45;values.js</title>
<g id="a_node12"><a xlink:href="separated/average/src/init/ui-values.js" xlink:title="ui&#45;values.js">
<path fill="#ffffcc" stroke="black" d="M180.31,-385.3C180.31,-385.3 131.71,-385.3 131.71,-385.3 128.61,-385.3 125.51,-382.2 125.51,-379.1 125.51,-379.1 125.51,-372.9 125.51,-372.9 125.51,-369.8 128.61,-366.7 131.71,-366.7 131.71,-366.7 180.31,-366.7 180.31,-366.7 183.42,-366.7 186.52,-369.8 186.52,-372.9 186.52,-372.9 186.52,-379.1 186.52,-379.1 186.52,-382.2 183.42,-385.3 180.31,-385.3"/>
<text text-anchor="middle" x="156.01" y="-373.3" font-family="Helvetica,sans-Serif" font-size="9.00">ui&#45;values.js</text>
</a>
</g>
</g>
<!-- separated/average/src/init/index.js&#45;&gt;separated/average/src/init/ui&#45;values.js -->
<g id="edge14" class="edge">
<title>separated/average/src/init/index.js&#45;&gt;separated/average/src/init/ui&#45;values.js</title>
<path fill="none" stroke="#000000" stroke-width="2" stroke-opacity="0.200000" d="M95.8,-354.47C104.56,-357.65 114.42,-361.24 123.55,-364.56"/>
<polygon fill="#000000" fill-opacity="0.200000" stroke="#000000" stroke-width="2" stroke-opacity="0.200000" points="123.07,-366.62 129.42,-366.7 124.5,-362.67 123.07,-366.62"/>
</g>
<!-- separated/average/src/listeners/add.js&#45;&gt;separated/average/src/handlers/add.js -->
<g id="edge18" class="edge">
<title>separated/average/src/listeners/add.js&#45;&gt;separated/average/src/handlers/add.js</title>
<path fill="none" stroke="#000000" stroke-width="2" stroke-opacity="0.200000" d="M183.5,-221.09C209.32,-220.75 249.55,-221.71 283.53,-229 287.63,-229.88 291.86,-231.13 295.96,-232.53"/>
<polygon fill="#000000" fill-opacity="0.200000" stroke="#000000" stroke-width="2" stroke-opacity="0.200000" points="295.49,-234.59 301.85,-234.67 296.93,-230.64 295.49,-234.59"/>
</g>
<!-- separated/average/src/listeners/close&#45;open.js&#45;&gt;separated/average/src/handlers/close&#45;open.js -->
<g id="edge19" class="edge">
<title>separated/average/src/listeners/close&#45;open.js&#45;&gt;separated/average/src/handlers/close&#45;open.js</title>
<path fill="none" stroke="#000000" stroke-width="2" stroke-opacity="0.200000" d="M190.64,-249.67C196.3,-249.12 202.21,-248.53 208.01,-247.96"/>
<polygon fill="#000000" fill-opacity="0.200000" stroke="#000000" stroke-width="2" stroke-opacity="0.200000" points="208.46,-250.02 214.23,-247.34 208.05,-245.84 208.46,-250.02"/>
</g>
<!-- separated/average/src/listeners/reset.js&#45;&gt;separated/average/src/handlers/reset.js -->
<g id="edge20" class="edge">
<title>separated/average/src/listeners/reset.js&#45;&gt;separated/average/src/handlers/reset.js</title>
<path fill="none" stroke="#000000" stroke-width="2" stroke-opacity="0.200000" d="M183.34,-281.4C193.43,-280.4 205.07,-279.25 215.66,-278.2"/>
<polygon fill="#000000" fill-opacity="0.200000" stroke="#000000" stroke-width="2" stroke-opacity="0.200000" points="216,-280.28 221.76,-277.6 215.58,-276.1 216,-280.28"/>
</g>
<!-- separated/average/src/init/log&#45;state.js&#45;&gt;/.lib/logger.js -->
<g id="edge16" class="edge">
<title>separated/average/src/init/log&#45;state.js&#45;&gt;/.lib/logger.js</title>
<path fill="none" stroke="#000000" stroke-width="2" stroke-opacity="0.200000" d="M184.24,-335.59C189.8,-332.43 195.02,-328.31 198.52,-323 210.65,-304.56 198.49,-244.56 206.52,-224 230.13,-163.54 248.94,-153.14 296.53,-109 324.74,-82.83 362.81,-59.35 386.95,-45.63"/>
<polygon fill="#000000" fill-opacity="0.200000" stroke="#000000" stroke-width="2" stroke-opacity="0.200000" points="388.28,-47.29 392.48,-42.52 386.22,-43.63 388.28,-47.29"/>
</g>
<!-- separated/average/src/init/log&#45;state.js&#45;&gt;separated/average/src/data.js -->
<g id="edge15" class="edge">
<title>separated/average/src/init/log&#45;state.js&#45;&gt;separated/average/src/data.js</title>
<path fill="none" stroke="#000000" stroke-width="2" stroke-opacity="0.200000" d="M185.7,-344.4C225.69,-342.73 299.88,-336.54 358.53,-314 371.52,-309.01 384.6,-300.37 394.37,-293.05"/>
<polygon fill="#000000" fill-opacity="0.200000" stroke="#000000" stroke-width="2" stroke-opacity="0.200000" points="395.68,-294.7 399.15,-289.37 393.12,-291.37 395.68,-294.7"/>
</g>
<!-- separated/average/src/init/ui&#45;values.js&#45;&gt;separated/average/src/data.js -->
<g id="edge17" class="edge">
<title>separated/average/src/init/ui&#45;values.js&#45;&gt;separated/average/src/data.js</title>
<path fill="none" stroke="#000000" stroke-width="2" stroke-opacity="0.200000" d="M186.62,-373.15C227.36,-368.26 302.08,-355.74 358.53,-326 373.84,-317.93 388.3,-304.39 398.02,-294.09"/>
<polygon fill="#000000" fill-opacity="0.200000" stroke="#000000" stroke-width="2" stroke-opacity="0.200000" points="399.62,-295.45 402.14,-289.61 396.53,-292.6 399.62,-295.45"/>
</g>
<!-- separated/average/src/logic/average.js -->
<g id="node13" class="node">
<title>separated/average/src/logic/average.js</title>
<g id="a_node13"><a xlink:href="separated/average/src/logic/average.js" xlink:title="average.js">
<path fill="#ccffcc" stroke="black" d="M91.07,-262.3C91.07,-262.3 46.44,-262.3 46.44,-262.3 43.34,-262.3 40.24,-259.2 40.24,-256.1 40.24,-256.1 40.24,-249.9 40.24,-249.9 40.24,-246.8 43.34,-243.7 46.44,-243.7 46.44,-243.7 91.07,-243.7 91.07,-243.7 94.17,-243.7 97.27,-246.8 97.27,-249.9 97.27,-249.9 97.27,-256.1 97.27,-256.1 97.27,-259.2 94.17,-262.3 91.07,-262.3"/>
<text text-anchor="middle" x="68.75" y="-250.3" font-family="Helvetica,sans-Serif" font-size="9.00">average.js</text>
</a>
</g>
</g>
</g>
</svg>
