<?xml version="1.0" encoding="UTF-8" standalone="no"?>
<!DOCTYPE svg PUBLIC "-//W3C//DTD SVG 1.1//EN"
 "http://www.w3.org/Graphics/SVG/1.1/DTD/svg11.dtd">
<!-- Generated by graphviz version 2.44.0 (20200408.0750)
 -->
<!-- Title: dependency&#45;cruiser output Pages: 1 -->
<svg width="572pt" height="397pt"
 viewBox="0.00 0.00 572.31 397.00" xmlns="http://www.w3.org/2000/svg" xmlns:xlink="http://www.w3.org/1999/xlink">
<g id="graph0" class="graph" transform="scale(1 1) rotate(0) translate(4 393)">
<title>dependency&#45;cruiser output</title>
<polygon fill="white" stroke="transparent" points="-4,4 -4,-393 568.31,-393 568.31,4 -4,4"/>
<g id="clust1" class="cluster">
<title>cluster_lib</title>
<path fill="#ffffff" stroke="black" stroke-width="2" d="M387.04,-8C387.04,-8 544.31,-8 544.31,-8 550.31,-8 556.31,-14 556.31,-20 556.31,-20 556.31,-49 556.31,-49 556.31,-55 550.31,-61 544.31,-61 544.31,-61 387.04,-61 387.04,-61 381.04,-61 375.04,-55 375.04,-49 375.04,-49 375.04,-20 375.04,-20 375.04,-14 381.04,-8 387.04,-8"/>
<text text-anchor="middle" x="465.67" y="-48.9" font-family="Helvetica,sans-Serif" font-weight="bold" font-size="9.00">lib</text>
</g>
<g id="clust2" class="cluster">
<title>cluster_separated</title>
<path fill="#ffffff" stroke="black" stroke-width="2" d="M20,-69C20,-69 458.79,-69 458.79,-69 464.79,-69 470.79,-75 470.79,-81 470.79,-81 470.79,-369 470.79,-369 470.79,-375 464.79,-381 458.79,-381 458.79,-381 20,-381 20,-381 14,-381 8,-375 8,-369 8,-369 8,-81 8,-81 8,-75 14,-69 20,-69"/>
<text text-anchor="middle" x="239.4" y="-368.9" font-family="Helvetica,sans-Serif" font-weight="bold" font-size="9.00">separated</text>
</g>
<g id="clust3" class="cluster">
<title>cluster_separated/average</title>
<path fill="#ffffff" stroke="black" stroke-width="2" d="M28,-77C28,-77 450.79,-77 450.79,-77 456.79,-77 462.79,-83 462.79,-89 462.79,-89 462.79,-342 462.79,-342 462.79,-348 456.79,-354 450.79,-354 450.79,-354 28,-354 28,-354 22,-354 16,-348 16,-342 16,-342 16,-89 16,-89 16,-83 22,-77 28,-77"/>
<text text-anchor="middle" x="239.4" y="-341.9" font-family="Helvetica,sans-Serif" font-weight="bold" font-size="9.00">average</text>
</g>
<g id="clust4" class="cluster">
<title>cluster_separated/average/src</title>
<path fill="#ffffff" stroke="black" stroke-width="2" d="M36,-85C36,-85 442.79,-85 442.79,-85 448.79,-85 454.79,-91 454.79,-97 454.79,-97 454.79,-315 454.79,-315 454.79,-321 448.79,-327 442.79,-327 442.79,-327 36,-327 36,-327 30,-327 24,-321 24,-315 24,-315 24,-97 24,-97 24,-91 30,-85 36,-85"/>
<text text-anchor="middle" x="239.4" y="-314.9" font-family="Helvetica,sans-Serif" font-weight="bold" font-size="9.00">src</text>
</g>
<g id="clust5" class="cluster">
<title>cluster_separated/average/src/handlers</title>
<path fill="#ffffff" stroke="black" stroke-width="2" d="M207.01,-154C207.01,-154 350.53,-154 350.53,-154 356.53,-154 362.53,-160 362.53,-166 362.53,-166 362.53,-226 362.53,-226 362.53,-232 356.53,-238 350.53,-238 350.53,-238 207.01,-238 207.01,-238 201.01,-238 195.01,-232 195.01,-226 195.01,-226 195.01,-166 195.01,-166 195.01,-160 201.01,-154 207.01,-154"/>
<text text-anchor="middle" x="278.77" y="-225.9" font-family="Helvetica,sans-Serif" font-weight="bold" font-size="9.00">handlers</text>
</g>
<g id="clust6" class="cluster">
<title>cluster_separated/average/src/init</title>
<path fill="#ffffff" stroke="black" stroke-width="2" d="M44,-216C44,-216 171.01,-216 171.01,-216 177.01,-216 183.01,-222 183.01,-228 183.01,-228 183.01,-288 183.01,-288 183.01,-294 177.01,-300 171.01,-300 171.01,-300 44,-300 44,-300 38,-300 32,-294 32,-288 32,-288 32,-228 32,-228 32,-222 38,-216 44,-216"/>
<text text-anchor="middle" x="107.5" y="-287.9" font-family="Helvetica,sans-Serif" font-weight="bold" font-size="9.00">init</text>
</g>
<g id="clust7" class="cluster">
<title>cluster_separated/average/src/listeners</title>
<path fill="#ffffff" stroke="black" stroke-width="2" d="M114,-93C114,-93 175.01,-93 175.01,-93 181.01,-93 187.01,-99 187.01,-105 187.01,-105 187.01,-196 187.01,-196 187.01,-202 181.01,-208 175.01,-208 175.01,-208 114,-208 114,-208 108,-208 102,-202 102,-196 102,-196 102,-105 102,-105 102,-99 108,-93 114,-93"/>
<text text-anchor="middle" x="144.51" y="-195.9" font-family="Helvetica,sans-Serif" font-weight="bold" font-size="9.00">listeners</text>
</g>
<g id="clust8" class="cluster">
<title>cluster_separated/average/src/logic</title>
<path fill="#ffffff" stroke="black" stroke-width="2" d="M292.02,-93C292.02,-93 434.79,-93 434.79,-93 440.79,-93 446.79,-99 446.79,-105 446.79,-105 446.79,-134 446.79,-134 446.79,-140 440.79,-146 434.79,-146 434.79,-146 292.02,-146 292.02,-146 286.02,-146 280.02,-140 280.02,-134 280.02,-134 280.02,-105 280.02,-105 280.02,-99 286.02,-93 292.02,-93"/>
<text text-anchor="middle" x="363.41" y="-133.9" font-family="Helvetica,sans-Serif" font-weight="bold" font-size="9.00">logic</text>
</g>
<!-- lib/deep&#45;clone.js -->
<g id="node1" class="node">
<title>lib/deep&#45;clone.js</title>
<g id="a_node1"><a xlink:href="lib/deep-clone.js" xlink:title="deep&#45;clone.js">
<path fill="#ffffcc" stroke="black" d="M541.86,-34.3C541.86,-34.3 485.23,-34.3 485.23,-34.3 482.13,-34.3 479.03,-31.2 479.03,-28.1 479.03,-28.1 479.03,-21.9 479.03,-21.9 479.03,-18.8 482.13,-15.7 485.23,-15.7 485.23,-15.7 541.86,-15.7 541.86,-15.7 544.96,-15.7 548.06,-18.8 548.06,-21.9 548.06,-21.9 548.06,-28.1 548.06,-28.1 548.06,-31.2 544.96,-34.3 541.86,-34.3"/>
<text text-anchor="middle" x="513.55" y="-22.3" font-family="Helvetica,sans-Serif" font-size="9.00">deep&#45;clone.js</text>
</a>
</g>
</g>
<!-- lib/logger.js -->
<g id="node2" class="node">
<title>lib/logger.js</title>
<g id="a_node2"><a xlink:href="lib/logger.js" xlink:title="logger.js">
<path fill="#ffffcc" stroke="black" d="M430.84,-34.3C430.84,-34.3 389.24,-34.3 389.24,-34.3 386.14,-34.3 383.04,-31.2 383.04,-28.1 383.04,-28.1 383.04,-21.9 383.04,-21.9 383.04,-18.8 386.14,-15.7 389.24,-15.7 389.24,-15.7 430.84,-15.7 430.84,-15.7 433.94,-15.7 437.04,-18.8 437.04,-21.9 437.04,-21.9 437.04,-28.1 437.04,-28.1 437.04,-31.2 433.94,-34.3 430.84,-34.3"/>
<text text-anchor="middle" x="410.04" y="-22.3" font-family="Helvetica,sans-Serif" font-size="9.00">logger.js</text>
</a>
</g>
</g>
<!-- lib/logger.js&#45;&gt;lib/deep&#45;clone.js -->
<g id="edge1" class="edge">
<title>lib/logger.js&#45;&gt;lib/deep&#45;clone.js</title>
<path fill="none" stroke="#000000" stroke-width="2" stroke-opacity="0.200000" d="M437.18,-25C447.98,-25 460.75,-25 472.68,-25"/>
<polygon fill="#000000" fill-opacity="0.200000" stroke="#000000" stroke-width="2" stroke-opacity="0.200000" points="472.83,-27.1 478.83,-25 472.83,-22.9 472.83,-27.1"/>
</g>
<!-- separated/average/src/data.js -->
<g id="node3" class="node">
<title>separated/average/src/data.js</title>
<g id="a_node3"><a xlink:href="separated/average/src/data.js" xlink:title="data.js">
<path fill="#ffffcc" stroke="black" d="M430.84,-216.3C430.84,-216.3 389.24,-216.3 389.24,-216.3 386.14,-216.3 383.04,-213.2 383.04,-210.1 383.04,-210.1 383.04,-203.9 383.04,-203.9 383.04,-200.8 386.14,-197.7 389.24,-197.7 389.24,-197.7 430.84,-197.7 430.84,-197.7 433.94,-197.7 437.04,-200.8 437.04,-203.9 437.04,-203.9 437.04,-210.1 437.04,-210.1 437.04,-213.2 433.94,-216.3 430.84,-216.3"/>
<text text-anchor="middle" x="410.04" y="-204.3" font-family="Helvetica,sans-Serif" font-size="9.00">data.js</text>
</a>
</g>
</g>
<!-- separated/average/src/handlers/add.js -->
<g id="node4" class="node">
<title>separated/average/src/handlers/add.js</title>
<g id="a_node4"><a xlink:href="separated/average/src/handlers/add.js" xlink:title="add.js">
<path fill="#ffffcc" stroke="black" d="M348.33,-180.3C348.33,-180.3 306.73,-180.3 306.73,-180.3 303.63,-180.3 300.53,-177.2 300.53,-174.1 300.53,-174.1 300.53,-167.9 300.53,-167.9 300.53,-164.8 303.63,-161.7 306.73,-161.7 306.73,-161.7 348.33,-161.7 348.33,-161.7 351.43,-161.7 354.53,-164.8 354.53,-167.9 354.53,-167.9 354.53,-174.1 354.53,-174.1 354.53,-177.2 351.43,-180.3 348.33,-180.3"/>
<text text-anchor="middle" x="327.53" y="-168.3" font-family="Helvetica,sans-Serif" font-size="9.00">add.js</text>
</a>
</g>
</g>
<!-- separated/average/src/handlers/add.js&#45;&gt;lib/logger.js -->
<g id="edge2" class="edge">
<title>separated/average/src/handlers/add.js&#45;&gt;lib/logger.js</title>
<path fill="none" stroke="#000000" stroke-width="2" stroke-opacity="0.200000" d="M352.82,-161.58C358.29,-158.37 363.51,-154.23 367.04,-149 381.83,-127.06 367.01,-115.21 375.04,-90 380.8,-71.9 391.39,-52.83 399.23,-40.06"/>
<polygon fill="#000000" fill-opacity="0.200000" stroke="#000000" stroke-width="2" stroke-opacity="0.200000" points="401.2,-40.86 402.6,-34.66 397.64,-38.63 401.2,-40.86"/>
</g>
<!-- separated/average/src/handlers/add.js&#45;&gt;separated/average/src/data.js -->
<g id="edge3" class="edge">
<title>separated/average/src/handlers/add.js&#45;&gt;separated/average/src/data.js</title>
<path fill="none" stroke="#000000" stroke-width="2" stroke-opacity="0.200000" d="M354.86,-179.2C358.98,-180.68 363.16,-182.3 367.04,-184 374.06,-187.08 381.47,-190.92 388.08,-194.58"/>
<polygon fill="#000000" fill-opacity="0.200000" stroke="#000000" stroke-width="2" stroke-opacity="0.200000" points="387.16,-196.47 393.41,-197.59 389.22,-192.81 387.16,-196.47"/>
</g>
<!-- separated/average/src/logic/average.js -->
<g id="node5" class="node">
<title>separated/average/src/logic/average.js</title>
<g id="a_node5"><a xlink:href="separated/average/src/logic/average.js" xlink:title="average.js">
<path fill="#ffffcc" stroke="black" d="M432.35,-119.3C432.35,-119.3 387.73,-119.3 387.73,-119.3 384.63,-119.3 381.53,-116.2 381.53,-113.1 381.53,-113.1 381.53,-106.9 381.53,-106.9 381.53,-103.8 384.63,-100.7 387.73,-100.7 387.73,-100.7 432.35,-100.7 432.35,-100.7 435.45,-100.7 438.55,-103.8 438.55,-106.9 438.55,-106.9 438.55,-113.1 438.55,-113.1 438.55,-116.2 435.45,-119.3 432.35,-119.3"/>
<text text-anchor="middle" x="410.04" y="-107.3" font-family="Helvetica,sans-Serif" font-size="9.00">average.js</text>
</a>
</g>
</g>
<!-- separated/average/src/handlers/add.js&#45;&gt;separated/average/src/logic/average.js -->
<g id="edge4" class="edge">
<title>separated/average/src/handlers/add.js&#45;&gt;separated/average/src/logic/average.js</title>
<path fill="none" stroke="#000000" stroke-width="2" stroke-opacity="0.200000" d="M351.44,-161.62C357.19,-158.35 362.9,-154.17 367.04,-149 374.59,-139.56 366.78,-131.83 375.04,-123 375.49,-122.52 375.96,-122.05 376.45,-121.6"/>
<polygon fill="#000000" fill-opacity="0.200000" stroke="#000000" stroke-width="2" stroke-opacity="0.200000" points="377.73,-123.27 381.28,-118 375.22,-119.9 377.73,-123.27"/>
</g>
<!-- separated/average/src/handlers/close&#45;open.js -->
<g id="node6" class="node">
<title>separated/average/src/handlers/close&#45;open.js</title>
<g id="a_node6"><a xlink:href="separated/average/src/handlers/close-open.js" xlink:title="close&#45;open.js">
<path fill="#ffffcc" stroke="black" d="M265.82,-180.3C265.82,-180.3 209.21,-180.3 209.21,-180.3 206.11,-180.3 203,-177.2 203,-174.1 203,-174.1 203,-167.9 203,-167.9 203,-164.8 206.11,-161.7 209.21,-161.7 209.21,-161.7 265.82,-161.7 265.82,-161.7 268.92,-161.7 272.03,-164.8 272.03,-167.9 272.03,-167.9 272.03,-174.1 272.03,-174.1 272.03,-177.2 268.92,-180.3 265.82,-180.3"/>
<text text-anchor="middle" x="237.52" y="-168.3" font-family="Helvetica,sans-Serif" font-size="9.00">close&#45;open.js</text>
</a>
</g>
</g>
<!-- separated/average/src/handlers/close&#45;open.js&#45;&gt;lib/logger.js -->
<g id="edge5" class="edge">
<title>separated/average/src/handlers/close&#45;open.js&#45;&gt;lib/logger.js</title>
<path fill="none" stroke="#000000" stroke-width="2" stroke-opacity="0.200000" d="M239.62,-161.46C242.46,-141.14 251.93,-93.32 280.02,-67 287.27,-60.21 341.02,-44.12 376.81,-33.94"/>
<polygon fill="#000000" fill-opacity="0.200000" stroke="#000000" stroke-width="2" stroke-opacity="0.200000" points="377.63,-35.9 382.83,-32.24 376.49,-31.85 377.63,-35.9"/>
</g>
<!-- separated/average/src/handlers/close&#45;open.js&#45;&gt;separated/average/src/data.js -->
<g id="edge6" class="edge">
<title>separated/average/src/handlers/close&#45;open.js&#45;&gt;separated/average/src/data.js</title>
<path fill="none" stroke="#000000" stroke-width="2" stroke-opacity="0.200000" d="M261.98,-180.34C267.81,-182.42 274.09,-184.46 280.02,-186 317.94,-195.81 328.38,-193.67 367.04,-200 370.23,-200.52 373.56,-201.07 376.88,-201.62"/>
<polygon fill="#000000" fill-opacity="0.200000" stroke="#000000" stroke-width="2" stroke-opacity="0.200000" points="376.56,-203.7 382.83,-202.61 377.25,-199.55 376.56,-203.7"/>
</g>
<!-- separated/average/src/handlers/close&#45;open.js&#45;&gt;separated/average/src/handlers/add.js -->
<g id="edge7" class="edge">
<title>separated/average/src/handlers/close&#45;open.js&#45;&gt;separated/average/src/handlers/add.js</title>
<path fill="none" stroke="#000000" stroke-width="2" stroke-opacity="0.200000" d="M272.04,-171C279.4,-171 287.18,-171 294.48,-171"/>
<polygon fill="#000000" fill-opacity="0.200000" stroke="#000000" stroke-width="2" stroke-opacity="0.200000" points="294.49,-173.1 300.49,-171 294.49,-168.9 294.49,-173.1"/>
</g>
<!-- separated/average/src/handlers/reset.js -->
<g id="node7" class="node">
<title>separated/average/src/handlers/reset.js</title>
<g id="a_node7"><a xlink:href="separated/average/src/handlers/reset.js" xlink:title="reset.js">
<path fill="#ffffcc" stroke="black" d="M258.31,-211.3C258.31,-211.3 216.72,-211.3 216.72,-211.3 213.62,-211.3 210.52,-208.2 210.52,-205.1 210.52,-205.1 210.52,-198.9 210.52,-198.9 210.52,-195.8 213.62,-192.7 216.72,-192.7 216.72,-192.7 258.31,-192.7 258.31,-192.7 261.41,-192.7 264.52,-195.8 264.52,-198.9 264.52,-198.9 264.52,-205.1 264.52,-205.1 264.52,-208.2 261.41,-211.3 258.31,-211.3"/>
<text text-anchor="middle" x="237.52" y="-199.3" font-family="Helvetica,sans-Serif" font-size="9.00">reset.js</text>
</a>
</g>
</g>
<!-- separated/average/src/handlers/reset.js&#45;&gt;lib/logger.js -->
<g id="edge8" class="edge">
<title>separated/average/src/handlers/reset.js&#45;&gt;lib/logger.js</title>
<path fill="none" stroke="#000000" stroke-width="2" stroke-opacity="0.200000" d="M264.81,-192.97C267.6,-191.06 270.12,-188.76 272.02,-186 284.18,-168.38 266.79,-106.83 280.02,-90 305.21,-57.95 331.56,-81.08 367.04,-61 377.56,-55.04 387.89,-46.24 395.67,-38.83"/>
<polygon fill="#000000" fill-opacity="0.200000" stroke="#000000" stroke-width="2" stroke-opacity="0.200000" points="397.34,-40.13 400.16,-34.44 394.41,-37.13 397.34,-40.13"/>
</g>
<!-- separated/average/src/handlers/reset.js&#45;&gt;separated/average/src/data.js -->
<g id="edge9" class="edge">
<title>separated/average/src/handlers/reset.js&#45;&gt;separated/average/src/data.js</title>
<path fill="none" stroke="#000000" stroke-width="2" stroke-opacity="0.200000" d="M264.79,-202.77C294.91,-203.65 344.32,-205.1 376.76,-206.05"/>
<polygon fill="#000000" fill-opacity="0.200000" stroke="#000000" stroke-width="2" stroke-opacity="0.200000" points="376.96,-208.16 383.02,-206.24 377.08,-203.96 376.96,-208.16"/>
</g>
<!-- separated/average/src/handlers/reset.js&#45;&gt;separated/average/src/handlers/add.js -->
<g id="edge10" class="edge">
<title>separated/average/src/handlers/reset.js&#45;&gt;separated/average/src/handlers/add.js</title>
<path fill="none" stroke="#000000" stroke-width="2" stroke-opacity="0.200000" d="M258.56,-192.65C265.3,-189.68 272.91,-186.52 280.02,-184 284.58,-182.38 289.44,-180.84 294.24,-179.41"/>
<polygon fill="#000000" fill-opacity="0.200000" stroke="#000000" stroke-width="2" stroke-opacity="0.200000" points="295.08,-181.35 300.26,-177.67 293.91,-177.32 295.08,-181.35"/>
</g>
<!-- separated/average/src/init/index.js -->
<g id="node8" class="node">
<title>separated/average/src/init/index.js</title>
<g id="a_node8"><a xlink:href="separated/average/src/init/index.js" xlink:title="index.js">
<path fill="#ffffcc" stroke="black" d="M87.8,-242.3C87.8,-242.3 46.2,-242.3 46.2,-242.3 43.1,-242.3 40,-239.2 40,-236.1 40,-236.1 40,-229.9 40,-229.9 40,-226.8 43.1,-223.7 46.2,-223.7 46.2,-223.7 87.8,-223.7 87.8,-223.7 90.9,-223.7 94,-226.8 94,-229.9 94,-229.9 94,-236.1 94,-236.1 94,-239.2 90.9,-242.3 87.8,-242.3"/>
<text text-anchor="middle" x="67" y="-230.3" font-family="Helvetica,sans-Serif" font-size="9.00">index.js</text>
</a>
</g>
</g>
<!-- separated/average/src/listeners/add.js -->
<g id="node9" class="node">
<title>separated/average/src/listeners/add.js</title>
<g id="a_node9"><a xlink:href="separated/average/src/listeners/add.js" xlink:title="add.js">
<path fill="#ffffcc" stroke="black" d="M165.3,-119.3C165.3,-119.3 123.71,-119.3 123.71,-119.3 120.61,-119.3 117.51,-116.2 117.51,-113.1 117.51,-113.1 117.51,-106.9 117.51,-106.9 117.51,-103.8 120.61,-100.7 123.71,-100.7 123.71,-100.7 165.3,-100.7 165.3,-100.7 168.4,-100.7 171.51,-103.8 171.51,-106.9 171.51,-106.9 171.51,-113.1 171.51,-113.1 171.51,-116.2 168.4,-119.3 165.3,-119.3"/>
<text text-anchor="middle" x="144.51" y="-107.3" font-family="Helvetica,sans-Serif" font-size="9.00">add.js</text>
</a>
</g>
</g>
<!-- separated/average/src/init/index.js&#45;&gt;separated/average/src/listeners/add.js -->
<g id="edge11" class="edge">
<title>separated/average/src/init/index.js&#45;&gt;separated/average/src/listeners/add.js</title>
<path fill="none" stroke="#000000" stroke-width="2" stroke-opacity="0.200000" d="M68.35,-223.65C69.61,-203.23 75.41,-154.24 102,-126 104.77,-123.05 108.15,-120.64 111.77,-118.67"/>
<polygon fill="#000000" fill-opacity="0.200000" stroke="#000000" stroke-width="2" stroke-opacity="0.200000" points="112.68,-120.56 117.2,-116.09 110.88,-116.77 112.68,-120.56"/>
</g>
<!-- separated/average/src/listeners/close&#45;open.js -->
<g id="node10" class="node">
<title>separated/average/src/listeners/close&#45;open.js</title>
<g id="a_node10"><a xlink:href="separated/average/src/listeners/close-open.js" xlink:title="close&#45;open.js">
<path fill="#ffffcc" stroke="black" d="M172.81,-150.3C172.81,-150.3 116.2,-150.3 116.2,-150.3 113.1,-150.3 109.99,-147.2 109.99,-144.1 109.99,-144.1 109.99,-137.9 109.99,-137.9 109.99,-134.8 113.1,-131.7 116.2,-131.7 116.2,-131.7 172.81,-131.7 172.81,-131.7 175.91,-131.7 179.02,-134.8 179.02,-137.9 179.02,-137.9 179.02,-144.1 179.02,-144.1 179.02,-147.2 175.91,-150.3 172.81,-150.3"/>
<text text-anchor="middle" x="144.51" y="-138.3" font-family="Helvetica,sans-Serif" font-size="9.00">close&#45;open.js</text>
</a>
</g>
</g>
<!-- separated/average/src/init/index.js&#45;&gt;separated/average/src/listeners/close&#45;open.js -->
<g id="edge12" class="edge">
<title>separated/average/src/init/index.js&#45;&gt;separated/average/src/listeners/close&#45;open.js</title>
<path fill="none" stroke="#000000" stroke-width="2" stroke-opacity="0.200000" d="M69.8,-223.47C73.29,-207.58 82.39,-175.6 102,-157 103.26,-155.8 104.62,-154.69 106.05,-153.67"/>
<polygon fill="#000000" fill-opacity="0.200000" stroke="#000000" stroke-width="2" stroke-opacity="0.200000" points="107.18,-155.43 111.16,-150.47 104.96,-151.87 107.18,-155.43"/>
</g>
<!-- separated/average/src/listeners/reset.js -->
<g id="node11" class="node">
<title>separated/average/src/listeners/reset.js</title>
<g id="a_node11"><a xlink:href="separated/average/src/listeners/reset.js" xlink:title="reset.js">
<path fill="#ffffcc" stroke="black" d="M165.3,-181.3C165.3,-181.3 123.71,-181.3 123.71,-181.3 120.61,-181.3 117.51,-178.2 117.51,-175.1 117.51,-175.1 117.51,-168.9 117.51,-168.9 117.51,-165.8 120.61,-162.7 123.71,-162.7 123.71,-162.7 165.3,-162.7 165.3,-162.7 168.4,-162.7 171.51,-165.8 171.51,-168.9 171.51,-168.9 171.51,-175.1 171.51,-175.1 171.51,-178.2 168.4,-181.3 165.3,-181.3"/>
<text text-anchor="middle" x="144.51" y="-169.3" font-family="Helvetica,sans-Serif" font-size="9.00">reset.js</text>
</a>
</g>
</g>
<!-- separated/average/src/init/index.js&#45;&gt;separated/average/src/listeners/reset.js -->
<g id="edge13" class="edge">
<title>separated/average/src/init/index.js&#45;&gt;separated/average/src/listeners/reset.js</title>
<path fill="none" stroke="#000000" stroke-width="2" stroke-opacity="0.200000" d="M79.8,-223.47C92.36,-213.32 112.34,-197.17 126.58,-185.67"/>
<polygon fill="#000000" fill-opacity="0.200000" stroke="#000000" stroke-width="2" stroke-opacity="0.200000" points="128.19,-187.07 131.54,-181.67 125.55,-183.8 128.19,-187.07"/>
</g>
<!-- separated/average/src/init/log&#45;state.js -->
<g id="node12" class="node">
<title>separated/average/src/init/log&#45;state.js</title>
<g id="a_node12"><a xlink:href="separated/average/src/init/log-state.js" xlink:title="log&#45;state.js">
<path fill="#ffffcc" stroke="black" d="M167.81,-242.3C167.81,-242.3 121.2,-242.3 121.2,-242.3 118.1,-242.3 115,-239.2 115,-236.1 115,-236.1 115,-229.9 115,-229.9 115,-226.8 118.1,-223.7 121.2,-223.7 121.2,-223.7 167.81,-223.7 167.81,-223.7 170.91,-223.7 174.01,-226.8 174.01,-229.9 174.01,-229.9 174.01,-236.1 174.01,-236.1 174.01,-239.2 170.91,-242.3 167.81,-242.3"/>
<text text-anchor="middle" x="144.51" y="-230.3" font-family="Helvetica,sans-Serif" font-size="9.00">log&#45;state.js</text>
</a>
</g>
</g>
<!-- separated/average/src/init/index.js&#45;&gt;separated/average/src/init/log&#45;state.js -->
<g id="edge14" class="edge">
<title>separated/average/src/init/index.js&#45;&gt;separated/average/src/init/log&#45;state.js</title>
<path fill="none" stroke="#000000" stroke-width="2" stroke-opacity="0.200000" d="M94.41,-233C99.07,-233 103.99,-233 108.84,-233"/>
<polygon fill="#000000" fill-opacity="0.200000" stroke="#000000" stroke-width="2" stroke-opacity="0.200000" points="108.93,-235.1 114.93,-233 108.93,-230.9 108.93,-235.1"/>
</g>
<!-- separated/average/src/init/ui&#45;values.js -->
<g id="node13" class="node">
<title>separated/average/src/init/ui&#45;values.js</title>
<g id="a_node13"><a xlink:href="separated/average/src/init/ui-values.js" xlink:title="ui&#45;values.js">
<path fill="#ffffcc" stroke="black" d="M168.81,-273.3C168.81,-273.3 120.2,-273.3 120.2,-273.3 117.1,-273.3 114,-270.2 114,-267.1 114,-267.1 114,-260.9 114,-260.9 114,-257.8 117.1,-254.7 120.2,-254.7 120.2,-254.7 168.81,-254.7 168.81,-254.7 171.91,-254.7 175.01,-257.8 175.01,-260.9 175.01,-260.9 175.01,-267.1 175.01,-267.1 175.01,-270.2 171.91,-273.3 168.81,-273.3"/>
<text text-anchor="middle" x="144.51" y="-261.3" font-family="Helvetica,sans-Serif" font-size="9.00">ui&#45;values.js</text>
</a>
</g>
</g>
<!-- separated/average/src/init/index.js&#45;&gt;separated/average/src/init/ui&#45;values.js -->
<g id="edge15" class="edge">
<title>separated/average/src/init/index.js&#45;&gt;separated/average/src/init/ui&#45;values.js</title>
<path fill="none" stroke="#000000" stroke-width="2" stroke-opacity="0.200000" d="M88.79,-242.36C93.14,-244.26 97.71,-246.23 102,-248 105.47,-249.43 109.11,-250.9 112.74,-252.33"/>
<polygon fill="#000000" fill-opacity="0.200000" stroke="#000000" stroke-width="2" stroke-opacity="0.200000" points="112.06,-254.32 118.41,-254.55 113.59,-250.4 112.06,-254.32"/>
</g>
<!-- separated/average/src/listeners/add.js&#45;&gt;separated/average/src/handlers/add.js -->
<g id="edge19" class="edge">
<title>separated/average/src/listeners/add.js&#45;&gt;separated/average/src/handlers/add.js</title>
<path fill="none" stroke="#000000" stroke-width="2" stroke-opacity="0.200000" d="M171.83,-118.87C204.36,-129.83 259.7,-148.48 294.62,-160.25"/>
<polygon fill="#000000" fill-opacity="0.200000" stroke="#000000" stroke-width="2" stroke-opacity="0.200000" points="294.11,-162.29 300.47,-162.22 295.45,-158.31 294.11,-162.29"/>
</g>
<!-- separated/average/src/listeners/close&#45;open.js&#45;&gt;separated/average/src/handlers/close&#45;open.js -->
<g id="edge20" class="edge">
<title>separated/average/src/listeners/close&#45;open.js&#45;&gt;separated/average/src/handlers/close&#45;open.js</title>
<path fill="none" stroke="#000000" stroke-width="2" stroke-opacity="0.200000" d="M173.8,-150.33C182.88,-153.32 193.02,-156.66 202.46,-159.78"/>
<polygon fill="#000000" fill-opacity="0.200000" stroke="#000000" stroke-width="2" stroke-opacity="0.200000" points="201.88,-161.79 208.24,-161.68 203.19,-157.81 201.88,-161.79"/>
</g>
<!-- separated/average/src/listeners/reset.js&#45;&gt;separated/average/src/handlers/reset.js -->
<g id="edge21" class="edge">
<title>separated/average/src/listeners/reset.js&#45;&gt;separated/average/src/handlers/reset.js</title>
<path fill="none" stroke="#000000" stroke-width="2" stroke-opacity="0.200000" d="M171.83,-180.68C182.02,-184.04 193.77,-187.91 204.45,-191.43"/>
<polygon fill="#000000" fill-opacity="0.200000" stroke="#000000" stroke-width="2" stroke-opacity="0.200000" points="203.89,-193.46 210.25,-193.34 205.21,-189.47 203.89,-193.46"/>
</g>
<!-- separated/average/src/init/log&#45;state.js&#45;&gt;lib/logger.js -->
<g id="edge16" class="edge">
<title>separated/average/src/init/log&#45;state.js&#45;&gt;lib/logger.js</title>
<path fill="none" stroke="#000000" stroke-width="2" stroke-opacity="0.200000" d="M172.1,-223.7C177.83,-220.51 183.28,-216.36 187.01,-211 202.38,-188.92 184.92,-175.94 195.01,-151 218.85,-92.08 224.54,-67.01 280.02,-36 309.76,-19.38 349.5,-18.58 376.98,-20.7"/>
<polygon fill="#000000" fill-opacity="0.200000" stroke="#000000" stroke-width="2" stroke-opacity="0.200000" points="376.83,-22.79 382.99,-21.22 377.2,-18.61 376.83,-22.79"/>
</g>
<!-- separated/average/src/init/log&#45;state.js&#45;&gt;separated/average/src/data.js -->
<g id="edge17" class="edge">
<title>separated/average/src/init/log&#45;state.js&#45;&gt;separated/average/src/data.js</title>
<path fill="none" stroke="#000000" stroke-width="2" stroke-opacity="0.200000" d="M174.14,-240.56C217.36,-250.55 301.19,-264.31 367.04,-241 378.32,-237.01 388.78,-228.55 396.44,-221.08"/>
<polygon fill="#000000" fill-opacity="0.200000" stroke="#000000" stroke-width="2" stroke-opacity="0.200000" points="398.13,-222.35 400.83,-216.6 395.13,-219.41 398.13,-222.35"/>
</g>
<!-- separated/average/src/init/ui&#45;values.js&#45;&gt;separated/average/src/data.js -->
<g id="edge18" class="edge">
<title>separated/average/src/init/ui&#45;values.js&#45;&gt;separated/average/src/data.js</title>
<path fill="none" stroke="#000000" stroke-width="2" stroke-opacity="0.200000" d="M175.11,-268.85C219.22,-274.67 303.76,-280.3 367.04,-251 380.75,-244.65 392.25,-231.66 399.73,-221.43"/>
<polygon fill="#000000" fill-opacity="0.200000" stroke="#000000" stroke-width="2" stroke-opacity="0.200000" points="401.54,-222.5 403.27,-216.38 398.1,-220.09 401.54,-222.5"/>
</g>
<!-- separated/average/src/logic/average.spec.js -->
<g id="node14" class="node">
<title>separated/average/src/logic/average.spec.js</title>
<g id="a_node14"><a xlink:href="separated/average/src/logic/average.spec.js" xlink:title="average.spec.js">
<path fill="#ffffcc" stroke="black" d="M360.84,-119.3C360.84,-119.3 294.21,-119.3 294.21,-119.3 291.11,-119.3 288.01,-116.2 288.01,-113.1 288.01,-113.1 288.01,-106.9 288.01,-106.9 288.01,-103.8 291.11,-100.7 294.21,-100.7 294.21,-100.7 360.84,-100.7 360.84,-100.7 363.95,-100.7 367.05,-103.8 367.05,-106.9 367.05,-106.9 367.05,-113.1 367.05,-113.1 367.05,-116.2 363.95,-119.3 360.84,-119.3"/>
<text text-anchor="middle" x="327.53" y="-107.3" font-family="Helvetica,sans-Serif" font-size="9.00">average.spec.js</text>
</a>
</g>
</g>
<!-- separated/average/src/logic/average.spec.js&#45;&gt;separated/average/src/logic/average.js -->
<g id="edge22" class="edge">
<title>separated/average/src/logic/average.spec.js&#45;&gt;separated/average/src/logic/average.js</title>
<path fill="none" stroke="#000000" stroke-width="2" stroke-opacity="0.200000" d="M367.37,-110C369.85,-110 372.33,-110 374.79,-110"/>
<polygon fill="#000000" fill-opacity="0.200000" stroke="#000000" stroke-width="2" stroke-opacity="0.200000" points="375.19,-112.1 381.19,-110 375.19,-107.9 375.19,-112.1"/>
</g>
</g>
</svg>
