<?xml version="1.0" encoding="UTF-8" standalone="no"?>
<!DOCTYPE svg PUBLIC "-//W3C//DTD SVG 1.1//EN"
 "http://www.w3.org/Graphics/SVG/1.1/DTD/svg11.dtd">
<!-- Generated by graphviz version 2.44.0 (20200408.0750)
 -->
<!-- Title: dependency&#45;cruiser output Pages: 1 -->
<svg width="153pt" height="306pt"
 viewBox="0.00 0.00 153.01 306.00" xmlns="http://www.w3.org/2000/svg" xmlns:xlink="http://www.w3.org/1999/xlink">
<g id="graph0" class="graph" transform="scale(1 1) rotate(0) translate(4 302)">
<title>dependency&#45;cruiser output</title>
<polygon fill="white" stroke="transparent" points="-4,4 -4,-302 149.01,-302 149.01,4 -4,4"/>
<g id="clust1" class="cluster">
<title>cluster_stepped</title>
<path fill="#ffffff" stroke="black" stroke-width="2" d="M20,-8C20,-8 125.01,-8 125.01,-8 131.01,-8 137.01,-14 137.01,-20 137.01,-20 137.01,-278 137.01,-278 137.01,-284 131.01,-290 125.01,-290 125.01,-290 20,-290 20,-290 14,-290 8,-284 8,-278 8,-278 8,-20 8,-20 8,-14 14,-8 20,-8"/>
<text text-anchor="middle" x="72.5" y="-277.9" font-family="Helvetica,sans-Serif" font-weight="bold" font-size="9.00">stepped</text>
</g>
<g id="clust2" class="cluster">
<title>cluster_stepped/madlibs&#45;separated</title>
<path fill="#ffffff" stroke="black" stroke-width="2" d="M28,-16C28,-16 117.01,-16 117.01,-16 123.01,-16 129.01,-22 129.01,-28 129.01,-28 129.01,-251 129.01,-251 129.01,-257 123.01,-263 117.01,-263 117.01,-263 28,-263 28,-263 22,-263 16,-257 16,-251 16,-251 16,-28 16,-28 16,-22 22,-16 28,-16"/>
<text text-anchor="middle" x="72.5" y="-250.9" font-family="Helvetica,sans-Serif" font-weight="bold" font-size="9.00">madlibs&#45;separated</text>
</g>
<g id="clust3" class="cluster">
<title>cluster_stepped/madlibs&#45;separated/2&#45;styles</title>
<path fill="#ffffff" stroke="black" stroke-width="2" d="M36,-24C36,-24 109.01,-24 109.01,-24 115.01,-24 121.01,-30 121.01,-36 121.01,-36 121.01,-224 121.01,-224 121.01,-230 115.01,-236 109.01,-236 109.01,-236 36,-236 36,-236 30,-236 24,-230 24,-224 24,-224 24,-36 24,-36 24,-30 30,-24 36,-24"/>
<text text-anchor="middle" x="72.5" y="-223.9" font-family="Helvetica,sans-Serif" font-weight="bold" font-size="9.00">2&#45;styles</text>
</g>
<g id="clust4" class="cluster">
<title>cluster_stepped/madlibs&#45;separated/2&#45;styles/src</title>
<path fill="#ffffff" stroke="black" stroke-width="2" d="M44,-32C44,-32 101.01,-32 101.01,-32 107.01,-32 113.01,-38 113.01,-44 113.01,-44 113.01,-197 113.01,-197 113.01,-203 107.01,-209 101.01,-209 101.01,-209 44,-209 44,-209 38,-209 32,-203 32,-197 32,-197 32,-44 32,-44 32,-38 38,-32 44,-32"/>
<text text-anchor="middle" x="72.5" y="-196.9" font-family="Helvetica,sans-Serif" font-weight="bold" font-size="9.00">src</text>
</g>
<!-- stepped/madlibs&#45;separated/2&#45;styles/src/handler.js -->
<g id="node1" class="node">
<title>stepped/madlibs&#45;separated/2&#45;styles/src/handler.js</title>
<g id="a_node1"><a xlink:href="stepped/madlibs-separated/2-styles/src/handler.js" xlink:title="handler.js">
<path fill="#ccffcc" stroke="black" d="M93.81,-182.3C93.81,-182.3 51.2,-182.3 51.2,-182.3 48.1,-182.3 45,-179.2 45,-176.1 45,-176.1 45,-169.9 45,-169.9 45,-166.8 48.1,-163.7 51.2,-163.7 51.2,-163.7 93.81,-163.7 93.81,-163.7 96.91,-163.7 100.01,-166.8 100.01,-169.9 100.01,-169.9 100.01,-176.1 100.01,-176.1 100.01,-179.2 96.91,-182.3 93.81,-182.3"/>
<text text-anchor="middle" x="72.5" y="-170.3" font-family="Helvetica,sans-Serif" font-size="9.00">handler.js</text>
</a>
</g>
</g>
<!-- stepped/madlibs&#45;separated/2&#45;styles/src/init.js -->
<g id="node2" class="node">
<title>stepped/madlibs&#45;separated/2&#45;styles/src/init.js</title>
<g id="a_node2"><a xlink:href="stepped/madlibs-separated/2-styles/src/init.js" xlink:title="init.js">
<path fill="#ccffcc" stroke="black" d="M93.3,-151.3C93.3,-151.3 51.7,-151.3 51.7,-151.3 48.6,-151.3 45.5,-148.2 45.5,-145.1 45.5,-145.1 45.5,-138.9 45.5,-138.9 45.5,-135.8 48.6,-132.7 51.7,-132.7 51.7,-132.7 93.3,-132.7 93.3,-132.7 96.4,-132.7 99.5,-135.8 99.5,-138.9 99.5,-138.9 99.5,-145.1 99.5,-145.1 99.5,-148.2 96.4,-151.3 93.3,-151.3"/>
<text text-anchor="middle" x="72.5" y="-139.3" font-family="Helvetica,sans-Serif" font-size="9.00">init.js</text>
</a>
</g>
</g>
<!-- stepped/madlibs&#45;separated/2&#45;styles/src/listener.js -->
<g id="node3" class="node">
<title>stepped/madlibs&#45;separated/2&#45;styles/src/listener.js</title>
<g id="a_node3"><a xlink:href="stepped/madlibs-separated/2-styles/src/listener.js" xlink:title="listener.js">
<path fill="#ccffcc" stroke="black" d="M93.3,-120.3C93.3,-120.3 51.7,-120.3 51.7,-120.3 48.6,-120.3 45.5,-117.2 45.5,-114.1 45.5,-114.1 45.5,-107.9 45.5,-107.9 45.5,-104.8 48.6,-101.7 51.7,-101.7 51.7,-101.7 93.3,-101.7 93.3,-101.7 96.4,-101.7 99.5,-104.8 99.5,-107.9 99.5,-107.9 99.5,-114.1 99.5,-114.1 99.5,-117.2 96.4,-120.3 93.3,-120.3"/>
<text text-anchor="middle" x="72.5" y="-108.3" font-family="Helvetica,sans-Serif" font-size="9.00">listener.js</text>
</a>
</g>
</g>
<!-- stepped/madlibs&#45;separated/2&#45;styles/src/logic.js -->
<g id="node4" class="node">
<title>stepped/madlibs&#45;separated/2&#45;styles/src/logic.js</title>
<g id="a_node4"><a xlink:href="stepped/madlibs-separated/2-styles/src/logic.js" xlink:title="logic.js">
<path fill="#ccffcc" stroke="black" d="M93.3,-89.3C93.3,-89.3 51.7,-89.3 51.7,-89.3 48.6,-89.3 45.5,-86.2 45.5,-83.1 45.5,-83.1 45.5,-76.9 45.5,-76.9 45.5,-73.8 48.6,-70.7 51.7,-70.7 51.7,-70.7 93.3,-70.7 93.3,-70.7 96.4,-70.7 99.5,-73.8 99.5,-76.9 99.5,-76.9 99.5,-83.1 99.5,-83.1 99.5,-86.2 96.4,-89.3 93.3,-89.3"/>
<text text-anchor="middle" x="72.5" y="-77.3" font-family="Helvetica,sans-Serif" font-size="9.00">logic.js</text>
</a>
</g>
</g>
<!-- stepped/madlibs&#45;separated/2&#45;styles/src/logic.spec.js -->
<g id="node5" class="node">
<title>stepped/madlibs&#45;separated/2&#45;styles/src/logic.spec.js</title>
<g id="a_node5"><a xlink:href="stepped/madlibs-separated/2-styles/src/logic.spec.js" xlink:title="logic.spec.js">
<path fill="#ccffcc" stroke="black" d="M98.81,-58.3C98.81,-58.3 46.2,-58.3 46.2,-58.3 43.1,-58.3 40,-55.2 40,-52.1 40,-52.1 40,-45.9 40,-45.9 40,-42.8 43.1,-39.7 46.2,-39.7 46.2,-39.7 98.81,-39.7 98.81,-39.7 101.91,-39.7 105.01,-42.8 105.01,-45.9 105.01,-45.9 105.01,-52.1 105.01,-52.1 105.01,-55.2 101.91,-58.3 98.81,-58.3"/>
<text text-anchor="middle" x="72.5" y="-46.3" font-family="Helvetica,sans-Serif" font-size="9.00">logic.spec.js</text>
</a>
</g>
</g>
</g>
</svg>
