<?xml version="1.0" encoding="UTF-8" standalone="no"?>
<!DOCTYPE svg PUBLIC "-//W3C//DTD SVG 1.1//EN"
 "http://www.w3.org/Graphics/SVG/1.1/DTD/svg11.dtd">
<!-- Generated by graphviz version 2.44.0 (20200408.0750)
 -->
<!-- Title: dependency&#45;cruiser output Pages: 1 -->
<svg width="315pt" height="178pt"
 viewBox="0.00 0.00 315.01 178.00" xmlns="http://www.w3.org/2000/svg" xmlns:xlink="http://www.w3.org/1999/xlink">
<g id="graph0" class="graph" transform="scale(1 1) rotate(0) translate(4 174)">
<title>dependency&#45;cruiser output</title>
<polygon fill="white" stroke="transparent" points="-4,4 -4,-174 311.01,-174 311.01,4 -4,4"/>
<g id="clust1" class="cluster">
<title>cluster_separated</title>
<path fill="#ffffff" stroke="black" stroke-width="2" d="M20,-8C20,-8 233.01,-8 233.01,-8 239.01,-8 245.01,-14 245.01,-20 245.01,-20 245.01,-150 245.01,-150 245.01,-156 239.01,-162 233.01,-162 233.01,-162 20,-162 20,-162 14,-162 8,-156 8,-150 8,-150 8,-20 8,-20 8,-14 14,-8 20,-8"/>
<text text-anchor="middle" x="126.5" y="-149.9" font-family="Helvetica,sans-Serif" font-weight="bold" font-size="9.00">separated</text>
</g>
<g id="clust2" class="cluster">
<title>cluster_separated/flip&#45;book</title>
<path fill="#ffffff" stroke="black" stroke-width="2" d="M28,-16C28,-16 225.01,-16 225.01,-16 231.01,-16 237.01,-22 237.01,-28 237.01,-28 237.01,-123 237.01,-123 237.01,-129 231.01,-135 225.01,-135 225.01,-135 28,-135 28,-135 22,-135 16,-129 16,-123 16,-123 16,-28 16,-28 16,-22 22,-16 28,-16"/>
<text text-anchor="middle" x="126.5" y="-122.9" font-family="Helvetica,sans-Serif" font-weight="bold" font-size="9.00">flip&#45;book</text>
</g>
<g id="clust3" class="cluster">
<title>cluster_separated/flip&#45;book/src</title>
<path fill="#ffffff" stroke="black" stroke-width="2" d="M36,-24C36,-24 217.01,-24 217.01,-24 223.01,-24 229.01,-30 229.01,-36 229.01,-36 229.01,-96 229.01,-96 229.01,-102 223.01,-108 217.01,-108 217.01,-108 36,-108 36,-108 30,-108 24,-102 24,-96 24,-96 24,-36 24,-36 24,-30 30,-24 36,-24"/>
<text text-anchor="middle" x="126.5" y="-95.9" font-family="Helvetica,sans-Serif" font-weight="bold" font-size="9.00">src</text>
</g>
<!-- ./utils.js -->
<g id="node1" class="node">
<title>./utils.js</title>
<path fill="#ffffcc" stroke="red" d="M300.81,-81.3C300.81,-81.3 259.21,-81.3 259.21,-81.3 256.11,-81.3 253.01,-78.2 253.01,-75.1 253.01,-75.1 253.01,-68.9 253.01,-68.9 253.01,-65.8 256.11,-62.7 259.21,-62.7 259.21,-62.7 300.81,-62.7 300.81,-62.7 303.91,-62.7 307.01,-65.8 307.01,-68.9 307.01,-68.9 307.01,-75.1 307.01,-75.1 307.01,-78.2 303.91,-81.3 300.81,-81.3"/>
<text text-anchor="middle" x="280.01" y="-69.3" font-family="Helvetica,sans-Serif" font-size="9.00" fill="red">utils.js</text>
</g>
<!-- separated/flip&#45;book/src/handler.js -->
<g id="node2" class="node">
<title>separated/flip&#45;book/src/handler.js</title>
<g id="a_node2"><a xlink:href="separated/flip-book/src/handler.js" xlink:title="handler.js">
<path fill="#ffffcc" stroke="black" d="M214.81,-81.3C214.81,-81.3 172.2,-81.3 172.2,-81.3 169.1,-81.3 166,-78.2 166,-75.1 166,-75.1 166,-68.9 166,-68.9 166,-65.8 169.1,-62.7 172.2,-62.7 172.2,-62.7 214.81,-62.7 214.81,-62.7 217.91,-62.7 221.01,-65.8 221.01,-68.9 221.01,-68.9 221.01,-75.1 221.01,-75.1 221.01,-78.2 217.91,-81.3 214.81,-81.3"/>
<text text-anchor="middle" x="193.5" y="-69.3" font-family="Helvetica,sans-Serif" font-size="9.00">handler.js</text>
</a>
</g>
</g>
<!-- separated/flip&#45;book/src/handler.js&#45;&gt;./utils.js -->
<g id="edge1" class="edge">
<title>separated/flip&#45;book/src/handler.js&#45;&gt;./utils.js</title>
<path fill="none" stroke="#000000" stroke-width="2" stroke-opacity="0.200000" d="M221.24,-72C229.26,-72 238.13,-72 246.48,-72"/>
<polygon fill="#000000" fill-opacity="0.200000" stroke="#000000" stroke-width="2" stroke-opacity="0.200000" points="246.73,-74.1 252.73,-72 246.73,-69.9 246.73,-74.1"/>
</g>
<!-- separated/flip&#45;book/src/init.js -->
<g id="node3" class="node">
<title>separated/flip&#45;book/src/init.js</title>
<g id="a_node3"><a xlink:href="separated/flip-book/src/init.js" xlink:title="init.js">
<path fill="#ffffcc" stroke="black" d="M79.8,-81.3C79.8,-81.3 38.2,-81.3 38.2,-81.3 35.1,-81.3 32,-78.2 32,-75.1 32,-75.1 32,-68.9 32,-68.9 32,-65.8 35.1,-62.7 38.2,-62.7 38.2,-62.7 79.8,-62.7 79.8,-62.7 82.9,-62.7 86,-65.8 86,-68.9 86,-68.9 86,-75.1 86,-75.1 86,-78.2 82.9,-81.3 79.8,-81.3"/>
<text text-anchor="middle" x="59" y="-69.3" font-family="Helvetica,sans-Serif" font-size="9.00">init.js</text>
</a>
</g>
</g>
<!-- separated/flip&#45;book/src/listener.js -->
<g id="node4" class="node">
<title>separated/flip&#45;book/src/listener.js</title>
<g id="a_node4"><a xlink:href="separated/flip-book/src/listener.js" xlink:title="listener.js">
<path fill="#ffffcc" stroke="black" d="M146.8,-81.3C146.8,-81.3 105.2,-81.3 105.2,-81.3 102.1,-81.3 99,-78.2 99,-75.1 99,-75.1 99,-68.9 99,-68.9 99,-65.8 102.1,-62.7 105.2,-62.7 105.2,-62.7 146.8,-62.7 146.8,-62.7 149.9,-62.7 153,-65.8 153,-68.9 153,-68.9 153,-75.1 153,-75.1 153,-78.2 149.9,-81.3 146.8,-81.3"/>
<text text-anchor="middle" x="126" y="-69.3" font-family="Helvetica,sans-Serif" font-size="9.00">listener.js</text>
</a>
</g>
</g>
<!-- separated/flip&#45;book/src/init.js&#45;&gt;separated/flip&#45;book/src/listener.js -->
<g id="edge2" class="edge">
<title>separated/flip&#45;book/src/init.js&#45;&gt;separated/flip&#45;book/src/listener.js</title>
<path fill="none" stroke="#000000" stroke-width="2" stroke-opacity="0.200000" d="M86.06,-72C88.32,-72 90.61,-72 92.9,-72"/>
<polygon fill="#000000" fill-opacity="0.200000" stroke="#000000" stroke-width="2" stroke-opacity="0.200000" points="92.93,-74.1 98.93,-72 92.93,-69.9 92.93,-74.1"/>
</g>
<!-- separated/flip&#45;book/src/listener.js&#45;&gt;separated/flip&#45;book/src/handler.js -->
<g id="edge3" class="edge">
<title>separated/flip&#45;book/src/listener.js&#45;&gt;separated/flip&#45;book/src/handler.js</title>
<path fill="none" stroke="#000000" stroke-width="2" stroke-opacity="0.200000" d="M153.27,-72C155.33,-72 157.43,-72 159.53,-72"/>
<polygon fill="#000000" fill-opacity="0.200000" stroke="#000000" stroke-width="2" stroke-opacity="0.200000" points="159.8,-74.1 165.8,-72 159.8,-69.9 159.8,-74.1"/>
</g>
<!-- separated/flip&#45;book/src/logic.js -->
<g id="node5" class="node">
<title>separated/flip&#45;book/src/logic.js</title>
<g id="a_node5"><a xlink:href="separated/flip-book/src/logic.js" xlink:title="logic.js">
<path fill="#ccffcc" stroke="black" d="M79.8,-50.3C79.8,-50.3 38.2,-50.3 38.2,-50.3 35.1,-50.3 32,-47.2 32,-44.1 32,-44.1 32,-37.9 32,-37.9 32,-34.8 35.1,-31.7 38.2,-31.7 38.2,-31.7 79.8,-31.7 79.8,-31.7 82.9,-31.7 86,-34.8 86,-37.9 86,-37.9 86,-44.1 86,-44.1 86,-47.2 82.9,-50.3 79.8,-50.3"/>
<text text-anchor="middle" x="59" y="-38.3" font-family="Helvetica,sans-Serif" font-size="9.00">logic.js</text>
</a>
</g>
</g>
</g>
</svg>
