<?xml version="1.0" encoding="UTF-8" standalone="no"?>
<!DOCTYPE svg PUBLIC "-//W3C//DTD SVG 1.1//EN"
 "http://www.w3.org/Graphics/SVG/1.1/DTD/svg11.dtd">
<!-- Generated by graphviz version 2.44.0 (20200408.0750)
 -->
<!-- Title: dependency&#45;cruiser output Pages: 1 -->
<svg width="453pt" height="270pt"
 viewBox="0.00 0.00 453.00 270.00" xmlns="http://www.w3.org/2000/svg" xmlns:xlink="http://www.w3.org/1999/xlink">
<g id="graph0" class="graph" transform="scale(1 1) rotate(0) translate(4 266)">
<title>dependency&#45;cruiser output</title>
<polygon fill="white" stroke="transparent" points="-4,4 -4,-266 449,-266 449,4 -4,4"/>
<g id="clust1" class="cluster">
<title>cluster_function&#45;roles</title>
<path fill="#ffffff" stroke="black" stroke-width="2" d="M20,-8C20,-8 425,-8 425,-8 431,-8 437,-14 437,-20 437,-20 437,-242 437,-242 437,-248 431,-254 425,-254 425,-254 20,-254 20,-254 14,-254 8,-248 8,-242 8,-242 8,-20 8,-20 8,-14 14,-8 20,-8"/>
<text text-anchor="middle" x="222.5" y="-241.9" font-family="Helvetica,sans-Serif" font-weight="bold" font-size="9.00">function&#45;roles</text>
</g>
<g id="clust2" class="cluster">
<title>cluster_function&#45;roles/3&#45;utils</title>
<path fill="#ffffff" stroke="black" stroke-width="2" d="M28,-16C28,-16 417,-16 417,-16 423,-16 429,-22 429,-28 429,-28 429,-189 429,-189 429,-195 423,-201 417,-201 417,-201 28,-201 28,-201 22,-201 16,-195 16,-189 16,-189 16,-28 16,-28 16,-22 22,-16 28,-16"/>
<text text-anchor="middle" x="222.5" y="-188.9" font-family="Helvetica,sans-Serif" font-weight="bold" font-size="9.00">3&#45;utils</text>
</g>
<g id="clust3" class="cluster">
<title>cluster_function&#45;roles/3&#45;utils/src</title>
<path fill="#ffffff" stroke="black" stroke-width="2" d="M36,-24C36,-24 409,-24 409,-24 415,-24 421,-30 421,-36 421,-36 421,-162 421,-162 421,-168 415,-174 409,-174 409,-174 36,-174 36,-174 30,-174 24,-168 24,-162 24,-162 24,-36 24,-36 24,-30 30,-24 36,-24"/>
<text text-anchor="middle" x="222.5" y="-161.9" font-family="Helvetica,sans-Serif" font-weight="bold" font-size="9.00">src</text>
</g>
<g id="clust4" class="cluster">
<title>cluster_function&#45;roles/3&#45;utils/src/handlers</title>
<path fill="#ffffff" stroke="black" stroke-width="2" d="M218.5,-32C218.5,-32 299,-32 299,-32 305,-32 311,-38 311,-44 311,-44 311,-135 311,-135 311,-141 305,-147 299,-147 299,-147 218.5,-147 218.5,-147 212.5,-147 206.5,-141 206.5,-135 206.5,-135 206.5,-44 206.5,-44 206.5,-38 212.5,-32 218.5,-32"/>
<text text-anchor="middle" x="258.75" y="-134.9" font-family="Helvetica,sans-Serif" font-weight="bold" font-size="9.00">handlers</text>
</g>
<g id="clust5" class="cluster">
<title>cluster_function&#45;roles/3&#45;utils/src/listeners</title>
<path fill="#ffffff" stroke="black" stroke-width="2" d="M106,-32C106,-32 186.5,-32 186.5,-32 192.5,-32 198.5,-38 198.5,-44 198.5,-44 198.5,-135 198.5,-135 198.5,-141 192.5,-147 186.5,-147 186.5,-147 106,-147 106,-147 100,-147 94,-141 94,-135 94,-135 94,-44 94,-44 94,-38 100,-32 106,-32"/>
<text text-anchor="middle" x="146.25" y="-134.9" font-family="Helvetica,sans-Serif" font-weight="bold" font-size="9.00">listeners</text>
</g>
<g id="clust6" class="cluster">
<title>cluster_function&#45;roles/3&#45;utils/src/utils</title>
<path fill="#ffffff" stroke="black" stroke-width="2" d="M331,-63C331,-63 401,-63 401,-63 407,-63 413,-69 413,-75 413,-75 413,-104 413,-104 413,-110 407,-116 401,-116 401,-116 331,-116 331,-116 325,-116 319,-110 319,-104 319,-104 319,-75 319,-75 319,-69 325,-63 331,-63"/>
<text text-anchor="middle" x="366" y="-103.9" font-family="Helvetica,sans-Serif" font-weight="bold" font-size="9.00">utils</text>
</g>
<!-- function&#45;roles/3&#45;utils/src/handlers/add&#45;number.js -->
<g id="node1" class="node">
<title>function&#45;roles/3&#45;utils/src/handlers/add&#45;number.js</title>
<g id="a_node1"><a xlink:href="function-roles/3-utils/src/handlers/add-number.js" xlink:title="add&#45;number.js">
<path fill="#ffffcc" stroke="black" d="M289.06,-120.3C289.06,-120.3 228.44,-120.3 228.44,-120.3 225.34,-120.3 222.24,-117.2 222.24,-114.1 222.24,-114.1 222.24,-107.9 222.24,-107.9 222.24,-104.8 225.34,-101.7 228.44,-101.7 228.44,-101.7 289.06,-101.7 289.06,-101.7 292.16,-101.7 295.26,-104.8 295.26,-107.9 295.26,-107.9 295.26,-114.1 295.26,-114.1 295.26,-117.2 292.16,-120.3 289.06,-120.3"/>
<text text-anchor="middle" x="258.75" y="-108.3" font-family="Helvetica,sans-Serif" font-size="9.00">add&#45;number.js</text>
</a>
</g>
</g>
<!-- function&#45;roles/data.js -->
<g id="node2" class="node">
<title>function&#45;roles/data.js</title>
<g id="a_node2"><a xlink:href="function-roles/data.js" xlink:title="data.js">
<path fill="#ffffcc" stroke="black" d="M386.8,-227.3C386.8,-227.3 345.2,-227.3 345.2,-227.3 342.1,-227.3 339,-224.2 339,-221.1 339,-221.1 339,-214.9 339,-214.9 339,-211.8 342.1,-208.7 345.2,-208.7 345.2,-208.7 386.8,-208.7 386.8,-208.7 389.9,-208.7 393,-211.8 393,-214.9 393,-214.9 393,-221.1 393,-221.1 393,-224.2 389.9,-227.3 386.8,-227.3"/>
<text text-anchor="middle" x="366" y="-215.3" font-family="Helvetica,sans-Serif" font-size="9.00">data.js</text>
</a>
</g>
</g>
<!-- function&#45;roles/3&#45;utils/src/handlers/add&#45;number.js&#45;&gt;function&#45;roles/data.js -->
<g id="edge1" class="edge">
<title>function&#45;roles/3&#45;utils/src/handlers/add&#45;number.js&#45;&gt;function&#45;roles/data.js</title>
<path fill="none" stroke="#000000" stroke-width="2" stroke-opacity="0.200000" d="M269.09,-120.5C287.78,-139.5 329.86,-182.27 351.53,-204.31"/>
<polygon fill="#000000" fill-opacity="0.200000" stroke="#000000" stroke-width="2" stroke-opacity="0.200000" points="350.13,-205.87 355.83,-208.68 353.12,-202.93 350.13,-205.87"/>
</g>
<!-- function&#45;roles/3&#45;utils/src/utils/sort&#45;numbers.js -->
<g id="node3" class="node">
<title>function&#45;roles/3&#45;utils/src/utils/sort&#45;numbers.js</title>
<g id="a_node3"><a xlink:href="function-roles/3-utils/src/utils/sort-numbers.js" xlink:title="sort&#45;numbers.js">
<path fill="#ffffcc" stroke="black" d="M398.8,-89.3C398.8,-89.3 333.2,-89.3 333.2,-89.3 330.1,-89.3 327,-86.2 327,-83.1 327,-83.1 327,-76.9 327,-76.9 327,-73.8 330.1,-70.7 333.2,-70.7 333.2,-70.7 398.8,-70.7 398.8,-70.7 401.9,-70.7 405,-73.8 405,-76.9 405,-76.9 405,-83.1 405,-83.1 405,-86.2 401.9,-89.3 398.8,-89.3"/>
<text text-anchor="middle" x="366" y="-77.3" font-family="Helvetica,sans-Serif" font-size="9.00">sort&#45;numbers.js</text>
</a>
</g>
</g>
<!-- function&#45;roles/3&#45;utils/src/handlers/add&#45;number.js&#45;&gt;function&#45;roles/3&#45;utils/src/utils/sort&#45;numbers.js -->
<g id="edge2" class="edge">
<title>function&#45;roles/3&#45;utils/src/handlers/add&#45;number.js&#45;&gt;function&#45;roles/3&#45;utils/src/utils/sort&#45;numbers.js</title>
<path fill="none" stroke="#000000" stroke-width="2" stroke-opacity="0.200000" d="M290.16,-101.64C299.41,-98.82 309.61,-95.75 319,-93 321.12,-92.38 323.29,-91.75 325.48,-91.11"/>
<polygon fill="#000000" fill-opacity="0.200000" stroke="#000000" stroke-width="2" stroke-opacity="0.200000" points="326.13,-93.11 331.31,-89.44 324.97,-89.08 326.13,-93.11"/>
</g>
<!-- function&#45;roles/3&#45;utils/src/handlers/load.js -->
<g id="node4" class="node">
<title>function&#45;roles/3&#45;utils/src/handlers/load.js</title>
<g id="a_node4"><a xlink:href="function-roles/3-utils/src/handlers/load.js" xlink:title="load.js">
<path fill="#ffffcc" stroke="black" d="M279.55,-89.3C279.55,-89.3 237.95,-89.3 237.95,-89.3 234.85,-89.3 231.75,-86.2 231.75,-83.1 231.75,-83.1 231.75,-76.9 231.75,-76.9 231.75,-73.8 234.85,-70.7 237.95,-70.7 237.95,-70.7 279.55,-70.7 279.55,-70.7 282.65,-70.7 285.75,-73.8 285.75,-76.9 285.75,-76.9 285.75,-83.1 285.75,-83.1 285.75,-86.2 282.65,-89.3 279.55,-89.3"/>
<text text-anchor="middle" x="258.75" y="-77.3" font-family="Helvetica,sans-Serif" font-size="9.00">load.js</text>
</a>
</g>
</g>
<!-- function&#45;roles/3&#45;utils/src/handlers/remove&#45;number.js -->
<g id="node5" class="node">
<title>function&#45;roles/3&#45;utils/src/handlers/remove&#45;number.js</title>
<g id="a_node5"><a xlink:href="function-roles/3-utils/src/handlers/remove-number.js" xlink:title="remove&#45;number.js">
<path fill="#ffffcc" stroke="black" d="M296.55,-58.3C296.55,-58.3 220.95,-58.3 220.95,-58.3 217.85,-58.3 214.75,-55.2 214.75,-52.1 214.75,-52.1 214.75,-45.9 214.75,-45.9 214.75,-42.8 217.85,-39.7 220.95,-39.7 220.95,-39.7 296.55,-39.7 296.55,-39.7 299.65,-39.7 302.75,-42.8 302.75,-45.9 302.75,-45.9 302.75,-52.1 302.75,-52.1 302.75,-55.2 299.65,-58.3 296.55,-58.3"/>
<text text-anchor="middle" x="258.75" y="-46.3" font-family="Helvetica,sans-Serif" font-size="9.00">remove&#45;number.js</text>
</a>
</g>
</g>
<!-- function&#45;roles/3&#45;utils/src/handlers/remove&#45;number.js&#45;&gt;function&#45;roles/data.js -->
<g id="edge3" class="edge">
<title>function&#45;roles/3&#45;utils/src/handlers/remove&#45;number.js&#45;&gt;function&#45;roles/data.js</title>
<path fill="none" stroke="#000000" stroke-width="2" stroke-opacity="0.200000" d="M302.94,-58.19C305.95,-60.06 308.7,-62.31 311,-65 326.77,-83.44 312.04,-95.76 319,-119 328.36,-150.26 345.94,-184.26 356.45,-203.17"/>
<polygon fill="#000000" fill-opacity="0.200000" stroke="#000000" stroke-width="2" stroke-opacity="0.200000" points="354.69,-204.33 359.46,-208.53 358.35,-202.27 354.69,-204.33"/>
</g>
<!-- function&#45;roles/3&#45;utils/src/handlers/remove&#45;number.js&#45;&gt;function&#45;roles/3&#45;utils/src/utils/sort&#45;numbers.js -->
<g id="edge4" class="edge">
<title>function&#45;roles/3&#45;utils/src/handlers/remove&#45;number.js&#45;&gt;function&#45;roles/3&#45;utils/src/utils/sort&#45;numbers.js</title>
<path fill="none" stroke="#000000" stroke-width="2" stroke-opacity="0.200000" d="M291.61,-58.39C302.85,-61.69 315.58,-65.44 327.25,-68.88"/>
<polygon fill="#000000" fill-opacity="0.200000" stroke="#000000" stroke-width="2" stroke-opacity="0.200000" points="326.9,-70.97 333.24,-70.65 328.08,-66.94 326.9,-70.97"/>
</g>
<!-- function&#45;roles/3&#45;utils/src/init.js -->
<g id="node6" class="node">
<title>function&#45;roles/3&#45;utils/src/init.js</title>
<g id="a_node6"><a xlink:href="function-roles/3-utils/src/init.js" xlink:title="init.js">
<path fill="#ffffcc" stroke="black" d="M79.8,-89.3C79.8,-89.3 38.2,-89.3 38.2,-89.3 35.1,-89.3 32,-86.2 32,-83.1 32,-83.1 32,-76.9 32,-76.9 32,-73.8 35.1,-70.7 38.2,-70.7 38.2,-70.7 79.8,-70.7 79.8,-70.7 82.9,-70.7 86,-73.8 86,-76.9 86,-76.9 86,-83.1 86,-83.1 86,-86.2 82.9,-89.3 79.8,-89.3"/>
<text text-anchor="middle" x="59" y="-77.3" font-family="Helvetica,sans-Serif" font-size="9.00">init.js</text>
</a>
</g>
</g>
<!-- function&#45;roles/3&#45;utils/src/listeners/add&#45;number.js -->
<g id="node7" class="node">
<title>function&#45;roles/3&#45;utils/src/listeners/add&#45;number.js</title>
<g id="a_node7"><a xlink:href="function-roles/3-utils/src/listeners/add-number.js" xlink:title="add&#45;number.js">
<path fill="#ffffcc" stroke="black" d="M176.56,-120.3C176.56,-120.3 115.94,-120.3 115.94,-120.3 112.84,-120.3 109.74,-117.2 109.74,-114.1 109.74,-114.1 109.74,-107.9 109.74,-107.9 109.74,-104.8 112.84,-101.7 115.94,-101.7 115.94,-101.7 176.56,-101.7 176.56,-101.7 179.66,-101.7 182.76,-104.8 182.76,-107.9 182.76,-107.9 182.76,-114.1 182.76,-114.1 182.76,-117.2 179.66,-120.3 176.56,-120.3"/>
<text text-anchor="middle" x="146.25" y="-108.3" font-family="Helvetica,sans-Serif" font-size="9.00">add&#45;number.js</text>
</a>
</g>
</g>
<!-- function&#45;roles/3&#45;utils/src/init.js&#45;&gt;function&#45;roles/3&#45;utils/src/listeners/add&#45;number.js -->
<g id="edge5" class="edge">
<title>function&#45;roles/3&#45;utils/src/init.js&#45;&gt;function&#45;roles/3&#45;utils/src/listeners/add&#45;number.js</title>
<path fill="none" stroke="#000000" stroke-width="2" stroke-opacity="0.200000" d="M80.34,-89.42C84.8,-91.36 89.53,-93.32 94,-95 98.36,-96.64 102.96,-98.24 107.56,-99.77"/>
<polygon fill="#000000" fill-opacity="0.200000" stroke="#000000" stroke-width="2" stroke-opacity="0.200000" points="106.99,-101.79 113.35,-101.65 108.29,-97.8 106.99,-101.79"/>
</g>
<!-- function&#45;roles/3&#45;utils/src/listeners/load.js -->
<g id="node8" class="node">
<title>function&#45;roles/3&#45;utils/src/listeners/load.js</title>
<g id="a_node8"><a xlink:href="function-roles/3-utils/src/listeners/load.js" xlink:title="load.js">
<path fill="#ffffcc" stroke="black" d="M167.05,-89.3C167.05,-89.3 125.45,-89.3 125.45,-89.3 122.35,-89.3 119.25,-86.2 119.25,-83.1 119.25,-83.1 119.25,-76.9 119.25,-76.9 119.25,-73.8 122.35,-70.7 125.45,-70.7 125.45,-70.7 167.05,-70.7 167.05,-70.7 170.15,-70.7 173.25,-73.8 173.25,-76.9 173.25,-76.9 173.25,-83.1 173.25,-83.1 173.25,-86.2 170.15,-89.3 167.05,-89.3"/>
<text text-anchor="middle" x="146.25" y="-77.3" font-family="Helvetica,sans-Serif" font-size="9.00">load.js</text>
</a>
</g>
</g>
<!-- function&#45;roles/3&#45;utils/src/init.js&#45;&gt;function&#45;roles/3&#45;utils/src/listeners/load.js -->
<g id="edge6" class="edge">
<title>function&#45;roles/3&#45;utils/src/init.js&#45;&gt;function&#45;roles/3&#45;utils/src/listeners/load.js</title>
<path fill="none" stroke="#000000" stroke-width="2" stroke-opacity="0.200000" d="M86.04,-80C94.56,-80 104.11,-80 113.03,-80"/>
<polygon fill="#000000" fill-opacity="0.200000" stroke="#000000" stroke-width="2" stroke-opacity="0.200000" points="113.07,-82.1 119.07,-80 113.07,-77.9 113.07,-82.1"/>
</g>
<!-- function&#45;roles/3&#45;utils/src/listeners/remove&#45;number.js -->
<g id="node9" class="node">
<title>function&#45;roles/3&#45;utils/src/listeners/remove&#45;number.js</title>
<g id="a_node9"><a xlink:href="function-roles/3-utils/src/listeners/remove-number.js" xlink:title="remove&#45;number.js">
<path fill="#ffffcc" stroke="black" d="M184.05,-58.3C184.05,-58.3 108.45,-58.3 108.45,-58.3 105.35,-58.3 102.25,-55.2 102.25,-52.1 102.25,-52.1 102.25,-45.9 102.25,-45.9 102.25,-42.8 105.35,-39.7 108.45,-39.7 108.45,-39.7 184.05,-39.7 184.05,-39.7 187.15,-39.7 190.25,-42.8 190.25,-45.9 190.25,-45.9 190.25,-52.1 190.25,-52.1 190.25,-55.2 187.15,-58.3 184.05,-58.3"/>
<text text-anchor="middle" x="146.25" y="-46.3" font-family="Helvetica,sans-Serif" font-size="9.00">remove&#45;number.js</text>
</a>
</g>
</g>
<!-- function&#45;roles/3&#45;utils/src/init.js&#45;&gt;function&#45;roles/3&#45;utils/src/listeners/remove&#45;number.js -->
<g id="edge7" class="edge">
<title>function&#45;roles/3&#45;utils/src/init.js&#45;&gt;function&#45;roles/3&#45;utils/src/listeners/remove&#45;number.js</title>
<path fill="none" stroke="#000000" stroke-width="2" stroke-opacity="0.200000" d="M80.34,-70.58C84.8,-68.64 89.53,-66.68 94,-65 98.36,-63.36 102.96,-61.76 107.56,-60.23"/>
<polygon fill="#000000" fill-opacity="0.200000" stroke="#000000" stroke-width="2" stroke-opacity="0.200000" points="108.29,-62.2 113.35,-58.35 106.99,-58.21 108.29,-62.2"/>
</g>
<!-- function&#45;roles/3&#45;utils/src/listeners/add&#45;number.js&#45;&gt;function&#45;roles/3&#45;utils/src/handlers/add&#45;number.js -->
<g id="edge8" class="edge">
<title>function&#45;roles/3&#45;utils/src/listeners/add&#45;number.js&#45;&gt;function&#45;roles/3&#45;utils/src/handlers/add&#45;number.js</title>
<path fill="none" stroke="#000000" stroke-width="2" stroke-opacity="0.200000" d="M182.82,-111C193.26,-111 204.79,-111 215.6,-111"/>
<polygon fill="#000000" fill-opacity="0.200000" stroke="#000000" stroke-width="2" stroke-opacity="0.200000" points="215.87,-113.1 221.87,-111 215.87,-108.9 215.87,-113.1"/>
</g>
<!-- function&#45;roles/3&#45;utils/src/listeners/load.js&#45;&gt;function&#45;roles/3&#45;utils/src/handlers/load.js -->
<g id="edge9" class="edge">
<title>function&#45;roles/3&#45;utils/src/listeners/load.js&#45;&gt;function&#45;roles/3&#45;utils/src/handlers/load.js</title>
<path fill="none" stroke="#000000" stroke-width="2" stroke-opacity="0.200000" d="M173.44,-80C188.88,-80 208.54,-80 225,-80"/>
<polygon fill="#000000" fill-opacity="0.200000" stroke="#000000" stroke-width="2" stroke-opacity="0.200000" points="225.37,-82.1 231.37,-80 225.37,-77.9 225.37,-82.1"/>
</g>
<!-- function&#45;roles/3&#45;utils/src/listeners/remove&#45;number.js&#45;&gt;function&#45;roles/3&#45;utils/src/handlers/remove&#45;number.js -->
<g id="edge10" class="edge">
<title>function&#45;roles/3&#45;utils/src/listeners/remove&#45;number.js&#45;&gt;function&#45;roles/3&#45;utils/src/handlers/remove&#45;number.js</title>
<path fill="none" stroke="#000000" stroke-width="2" stroke-opacity="0.200000" d="M190.29,-49C196.29,-49 202.49,-49 208.59,-49"/>
<polygon fill="#000000" fill-opacity="0.200000" stroke="#000000" stroke-width="2" stroke-opacity="0.200000" points="208.65,-51.1 214.65,-49 208.65,-46.9 208.65,-51.1"/>
</g>
</g>
</svg>
