<?xml version="1.0" encoding="UTF-8" standalone="no"?>
<!DOCTYPE svg PUBLIC "-//W3C//DTD SVG 1.1//EN"
 "http://www.w3.org/Graphics/SVG/1.1/DTD/svg11.dtd">
<!-- Generated by graphviz version 2.44.0 (20200408.0750)
 -->
<!-- Title: dependency&#45;cruiser output Pages: 1 -->
<svg width="453pt" height="300pt"
 viewBox="0.00 0.00 453.01 300.00" xmlns="http://www.w3.org/2000/svg" xmlns:xlink="http://www.w3.org/1999/xlink">
<g id="graph0" class="graph" transform="scale(1 1) rotate(0) translate(4 296)">
<title>dependency&#45;cruiser output</title>
<polygon fill="white" stroke="transparent" points="-4,4 -4,-296 449.01,-296 449.01,4 -4,4"/>
<g id="clust1" class="cluster">
<title>cluster_function&#45;roles</title>
<path fill="#ffffff" stroke="black" stroke-width="2" d="M20,-8C20,-8 425.01,-8 425.01,-8 431.01,-8 437.01,-14 437.01,-20 437.01,-20 437.01,-272 437.01,-272 437.01,-278 431.01,-284 425.01,-284 425.01,-284 20,-284 20,-284 14,-284 8,-278 8,-272 8,-272 8,-20 8,-20 8,-14 14,-8 20,-8"/>
<text text-anchor="middle" x="222.5" y="-271.9" font-family="Helvetica,sans-Serif" font-weight="bold" font-size="9.00">function&#45;roles</text>
</g>
<g id="clust2" class="cluster">
<title>cluster_function&#45;roles/4&#45;components</title>
<path fill="#ffffff" stroke="black" stroke-width="2" d="M28,-16C28,-16 417.01,-16 417.01,-16 423.01,-16 429.01,-22 429.01,-28 429.01,-28 429.01,-219 429.01,-219 429.01,-225 423.01,-231 417.01,-231 417.01,-231 28,-231 28,-231 22,-231 16,-225 16,-219 16,-219 16,-28 16,-28 16,-22 22,-16 28,-16"/>
<text text-anchor="middle" x="222.5" y="-218.9" font-family="Helvetica,sans-Serif" font-weight="bold" font-size="9.00">4&#45;components</text>
</g>
<g id="clust3" class="cluster">
<title>cluster_function&#45;roles/4&#45;components/src</title>
<path fill="#ffffff" stroke="black" stroke-width="2" d="M36,-24C36,-24 409.01,-24 409.01,-24 415.01,-24 421.01,-30 421.01,-36 421.01,-36 421.01,-192 421.01,-192 421.01,-198 415.01,-204 409.01,-204 409.01,-204 36,-204 36,-204 30,-204 24,-198 24,-192 24,-192 24,-36 24,-36 24,-30 30,-24 36,-24"/>
<text text-anchor="middle" x="222.5" y="-191.9" font-family="Helvetica,sans-Serif" font-weight="bold" font-size="9.00">src</text>
</g>
<g id="clust4" class="cluster">
<title>cluster_function&#45;roles/4&#45;components/src/components</title>
<path fill="#ffffff" stroke="black" stroke-width="2" d="M331,-32C331,-32 401.01,-32 401.01,-32 407.01,-32 413.01,-38 413.01,-44 413.01,-44 413.01,-104 413.01,-104 413.01,-110 407.01,-116 401.01,-116 401.01,-116 331,-116 331,-116 325,-116 319,-110 319,-104 319,-104 319,-44 319,-44 319,-38 325,-32 331,-32"/>
<text text-anchor="middle" x="366" y="-103.9" font-family="Helvetica,sans-Serif" font-weight="bold" font-size="9.00">components</text>
</g>
<g id="clust5" class="cluster">
<title>cluster_function&#45;roles/4&#45;components/src/handlers</title>
<path fill="#ffffff" stroke="black" stroke-width="2" d="M218.5,-62C218.5,-62 299,-62 299,-62 305,-62 311,-68 311,-74 311,-74 311,-165 311,-165 311,-171 305,-177 299,-177 299,-177 218.5,-177 218.5,-177 212.5,-177 206.5,-171 206.5,-165 206.5,-165 206.5,-74 206.5,-74 206.5,-68 212.5,-62 218.5,-62"/>
<text text-anchor="middle" x="258.75" y="-164.9" font-family="Helvetica,sans-Serif" font-weight="bold" font-size="9.00">handlers</text>
</g>
<g id="clust6" class="cluster">
<title>cluster_function&#45;roles/4&#45;components/src/listeners</title>
<path fill="#ffffff" stroke="black" stroke-width="2" d="M106,-62C106,-62 186.5,-62 186.5,-62 192.5,-62 198.5,-68 198.5,-74 198.5,-74 198.5,-165 198.5,-165 198.5,-171 192.5,-177 186.5,-177 186.5,-177 106,-177 106,-177 100,-177 94,-171 94,-165 94,-165 94,-74 94,-74 94,-68 100,-62 106,-62"/>
<text text-anchor="middle" x="146.25" y="-164.9" font-family="Helvetica,sans-Serif" font-weight="bold" font-size="9.00">listeners</text>
</g>
<g id="clust7" class="cluster">
<title>cluster_function&#45;roles/4&#45;components/src/utils</title>
<path fill="#ffffff" stroke="black" stroke-width="2" d="M331,-124C331,-124 401,-124 401,-124 407,-124 413,-130 413,-136 413,-136 413,-165 413,-165 413,-171 407,-177 401,-177 401,-177 331,-177 331,-177 325,-177 319,-171 319,-165 319,-165 319,-136 319,-136 319,-130 325,-124 331,-124"/>
<text text-anchor="middle" x="366" y="-164.9" font-family="Helvetica,sans-Serif" font-weight="bold" font-size="9.00">utils</text>
</g>
<!-- function&#45;roles/4&#45;components/src/components/list.js -->
<g id="node1" class="node">
<title>function&#45;roles/4&#45;components/src/components/list.js</title>
<g id="a_node1"><a xlink:href="function-roles/4-components/src/components/list.js" xlink:title="list.js">
<path fill="#ffffcc" stroke="black" d="M386.8,-89.3C386.8,-89.3 345.2,-89.3 345.2,-89.3 342.1,-89.3 339,-86.2 339,-83.1 339,-83.1 339,-76.9 339,-76.9 339,-73.8 342.1,-70.7 345.2,-70.7 345.2,-70.7 386.8,-70.7 386.8,-70.7 389.9,-70.7 393,-73.8 393,-76.9 393,-76.9 393,-83.1 393,-83.1 393,-86.2 389.9,-89.3 386.8,-89.3"/>
<text text-anchor="middle" x="366" y="-77.3" font-family="Helvetica,sans-Serif" font-size="9.00">list.js</text>
</a>
</g>
</g>
<!-- function&#45;roles/4&#45;components/src/components/number&#45;input.js -->
<g id="node2" class="node">
<title>function&#45;roles/4&#45;components/src/components/number&#45;input.js</title>
<g id="a_node2"><a xlink:href="function-roles/4-components/src/components/number-input.js" xlink:title="number&#45;input.js">
<path fill="#ffffcc" stroke="black" d="M398.81,-58.3C398.81,-58.3 333.2,-58.3 333.2,-58.3 330.1,-58.3 327,-55.2 327,-52.1 327,-52.1 327,-45.9 327,-45.9 327,-42.8 330.1,-39.7 333.2,-39.7 333.2,-39.7 398.81,-39.7 398.81,-39.7 401.91,-39.7 405.01,-42.8 405.01,-45.9 405.01,-45.9 405.01,-52.1 405.01,-52.1 405.01,-55.2 401.91,-58.3 398.81,-58.3"/>
<text text-anchor="middle" x="366" y="-46.3" font-family="Helvetica,sans-Serif" font-size="9.00">number&#45;input.js</text>
</a>
</g>
</g>
<!-- function&#45;roles/4&#45;components/src/handlers/add&#45;number.js -->
<g id="node3" class="node">
<title>function&#45;roles/4&#45;components/src/handlers/add&#45;number.js</title>
<g id="a_node3"><a xlink:href="function-roles/4-components/src/handlers/add-number.js" xlink:title="add&#45;number.js">
<path fill="#ffffcc" stroke="black" d="M289.06,-119.3C289.06,-119.3 228.44,-119.3 228.44,-119.3 225.34,-119.3 222.24,-116.2 222.24,-113.1 222.24,-113.1 222.24,-106.9 222.24,-106.9 222.24,-103.8 225.34,-100.7 228.44,-100.7 228.44,-100.7 289.06,-100.7 289.06,-100.7 292.16,-100.7 295.26,-103.8 295.26,-106.9 295.26,-106.9 295.26,-113.1 295.26,-113.1 295.26,-116.2 292.16,-119.3 289.06,-119.3"/>
<text text-anchor="middle" x="258.75" y="-107.3" font-family="Helvetica,sans-Serif" font-size="9.00">add&#45;number.js</text>
</a>
</g>
</g>
<!-- function&#45;roles/4&#45;components/src/handlers/add&#45;number.js&#45;&gt;function&#45;roles/4&#45;components/src/components/list.js -->
<g id="edge2" class="edge">
<title>function&#45;roles/4&#45;components/src/handlers/add&#45;number.js&#45;&gt;function&#45;roles/4&#45;components/src/components/list.js</title>
<path fill="none" stroke="#000000" stroke-width="2" stroke-opacity="0.200000" d="M292.48,-100.67C305.34,-97.01 320.06,-92.81 332.86,-89.16"/>
<polygon fill="#000000" fill-opacity="0.200000" stroke="#000000" stroke-width="2" stroke-opacity="0.200000" points="333.78,-91.08 338.98,-87.42 332.63,-87.04 333.78,-91.08"/>
</g>
<!-- function&#45;roles/data.js -->
<g id="node4" class="node">
<title>function&#45;roles/data.js</title>
<g id="a_node4"><a xlink:href="function-roles/data.js" xlink:title="data.js">
<path fill="#ffffcc" stroke="black" d="M386.8,-257.3C386.8,-257.3 345.2,-257.3 345.2,-257.3 342.1,-257.3 339,-254.2 339,-251.1 339,-251.1 339,-244.9 339,-244.9 339,-241.8 342.1,-238.7 345.2,-238.7 345.2,-238.7 386.8,-238.7 386.8,-238.7 389.9,-238.7 393,-241.8 393,-244.9 393,-244.9 393,-251.1 393,-251.1 393,-254.2 389.9,-257.3 386.8,-257.3"/>
<text text-anchor="middle" x="366" y="-245.3" font-family="Helvetica,sans-Serif" font-size="9.00">data.js</text>
</a>
</g>
</g>
<!-- function&#45;roles/4&#45;components/src/handlers/add&#45;number.js&#45;&gt;function&#45;roles/data.js -->
<g id="edge1" class="edge">
<title>function&#45;roles/4&#45;components/src/handlers/add&#45;number.js&#45;&gt;function&#45;roles/data.js</title>
<path fill="none" stroke="#000000" stroke-width="2" stroke-opacity="0.200000" d="M295.41,-115.42C301.33,-117.8 306.88,-121.18 311,-126 326.77,-144.44 310.21,-157.39 319,-180 326.94,-200.41 341.91,-220.81 352.62,-233.86"/>
<polygon fill="#000000" fill-opacity="0.200000" stroke="#000000" stroke-width="2" stroke-opacity="0.200000" points="351.17,-235.4 356.64,-238.65 354.39,-232.7 351.17,-235.4"/>
</g>
<!-- function&#45;roles/4&#45;components/src/utils/sort&#45;numbers.js -->
<g id="node5" class="node">
<title>function&#45;roles/4&#45;components/src/utils/sort&#45;numbers.js</title>
<g id="a_node5"><a xlink:href="function-roles/4-components/src/utils/sort-numbers.js" xlink:title="sort&#45;numbers.js">
<path fill="#ffffcc" stroke="black" d="M398.8,-150.3C398.8,-150.3 333.21,-150.3 333.21,-150.3 330.11,-150.3 327,-147.2 327,-144.1 327,-144.1 327,-137.9 327,-137.9 327,-134.8 330.11,-131.7 333.21,-131.7 333.21,-131.7 398.8,-131.7 398.8,-131.7 401.9,-131.7 405,-134.8 405,-137.9 405,-137.9 405,-144.1 405,-144.1 405,-147.2 401.9,-150.3 398.8,-150.3"/>
<text text-anchor="middle" x="366" y="-138.3" font-family="Helvetica,sans-Serif" font-size="9.00">sort&#45;numbers.js</text>
</a>
</g>
</g>
<!-- function&#45;roles/4&#45;components/src/handlers/add&#45;number.js&#45;&gt;function&#45;roles/4&#45;components/src/utils/sort&#45;numbers.js -->
<g id="edge3" class="edge">
<title>function&#45;roles/4&#45;components/src/handlers/add&#45;number.js&#45;&gt;function&#45;roles/4&#45;components/src/utils/sort&#45;numbers.js</title>
<path fill="none" stroke="#000000" stroke-width="2" stroke-opacity="0.200000" d="M291.62,-119.39C302.85,-122.69 315.58,-126.44 327.25,-129.88"/>
<polygon fill="#000000" fill-opacity="0.200000" stroke="#000000" stroke-width="2" stroke-opacity="0.200000" points="326.9,-131.97 333.25,-131.65 328.08,-127.94 326.9,-131.97"/>
</g>
<!-- function&#45;roles/4&#45;components/src/handlers/load.js -->
<g id="node6" class="node">
<title>function&#45;roles/4&#45;components/src/handlers/load.js</title>
<g id="a_node6"><a xlink:href="function-roles/4-components/src/handlers/load.js" xlink:title="load.js">
<path fill="#ffffcc" stroke="black" d="M279.55,-88.3C279.55,-88.3 237.95,-88.3 237.95,-88.3 234.85,-88.3 231.75,-85.2 231.75,-82.1 231.75,-82.1 231.75,-75.9 231.75,-75.9 231.75,-72.8 234.85,-69.7 237.95,-69.7 237.95,-69.7 279.55,-69.7 279.55,-69.7 282.65,-69.7 285.75,-72.8 285.75,-75.9 285.75,-75.9 285.75,-82.1 285.75,-82.1 285.75,-85.2 282.65,-88.3 279.55,-88.3"/>
<text text-anchor="middle" x="258.75" y="-76.3" font-family="Helvetica,sans-Serif" font-size="9.00">load.js</text>
</a>
</g>
</g>
<!-- function&#45;roles/4&#45;components/src/handlers/load.js&#45;&gt;function&#45;roles/4&#45;components/src/components/number&#45;input.js -->
<g id="edge4" class="edge">
<title>function&#45;roles/4&#45;components/src/handlers/load.js&#45;&gt;function&#45;roles/4&#45;components/src/components/number&#45;input.js</title>
<path fill="none" stroke="#000000" stroke-width="2" stroke-opacity="0.200000" d="M285.77,-71.58C297.91,-68.12 312.62,-63.93 326.05,-60.1"/>
<polygon fill="#000000" fill-opacity="0.200000" stroke="#000000" stroke-width="2" stroke-opacity="0.200000" points="326.92,-62.04 332.11,-58.37 325.77,-58 326.92,-62.04"/>
</g>
<!-- function&#45;roles/4&#45;components/src/handlers/remove&#45;number.js -->
<g id="node7" class="node">
<title>function&#45;roles/4&#45;components/src/handlers/remove&#45;number.js</title>
<g id="a_node7"><a xlink:href="function-roles/4-components/src/handlers/remove-number.js" xlink:title="remove&#45;number.js">
<path fill="#ffffcc" stroke="black" d="M296.55,-150.3C296.55,-150.3 220.95,-150.3 220.95,-150.3 217.85,-150.3 214.75,-147.2 214.75,-144.1 214.75,-144.1 214.75,-137.9 214.75,-137.9 214.75,-134.8 217.85,-131.7 220.95,-131.7 220.95,-131.7 296.55,-131.7 296.55,-131.7 299.65,-131.7 302.75,-134.8 302.75,-137.9 302.75,-137.9 302.75,-144.1 302.75,-144.1 302.75,-147.2 299.65,-150.3 296.55,-150.3"/>
<text text-anchor="middle" x="258.75" y="-138.3" font-family="Helvetica,sans-Serif" font-size="9.00">remove&#45;number.js</text>
</a>
</g>
</g>
<!-- function&#45;roles/4&#45;components/src/handlers/remove&#45;number.js&#45;&gt;function&#45;roles/4&#45;components/src/components/list.js -->
<g id="edge6" class="edge">
<title>function&#45;roles/4&#45;components/src/handlers/remove&#45;number.js&#45;&gt;function&#45;roles/4&#45;components/src/components/list.js</title>
<path fill="none" stroke="#000000" stroke-width="2" stroke-opacity="0.200000" d="M296.05,-131.63C301.21,-129.74 306.33,-127.54 311,-125 326.24,-116.7 341.22,-103.73 351.52,-93.85"/>
<polygon fill="#000000" fill-opacity="0.200000" stroke="#000000" stroke-width="2" stroke-opacity="0.200000" points="353.09,-95.25 355.9,-89.55 350.15,-92.25 353.09,-95.25"/>
</g>
<!-- function&#45;roles/4&#45;components/src/handlers/remove&#45;number.js&#45;&gt;function&#45;roles/data.js -->
<g id="edge5" class="edge">
<title>function&#45;roles/4&#45;components/src/handlers/remove&#45;number.js&#45;&gt;function&#45;roles/data.js</title>
<path fill="none" stroke="#000000" stroke-width="2" stroke-opacity="0.200000" d="M269.09,-150.5C287.79,-169.5 329.86,-212.27 351.54,-234.31"/>
<polygon fill="#000000" fill-opacity="0.200000" stroke="#000000" stroke-width="2" stroke-opacity="0.200000" points="350.13,-235.87 355.83,-238.68 353.12,-232.93 350.13,-235.87"/>
</g>
<!-- function&#45;roles/4&#45;components/src/handlers/remove&#45;number.js&#45;&gt;function&#45;roles/4&#45;components/src/utils/sort&#45;numbers.js -->
<g id="edge7" class="edge">
<title>function&#45;roles/4&#45;components/src/handlers/remove&#45;number.js&#45;&gt;function&#45;roles/4&#45;components/src/utils/sort&#45;numbers.js</title>
<path fill="none" stroke="#000000" stroke-width="2" stroke-opacity="0.200000" d="M302.86,-141C308.7,-141 314.7,-141 320.56,-141"/>
<polygon fill="#000000" fill-opacity="0.200000" stroke="#000000" stroke-width="2" stroke-opacity="0.200000" points="320.85,-143.1 326.85,-141 320.85,-138.9 320.85,-143.1"/>
</g>
<!-- function&#45;roles/4&#45;components/src/init.js -->
<g id="node8" class="node">
<title>function&#45;roles/4&#45;components/src/init.js</title>
<g id="a_node8"><a xlink:href="function-roles/4-components/src/init.js" xlink:title="init.js">
<path fill="#ffffcc" stroke="black" d="M79.8,-119.3C79.8,-119.3 38.2,-119.3 38.2,-119.3 35.1,-119.3 32,-116.2 32,-113.1 32,-113.1 32,-106.9 32,-106.9 32,-103.8 35.1,-100.7 38.2,-100.7 38.2,-100.7 79.8,-100.7 79.8,-100.7 82.9,-100.7 86,-103.8 86,-106.9 86,-106.9 86,-113.1 86,-113.1 86,-116.2 82.9,-119.3 79.8,-119.3"/>
<text text-anchor="middle" x="59" y="-107.3" font-family="Helvetica,sans-Serif" font-size="9.00">init.js</text>
</a>
</g>
</g>
<!-- function&#45;roles/4&#45;components/src/listeners/add&#45;number.js -->
<g id="node9" class="node">
<title>function&#45;roles/4&#45;components/src/listeners/add&#45;number.js</title>
<g id="a_node9"><a xlink:href="function-roles/4-components/src/listeners/add-number.js" xlink:title="add&#45;number.js">
<path fill="#ffffcc" stroke="black" d="M176.56,-119.3C176.56,-119.3 115.94,-119.3 115.94,-119.3 112.84,-119.3 109.74,-116.2 109.74,-113.1 109.74,-113.1 109.74,-106.9 109.74,-106.9 109.74,-103.8 112.84,-100.7 115.94,-100.7 115.94,-100.7 176.56,-100.7 176.56,-100.7 179.66,-100.7 182.76,-103.8 182.76,-106.9 182.76,-106.9 182.76,-113.1 182.76,-113.1 182.76,-116.2 179.66,-119.3 176.56,-119.3"/>
<text text-anchor="middle" x="146.25" y="-107.3" font-family="Helvetica,sans-Serif" font-size="9.00">add&#45;number.js</text>
</a>
</g>
</g>
<!-- function&#45;roles/4&#45;components/src/init.js&#45;&gt;function&#45;roles/4&#45;components/src/listeners/add&#45;number.js -->
<g id="edge8" class="edge">
<title>function&#45;roles/4&#45;components/src/init.js&#45;&gt;function&#45;roles/4&#45;components/src/listeners/add&#45;number.js</title>
<path fill="none" stroke="#000000" stroke-width="2" stroke-opacity="0.200000" d="M86.04,-110C91.51,-110 97.4,-110 103.28,-110"/>
<polygon fill="#000000" fill-opacity="0.200000" stroke="#000000" stroke-width="2" stroke-opacity="0.200000" points="103.64,-112.1 109.64,-110 103.64,-107.9 103.64,-112.1"/>
</g>
<!-- function&#45;roles/4&#45;components/src/listeners/load.js -->
<g id="node10" class="node">
<title>function&#45;roles/4&#45;components/src/listeners/load.js</title>
<g id="a_node10"><a xlink:href="function-roles/4-components/src/listeners/load.js" xlink:title="load.js">
<path fill="#ffffcc" stroke="black" d="M167.05,-88.3C167.05,-88.3 125.45,-88.3 125.45,-88.3 122.35,-88.3 119.25,-85.2 119.25,-82.1 119.25,-82.1 119.25,-75.9 119.25,-75.9 119.25,-72.8 122.35,-69.7 125.45,-69.7 125.45,-69.7 167.05,-69.7 167.05,-69.7 170.15,-69.7 173.25,-72.8 173.25,-75.9 173.25,-75.9 173.25,-82.1 173.25,-82.1 173.25,-85.2 170.15,-88.3 167.05,-88.3"/>
<text text-anchor="middle" x="146.25" y="-76.3" font-family="Helvetica,sans-Serif" font-size="9.00">load.js</text>
</a>
</g>
</g>
<!-- function&#45;roles/4&#45;components/src/init.js&#45;&gt;function&#45;roles/4&#45;components/src/listeners/load.js -->
<g id="edge9" class="edge">
<title>function&#45;roles/4&#45;components/src/init.js&#45;&gt;function&#45;roles/4&#45;components/src/listeners/load.js</title>
<path fill="none" stroke="#000000" stroke-width="2" stroke-opacity="0.200000" d="M80.34,-100.58C84.8,-98.64 89.53,-96.68 94,-95 100.21,-92.67 106.94,-90.4 113.4,-88.33"/>
<polygon fill="#000000" fill-opacity="0.200000" stroke="#000000" stroke-width="2" stroke-opacity="0.200000" points="114.15,-90.3 119.25,-86.49 112.89,-86.29 114.15,-90.3"/>
</g>
<!-- function&#45;roles/4&#45;components/src/listeners/remove&#45;number.js -->
<g id="node11" class="node">
<title>function&#45;roles/4&#45;components/src/listeners/remove&#45;number.js</title>
<g id="a_node11"><a xlink:href="function-roles/4-components/src/listeners/remove-number.js" xlink:title="remove&#45;number.js">
<path fill="#ffffcc" stroke="black" d="M184.05,-150.3C184.05,-150.3 108.45,-150.3 108.45,-150.3 105.35,-150.3 102.25,-147.2 102.25,-144.1 102.25,-144.1 102.25,-137.9 102.25,-137.9 102.25,-134.8 105.35,-131.7 108.45,-131.7 108.45,-131.7 184.05,-131.7 184.05,-131.7 187.15,-131.7 190.25,-134.8 190.25,-137.9 190.25,-137.9 190.25,-144.1 190.25,-144.1 190.25,-147.2 187.15,-150.3 184.05,-150.3"/>
<text text-anchor="middle" x="146.25" y="-138.3" font-family="Helvetica,sans-Serif" font-size="9.00">remove&#45;number.js</text>
</a>
</g>
</g>
<!-- function&#45;roles/4&#45;components/src/init.js&#45;&gt;function&#45;roles/4&#45;components/src/listeners/remove&#45;number.js -->
<g id="edge10" class="edge">
<title>function&#45;roles/4&#45;components/src/init.js&#45;&gt;function&#45;roles/4&#45;components/src/listeners/remove&#45;number.js</title>
<path fill="none" stroke="#000000" stroke-width="2" stroke-opacity="0.200000" d="M80.34,-119.42C84.8,-121.36 89.53,-123.32 94,-125 98.36,-126.64 102.96,-128.24 107.56,-129.77"/>
<polygon fill="#000000" fill-opacity="0.200000" stroke="#000000" stroke-width="2" stroke-opacity="0.200000" points="106.99,-131.79 113.35,-131.65 108.29,-127.8 106.99,-131.79"/>
</g>
<!-- function&#45;roles/4&#45;components/src/listeners/add&#45;number.js&#45;&gt;function&#45;roles/4&#45;components/src/handlers/add&#45;number.js -->
<g id="edge11" class="edge">
<title>function&#45;roles/4&#45;components/src/listeners/add&#45;number.js&#45;&gt;function&#45;roles/4&#45;components/src/handlers/add&#45;number.js</title>
<path fill="none" stroke="#000000" stroke-width="2" stroke-opacity="0.200000" d="M182.82,-110C193.26,-110 204.79,-110 215.6,-110"/>
<polygon fill="#000000" fill-opacity="0.200000" stroke="#000000" stroke-width="2" stroke-opacity="0.200000" points="215.87,-112.1 221.87,-110 215.87,-107.9 215.87,-112.1"/>
</g>
<!-- function&#45;roles/4&#45;components/src/listeners/load.js&#45;&gt;function&#45;roles/4&#45;components/src/handlers/load.js -->
<g id="edge12" class="edge">
<title>function&#45;roles/4&#45;components/src/listeners/load.js&#45;&gt;function&#45;roles/4&#45;components/src/handlers/load.js</title>
<path fill="none" stroke="#000000" stroke-width="2" stroke-opacity="0.200000" d="M173.44,-79C188.88,-79 208.54,-79 225,-79"/>
<polygon fill="#000000" fill-opacity="0.200000" stroke="#000000" stroke-width="2" stroke-opacity="0.200000" points="225.37,-81.1 231.37,-79 225.37,-76.9 225.37,-81.1"/>
</g>
<!-- function&#45;roles/4&#45;components/src/listeners/remove&#45;number.js&#45;&gt;function&#45;roles/4&#45;components/src/handlers/remove&#45;number.js -->
<g id="edge13" class="edge">
<title>function&#45;roles/4&#45;components/src/listeners/remove&#45;number.js&#45;&gt;function&#45;roles/4&#45;components/src/handlers/remove&#45;number.js</title>
<path fill="none" stroke="#000000" stroke-width="2" stroke-opacity="0.200000" d="M190.29,-141C196.29,-141 202.49,-141 208.59,-141"/>
<polygon fill="#000000" fill-opacity="0.200000" stroke="#000000" stroke-width="2" stroke-opacity="0.200000" points="208.65,-143.1 214.65,-141 208.65,-138.9 208.65,-143.1"/>
</g>
</g>
</svg>
