<?xml version="1.0" encoding="UTF-8" standalone="no"?>
<!DOCTYPE svg PUBLIC "-//W3C//DTD SVG 1.1//EN"
 "http://www.w3.org/Graphics/SVG/1.1/DTD/svg11.dtd">
<!-- Generated by graphviz version 2.44.0 (20200408.0750)
 -->
<!-- Title: dependency&#45;cruiser output Pages: 1 -->
<svg width="415pt" height="413pt"
 viewBox="0.00 0.00 414.99 413.00" xmlns="http://www.w3.org/2000/svg" xmlns:xlink="http://www.w3.org/1999/xlink">
<g id="graph0" class="graph" transform="scale(1 1) rotate(0) translate(4 409)">
<title>dependency&#45;cruiser output</title>
<polygon fill="white" stroke="transparent" points="-4,4 -4,-409 410.99,-409 410.99,4 -4,4"/>
<g id="clust1" class="cluster">
<title>cluster_</title>
<path fill="#ffffff" stroke="black" stroke-width="2" d="M316.99,-8C316.99,-8 378.99,-8 378.99,-8 384.99,-8 390.99,-14 390.99,-20 390.99,-20 390.99,-65 390.99,-65 390.99,-71 384.99,-77 378.99,-77 378.99,-77 316.99,-77 316.99,-77 310.99,-77 304.99,-71 304.99,-65 304.99,-65 304.99,-20 304.99,-20 304.99,-14 310.99,-8 316.99,-8"/>
</g>
<g id="clust2" class="cluster">
<title>cluster_/.lib</title>
<path fill="#ffffff" stroke="black" stroke-width="2" d="M324.99,-16C324.99,-16 370.99,-16 370.99,-16 376.99,-16 382.99,-22 382.99,-28 382.99,-28 382.99,-57 382.99,-57 382.99,-63 376.99,-69 370.99,-69 370.99,-69 324.99,-69 324.99,-69 318.99,-69 312.99,-63 312.99,-57 312.99,-57 312.99,-28 312.99,-28 312.99,-22 318.99,-16 324.99,-16"/>
<text text-anchor="middle" x="347.99" y="-56.9" font-family="Helvetica,sans-Serif" font-weight="bold" font-size="9.00">.lib</text>
</g>
<g id="clust3" class="cluster">
<title>cluster_separated</title>
<path fill="#ffffff" stroke="black" stroke-width="2" d="M20,-85C20,-85 386.99,-85 386.99,-85 392.99,-85 398.99,-91 398.99,-97 398.99,-97 398.99,-385 398.99,-385 398.99,-391 392.99,-397 386.99,-397 386.99,-397 20,-397 20,-397 14,-397 8,-391 8,-385 8,-385 8,-97 8,-97 8,-91 14,-85 20,-85"/>
<text text-anchor="middle" x="203.5" y="-384.9" font-family="Helvetica,sans-Serif" font-weight="bold" font-size="9.00">separated</text>
</g>
<g id="clust4" class="cluster">
<title>cluster_separated/searchable&#45;dictionary</title>
<path fill="#ffffff" stroke="black" stroke-width="2" d="M28,-93C28,-93 378.99,-93 378.99,-93 384.99,-93 390.99,-99 390.99,-105 390.99,-105 390.99,-358 390.99,-358 390.99,-364 384.99,-370 378.99,-370 378.99,-370 28,-370 28,-370 22,-370 16,-364 16,-358 16,-358 16,-105 16,-105 16,-99 22,-93 28,-93"/>
<text text-anchor="middle" x="203.5" y="-357.9" font-family="Helvetica,sans-Serif" font-weight="bold" font-size="9.00">searchable&#45;dictionary</text>
</g>
<g id="clust5" class="cluster">
<title>cluster_separated/searchable&#45;dictionary/src</title>
<path fill="#ffffff" stroke="black" stroke-width="2" d="M36,-101C36,-101 370.99,-101 370.99,-101 376.99,-101 382.99,-107 382.99,-113 382.99,-113 382.99,-331 382.99,-331 382.99,-337 376.99,-343 370.99,-343 370.99,-343 36,-343 36,-343 30,-343 24,-337 24,-331 24,-331 24,-113 24,-113 24,-107 30,-101 36,-101"/>
<text text-anchor="middle" x="203.5" y="-330.9" font-family="Helvetica,sans-Serif" font-weight="bold" font-size="9.00">src</text>
</g>
<g id="clust6" class="cluster">
<title>cluster_separated/searchable&#45;dictionary/src/handlers</title>
<path fill="#ffffff" stroke="black" stroke-width="2" d="M215.5,-109C215.5,-109 284.99,-109 284.99,-109 290.99,-109 296.99,-115 296.99,-121 296.99,-121 296.99,-243 296.99,-243 296.99,-249 290.99,-255 284.99,-255 284.99,-255 215.5,-255 215.5,-255 209.5,-255 203.5,-249 203.5,-243 203.5,-243 203.5,-121 203.5,-121 203.5,-115 209.5,-109 215.5,-109"/>
<text text-anchor="middle" x="250.24" y="-242.9" font-family="Helvetica,sans-Serif" font-weight="bold" font-size="9.00">handlers</text>
</g>
<g id="clust7" class="cluster">
<title>cluster_separated/searchable&#45;dictionary/src/init</title>
<path fill="#ffffff" stroke="black" stroke-width="2" d="M44,-263C44,-263 174.5,-263 174.5,-263 180.5,-263 186.5,-269 186.5,-275 186.5,-275 186.5,-304 186.5,-304 186.5,-310 180.5,-316 174.5,-316 174.5,-316 44,-316 44,-316 38,-316 32,-310 32,-304 32,-304 32,-275 32,-275 32,-269 38,-263 44,-263"/>
<text text-anchor="middle" x="109.25" y="-303.9" font-family="Helvetica,sans-Serif" font-weight="bold" font-size="9.00">init</text>
</g>
<g id="clust8" class="cluster">
<title>cluster_separated/searchable&#45;dictionary/src/listeners</title>
<path fill="#ffffff" stroke="black" stroke-width="2" d="M114,-109C114,-109 183.5,-109 183.5,-109 189.5,-109 195.5,-115 195.5,-121 195.5,-121 195.5,-243 195.5,-243 195.5,-249 189.5,-255 183.5,-255 183.5,-255 114,-255 114,-255 108,-255 102,-249 102,-243 102,-243 102,-121 102,-121 102,-115 108,-109 114,-109"/>
<text text-anchor="middle" x="148.75" y="-242.9" font-family="Helvetica,sans-Serif" font-weight="bold" font-size="9.00">listeners</text>
</g>
<!-- /.lib/logger.js -->
<g id="node1" class="node">
<title>/.lib/logger.js</title>
<polygon fill="#ffffcc" stroke="red" points="374.99,-42.3 373.44,-44.37 362.59,-44.37 361.04,-42.3 320.99,-42.3 320.99,-23.7 374.99,-23.7 374.99,-42.3"/>
<text text-anchor="middle" x="347.99" y="-30.3" font-family="Helvetica,sans-Serif" font-size="9.00" fill="red">logger.js</text>
</g>
<!-- separated/searchable&#45;dictionary/src/data.js -->
<g id="node2" class="node">
<title>separated/searchable&#45;dictionary/src/data.js</title>
<g id="a_node2"><a xlink:href="separated/searchable-dictionary/src/data.js" xlink:title="data.js">
<path fill="#ffffcc" stroke="black" d="M368.79,-197.3C368.79,-197.3 327.19,-197.3 327.19,-197.3 324.09,-197.3 320.99,-194.2 320.99,-191.1 320.99,-191.1 320.99,-184.9 320.99,-184.9 320.99,-181.8 324.09,-178.7 327.19,-178.7 327.19,-178.7 368.79,-178.7 368.79,-178.7 371.89,-178.7 374.99,-181.8 374.99,-184.9 374.99,-184.9 374.99,-191.1 374.99,-191.1 374.99,-194.2 371.89,-197.3 368.79,-197.3"/>
<text text-anchor="middle" x="347.99" y="-185.3" font-family="Helvetica,sans-Serif" font-size="9.00">data.js</text>
</a>
</g>
</g>
<!-- separated/searchable&#45;dictionary/src/handlers/add&#45;word.js -->
<g id="node3" class="node">
<title>separated/searchable&#45;dictionary/src/handlers/add&#45;word.js</title>
<g id="a_node3"><a xlink:href="separated/searchable-dictionary/src/handlers/add-word.js" xlink:title="add&#45;word.js">
<path fill="#ffffcc" stroke="black" d="M275.05,-166.3C275.05,-166.3 225.44,-166.3 225.44,-166.3 222.34,-166.3 219.24,-163.2 219.24,-160.1 219.24,-160.1 219.24,-153.9 219.24,-153.9 219.24,-150.8 222.34,-147.7 225.44,-147.7 225.44,-147.7 275.05,-147.7 275.05,-147.7 278.15,-147.7 281.25,-150.8 281.25,-153.9 281.25,-153.9 281.25,-160.1 281.25,-160.1 281.25,-163.2 278.15,-166.3 275.05,-166.3"/>
<text text-anchor="middle" x="250.24" y="-154.3" font-family="Helvetica,sans-Serif" font-size="9.00">add&#45;word.js</text>
</a>
</g>
</g>
<!-- separated/searchable&#45;dictionary/src/handlers/add&#45;word.js&#45;&gt;/.lib/logger.js -->
<g id="edge2" class="edge">
<title>separated/searchable&#45;dictionary/src/handlers/add&#45;word.js&#45;&gt;/.lib/logger.js</title>
<path fill="none" stroke="#000000" stroke-width="2" stroke-opacity="0.200000" d="M281.58,-151.4C287.4,-149.06 292.94,-145.73 296.99,-141 309.65,-126.25 297.8,-116.06 304.99,-98 312.47,-79.21 325.67,-60.05 335.28,-47.45"/>
<polygon fill="#000000" fill-opacity="0.200000" stroke="#000000" stroke-width="2" stroke-opacity="0.200000" points="337.13,-48.49 339.15,-42.47 333.81,-45.91 337.13,-48.49"/>
</g>
<!-- separated/searchable&#45;dictionary/src/handlers/add&#45;word.js&#45;&gt;separated/searchable&#45;dictionary/src/data.js -->
<g id="edge1" class="edge">
<title>separated/searchable&#45;dictionary/src/handlers/add&#45;word.js&#45;&gt;separated/searchable&#45;dictionary/src/data.js</title>
<path fill="none" stroke="#000000" stroke-width="2" stroke-opacity="0.200000" d="M280.23,-166.39C291.2,-169.94 303.74,-174 314.97,-177.63"/>
<polygon fill="#000000" fill-opacity="0.200000" stroke="#000000" stroke-width="2" stroke-opacity="0.200000" points="314.35,-179.64 320.71,-179.49 315.65,-175.64 314.35,-179.64"/>
</g>
<!-- separated/searchable&#45;dictionary/src/handlers/query&#45;words.js -->
<g id="node4" class="node">
<title>separated/searchable&#45;dictionary/src/handlers/query&#45;words.js</title>
<g id="a_node4"><a xlink:href="separated/searchable-dictionary/src/handlers/query-words.js" xlink:title="query&#45;words.js">
<path fill="#ffffcc" stroke="black" d="M281.54,-135.3C281.54,-135.3 218.94,-135.3 218.94,-135.3 215.84,-135.3 212.74,-132.2 212.74,-129.1 212.74,-129.1 212.74,-122.9 212.74,-122.9 212.74,-119.8 215.84,-116.7 218.94,-116.7 218.94,-116.7 281.54,-116.7 281.54,-116.7 284.64,-116.7 287.74,-119.8 287.74,-122.9 287.74,-122.9 287.74,-129.1 287.74,-129.1 287.74,-132.2 284.64,-135.3 281.54,-135.3"/>
<text text-anchor="middle" x="250.24" y="-123.3" font-family="Helvetica,sans-Serif" font-size="9.00">query&#45;words.js</text>
</a>
</g>
</g>
<!-- separated/searchable&#45;dictionary/src/handlers/query&#45;words.js&#45;&gt;/.lib/logger.js -->
<g id="edge4" class="edge">
<title>separated/searchable&#45;dictionary/src/handlers/query&#45;words.js&#45;&gt;/.lib/logger.js</title>
<path fill="none" stroke="#000000" stroke-width="2" stroke-opacity="0.200000" d="M261.13,-116.4C278.13,-99.88 312.97,-66.04 332.65,-46.93"/>
<polygon fill="#000000" fill-opacity="0.200000" stroke="#000000" stroke-width="2" stroke-opacity="0.200000" points="334.46,-48.1 337.3,-42.41 331.53,-45.09 334.46,-48.1"/>
</g>
<!-- separated/searchable&#45;dictionary/src/handlers/query&#45;words.js&#45;&gt;separated/searchable&#45;dictionary/src/data.js -->
<g id="edge3" class="edge">
<title>separated/searchable&#45;dictionary/src/handlers/query&#45;words.js&#45;&gt;separated/searchable&#45;dictionary/src/data.js</title>
<path fill="none" stroke="#000000" stroke-width="2" stroke-opacity="0.200000" d="M283.5,-135.4C288.17,-137.3 292.8,-139.49 296.99,-142 311.42,-150.65 325.3,-163.95 334.75,-174.02"/>
<polygon fill="#000000" fill-opacity="0.200000" stroke="#000000" stroke-width="2" stroke-opacity="0.200000" points="333.42,-175.67 339.02,-178.67 336.51,-172.83 333.42,-175.67"/>
</g>
<!-- separated/searchable&#45;dictionary/src/handlers/remove&#45;word.js -->
<g id="node5" class="node">
<title>separated/searchable&#45;dictionary/src/handlers/remove&#45;word.js</title>
<g id="a_node5"><a xlink:href="separated/searchable-dictionary/src/handlers/remove-word.js" xlink:title="remove&#45;word.js">
<path fill="#ffffcc" stroke="black" d="M283.04,-228.3C283.04,-228.3 217.45,-228.3 217.45,-228.3 214.35,-228.3 211.25,-225.2 211.25,-222.1 211.25,-222.1 211.25,-215.9 211.25,-215.9 211.25,-212.8 214.35,-209.7 217.45,-209.7 217.45,-209.7 283.04,-209.7 283.04,-209.7 286.14,-209.7 289.24,-212.8 289.24,-215.9 289.24,-215.9 289.24,-222.1 289.24,-222.1 289.24,-225.2 286.14,-228.3 283.04,-228.3"/>
<text text-anchor="middle" x="250.24" y="-216.3" font-family="Helvetica,sans-Serif" font-size="9.00">remove&#45;word.js</text>
</a>
</g>
</g>
<!-- separated/searchable&#45;dictionary/src/handlers/remove&#45;word.js&#45;&gt;/.lib/logger.js -->
<g id="edge6" class="edge">
<title>separated/searchable&#45;dictionary/src/handlers/remove&#45;word.js&#45;&gt;/.lib/logger.js</title>
<path fill="none" stroke="#000000" stroke-width="2" stroke-opacity="0.200000" d="M289.19,-210.02C292.16,-208.12 294.84,-205.8 296.99,-203 311.25,-184.44 297.52,-120.18 304.99,-98 311.44,-78.84 324.83,-59.74 334.76,-47.26"/>
<polygon fill="#000000" fill-opacity="0.200000" stroke="#000000" stroke-width="2" stroke-opacity="0.200000" points="336.61,-48.31 338.77,-42.33 333.36,-45.65 336.61,-48.31"/>
</g>
<!-- separated/searchable&#45;dictionary/src/handlers/remove&#45;word.js&#45;&gt;separated/searchable&#45;dictionary/src/data.js -->
<g id="edge5" class="edge">
<title>separated/searchable&#45;dictionary/src/handlers/remove&#45;word.js&#45;&gt;separated/searchable&#45;dictionary/src/data.js</title>
<path fill="none" stroke="#000000" stroke-width="2" stroke-opacity="0.200000" d="M280.23,-209.61C291.2,-206.06 303.74,-202 314.97,-198.37"/>
<polygon fill="#000000" fill-opacity="0.200000" stroke="#000000" stroke-width="2" stroke-opacity="0.200000" points="315.65,-200.36 320.71,-196.51 314.35,-196.36 315.65,-200.36"/>
</g>
<!-- separated/searchable&#45;dictionary/src/handlers/reset.js -->
<g id="node6" class="node">
<title>separated/searchable&#45;dictionary/src/handlers/reset.js</title>
<g id="a_node6"><a xlink:href="separated/searchable-dictionary/src/handlers/reset.js" xlink:title="reset.js">
<path fill="#ffffcc" stroke="black" d="M271.04,-197.3C271.04,-197.3 229.44,-197.3 229.44,-197.3 226.34,-197.3 223.24,-194.2 223.24,-191.1 223.24,-191.1 223.24,-184.9 223.24,-184.9 223.24,-181.8 226.34,-178.7 229.44,-178.7 229.44,-178.7 271.04,-178.7 271.04,-178.7 274.14,-178.7 277.24,-181.8 277.24,-184.9 277.24,-184.9 277.24,-191.1 277.24,-191.1 277.24,-194.2 274.14,-197.3 271.04,-197.3"/>
<text text-anchor="middle" x="250.24" y="-185.3" font-family="Helvetica,sans-Serif" font-size="9.00">reset.js</text>
</a>
</g>
</g>
<!-- separated/searchable&#45;dictionary/src/handlers/reset.js&#45;&gt;/.lib/logger.js -->
<g id="edge8" class="edge">
<title>separated/searchable&#45;dictionary/src/handlers/reset.js&#45;&gt;/.lib/logger.js</title>
<path fill="none" stroke="#000000" stroke-width="2" stroke-opacity="0.200000" d="M277.59,-184.18C284.92,-181.83 292.18,-178.06 296.99,-172 307.27,-159.05 299.46,-113.59 304.99,-98 311.75,-78.94 325.07,-59.83 334.91,-47.31"/>
<polygon fill="#000000" fill-opacity="0.200000" stroke="#000000" stroke-width="2" stroke-opacity="0.200000" points="336.76,-48.36 338.89,-42.37 333.49,-45.73 336.76,-48.36"/>
</g>
<!-- separated/searchable&#45;dictionary/src/handlers/reset.js&#45;&gt;separated/searchable&#45;dictionary/src/data.js -->
<g id="edge7" class="edge">
<title>separated/searchable&#45;dictionary/src/handlers/reset.js&#45;&gt;separated/searchable&#45;dictionary/src/data.js</title>
<path fill="none" stroke="#000000" stroke-width="2" stroke-opacity="0.200000" d="M277.41,-188C288.91,-188 302.54,-188 314.67,-188"/>
<polygon fill="#000000" fill-opacity="0.200000" stroke="#000000" stroke-width="2" stroke-opacity="0.200000" points="314.86,-190.1 320.86,-188 314.86,-185.9 314.86,-190.1"/>
</g>
<!-- separated/searchable&#45;dictionary/src/init/index.js -->
<g id="node7" class="node">
<title>separated/searchable&#45;dictionary/src/init/index.js</title>
<g id="a_node7"><a xlink:href="separated/searchable-dictionary/src/init/index.js" xlink:title="index.js">
<path fill="#ffffcc" stroke="black" d="M87.8,-289.3C87.8,-289.3 46.2,-289.3 46.2,-289.3 43.1,-289.3 40,-286.2 40,-283.1 40,-283.1 40,-276.9 40,-276.9 40,-273.8 43.1,-270.7 46.2,-270.7 46.2,-270.7 87.8,-270.7 87.8,-270.7 90.9,-270.7 94,-273.8 94,-276.9 94,-276.9 94,-283.1 94,-283.1 94,-286.2 90.9,-289.3 87.8,-289.3"/>
<text text-anchor="middle" x="67" y="-277.3" font-family="Helvetica,sans-Serif" font-size="9.00">index.js</text>
</a>
</g>
</g>
<!-- separated/searchable&#45;dictionary/src/listeners/add&#45;word.js -->
<g id="node8" class="node">
<title>separated/searchable&#45;dictionary/src/listeners/add&#45;word.js</title>
<g id="a_node8"><a xlink:href="separated/searchable-dictionary/src/listeners/add-word.js" xlink:title="add&#45;word.js">
<path fill="#ffffcc" stroke="black" d="M173.55,-166.3C173.55,-166.3 123.94,-166.3 123.94,-166.3 120.84,-166.3 117.74,-163.2 117.74,-160.1 117.74,-160.1 117.74,-153.9 117.74,-153.9 117.74,-150.8 120.84,-147.7 123.94,-147.7 123.94,-147.7 173.55,-147.7 173.55,-147.7 176.65,-147.7 179.75,-150.8 179.75,-153.9 179.75,-153.9 179.75,-160.1 179.75,-160.1 179.75,-163.2 176.65,-166.3 173.55,-166.3"/>
<text text-anchor="middle" x="148.75" y="-154.3" font-family="Helvetica,sans-Serif" font-size="9.00">add&#45;word.js</text>
</a>
</g>
</g>
<!-- separated/searchable&#45;dictionary/src/init/index.js&#45;&gt;separated/searchable&#45;dictionary/src/listeners/add&#45;word.js -->
<g id="edge9" class="edge">
<title>separated/searchable&#45;dictionary/src/init/index.js&#45;&gt;separated/searchable&#45;dictionary/src/listeners/add&#45;word.js</title>
<path fill="none" stroke="#000000" stroke-width="2" stroke-opacity="0.200000" d="M68.29,-270.59C69.42,-250.04 74.97,-200.82 102,-173 104.84,-170.08 108.23,-167.69 111.88,-165.74"/>
<polygon fill="#000000" fill-opacity="0.200000" stroke="#000000" stroke-width="2" stroke-opacity="0.200000" points="112.82,-167.62 117.36,-163.18 111.04,-163.82 112.82,-167.62"/>
</g>
<!-- separated/searchable&#45;dictionary/src/listeners/query&#45;words.js -->
<g id="node9" class="node">
<title>separated/searchable&#45;dictionary/src/listeners/query&#45;words.js</title>
<g id="a_node9"><a xlink:href="separated/searchable-dictionary/src/listeners/query-words.js" xlink:title="query&#45;words.js">
<path fill="#ffffcc" stroke="black" d="M180.05,-135.3C180.05,-135.3 117.45,-135.3 117.45,-135.3 114.35,-135.3 111.25,-132.2 111.25,-129.1 111.25,-129.1 111.25,-122.9 111.25,-122.9 111.25,-119.8 114.35,-116.7 117.45,-116.7 117.45,-116.7 180.05,-116.7 180.05,-116.7 183.15,-116.7 186.25,-119.8 186.25,-122.9 186.25,-122.9 186.25,-129.1 186.25,-129.1 186.25,-132.2 183.15,-135.3 180.05,-135.3"/>
<text text-anchor="middle" x="148.75" y="-123.3" font-family="Helvetica,sans-Serif" font-size="9.00">query&#45;words.js</text>
</a>
</g>
</g>
<!-- separated/searchable&#45;dictionary/src/init/index.js&#45;&gt;separated/searchable&#45;dictionary/src/listeners/query&#45;words.js -->
<g id="edge10" class="edge">
<title>separated/searchable&#45;dictionary/src/init/index.js&#45;&gt;separated/searchable&#45;dictionary/src/listeners/query&#45;words.js</title>
<path fill="none" stroke="#000000" stroke-width="2" stroke-opacity="0.200000" d="M67.47,-270.57C66.63,-246.05 67.8,-179.61 102,-142 103.22,-140.66 104.56,-139.43 105.99,-138.3"/>
<polygon fill="#000000" fill-opacity="0.200000" stroke="#000000" stroke-width="2" stroke-opacity="0.200000" points="107.33,-139.93 111.16,-134.86 105,-136.44 107.33,-139.93"/>
</g>
<!-- separated/searchable&#45;dictionary/src/listeners/remove&#45;word.js -->
<g id="node10" class="node">
<title>separated/searchable&#45;dictionary/src/listeners/remove&#45;word.js</title>
<g id="a_node10"><a xlink:href="separated/searchable-dictionary/src/listeners/remove-word.js" xlink:title="remove&#45;word.js">
<path fill="#ffffcc" stroke="black" d="M181.54,-228.3C181.54,-228.3 115.95,-228.3 115.95,-228.3 112.85,-228.3 109.75,-225.2 109.75,-222.1 109.75,-222.1 109.75,-215.9 109.75,-215.9 109.75,-212.8 112.85,-209.7 115.95,-209.7 115.95,-209.7 181.54,-209.7 181.54,-209.7 184.64,-209.7 187.74,-212.8 187.74,-215.9 187.74,-215.9 187.74,-222.1 187.74,-222.1 187.74,-225.2 184.64,-228.3 181.54,-228.3"/>
<text text-anchor="middle" x="148.75" y="-216.3" font-family="Helvetica,sans-Serif" font-size="9.00">remove&#45;word.js</text>
</a>
</g>
</g>
<!-- separated/searchable&#45;dictionary/src/init/index.js&#45;&gt;separated/searchable&#45;dictionary/src/listeners/remove&#45;word.js -->
<g id="edge11" class="edge">
<title>separated/searchable&#45;dictionary/src/init/index.js&#45;&gt;separated/searchable&#45;dictionary/src/listeners/remove&#45;word.js</title>
<path fill="none" stroke="#000000" stroke-width="2" stroke-opacity="0.200000" d="M80.46,-270.47C93.92,-260.17 115.46,-243.7 130.53,-232.17"/>
<polygon fill="#000000" fill-opacity="0.200000" stroke="#000000" stroke-width="2" stroke-opacity="0.200000" points="131.88,-233.78 135.37,-228.46 129.33,-230.44 131.88,-233.78"/>
</g>
<!-- separated/searchable&#45;dictionary/src/listeners/reset.js -->
<g id="node11" class="node">
<title>separated/searchable&#45;dictionary/src/listeners/reset.js</title>
<g id="a_node11"><a xlink:href="separated/searchable-dictionary/src/listeners/reset.js" xlink:title="reset.js">
<path fill="#ffffcc" stroke="black" d="M169.55,-197.3C169.55,-197.3 127.95,-197.3 127.95,-197.3 124.85,-197.3 121.75,-194.2 121.75,-191.1 121.75,-191.1 121.75,-184.9 121.75,-184.9 121.75,-181.8 124.85,-178.7 127.95,-178.7 127.95,-178.7 169.55,-178.7 169.55,-178.7 172.65,-178.7 175.75,-181.8 175.75,-184.9 175.75,-184.9 175.75,-191.1 175.75,-191.1 175.75,-194.2 172.65,-197.3 169.55,-197.3"/>
<text text-anchor="middle" x="148.75" y="-185.3" font-family="Helvetica,sans-Serif" font-size="9.00">reset.js</text>
</a>
</g>
</g>
<!-- separated/searchable&#45;dictionary/src/init/index.js&#45;&gt;separated/searchable&#45;dictionary/src/listeners/reset.js -->
<g id="edge12" class="edge">
<title>separated/searchable&#45;dictionary/src/init/index.js&#45;&gt;separated/searchable&#45;dictionary/src/listeners/reset.js</title>
<path fill="none" stroke="#000000" stroke-width="2" stroke-opacity="0.200000" d="M69.69,-270.65C73.03,-254.76 81.99,-222.39 102,-204 105.92,-200.4 110.69,-197.6 115.66,-195.43"/>
<polygon fill="#000000" fill-opacity="0.200000" stroke="#000000" stroke-width="2" stroke-opacity="0.200000" points="116.7,-197.28 121.54,-193.15 115.19,-193.36 116.7,-197.28"/>
</g>
<!-- separated/searchable&#45;dictionary/src/init/log&#45;state.js -->
<g id="node12" class="node">
<title>separated/searchable&#45;dictionary/src/init/log&#45;state.js</title>
<g id="a_node12"><a xlink:href="separated/searchable-dictionary/src/init/log-state.js" xlink:title="log&#45;state.js">
<path fill="#ffffcc" stroke="black" d="M172.05,-289.3C172.05,-289.3 125.44,-289.3 125.44,-289.3 122.34,-289.3 119.24,-286.2 119.24,-283.1 119.24,-283.1 119.24,-276.9 119.24,-276.9 119.24,-273.8 122.34,-270.7 125.44,-270.7 125.44,-270.7 172.05,-270.7 172.05,-270.7 175.16,-270.7 178.26,-273.8 178.26,-276.9 178.26,-276.9 178.26,-283.1 178.26,-283.1 178.26,-286.2 175.16,-289.3 172.05,-289.3"/>
<text text-anchor="middle" x="148.75" y="-277.3" font-family="Helvetica,sans-Serif" font-size="9.00">log&#45;state.js</text>
</a>
</g>
</g>
<!-- separated/searchable&#45;dictionary/src/init/index.js&#45;&gt;separated/searchable&#45;dictionary/src/init/log&#45;state.js -->
<g id="edge13" class="edge">
<title>separated/searchable&#45;dictionary/src/init/index.js&#45;&gt;separated/searchable&#45;dictionary/src/init/log&#45;state.js</title>
<path fill="none" stroke="#000000" stroke-width="2" stroke-opacity="0.200000" d="M94.11,-280C100.11,-280 106.58,-280 112.88,-280"/>
<polygon fill="#000000" fill-opacity="0.200000" stroke="#000000" stroke-width="2" stroke-opacity="0.200000" points="113.1,-282.1 119.1,-280 113.1,-277.9 113.1,-282.1"/>
</g>
<!-- separated/searchable&#45;dictionary/src/listeners/add&#45;word.js&#45;&gt;separated/searchable&#45;dictionary/src/handlers/add&#45;word.js -->
<g id="edge16" class="edge">
<title>separated/searchable&#45;dictionary/src/listeners/add&#45;word.js&#45;&gt;separated/searchable&#45;dictionary/src/handlers/add&#45;word.js</title>
<path fill="none" stroke="#000000" stroke-width="2" stroke-opacity="0.200000" d="M179.87,-157C190.29,-157 202.08,-157 212.95,-157"/>
<polygon fill="#000000" fill-opacity="0.200000" stroke="#000000" stroke-width="2" stroke-opacity="0.200000" points="213.22,-159.1 219.22,-157 213.22,-154.9 213.22,-159.1"/>
</g>
<!-- separated/searchable&#45;dictionary/src/listeners/query&#45;words.js&#45;&gt;separated/searchable&#45;dictionary/src/handlers/query&#45;words.js -->
<g id="edge17" class="edge">
<title>separated/searchable&#45;dictionary/src/listeners/query&#45;words.js&#45;&gt;separated/searchable&#45;dictionary/src/handlers/query&#45;words.js</title>
<path fill="none" stroke="#000000" stroke-width="2" stroke-opacity="0.200000" d="M186.23,-126C192.86,-126 199.82,-126 206.6,-126"/>
<polygon fill="#000000" fill-opacity="0.200000" stroke="#000000" stroke-width="2" stroke-opacity="0.200000" points="206.76,-128.1 212.76,-126 206.76,-123.9 206.76,-128.1"/>
</g>
<!-- separated/searchable&#45;dictionary/src/listeners/remove&#45;word.js&#45;&gt;separated/searchable&#45;dictionary/src/handlers/remove&#45;word.js -->
<g id="edge18" class="edge">
<title>separated/searchable&#45;dictionary/src/listeners/remove&#45;word.js&#45;&gt;separated/searchable&#45;dictionary/src/handlers/remove&#45;word.js</title>
<path fill="none" stroke="#000000" stroke-width="2" stroke-opacity="0.200000" d="M187.65,-219C193.37,-219 199.32,-219 205.17,-219"/>
<polygon fill="#000000" fill-opacity="0.200000" stroke="#000000" stroke-width="2" stroke-opacity="0.200000" points="205.45,-221.1 211.45,-219 205.45,-216.9 205.45,-221.1"/>
</g>
<!-- separated/searchable&#45;dictionary/src/listeners/reset.js&#45;&gt;separated/searchable&#45;dictionary/src/handlers/reset.js -->
<g id="edge19" class="edge">
<title>separated/searchable&#45;dictionary/src/listeners/reset.js&#45;&gt;separated/searchable&#45;dictionary/src/handlers/reset.js</title>
<path fill="none" stroke="#000000" stroke-width="2" stroke-opacity="0.200000" d="M175.89,-188C188.36,-188 203.4,-188 216.61,-188"/>
<polygon fill="#000000" fill-opacity="0.200000" stroke="#000000" stroke-width="2" stroke-opacity="0.200000" points="216.93,-190.1 222.93,-188 216.93,-185.9 216.93,-190.1"/>
</g>
<!-- separated/searchable&#45;dictionary/src/init/log&#45;state.js&#45;&gt;/.lib/logger.js -->
<g id="edge15" class="edge">
<title>separated/searchable&#45;dictionary/src/init/log&#45;state.js&#45;&gt;/.lib/logger.js</title>
<path fill="none" stroke="#000000" stroke-width="2" stroke-opacity="0.200000" d="M178.39,-271.9C185.06,-268.65 191.39,-264.16 195.5,-258 214.25,-229.85 185.06,-134.36 203.5,-106 228.52,-67.5 280.52,-48.35 314.56,-39.57"/>
<polygon fill="#000000" fill-opacity="0.200000" stroke="#000000" stroke-width="2" stroke-opacity="0.200000" points="315.38,-41.53 320.7,-38.05 314.37,-37.46 315.38,-41.53"/>
</g>
<!-- separated/searchable&#45;dictionary/src/init/log&#45;state.js&#45;&gt;separated/searchable&#45;dictionary/src/data.js -->
<g id="edge14" class="edge">
<title>separated/searchable&#45;dictionary/src/init/log&#45;state.js&#45;&gt;separated/searchable&#45;dictionary/src/data.js</title>
<path fill="none" stroke="#000000" stroke-width="2" stroke-opacity="0.200000" d="M178.26,-282.07C209.66,-282.99 260.51,-280.34 296.99,-258 318.09,-245.08 332.82,-219.57 340.59,-203.17"/>
<polygon fill="#000000" fill-opacity="0.200000" stroke="#000000" stroke-width="2" stroke-opacity="0.200000" points="342.56,-203.92 343.13,-197.59 338.73,-202.17 342.56,-203.92"/>
</g>
</g>
</svg>
