<?xml version="1.0" encoding="UTF-8" standalone="no"?>
<!DOCTYPE svg PUBLIC "-//W3C//DTD SVG 1.1//EN"
 "http://www.w3.org/Graphics/SVG/1.1/DTD/svg11.dtd">
<!-- Generated by graphviz version 2.44.0 (20200408.0750)
 -->
<!-- Title: dependency&#45;cruiser output Pages: 1 -->
<svg width="493pt" height="397pt"
 viewBox="0.00 0.00 492.50 397.00" xmlns="http://www.w3.org/2000/svg" xmlns:xlink="http://www.w3.org/1999/xlink">
<g id="graph0" class="graph" transform="scale(1 1) rotate(0) translate(4 393)">
<title>dependency&#45;cruiser output</title>
<polygon fill="white" stroke="transparent" points="-4,4 -4,-393 488.5,-393 488.5,4 -4,4"/>
<g id="clust1" class="cluster">
<title>cluster_lib</title>
<path fill="#ffffff" stroke="black" stroke-width="2" d="M316.99,-8C316.99,-8 464.5,-8 464.5,-8 470.5,-8 476.5,-14 476.5,-20 476.5,-20 476.5,-49 476.5,-49 476.5,-55 470.5,-61 464.5,-61 464.5,-61 316.99,-61 316.99,-61 310.99,-61 304.99,-55 304.99,-49 304.99,-49 304.99,-20 304.99,-20 304.99,-14 310.99,-8 316.99,-8"/>
<text text-anchor="middle" x="390.75" y="-48.9" font-family="Helvetica,sans-Serif" font-weight="bold" font-size="9.00">lib</text>
</g>
<g id="clust2" class="cluster">
<title>cluster_separated</title>
<path fill="#ffffff" stroke="black" stroke-width="2" d="M20,-69C20,-69 378.99,-69 378.99,-69 384.99,-69 390.99,-75 390.99,-81 390.99,-81 390.99,-369 390.99,-369 390.99,-375 384.99,-381 378.99,-381 378.99,-381 20,-381 20,-381 14,-381 8,-375 8,-369 8,-369 8,-81 8,-81 8,-75 14,-69 20,-69"/>
<text text-anchor="middle" x="199.5" y="-368.9" font-family="Helvetica,sans-Serif" font-weight="bold" font-size="9.00">separated</text>
</g>
<g id="clust3" class="cluster">
<title>cluster_separated/searchable&#45;dictionary</title>
<path fill="#ffffff" stroke="black" stroke-width="2" d="M28,-77C28,-77 370.99,-77 370.99,-77 376.99,-77 382.99,-83 382.99,-89 382.99,-89 382.99,-342 382.99,-342 382.99,-348 376.99,-354 370.99,-354 370.99,-354 28,-354 28,-354 22,-354 16,-348 16,-342 16,-342 16,-89 16,-89 16,-83 22,-77 28,-77"/>
<text text-anchor="middle" x="199.5" y="-341.9" font-family="Helvetica,sans-Serif" font-weight="bold" font-size="9.00">searchable&#45;dictionary</text>
</g>
<g id="clust4" class="cluster">
<title>cluster_separated/searchable&#45;dictionary/src</title>
<path fill="#ffffff" stroke="black" stroke-width="2" d="M36,-85C36,-85 362.99,-85 362.99,-85 368.99,-85 374.99,-91 374.99,-97 374.99,-97 374.99,-315 374.99,-315 374.99,-321 368.99,-327 362.99,-327 362.99,-327 36,-327 36,-327 30,-327 24,-321 24,-315 24,-315 24,-97 24,-97 24,-91 30,-85 36,-85"/>
<text text-anchor="middle" x="199.5" y="-314.9" font-family="Helvetica,sans-Serif" font-weight="bold" font-size="9.00">src</text>
</g>
<g id="clust5" class="cluster">
<title>cluster_separated/searchable&#45;dictionary/src/handlers</title>
<path fill="#ffffff" stroke="black" stroke-width="2" d="M215.5,-93C215.5,-93 284.99,-93 284.99,-93 290.99,-93 296.99,-99 296.99,-105 296.99,-105 296.99,-227 296.99,-227 296.99,-233 290.99,-239 284.99,-239 284.99,-239 215.5,-239 215.5,-239 209.5,-239 203.5,-233 203.5,-227 203.5,-227 203.5,-105 203.5,-105 203.5,-99 209.5,-93 215.5,-93"/>
<text text-anchor="middle" x="250.24" y="-226.9" font-family="Helvetica,sans-Serif" font-weight="bold" font-size="9.00">handlers</text>
</g>
<g id="clust6" class="cluster">
<title>cluster_separated/searchable&#45;dictionary/src/init</title>
<path fill="#ffffff" stroke="black" stroke-width="2" d="M44,-247C44,-247 174.5,-247 174.5,-247 180.5,-247 186.5,-253 186.5,-259 186.5,-259 186.5,-288 186.5,-288 186.5,-294 180.5,-300 174.5,-300 174.5,-300 44,-300 44,-300 38,-300 32,-294 32,-288 32,-288 32,-259 32,-259 32,-253 38,-247 44,-247"/>
<text text-anchor="middle" x="109.25" y="-287.9" font-family="Helvetica,sans-Serif" font-weight="bold" font-size="9.00">init</text>
</g>
<g id="clust7" class="cluster">
<title>cluster_separated/searchable&#45;dictionary/src/listeners</title>
<path fill="#ffffff" stroke="black" stroke-width="2" d="M114,-93C114,-93 183.5,-93 183.5,-93 189.5,-93 195.5,-99 195.5,-105 195.5,-105 195.5,-227 195.5,-227 195.5,-233 189.5,-239 183.5,-239 183.5,-239 114,-239 114,-239 108,-239 102,-233 102,-227 102,-227 102,-105 102,-105 102,-99 108,-93 114,-93"/>
<text text-anchor="middle" x="148.75" y="-226.9" font-family="Helvetica,sans-Serif" font-weight="bold" font-size="9.00">listeners</text>
</g>
<!-- lib/deep&#45;clone.js -->
<g id="node1" class="node">
<title>lib/deep&#45;clone.js</title>
<g id="a_node1"><a xlink:href="lib/deep-clone.js" xlink:title="deep&#45;clone.js">
<path fill="#ffffcc" stroke="black" d="M462.06,-34.3C462.06,-34.3 405.43,-34.3 405.43,-34.3 402.33,-34.3 399.23,-31.2 399.23,-28.1 399.23,-28.1 399.23,-21.9 399.23,-21.9 399.23,-18.8 402.33,-15.7 405.43,-15.7 405.43,-15.7 462.06,-15.7 462.06,-15.7 465.16,-15.7 468.26,-18.8 468.26,-21.9 468.26,-21.9 468.26,-28.1 468.26,-28.1 468.26,-31.2 465.16,-34.3 462.06,-34.3"/>
<text text-anchor="middle" x="433.75" y="-22.3" font-family="Helvetica,sans-Serif" font-size="9.00">deep&#45;clone.js</text>
</a>
</g>
</g>
<!-- lib/logger.js -->
<g id="node2" class="node">
<title>lib/logger.js</title>
<g id="a_node2"><a xlink:href="lib/logger.js" xlink:title="logger.js">
<path fill="#ffffcc" stroke="black" d="M360.79,-34.3C360.79,-34.3 319.19,-34.3 319.19,-34.3 316.09,-34.3 312.99,-31.2 312.99,-28.1 312.99,-28.1 312.99,-21.9 312.99,-21.9 312.99,-18.8 316.09,-15.7 319.19,-15.7 319.19,-15.7 360.79,-15.7 360.79,-15.7 363.89,-15.7 366.99,-18.8 366.99,-21.9 366.99,-21.9 366.99,-28.1 366.99,-28.1 366.99,-31.2 363.89,-34.3 360.79,-34.3"/>
<text text-anchor="middle" x="339.99" y="-22.3" font-family="Helvetica,sans-Serif" font-size="9.00">logger.js</text>
</a>
</g>
</g>
<!-- lib/logger.js&#45;&gt;lib/deep&#45;clone.js -->
<g id="edge1" class="edge">
<title>lib/logger.js&#45;&gt;lib/deep&#45;clone.js</title>
<path fill="none" stroke="#000000" stroke-width="2" stroke-opacity="0.200000" d="M367.04,-25C375.13,-25 384.24,-25 393.05,-25"/>
<polygon fill="#000000" fill-opacity="0.200000" stroke="#000000" stroke-width="2" stroke-opacity="0.200000" points="393.08,-27.1 399.08,-25 393.08,-22.9 393.08,-27.1"/>
</g>
<!-- separated/searchable&#45;dictionary/src/data.js -->
<g id="node3" class="node">
<title>separated/searchable&#45;dictionary/src/data.js</title>
<g id="a_node3"><a xlink:href="separated/searchable-dictionary/src/data.js" xlink:title="data.js">
<path fill="#ffffcc" stroke="black" d="M360.79,-181.3C360.79,-181.3 319.19,-181.3 319.19,-181.3 316.09,-181.3 312.99,-178.2 312.99,-175.1 312.99,-175.1 312.99,-168.9 312.99,-168.9 312.99,-165.8 316.09,-162.7 319.19,-162.7 319.19,-162.7 360.79,-162.7 360.79,-162.7 363.89,-162.7 366.99,-165.8 366.99,-168.9 366.99,-168.9 366.99,-175.1 366.99,-175.1 366.99,-178.2 363.89,-181.3 360.79,-181.3"/>
<text text-anchor="middle" x="339.99" y="-169.3" font-family="Helvetica,sans-Serif" font-size="9.00">data.js</text>
</a>
</g>
</g>
<!-- separated/searchable&#45;dictionary/src/handlers/add&#45;word.js -->
<g id="node4" class="node">
<title>separated/searchable&#45;dictionary/src/handlers/add&#45;word.js</title>
<g id="a_node4"><a xlink:href="separated/searchable-dictionary/src/handlers/add-word.js" xlink:title="add&#45;word.js">
<path fill="#ffffcc" stroke="black" d="M275.05,-150.3C275.05,-150.3 225.44,-150.3 225.44,-150.3 222.34,-150.3 219.24,-147.2 219.24,-144.1 219.24,-144.1 219.24,-137.9 219.24,-137.9 219.24,-134.8 222.34,-131.7 225.44,-131.7 225.44,-131.7 275.05,-131.7 275.05,-131.7 278.15,-131.7 281.25,-134.8 281.25,-137.9 281.25,-137.9 281.25,-144.1 281.25,-144.1 281.25,-147.2 278.15,-150.3 275.05,-150.3"/>
<text text-anchor="middle" x="250.24" y="-138.3" font-family="Helvetica,sans-Serif" font-size="9.00">add&#45;word.js</text>
</a>
</g>
</g>
<!-- separated/searchable&#45;dictionary/src/handlers/add&#45;word.js&#45;&gt;lib/logger.js -->
<g id="edge2" class="edge">
<title>separated/searchable&#45;dictionary/src/handlers/add&#45;word.js&#45;&gt;lib/logger.js</title>
<path fill="none" stroke="#000000" stroke-width="2" stroke-opacity="0.200000" d="M281.58,-135.4C287.4,-133.06 292.94,-129.73 296.99,-125 309.65,-110.25 298.13,-100.19 304.99,-82 310.79,-66.62 320.69,-50.68 328.31,-39.58"/>
<polygon fill="#000000" fill-opacity="0.200000" stroke="#000000" stroke-width="2" stroke-opacity="0.200000" points="330.12,-40.66 331.84,-34.55 326.68,-38.25 330.12,-40.66"/>
</g>
<!-- separated/searchable&#45;dictionary/src/handlers/add&#45;word.js&#45;&gt;separated/searchable&#45;dictionary/src/data.js -->
<g id="edge3" class="edge">
<title>separated/searchable&#45;dictionary/src/handlers/add&#45;word.js&#45;&gt;separated/searchable&#45;dictionary/src/data.js</title>
<path fill="none" stroke="#000000" stroke-width="2" stroke-opacity="0.200000" d="M278.35,-150.45C284.48,-152.59 290.96,-154.87 296.99,-157 300.18,-158.13 303.51,-159.31 306.84,-160.49"/>
<polygon fill="#000000" fill-opacity="0.200000" stroke="#000000" stroke-width="2" stroke-opacity="0.200000" points="306.43,-162.58 312.79,-162.61 307.84,-158.62 306.43,-162.58"/>
</g>
<!-- separated/searchable&#45;dictionary/src/handlers/query&#45;words.js -->
<g id="node5" class="node">
<title>separated/searchable&#45;dictionary/src/handlers/query&#45;words.js</title>
<g id="a_node5"><a xlink:href="separated/searchable-dictionary/src/handlers/query-words.js" xlink:title="query&#45;words.js">
<path fill="#ffffcc" stroke="black" d="M281.54,-119.3C281.54,-119.3 218.94,-119.3 218.94,-119.3 215.84,-119.3 212.74,-116.2 212.74,-113.1 212.74,-113.1 212.74,-106.9 212.74,-106.9 212.74,-103.8 215.84,-100.7 218.94,-100.7 218.94,-100.7 281.54,-100.7 281.54,-100.7 284.64,-100.7 287.74,-103.8 287.74,-106.9 287.74,-106.9 287.74,-113.1 287.74,-113.1 287.74,-116.2 284.64,-119.3 281.54,-119.3"/>
<text text-anchor="middle" x="250.24" y="-107.3" font-family="Helvetica,sans-Serif" font-size="9.00">query&#45;words.js</text>
</a>
</g>
</g>
<!-- separated/searchable&#45;dictionary/src/handlers/query&#45;words.js&#45;&gt;lib/logger.js -->
<g id="edge4" class="edge">
<title>separated/searchable&#45;dictionary/src/handlers/query&#45;words.js&#45;&gt;lib/logger.js</title>
<path fill="none" stroke="#000000" stroke-width="2" stroke-opacity="0.200000" d="M260.97,-100.58C276.39,-85.64 306.53,-56.45 324.5,-39.04"/>
<polygon fill="#000000" fill-opacity="0.200000" stroke="#000000" stroke-width="2" stroke-opacity="0.200000" points="326.37,-40.15 329.22,-34.46 323.45,-37.13 326.37,-40.15"/>
</g>
<!-- separated/searchable&#45;dictionary/src/handlers/query&#45;words.js&#45;&gt;separated/searchable&#45;dictionary/src/data.js -->
<g id="edge5" class="edge">
<title>separated/searchable&#45;dictionary/src/handlers/query&#45;words.js&#45;&gt;separated/searchable&#45;dictionary/src/data.js</title>
<path fill="none" stroke="#000000" stroke-width="2" stroke-opacity="0.200000" d="M284.66,-119.49C288.97,-121.34 293.2,-123.5 296.99,-126 309.75,-134.42 321.22,-147.57 328.94,-157.66"/>
<polygon fill="#000000" fill-opacity="0.200000" stroke="#000000" stroke-width="2" stroke-opacity="0.200000" points="327.36,-159.05 332.62,-162.61 330.73,-156.54 327.36,-159.05"/>
</g>
<!-- separated/searchable&#45;dictionary/src/handlers/remove&#45;word.js -->
<g id="node6" class="node">
<title>separated/searchable&#45;dictionary/src/handlers/remove&#45;word.js</title>
<g id="a_node6"><a xlink:href="separated/searchable-dictionary/src/handlers/remove-word.js" xlink:title="remove&#45;word.js">
<path fill="#ffffcc" stroke="black" d="M283.04,-212.3C283.04,-212.3 217.45,-212.3 217.45,-212.3 214.35,-212.3 211.25,-209.2 211.25,-206.1 211.25,-206.1 211.25,-199.9 211.25,-199.9 211.25,-196.8 214.35,-193.7 217.45,-193.7 217.45,-193.7 283.04,-193.7 283.04,-193.7 286.14,-193.7 289.24,-196.8 289.24,-199.9 289.24,-199.9 289.24,-206.1 289.24,-206.1 289.24,-209.2 286.14,-212.3 283.04,-212.3"/>
<text text-anchor="middle" x="250.24" y="-200.3" font-family="Helvetica,sans-Serif" font-size="9.00">remove&#45;word.js</text>
</a>
</g>
</g>
<!-- separated/searchable&#45;dictionary/src/handlers/remove&#45;word.js&#45;&gt;lib/logger.js -->
<g id="edge6" class="edge">
<title>separated/searchable&#45;dictionary/src/handlers/remove&#45;word.js&#45;&gt;lib/logger.js</title>
<path fill="none" stroke="#000000" stroke-width="2" stroke-opacity="0.200000" d="M289.19,-194.02C292.16,-192.12 294.84,-189.8 296.99,-187 311.25,-168.44 297.92,-104.31 304.99,-82 309.96,-66.33 319.95,-50.42 327.82,-39.41"/>
<polygon fill="#000000" fill-opacity="0.200000" stroke="#000000" stroke-width="2" stroke-opacity="0.200000" points="329.62,-40.5 331.48,-34.42 326.24,-38.02 329.62,-40.5"/>
</g>
<!-- separated/searchable&#45;dictionary/src/handlers/remove&#45;word.js&#45;&gt;separated/searchable&#45;dictionary/src/data.js -->
<g id="edge7" class="edge">
<title>separated/searchable&#45;dictionary/src/handlers/remove&#45;word.js&#45;&gt;separated/searchable&#45;dictionary/src/data.js</title>
<path fill="none" stroke="#000000" stroke-width="2" stroke-opacity="0.200000" d="M278.35,-193.55C284.48,-191.41 290.96,-189.13 296.99,-187 300.18,-185.87 303.51,-184.69 306.84,-183.51"/>
<polygon fill="#000000" fill-opacity="0.200000" stroke="#000000" stroke-width="2" stroke-opacity="0.200000" points="307.84,-185.38 312.79,-181.39 306.43,-181.42 307.84,-185.38"/>
</g>
<!-- separated/searchable&#45;dictionary/src/handlers/reset.js -->
<g id="node7" class="node">
<title>separated/searchable&#45;dictionary/src/handlers/reset.js</title>
<g id="a_node7"><a xlink:href="separated/searchable-dictionary/src/handlers/reset.js" xlink:title="reset.js">
<path fill="#ffffcc" stroke="black" d="M271.04,-181.3C271.04,-181.3 229.44,-181.3 229.44,-181.3 226.34,-181.3 223.24,-178.2 223.24,-175.1 223.24,-175.1 223.24,-168.9 223.24,-168.9 223.24,-165.8 226.34,-162.7 229.44,-162.7 229.44,-162.7 271.04,-162.7 271.04,-162.7 274.14,-162.7 277.24,-165.8 277.24,-168.9 277.24,-168.9 277.24,-175.1 277.24,-175.1 277.24,-178.2 274.14,-181.3 271.04,-181.3"/>
<text text-anchor="middle" x="250.24" y="-169.3" font-family="Helvetica,sans-Serif" font-size="9.00">reset.js</text>
</a>
</g>
</g>
<!-- separated/searchable&#45;dictionary/src/handlers/reset.js&#45;&gt;lib/logger.js -->
<g id="edge8" class="edge">
<title>separated/searchable&#45;dictionary/src/handlers/reset.js&#45;&gt;lib/logger.js</title>
<path fill="none" stroke="#000000" stroke-width="2" stroke-opacity="0.200000" d="M277.59,-168.18C284.92,-165.83 292.18,-162.06 296.99,-156 307.27,-143.05 299.74,-97.69 304.99,-82 310.2,-66.41 320.17,-50.5 327.96,-39.46"/>
<polygon fill="#000000" fill-opacity="0.200000" stroke="#000000" stroke-width="2" stroke-opacity="0.200000" points="329.77,-40.55 331.59,-34.46 326.37,-38.08 329.77,-40.55"/>
</g>
<!-- separated/searchable&#45;dictionary/src/handlers/reset.js&#45;&gt;separated/searchable&#45;dictionary/src/data.js -->
<g id="edge9" class="edge">
<title>separated/searchable&#45;dictionary/src/handlers/reset.js&#45;&gt;separated/searchable&#45;dictionary/src/data.js</title>
<path fill="none" stroke="#000000" stroke-width="2" stroke-opacity="0.200000" d="M277.57,-172C286.76,-172 297.19,-172 306.8,-172"/>
<polygon fill="#000000" fill-opacity="0.200000" stroke="#000000" stroke-width="2" stroke-opacity="0.200000" points="306.98,-174.1 312.98,-172 306.98,-169.9 306.98,-174.1"/>
</g>
<!-- separated/searchable&#45;dictionary/src/init/index.js -->
<g id="node8" class="node">
<title>separated/searchable&#45;dictionary/src/init/index.js</title>
<g id="a_node8"><a xlink:href="separated/searchable-dictionary/src/init/index.js" xlink:title="index.js">
<path fill="#ffffcc" stroke="black" d="M87.8,-273.3C87.8,-273.3 46.2,-273.3 46.2,-273.3 43.1,-273.3 40,-270.2 40,-267.1 40,-267.1 40,-260.9 40,-260.9 40,-257.8 43.1,-254.7 46.2,-254.7 46.2,-254.7 87.8,-254.7 87.8,-254.7 90.9,-254.7 94,-257.8 94,-260.9 94,-260.9 94,-267.1 94,-267.1 94,-270.2 90.9,-273.3 87.8,-273.3"/>
<text text-anchor="middle" x="67" y="-261.3" font-family="Helvetica,sans-Serif" font-size="9.00">index.js</text>
</a>
</g>
</g>
<!-- separated/searchable&#45;dictionary/src/listeners/add&#45;word.js -->
<g id="node9" class="node">
<title>separated/searchable&#45;dictionary/src/listeners/add&#45;word.js</title>
<g id="a_node9"><a xlink:href="separated/searchable-dictionary/src/listeners/add-word.js" xlink:title="add&#45;word.js">
<path fill="#ffffcc" stroke="black" d="M173.55,-150.3C173.55,-150.3 123.94,-150.3 123.94,-150.3 120.84,-150.3 117.74,-147.2 117.74,-144.1 117.74,-144.1 117.74,-137.9 117.74,-137.9 117.74,-134.8 120.84,-131.7 123.94,-131.7 123.94,-131.7 173.55,-131.7 173.55,-131.7 176.65,-131.7 179.75,-134.8 179.75,-137.9 179.75,-137.9 179.75,-144.1 179.75,-144.1 179.75,-147.2 176.65,-150.3 173.55,-150.3"/>
<text text-anchor="middle" x="148.75" y="-138.3" font-family="Helvetica,sans-Serif" font-size="9.00">add&#45;word.js</text>
</a>
</g>
</g>
<!-- separated/searchable&#45;dictionary/src/init/index.js&#45;&gt;separated/searchable&#45;dictionary/src/listeners/add&#45;word.js -->
<g id="edge10" class="edge">
<title>separated/searchable&#45;dictionary/src/init/index.js&#45;&gt;separated/searchable&#45;dictionary/src/listeners/add&#45;word.js</title>
<path fill="none" stroke="#000000" stroke-width="2" stroke-opacity="0.200000" d="M68.29,-254.59C69.42,-234.04 74.97,-184.82 102,-157 104.84,-154.08 108.23,-151.69 111.88,-149.74"/>
<polygon fill="#000000" fill-opacity="0.200000" stroke="#000000" stroke-width="2" stroke-opacity="0.200000" points="112.82,-151.62 117.36,-147.18 111.04,-147.82 112.82,-151.62"/>
</g>
<!-- separated/searchable&#45;dictionary/src/listeners/query&#45;words.js -->
<g id="node10" class="node">
<title>separated/searchable&#45;dictionary/src/listeners/query&#45;words.js</title>
<g id="a_node10"><a xlink:href="separated/searchable-dictionary/src/listeners/query-words.js" xlink:title="query&#45;words.js">
<path fill="#ffffcc" stroke="black" d="M180.05,-119.3C180.05,-119.3 117.45,-119.3 117.45,-119.3 114.35,-119.3 111.25,-116.2 111.25,-113.1 111.25,-113.1 111.25,-106.9 111.25,-106.9 111.25,-103.8 114.35,-100.7 117.45,-100.7 117.45,-100.7 180.05,-100.7 180.05,-100.7 183.15,-100.7 186.25,-103.8 186.25,-106.9 186.25,-106.9 186.25,-113.1 186.25,-113.1 186.25,-116.2 183.15,-119.3 180.05,-119.3"/>
<text text-anchor="middle" x="148.75" y="-107.3" font-family="Helvetica,sans-Serif" font-size="9.00">query&#45;words.js</text>
</a>
</g>
</g>
<!-- separated/searchable&#45;dictionary/src/init/index.js&#45;&gt;separated/searchable&#45;dictionary/src/listeners/query&#45;words.js -->
<g id="edge11" class="edge">
<title>separated/searchable&#45;dictionary/src/init/index.js&#45;&gt;separated/searchable&#45;dictionary/src/listeners/query&#45;words.js</title>
<path fill="none" stroke="#000000" stroke-width="2" stroke-opacity="0.200000" d="M67.47,-254.57C66.63,-230.05 67.8,-163.61 102,-126 103.22,-124.66 104.56,-123.43 105.99,-122.3"/>
<polygon fill="#000000" fill-opacity="0.200000" stroke="#000000" stroke-width="2" stroke-opacity="0.200000" points="107.33,-123.93 111.16,-118.86 105,-120.44 107.33,-123.93"/>
</g>
<!-- separated/searchable&#45;dictionary/src/listeners/remove&#45;word.js -->
<g id="node11" class="node">
<title>separated/searchable&#45;dictionary/src/listeners/remove&#45;word.js</title>
<g id="a_node11"><a xlink:href="separated/searchable-dictionary/src/listeners/remove-word.js" xlink:title="remove&#45;word.js">
<path fill="#ffffcc" stroke="black" d="M181.54,-212.3C181.54,-212.3 115.95,-212.3 115.95,-212.3 112.85,-212.3 109.75,-209.2 109.75,-206.1 109.75,-206.1 109.75,-199.9 109.75,-199.9 109.75,-196.8 112.85,-193.7 115.95,-193.7 115.95,-193.7 181.54,-193.7 181.54,-193.7 184.64,-193.7 187.74,-196.8 187.74,-199.9 187.74,-199.9 187.74,-206.1 187.74,-206.1 187.74,-209.2 184.64,-212.3 181.54,-212.3"/>
<text text-anchor="middle" x="148.75" y="-200.3" font-family="Helvetica,sans-Serif" font-size="9.00">remove&#45;word.js</text>
</a>
</g>
</g>
<!-- separated/searchable&#45;dictionary/src/init/index.js&#45;&gt;separated/searchable&#45;dictionary/src/listeners/remove&#45;word.js -->
<g id="edge12" class="edge">
<title>separated/searchable&#45;dictionary/src/init/index.js&#45;&gt;separated/searchable&#45;dictionary/src/listeners/remove&#45;word.js</title>
<path fill="none" stroke="#000000" stroke-width="2" stroke-opacity="0.200000" d="M80.46,-254.47C93.92,-244.17 115.46,-227.7 130.53,-216.17"/>
<polygon fill="#000000" fill-opacity="0.200000" stroke="#000000" stroke-width="2" stroke-opacity="0.200000" points="131.88,-217.78 135.37,-212.46 129.33,-214.44 131.88,-217.78"/>
</g>
<!-- separated/searchable&#45;dictionary/src/listeners/reset.js -->
<g id="node12" class="node">
<title>separated/searchable&#45;dictionary/src/listeners/reset.js</title>
<g id="a_node12"><a xlink:href="separated/searchable-dictionary/src/listeners/reset.js" xlink:title="reset.js">
<path fill="#ffffcc" stroke="black" d="M169.55,-181.3C169.55,-181.3 127.95,-181.3 127.95,-181.3 124.85,-181.3 121.75,-178.2 121.75,-175.1 121.75,-175.1 121.75,-168.9 121.75,-168.9 121.75,-165.8 124.85,-162.7 127.95,-162.7 127.95,-162.7 169.55,-162.7 169.55,-162.7 172.65,-162.7 175.75,-165.8 175.75,-168.9 175.75,-168.9 175.75,-175.1 175.75,-175.1 175.75,-178.2 172.65,-181.3 169.55,-181.3"/>
<text text-anchor="middle" x="148.75" y="-169.3" font-family="Helvetica,sans-Serif" font-size="9.00">reset.js</text>
</a>
</g>
</g>
<!-- separated/searchable&#45;dictionary/src/init/index.js&#45;&gt;separated/searchable&#45;dictionary/src/listeners/reset.js -->
<g id="edge13" class="edge">
<title>separated/searchable&#45;dictionary/src/init/index.js&#45;&gt;separated/searchable&#45;dictionary/src/listeners/reset.js</title>
<path fill="none" stroke="#000000" stroke-width="2" stroke-opacity="0.200000" d="M69.69,-254.65C73.03,-238.76 81.99,-206.39 102,-188 105.92,-184.4 110.69,-181.6 115.66,-179.43"/>
<polygon fill="#000000" fill-opacity="0.200000" stroke="#000000" stroke-width="2" stroke-opacity="0.200000" points="116.7,-181.28 121.54,-177.15 115.19,-177.36 116.7,-181.28"/>
</g>
<!-- separated/searchable&#45;dictionary/src/init/log&#45;state.js -->
<g id="node13" class="node">
<title>separated/searchable&#45;dictionary/src/init/log&#45;state.js</title>
<g id="a_node13"><a xlink:href="separated/searchable-dictionary/src/init/log-state.js" xlink:title="log&#45;state.js">
<path fill="#ffffcc" stroke="black" d="M172.05,-273.3C172.05,-273.3 125.44,-273.3 125.44,-273.3 122.34,-273.3 119.24,-270.2 119.24,-267.1 119.24,-267.1 119.24,-260.9 119.24,-260.9 119.24,-257.8 122.34,-254.7 125.44,-254.7 125.44,-254.7 172.05,-254.7 172.05,-254.7 175.16,-254.7 178.26,-257.8 178.26,-260.9 178.26,-260.9 178.26,-267.1 178.26,-267.1 178.26,-270.2 175.16,-273.3 172.05,-273.3"/>
<text text-anchor="middle" x="148.75" y="-261.3" font-family="Helvetica,sans-Serif" font-size="9.00">log&#45;state.js</text>
</a>
</g>
</g>
<!-- separated/searchable&#45;dictionary/src/init/index.js&#45;&gt;separated/searchable&#45;dictionary/src/init/log&#45;state.js -->
<g id="edge14" class="edge">
<title>separated/searchable&#45;dictionary/src/init/index.js&#45;&gt;separated/searchable&#45;dictionary/src/init/log&#45;state.js</title>
<path fill="none" stroke="#000000" stroke-width="2" stroke-opacity="0.200000" d="M94.11,-264C100.11,-264 106.58,-264 112.88,-264"/>
<polygon fill="#000000" fill-opacity="0.200000" stroke="#000000" stroke-width="2" stroke-opacity="0.200000" points="113.1,-266.1 119.1,-264 113.1,-261.9 113.1,-266.1"/>
</g>
<!-- separated/searchable&#45;dictionary/src/listeners/add&#45;word.js&#45;&gt;separated/searchable&#45;dictionary/src/handlers/add&#45;word.js -->
<g id="edge17" class="edge">
<title>separated/searchable&#45;dictionary/src/listeners/add&#45;word.js&#45;&gt;separated/searchable&#45;dictionary/src/handlers/add&#45;word.js</title>
<path fill="none" stroke="#000000" stroke-width="2" stroke-opacity="0.200000" d="M179.87,-141C190.29,-141 202.08,-141 212.95,-141"/>
<polygon fill="#000000" fill-opacity="0.200000" stroke="#000000" stroke-width="2" stroke-opacity="0.200000" points="213.22,-143.1 219.22,-141 213.22,-138.9 213.22,-143.1"/>
</g>
<!-- separated/searchable&#45;dictionary/src/listeners/query&#45;words.js&#45;&gt;separated/searchable&#45;dictionary/src/handlers/query&#45;words.js -->
<g id="edge18" class="edge">
<title>separated/searchable&#45;dictionary/src/listeners/query&#45;words.js&#45;&gt;separated/searchable&#45;dictionary/src/handlers/query&#45;words.js</title>
<path fill="none" stroke="#000000" stroke-width="2" stroke-opacity="0.200000" d="M186.23,-110C192.86,-110 199.82,-110 206.6,-110"/>
<polygon fill="#000000" fill-opacity="0.200000" stroke="#000000" stroke-width="2" stroke-opacity="0.200000" points="206.76,-112.1 212.76,-110 206.76,-107.9 206.76,-112.1"/>
</g>
<!-- separated/searchable&#45;dictionary/src/listeners/remove&#45;word.js&#45;&gt;separated/searchable&#45;dictionary/src/handlers/remove&#45;word.js -->
<g id="edge19" class="edge">
<title>separated/searchable&#45;dictionary/src/listeners/remove&#45;word.js&#45;&gt;separated/searchable&#45;dictionary/src/handlers/remove&#45;word.js</title>
<path fill="none" stroke="#000000" stroke-width="2" stroke-opacity="0.200000" d="M187.65,-203C193.37,-203 199.32,-203 205.17,-203"/>
<polygon fill="#000000" fill-opacity="0.200000" stroke="#000000" stroke-width="2" stroke-opacity="0.200000" points="205.45,-205.1 211.45,-203 205.45,-200.9 205.45,-205.1"/>
</g>
<!-- separated/searchable&#45;dictionary/src/listeners/reset.js&#45;&gt;separated/searchable&#45;dictionary/src/handlers/reset.js -->
<g id="edge20" class="edge">
<title>separated/searchable&#45;dictionary/src/listeners/reset.js&#45;&gt;separated/searchable&#45;dictionary/src/handlers/reset.js</title>
<path fill="none" stroke="#000000" stroke-width="2" stroke-opacity="0.200000" d="M175.89,-172C188.36,-172 203.4,-172 216.61,-172"/>
<polygon fill="#000000" fill-opacity="0.200000" stroke="#000000" stroke-width="2" stroke-opacity="0.200000" points="216.93,-174.1 222.93,-172 216.93,-169.9 216.93,-174.1"/>
</g>
<!-- separated/searchable&#45;dictionary/src/init/log&#45;state.js&#45;&gt;lib/logger.js -->
<g id="edge15" class="edge">
<title>separated/searchable&#45;dictionary/src/init/log&#45;state.js&#45;&gt;lib/logger.js</title>
<path fill="none" stroke="#000000" stroke-width="2" stroke-opacity="0.200000" d="M178.39,-255.9C185.06,-252.65 191.39,-248.16 195.5,-242 214.25,-213.85 184.73,-118.14 203.5,-90 226.83,-55 274.53,-38.3 306.64,-30.74"/>
<polygon fill="#000000" fill-opacity="0.200000" stroke="#000000" stroke-width="2" stroke-opacity="0.200000" points="307.45,-32.71 312.84,-29.34 306.53,-28.61 307.45,-32.71"/>
</g>
<!-- separated/searchable&#45;dictionary/src/init/log&#45;state.js&#45;&gt;separated/searchable&#45;dictionary/src/data.js -->
<g id="edge16" class="edge">
<title>separated/searchable&#45;dictionary/src/init/log&#45;state.js&#45;&gt;separated/searchable&#45;dictionary/src/data.js</title>
<path fill="none" stroke="#000000" stroke-width="2" stroke-opacity="0.200000" d="M178.32,-266.6C210,-268.02 261.32,-265.85 296.99,-242 316.34,-229.07 328.14,-203.92 334.12,-187.56"/>
<polygon fill="#000000" fill-opacity="0.200000" stroke="#000000" stroke-width="2" stroke-opacity="0.200000" points="336.22,-187.91 336.2,-181.55 332.26,-186.54 336.22,-187.91"/>
</g>
</g>
</svg>
