<?xml version="1.0" encoding="UTF-8" standalone="no"?>
<!DOCTYPE svg PUBLIC "-//W3C//DTD SVG 1.1//EN"
 "http://www.w3.org/Graphics/SVG/1.1/DTD/svg11.dtd">
<!-- Generated by graphviz version 2.44.0 (20200408.0750)
 -->
<!-- Title: dependency&#45;cruiser output Pages: 1 -->
<svg width="185pt" height="240pt"
 viewBox="0.00 0.00 184.51 240.00" xmlns="http://www.w3.org/2000/svg" xmlns:xlink="http://www.w3.org/1999/xlink">
<g id="graph0" class="graph" transform="scale(1 1) rotate(0) translate(4 236)">
<title>dependency&#45;cruiser output</title>
<polygon fill="white" stroke="transparent" points="-4,4 -4,-236 180.51,-236 180.51,4 -4,4"/>
<g id="clust1" class="cluster">
<title>cluster_es5&#45;vs&#45;es6</title>
<path fill="#ffffff" stroke="black" stroke-width="2" d="M12,-8C12,-8 164.51,-8 164.51,-8 170.51,-8 176.51,-14 176.51,-20 176.51,-20 176.51,-212 176.51,-212 176.51,-218 170.51,-224 164.51,-224 164.51,-224 12,-224 12,-224 6,-224 0,-218 0,-212 0,-212 0,-20 0,-20 0,-14 6,-8 12,-8"/>
<text text-anchor="middle" x="88.25" y="-211.9" font-family="Helvetica,sans-Serif" font-weight="bold" font-size="9.00">es5&#45;vs&#45;es6</text>
</g>
<g id="clust2" class="cluster">
<title>cluster_es5&#45;vs&#45;es6/reverse&#45;or&#45;devowel&#45;es5&#45;expressions</title>
<path fill="#ffffff" stroke="black" stroke-width="2" d="M20,-16C20,-16 156.51,-16 156.51,-16 162.51,-16 168.51,-22 168.51,-28 168.51,-28 168.51,-185 168.51,-185 168.51,-191 162.51,-197 156.51,-197 156.51,-197 20,-197 20,-197 14,-197 8,-191 8,-185 8,-185 8,-28 8,-28 8,-22 14,-16 20,-16"/>
<text text-anchor="middle" x="88.25" y="-184.9" font-family="Helvetica,sans-Serif" font-weight="bold" font-size="9.00">reverse&#45;or&#45;devowel&#45;es5&#45;expressions</text>
</g>
<g id="clust3" class="cluster">
<title>cluster_es5&#45;vs&#45;es6/reverse&#45;or&#45;devowel&#45;es5&#45;expressions/src</title>
<path fill="#ffffff" stroke="black" stroke-width="2" d="M62,-24C62,-24 113.51,-24 113.51,-24 119.51,-24 125.51,-30 125.51,-36 125.51,-36 125.51,-158 125.51,-158 125.51,-164 119.51,-170 113.51,-170 113.51,-170 62,-170 62,-170 56,-170 50,-164 50,-158 50,-158 50,-36 50,-36 50,-30 56,-24 62,-24"/>
<text text-anchor="middle" x="87.75" y="-157.9" font-family="Helvetica,sans-Serif" font-weight="bold" font-size="9.00">src</text>
</g>
<!-- es5&#45;vs&#45;es6/reverse&#45;or&#45;devowel&#45;es5&#45;expressions/src/handlers.js -->
<g id="node1" class="node">
<title>es5&#45;vs&#45;es6/reverse&#45;or&#45;devowel&#45;es5&#45;expressions/src/handlers.js</title>
<g id="a_node1"><a xlink:href="es5-vs-es6/reverse-or-devowel-es5-expressions/src/handlers.js" xlink:title="handlers.js">
<path fill="#ccffcc" stroke="black" d="M111.06,-143.3C111.06,-143.3 64.45,-143.3 64.45,-143.3 61.34,-143.3 58.24,-140.2 58.24,-137.1 58.24,-137.1 58.24,-130.9 58.24,-130.9 58.24,-127.8 61.34,-124.7 64.45,-124.7 64.45,-124.7 111.06,-124.7 111.06,-124.7 114.16,-124.7 117.26,-127.8 117.26,-130.9 117.26,-130.9 117.26,-137.1 117.26,-137.1 117.26,-140.2 114.16,-143.3 111.06,-143.3"/>
<text text-anchor="middle" x="87.75" y="-131.3" font-family="Helvetica,sans-Serif" font-size="9.00">handlers.js</text>
</a>
</g>
</g>
<!-- es5&#45;vs&#45;es6/reverse&#45;or&#45;devowel&#45;es5&#45;expressions/src/init.js -->
<g id="node2" class="node">
<title>es5&#45;vs&#45;es6/reverse&#45;or&#45;devowel&#45;es5&#45;expressions/src/init.js</title>
<g id="a_node2"><a xlink:href="es5-vs-es6/reverse-or-devowel-es5-expressions/src/init.js" xlink:title="init.js">
<path fill="#ccffcc" stroke="black" d="M108.55,-112.3C108.55,-112.3 66.95,-112.3 66.95,-112.3 63.85,-112.3 60.75,-109.2 60.75,-106.1 60.75,-106.1 60.75,-99.9 60.75,-99.9 60.75,-96.8 63.85,-93.7 66.95,-93.7 66.95,-93.7 108.55,-93.7 108.55,-93.7 111.65,-93.7 114.75,-96.8 114.75,-99.9 114.75,-99.9 114.75,-106.1 114.75,-106.1 114.75,-109.2 111.65,-112.3 108.55,-112.3"/>
<text text-anchor="middle" x="87.75" y="-100.3" font-family="Helvetica,sans-Serif" font-size="9.00">init.js</text>
</a>
</g>
</g>
<!-- es5&#45;vs&#45;es6/reverse&#45;or&#45;devowel&#45;es5&#45;expressions/src/listeners.js -->
<g id="node3" class="node">
<title>es5&#45;vs&#45;es6/reverse&#45;or&#45;devowel&#45;es5&#45;expressions/src/listeners.js</title>
<g id="a_node3"><a xlink:href="es5-vs-es6/reverse-or-devowel-es5-expressions/src/listeners.js" xlink:title="listeners.js">
<path fill="#ccffcc" stroke="black" d="M111.05,-81.3C111.05,-81.3 64.45,-81.3 64.45,-81.3 61.35,-81.3 58.25,-78.2 58.25,-75.1 58.25,-75.1 58.25,-68.9 58.25,-68.9 58.25,-65.8 61.35,-62.7 64.45,-62.7 64.45,-62.7 111.05,-62.7 111.05,-62.7 114.15,-62.7 117.25,-65.8 117.25,-68.9 117.25,-68.9 117.25,-75.1 117.25,-75.1 117.25,-78.2 114.15,-81.3 111.05,-81.3"/>
<text text-anchor="middle" x="87.75" y="-69.3" font-family="Helvetica,sans-Serif" font-size="9.00">listeners.js</text>
</a>
</g>
</g>
<!-- es5&#45;vs&#45;es6/reverse&#45;or&#45;devowel&#45;es5&#45;expressions/src/utils.js -->
<g id="node4" class="node">
<title>es5&#45;vs&#45;es6/reverse&#45;or&#45;devowel&#45;es5&#45;expressions/src/utils.js</title>
<g id="a_node4"><a xlink:href="es5-vs-es6/reverse-or-devowel-es5-expressions/src/utils.js" xlink:title="utils.js">
<path fill="#ccffcc" stroke="black" d="M108.55,-50.3C108.55,-50.3 66.95,-50.3 66.95,-50.3 63.85,-50.3 60.75,-47.2 60.75,-44.1 60.75,-44.1 60.75,-37.9 60.75,-37.9 60.75,-34.8 63.85,-31.7 66.95,-31.7 66.95,-31.7 108.55,-31.7 108.55,-31.7 111.65,-31.7 114.75,-34.8 114.75,-37.9 114.75,-37.9 114.75,-44.1 114.75,-44.1 114.75,-47.2 111.65,-50.3 108.55,-50.3"/>
<text text-anchor="middle" x="87.75" y="-38.3" font-family="Helvetica,sans-Serif" font-size="9.00">utils.js</text>
</a>
</g>
</g>
</g>
</svg>
