<?xml version="1.0" encoding="UTF-8" standalone="no"?>
<!DOCTYPE svg PUBLIC "-//W3C//DTD SVG 1.1//EN"
 "http://www.w3.org/Graphics/SVG/1.1/DTD/svg11.dtd">
<!-- Generated by graphviz version 2.44.0 (20200408.0750)
 -->
<!-- Title: dependency&#45;cruiser output Pages: 1 -->
<svg width="370pt" height="248pt"
 viewBox="0.00 0.00 370.01 248.00" xmlns="http://www.w3.org/2000/svg" xmlns:xlink="http://www.w3.org/1999/xlink">
<g id="graph0" class="graph" transform="scale(1 1) rotate(0) translate(4 244)">
<title>dependency&#45;cruiser output</title>
<polygon fill="white" stroke="transparent" points="-4,4 -4,-244 366.01,-244 366.01,4 -4,4"/>
<g id="clust1" class="cluster">
<title>cluster_refactoring</title>
<path fill="#ffffff" stroke="black" stroke-width="2" d="M20,-8C20,-8 342.01,-8 342.01,-8 348.01,-8 354.01,-14 354.01,-20 354.01,-20 354.01,-220 354.01,-220 354.01,-226 348.01,-232 342.01,-232 342.01,-232 20,-232 20,-232 14,-232 8,-226 8,-220 8,-220 8,-20 8,-20 8,-14 14,-8 20,-8"/>
<text text-anchor="middle" x="181" y="-219.9" font-family="Helvetica,sans-Serif" font-weight="bold" font-size="9.00">refactoring</text>
</g>
<g id="clust2" class="cluster">
<title>cluster_refactoring/exercises</title>
<path fill="#ffffff" stroke="black" stroke-width="2" d="M28,-16C28,-16 334.01,-16 334.01,-16 340.01,-16 346.01,-22 346.01,-28 346.01,-28 346.01,-193 346.01,-193 346.01,-199 340.01,-205 334.01,-205 334.01,-205 28,-205 28,-205 22,-205 16,-199 16,-193 16,-193 16,-28 16,-28 16,-22 22,-16 28,-16"/>
<text text-anchor="middle" x="181" y="-192.9" font-family="Helvetica,sans-Serif" font-weight="bold" font-size="9.00">exercises</text>
</g>
<g id="clust3" class="cluster">
<title>cluster_refactoring/exercises/prompt&#45;alert&#45;confirm</title>
<path fill="#ffffff" stroke="black" stroke-width="2" d="M36,-24C36,-24 326.01,-24 326.01,-24 332.01,-24 338.01,-30 338.01,-36 338.01,-36 338.01,-166 338.01,-166 338.01,-172 332.01,-178 326.01,-178 326.01,-178 36,-178 36,-178 30,-178 24,-172 24,-166 24,-166 24,-36 24,-36 24,-30 30,-24 36,-24"/>
<text text-anchor="middle" x="181" y="-165.9" font-family="Helvetica,sans-Serif" font-weight="bold" font-size="9.00">prompt&#45;alert&#45;confirm</text>
</g>
<g id="clust4" class="cluster">
<title>cluster_refactoring/exercises/prompt&#45;alert&#45;confirm/cap&#45;swap</title>
<path fill="#ffffff" stroke="black" stroke-width="2" d="M44,-32C44,-32 318.01,-32 318.01,-32 324.01,-32 330.01,-38 330.01,-44 330.01,-44 330.01,-139 330.01,-139 330.01,-145 324.01,-151 318.01,-151 318.01,-151 44,-151 44,-151 38,-151 32,-145 32,-139 32,-139 32,-44 32,-44 32,-38 38,-32 44,-32"/>
<text text-anchor="middle" x="181" y="-138.9" font-family="Helvetica,sans-Serif" font-weight="bold" font-size="9.00">cap&#45;swap</text>
</g>
<g id="clust5" class="cluster">
<title>cluster_refactoring/exercises/prompt&#45;alert&#45;confirm/cap&#45;swap/src</title>
<path fill="#ffffff" stroke="black" stroke-width="2" d="M52,-40C52,-40 310.01,-40 310.01,-40 316.01,-40 322.01,-46 322.01,-52 322.01,-52 322.01,-112 322.01,-112 322.01,-118 316.01,-124 310.01,-124 310.01,-124 52,-124 52,-124 46,-124 40,-118 40,-112 40,-112 40,-52 40,-52 40,-46 46,-40 52,-40"/>
<text text-anchor="middle" x="181" y="-111.9" font-family="Helvetica,sans-Serif" font-weight="bold" font-size="9.00">src</text>
</g>
<!-- refactoring/exercises/prompt&#45;alert&#45;confirm/cap&#45;swap/src/handler.js -->
<g id="node1" class="node">
<title>refactoring/exercises/prompt&#45;alert&#45;confirm/cap&#45;swap/src/handler.js</title>
<g id="a_node1"><a xlink:href="refactoring/exercises/prompt-alert-confirm/cap-swap/src/handler.js" xlink:title="handler.js">
<path fill="#ffffcc" stroke="black" d="M235.81,-97.3C235.81,-97.3 193.2,-97.3 193.2,-97.3 190.1,-97.3 187,-94.2 187,-91.1 187,-91.1 187,-84.9 187,-84.9 187,-81.8 190.1,-78.7 193.2,-78.7 193.2,-78.7 235.81,-78.7 235.81,-78.7 238.91,-78.7 242.01,-81.8 242.01,-84.9 242.01,-84.9 242.01,-91.1 242.01,-91.1 242.01,-94.2 238.91,-97.3 235.81,-97.3"/>
<text text-anchor="middle" x="214.5" y="-85.3" font-family="Helvetica,sans-Serif" font-size="9.00">handler.js</text>
</a>
</g>
</g>
<!-- refactoring/exercises/prompt&#45;alert&#45;confirm/cap&#45;swap/src/logic.js -->
<g id="node2" class="node">
<title>refactoring/exercises/prompt&#45;alert&#45;confirm/cap&#45;swap/src/logic.js</title>
<g id="a_node2"><a xlink:href="refactoring/exercises/prompt-alert-confirm/cap-swap/src/logic.js" xlink:title="logic.js">
<path fill="#ffffcc" stroke="black" d="M307.81,-81.3C307.81,-81.3 266.21,-81.3 266.21,-81.3 263.11,-81.3 260.01,-78.2 260.01,-75.1 260.01,-75.1 260.01,-68.9 260.01,-68.9 260.01,-65.8 263.11,-62.7 266.21,-62.7 266.21,-62.7 307.81,-62.7 307.81,-62.7 310.91,-62.7 314.01,-65.8 314.01,-68.9 314.01,-68.9 314.01,-75.1 314.01,-75.1 314.01,-78.2 310.91,-81.3 307.81,-81.3"/>
<text text-anchor="middle" x="287.01" y="-69.3" font-family="Helvetica,sans-Serif" font-size="9.00">logic.js</text>
</a>
</g>
</g>
<!-- refactoring/exercises/prompt&#45;alert&#45;confirm/cap&#45;swap/src/handler.js&#45;&gt;refactoring/exercises/prompt&#45;alert&#45;confirm/cap&#45;swap/src/logic.js -->
<g id="edge1" class="edge">
<title>refactoring/exercises/prompt&#45;alert&#45;confirm/cap&#45;swap/src/handler.js&#45;&gt;refactoring/exercises/prompt&#45;alert&#45;confirm/cap&#45;swap/src/logic.js</title>
<path fill="none" stroke="#000000" stroke-width="2" stroke-opacity="0.200000" d="M242.16,-81.95C245.94,-81.09 249.87,-80.2 253.75,-79.32"/>
<polygon fill="#000000" fill-opacity="0.200000" stroke="#000000" stroke-width="2" stroke-opacity="0.200000" points="254.39,-81.33 259.78,-77.95 253.47,-77.23 254.39,-81.33"/>
</g>
<!-- refactoring/exercises/prompt&#45;alert&#45;confirm/cap&#45;swap/src/init.js -->
<g id="node3" class="node">
<title>refactoring/exercises/prompt&#45;alert&#45;confirm/cap&#45;swap/src/init.js</title>
<g id="a_node3"><a xlink:href="refactoring/exercises/prompt-alert-confirm/cap-swap/src/init.js" xlink:title="init.js">
<path fill="#ffffcc" stroke="black" d="M95.8,-97.3C95.8,-97.3 54.2,-97.3 54.2,-97.3 51.1,-97.3 48,-94.2 48,-91.1 48,-91.1 48,-84.9 48,-84.9 48,-81.8 51.1,-78.7 54.2,-78.7 54.2,-78.7 95.8,-78.7 95.8,-78.7 98.9,-78.7 102,-81.8 102,-84.9 102,-84.9 102,-91.1 102,-91.1 102,-94.2 98.9,-97.3 95.8,-97.3"/>
<text text-anchor="middle" x="75" y="-85.3" font-family="Helvetica,sans-Serif" font-size="9.00">init.js</text>
</a>
</g>
</g>
<!-- refactoring/exercises/prompt&#45;alert&#45;confirm/cap&#45;swap/src/listener.js -->
<g id="node4" class="node">
<title>refactoring/exercises/prompt&#45;alert&#45;confirm/cap&#45;swap/src/listener.js</title>
<g id="a_node4"><a xlink:href="refactoring/exercises/prompt-alert-confirm/cap-swap/src/listener.js" xlink:title="listener.js">
<path fill="#ffffcc" stroke="black" d="M162.8,-97.3C162.8,-97.3 121.2,-97.3 121.2,-97.3 118.1,-97.3 115,-94.2 115,-91.1 115,-91.1 115,-84.9 115,-84.9 115,-81.8 118.1,-78.7 121.2,-78.7 121.2,-78.7 162.8,-78.7 162.8,-78.7 165.9,-78.7 169,-81.8 169,-84.9 169,-84.9 169,-91.1 169,-91.1 169,-94.2 165.9,-97.3 162.8,-97.3"/>
<text text-anchor="middle" x="142" y="-85.3" font-family="Helvetica,sans-Serif" font-size="9.00">listener.js</text>
</a>
</g>
</g>
<!-- refactoring/exercises/prompt&#45;alert&#45;confirm/cap&#45;swap/src/init.js&#45;&gt;refactoring/exercises/prompt&#45;alert&#45;confirm/cap&#45;swap/src/listener.js -->
<g id="edge2" class="edge">
<title>refactoring/exercises/prompt&#45;alert&#45;confirm/cap&#45;swap/src/init.js&#45;&gt;refactoring/exercises/prompt&#45;alert&#45;confirm/cap&#45;swap/src/listener.js</title>
<path fill="none" stroke="#000000" stroke-width="2" stroke-opacity="0.200000" d="M102.06,-88C104.32,-88 106.61,-88 108.9,-88"/>
<polygon fill="#000000" fill-opacity="0.200000" stroke="#000000" stroke-width="2" stroke-opacity="0.200000" points="108.93,-90.1 114.93,-88 108.93,-85.9 108.93,-90.1"/>
</g>
<!-- refactoring/exercises/prompt&#45;alert&#45;confirm/cap&#45;swap/src/listener.js&#45;&gt;refactoring/exercises/prompt&#45;alert&#45;confirm/cap&#45;swap/src/handler.js -->
<g id="edge3" class="edge">
<title>refactoring/exercises/prompt&#45;alert&#45;confirm/cap&#45;swap/src/listener.js&#45;&gt;refactoring/exercises/prompt&#45;alert&#45;confirm/cap&#45;swap/src/handler.js</title>
<path fill="none" stroke="#000000" stroke-width="2" stroke-opacity="0.200000" d="M169.25,-88C173.06,-88 177.01,-88 180.92,-88"/>
<polygon fill="#000000" fill-opacity="0.200000" stroke="#000000" stroke-width="2" stroke-opacity="0.200000" points="180.99,-90.1 186.99,-88 180.99,-85.9 180.99,-90.1"/>
</g>
<!-- refactoring/exercises/prompt&#45;alert&#45;confirm/cap&#45;swap/src/logic.spec.js -->
<g id="node5" class="node">
<title>refactoring/exercises/prompt&#45;alert&#45;confirm/cap&#45;swap/src/logic.spec.js</title>
<g id="a_node5"><a xlink:href="refactoring/exercises/prompt-alert-confirm/cap-swap/src/logic.spec.js" xlink:title="logic.spec.js">
<path fill="#ffffcc" stroke="black" d="M240.81,-66.3C240.81,-66.3 188.2,-66.3 188.2,-66.3 185.1,-66.3 182,-63.2 182,-60.1 182,-60.1 182,-53.9 182,-53.9 182,-50.8 185.1,-47.7 188.2,-47.7 188.2,-47.7 240.81,-47.7 240.81,-47.7 243.91,-47.7 247.01,-50.8 247.01,-53.9 247.01,-53.9 247.01,-60.1 247.01,-60.1 247.01,-63.2 243.91,-66.3 240.81,-66.3"/>
<text text-anchor="middle" x="214.5" y="-54.3" font-family="Helvetica,sans-Serif" font-size="9.00">logic.spec.js</text>
</a>
</g>
</g>
<!-- refactoring/exercises/prompt&#45;alert&#45;confirm/cap&#45;swap/src/logic.spec.js&#45;&gt;refactoring/exercises/prompt&#45;alert&#45;confirm/cap&#45;swap/src/logic.js -->
<g id="edge4" class="edge">
<title>refactoring/exercises/prompt&#45;alert&#45;confirm/cap&#45;swap/src/logic.spec.js&#45;&gt;refactoring/exercises/prompt&#45;alert&#45;confirm/cap&#45;swap/src/logic.js</title>
<path fill="none" stroke="#000000" stroke-width="2" stroke-opacity="0.200000" d="M247.04,-63.71C249.3,-64.19 251.58,-64.68 253.84,-65.16"/>
<polygon fill="#000000" fill-opacity="0.200000" stroke="#000000" stroke-width="2" stroke-opacity="0.200000" points="253.46,-67.22 259.77,-66.42 254.34,-63.12 253.46,-67.22"/>
</g>
</g>
</svg>
