<?xml version="1.0" encoding="UTF-8" standalone="no"?>
<!DOCTYPE svg PUBLIC "-//W3C//DTD SVG 1.1//EN"
 "http://www.w3.org/Graphics/SVG/1.1/DTD/svg11.dtd">
<!-- Generated by graphviz version 2.44.0 (20200408.0750)
 -->
<!-- Title: dependency&#45;cruiser output Pages: 1 -->
<svg width="141pt" height="240pt"
 viewBox="0.00 0.00 140.51 240.00" xmlns="http://www.w3.org/2000/svg" xmlns:xlink="http://www.w3.org/1999/xlink">
<g id="graph0" class="graph" transform="scale(1 1) rotate(0) translate(4 236)">
<title>dependency&#45;cruiser output</title>
<polygon fill="white" stroke="transparent" points="-4,4 -4,-236 136.51,-236 136.51,4 -4,4"/>
<g id="clust1" class="cluster">
<title>cluster_es5&#45;vs&#45;es6</title>
<path fill="#ffffff" stroke="black" stroke-width="2" d="M12,-8C12,-8 120.51,-8 120.51,-8 126.51,-8 132.51,-14 132.51,-20 132.51,-20 132.51,-212 132.51,-212 132.51,-218 126.51,-224 120.51,-224 120.51,-224 12,-224 12,-224 6,-224 0,-218 0,-212 0,-212 0,-20 0,-20 0,-14 6,-8 12,-8"/>
<text text-anchor="middle" x="66.25" y="-211.9" font-family="Helvetica,sans-Serif" font-weight="bold" font-size="9.00">es5&#45;vs&#45;es6</text>
</g>
<g id="clust2" class="cluster">
<title>cluster_es5&#45;vs&#45;es6/remover&#45;es5&#45;expressions</title>
<path fill="#ffffff" stroke="black" stroke-width="2" d="M20,-16C20,-16 112.51,-16 112.51,-16 118.51,-16 124.51,-22 124.51,-28 124.51,-28 124.51,-185 124.51,-185 124.51,-191 118.51,-197 112.51,-197 112.51,-197 20,-197 20,-197 14,-197 8,-191 8,-185 8,-185 8,-28 8,-28 8,-22 14,-16 20,-16"/>
<text text-anchor="middle" x="66.25" y="-184.9" font-family="Helvetica,sans-Serif" font-weight="bold" font-size="9.00">remover&#45;es5&#45;expressions</text>
</g>
<g id="clust3" class="cluster">
<title>cluster_es5&#45;vs&#45;es6/remover&#45;es5&#45;expressions/src</title>
<path fill="#ffffff" stroke="black" stroke-width="2" d="M40,-24C40,-24 91.51,-24 91.51,-24 97.51,-24 103.51,-30 103.51,-36 103.51,-36 103.51,-158 103.51,-158 103.51,-164 97.51,-170 91.51,-170 91.51,-170 40,-170 40,-170 34,-170 28,-164 28,-158 28,-158 28,-36 28,-36 28,-30 34,-24 40,-24"/>
<text text-anchor="middle" x="65.75" y="-157.9" font-family="Helvetica,sans-Serif" font-weight="bold" font-size="9.00">src</text>
</g>
<!-- es5&#45;vs&#45;es6/remover&#45;es5&#45;expressions/src/data.js -->
<g id="node1" class="node">
<title>es5&#45;vs&#45;es6/remover&#45;es5&#45;expressions/src/data.js</title>
<g id="a_node1"><a xlink:href="es5-vs-es6/remover-es5-expressions/src/data.js" xlink:title="data.js">
<path fill="#ccffcc" stroke="black" d="M86.55,-143.3C86.55,-143.3 44.95,-143.3 44.95,-143.3 41.85,-143.3 38.75,-140.2 38.75,-137.1 38.75,-137.1 38.75,-130.9 38.75,-130.9 38.75,-127.8 41.85,-124.7 44.95,-124.7 44.95,-124.7 86.55,-124.7 86.55,-124.7 89.65,-124.7 92.75,-127.8 92.75,-130.9 92.75,-130.9 92.75,-137.1 92.75,-137.1 92.75,-140.2 89.65,-143.3 86.55,-143.3"/>
<text text-anchor="middle" x="65.75" y="-131.3" font-family="Helvetica,sans-Serif" font-size="9.00">data.js</text>
</a>
</g>
</g>
<!-- es5&#45;vs&#45;es6/remover&#45;es5&#45;expressions/src/handlers.js -->
<g id="node2" class="node">
<title>es5&#45;vs&#45;es6/remover&#45;es5&#45;expressions/src/handlers.js</title>
<g id="a_node2"><a xlink:href="es5-vs-es6/remover-es5-expressions/src/handlers.js" xlink:title="handlers.js">
<path fill="#ccffcc" stroke="black" d="M89.06,-112.3C89.06,-112.3 42.45,-112.3 42.45,-112.3 39.34,-112.3 36.24,-109.2 36.24,-106.1 36.24,-106.1 36.24,-99.9 36.24,-99.9 36.24,-96.8 39.34,-93.7 42.45,-93.7 42.45,-93.7 89.06,-93.7 89.06,-93.7 92.16,-93.7 95.26,-96.8 95.26,-99.9 95.26,-99.9 95.26,-106.1 95.26,-106.1 95.26,-109.2 92.16,-112.3 89.06,-112.3"/>
<text text-anchor="middle" x="65.75" y="-100.3" font-family="Helvetica,sans-Serif" font-size="9.00">handlers.js</text>
</a>
</g>
</g>
<!-- es5&#45;vs&#45;es6/remover&#45;es5&#45;expressions/src/init.js -->
<g id="node3" class="node">
<title>es5&#45;vs&#45;es6/remover&#45;es5&#45;expressions/src/init.js</title>
<g id="a_node3"><a xlink:href="es5-vs-es6/remover-es5-expressions/src/init.js" xlink:title="init.js">
<path fill="#ccffcc" stroke="black" d="M86.55,-81.3C86.55,-81.3 44.95,-81.3 44.95,-81.3 41.85,-81.3 38.75,-78.2 38.75,-75.1 38.75,-75.1 38.75,-68.9 38.75,-68.9 38.75,-65.8 41.85,-62.7 44.95,-62.7 44.95,-62.7 86.55,-62.7 86.55,-62.7 89.65,-62.7 92.75,-65.8 92.75,-68.9 92.75,-68.9 92.75,-75.1 92.75,-75.1 92.75,-78.2 89.65,-81.3 86.55,-81.3"/>
<text text-anchor="middle" x="65.75" y="-69.3" font-family="Helvetica,sans-Serif" font-size="9.00">init.js</text>
</a>
</g>
</g>
<!-- es5&#45;vs&#45;es6/remover&#45;es5&#45;expressions/src/listeners.js -->
<g id="node4" class="node">
<title>es5&#45;vs&#45;es6/remover&#45;es5&#45;expressions/src/listeners.js</title>
<g id="a_node4"><a xlink:href="es5-vs-es6/remover-es5-expressions/src/listeners.js" xlink:title="listeners.js">
<path fill="#ccffcc" stroke="black" d="M89.05,-50.3C89.05,-50.3 42.45,-50.3 42.45,-50.3 39.35,-50.3 36.25,-47.2 36.25,-44.1 36.25,-44.1 36.25,-37.9 36.25,-37.9 36.25,-34.8 39.35,-31.7 42.45,-31.7 42.45,-31.7 89.05,-31.7 89.05,-31.7 92.15,-31.7 95.25,-34.8 95.25,-37.9 95.25,-37.9 95.25,-44.1 95.25,-44.1 95.25,-47.2 92.15,-50.3 89.05,-50.3"/>
<text text-anchor="middle" x="65.75" y="-38.3" font-family="Helvetica,sans-Serif" font-size="9.00">listeners.js</text>
</a>
</g>
</g>
</g>
</svg>
