<?xml version="1.0" encoding="UTF-8" standalone="no"?>
<!DOCTYPE svg PUBLIC "-//W3C//DTD SVG 1.1//EN"
 "http://www.w3.org/Graphics/SVG/1.1/DTD/svg11.dtd">
<!-- Generated by graphviz version 2.44.0 (20200408.0750)
 -->
<!-- Title: dependency&#45;cruiser output Pages: 1 -->
<svg width="141pt" height="240pt"
 viewBox="0.00 0.00 141.01 240.00" xmlns="http://www.w3.org/2000/svg" xmlns:xlink="http://www.w3.org/1999/xlink">
<g id="graph0" class="graph" transform="scale(1 1) rotate(0) translate(4 236)">
<title>dependency&#45;cruiser output</title>
<polygon fill="white" stroke="transparent" points="-4,4 -4,-236 137.01,-236 137.01,4 -4,4"/>
<g id="clust1" class="cluster">
<title>cluster_es5&#45;vs&#45;es6</title>
<path fill="#ffffff" stroke="black" stroke-width="2" d="M12,-8C12,-8 121.01,-8 121.01,-8 127.01,-8 133.01,-14 133.01,-20 133.01,-20 133.01,-212 133.01,-212 133.01,-218 127.01,-224 121.01,-224 121.01,-224 12,-224 12,-224 6,-224 0,-218 0,-212 0,-212 0,-20 0,-20 0,-14 6,-8 12,-8"/>
<text text-anchor="middle" x="66.5" y="-211.9" font-family="Helvetica,sans-Serif" font-weight="bold" font-size="9.00">es5&#45;vs&#45;es6</text>
</g>
<g id="clust2" class="cluster">
<title>cluster_es5&#45;vs&#45;es6/remover&#45;es5&#45;expressions</title>
<path fill="#ffffff" stroke="black" stroke-width="2" d="M20,-16C20,-16 113.01,-16 113.01,-16 119.01,-16 125.01,-22 125.01,-28 125.01,-28 125.01,-185 125.01,-185 125.01,-191 119.01,-197 113.01,-197 113.01,-197 20,-197 20,-197 14,-197 8,-191 8,-185 8,-185 8,-28 8,-28 8,-22 14,-16 20,-16"/>
<text text-anchor="middle" x="66.5" y="-184.9" font-family="Helvetica,sans-Serif" font-weight="bold" font-size="9.00">remover&#45;es5&#45;expressions</text>
</g>
<g id="clust3" class="cluster">
<title>cluster_es5&#45;vs&#45;es6/remover&#45;es5&#45;expressions/src</title>
<path fill="#ffffff" stroke="black" stroke-width="2" d="M43,-24C43,-24 90.01,-24 90.01,-24 96.01,-24 102.01,-30 102.01,-36 102.01,-36 102.01,-158 102.01,-158 102.01,-164 96.01,-170 90.01,-170 90.01,-170 43,-170 43,-170 37,-170 31,-164 31,-158 31,-158 31,-36 31,-36 31,-30 37,-24 43,-24"/>
<text text-anchor="middle" x="66.5" y="-157.9" font-family="Helvetica,sans-Serif" font-weight="bold" font-size="9.00">src</text>
</g>
<!-- es5&#45;vs&#45;es6/remover&#45;es5&#45;expressions/src/data.js -->
<g id="node1" class="node">
<title>es5&#45;vs&#45;es6/remover&#45;es5&#45;expressions/src/data.js</title>
<g id="a_node1"><a xlink:href="es5-vs-es6/remover-es5-expressions/src/data.js" xlink:title="data.js">
<path fill="#ccffcc" stroke="black" d="M87.3,-143.3C87.3,-143.3 45.7,-143.3 45.7,-143.3 42.6,-143.3 39.5,-140.2 39.5,-137.1 39.5,-137.1 39.5,-130.9 39.5,-130.9 39.5,-127.8 42.6,-124.7 45.7,-124.7 45.7,-124.7 87.3,-124.7 87.3,-124.7 90.4,-124.7 93.5,-127.8 93.5,-130.9 93.5,-130.9 93.5,-137.1 93.5,-137.1 93.5,-140.2 90.4,-143.3 87.3,-143.3"/>
<text text-anchor="middle" x="66.5" y="-131.3" font-family="Helvetica,sans-Serif" font-size="9.00">data.js</text>
</a>
</g>
</g>
<!-- es5&#45;vs&#45;es6/remover&#45;es5&#45;expressions/src/handler.js -->
<g id="node2" class="node">
<title>es5&#45;vs&#45;es6/remover&#45;es5&#45;expressions/src/handler.js</title>
<g id="a_node2"><a xlink:href="es5-vs-es6/remover-es5-expressions/src/handler.js" xlink:title="handler.js">
<path fill="#ccffcc" stroke="black" d="M87.81,-112.3C87.81,-112.3 45.2,-112.3 45.2,-112.3 42.1,-112.3 39,-109.2 39,-106.1 39,-106.1 39,-99.9 39,-99.9 39,-96.8 42.1,-93.7 45.2,-93.7 45.2,-93.7 87.81,-93.7 87.81,-93.7 90.91,-93.7 94.01,-96.8 94.01,-99.9 94.01,-99.9 94.01,-106.1 94.01,-106.1 94.01,-109.2 90.91,-112.3 87.81,-112.3"/>
<text text-anchor="middle" x="66.5" y="-100.3" font-family="Helvetica,sans-Serif" font-size="9.00">handler.js</text>
</a>
</g>
</g>
<!-- es5&#45;vs&#45;es6/remover&#45;es5&#45;expressions/src/init.js -->
<g id="node3" class="node">
<title>es5&#45;vs&#45;es6/remover&#45;es5&#45;expressions/src/init.js</title>
<g id="a_node3"><a xlink:href="es5-vs-es6/remover-es5-expressions/src/init.js" xlink:title="init.js">
<path fill="#ccffcc" stroke="black" d="M87.3,-81.3C87.3,-81.3 45.7,-81.3 45.7,-81.3 42.6,-81.3 39.5,-78.2 39.5,-75.1 39.5,-75.1 39.5,-68.9 39.5,-68.9 39.5,-65.8 42.6,-62.7 45.7,-62.7 45.7,-62.7 87.3,-62.7 87.3,-62.7 90.4,-62.7 93.5,-65.8 93.5,-68.9 93.5,-68.9 93.5,-75.1 93.5,-75.1 93.5,-78.2 90.4,-81.3 87.3,-81.3"/>
<text text-anchor="middle" x="66.5" y="-69.3" font-family="Helvetica,sans-Serif" font-size="9.00">init.js</text>
</a>
</g>
</g>
<!-- es5&#45;vs&#45;es6/remover&#45;es5&#45;expressions/src/listener.js -->
<g id="node4" class="node">
<title>es5&#45;vs&#45;es6/remover&#45;es5&#45;expressions/src/listener.js</title>
<g id="a_node4"><a xlink:href="es5-vs-es6/remover-es5-expressions/src/listener.js" xlink:title="listener.js">
<path fill="#ccffcc" stroke="black" d="M87.3,-50.3C87.3,-50.3 45.7,-50.3 45.7,-50.3 42.6,-50.3 39.5,-47.2 39.5,-44.1 39.5,-44.1 39.5,-37.9 39.5,-37.9 39.5,-34.8 42.6,-31.7 45.7,-31.7 45.7,-31.7 87.3,-31.7 87.3,-31.7 90.4,-31.7 93.5,-34.8 93.5,-37.9 93.5,-37.9 93.5,-44.1 93.5,-44.1 93.5,-47.2 90.4,-50.3 87.3,-50.3"/>
<text text-anchor="middle" x="66.5" y="-38.3" font-family="Helvetica,sans-Serif" font-size="9.00">listener.js</text>
</a>
</g>
</g>
</g>
</svg>
