<?xml version="1.0" encoding="UTF-8" standalone="no"?>
<!DOCTYPE svg PUBLIC "-//W3C//DTD SVG 1.1//EN"
 "http://www.w3.org/Graphics/SVG/1.1/DTD/svg11.dtd">
<!-- Generated by graphviz version 2.44.0 (20200408.0750)
 -->
<!-- Title: dependency&#45;cruiser output Pages: 1 -->
<svg width="301pt" height="244pt"
 viewBox="0.00 0.00 300.50 244.00" xmlns="http://www.w3.org/2000/svg" xmlns:xlink="http://www.w3.org/1999/xlink">
<g id="graph0" class="graph" transform="scale(1 1) rotate(0) translate(4 240)">
<title>dependency&#45;cruiser output</title>
<polygon fill="white" stroke="transparent" points="-4,4 -4,-240 296.5,-240 296.5,4 -4,4"/>
<g id="clust1" class="cluster">
<title>cluster_function&#45;roles</title>
<path fill="#ffffff" stroke="black" stroke-width="2" d="M20,-8C20,-8 272.5,-8 272.5,-8 278.5,-8 284.5,-14 284.5,-20 284.5,-20 284.5,-216 284.5,-216 284.5,-222 278.5,-228 272.5,-228 272.5,-228 20,-228 20,-228 14,-228 8,-222 8,-216 8,-216 8,-20 8,-20 8,-14 14,-8 20,-8"/>
<text text-anchor="middle" x="146.25" y="-215.9" font-family="Helvetica,sans-Serif" font-weight="bold" font-size="9.00">function&#45;roles</text>
</g>
<g id="clust2" class="cluster">
<title>cluster_function&#45;roles/1&#45;listeners</title>
<path fill="#ffffff" stroke="black" stroke-width="2" d="M28,-16C28,-16 202.5,-16 202.5,-16 208.5,-16 214.5,-22 214.5,-28 214.5,-28 214.5,-189 214.5,-189 214.5,-195 208.5,-201 202.5,-201 202.5,-201 28,-201 28,-201 22,-201 16,-195 16,-189 16,-189 16,-28 16,-28 16,-22 22,-16 28,-16"/>
<text text-anchor="middle" x="115.25" y="-188.9" font-family="Helvetica,sans-Serif" font-weight="bold" font-size="9.00">1&#45;listeners</text>
</g>
<g id="clust3" class="cluster">
<title>cluster_function&#45;roles/1&#45;listeners/src</title>
<path fill="#ffffff" stroke="black" stroke-width="2" d="M36,-24C36,-24 194.5,-24 194.5,-24 200.5,-24 206.5,-30 206.5,-36 206.5,-36 206.5,-162 206.5,-162 206.5,-168 200.5,-174 194.5,-174 194.5,-174 36,-174 36,-174 30,-174 24,-168 24,-162 24,-162 24,-36 24,-36 24,-30 30,-24 36,-24"/>
<text text-anchor="middle" x="115.25" y="-161.9" font-family="Helvetica,sans-Serif" font-weight="bold" font-size="9.00">src</text>
</g>
<g id="clust4" class="cluster">
<title>cluster_function&#45;roles/1&#45;listeners/src/listeners</title>
<path fill="#ffffff" stroke="black" stroke-width="2" d="M106,-32C106,-32 186.5,-32 186.5,-32 192.5,-32 198.5,-38 198.5,-44 198.5,-44 198.5,-135 198.5,-135 198.5,-141 192.5,-147 186.5,-147 186.5,-147 106,-147 106,-147 100,-147 94,-141 94,-135 94,-135 94,-44 94,-44 94,-38 100,-32 106,-32"/>
<text text-anchor="middle" x="146.25" y="-134.9" font-family="Helvetica,sans-Serif" font-weight="bold" font-size="9.00">listeners</text>
</g>
<!-- function&#45;roles/1&#45;listeners/src/init.js -->
<g id="node1" class="node">
<title>function&#45;roles/1&#45;listeners/src/init.js</title>
<g id="a_node1"><a xlink:href="function-roles/1-listeners/src/init.js" xlink:title="init.js">
<path fill="#ffffcc" stroke="black" d="M79.8,-89.3C79.8,-89.3 38.2,-89.3 38.2,-89.3 35.1,-89.3 32,-86.2 32,-83.1 32,-83.1 32,-76.9 32,-76.9 32,-73.8 35.1,-70.7 38.2,-70.7 38.2,-70.7 79.8,-70.7 79.8,-70.7 82.9,-70.7 86,-73.8 86,-76.9 86,-76.9 86,-83.1 86,-83.1 86,-86.2 82.9,-89.3 79.8,-89.3"/>
<text text-anchor="middle" x="59" y="-77.3" font-family="Helvetica,sans-Serif" font-size="9.00">init.js</text>
</a>
</g>
</g>
<!-- function&#45;roles/1&#45;listeners/src/listeners/add&#45;number.js -->
<g id="node2" class="node">
<title>function&#45;roles/1&#45;listeners/src/listeners/add&#45;number.js</title>
<g id="a_node2"><a xlink:href="function-roles/1-listeners/src/listeners/add-number.js" xlink:title="add&#45;number.js">
<path fill="#ffffcc" stroke="black" d="M176.56,-120.3C176.56,-120.3 115.94,-120.3 115.94,-120.3 112.84,-120.3 109.74,-117.2 109.74,-114.1 109.74,-114.1 109.74,-107.9 109.74,-107.9 109.74,-104.8 112.84,-101.7 115.94,-101.7 115.94,-101.7 176.56,-101.7 176.56,-101.7 179.66,-101.7 182.76,-104.8 182.76,-107.9 182.76,-107.9 182.76,-114.1 182.76,-114.1 182.76,-117.2 179.66,-120.3 176.56,-120.3"/>
<text text-anchor="middle" x="146.25" y="-108.3" font-family="Helvetica,sans-Serif" font-size="9.00">add&#45;number.js</text>
</a>
</g>
</g>
<!-- function&#45;roles/1&#45;listeners/src/init.js&#45;&gt;function&#45;roles/1&#45;listeners/src/listeners/add&#45;number.js -->
<g id="edge1" class="edge">
<title>function&#45;roles/1&#45;listeners/src/init.js&#45;&gt;function&#45;roles/1&#45;listeners/src/listeners/add&#45;number.js</title>
<path fill="none" stroke="#000000" stroke-width="2" stroke-opacity="0.200000" d="M80.34,-89.42C84.8,-91.36 89.53,-93.32 94,-95 98.36,-96.64 102.96,-98.24 107.56,-99.77"/>
<polygon fill="#000000" fill-opacity="0.200000" stroke="#000000" stroke-width="2" stroke-opacity="0.200000" points="106.99,-101.79 113.35,-101.65 108.29,-97.8 106.99,-101.79"/>
</g>
<!-- function&#45;roles/1&#45;listeners/src/listeners/load.js -->
<g id="node3" class="node">
<title>function&#45;roles/1&#45;listeners/src/listeners/load.js</title>
<g id="a_node3"><a xlink:href="function-roles/1-listeners/src/listeners/load.js" xlink:title="load.js">
<path fill="#ffffcc" stroke="black" d="M167.05,-89.3C167.05,-89.3 125.45,-89.3 125.45,-89.3 122.35,-89.3 119.25,-86.2 119.25,-83.1 119.25,-83.1 119.25,-76.9 119.25,-76.9 119.25,-73.8 122.35,-70.7 125.45,-70.7 125.45,-70.7 167.05,-70.7 167.05,-70.7 170.15,-70.7 173.25,-73.8 173.25,-76.9 173.25,-76.9 173.25,-83.1 173.25,-83.1 173.25,-86.2 170.15,-89.3 167.05,-89.3"/>
<text text-anchor="middle" x="146.25" y="-77.3" font-family="Helvetica,sans-Serif" font-size="9.00">load.js</text>
</a>
</g>
</g>
<!-- function&#45;roles/1&#45;listeners/src/init.js&#45;&gt;function&#45;roles/1&#45;listeners/src/listeners/load.js -->
<g id="edge2" class="edge">
<title>function&#45;roles/1&#45;listeners/src/init.js&#45;&gt;function&#45;roles/1&#45;listeners/src/listeners/load.js</title>
<path fill="none" stroke="#000000" stroke-width="2" stroke-opacity="0.200000" d="M86.04,-80C94.56,-80 104.11,-80 113.03,-80"/>
<polygon fill="#000000" fill-opacity="0.200000" stroke="#000000" stroke-width="2" stroke-opacity="0.200000" points="113.07,-82.1 119.07,-80 113.07,-77.9 113.07,-82.1"/>
</g>
<!-- function&#45;roles/1&#45;listeners/src/listeners/remove&#45;number.js -->
<g id="node4" class="node">
<title>function&#45;roles/1&#45;listeners/src/listeners/remove&#45;number.js</title>
<g id="a_node4"><a xlink:href="function-roles/1-listeners/src/listeners/remove-number.js" xlink:title="remove&#45;number.js">
<path fill="#ffffcc" stroke="black" d="M184.05,-58.3C184.05,-58.3 108.45,-58.3 108.45,-58.3 105.35,-58.3 102.25,-55.2 102.25,-52.1 102.25,-52.1 102.25,-45.9 102.25,-45.9 102.25,-42.8 105.35,-39.7 108.45,-39.7 108.45,-39.7 184.05,-39.7 184.05,-39.7 187.15,-39.7 190.25,-42.8 190.25,-45.9 190.25,-45.9 190.25,-52.1 190.25,-52.1 190.25,-55.2 187.15,-58.3 184.05,-58.3"/>
<text text-anchor="middle" x="146.25" y="-46.3" font-family="Helvetica,sans-Serif" font-size="9.00">remove&#45;number.js</text>
</a>
</g>
</g>
<!-- function&#45;roles/1&#45;listeners/src/init.js&#45;&gt;function&#45;roles/1&#45;listeners/src/listeners/remove&#45;number.js -->
<g id="edge3" class="edge">
<title>function&#45;roles/1&#45;listeners/src/init.js&#45;&gt;function&#45;roles/1&#45;listeners/src/listeners/remove&#45;number.js</title>
<path fill="none" stroke="#000000" stroke-width="2" stroke-opacity="0.200000" d="M80.34,-70.58C84.8,-68.64 89.53,-66.68 94,-65 98.36,-63.36 102.96,-61.76 107.56,-60.23"/>
<polygon fill="#000000" fill-opacity="0.200000" stroke="#000000" stroke-width="2" stroke-opacity="0.200000" points="108.29,-62.2 113.35,-58.35 106.99,-58.21 108.29,-62.2"/>
</g>
<!-- function&#45;roles/data.js -->
<g id="node5" class="node">
<title>function&#45;roles/data.js</title>
<g id="a_node5"><a xlink:href="function-roles/data.js" xlink:title="data.js">
<path fill="#ffffcc" stroke="black" d="M270.3,-89.3C270.3,-89.3 228.7,-89.3 228.7,-89.3 225.6,-89.3 222.5,-86.2 222.5,-83.1 222.5,-83.1 222.5,-76.9 222.5,-76.9 222.5,-73.8 225.6,-70.7 228.7,-70.7 228.7,-70.7 270.3,-70.7 270.3,-70.7 273.4,-70.7 276.5,-73.8 276.5,-76.9 276.5,-76.9 276.5,-83.1 276.5,-83.1 276.5,-86.2 273.4,-89.3 270.3,-89.3"/>
<text text-anchor="middle" x="249.5" y="-77.3" font-family="Helvetica,sans-Serif" font-size="9.00">data.js</text>
</a>
</g>
</g>
<!-- function&#45;roles/1&#45;listeners/src/listeners/add&#45;number.js&#45;&gt;function&#45;roles/data.js -->
<g id="edge4" class="edge">
<title>function&#45;roles/1&#45;listeners/src/listeners/add&#45;number.js&#45;&gt;function&#45;roles/data.js</title>
<path fill="none" stroke="#000000" stroke-width="2" stroke-opacity="0.200000" d="M182.84,-103.81C193.16,-101.38 204.38,-98.41 214.5,-95 217.33,-94.05 220.25,-92.95 223.14,-91.79"/>
<polygon fill="#000000" fill-opacity="0.200000" stroke="#000000" stroke-width="2" stroke-opacity="0.200000" points="224.24,-93.6 228.96,-89.34 222.62,-89.73 224.24,-93.6"/>
</g>
<!-- function&#45;roles/1&#45;listeners/src/listeners/remove&#45;number.js&#45;&gt;function&#45;roles/data.js -->
<g id="edge5" class="edge">
<title>function&#45;roles/1&#45;listeners/src/listeners/remove&#45;number.js&#45;&gt;function&#45;roles/data.js</title>
<path fill="none" stroke="#000000" stroke-width="2" stroke-opacity="0.200000" d="M190.27,-58C198.39,-60.05 206.77,-62.4 214.5,-65 217.33,-65.95 220.25,-67.05 223.14,-68.21"/>
<polygon fill="#000000" fill-opacity="0.200000" stroke="#000000" stroke-width="2" stroke-opacity="0.200000" points="222.62,-70.27 228.96,-70.66 224.24,-66.4 222.62,-70.27"/>
</g>
</g>
</svg>
