<?xml version="1.0" encoding="UTF-8" standalone="no"?>
<!DOCTYPE svg PUBLIC "-//W3C//DTD SVG 1.1//EN"
 "http://www.w3.org/Graphics/SVG/1.1/DTD/svg11.dtd">
<!-- Generated by graphviz version 2.44.0 (20200408.0750)
 -->
<!-- Title: dependency&#45;cruiser output Pages: 1 -->
<svg width="280pt" height="279pt"
 viewBox="0.00 0.00 280.01 279.00" xmlns="http://www.w3.org/2000/svg" xmlns:xlink="http://www.w3.org/1999/xlink">
<g id="graph0" class="graph" transform="scale(1 1) rotate(0) translate(4 275)">
<title>dependency&#45;cruiser output</title>
<polygon fill="white" stroke="transparent" points="-4,4 -4,-275 276.01,-275 276.01,4 -4,4"/>
<g id="clust1" class="cluster">
<title>cluster_refactoring</title>
<path fill="#ffffff" stroke="black" stroke-width="2" d="M20,-8C20,-8 198.01,-8 198.01,-8 204.01,-8 210.01,-14 210.01,-20 210.01,-20 210.01,-251 210.01,-251 210.01,-257 204.01,-263 198.01,-263 198.01,-263 20,-263 20,-263 14,-263 8,-257 8,-251 8,-251 8,-20 8,-20 8,-14 14,-8 20,-8"/>
<text text-anchor="middle" x="109" y="-250.9" font-family="Helvetica,sans-Serif" font-weight="bold" font-size="9.00">refactoring</text>
</g>
<g id="clust2" class="cluster">
<title>cluster_refactoring/exercises</title>
<path fill="#ffffff" stroke="black" stroke-width="2" d="M28,-16C28,-16 190.01,-16 190.01,-16 196.01,-16 202.01,-22 202.01,-28 202.01,-28 202.01,-224 202.01,-224 202.01,-230 196.01,-236 190.01,-236 190.01,-236 28,-236 28,-236 22,-236 16,-230 16,-224 16,-224 16,-28 16,-28 16,-22 22,-16 28,-16"/>
<text text-anchor="middle" x="109" y="-223.9" font-family="Helvetica,sans-Serif" font-weight="bold" font-size="9.00">exercises</text>
</g>
<g id="clust3" class="cluster">
<title>cluster_refactoring/exercises/prompt&#45;alert&#45;confirm</title>
<path fill="#ffffff" stroke="black" stroke-width="2" d="M36,-24C36,-24 182.01,-24 182.01,-24 188.01,-24 194.01,-30 194.01,-36 194.01,-36 194.01,-197 194.01,-197 194.01,-203 188.01,-209 182.01,-209 182.01,-209 36,-209 36,-209 30,-209 24,-203 24,-197 24,-197 24,-36 24,-36 24,-30 30,-24 36,-24"/>
<text text-anchor="middle" x="109" y="-196.9" font-family="Helvetica,sans-Serif" font-weight="bold" font-size="9.00">prompt&#45;alert&#45;confirm</text>
</g>
<g id="clust4" class="cluster">
<title>cluster_refactoring/exercises/prompt&#45;alert&#45;confirm/average&#45;evens</title>
<path fill="#ffffff" stroke="black" stroke-width="2" d="M44,-32C44,-32 174.01,-32 174.01,-32 180.01,-32 186.01,-38 186.01,-44 186.01,-44 186.01,-170 186.01,-170 186.01,-176 180.01,-182 174.01,-182 174.01,-182 44,-182 44,-182 38,-182 32,-176 32,-170 32,-170 32,-44 32,-44 32,-38 38,-32 44,-32"/>
<text text-anchor="middle" x="109" y="-169.9" font-family="Helvetica,sans-Serif" font-weight="bold" font-size="9.00">average&#45;evens</text>
</g>
<g id="clust5" class="cluster">
<title>cluster_refactoring/exercises/prompt&#45;alert&#45;confirm/average&#45;evens/src</title>
<path fill="#ffffff" stroke="black" stroke-width="2" d="M52,-40C52,-40 166.01,-40 166.01,-40 172.01,-40 178.01,-46 178.01,-52 178.01,-52 178.01,-143 178.01,-143 178.01,-149 172.01,-155 166.01,-155 166.01,-155 52,-155 52,-155 46,-155 40,-149 40,-143 40,-143 40,-52 40,-52 40,-46 46,-40 52,-40"/>
<text text-anchor="middle" x="109" y="-142.9" font-family="Helvetica,sans-Serif" font-weight="bold" font-size="9.00">src</text>
</g>
<!-- ./utils.js -->
<g id="node1" class="node">
<title>./utils.js</title>
<path fill="#ffffcc" stroke="red" d="M265.81,-97.3C265.81,-97.3 224.21,-97.3 224.21,-97.3 221.11,-97.3 218.01,-94.2 218.01,-91.1 218.01,-91.1 218.01,-84.9 218.01,-84.9 218.01,-81.8 221.11,-78.7 224.21,-78.7 224.21,-78.7 265.81,-78.7 265.81,-78.7 268.91,-78.7 272.01,-81.8 272.01,-84.9 272.01,-84.9 272.01,-91.1 272.01,-91.1 272.01,-94.2 268.91,-97.3 265.81,-97.3"/>
<text text-anchor="middle" x="245.01" y="-85.3" font-family="Helvetica,sans-Serif" font-size="9.00" fill="red">utils.js</text>
</g>
<!-- refactoring/exercises/prompt&#45;alert&#45;confirm/average&#45;evens/src/handler.js -->
<g id="node2" class="node">
<title>refactoring/exercises/prompt&#45;alert&#45;confirm/average&#45;evens/src/handler.js</title>
<g id="a_node2"><a xlink:href="refactoring/exercises/prompt-alert-confirm/average-evens/src/handler.js" xlink:title="handler.js">
<path fill="#ffffcc" stroke="black" d="M163.81,-97.3C163.81,-97.3 121.2,-97.3 121.2,-97.3 118.1,-97.3 115,-94.2 115,-91.1 115,-91.1 115,-84.9 115,-84.9 115,-81.8 118.1,-78.7 121.2,-78.7 121.2,-78.7 163.81,-78.7 163.81,-78.7 166.91,-78.7 170.01,-81.8 170.01,-84.9 170.01,-84.9 170.01,-91.1 170.01,-91.1 170.01,-94.2 166.91,-97.3 163.81,-97.3"/>
<text text-anchor="middle" x="142.5" y="-85.3" font-family="Helvetica,sans-Serif" font-size="9.00">handler.js</text>
</a>
</g>
</g>
<!-- refactoring/exercises/prompt&#45;alert&#45;confirm/average&#45;evens/src/handler.js&#45;&gt;./utils.js -->
<g id="edge1" class="edge">
<title>refactoring/exercises/prompt&#45;alert&#45;confirm/average&#45;evens/src/handler.js&#45;&gt;./utils.js</title>
<path fill="none" stroke="#000000" stroke-width="2" stroke-opacity="0.200000" d="M170.17,-88C182.98,-88 198.43,-88 211.89,-88"/>
<polygon fill="#000000" fill-opacity="0.200000" stroke="#000000" stroke-width="2" stroke-opacity="0.200000" points="211.91,-90.1 217.91,-88 211.91,-85.9 211.91,-90.1"/>
</g>
<!-- refactoring/exercises/prompt&#45;alert&#45;confirm/average&#45;evens/src/init.js -->
<g id="node3" class="node">
<title>refactoring/exercises/prompt&#45;alert&#45;confirm/average&#45;evens/src/init.js</title>
<g id="a_node3"><a xlink:href="refactoring/exercises/prompt-alert-confirm/average-evens/src/init.js" xlink:title="init.js">
<path fill="#ccffcc" stroke="black" d="M95.8,-128.3C95.8,-128.3 54.2,-128.3 54.2,-128.3 51.1,-128.3 48,-125.2 48,-122.1 48,-122.1 48,-115.9 48,-115.9 48,-112.8 51.1,-109.7 54.2,-109.7 54.2,-109.7 95.8,-109.7 95.8,-109.7 98.9,-109.7 102,-112.8 102,-115.9 102,-115.9 102,-122.1 102,-122.1 102,-125.2 98.9,-128.3 95.8,-128.3"/>
<text text-anchor="middle" x="75" y="-116.3" font-family="Helvetica,sans-Serif" font-size="9.00">init.js</text>
</a>
</g>
</g>
<!-- refactoring/exercises/prompt&#45;alert&#45;confirm/average&#45;evens/src/listener.js -->
<g id="node4" class="node">
<title>refactoring/exercises/prompt&#45;alert&#45;confirm/average&#45;evens/src/listener.js</title>
<g id="a_node4"><a xlink:href="refactoring/exercises/prompt-alert-confirm/average-evens/src/listener.js" xlink:title="listener.js">
<path fill="#ffffcc" stroke="black" d="M95.8,-97.3C95.8,-97.3 54.2,-97.3 54.2,-97.3 51.1,-97.3 48,-94.2 48,-91.1 48,-91.1 48,-84.9 48,-84.9 48,-81.8 51.1,-78.7 54.2,-78.7 54.2,-78.7 95.8,-78.7 95.8,-78.7 98.9,-78.7 102,-81.8 102,-84.9 102,-84.9 102,-91.1 102,-91.1 102,-94.2 98.9,-97.3 95.8,-97.3"/>
<text text-anchor="middle" x="75" y="-85.3" font-family="Helvetica,sans-Serif" font-size="9.00">listener.js</text>
</a>
</g>
</g>
<!-- refactoring/exercises/prompt&#45;alert&#45;confirm/average&#45;evens/src/listener.js&#45;&gt;refactoring/exercises/prompt&#45;alert&#45;confirm/average&#45;evens/src/handler.js -->
<g id="edge2" class="edge">
<title>refactoring/exercises/prompt&#45;alert&#45;confirm/average&#45;evens/src/listener.js&#45;&gt;refactoring/exercises/prompt&#45;alert&#45;confirm/average&#45;evens/src/handler.js</title>
<path fill="none" stroke="#000000" stroke-width="2" stroke-opacity="0.200000" d="M102.27,-88C104.33,-88 106.43,-88 108.53,-88"/>
<polygon fill="#000000" fill-opacity="0.200000" stroke="#000000" stroke-width="2" stroke-opacity="0.200000" points="108.8,-90.1 114.8,-88 108.8,-85.9 108.8,-90.1"/>
</g>
<!-- refactoring/exercises/prompt&#45;alert&#45;confirm/average&#45;evens/src/logic.js -->
<g id="node5" class="node">
<title>refactoring/exercises/prompt&#45;alert&#45;confirm/average&#45;evens/src/logic.js</title>
<g id="a_node5"><a xlink:href="refactoring/exercises/prompt-alert-confirm/average-evens/src/logic.js" xlink:title="logic.js">
<path fill="#ccffcc" stroke="black" d="M95.8,-66.3C95.8,-66.3 54.2,-66.3 54.2,-66.3 51.1,-66.3 48,-63.2 48,-60.1 48,-60.1 48,-53.9 48,-53.9 48,-50.8 51.1,-47.7 54.2,-47.7 54.2,-47.7 95.8,-47.7 95.8,-47.7 98.9,-47.7 102,-50.8 102,-53.9 102,-53.9 102,-60.1 102,-60.1 102,-63.2 98.9,-66.3 95.8,-66.3"/>
<text text-anchor="middle" x="75" y="-54.3" font-family="Helvetica,sans-Serif" font-size="9.00">logic.js</text>
</a>
</g>
</g>
</g>
</svg>
