<?xml version="1.0" encoding="UTF-8" standalone="no"?>
<!DOCTYPE svg PUBLIC "-//W3C//DTD SVG 1.1//EN"
 "http://www.w3.org/Graphics/SVG/1.1/DTD/svg11.dtd">
<!-- Generated by graphviz version 2.44.0 (20200408.0750)
 -->
<!-- Title: dependency&#45;cruiser output Pages: 1 -->
<svg width="220pt" height="275pt"
 viewBox="0.00 0.00 220.01 275.00" xmlns="http://www.w3.org/2000/svg" xmlns:xlink="http://www.w3.org/1999/xlink">
<g id="graph0" class="graph" transform="scale(1 1) rotate(0) translate(4 271)">
<title>dependency&#45;cruiser output</title>
<polygon fill="white" stroke="transparent" points="-4,4 -4,-271 216.01,-271 216.01,4 -4,4"/>
<g id="clust1" class="cluster">
<title>cluster_stepped</title>
<path fill="#ffffff" stroke="black" stroke-width="2" d="M20,-8C20,-8 192.01,-8 192.01,-8 198.01,-8 204.01,-14 204.01,-20 204.01,-20 204.01,-247 204.01,-247 204.01,-253 198.01,-259 192.01,-259 192.01,-259 20,-259 20,-259 14,-259 8,-253 8,-247 8,-247 8,-20 8,-20 8,-14 14,-8 20,-8"/>
<text text-anchor="middle" x="106" y="-246.9" font-family="Helvetica,sans-Serif" font-weight="bold" font-size="9.00">stepped</text>
</g>
<g id="clust2" class="cluster">
<title>cluster_stepped/madlibs&#45;separated</title>
<path fill="#ffffff" stroke="black" stroke-width="2" d="M28,-16C28,-16 184.01,-16 184.01,-16 190.01,-16 196.01,-22 196.01,-28 196.01,-28 196.01,-220 196.01,-220 196.01,-226 190.01,-232 184.01,-232 184.01,-232 28,-232 28,-232 22,-232 16,-226 16,-220 16,-220 16,-28 16,-28 16,-22 22,-16 28,-16"/>
<text text-anchor="middle" x="106" y="-219.9" font-family="Helvetica,sans-Serif" font-weight="bold" font-size="9.00">madlibs&#45;separated</text>
</g>
<g id="clust3" class="cluster">
<title>cluster_stepped/madlibs&#45;separated/3&#45;listener</title>
<path fill="#ffffff" stroke="black" stroke-width="2" d="M36,-24C36,-24 176.01,-24 176.01,-24 182.01,-24 188.01,-30 188.01,-36 188.01,-36 188.01,-193 188.01,-193 188.01,-199 182.01,-205 176.01,-205 176.01,-205 36,-205 36,-205 30,-205 24,-199 24,-193 24,-193 24,-36 24,-36 24,-30 30,-24 36,-24"/>
<text text-anchor="middle" x="106" y="-192.9" font-family="Helvetica,sans-Serif" font-weight="bold" font-size="9.00">3&#45;listener</text>
</g>
<g id="clust4" class="cluster">
<title>cluster_stepped/madlibs&#45;separated/3&#45;listener/src</title>
<path fill="#ffffff" stroke="black" stroke-width="2" d="M44,-32C44,-32 168.01,-32 168.01,-32 174.01,-32 180.01,-38 180.01,-44 180.01,-44 180.01,-166 180.01,-166 180.01,-172 174.01,-178 168.01,-178 168.01,-178 44,-178 44,-178 38,-178 32,-172 32,-166 32,-166 32,-44 32,-44 32,-38 38,-32 44,-32"/>
<text text-anchor="middle" x="106" y="-165.9" font-family="Helvetica,sans-Serif" font-weight="bold" font-size="9.00">src</text>
</g>
<!-- stepped/madlibs&#45;separated/3&#45;listener/src/handler.js -->
<g id="node1" class="node">
<title>stepped/madlibs&#45;separated/3&#45;listener/src/handler.js</title>
<g id="a_node1"><a xlink:href="stepped/madlibs-separated/3-listener/src/handler.js" xlink:title="handler.js">
<path fill="#ccffcc" stroke="black" d="M93.81,-151.3C93.81,-151.3 51.2,-151.3 51.2,-151.3 48.1,-151.3 45,-148.2 45,-145.1 45,-145.1 45,-138.9 45,-138.9 45,-135.8 48.1,-132.7 51.2,-132.7 51.2,-132.7 93.81,-132.7 93.81,-132.7 96.91,-132.7 100.01,-135.8 100.01,-138.9 100.01,-138.9 100.01,-145.1 100.01,-145.1 100.01,-148.2 96.91,-151.3 93.81,-151.3"/>
<text text-anchor="middle" x="72.5" y="-139.3" font-family="Helvetica,sans-Serif" font-size="9.00">handler.js</text>
</a>
</g>
</g>
<!-- stepped/madlibs&#45;separated/3&#45;listener/src/init.js -->
<g id="node2" class="node">
<title>stepped/madlibs&#45;separated/3&#45;listener/src/init.js</title>
<g id="a_node2"><a xlink:href="stepped/madlibs-separated/3-listener/src/init.js" xlink:title="init.js">
<path fill="#ffffcc" stroke="black" d="M93.3,-120.3C93.3,-120.3 51.7,-120.3 51.7,-120.3 48.6,-120.3 45.5,-117.2 45.5,-114.1 45.5,-114.1 45.5,-107.9 45.5,-107.9 45.5,-104.8 48.6,-101.7 51.7,-101.7 51.7,-101.7 93.3,-101.7 93.3,-101.7 96.4,-101.7 99.5,-104.8 99.5,-107.9 99.5,-107.9 99.5,-114.1 99.5,-114.1 99.5,-117.2 96.4,-120.3 93.3,-120.3"/>
<text text-anchor="middle" x="72.5" y="-108.3" font-family="Helvetica,sans-Serif" font-size="9.00">init.js</text>
</a>
</g>
</g>
<!-- stepped/madlibs&#45;separated/3&#45;listener/src/listener.js -->
<g id="node3" class="node">
<title>stepped/madlibs&#45;separated/3&#45;listener/src/listener.js</title>
<g id="a_node3"><a xlink:href="stepped/madlibs-separated/3-listener/src/listener.js" xlink:title="listener.js">
<path fill="#ffffcc" stroke="black" d="M165.81,-120.3C165.81,-120.3 124.21,-120.3 124.21,-120.3 121.11,-120.3 118.01,-117.2 118.01,-114.1 118.01,-114.1 118.01,-107.9 118.01,-107.9 118.01,-104.8 121.11,-101.7 124.21,-101.7 124.21,-101.7 165.81,-101.7 165.81,-101.7 168.91,-101.7 172.01,-104.8 172.01,-107.9 172.01,-107.9 172.01,-114.1 172.01,-114.1 172.01,-117.2 168.91,-120.3 165.81,-120.3"/>
<text text-anchor="middle" x="145.01" y="-108.3" font-family="Helvetica,sans-Serif" font-size="9.00">listener.js</text>
</a>
</g>
</g>
<!-- stepped/madlibs&#45;separated/3&#45;listener/src/init.js&#45;&gt;stepped/madlibs&#45;separated/3&#45;listener/src/listener.js -->
<g id="edge1" class="edge">
<title>stepped/madlibs&#45;separated/3&#45;listener/src/init.js&#45;&gt;stepped/madlibs&#45;separated/3&#45;listener/src/listener.js</title>
<path fill="none" stroke="#000000" stroke-width="2" stroke-opacity="0.200000" d="M99.76,-111C103.66,-111 107.72,-111 111.74,-111"/>
<polygon fill="#000000" fill-opacity="0.200000" stroke="#000000" stroke-width="2" stroke-opacity="0.200000" points="111.97,-113.1 117.97,-111 111.97,-108.9 111.97,-113.1"/>
</g>
<!-- stepped/madlibs&#45;separated/3&#45;listener/src/logic.js -->
<g id="node4" class="node">
<title>stepped/madlibs&#45;separated/3&#45;listener/src/logic.js</title>
<g id="a_node4"><a xlink:href="stepped/madlibs-separated/3-listener/src/logic.js" xlink:title="logic.js">
<path fill="#ccffcc" stroke="black" d="M93.3,-89.3C93.3,-89.3 51.7,-89.3 51.7,-89.3 48.6,-89.3 45.5,-86.2 45.5,-83.1 45.5,-83.1 45.5,-76.9 45.5,-76.9 45.5,-73.8 48.6,-70.7 51.7,-70.7 51.7,-70.7 93.3,-70.7 93.3,-70.7 96.4,-70.7 99.5,-73.8 99.5,-76.9 99.5,-76.9 99.5,-83.1 99.5,-83.1 99.5,-86.2 96.4,-89.3 93.3,-89.3"/>
<text text-anchor="middle" x="72.5" y="-77.3" font-family="Helvetica,sans-Serif" font-size="9.00">logic.js</text>
</a>
</g>
</g>
<!-- stepped/madlibs&#45;separated/3&#45;listener/src/logic.spec.js -->
<g id="node5" class="node">
<title>stepped/madlibs&#45;separated/3&#45;listener/src/logic.spec.js</title>
<g id="a_node5"><a xlink:href="stepped/madlibs-separated/3-listener/src/logic.spec.js" xlink:title="logic.spec.js">
<path fill="#ccffcc" stroke="black" d="M98.81,-58.3C98.81,-58.3 46.2,-58.3 46.2,-58.3 43.1,-58.3 40,-55.2 40,-52.1 40,-52.1 40,-45.9 40,-45.9 40,-42.8 43.1,-39.7 46.2,-39.7 46.2,-39.7 98.81,-39.7 98.81,-39.7 101.91,-39.7 105.01,-42.8 105.01,-45.9 105.01,-45.9 105.01,-52.1 105.01,-52.1 105.01,-55.2 101.91,-58.3 98.81,-58.3"/>
<text text-anchor="middle" x="72.5" y="-46.3" font-family="Helvetica,sans-Serif" font-size="9.00">logic.spec.js</text>
</a>
</g>
</g>
</g>
</svg>
