<?xml version="1.0" encoding="UTF-8" standalone="no"?>
<!DOCTYPE svg PUBLIC "-//W3C//DTD SVG 1.1//EN"
 "http://www.w3.org/Graphics/SVG/1.1/DTD/svg11.dtd">
<!-- Generated by graphviz version 2.44.0 (20200408.0750)
 -->
<!-- Title: dependency&#45;cruiser output Pages: 1 -->
<svg width="448pt" height="443pt"
 viewBox="0.00 0.00 448.26 443.00" xmlns="http://www.w3.org/2000/svg" xmlns:xlink="http://www.w3.org/1999/xlink">
<g id="graph0" class="graph" transform="scale(1 1) rotate(0) translate(4 439)">
<title>dependency&#45;cruiser output</title>
<polygon fill="white" stroke="transparent" points="-4,4 -4,-439 444.26,-439 444.26,4 -4,4"/>
<g id="clust1" class="cluster">
<title>cluster_</title>
<path fill="#ffffff" stroke="black" stroke-width="2" d="M332.01,-8C332.01,-8 394.01,-8 394.01,-8 400.01,-8 406.01,-14 406.01,-20 406.01,-20 406.01,-65 406.01,-65 406.01,-71 400.01,-77 394.01,-77 394.01,-77 332.01,-77 332.01,-77 326.01,-77 320.01,-71 320.01,-65 320.01,-65 320.01,-20 320.01,-20 320.01,-14 326.01,-8 332.01,-8"/>
</g>
<g id="clust2" class="cluster">
<title>cluster_/lib</title>
<path fill="#ffffff" stroke="black" stroke-width="2" d="M340.01,-16C340.01,-16 386.01,-16 386.01,-16 392.01,-16 398.01,-22 398.01,-28 398.01,-28 398.01,-57 398.01,-57 398.01,-63 392.01,-69 386.01,-69 386.01,-69 340.01,-69 340.01,-69 334.01,-69 328.01,-63 328.01,-57 328.01,-57 328.01,-28 328.01,-28 328.01,-22 334.01,-16 340.01,-16"/>
<text text-anchor="middle" x="363.01" y="-56.9" font-family="Helvetica,sans-Serif" font-weight="bold" font-size="9.00">lib</text>
</g>
<g id="clust3" class="cluster">
<title>cluster_separated</title>
<path fill="#ffffff" stroke="black" stroke-width="2" d="M20,-85C20,-85 420.26,-85 420.26,-85 426.26,-85 432.26,-91 432.26,-97 432.26,-97 432.26,-415 432.26,-415 432.26,-421 426.26,-427 420.26,-427 420.26,-427 20,-427 20,-427 14,-427 8,-421 8,-415 8,-415 8,-97 8,-97 8,-91 14,-85 20,-85"/>
<text text-anchor="middle" x="220.13" y="-414.9" font-family="Helvetica,sans-Serif" font-weight="bold" font-size="9.00">separated</text>
</g>
<g id="clust4" class="cluster">
<title>cluster_separated/summary&#45;details&#45;render&#45;component</title>
<path fill="#ffffff" stroke="black" stroke-width="2" d="M28,-93C28,-93 412.26,-93 412.26,-93 418.26,-93 424.26,-99 424.26,-105 424.26,-105 424.26,-388 424.26,-388 424.26,-394 418.26,-400 412.26,-400 412.26,-400 28,-400 28,-400 22,-400 16,-394 16,-388 16,-388 16,-105 16,-105 16,-99 22,-93 28,-93"/>
<text text-anchor="middle" x="220.13" y="-387.9" font-family="Helvetica,sans-Serif" font-weight="bold" font-size="9.00">summary&#45;details&#45;render&#45;component</text>
</g>
<g id="clust5" class="cluster">
<title>cluster_separated/summary&#45;details&#45;render&#45;component/src</title>
<path fill="#ffffff" stroke="black" stroke-width="2" d="M36,-101C36,-101 404.26,-101 404.26,-101 410.26,-101 416.26,-107 416.26,-113 416.26,-113 416.26,-361 416.26,-361 416.26,-367 410.26,-373 404.26,-373 404.26,-373 36,-373 36,-373 30,-373 24,-367 24,-361 24,-361 24,-113 24,-113 24,-107 30,-101 36,-101"/>
<text text-anchor="middle" x="220.13" y="-360.9" font-family="Helvetica,sans-Serif" font-weight="bold" font-size="9.00">src</text>
</g>
<g id="clust6" class="cluster">
<title>cluster_separated/summary&#45;details&#45;render&#45;component/src/components</title>
<path fill="#ffffff" stroke="black" stroke-width="2" d="M217.49,-293C217.49,-293 396.26,-293 396.26,-293 402.26,-293 408.26,-299 408.26,-305 408.26,-305 408.26,-334 408.26,-334 408.26,-340 402.26,-346 396.26,-346 396.26,-346 217.49,-346 217.49,-346 211.49,-346 205.49,-340 205.49,-334 205.49,-334 205.49,-305 205.49,-305 205.49,-299 211.49,-293 217.49,-293"/>
<text text-anchor="middle" x="306.88" y="-333.9" font-family="Helvetica,sans-Serif" font-weight="bold" font-size="9.00">components</text>
</g>
<g id="clust7" class="cluster">
<title>cluster_separated/summary&#45;details&#45;render&#45;component/src/handlers</title>
<path fill="#ffffff" stroke="black" stroke-width="2" d="M222.99,-133C222.99,-133 300.01,-133 300.01,-133 306.01,-133 312.01,-139 312.01,-145 312.01,-145 312.01,-267 312.01,-267 312.01,-273 306.01,-279 300.01,-279 300.01,-279 222.99,-279 222.99,-279 216.99,-279 210.99,-273 210.99,-267 210.99,-267 210.99,-145 210.99,-145 210.99,-139 216.99,-133 222.99,-133"/>
<text text-anchor="middle" x="261.5" y="-266.9" font-family="Helvetica,sans-Serif" font-weight="bold" font-size="9.00">handlers</text>
</g>
<g id="clust8" class="cluster">
<title>cluster_separated/summary&#45;details&#45;render&#45;component/src/init</title>
<path fill="#ffffff" stroke="black" stroke-width="2" d="M44,-109C44,-109 175.5,-109 175.5,-109 181.5,-109 187.5,-115 187.5,-121 187.5,-121 187.5,-181 187.5,-181 187.5,-187 181.5,-193 175.5,-193 175.5,-193 44,-193 44,-193 38,-193 32,-187 32,-181 32,-181 32,-121 32,-121 32,-115 38,-109 44,-109"/>
<text text-anchor="middle" x="109.75" y="-180.9" font-family="Helvetica,sans-Serif" font-weight="bold" font-size="9.00">init</text>
</g>
<g id="clust9" class="cluster">
<title>cluster_separated/summary&#45;details&#45;render&#45;component/src/listeners</title>
<path fill="#ffffff" stroke="black" stroke-width="2" d="M114,-201C114,-201 185.49,-201 185.49,-201 191.49,-201 197.49,-207 197.49,-213 197.49,-213 197.49,-304 197.49,-304 197.49,-310 191.49,-316 185.49,-316 185.49,-316 114,-316 114,-316 108,-316 102,-310 102,-304 102,-304 102,-213 102,-213 102,-207 108,-201 114,-201"/>
<text text-anchor="middle" x="149.75" y="-303.9" font-family="Helvetica,sans-Serif" font-weight="bold" font-size="9.00">listeners</text>
</g>
<!-- /lib/logger.js -->
<g id="node1" class="node">
<title>/lib/logger.js</title>
<path fill="#ffffcc" stroke="red" d="M383.81,-42.3C383.81,-42.3 342.21,-42.3 342.21,-42.3 339.11,-42.3 336.01,-39.2 336.01,-36.1 336.01,-36.1 336.01,-29.9 336.01,-29.9 336.01,-26.8 339.11,-23.7 342.21,-23.7 342.21,-23.7 383.81,-23.7 383.81,-23.7 386.91,-23.7 390.01,-26.8 390.01,-29.9 390.01,-29.9 390.01,-36.1 390.01,-36.1 390.01,-39.2 386.91,-42.3 383.81,-42.3"/>
<text text-anchor="middle" x="363.01" y="-30.3" font-family="Helvetica,sans-Serif" font-size="9.00" fill="red">logger.js</text>
</g>
<!-- separated/summary&#45;details&#45;render&#45;component/src/components/info&#45;element.js -->
<g id="node2" class="node">
<title>separated/summary&#45;details&#45;render&#45;component/src/components/info&#45;element.js</title>
<g id="a_node2"><a xlink:href="separated/summary-details-render-component/src/components/info-element.js" xlink:title="info&#45;element.js">
<path fill="#ffffcc" stroke="black" d="M393.81,-319.3C393.81,-319.3 332.2,-319.3 332.2,-319.3 329.1,-319.3 326,-316.2 326,-313.1 326,-313.1 326,-306.9 326,-306.9 326,-303.8 329.1,-300.7 332.2,-300.7 332.2,-300.7 393.81,-300.7 393.81,-300.7 396.91,-300.7 400.02,-303.8 400.02,-306.9 400.02,-306.9 400.02,-313.1 400.02,-313.1 400.02,-316.2 396.91,-319.3 393.81,-319.3"/>
<text text-anchor="middle" x="363.01" y="-307.3" font-family="Helvetica,sans-Serif" font-size="9.00">info&#45;element.js</text>
</a>
</g>
</g>
<!-- separated/summary&#45;details&#45;render&#45;component/src/handlers/prevent&#45;default.js -->
<g id="node3" class="node">
<title>separated/summary&#45;details&#45;render&#45;component/src/handlers/prevent&#45;default.js</title>
<g id="a_node3"><a xlink:href="separated/summary-details-render-component/src/handlers/prevent-default.js" xlink:title="prevent&#45;default.js">
<path fill="#ffffcc" stroke="black" d="M297.82,-190.3C297.82,-190.3 225.19,-190.3 225.19,-190.3 222.09,-190.3 218.98,-187.2 218.98,-184.1 218.98,-184.1 218.98,-177.9 218.98,-177.9 218.98,-174.8 222.09,-171.7 225.19,-171.7 225.19,-171.7 297.82,-171.7 297.82,-171.7 300.92,-171.7 304.02,-174.8 304.02,-177.9 304.02,-177.9 304.02,-184.1 304.02,-184.1 304.02,-187.2 300.92,-190.3 297.82,-190.3"/>
<text text-anchor="middle" x="261.5" y="-178.3" font-family="Helvetica,sans-Serif" font-size="9.00">prevent&#45;default.js</text>
</a>
</g>
</g>
<!-- separated/summary&#45;details&#45;render&#45;component/src/components/info&#45;element.js&#45;&gt;separated/summary&#45;details&#45;render&#45;component/src/handlers/prevent&#45;default.js -->
<g id="edge1" class="edge">
<title>separated/summary&#45;details&#45;render&#45;component/src/components/info&#45;element.js&#45;&gt;separated/summary&#45;details&#45;render&#45;component/src/handlers/prevent&#45;default.js</title>
<path fill="none" stroke="#000000" stroke-width="2" stroke-opacity="0.200000" d="M325.69,-302.2C323.56,-300.74 321.63,-299.03 320.01,-297 306.07,-279.6 325.83,-214.49 312.01,-197 311.21,-195.99 310.35,-195.04 309.43,-194.16"/>
<polygon fill="#000000" fill-opacity="0.200000" stroke="#000000" stroke-width="2" stroke-opacity="0.200000" points="310.43,-192.27 304.43,-190.19 307.82,-195.56 310.43,-192.27"/>
</g>
<!-- separated/summary&#45;details&#45;render&#45;component/src/handlers/prevent&#45;default.js&#45;&gt;/lib/logger.js -->
<g id="edge9" class="edge">
<title>separated/summary&#45;details&#45;render&#45;component/src/handlers/prevent&#45;default.js&#45;&gt;/lib/logger.js</title>
<path fill="none" stroke="#000000" stroke-width="2" stroke-opacity="0.200000" d="M304.31,-171.72C307.2,-169.87 309.83,-167.65 312.01,-165 321.54,-153.42 314.92,-112.1 320.01,-98 326.87,-78.98 340.18,-59.86 349.98,-47.33"/>
<polygon fill="#000000" fill-opacity="0.200000" stroke="#000000" stroke-width="2" stroke-opacity="0.200000" points="351.83,-48.38 353.94,-42.38 348.55,-45.75 351.83,-48.38"/>
</g>
<!-- separated/summary&#45;details&#45;render&#45;component/src/components/info&#45;element.spec.js -->
<g id="node4" class="node">
<title>separated/summary&#45;details&#45;render&#45;component/src/components/info&#45;element.spec.js</title>
<g id="a_node4"><a xlink:href="separated/summary-details-render-component/src/components/info-element.spec.js" xlink:title="info&#45;element.spec.js">
<path fill="#ffffcc" stroke="black" d="M303.31,-319.3C303.31,-319.3 219.69,-319.3 219.69,-319.3 216.59,-319.3 213.49,-316.2 213.49,-313.1 213.49,-313.1 213.49,-306.9 213.49,-306.9 213.49,-303.8 216.59,-300.7 219.69,-300.7 219.69,-300.7 303.31,-300.7 303.31,-300.7 306.41,-300.7 309.51,-303.8 309.51,-306.9 309.51,-306.9 309.51,-313.1 309.51,-313.1 309.51,-316.2 306.41,-319.3 303.31,-319.3"/>
<text text-anchor="middle" x="261.5" y="-307.3" font-family="Helvetica,sans-Serif" font-size="9.00">info&#45;element.spec.js</text>
</a>
</g>
</g>
<!-- separated/summary&#45;details&#45;render&#45;component/src/components/info&#45;element.spec.js&#45;&gt;separated/summary&#45;details&#45;render&#45;component/src/components/info&#45;element.js -->
<g id="edge2" class="edge">
<title>separated/summary&#45;details&#45;render&#45;component/src/components/info&#45;element.spec.js&#45;&gt;separated/summary&#45;details&#45;render&#45;component/src/components/info&#45;element.js</title>
<path fill="none" stroke="#000000" stroke-width="2" stroke-opacity="0.200000" d="M309.63,-310C312.94,-310 316.26,-310 319.54,-310"/>
<polygon fill="#000000" fill-opacity="0.200000" stroke="#000000" stroke-width="2" stroke-opacity="0.200000" points="319.77,-312.1 325.77,-310 319.77,-307.9 319.77,-312.1"/>
</g>
<!-- separated/summary&#45;details&#45;render&#45;component/src/data.js -->
<g id="node5" class="node">
<title>separated/summary&#45;details&#45;render&#45;component/src/data.js</title>
<g id="a_node5"><a xlink:href="separated/summary-details-render-component/src/data.js" xlink:title="data.js">
<path fill="#ffffcc" stroke="black" d="M383.81,-159.3C383.81,-159.3 342.21,-159.3 342.21,-159.3 339.11,-159.3 336.01,-156.2 336.01,-153.1 336.01,-153.1 336.01,-146.9 336.01,-146.9 336.01,-143.8 339.11,-140.7 342.21,-140.7 342.21,-140.7 383.81,-140.7 383.81,-140.7 386.91,-140.7 390.01,-143.8 390.01,-146.9 390.01,-146.9 390.01,-153.1 390.01,-153.1 390.01,-156.2 386.91,-159.3 383.81,-159.3"/>
<text text-anchor="middle" x="363.01" y="-147.3" font-family="Helvetica,sans-Serif" font-size="9.00">data.js</text>
</a>
</g>
</g>
<!-- separated/summary&#45;details&#45;render&#45;component/src/handlers/main&#45;text.js -->
<g id="node6" class="node">
<title>separated/summary&#45;details&#45;render&#45;component/src/handlers/main&#45;text.js</title>
<g id="a_node6"><a xlink:href="separated/summary-details-render-component/src/handlers/main-text.js" xlink:title="main&#45;text.js">
<path fill="#ffffcc" stroke="black" d="M286.3,-221.3C286.3,-221.3 236.7,-221.3 236.7,-221.3 233.6,-221.3 230.5,-218.2 230.5,-215.1 230.5,-215.1 230.5,-208.9 230.5,-208.9 230.5,-205.8 233.6,-202.7 236.7,-202.7 236.7,-202.7 286.3,-202.7 286.3,-202.7 289.4,-202.7 292.5,-205.8 292.5,-208.9 292.5,-208.9 292.5,-215.1 292.5,-215.1 292.5,-218.2 289.4,-221.3 286.3,-221.3"/>
<text text-anchor="middle" x="261.5" y="-209.3" font-family="Helvetica,sans-Serif" font-size="9.00">main&#45;text.js</text>
</a>
</g>
</g>
<!-- separated/summary&#45;details&#45;render&#45;component/src/handlers/main&#45;text.js&#45;&gt;/lib/logger.js -->
<g id="edge5" class="edge">
<title>separated/summary&#45;details&#45;render&#45;component/src/handlers/main&#45;text.js&#45;&gt;/lib/logger.js</title>
<path fill="none" stroke="#000000" stroke-width="2" stroke-opacity="0.200000" d="M292.62,-208.26C300.02,-205.89 307.19,-202.09 312.01,-196 325.57,-178.87 312.98,-118.69 320.01,-98 326.51,-78.85 339.89,-59.76 349.8,-47.26"/>
<polygon fill="#000000" fill-opacity="0.200000" stroke="#000000" stroke-width="2" stroke-opacity="0.200000" points="351.66,-48.32 353.81,-42.33 348.4,-45.67 351.66,-48.32"/>
</g>
<!-- separated/summary&#45;details&#45;render&#45;component/src/handlers/main&#45;text.js&#45;&gt;separated/summary&#45;details&#45;render&#45;component/src/components/info&#45;element.js -->
<g id="edge3" class="edge">
<title>separated/summary&#45;details&#45;render&#45;component/src/handlers/main&#45;text.js&#45;&gt;separated/summary&#45;details&#45;render&#45;component/src/components/info&#45;element.js</title>
<path fill="none" stroke="#000000" stroke-width="2" stroke-opacity="0.200000" d="M292.74,-215.93C300.05,-218.3 307.14,-222.06 312.01,-228 331.58,-251.87 300.29,-273.25 320.01,-297 320.32,-297.37 320.64,-297.74 320.97,-298.09"/>
<polygon fill="#000000" fill-opacity="0.200000" stroke="#000000" stroke-width="2" stroke-opacity="0.200000" points="319.83,-299.88 325.77,-302.13 322.53,-296.66 319.83,-299.88"/>
</g>
<!-- separated/summary&#45;details&#45;render&#45;component/src/handlers/main&#45;text.js&#45;&gt;separated/summary&#45;details&#45;render&#45;component/src/data.js -->
<g id="edge4" class="edge">
<title>separated/summary&#45;details&#45;render&#45;component/src/handlers/main&#45;text.js&#45;&gt;separated/summary&#45;details&#45;render&#45;component/src/data.js</title>
<path fill="none" stroke="#000000" stroke-width="2" stroke-opacity="0.200000" d="M292.71,-204.52C299.31,-202.28 306.08,-199.46 312.01,-196 326.54,-187.52 340.4,-174.21 349.83,-164.08"/>
<polygon fill="#000000" fill-opacity="0.200000" stroke="#000000" stroke-width="2" stroke-opacity="0.200000" points="351.6,-165.25 354.08,-159.4 348.49,-162.43 351.6,-165.25"/>
</g>
<!-- separated/summary&#45;details&#45;render&#45;component/src/handlers/open&#45;close.js -->
<g id="node7" class="node">
<title>separated/summary&#45;details&#45;render&#45;component/src/handlers/open&#45;close.js</title>
<g id="a_node7"><a xlink:href="separated/summary-details-render-component/src/handlers/open-close.js" xlink:title="open&#45;close.js">
<path fill="#ffffcc" stroke="black" d="M289.81,-159.3C289.81,-159.3 233.19,-159.3 233.19,-159.3 230.09,-159.3 226.99,-156.2 226.99,-153.1 226.99,-153.1 226.99,-146.9 226.99,-146.9 226.99,-143.8 230.09,-140.7 233.19,-140.7 233.19,-140.7 289.81,-140.7 289.81,-140.7 292.91,-140.7 296.01,-143.8 296.01,-146.9 296.01,-146.9 296.01,-153.1 296.01,-153.1 296.01,-156.2 292.91,-159.3 289.81,-159.3"/>
<text text-anchor="middle" x="261.5" y="-147.3" font-family="Helvetica,sans-Serif" font-size="9.00">open&#45;close.js</text>
</a>
</g>
</g>
<!-- separated/summary&#45;details&#45;render&#45;component/src/handlers/open&#45;close.js&#45;&gt;/lib/logger.js -->
<g id="edge8" class="edge">
<title>separated/summary&#45;details&#45;render&#45;component/src/handlers/open&#45;close.js&#45;&gt;/lib/logger.js</title>
<path fill="none" stroke="#000000" stroke-width="2" stroke-opacity="0.200000" d="M270.64,-140.43C288.15,-119.84 329.45,-71.29 349.98,-47.14"/>
<polygon fill="#000000" fill-opacity="0.200000" stroke="#000000" stroke-width="2" stroke-opacity="0.200000" points="351.74,-48.31 354.03,-42.38 348.54,-45.59 351.74,-48.31"/>
</g>
<!-- separated/summary&#45;details&#45;render&#45;component/src/handlers/open&#45;close.js&#45;&gt;separated/summary&#45;details&#45;render&#45;component/src/components/info&#45;element.js -->
<g id="edge6" class="edge">
<title>separated/summary&#45;details&#45;render&#45;component/src/handlers/open&#45;close.js&#45;&gt;separated/summary&#45;details&#45;render&#45;component/src/components/info&#45;element.js</title>
<path fill="none" stroke="#000000" stroke-width="2" stroke-opacity="0.200000" d="M296.03,-154.85C302.21,-157.25 307.97,-160.79 312.01,-166 329.88,-189.05 301.99,-274.06 320.01,-297 320.31,-297.38 320.62,-297.75 320.94,-298.12"/>
<polygon fill="#000000" fill-opacity="0.200000" stroke="#000000" stroke-width="2" stroke-opacity="0.200000" points="319.75,-299.86 325.65,-302.23 322.52,-296.7 319.75,-299.86"/>
</g>
<!-- separated/summary&#45;details&#45;render&#45;component/src/handlers/open&#45;close.js&#45;&gt;separated/summary&#45;details&#45;render&#45;component/src/data.js -->
<g id="edge7" class="edge">
<title>separated/summary&#45;details&#45;render&#45;component/src/handlers/open&#45;close.js&#45;&gt;separated/summary&#45;details&#45;render&#45;component/src/data.js</title>
<path fill="none" stroke="#000000" stroke-width="2" stroke-opacity="0.200000" d="M296.19,-150C307.03,-150 319.01,-150 329.75,-150"/>
<polygon fill="#000000" fill-opacity="0.200000" stroke="#000000" stroke-width="2" stroke-opacity="0.200000" points="329.9,-152.1 335.9,-150 329.9,-147.9 329.9,-152.1"/>
</g>
<!-- separated/summary&#45;details&#45;render&#45;component/src/handlers/summary&#45;text.js -->
<g id="node8" class="node">
<title>separated/summary&#45;details&#45;render&#45;component/src/handlers/summary&#45;text.js</title>
<g id="a_node8"><a xlink:href="separated/summary-details-render-component/src/handlers/summary-text.js" xlink:title="summary&#45;text.js">
<path fill="#ffffcc" stroke="black" d="M295.3,-252.3C295.3,-252.3 227.71,-252.3 227.71,-252.3 224.61,-252.3 221.5,-249.2 221.5,-246.1 221.5,-246.1 221.5,-239.9 221.5,-239.9 221.5,-236.8 224.61,-233.7 227.71,-233.7 227.71,-233.7 295.3,-233.7 295.3,-233.7 298.4,-233.7 301.5,-236.8 301.5,-239.9 301.5,-239.9 301.5,-246.1 301.5,-246.1 301.5,-249.2 298.4,-252.3 295.3,-252.3"/>
<text text-anchor="middle" x="261.5" y="-240.3" font-family="Helvetica,sans-Serif" font-size="9.00">summary&#45;text.js</text>
</a>
</g>
</g>
<!-- separated/summary&#45;details&#45;render&#45;component/src/handlers/summary&#45;text.js&#45;&gt;/lib/logger.js -->
<g id="edge12" class="edge">
<title>separated/summary&#45;details&#45;render&#45;component/src/handlers/summary&#45;text.js&#45;&gt;/lib/logger.js</title>
<path fill="none" stroke="#000000" stroke-width="2" stroke-opacity="0.200000" d="M301.7,-235.52C305.66,-233.35 309.24,-230.57 312.01,-227 329.62,-204.31 311.03,-125.28 320.01,-98 326.33,-78.79 339.73,-59.7 349.71,-47.23"/>
<polygon fill="#000000" fill-opacity="0.200000" stroke="#000000" stroke-width="2" stroke-opacity="0.200000" points="351.56,-48.28 353.74,-42.31 348.31,-45.62 351.56,-48.28"/>
</g>
<!-- separated/summary&#45;details&#45;render&#45;component/src/handlers/summary&#45;text.js&#45;&gt;separated/summary&#45;details&#45;render&#45;component/src/components/info&#45;element.js -->
<g id="edge10" class="edge">
<title>separated/summary&#45;details&#45;render&#45;component/src/handlers/summary&#45;text.js&#45;&gt;separated/summary&#45;details&#45;render&#45;component/src/components/info&#45;element.js</title>
<path fill="none" stroke="#000000" stroke-width="2" stroke-opacity="0.200000" d="M276.15,-252.39C286.72,-260.1 301.32,-271.7 312.01,-284 316.46,-289.12 314.65,-292.84 320.01,-297 320.23,-297.18 320.46,-297.35 320.69,-297.52"/>
<polygon fill="#000000" fill-opacity="0.200000" stroke="#000000" stroke-width="2" stroke-opacity="0.200000" points="319.64,-299.34 325.83,-300.77 321.89,-295.79 319.64,-299.34"/>
</g>
<!-- separated/summary&#45;details&#45;render&#45;component/src/handlers/summary&#45;text.js&#45;&gt;separated/summary&#45;details&#45;render&#45;component/src/data.js -->
<g id="edge11" class="edge">
<title>separated/summary&#45;details&#45;render&#45;component/src/handlers/summary&#45;text.js&#45;&gt;separated/summary&#45;details&#45;render&#45;component/src/data.js</title>
<path fill="none" stroke="#000000" stroke-width="2" stroke-opacity="0.200000" d="M300.62,-233.7C304.67,-231.85 308.57,-229.64 312.01,-227 333.19,-210.77 348.06,-182.83 355.8,-165.44"/>
<polygon fill="#000000" fill-opacity="0.200000" stroke="#000000" stroke-width="2" stroke-opacity="0.200000" points="357.89,-165.9 358.33,-159.55 354.04,-164.24 357.89,-165.9"/>
</g>
<!-- separated/summary&#45;details&#45;render&#45;component/src/init/index.js -->
<g id="node9" class="node">
<title>separated/summary&#45;details&#45;render&#45;component/src/init/index.js</title>
<g id="a_node9"><a xlink:href="separated/summary-details-render-component/src/init/index.js" xlink:title="index.js">
<path fill="#ffffcc" stroke="black" d="M87.8,-166.3C87.8,-166.3 46.2,-166.3 46.2,-166.3 43.1,-166.3 40,-163.2 40,-160.1 40,-160.1 40,-153.9 40,-153.9 40,-150.8 43.1,-147.7 46.2,-147.7 46.2,-147.7 87.8,-147.7 87.8,-147.7 90.9,-147.7 94,-150.8 94,-153.9 94,-153.9 94,-160.1 94,-160.1 94,-163.2 90.9,-166.3 87.8,-166.3"/>
<text text-anchor="middle" x="67" y="-154.3" font-family="Helvetica,sans-Serif" font-size="9.00">index.js</text>
</a>
</g>
</g>
<!-- separated/summary&#45;details&#45;render&#45;component/src/listeners/main&#45;text.js -->
<g id="node10" class="node">
<title>separated/summary&#45;details&#45;render&#45;component/src/listeners/main&#45;text.js</title>
<g id="a_node10"><a xlink:href="separated/summary-details-render-component/src/listeners/main-text.js" xlink:title="main&#45;text.js">
<path fill="#ffffcc" stroke="black" d="M174.55,-258.3C174.55,-258.3 124.95,-258.3 124.95,-258.3 121.85,-258.3 118.75,-255.2 118.75,-252.1 118.75,-252.1 118.75,-245.9 118.75,-245.9 118.75,-242.8 121.85,-239.7 124.95,-239.7 124.95,-239.7 174.55,-239.7 174.55,-239.7 177.65,-239.7 180.75,-242.8 180.75,-245.9 180.75,-245.9 180.75,-252.1 180.75,-252.1 180.75,-255.2 177.65,-258.3 174.55,-258.3"/>
<text text-anchor="middle" x="149.75" y="-246.3" font-family="Helvetica,sans-Serif" font-size="9.00">main&#45;text.js</text>
</a>
</g>
</g>
<!-- separated/summary&#45;details&#45;render&#45;component/src/init/index.js&#45;&gt;separated/summary&#45;details&#45;render&#45;component/src/listeners/main&#45;text.js -->
<g id="edge13" class="edge">
<title>separated/summary&#45;details&#45;render&#45;component/src/init/index.js&#45;&gt;separated/summary&#45;details&#45;render&#45;component/src/listeners/main&#45;text.js</title>
<path fill="none" stroke="#000000" stroke-width="2" stroke-opacity="0.200000" d="M69.67,-166.36C73,-182.28 81.93,-214.68 102,-233 105.22,-235.94 109.01,-238.35 113.01,-240.31"/>
<polygon fill="#000000" fill-opacity="0.200000" stroke="#000000" stroke-width="2" stroke-opacity="0.200000" points="112.23,-242.26 118.57,-242.73 113.9,-238.41 112.23,-242.26"/>
</g>
<!-- separated/summary&#45;details&#45;render&#45;component/src/listeners/open&#45;close.js -->
<g id="node11" class="node">
<title>separated/summary&#45;details&#45;render&#45;component/src/listeners/open&#45;close.js</title>
<g id="a_node11"><a xlink:href="separated/summary-details-render-component/src/listeners/open-close.js" xlink:title="open&#45;close.js">
<path fill="#ffffcc" stroke="black" d="M178.06,-227.3C178.06,-227.3 121.44,-227.3 121.44,-227.3 118.34,-227.3 115.24,-224.2 115.24,-221.1 115.24,-221.1 115.24,-214.9 115.24,-214.9 115.24,-211.8 118.34,-208.7 121.44,-208.7 121.44,-208.7 178.06,-208.7 178.06,-208.7 181.16,-208.7 184.26,-211.8 184.26,-214.9 184.26,-214.9 184.26,-221.1 184.26,-221.1 184.26,-224.2 181.16,-227.3 178.06,-227.3"/>
<text text-anchor="middle" x="149.75" y="-215.3" font-family="Helvetica,sans-Serif" font-size="9.00">open&#45;close.js</text>
</a>
</g>
</g>
<!-- separated/summary&#45;details&#45;render&#45;component/src/init/index.js&#45;&gt;separated/summary&#45;details&#45;render&#45;component/src/listeners/open&#45;close.js -->
<g id="edge14" class="edge">
<title>separated/summary&#45;details&#45;render&#45;component/src/init/index.js&#45;&gt;separated/summary&#45;details&#45;render&#45;component/src/listeners/open&#45;close.js</title>
<path fill="none" stroke="#000000" stroke-width="2" stroke-opacity="0.200000" d="M74.39,-166.34C80.64,-174.92 90.82,-187.56 102,-196 106.94,-199.73 112.61,-203.05 118.26,-205.9"/>
<polygon fill="#000000" fill-opacity="0.200000" stroke="#000000" stroke-width="2" stroke-opacity="0.200000" points="117.56,-207.9 123.88,-208.6 119.38,-204.11 117.56,-207.9"/>
</g>
<!-- separated/summary&#45;details&#45;render&#45;component/src/listeners/summary&#45;text.js -->
<g id="node12" class="node">
<title>separated/summary&#45;details&#45;render&#45;component/src/listeners/summary&#45;text.js</title>
<g id="a_node12"><a xlink:href="separated/summary-details-render-component/src/listeners/summary-text.js" xlink:title="summary&#45;text.js">
<path fill="#ffffcc" stroke="black" d="M183.54,-289.3C183.54,-289.3 115.95,-289.3 115.95,-289.3 112.85,-289.3 109.75,-286.2 109.75,-283.1 109.75,-283.1 109.75,-276.9 109.75,-276.9 109.75,-273.8 112.85,-270.7 115.95,-270.7 115.95,-270.7 183.54,-270.7 183.54,-270.7 186.64,-270.7 189.74,-273.8 189.74,-276.9 189.74,-276.9 189.74,-283.1 189.74,-283.1 189.74,-286.2 186.64,-289.3 183.54,-289.3"/>
<text text-anchor="middle" x="149.75" y="-277.3" font-family="Helvetica,sans-Serif" font-size="9.00">summary&#45;text.js</text>
</a>
</g>
</g>
<!-- separated/summary&#45;details&#45;render&#45;component/src/init/index.js&#45;&gt;separated/summary&#45;details&#45;render&#45;component/src/listeners/summary&#45;text.js -->
<g id="edge15" class="edge">
<title>separated/summary&#45;details&#45;render&#45;component/src/init/index.js&#45;&gt;separated/summary&#45;details&#45;render&#45;component/src/listeners/summary&#45;text.js</title>
<path fill="none" stroke="#000000" stroke-width="2" stroke-opacity="0.200000" d="M68.27,-166.43C69.38,-187 74.88,-236.27 102,-264 103.1,-265.13 104.29,-266.17 105.54,-267.15"/>
<polygon fill="#000000" fill-opacity="0.200000" stroke="#000000" stroke-width="2" stroke-opacity="0.200000" points="104.49,-268.97 110.64,-270.55 106.81,-265.48 104.49,-268.97"/>
</g>
<!-- separated/summary&#45;details&#45;render&#45;component/src/init/log&#45;state.js -->
<g id="node13" class="node">
<title>separated/summary&#45;details&#45;render&#45;component/src/init/log&#45;state.js</title>
<g id="a_node13"><a xlink:href="separated/summary-details-render-component/src/init/log-state.js" xlink:title="log&#45;state.js">
<path fill="#ffffcc" stroke="black" d="M173.05,-135.3C173.05,-135.3 126.44,-135.3 126.44,-135.3 123.34,-135.3 120.24,-132.2 120.24,-129.1 120.24,-129.1 120.24,-122.9 120.24,-122.9 120.24,-119.8 123.34,-116.7 126.44,-116.7 126.44,-116.7 173.05,-116.7 173.05,-116.7 176.15,-116.7 179.26,-119.8 179.26,-122.9 179.26,-122.9 179.26,-129.1 179.26,-129.1 179.26,-132.2 176.15,-135.3 173.05,-135.3"/>
<text text-anchor="middle" x="149.75" y="-123.3" font-family="Helvetica,sans-Serif" font-size="9.00">log&#45;state.js</text>
</a>
</g>
</g>
<!-- separated/summary&#45;details&#45;render&#45;component/src/init/index.js&#45;&gt;separated/summary&#45;details&#45;render&#45;component/src/init/log&#45;state.js -->
<g id="edge16" class="edge">
<title>separated/summary&#45;details&#45;render&#45;component/src/init/index.js&#45;&gt;separated/summary&#45;details&#45;render&#45;component/src/init/log&#45;state.js</title>
<path fill="none" stroke="#000000" stroke-width="2" stroke-opacity="0.200000" d="M88.38,-147.67C92.84,-145.72 97.55,-143.74 102,-142 105.86,-140.49 109.94,-138.98 114,-137.52"/>
<polygon fill="#000000" fill-opacity="0.200000" stroke="#000000" stroke-width="2" stroke-opacity="0.200000" points="114.97,-139.41 119.93,-135.43 113.57,-135.45 114.97,-139.41"/>
</g>
<!-- separated/summary&#45;details&#45;render&#45;component/src/init/ui.js -->
<g id="node14" class="node">
<title>separated/summary&#45;details&#45;render&#45;component/src/init/ui.js</title>
<g id="a_node14"><a xlink:href="separated/summary-details-render-component/src/init/ui.js" xlink:title="ui.js">
<path fill="#ffffcc" stroke="black" d="M170.55,-166.3C170.55,-166.3 128.95,-166.3 128.95,-166.3 125.85,-166.3 122.75,-163.2 122.75,-160.1 122.75,-160.1 122.75,-153.9 122.75,-153.9 122.75,-150.8 125.85,-147.7 128.95,-147.7 128.95,-147.7 170.55,-147.7 170.55,-147.7 173.65,-147.7 176.75,-150.8 176.75,-153.9 176.75,-153.9 176.75,-160.1 176.75,-160.1 176.75,-163.2 173.65,-166.3 170.55,-166.3"/>
<text text-anchor="middle" x="149.75" y="-154.3" font-family="Helvetica,sans-Serif" font-size="9.00">ui.js</text>
</a>
</g>
</g>
<!-- separated/summary&#45;details&#45;render&#45;component/src/init/index.js&#45;&gt;separated/summary&#45;details&#45;render&#45;component/src/init/ui.js -->
<g id="edge17" class="edge">
<title>separated/summary&#45;details&#45;render&#45;component/src/init/index.js&#45;&gt;separated/summary&#45;details&#45;render&#45;component/src/init/ui.js</title>
<path fill="none" stroke="#000000" stroke-width="2" stroke-opacity="0.200000" d="M94.44,-157C101.48,-157 109.17,-157 116.49,-157"/>
<polygon fill="#000000" fill-opacity="0.200000" stroke="#000000" stroke-width="2" stroke-opacity="0.200000" points="116.52,-159.1 122.52,-157 116.52,-154.9 116.52,-159.1"/>
</g>
<!-- separated/summary&#45;details&#45;render&#45;component/src/listeners/main&#45;text.js&#45;&gt;separated/summary&#45;details&#45;render&#45;component/src/handlers/main&#45;text.js -->
<g id="edge22" class="edge">
<title>separated/summary&#45;details&#45;render&#45;component/src/listeners/main&#45;text.js&#45;&gt;separated/summary&#45;details&#45;render&#45;component/src/handlers/main&#45;text.js</title>
<path fill="none" stroke="#000000" stroke-width="2" stroke-opacity="0.200000" d="M180.83,-239.84C186.46,-237.81 192.23,-235.51 197.49,-233 201.28,-231.2 201.67,-229.71 205.49,-228 211.47,-225.32 218.01,-222.97 224.43,-220.94"/>
<polygon fill="#000000" fill-opacity="0.200000" stroke="#000000" stroke-width="2" stroke-opacity="0.200000" points="225.14,-222.92 230.27,-219.17 223.92,-218.9 225.14,-222.92"/>
</g>
<!-- separated/summary&#45;details&#45;render&#45;component/src/listeners/open&#45;close.js&#45;&gt;separated/summary&#45;details&#45;render&#45;component/src/handlers/open&#45;close.js -->
<g id="edge23" class="edge">
<title>separated/summary&#45;details&#45;render&#45;component/src/listeners/open&#45;close.js&#45;&gt;separated/summary&#45;details&#45;render&#45;component/src/handlers/open&#45;close.js</title>
<path fill="none" stroke="#000000" stroke-width="2" stroke-opacity="0.200000" d="M180.62,-208.67C186.92,-205.51 193.01,-201.37 197.49,-196 206.34,-185.41 195.85,-175.87 205.49,-166 209.77,-161.63 215.17,-158.43 220.9,-156.1"/>
<polygon fill="#000000" fill-opacity="0.200000" stroke="#000000" stroke-width="2" stroke-opacity="0.200000" points="221.75,-158.02 226.71,-154.05 220.35,-154.06 221.75,-158.02"/>
</g>
<!-- separated/summary&#45;details&#45;render&#45;component/src/listeners/summary&#45;text.js&#45;&gt;separated/summary&#45;details&#45;render&#45;component/src/handlers/summary&#45;text.js -->
<g id="edge24" class="edge">
<title>separated/summary&#45;details&#45;render&#45;component/src/listeners/summary&#45;text.js&#45;&gt;separated/summary&#45;details&#45;render&#45;component/src/handlers/summary&#45;text.js</title>
<path fill="none" stroke="#000000" stroke-width="2" stroke-opacity="0.200000" d="M178.44,-270.66C193.13,-265.71 211.29,-259.59 226.8,-254.36"/>
<polygon fill="#000000" fill-opacity="0.200000" stroke="#000000" stroke-width="2" stroke-opacity="0.200000" points="227.8,-256.24 232.81,-252.33 226.46,-252.26 227.8,-256.24"/>
</g>
<!-- separated/summary&#45;details&#45;render&#45;component/src/init/log&#45;state.js&#45;&gt;/lib/logger.js -->
<g id="edge19" class="edge">
<title>separated/summary&#45;details&#45;render&#45;component/src/init/log&#45;state.js&#45;&gt;/lib/logger.js</title>
<path fill="none" stroke="#000000" stroke-width="2" stroke-opacity="0.200000" d="M168.32,-116.56C178.98,-110.96 192.9,-103.83 205.49,-98 248.99,-77.89 300.49,-57.06 332.2,-44.56"/>
<polygon fill="#000000" fill-opacity="0.200000" stroke="#000000" stroke-width="2" stroke-opacity="0.200000" points="333.07,-46.48 337.89,-42.33 331.54,-42.57 333.07,-46.48"/>
</g>
<!-- separated/summary&#45;details&#45;render&#45;component/src/init/log&#45;state.js&#45;&gt;separated/summary&#45;details&#45;render&#45;component/src/data.js -->
<g id="edge18" class="edge">
<title>separated/summary&#45;details&#45;render&#45;component/src/init/log&#45;state.js&#45;&gt;separated/summary&#45;details&#45;render&#45;component/src/data.js</title>
<path fill="none" stroke="#000000" stroke-width="2" stroke-opacity="0.200000" d="M179.43,-118.22C212.25,-110.67 267.24,-102.22 312.01,-116 325.21,-120.06 338.06,-128.94 347.42,-136.6"/>
<polygon fill="#000000" fill-opacity="0.200000" stroke="#000000" stroke-width="2" stroke-opacity="0.200000" points="346.31,-138.41 352.25,-140.69 349.03,-135.21 346.31,-138.41"/>
</g>
<!-- separated/summary&#45;details&#45;render&#45;component/src/init/ui.js&#45;&gt;separated/summary&#45;details&#45;render&#45;component/src/components/info&#45;element.js -->
<g id="edge20" class="edge">
<title>separated/summary&#45;details&#45;render&#45;component/src/init/ui.js&#45;&gt;separated/summary&#45;details&#45;render&#45;component/src/components/info&#45;element.js</title>
<path fill="none" stroke="#000000" stroke-width="2" stroke-opacity="0.200000" d="M166.6,-166.34C177.28,-173.54 190.61,-184.55 197.49,-198 206.03,-214.69 192.41,-268.57 205.49,-282 222.13,-299.08 288.67,-290.11 312.01,-295 315.14,-295.65 320.33,-297.09 326.22,-298.82"/>
<polygon fill="#000000" fill-opacity="0.200000" stroke="#000000" stroke-width="2" stroke-opacity="0.200000" points="325.94,-300.93 332.29,-300.63 327.14,-296.9 325.94,-300.93"/>
</g>
<!-- separated/summary&#45;details&#45;render&#45;component/src/init/ui.js&#45;&gt;separated/summary&#45;details&#45;render&#45;component/src/data.js -->
<g id="edge21" class="edge">
<title>separated/summary&#45;details&#45;render&#45;component/src/init/ui.js&#45;&gt;separated/summary&#45;details&#45;render&#45;component/src/data.js</title>
<path fill="none" stroke="#000000" stroke-width="2" stroke-opacity="0.200000" d="M176.87,-151.16C184,-148.77 191.42,-145.48 197.49,-141 202.36,-137.41 200.11,-132.74 205.49,-130 247.66,-108.53 304.19,-125.14 336.5,-138.22"/>
<polygon fill="#000000" fill-opacity="0.200000" stroke="#000000" stroke-width="2" stroke-opacity="0.200000" points="335.89,-140.24 342.24,-140.61 337.51,-136.36 335.89,-140.24"/>
</g>
</g>
</svg>
