<?xml version="1.0" encoding="UTF-8" standalone="no"?>
<!DOCTYPE svg PUBLIC "-//W3C//DTD SVG 1.1//EN"
 "http://www.w3.org/Graphics/SVG/1.1/DTD/svg11.dtd">
<!-- Generated by graphviz version 2.44.0 (20200408.0750)
 -->
<!-- Title: dependency&#45;cruiser output Pages: 1 -->
<svg width="445pt" height="413pt"
 viewBox="0.00 0.00 445.02 413.00" xmlns="http://www.w3.org/2000/svg" xmlns:xlink="http://www.w3.org/1999/xlink">
<g id="graph0" class="graph" transform="scale(1 1) rotate(0) translate(4 409)">
<title>dependency&#45;cruiser output</title>
<polygon fill="white" stroke="transparent" points="-4,4 -4,-409 441.02,-409 441.02,4 -4,4"/>
<g id="clust1" class="cluster">
<title>cluster_</title>
<path fill="#ffffff" stroke="black" stroke-width="2" d="M328.76,-8C328.76,-8 390.76,-8 390.76,-8 396.76,-8 402.76,-14 402.76,-20 402.76,-20 402.76,-65 402.76,-65 402.76,-71 396.76,-77 390.76,-77 390.76,-77 328.76,-77 328.76,-77 322.76,-77 316.76,-71 316.76,-65 316.76,-65 316.76,-20 316.76,-20 316.76,-14 322.76,-8 328.76,-8"/>
</g>
<g id="clust2" class="cluster">
<title>cluster_/.lib</title>
<path fill="#ffffff" stroke="black" stroke-width="2" d="M336.76,-16C336.76,-16 382.76,-16 382.76,-16 388.76,-16 394.76,-22 394.76,-28 394.76,-28 394.76,-57 394.76,-57 394.76,-63 388.76,-69 382.76,-69 382.76,-69 336.76,-69 336.76,-69 330.76,-69 324.76,-63 324.76,-57 324.76,-57 324.76,-28 324.76,-28 324.76,-22 330.76,-16 336.76,-16"/>
<text text-anchor="middle" x="359.76" y="-56.9" font-family="Helvetica,sans-Serif" font-weight="bold" font-size="9.00">.lib</text>
</g>
<g id="clust3" class="cluster">
<title>cluster_separated</title>
<path fill="#ffffff" stroke="black" stroke-width="2" d="M20,-85C20,-85 417.02,-85 417.02,-85 423.02,-85 429.02,-91 429.02,-97 429.02,-97 429.02,-385 429.02,-385 429.02,-391 423.02,-397 417.02,-397 417.02,-397 20,-397 20,-397 14,-397 8,-391 8,-385 8,-385 8,-97 8,-97 8,-91 14,-85 20,-85"/>
<text text-anchor="middle" x="218.51" y="-384.9" font-family="Helvetica,sans-Serif" font-weight="bold" font-size="9.00">separated</text>
</g>
<g id="clust4" class="cluster">
<title>cluster_separated/summary&#45;details&#45;render&#45;component</title>
<path fill="#ffffff" stroke="black" stroke-width="2" d="M28,-93C28,-93 409.02,-93 409.02,-93 415.02,-93 421.02,-99 421.02,-105 421.02,-105 421.02,-358 421.02,-358 421.02,-364 415.02,-370 409.02,-370 409.02,-370 28,-370 28,-370 22,-370 16,-364 16,-358 16,-358 16,-105 16,-105 16,-99 22,-93 28,-93"/>
<text text-anchor="middle" x="218.51" y="-357.9" font-family="Helvetica,sans-Serif" font-weight="bold" font-size="9.00">summary&#45;details&#45;render&#45;component</text>
</g>
<g id="clust5" class="cluster">
<title>cluster_separated/summary&#45;details&#45;render&#45;component/src</title>
<path fill="#ffffff" stroke="black" stroke-width="2" d="M36,-101C36,-101 401.02,-101 401.02,-101 407.02,-101 413.02,-107 413.02,-113 413.02,-113 413.02,-331 413.02,-331 413.02,-337 407.02,-343 401.02,-343 401.02,-343 36,-343 36,-343 30,-343 24,-337 24,-331 24,-331 24,-113 24,-113 24,-107 30,-101 36,-101"/>
<text text-anchor="middle" x="218.51" y="-330.9" font-family="Helvetica,sans-Serif" font-weight="bold" font-size="9.00">src</text>
</g>
<g id="clust6" class="cluster">
<title>cluster_separated/summary&#45;details&#45;render&#45;component/src/components</title>
<path fill="#ffffff" stroke="black" stroke-width="2" d="M326.51,-160C326.51,-160 393.02,-160 393.02,-160 399.02,-160 405.02,-166 405.02,-172 405.02,-172 405.02,-201 405.02,-201 405.02,-207 399.02,-213 393.02,-213 393.02,-213 326.51,-213 326.51,-213 320.51,-213 314.51,-207 314.51,-201 314.51,-201 314.51,-172 314.51,-172 314.51,-166 320.51,-160 326.51,-160"/>
<text text-anchor="middle" x="359.76" y="-200.9" font-family="Helvetica,sans-Serif" font-weight="bold" font-size="9.00">components</text>
</g>
<g id="clust7" class="cluster">
<title>cluster_separated/summary&#45;details&#45;render&#45;component/src/handlers</title>
<path fill="#ffffff" stroke="black" stroke-width="2" d="M217.49,-109C217.49,-109 294.51,-109 294.51,-109 300.51,-109 306.51,-115 306.51,-121 306.51,-121 306.51,-243 306.51,-243 306.51,-249 300.51,-255 294.51,-255 294.51,-255 217.49,-255 217.49,-255 211.49,-255 205.49,-249 205.49,-243 205.49,-243 205.49,-121 205.49,-121 205.49,-115 211.49,-109 217.49,-109"/>
<text text-anchor="middle" x="256" y="-242.9" font-family="Helvetica,sans-Serif" font-weight="bold" font-size="9.00">handlers</text>
</g>
<g id="clust8" class="cluster">
<title>cluster_separated/summary&#45;details&#45;render&#45;component/src/init</title>
<path fill="#ffffff" stroke="black" stroke-width="2" d="M44,-232C44,-232 175.5,-232 175.5,-232 181.5,-232 187.5,-238 187.5,-244 187.5,-244 187.5,-304 187.5,-304 187.5,-310 181.5,-316 175.5,-316 175.5,-316 44,-316 44,-316 38,-316 32,-310 32,-304 32,-304 32,-244 32,-244 32,-238 38,-232 44,-232"/>
<text text-anchor="middle" x="109.75" y="-303.9" font-family="Helvetica,sans-Serif" font-weight="bold" font-size="9.00">init</text>
</g>
<g id="clust9" class="cluster">
<title>cluster_separated/summary&#45;details&#45;render&#45;component/src/listeners</title>
<path fill="#ffffff" stroke="black" stroke-width="2" d="M114,-109C114,-109 185.49,-109 185.49,-109 191.49,-109 197.49,-115 197.49,-121 197.49,-121 197.49,-212 197.49,-212 197.49,-218 191.49,-224 185.49,-224 185.49,-224 114,-224 114,-224 108,-224 102,-218 102,-212 102,-212 102,-121 102,-121 102,-115 108,-109 114,-109"/>
<text text-anchor="middle" x="149.75" y="-211.9" font-family="Helvetica,sans-Serif" font-weight="bold" font-size="9.00">listeners</text>
</g>
<!-- /.lib/logger.js -->
<g id="node1" class="node">
<title>/.lib/logger.js</title>
<polygon fill="#ffffcc" stroke="red" points="386.76,-42.3 385.21,-44.37 374.36,-44.37 372.81,-42.3 332.76,-42.3 332.76,-23.7 386.76,-23.7 386.76,-42.3"/>
<text text-anchor="middle" x="359.76" y="-30.3" font-family="Helvetica,sans-Serif" font-size="9.00" fill="red">logger.js</text>
</g>
<!-- separated/summary&#45;details&#45;render&#45;component/src/components/info&#45;element.js -->
<g id="node2" class="node">
<title>separated/summary&#45;details&#45;render&#45;component/src/components/info&#45;element.js</title>
<g id="a_node2"><a xlink:href="separated/summary-details-render-component/src/components/info-element.js" xlink:title="info&#45;element.js">
<path fill="#ffffcc" stroke="black" d="M390.57,-186.3C390.57,-186.3 328.96,-186.3 328.96,-186.3 325.86,-186.3 322.76,-183.2 322.76,-180.1 322.76,-180.1 322.76,-173.9 322.76,-173.9 322.76,-170.8 325.86,-167.7 328.96,-167.7 328.96,-167.7 390.57,-167.7 390.57,-167.7 393.67,-167.7 396.77,-170.8 396.77,-173.9 396.77,-173.9 396.77,-180.1 396.77,-180.1 396.77,-183.2 393.67,-186.3 390.57,-186.3"/>
<text text-anchor="middle" x="359.76" y="-174.3" font-family="Helvetica,sans-Serif" font-size="9.00">info&#45;element.js</text>
</a>
</g>
</g>
<!-- separated/summary&#45;details&#45;render&#45;component/src/handlers/prevent&#45;default.js -->
<g id="node3" class="node">
<title>separated/summary&#45;details&#45;render&#45;component/src/handlers/prevent&#45;default.js</title>
<g id="a_node3"><a xlink:href="separated/summary-details-render-component/src/handlers/prevent-default.js" xlink:title="prevent&#45;default.js">
<path fill="#ffffcc" stroke="black" d="M292.32,-135.3C292.32,-135.3 219.69,-135.3 219.69,-135.3 216.59,-135.3 213.49,-132.2 213.49,-129.1 213.49,-129.1 213.49,-122.9 213.49,-122.9 213.49,-119.8 216.59,-116.7 219.69,-116.7 219.69,-116.7 292.32,-116.7 292.32,-116.7 295.42,-116.7 298.52,-119.8 298.52,-122.9 298.52,-122.9 298.52,-129.1 298.52,-129.1 298.52,-132.2 295.42,-135.3 292.32,-135.3"/>
<text text-anchor="middle" x="256" y="-123.3" font-family="Helvetica,sans-Serif" font-size="9.00">prevent&#45;default.js</text>
</a>
</g>
</g>
<!-- separated/summary&#45;details&#45;render&#45;component/src/components/info&#45;element.js&#45;&gt;separated/summary&#45;details&#45;render&#45;component/src/handlers/prevent&#45;default.js -->
<g id="edge1" class="edge">
<title>separated/summary&#45;details&#45;render&#45;component/src/components/info&#45;element.js&#45;&gt;separated/summary&#45;details&#45;render&#45;component/src/handlers/prevent&#45;default.js</title>
<path fill="none" stroke="#000000" stroke-width="2" stroke-opacity="0.200000" d="M346.89,-167.64C336.65,-159.93 321.25,-149.14 306.51,-142 303.15,-140.37 299.58,-138.85 295.96,-137.45"/>
<polygon fill="#000000" fill-opacity="0.200000" stroke="#000000" stroke-width="2" stroke-opacity="0.200000" points="296.62,-135.45 290.26,-135.34 295.16,-139.39 296.62,-135.45"/>
</g>
<!-- separated/summary&#45;details&#45;render&#45;component/src/handlers/prevent&#45;default.js&#45;&gt;/.lib/logger.js -->
<g id="edge8" class="edge">
<title>separated/summary&#45;details&#45;render&#45;component/src/handlers/prevent&#45;default.js&#45;&gt;/.lib/logger.js</title>
<path fill="none" stroke="#000000" stroke-width="2" stroke-opacity="0.200000" d="M267.51,-116.4C285.66,-99.81 322.92,-65.75 343.78,-46.69"/>
<polygon fill="#000000" fill-opacity="0.200000" stroke="#000000" stroke-width="2" stroke-opacity="0.200000" points="345.45,-48.01 348.46,-42.41 342.62,-44.91 345.45,-48.01"/>
</g>
<!-- separated/summary&#45;details&#45;render&#45;component/src/data.js -->
<g id="node4" class="node">
<title>separated/summary&#45;details&#45;render&#45;component/src/data.js</title>
<g id="a_node4"><a xlink:href="separated/summary-details-render-component/src/data.js" xlink:title="data.js">
<path fill="#ffffcc" stroke="black" d="M380.56,-239.3C380.56,-239.3 338.96,-239.3 338.96,-239.3 335.86,-239.3 332.76,-236.2 332.76,-233.1 332.76,-233.1 332.76,-226.9 332.76,-226.9 332.76,-223.8 335.86,-220.7 338.96,-220.7 338.96,-220.7 380.56,-220.7 380.56,-220.7 383.66,-220.7 386.76,-223.8 386.76,-226.9 386.76,-226.9 386.76,-233.1 386.76,-233.1 386.76,-236.2 383.66,-239.3 380.56,-239.3"/>
<text text-anchor="middle" x="359.76" y="-227.3" font-family="Helvetica,sans-Serif" font-size="9.00">data.js</text>
</a>
</g>
</g>
<!-- separated/summary&#45;details&#45;render&#45;component/src/handlers/main&#45;text.js -->
<g id="node5" class="node">
<title>separated/summary&#45;details&#45;render&#45;component/src/handlers/main&#45;text.js</title>
<g id="a_node5"><a xlink:href="separated/summary-details-render-component/src/handlers/main-text.js" xlink:title="main&#45;text.js">
<path fill="#ffffcc" stroke="black" d="M280.8,-228.3C280.8,-228.3 231.2,-228.3 231.2,-228.3 228.1,-228.3 225,-225.2 225,-222.1 225,-222.1 225,-215.9 225,-215.9 225,-212.8 228.1,-209.7 231.2,-209.7 231.2,-209.7 280.8,-209.7 280.8,-209.7 283.9,-209.7 287,-212.8 287,-215.9 287,-215.9 287,-222.1 287,-222.1 287,-225.2 283.9,-228.3 280.8,-228.3"/>
<text text-anchor="middle" x="256" y="-216.3" font-family="Helvetica,sans-Serif" font-size="9.00">main&#45;text.js</text>
</a>
</g>
</g>
<!-- separated/summary&#45;details&#45;render&#45;component/src/handlers/main&#45;text.js&#45;&gt;/.lib/logger.js -->
<g id="edge4" class="edge">
<title>separated/summary&#45;details&#45;render&#45;component/src/handlers/main&#45;text.js&#45;&gt;/.lib/logger.js</title>
<path fill="none" stroke="#000000" stroke-width="2" stroke-opacity="0.200000" d="M287.02,-214.88C294.33,-212.51 301.47,-208.8 306.51,-203 320.12,-187.33 309.23,-177.07 314.51,-157 325.09,-116.82 342.95,-71.19 352.42,-48.1"/>
<polygon fill="#000000" fill-opacity="0.200000" stroke="#000000" stroke-width="2" stroke-opacity="0.200000" points="354.4,-48.82 354.75,-42.47 350.52,-47.21 354.4,-48.82"/>
</g>
<!-- separated/summary&#45;details&#45;render&#45;component/src/handlers/main&#45;text.js&#45;&gt;separated/summary&#45;details&#45;render&#45;component/src/components/info&#45;element.js -->
<g id="edge2" class="edge">
<title>separated/summary&#45;details&#45;render&#45;component/src/handlers/main&#45;text.js&#45;&gt;separated/summary&#45;details&#45;render&#45;component/src/components/info&#45;element.js</title>
<path fill="none" stroke="#000000" stroke-width="2" stroke-opacity="0.200000" d="M287.23,-212.95C294.04,-210.62 300.9,-207.41 306.51,-203 311.84,-198.81 309.12,-194.12 314.51,-190 315.27,-189.42 316.05,-188.87 316.85,-188.34"/>
<polygon fill="#000000" fill-opacity="0.200000" stroke="#000000" stroke-width="2" stroke-opacity="0.200000" points="318.21,-189.98 322.41,-185.21 316.15,-186.33 318.21,-189.98"/>
</g>
<!-- separated/summary&#45;details&#45;render&#45;component/src/handlers/main&#45;text.js&#45;&gt;separated/summary&#45;details&#45;render&#45;component/src/data.js -->
<g id="edge3" class="edge">
<title>separated/summary&#45;details&#45;render&#45;component/src/handlers/main&#45;text.js&#45;&gt;separated/summary&#45;details&#45;render&#45;component/src/data.js</title>
<path fill="none" stroke="#000000" stroke-width="2" stroke-opacity="0.200000" d="M287.26,-222.27C299.64,-223.61 313.99,-225.16 326.57,-226.52"/>
<polygon fill="#000000" fill-opacity="0.200000" stroke="#000000" stroke-width="2" stroke-opacity="0.200000" points="326.4,-228.61 332.59,-227.17 326.85,-224.44 326.4,-228.61"/>
</g>
<!-- separated/summary&#45;details&#45;render&#45;component/src/handlers/open&#45;close.js -->
<g id="node6" class="node">
<title>separated/summary&#45;details&#45;render&#45;component/src/handlers/open&#45;close.js</title>
<g id="a_node6"><a xlink:href="separated/summary-details-render-component/src/handlers/open-close.js" xlink:title="open&#45;close.js">
<path fill="#ffffcc" stroke="black" d="M284.31,-197.3C284.31,-197.3 227.69,-197.3 227.69,-197.3 224.59,-197.3 221.49,-194.2 221.49,-191.1 221.49,-191.1 221.49,-184.9 221.49,-184.9 221.49,-181.8 224.59,-178.7 227.69,-178.7 227.69,-178.7 284.31,-178.7 284.31,-178.7 287.41,-178.7 290.51,-181.8 290.51,-184.9 290.51,-184.9 290.51,-191.1 290.51,-191.1 290.51,-194.2 287.41,-197.3 284.31,-197.3"/>
<text text-anchor="middle" x="256" y="-185.3" font-family="Helvetica,sans-Serif" font-size="9.00">open&#45;close.js</text>
</a>
</g>
</g>
<!-- separated/summary&#45;details&#45;render&#45;component/src/handlers/open&#45;close.js&#45;&gt;/.lib/logger.js -->
<g id="edge7" class="edge">
<title>separated/summary&#45;details&#45;render&#45;component/src/handlers/open&#45;close.js&#45;&gt;/.lib/logger.js</title>
<path fill="none" stroke="#000000" stroke-width="2" stroke-opacity="0.200000" d="M290.7,-181.65C296.49,-179.36 302.07,-176.24 306.51,-172 311.21,-167.52 340.87,-84.01 353.3,-48.63"/>
<polygon fill="#000000" fill-opacity="0.200000" stroke="#000000" stroke-width="2" stroke-opacity="0.200000" points="355.4,-48.97 355.41,-42.61 351.44,-47.58 355.4,-48.97"/>
</g>
<!-- separated/summary&#45;details&#45;render&#45;component/src/handlers/open&#45;close.js&#45;&gt;separated/summary&#45;details&#45;render&#45;component/src/components/info&#45;element.js -->
<g id="edge5" class="edge">
<title>separated/summary&#45;details&#45;render&#45;component/src/handlers/open&#45;close.js&#45;&gt;separated/summary&#45;details&#45;render&#45;component/src/components/info&#45;element.js</title>
<path fill="none" stroke="#000000" stroke-width="2" stroke-opacity="0.200000" d="M290.6,-184.37C298.98,-183.46 308.06,-182.48 316.78,-181.54"/>
<polygon fill="#000000" fill-opacity="0.200000" stroke="#000000" stroke-width="2" stroke-opacity="0.200000" points="317.01,-183.63 322.75,-180.89 316.55,-179.45 317.01,-183.63"/>
</g>
<!-- separated/summary&#45;details&#45;render&#45;component/src/handlers/open&#45;close.js&#45;&gt;separated/summary&#45;details&#45;render&#45;component/src/data.js -->
<g id="edge6" class="edge">
<title>separated/summary&#45;details&#45;render&#45;component/src/handlers/open&#45;close.js&#45;&gt;separated/summary&#45;details&#45;render&#45;component/src/data.js</title>
<path fill="none" stroke="#000000" stroke-width="2" stroke-opacity="0.200000" d="M290.74,-195.51C296.33,-197.68 301.83,-200.46 306.51,-204 311.62,-207.87 309.39,-212.15 314.51,-216 318.14,-218.73 322.32,-220.94 326.63,-222.72"/>
<polygon fill="#000000" fill-opacity="0.200000" stroke="#000000" stroke-width="2" stroke-opacity="0.200000" points="326.19,-224.79 332.54,-224.89 327.64,-220.85 326.19,-224.79"/>
</g>
<!-- separated/summary&#45;details&#45;render&#45;component/src/handlers/summary&#45;text.js -->
<g id="node7" class="node">
<title>separated/summary&#45;details&#45;render&#45;component/src/handlers/summary&#45;text.js</title>
<g id="a_node7"><a xlink:href="separated/summary-details-render-component/src/handlers/summary-text.js" xlink:title="summary&#45;text.js">
<path fill="#ffffcc" stroke="black" d="M289.8,-166.3C289.8,-166.3 222.21,-166.3 222.21,-166.3 219.11,-166.3 216.01,-163.2 216.01,-160.1 216.01,-160.1 216.01,-153.9 216.01,-153.9 216.01,-150.8 219.11,-147.7 222.21,-147.7 222.21,-147.7 289.8,-147.7 289.8,-147.7 292.9,-147.7 296,-150.8 296,-153.9 296,-153.9 296,-160.1 296,-160.1 296,-163.2 292.9,-166.3 289.8,-166.3"/>
<text text-anchor="middle" x="256" y="-154.3" font-family="Helvetica,sans-Serif" font-size="9.00">summary&#45;text.js</text>
</a>
</g>
</g>
<!-- separated/summary&#45;details&#45;render&#45;component/src/handlers/summary&#45;text.js&#45;&gt;/.lib/logger.js -->
<g id="edge11" class="edge">
<title>separated/summary&#45;details&#45;render&#45;component/src/handlers/summary&#45;text.js&#45;&gt;/.lib/logger.js</title>
<path fill="none" stroke="#000000" stroke-width="2" stroke-opacity="0.200000" d="M295.96,-147.87C299.77,-145.99 303.38,-143.73 306.51,-141 335.23,-116 349.58,-71.63 355.43,-48.3"/>
<polygon fill="#000000" fill-opacity="0.200000" stroke="#000000" stroke-width="2" stroke-opacity="0.200000" points="357.51,-48.64 356.87,-42.32 353.43,-47.66 357.51,-48.64"/>
</g>
<!-- separated/summary&#45;details&#45;render&#45;component/src/handlers/summary&#45;text.js&#45;&gt;separated/summary&#45;details&#45;render&#45;component/src/components/info&#45;element.js -->
<g id="edge9" class="edge">
<title>separated/summary&#45;details&#45;render&#45;component/src/handlers/summary&#45;text.js&#45;&gt;separated/summary&#45;details&#45;render&#45;component/src/components/info&#45;element.js</title>
<path fill="none" stroke="#000000" stroke-width="2" stroke-opacity="0.200000" d="M295.76,-164.62C302.47,-165.94 309.48,-167.31 316.28,-168.65"/>
<polygon fill="#000000" fill-opacity="0.200000" stroke="#000000" stroke-width="2" stroke-opacity="0.200000" points="316.16,-170.77 322.45,-169.86 316.97,-166.65 316.16,-170.77"/>
</g>
<!-- separated/summary&#45;details&#45;render&#45;component/src/handlers/summary&#45;text.js&#45;&gt;separated/summary&#45;details&#45;render&#45;component/src/data.js -->
<g id="edge10" class="edge">
<title>separated/summary&#45;details&#45;render&#45;component/src/handlers/summary&#45;text.js&#45;&gt;separated/summary&#45;details&#45;render&#45;component/src/data.js</title>
<path fill="none" stroke="#000000" stroke-width="2" stroke-opacity="0.200000" d="M295.79,-164.82C299.82,-166.93 303.53,-169.61 306.51,-173 319.34,-187.6 301.63,-201.44 314.51,-216 317.89,-219.82 322.3,-222.6 327.02,-224.63"/>
<polygon fill="#000000" fill-opacity="0.200000" stroke="#000000" stroke-width="2" stroke-opacity="0.200000" points="326.32,-226.61 332.67,-226.69 327.75,-222.66 326.32,-226.61"/>
</g>
<!-- separated/summary&#45;details&#45;render&#45;component/src/init/index.js -->
<g id="node8" class="node">
<title>separated/summary&#45;details&#45;render&#45;component/src/init/index.js</title>
<g id="a_node8"><a xlink:href="separated/summary-details-render-component/src/init/index.js" xlink:title="index.js">
<path fill="#ffffcc" stroke="black" d="M87.8,-258.3C87.8,-258.3 46.2,-258.3 46.2,-258.3 43.1,-258.3 40,-255.2 40,-252.1 40,-252.1 40,-245.9 40,-245.9 40,-242.8 43.1,-239.7 46.2,-239.7 46.2,-239.7 87.8,-239.7 87.8,-239.7 90.9,-239.7 94,-242.8 94,-245.9 94,-245.9 94,-252.1 94,-252.1 94,-255.2 90.9,-258.3 87.8,-258.3"/>
<text text-anchor="middle" x="67" y="-246.3" font-family="Helvetica,sans-Serif" font-size="9.00">index.js</text>
</a>
</g>
</g>
<!-- separated/summary&#45;details&#45;render&#45;component/src/listeners/main&#45;text.js -->
<g id="node9" class="node">
<title>separated/summary&#45;details&#45;render&#45;component/src/listeners/main&#45;text.js</title>
<g id="a_node9"><a xlink:href="separated/summary-details-render-component/src/listeners/main-text.js" xlink:title="main&#45;text.js">
<path fill="#ffffcc" stroke="black" d="M174.55,-197.3C174.55,-197.3 124.95,-197.3 124.95,-197.3 121.85,-197.3 118.75,-194.2 118.75,-191.1 118.75,-191.1 118.75,-184.9 118.75,-184.9 118.75,-181.8 121.85,-178.7 124.95,-178.7 124.95,-178.7 174.55,-178.7 174.55,-178.7 177.65,-178.7 180.75,-181.8 180.75,-184.9 180.75,-184.9 180.75,-191.1 180.75,-191.1 180.75,-194.2 177.65,-197.3 174.55,-197.3"/>
<text text-anchor="middle" x="149.75" y="-185.3" font-family="Helvetica,sans-Serif" font-size="9.00">main&#45;text.js</text>
</a>
</g>
</g>
<!-- separated/summary&#45;details&#45;render&#45;component/src/init/index.js&#45;&gt;separated/summary&#45;details&#45;render&#45;component/src/listeners/main&#45;text.js -->
<g id="edge12" class="edge">
<title>separated/summary&#45;details&#45;render&#45;component/src/init/index.js&#45;&gt;separated/summary&#45;details&#45;render&#45;component/src/listeners/main&#45;text.js</title>
<path fill="none" stroke="#000000" stroke-width="2" stroke-opacity="0.200000" d="M80.62,-239.47C94.25,-229.17 116.05,-212.7 131.32,-201.17"/>
<polygon fill="#000000" fill-opacity="0.200000" stroke="#000000" stroke-width="2" stroke-opacity="0.200000" points="132.7,-202.76 136.22,-197.46 130.17,-199.41 132.7,-202.76"/>
</g>
<!-- separated/summary&#45;details&#45;render&#45;component/src/listeners/open&#45;close.js -->
<g id="node10" class="node">
<title>separated/summary&#45;details&#45;render&#45;component/src/listeners/open&#45;close.js</title>
<g id="a_node10"><a xlink:href="separated/summary-details-render-component/src/listeners/open-close.js" xlink:title="open&#45;close.js">
<path fill="#ffffcc" stroke="black" d="M178.06,-166.3C178.06,-166.3 121.44,-166.3 121.44,-166.3 118.34,-166.3 115.24,-163.2 115.24,-160.1 115.24,-160.1 115.24,-153.9 115.24,-153.9 115.24,-150.8 118.34,-147.7 121.44,-147.7 121.44,-147.7 178.06,-147.7 178.06,-147.7 181.16,-147.7 184.26,-150.8 184.26,-153.9 184.26,-153.9 184.26,-160.1 184.26,-160.1 184.26,-163.2 181.16,-166.3 178.06,-166.3"/>
<text text-anchor="middle" x="149.75" y="-154.3" font-family="Helvetica,sans-Serif" font-size="9.00">open&#45;close.js</text>
</a>
</g>
</g>
<!-- separated/summary&#45;details&#45;render&#45;component/src/init/index.js&#45;&gt;separated/summary&#45;details&#45;render&#45;component/src/listeners/open&#45;close.js -->
<g id="edge13" class="edge">
<title>separated/summary&#45;details&#45;render&#45;component/src/init/index.js&#45;&gt;separated/summary&#45;details&#45;render&#45;component/src/listeners/open&#45;close.js</title>
<path fill="none" stroke="#000000" stroke-width="2" stroke-opacity="0.200000" d="M69.67,-239.64C73,-223.72 81.93,-191.32 102,-173 104.26,-170.94 106.79,-169.14 109.48,-167.58"/>
<polygon fill="#000000" fill-opacity="0.200000" stroke="#000000" stroke-width="2" stroke-opacity="0.200000" points="110.79,-169.27 115.18,-164.67 108.88,-165.52 110.79,-169.27"/>
</g>
<!-- separated/summary&#45;details&#45;render&#45;component/src/listeners/summary&#45;text.js -->
<g id="node11" class="node">
<title>separated/summary&#45;details&#45;render&#45;component/src/listeners/summary&#45;text.js</title>
<g id="a_node11"><a xlink:href="separated/summary-details-render-component/src/listeners/summary-text.js" xlink:title="summary&#45;text.js">
<path fill="#ffffcc" stroke="black" d="M183.54,-135.3C183.54,-135.3 115.95,-135.3 115.95,-135.3 112.85,-135.3 109.75,-132.2 109.75,-129.1 109.75,-129.1 109.75,-122.9 109.75,-122.9 109.75,-119.8 112.85,-116.7 115.95,-116.7 115.95,-116.7 183.54,-116.7 183.54,-116.7 186.64,-116.7 189.74,-119.8 189.74,-122.9 189.74,-122.9 189.74,-129.1 189.74,-129.1 189.74,-132.2 186.64,-135.3 183.54,-135.3"/>
<text text-anchor="middle" x="149.75" y="-123.3" font-family="Helvetica,sans-Serif" font-size="9.00">summary&#45;text.js</text>
</a>
</g>
</g>
<!-- separated/summary&#45;details&#45;render&#45;component/src/init/index.js&#45;&gt;separated/summary&#45;details&#45;render&#45;component/src/listeners/summary&#45;text.js -->
<g id="edge14" class="edge">
<title>separated/summary&#45;details&#45;render&#45;component/src/init/index.js&#45;&gt;separated/summary&#45;details&#45;render&#45;component/src/listeners/summary&#45;text.js</title>
<path fill="none" stroke="#000000" stroke-width="2" stroke-opacity="0.200000" d="M68.27,-239.57C69.38,-219 74.88,-169.73 102,-142 103.1,-140.87 104.29,-139.83 105.54,-138.85"/>
<polygon fill="#000000" fill-opacity="0.200000" stroke="#000000" stroke-width="2" stroke-opacity="0.200000" points="106.81,-140.52 110.64,-135.45 104.49,-137.03 106.81,-140.52"/>
</g>
<!-- separated/summary&#45;details&#45;render&#45;component/src/init/log&#45;state.js -->
<g id="node12" class="node">
<title>separated/summary&#45;details&#45;render&#45;component/src/init/log&#45;state.js</title>
<g id="a_node12"><a xlink:href="separated/summary-details-render-component/src/init/log-state.js" xlink:title="log&#45;state.js">
<path fill="#ffffcc" stroke="black" d="M173.05,-258.3C173.05,-258.3 126.44,-258.3 126.44,-258.3 123.34,-258.3 120.24,-255.2 120.24,-252.1 120.24,-252.1 120.24,-245.9 120.24,-245.9 120.24,-242.8 123.34,-239.7 126.44,-239.7 126.44,-239.7 173.05,-239.7 173.05,-239.7 176.15,-239.7 179.26,-242.8 179.26,-245.9 179.26,-245.9 179.26,-252.1 179.26,-252.1 179.26,-255.2 176.15,-258.3 173.05,-258.3"/>
<text text-anchor="middle" x="149.75" y="-246.3" font-family="Helvetica,sans-Serif" font-size="9.00">log&#45;state.js</text>
</a>
</g>
</g>
<!-- separated/summary&#45;details&#45;render&#45;component/src/init/index.js&#45;&gt;separated/summary&#45;details&#45;render&#45;component/src/init/log&#45;state.js -->
<g id="edge15" class="edge">
<title>separated/summary&#45;details&#45;render&#45;component/src/init/index.js&#45;&gt;separated/summary&#45;details&#45;render&#45;component/src/init/log&#45;state.js</title>
<path fill="none" stroke="#000000" stroke-width="2" stroke-opacity="0.200000" d="M94.44,-249C100.58,-249 107.21,-249 113.66,-249"/>
<polygon fill="#000000" fill-opacity="0.200000" stroke="#000000" stroke-width="2" stroke-opacity="0.200000" points="114.02,-251.1 120.02,-249 114.02,-246.9 114.02,-251.1"/>
</g>
<!-- separated/summary&#45;details&#45;render&#45;component/src/init/ui.js -->
<g id="node13" class="node">
<title>separated/summary&#45;details&#45;render&#45;component/src/init/ui.js</title>
<g id="a_node13"><a xlink:href="separated/summary-details-render-component/src/init/ui.js" xlink:title="ui.js">
<path fill="#ffffcc" stroke="black" d="M170.55,-289.3C170.55,-289.3 128.95,-289.3 128.95,-289.3 125.85,-289.3 122.75,-286.2 122.75,-283.1 122.75,-283.1 122.75,-276.9 122.75,-276.9 122.75,-273.8 125.85,-270.7 128.95,-270.7 128.95,-270.7 170.55,-270.7 170.55,-270.7 173.65,-270.7 176.75,-273.8 176.75,-276.9 176.75,-276.9 176.75,-283.1 176.75,-283.1 176.75,-286.2 173.65,-289.3 170.55,-289.3"/>
<text text-anchor="middle" x="149.75" y="-277.3" font-family="Helvetica,sans-Serif" font-size="9.00">ui.js</text>
</a>
</g>
</g>
<!-- separated/summary&#45;details&#45;render&#45;component/src/init/index.js&#45;&gt;separated/summary&#45;details&#45;render&#45;component/src/init/ui.js -->
<g id="edge16" class="edge">
<title>separated/summary&#45;details&#45;render&#45;component/src/init/index.js&#45;&gt;separated/summary&#45;details&#45;render&#45;component/src/init/ui.js</title>
<path fill="none" stroke="#000000" stroke-width="2" stroke-opacity="0.200000" d="M88.38,-258.33C92.84,-260.28 97.55,-262.26 102,-264 106.71,-265.84 111.73,-267.68 116.66,-269.43"/>
<polygon fill="#000000" fill-opacity="0.200000" stroke="#000000" stroke-width="2" stroke-opacity="0.200000" points="116.04,-271.43 122.4,-271.42 117.42,-267.47 116.04,-271.43"/>
</g>
<!-- separated/summary&#45;details&#45;render&#45;component/src/listeners/main&#45;text.js&#45;&gt;separated/summary&#45;details&#45;render&#45;component/src/handlers/main&#45;text.js -->
<g id="edge21" class="edge">
<title>separated/summary&#45;details&#45;render&#45;component/src/listeners/main&#45;text.js&#45;&gt;separated/summary&#45;details&#45;render&#45;component/src/handlers/main&#45;text.js</title>
<path fill="none" stroke="#000000" stroke-width="2" stroke-opacity="0.200000" d="M180.9,-196.97C192.79,-200.5 206.54,-204.59 218.95,-208.28"/>
<polygon fill="#000000" fill-opacity="0.200000" stroke="#000000" stroke-width="2" stroke-opacity="0.200000" points="218.57,-210.36 224.91,-210.05 219.76,-206.33 218.57,-210.36"/>
</g>
<!-- separated/summary&#45;details&#45;render&#45;component/src/listeners/open&#45;close.js&#45;&gt;separated/summary&#45;details&#45;render&#45;component/src/handlers/open&#45;close.js -->
<g id="edge22" class="edge">
<title>separated/summary&#45;details&#45;render&#45;component/src/listeners/open&#45;close.js&#45;&gt;separated/summary&#45;details&#45;render&#45;component/src/handlers/open&#45;close.js</title>
<path fill="none" stroke="#000000" stroke-width="2" stroke-opacity="0.200000" d="M182.31,-166.39C193.44,-169.69 206.05,-173.44 217.61,-176.88"/>
<polygon fill="#000000" fill-opacity="0.200000" stroke="#000000" stroke-width="2" stroke-opacity="0.200000" points="217.2,-178.95 223.55,-178.65 218.39,-174.92 217.2,-178.95"/>
</g>
<!-- separated/summary&#45;details&#45;render&#45;component/src/listeners/summary&#45;text.js&#45;&gt;separated/summary&#45;details&#45;render&#45;component/src/handlers/summary&#45;text.js -->
<g id="edge23" class="edge">
<title>separated/summary&#45;details&#45;render&#45;component/src/listeners/summary&#45;text.js&#45;&gt;separated/summary&#45;details&#45;render&#45;component/src/handlers/summary&#45;text.js</title>
<path fill="none" stroke="#000000" stroke-width="2" stroke-opacity="0.200000" d="M182.31,-135.39C193.44,-138.69 206.05,-142.44 217.61,-145.88"/>
<polygon fill="#000000" fill-opacity="0.200000" stroke="#000000" stroke-width="2" stroke-opacity="0.200000" points="217.2,-147.95 223.55,-147.65 218.39,-143.92 217.2,-147.95"/>
</g>
<!-- separated/summary&#45;details&#45;render&#45;component/src/init/log&#45;state.js&#45;&gt;/.lib/logger.js -->
<g id="edge18" class="edge">
<title>separated/summary&#45;details&#45;render&#45;component/src/init/log&#45;state.js&#45;&gt;/.lib/logger.js</title>
<path fill="none" stroke="#000000" stroke-width="2" stroke-opacity="0.200000" d="M179.46,-241.21C186.45,-237.95 193.15,-233.37 197.49,-227 212.68,-204.74 190.36,-128.3 205.49,-106 233.26,-65.08 290.47,-46.44 326.6,-38.45"/>
<polygon fill="#000000" fill-opacity="0.200000" stroke="#000000" stroke-width="2" stroke-opacity="0.200000" points="327.22,-40.47 332.65,-37.17 326.35,-36.36 327.22,-40.47"/>
</g>
<!-- separated/summary&#45;details&#45;render&#45;component/src/init/log&#45;state.js&#45;&gt;separated/summary&#45;details&#45;render&#45;component/src/data.js -->
<g id="edge17" class="edge">
<title>separated/summary&#45;details&#45;render&#45;component/src/init/log&#45;state.js&#45;&gt;separated/summary&#45;details&#45;render&#45;component/src/data.js</title>
<path fill="none" stroke="#000000" stroke-width="2" stroke-opacity="0.200000" d="M179.37,-255.73C210.98,-262 263.16,-268.88 306.51,-258 318.64,-254.96 331.02,-248.49 340.69,-242.54"/>
<polygon fill="#000000" fill-opacity="0.200000" stroke="#000000" stroke-width="2" stroke-opacity="0.200000" points="341.83,-244.31 345.76,-239.32 339.57,-240.77 341.83,-244.31"/>
</g>
<!-- separated/summary&#45;details&#45;render&#45;component/src/init/ui.js&#45;&gt;separated/summary&#45;details&#45;render&#45;component/src/components/info&#45;element.js -->
<g id="edge19" class="edge">
<title>separated/summary&#45;details&#45;render&#45;component/src/init/ui.js&#45;&gt;separated/summary&#45;details&#45;render&#45;component/src/components/info&#45;element.js</title>
<path fill="none" stroke="#000000" stroke-width="2" stroke-opacity="0.200000" d="M176.84,-274.26C185.88,-272.4 196.1,-270.45 205.49,-269 227.81,-265.55 290.47,-273.9 306.51,-258 328.12,-236.58 294.88,-213.25 314.51,-190 315.36,-188.99 316.29,-188.06 317.28,-187.19"/>
<polygon fill="#000000" fill-opacity="0.200000" stroke="#000000" stroke-width="2" stroke-opacity="0.200000" points="318.94,-188.6 322.66,-183.44 316.54,-185.15 318.94,-188.6"/>
</g>
<!-- separated/summary&#45;details&#45;render&#45;component/src/init/ui.js&#45;&gt;separated/summary&#45;details&#45;render&#45;component/src/data.js -->
<g id="edge20" class="edge">
<title>separated/summary&#45;details&#45;render&#45;component/src/init/ui.js&#45;&gt;separated/summary&#45;details&#45;render&#45;component/src/data.js</title>
<path fill="none" stroke="#000000" stroke-width="2" stroke-opacity="0.200000" d="M176.92,-281.01C208.55,-281.4 262.94,-279.39 306.51,-264 319.72,-259.33 332.93,-250.69 342.76,-243.29"/>
<polygon fill="#000000" fill-opacity="0.200000" stroke="#000000" stroke-width="2" stroke-opacity="0.200000" points="344.12,-244.9 347.58,-239.56 341.55,-241.58 344.12,-244.9"/>
</g>
</g>
</svg>
