<?xml version="1.0" encoding="UTF-8" standalone="no"?>
<!DOCTYPE svg PUBLIC "-//W3C//DTD SVG 1.1//EN"
 "http://www.w3.org/Graphics/SVG/1.1/DTD/svg11.dtd">
<!-- Generated by graphviz version 2.44.0 (20200408.0750)
 -->
<!-- Title: dependency&#45;cruiser output Pages: 1 -->
<svg width="531pt" height="427pt"
 viewBox="0.00 0.00 530.53 427.00" xmlns="http://www.w3.org/2000/svg" xmlns:xlink="http://www.w3.org/1999/xlink">
<g id="graph0" class="graph" transform="scale(1 1) rotate(0) translate(4 423)">
<title>dependency&#45;cruiser output</title>
<polygon fill="white" stroke="transparent" points="-4,4 -4,-423 526.53,-423 526.53,4 -4,4"/>
<g id="clust1" class="cluster">
<title>cluster_lib</title>
<path fill="#ffffff" stroke="black" stroke-width="2" d="M336.76,-8C336.76,-8 502.53,-8 502.53,-8 508.53,-8 514.53,-14 514.53,-20 514.53,-20 514.53,-49 514.53,-49 514.53,-55 508.53,-61 502.53,-61 502.53,-61 336.76,-61 336.76,-61 330.76,-61 324.76,-55 324.76,-49 324.76,-49 324.76,-20 324.76,-20 324.76,-14 330.76,-8 336.76,-8"/>
<text text-anchor="middle" x="419.64" y="-48.9" font-family="Helvetica,sans-Serif" font-weight="bold" font-size="9.00">lib</text>
</g>
<g id="clust2" class="cluster">
<title>cluster_separated</title>
<path fill="#ffffff" stroke="black" stroke-width="2" d="M20,-69C20,-69 417.01,-69 417.01,-69 423.01,-69 429.01,-75 429.01,-81 429.01,-81 429.01,-399 429.01,-399 429.01,-405 423.01,-411 417.01,-411 417.01,-411 20,-411 20,-411 14,-411 8,-405 8,-399 8,-399 8,-81 8,-81 8,-75 14,-69 20,-69"/>
<text text-anchor="middle" x="218.51" y="-398.9" font-family="Helvetica,sans-Serif" font-weight="bold" font-size="9.00">separated</text>
</g>
<g id="clust3" class="cluster">
<title>cluster_separated/summary&#45;details&#45;render&#45;component</title>
<path fill="#ffffff" stroke="black" stroke-width="2" d="M28,-77C28,-77 409.01,-77 409.01,-77 415.01,-77 421.01,-83 421.01,-89 421.01,-89 421.01,-372 421.01,-372 421.01,-378 415.01,-384 409.01,-384 409.01,-384 28,-384 28,-384 22,-384 16,-378 16,-372 16,-372 16,-89 16,-89 16,-83 22,-77 28,-77"/>
<text text-anchor="middle" x="218.51" y="-371.9" font-family="Helvetica,sans-Serif" font-weight="bold" font-size="9.00">summary&#45;details&#45;render&#45;component</text>
</g>
<g id="clust4" class="cluster">
<title>cluster_separated/summary&#45;details&#45;render&#45;component/src</title>
<path fill="#ffffff" stroke="black" stroke-width="2" d="M36,-85C36,-85 401.01,-85 401.01,-85 407.01,-85 413.01,-91 413.01,-97 413.01,-97 413.01,-345 413.01,-345 413.01,-351 407.01,-357 401.01,-357 401.01,-357 36,-357 36,-357 30,-357 24,-351 24,-345 24,-345 24,-97 24,-97 24,-91 30,-85 36,-85"/>
<text text-anchor="middle" x="218.51" y="-344.9" font-family="Helvetica,sans-Serif" font-weight="bold" font-size="9.00">src</text>
</g>
<g id="clust5" class="cluster">
<title>cluster_separated/summary&#45;details&#45;render&#45;component/src/components</title>
<path fill="#ffffff" stroke="black" stroke-width="2" d="M217.49,-277C217.49,-277 393.01,-277 393.01,-277 399.01,-277 405.01,-283 405.01,-289 405.01,-289 405.01,-318 405.01,-318 405.01,-324 399.01,-330 393.01,-330 393.01,-330 217.49,-330 217.49,-330 211.49,-330 205.49,-324 205.49,-318 205.49,-318 205.49,-289 205.49,-289 205.49,-283 211.49,-277 217.49,-277"/>
<text text-anchor="middle" x="305.25" y="-317.9" font-family="Helvetica,sans-Serif" font-weight="bold" font-size="9.00">components</text>
</g>
<g id="clust6" class="cluster">
<title>cluster_separated/summary&#45;details&#45;render&#45;component/src/handlers</title>
<path fill="#ffffff" stroke="black" stroke-width="2" d="M222.99,-117C222.99,-117 300.01,-117 300.01,-117 306.01,-117 312.01,-123 312.01,-129 312.01,-129 312.01,-251 312.01,-251 312.01,-257 306.01,-263 300.01,-263 300.01,-263 222.99,-263 222.99,-263 216.99,-263 210.99,-257 210.99,-251 210.99,-251 210.99,-129 210.99,-129 210.99,-123 216.99,-117 222.99,-117"/>
<text text-anchor="middle" x="261.5" y="-250.9" font-family="Helvetica,sans-Serif" font-weight="bold" font-size="9.00">handlers</text>
</g>
<g id="clust7" class="cluster">
<title>cluster_separated/summary&#45;details&#45;render&#45;component/src/init</title>
<path fill="#ffffff" stroke="black" stroke-width="2" d="M44,-93C44,-93 175.5,-93 175.5,-93 181.5,-93 187.5,-99 187.5,-105 187.5,-105 187.5,-165 187.5,-165 187.5,-171 181.5,-177 175.5,-177 175.5,-177 44,-177 44,-177 38,-177 32,-171 32,-165 32,-165 32,-105 32,-105 32,-99 38,-93 44,-93"/>
<text text-anchor="middle" x="109.75" y="-164.9" font-family="Helvetica,sans-Serif" font-weight="bold" font-size="9.00">init</text>
</g>
<g id="clust8" class="cluster">
<title>cluster_separated/summary&#45;details&#45;render&#45;component/src/listeners</title>
<path fill="#ffffff" stroke="black" stroke-width="2" d="M114,-185C114,-185 185.49,-185 185.49,-185 191.49,-185 197.49,-191 197.49,-197 197.49,-197 197.49,-288 197.49,-288 197.49,-294 191.49,-300 185.49,-300 185.49,-300 114,-300 114,-300 108,-300 102,-294 102,-288 102,-288 102,-197 102,-197 102,-191 108,-185 114,-185"/>
<text text-anchor="middle" x="149.75" y="-287.9" font-family="Helvetica,sans-Serif" font-weight="bold" font-size="9.00">listeners</text>
</g>
<!-- lib/deep&#45;clone.js -->
<g id="node1" class="node">
<title>lib/deep&#45;clone.js</title>
<g id="a_node1"><a xlink:href="lib/deep-clone.js" xlink:title="deep&#45;clone.js">
<path fill="#ffffcc" stroke="black" d="M500.08,-34.3C500.08,-34.3 443.45,-34.3 443.45,-34.3 440.35,-34.3 437.25,-31.2 437.25,-28.1 437.25,-28.1 437.25,-21.9 437.25,-21.9 437.25,-18.8 440.35,-15.7 443.45,-15.7 443.45,-15.7 500.08,-15.7 500.08,-15.7 503.18,-15.7 506.28,-18.8 506.28,-21.9 506.28,-21.9 506.28,-28.1 506.28,-28.1 506.28,-31.2 503.18,-34.3 500.08,-34.3"/>
<text text-anchor="middle" x="471.77" y="-22.3" font-family="Helvetica,sans-Serif" font-size="9.00">deep&#45;clone.js</text>
</a>
</g>
</g>
<!-- lib/logger.js -->
<g id="node2" class="node">
<title>lib/logger.js</title>
<g id="a_node2"><a xlink:href="lib/logger.js" xlink:title="logger.js">
<path fill="#ffffcc" stroke="black" d="M380.56,-34.3C380.56,-34.3 338.96,-34.3 338.96,-34.3 335.86,-34.3 332.76,-31.2 332.76,-28.1 332.76,-28.1 332.76,-21.9 332.76,-21.9 332.76,-18.8 335.86,-15.7 338.96,-15.7 338.96,-15.7 380.56,-15.7 380.56,-15.7 383.66,-15.7 386.76,-18.8 386.76,-21.9 386.76,-21.9 386.76,-28.1 386.76,-28.1 386.76,-31.2 383.66,-34.3 380.56,-34.3"/>
<text text-anchor="middle" x="359.76" y="-22.3" font-family="Helvetica,sans-Serif" font-size="9.00">logger.js</text>
</a>
</g>
</g>
<!-- lib/logger.js&#45;&gt;lib/deep&#45;clone.js -->
<g id="edge1" class="edge">
<title>lib/logger.js&#45;&gt;lib/deep&#45;clone.js</title>
<path fill="none" stroke="#000000" stroke-width="2" stroke-opacity="0.200000" d="M386.83,-25C399.95,-25 416.14,-25 430.79,-25"/>
<polygon fill="#000000" fill-opacity="0.200000" stroke="#000000" stroke-width="2" stroke-opacity="0.200000" points="430.96,-27.1 436.96,-25 430.96,-22.9 430.96,-27.1"/>
</g>
<!-- separated/summary&#45;details&#45;render&#45;component/src/components/info&#45;element.js -->
<g id="node3" class="node">
<title>separated/summary&#45;details&#45;render&#45;component/src/components/info&#45;element.js</title>
<g id="a_node3"><a xlink:href="separated/summary-details-render-component/src/components/info-element.js" xlink:title="info&#45;element.js">
<path fill="#ffffcc" stroke="black" d="M390.57,-303.3C390.57,-303.3 328.95,-303.3 328.95,-303.3 325.85,-303.3 322.75,-300.2 322.75,-297.1 322.75,-297.1 322.75,-290.9 322.75,-290.9 322.75,-287.8 325.85,-284.7 328.95,-284.7 328.95,-284.7 390.57,-284.7 390.57,-284.7 393.67,-284.7 396.77,-287.8 396.77,-290.9 396.77,-290.9 396.77,-297.1 396.77,-297.1 396.77,-300.2 393.67,-303.3 390.57,-303.3"/>
<text text-anchor="middle" x="359.76" y="-291.3" font-family="Helvetica,sans-Serif" font-size="9.00">info&#45;element.js</text>
</a>
</g>
</g>
<!-- separated/summary&#45;details&#45;render&#45;component/src/handlers/prevent&#45;default.js -->
<g id="node4" class="node">
<title>separated/summary&#45;details&#45;render&#45;component/src/handlers/prevent&#45;default.js</title>
<g id="a_node4"><a xlink:href="separated/summary-details-render-component/src/handlers/prevent-default.js" xlink:title="prevent&#45;default.js">
<path fill="#ffffcc" stroke="black" d="M297.82,-174.3C297.82,-174.3 225.19,-174.3 225.19,-174.3 222.09,-174.3 218.98,-171.2 218.98,-168.1 218.98,-168.1 218.98,-161.9 218.98,-161.9 218.98,-158.8 222.09,-155.7 225.19,-155.7 225.19,-155.7 297.82,-155.7 297.82,-155.7 300.92,-155.7 304.02,-158.8 304.02,-161.9 304.02,-161.9 304.02,-168.1 304.02,-168.1 304.02,-171.2 300.92,-174.3 297.82,-174.3"/>
<text text-anchor="middle" x="261.5" y="-162.3" font-family="Helvetica,sans-Serif" font-size="9.00">prevent&#45;default.js</text>
</a>
</g>
</g>
<!-- separated/summary&#45;details&#45;render&#45;component/src/components/info&#45;element.js&#45;&gt;separated/summary&#45;details&#45;render&#45;component/src/handlers/prevent&#45;default.js -->
<g id="edge2" class="edge">
<title>separated/summary&#45;details&#45;render&#45;component/src/components/info&#45;element.js&#45;&gt;separated/summary&#45;details&#45;render&#45;component/src/handlers/prevent&#45;default.js</title>
<path fill="none" stroke="#000000" stroke-width="2" stroke-opacity="0.200000" d="M326.15,-284.69C324.81,-283.59 323.58,-282.37 322.51,-281 294.91,-245.85 340.16,-215.71 312.01,-181 311.2,-180 310.32,-179.06 309.4,-178.18"/>
<polygon fill="#000000" fill-opacity="0.200000" stroke="#000000" stroke-width="2" stroke-opacity="0.200000" points="310.38,-176.28 304.36,-174.25 307.79,-179.59 310.38,-176.28"/>
</g>
<!-- separated/summary&#45;details&#45;render&#45;component/src/handlers/prevent&#45;default.js&#45;&gt;lib/logger.js -->
<g id="edge10" class="edge">
<title>separated/summary&#45;details&#45;render&#45;component/src/handlers/prevent&#45;default.js&#45;&gt;lib/logger.js</title>
<path fill="none" stroke="#000000" stroke-width="2" stroke-opacity="0.200000" d="M304.21,-155.63C307.12,-153.8 309.78,-151.61 312.01,-149 331.58,-126.08 311.86,-110.2 322.51,-82 328.42,-66.35 339,-50.44 347.21,-39.42"/>
<polygon fill="#000000" fill-opacity="0.200000" stroke="#000000" stroke-width="2" stroke-opacity="0.200000" points="349.05,-40.47 351.02,-34.43 345.71,-37.92 349.05,-40.47"/>
</g>
<!-- separated/summary&#45;details&#45;render&#45;component/src/components/info&#45;element.spec.js -->
<g id="node5" class="node">
<title>separated/summary&#45;details&#45;render&#45;component/src/components/info&#45;element.spec.js</title>
<g id="a_node5"><a xlink:href="separated/summary-details-render-component/src/components/info-element.spec.js" xlink:title="info&#45;element.spec.js">
<path fill="#ffffcc" stroke="black" d="M303.31,-303.3C303.31,-303.3 219.69,-303.3 219.69,-303.3 216.59,-303.3 213.49,-300.2 213.49,-297.1 213.49,-297.1 213.49,-290.9 213.49,-290.9 213.49,-287.8 216.59,-284.7 219.69,-284.7 219.69,-284.7 303.31,-284.7 303.31,-284.7 306.41,-284.7 309.51,-287.8 309.51,-290.9 309.51,-290.9 309.51,-297.1 309.51,-297.1 309.51,-300.2 306.41,-303.3 303.31,-303.3"/>
<text text-anchor="middle" x="261.5" y="-291.3" font-family="Helvetica,sans-Serif" font-size="9.00">info&#45;element.spec.js</text>
</a>
</g>
</g>
<!-- separated/summary&#45;details&#45;render&#45;component/src/components/info&#45;element.spec.js&#45;&gt;separated/summary&#45;details&#45;render&#45;component/src/components/info&#45;element.js -->
<g id="edge3" class="edge">
<title>separated/summary&#45;details&#45;render&#45;component/src/components/info&#45;element.spec.js&#45;&gt;separated/summary&#45;details&#45;render&#45;component/src/components/info&#45;element.js</title>
<path fill="none" stroke="#000000" stroke-width="2" stroke-opacity="0.200000" d="M309.78,-294C311.92,-294 314.07,-294 316.19,-294"/>
<polygon fill="#000000" fill-opacity="0.200000" stroke="#000000" stroke-width="2" stroke-opacity="0.200000" points="316.51,-296.1 322.51,-294 316.51,-291.9 316.51,-296.1"/>
</g>
<!-- separated/summary&#45;details&#45;render&#45;component/src/data.js -->
<g id="node6" class="node">
<title>separated/summary&#45;details&#45;render&#45;component/src/data.js</title>
<g id="a_node6"><a xlink:href="separated/summary-details-render-component/src/data.js" xlink:title="data.js">
<path fill="#ffffcc" stroke="black" d="M380.56,-143.3C380.56,-143.3 338.96,-143.3 338.96,-143.3 335.86,-143.3 332.76,-140.2 332.76,-137.1 332.76,-137.1 332.76,-130.9 332.76,-130.9 332.76,-127.8 335.86,-124.7 338.96,-124.7 338.96,-124.7 380.56,-124.7 380.56,-124.7 383.66,-124.7 386.76,-127.8 386.76,-130.9 386.76,-130.9 386.76,-137.1 386.76,-137.1 386.76,-140.2 383.66,-143.3 380.56,-143.3"/>
<text text-anchor="middle" x="359.76" y="-131.3" font-family="Helvetica,sans-Serif" font-size="9.00">data.js</text>
</a>
</g>
</g>
<!-- separated/summary&#45;details&#45;render&#45;component/src/handlers/main&#45;text.js -->
<g id="node7" class="node">
<title>separated/summary&#45;details&#45;render&#45;component/src/handlers/main&#45;text.js</title>
<g id="a_node7"><a xlink:href="separated/summary-details-render-component/src/handlers/main-text.js" xlink:title="main&#45;text.js">
<path fill="#ffffcc" stroke="black" d="M286.3,-205.3C286.3,-205.3 236.7,-205.3 236.7,-205.3 233.6,-205.3 230.5,-202.2 230.5,-199.1 230.5,-199.1 230.5,-192.9 230.5,-192.9 230.5,-189.8 233.6,-186.7 236.7,-186.7 236.7,-186.7 286.3,-186.7 286.3,-186.7 289.4,-186.7 292.5,-189.8 292.5,-192.9 292.5,-192.9 292.5,-199.1 292.5,-199.1 292.5,-202.2 289.4,-205.3 286.3,-205.3"/>
<text text-anchor="middle" x="261.5" y="-193.3" font-family="Helvetica,sans-Serif" font-size="9.00">main&#45;text.js</text>
</a>
</g>
</g>
<!-- separated/summary&#45;details&#45;render&#45;component/src/handlers/main&#45;text.js&#45;&gt;lib/logger.js -->
<g id="edge4" class="edge">
<title>separated/summary&#45;details&#45;render&#45;component/src/handlers/main&#45;text.js&#45;&gt;lib/logger.js</title>
<path fill="none" stroke="#000000" stroke-width="2" stroke-opacity="0.200000" d="M292.52,-192.18C299.91,-189.81 307.11,-186.03 312.01,-180 325.82,-163 315.27,-102.67 322.51,-82 328.03,-66.21 338.66,-50.32 346.98,-39.34"/>
<polygon fill="#000000" fill-opacity="0.200000" stroke="#000000" stroke-width="2" stroke-opacity="0.200000" points="348.82,-40.39 350.85,-34.37 345.51,-37.81 348.82,-40.39"/>
</g>
<!-- separated/summary&#45;details&#45;render&#45;component/src/handlers/main&#45;text.js&#45;&gt;separated/summary&#45;details&#45;render&#45;component/src/components/info&#45;element.js -->
<g id="edge5" class="edge">
<title>separated/summary&#45;details&#45;render&#45;component/src/handlers/main&#45;text.js&#45;&gt;separated/summary&#45;details&#45;render&#45;component/src/components/info&#45;element.js</title>
<path fill="none" stroke="#000000" stroke-width="2" stroke-opacity="0.200000" d="M292.6,-200.05C299.91,-202.42 307.04,-206.15 312.01,-212 330.84,-234.16 306.26,-254.37 322.43,-279.53"/>
<polygon fill="#000000" fill-opacity="0.200000" stroke="#000000" stroke-width="2" stroke-opacity="0.200000" points="320.96,-281.07 326.23,-284.63 324.33,-278.56 320.96,-281.07"/>
</g>
<!-- separated/summary&#45;details&#45;render&#45;component/src/handlers/main&#45;text.js&#45;&gt;separated/summary&#45;details&#45;render&#45;component/src/data.js -->
<g id="edge6" class="edge">
<title>separated/summary&#45;details&#45;render&#45;component/src/handlers/main&#45;text.js&#45;&gt;separated/summary&#45;details&#45;render&#45;component/src/data.js</title>
<path fill="none" stroke="#000000" stroke-width="2" stroke-opacity="0.200000" d="M292.54,-188.76C299.21,-186.49 306.06,-183.61 312.01,-180 325.9,-171.58 338.83,-158.26 347.55,-148.12"/>
<polygon fill="#000000" fill-opacity="0.200000" stroke="#000000" stroke-width="2" stroke-opacity="0.200000" points="349.24,-149.37 351.48,-143.43 346.02,-146.67 349.24,-149.37"/>
</g>
<!-- separated/summary&#45;details&#45;render&#45;component/src/handlers/open&#45;close.js -->
<g id="node8" class="node">
<title>separated/summary&#45;details&#45;render&#45;component/src/handlers/open&#45;close.js</title>
<g id="a_node8"><a xlink:href="separated/summary-details-render-component/src/handlers/open-close.js" xlink:title="open&#45;close.js">
<path fill="#ffffcc" stroke="black" d="M289.81,-143.3C289.81,-143.3 233.19,-143.3 233.19,-143.3 230.09,-143.3 226.99,-140.2 226.99,-137.1 226.99,-137.1 226.99,-130.9 226.99,-130.9 226.99,-127.8 230.09,-124.7 233.19,-124.7 233.19,-124.7 289.81,-124.7 289.81,-124.7 292.91,-124.7 296.01,-127.8 296.01,-130.9 296.01,-130.9 296.01,-137.1 296.01,-137.1 296.01,-140.2 292.91,-143.3 289.81,-143.3"/>
<text text-anchor="middle" x="261.5" y="-131.3" font-family="Helvetica,sans-Serif" font-size="9.00">open&#45;close.js</text>
</a>
</g>
</g>
<!-- separated/summary&#45;details&#45;render&#45;component/src/handlers/open&#45;close.js&#45;&gt;lib/logger.js -->
<g id="edge7" class="edge">
<title>separated/summary&#45;details&#45;render&#45;component/src/handlers/open&#45;close.js&#45;&gt;lib/logger.js</title>
<path fill="none" stroke="#000000" stroke-width="2" stroke-opacity="0.200000" d="M271.04,-124.33C288.07,-105.05 326.3,-61.76 346.19,-39.23"/>
<polygon fill="#000000" fill-opacity="0.200000" stroke="#000000" stroke-width="2" stroke-opacity="0.200000" points="347.98,-40.38 350.37,-34.5 344.83,-37.6 347.98,-40.38"/>
</g>
<!-- separated/summary&#45;details&#45;render&#45;component/src/handlers/open&#45;close.js&#45;&gt;separated/summary&#45;details&#45;render&#45;component/src/components/info&#45;element.js -->
<g id="edge8" class="edge">
<title>separated/summary&#45;details&#45;render&#45;component/src/handlers/open&#45;close.js&#45;&gt;separated/summary&#45;details&#45;render&#45;component/src/components/info&#45;element.js</title>
<path fill="none" stroke="#000000" stroke-width="2" stroke-opacity="0.200000" d="M296.21,-139.01C302.29,-141.4 307.97,-144.9 312.01,-150 329.06,-171.57 307.58,-248.07 322.57,-279.2"/>
<polygon fill="#000000" fill-opacity="0.200000" stroke="#000000" stroke-width="2" stroke-opacity="0.200000" points="320.87,-280.45 325.81,-284.46 324.45,-278.25 320.87,-280.45"/>
</g>
<!-- separated/summary&#45;details&#45;render&#45;component/src/handlers/open&#45;close.js&#45;&gt;separated/summary&#45;details&#45;render&#45;component/src/data.js -->
<g id="edge9" class="edge">
<title>separated/summary&#45;details&#45;render&#45;component/src/handlers/open&#45;close.js&#45;&gt;separated/summary&#45;details&#45;render&#45;component/src/data.js</title>
<path fill="none" stroke="#000000" stroke-width="2" stroke-opacity="0.200000" d="M296.17,-134C305.95,-134 316.61,-134 326.32,-134"/>
<polygon fill="#000000" fill-opacity="0.200000" stroke="#000000" stroke-width="2" stroke-opacity="0.200000" points="326.54,-136.1 332.54,-134 326.54,-131.9 326.54,-136.1"/>
</g>
<!-- separated/summary&#45;details&#45;render&#45;component/src/handlers/summary&#45;text.js -->
<g id="node9" class="node">
<title>separated/summary&#45;details&#45;render&#45;component/src/handlers/summary&#45;text.js</title>
<g id="a_node9"><a xlink:href="separated/summary-details-render-component/src/handlers/summary-text.js" xlink:title="summary&#45;text.js">
<path fill="#ffffcc" stroke="black" d="M295.3,-236.3C295.3,-236.3 227.71,-236.3 227.71,-236.3 224.61,-236.3 221.5,-233.2 221.5,-230.1 221.5,-230.1 221.5,-223.9 221.5,-223.9 221.5,-220.8 224.61,-217.7 227.71,-217.7 227.71,-217.7 295.3,-217.7 295.3,-217.7 298.4,-217.7 301.5,-220.8 301.5,-223.9 301.5,-223.9 301.5,-230.1 301.5,-230.1 301.5,-233.2 298.4,-236.3 295.3,-236.3"/>
<text text-anchor="middle" x="261.5" y="-224.3" font-family="Helvetica,sans-Serif" font-size="9.00">summary&#45;text.js</text>
</a>
</g>
</g>
<!-- separated/summary&#45;details&#45;render&#45;component/src/handlers/summary&#45;text.js&#45;&gt;lib/logger.js -->
<g id="edge11" class="edge">
<title>separated/summary&#45;details&#45;render&#45;component/src/handlers/summary&#45;text.js&#45;&gt;lib/logger.js</title>
<path fill="none" stroke="#000000" stroke-width="2" stroke-opacity="0.200000" d="M301.63,-219.47C305.61,-217.31 309.2,-214.54 312.01,-211 329.86,-188.45 313.35,-109.27 322.51,-82 327.83,-66.14 338.48,-50.26 346.86,-39.3"/>
<polygon fill="#000000" fill-opacity="0.200000" stroke="#000000" stroke-width="2" stroke-opacity="0.200000" points="348.71,-40.35 350.76,-34.34 345.41,-37.76 348.71,-40.35"/>
</g>
<!-- separated/summary&#45;details&#45;render&#45;component/src/handlers/summary&#45;text.js&#45;&gt;separated/summary&#45;details&#45;render&#45;component/src/components/info&#45;element.js -->
<g id="edge12" class="edge">
<title>separated/summary&#45;details&#45;render&#45;component/src/handlers/summary&#45;text.js&#45;&gt;separated/summary&#45;details&#45;render&#45;component/src/components/info&#45;element.js</title>
<path fill="none" stroke="#000000" stroke-width="2" stroke-opacity="0.200000" d="M275.3,-236.46C285.67,-244.38 300.4,-256.25 312.01,-268 317.23,-273.28 316.45,-276.7 322.51,-281 322.74,-281.16 322.97,-281.33 323.21,-281.49"/>
<polygon fill="#000000" fill-opacity="0.200000" stroke="#000000" stroke-width="2" stroke-opacity="0.200000" points="322.21,-283.34 328.44,-284.6 324.35,-279.73 322.21,-283.34"/>
</g>
<!-- separated/summary&#45;details&#45;render&#45;component/src/handlers/summary&#45;text.js&#45;&gt;separated/summary&#45;details&#45;render&#45;component/src/data.js -->
<g id="edge13" class="edge">
<title>separated/summary&#45;details&#45;render&#45;component/src/handlers/summary&#45;text.js&#45;&gt;separated/summary&#45;details&#45;render&#45;component/src/data.js</title>
<path fill="none" stroke="#000000" stroke-width="2" stroke-opacity="0.200000" d="M300.95,-217.68C304.9,-215.84 308.68,-213.63 312.01,-211 332.55,-194.76 346.22,-166.83 353.22,-149.44"/>
<polygon fill="#000000" fill-opacity="0.200000" stroke="#000000" stroke-width="2" stroke-opacity="0.200000" points="355.29,-149.91 355.5,-143.55 351.38,-148.39 355.29,-149.91"/>
</g>
<!-- separated/summary&#45;details&#45;render&#45;component/src/init/index.js -->
<g id="node10" class="node">
<title>separated/summary&#45;details&#45;render&#45;component/src/init/index.js</title>
<g id="a_node10"><a xlink:href="separated/summary-details-render-component/src/init/index.js" xlink:title="index.js">
<path fill="#ffffcc" stroke="black" d="M87.8,-150.3C87.8,-150.3 46.2,-150.3 46.2,-150.3 43.1,-150.3 40,-147.2 40,-144.1 40,-144.1 40,-137.9 40,-137.9 40,-134.8 43.1,-131.7 46.2,-131.7 46.2,-131.7 87.8,-131.7 87.8,-131.7 90.9,-131.7 94,-134.8 94,-137.9 94,-137.9 94,-144.1 94,-144.1 94,-147.2 90.9,-150.3 87.8,-150.3"/>
<text text-anchor="middle" x="67" y="-138.3" font-family="Helvetica,sans-Serif" font-size="9.00">index.js</text>
</a>
</g>
</g>
<!-- separated/summary&#45;details&#45;render&#45;component/src/listeners/main&#45;text.js -->
<g id="node11" class="node">
<title>separated/summary&#45;details&#45;render&#45;component/src/listeners/main&#45;text.js</title>
<g id="a_node11"><a xlink:href="separated/summary-details-render-component/src/listeners/main-text.js" xlink:title="main&#45;text.js">
<path fill="#ffffcc" stroke="black" d="M174.55,-242.3C174.55,-242.3 124.95,-242.3 124.95,-242.3 121.85,-242.3 118.75,-239.2 118.75,-236.1 118.75,-236.1 118.75,-229.9 118.75,-229.9 118.75,-226.8 121.85,-223.7 124.95,-223.7 124.95,-223.7 174.55,-223.7 174.55,-223.7 177.65,-223.7 180.75,-226.8 180.75,-229.9 180.75,-229.9 180.75,-236.1 180.75,-236.1 180.75,-239.2 177.65,-242.3 174.55,-242.3"/>
<text text-anchor="middle" x="149.75" y="-230.3" font-family="Helvetica,sans-Serif" font-size="9.00">main&#45;text.js</text>
</a>
</g>
</g>
<!-- separated/summary&#45;details&#45;render&#45;component/src/init/index.js&#45;&gt;separated/summary&#45;details&#45;render&#45;component/src/listeners/main&#45;text.js -->
<g id="edge14" class="edge">
<title>separated/summary&#45;details&#45;render&#45;component/src/init/index.js&#45;&gt;separated/summary&#45;details&#45;render&#45;component/src/listeners/main&#45;text.js</title>
<path fill="none" stroke="#000000" stroke-width="2" stroke-opacity="0.200000" d="M69.67,-150.36C73,-166.28 81.93,-198.68 102,-217 105.22,-219.94 109.01,-222.35 113.01,-224.31"/>
<polygon fill="#000000" fill-opacity="0.200000" stroke="#000000" stroke-width="2" stroke-opacity="0.200000" points="112.23,-226.26 118.57,-226.73 113.9,-222.41 112.23,-226.26"/>
</g>
<!-- separated/summary&#45;details&#45;render&#45;component/src/listeners/open&#45;close.js -->
<g id="node12" class="node">
<title>separated/summary&#45;details&#45;render&#45;component/src/listeners/open&#45;close.js</title>
<g id="a_node12"><a xlink:href="separated/summary-details-render-component/src/listeners/open-close.js" xlink:title="open&#45;close.js">
<path fill="#ffffcc" stroke="black" d="M178.06,-211.3C178.06,-211.3 121.44,-211.3 121.44,-211.3 118.34,-211.3 115.24,-208.2 115.24,-205.1 115.24,-205.1 115.24,-198.9 115.24,-198.9 115.24,-195.8 118.34,-192.7 121.44,-192.7 121.44,-192.7 178.06,-192.7 178.06,-192.7 181.16,-192.7 184.26,-195.8 184.26,-198.9 184.26,-198.9 184.26,-205.1 184.26,-205.1 184.26,-208.2 181.16,-211.3 178.06,-211.3"/>
<text text-anchor="middle" x="149.75" y="-199.3" font-family="Helvetica,sans-Serif" font-size="9.00">open&#45;close.js</text>
</a>
</g>
</g>
<!-- separated/summary&#45;details&#45;render&#45;component/src/init/index.js&#45;&gt;separated/summary&#45;details&#45;render&#45;component/src/listeners/open&#45;close.js -->
<g id="edge15" class="edge">
<title>separated/summary&#45;details&#45;render&#45;component/src/init/index.js&#45;&gt;separated/summary&#45;details&#45;render&#45;component/src/listeners/open&#45;close.js</title>
<path fill="none" stroke="#000000" stroke-width="2" stroke-opacity="0.200000" d="M74.39,-150.34C80.64,-158.92 90.82,-171.56 102,-180 106.94,-183.73 112.61,-187.05 118.26,-189.9"/>
<polygon fill="#000000" fill-opacity="0.200000" stroke="#000000" stroke-width="2" stroke-opacity="0.200000" points="117.56,-191.9 123.88,-192.6 119.38,-188.11 117.56,-191.9"/>
</g>
<!-- separated/summary&#45;details&#45;render&#45;component/src/listeners/summary&#45;text.js -->
<g id="node13" class="node">
<title>separated/summary&#45;details&#45;render&#45;component/src/listeners/summary&#45;text.js</title>
<g id="a_node13"><a xlink:href="separated/summary-details-render-component/src/listeners/summary-text.js" xlink:title="summary&#45;text.js">
<path fill="#ffffcc" stroke="black" d="M183.54,-273.3C183.54,-273.3 115.95,-273.3 115.95,-273.3 112.85,-273.3 109.75,-270.2 109.75,-267.1 109.75,-267.1 109.75,-260.9 109.75,-260.9 109.75,-257.8 112.85,-254.7 115.95,-254.7 115.95,-254.7 183.54,-254.7 183.54,-254.7 186.64,-254.7 189.74,-257.8 189.74,-260.9 189.74,-260.9 189.74,-267.1 189.74,-267.1 189.74,-270.2 186.64,-273.3 183.54,-273.3"/>
<text text-anchor="middle" x="149.75" y="-261.3" font-family="Helvetica,sans-Serif" font-size="9.00">summary&#45;text.js</text>
</a>
</g>
</g>
<!-- separated/summary&#45;details&#45;render&#45;component/src/init/index.js&#45;&gt;separated/summary&#45;details&#45;render&#45;component/src/listeners/summary&#45;text.js -->
<g id="edge16" class="edge">
<title>separated/summary&#45;details&#45;render&#45;component/src/init/index.js&#45;&gt;separated/summary&#45;details&#45;render&#45;component/src/listeners/summary&#45;text.js</title>
<path fill="none" stroke="#000000" stroke-width="2" stroke-opacity="0.200000" d="M68.27,-150.43C69.38,-171 74.88,-220.27 102,-248 103.1,-249.13 104.29,-250.17 105.54,-251.15"/>
<polygon fill="#000000" fill-opacity="0.200000" stroke="#000000" stroke-width="2" stroke-opacity="0.200000" points="104.49,-252.97 110.64,-254.55 106.81,-249.48 104.49,-252.97"/>
</g>
<!-- separated/summary&#45;details&#45;render&#45;component/src/init/log&#45;state.js -->
<g id="node14" class="node">
<title>separated/summary&#45;details&#45;render&#45;component/src/init/log&#45;state.js</title>
<g id="a_node14"><a xlink:href="separated/summary-details-render-component/src/init/log-state.js" xlink:title="log&#45;state.js">
<path fill="#ffffcc" stroke="black" d="M173.05,-119.3C173.05,-119.3 126.44,-119.3 126.44,-119.3 123.34,-119.3 120.24,-116.2 120.24,-113.1 120.24,-113.1 120.24,-106.9 120.24,-106.9 120.24,-103.8 123.34,-100.7 126.44,-100.7 126.44,-100.7 173.05,-100.7 173.05,-100.7 176.15,-100.7 179.26,-103.8 179.26,-106.9 179.26,-106.9 179.26,-113.1 179.26,-113.1 179.26,-116.2 176.15,-119.3 173.05,-119.3"/>
<text text-anchor="middle" x="149.75" y="-107.3" font-family="Helvetica,sans-Serif" font-size="9.00">log&#45;state.js</text>
</a>
</g>
</g>
<!-- separated/summary&#45;details&#45;render&#45;component/src/init/index.js&#45;&gt;separated/summary&#45;details&#45;render&#45;component/src/init/log&#45;state.js -->
<g id="edge17" class="edge">
<title>separated/summary&#45;details&#45;render&#45;component/src/init/index.js&#45;&gt;separated/summary&#45;details&#45;render&#45;component/src/init/log&#45;state.js</title>
<path fill="none" stroke="#000000" stroke-width="2" stroke-opacity="0.200000" d="M88.38,-131.67C92.84,-129.72 97.55,-127.74 102,-126 105.86,-124.49 109.94,-122.98 114,-121.52"/>
<polygon fill="#000000" fill-opacity="0.200000" stroke="#000000" stroke-width="2" stroke-opacity="0.200000" points="114.97,-123.41 119.93,-119.43 113.57,-119.45 114.97,-123.41"/>
</g>
<!-- separated/summary&#45;details&#45;render&#45;component/src/init/ui.js -->
<g id="node15" class="node">
<title>separated/summary&#45;details&#45;render&#45;component/src/init/ui.js</title>
<g id="a_node15"><a xlink:href="separated/summary-details-render-component/src/init/ui.js" xlink:title="ui.js">
<path fill="#ffffcc" stroke="black" d="M170.55,-150.3C170.55,-150.3 128.95,-150.3 128.95,-150.3 125.85,-150.3 122.75,-147.2 122.75,-144.1 122.75,-144.1 122.75,-137.9 122.75,-137.9 122.75,-134.8 125.85,-131.7 128.95,-131.7 128.95,-131.7 170.55,-131.7 170.55,-131.7 173.65,-131.7 176.75,-134.8 176.75,-137.9 176.75,-137.9 176.75,-144.1 176.75,-144.1 176.75,-147.2 173.65,-150.3 170.55,-150.3"/>
<text text-anchor="middle" x="149.75" y="-138.3" font-family="Helvetica,sans-Serif" font-size="9.00">ui.js</text>
</a>
</g>
</g>
<!-- separated/summary&#45;details&#45;render&#45;component/src/init/index.js&#45;&gt;separated/summary&#45;details&#45;render&#45;component/src/init/ui.js -->
<g id="edge18" class="edge">
<title>separated/summary&#45;details&#45;render&#45;component/src/init/index.js&#45;&gt;separated/summary&#45;details&#45;render&#45;component/src/init/ui.js</title>
<path fill="none" stroke="#000000" stroke-width="2" stroke-opacity="0.200000" d="M94.44,-141C101.48,-141 109.17,-141 116.49,-141"/>
<polygon fill="#000000" fill-opacity="0.200000" stroke="#000000" stroke-width="2" stroke-opacity="0.200000" points="116.52,-143.1 122.52,-141 116.52,-138.9 116.52,-143.1"/>
</g>
<!-- separated/summary&#45;details&#45;render&#45;component/src/listeners/main&#45;text.js&#45;&gt;separated/summary&#45;details&#45;render&#45;component/src/handlers/main&#45;text.js -->
<g id="edge23" class="edge">
<title>separated/summary&#45;details&#45;render&#45;component/src/listeners/main&#45;text.js&#45;&gt;separated/summary&#45;details&#45;render&#45;component/src/handlers/main&#45;text.js</title>
<path fill="none" stroke="#000000" stroke-width="2" stroke-opacity="0.200000" d="M180.83,-223.84C186.46,-221.81 192.23,-219.51 197.49,-217 201.28,-215.2 201.67,-213.71 205.49,-212 211.47,-209.32 218.01,-206.97 224.43,-204.94"/>
<polygon fill="#000000" fill-opacity="0.200000" stroke="#000000" stroke-width="2" stroke-opacity="0.200000" points="225.14,-206.92 230.27,-203.17 223.92,-202.9 225.14,-206.92"/>
</g>
<!-- separated/summary&#45;details&#45;render&#45;component/src/listeners/open&#45;close.js&#45;&gt;separated/summary&#45;details&#45;render&#45;component/src/handlers/open&#45;close.js -->
<g id="edge24" class="edge">
<title>separated/summary&#45;details&#45;render&#45;component/src/listeners/open&#45;close.js&#45;&gt;separated/summary&#45;details&#45;render&#45;component/src/handlers/open&#45;close.js</title>
<path fill="none" stroke="#000000" stroke-width="2" stroke-opacity="0.200000" d="M180.62,-192.67C186.92,-189.51 193.01,-185.37 197.49,-180 206.34,-169.41 195.85,-159.87 205.49,-150 209.77,-145.63 215.17,-142.43 220.9,-140.1"/>
<polygon fill="#000000" fill-opacity="0.200000" stroke="#000000" stroke-width="2" stroke-opacity="0.200000" points="221.75,-142.02 226.71,-138.05 220.35,-138.06 221.75,-142.02"/>
</g>
<!-- separated/summary&#45;details&#45;render&#45;component/src/listeners/summary&#45;text.js&#45;&gt;separated/summary&#45;details&#45;render&#45;component/src/handlers/summary&#45;text.js -->
<g id="edge25" class="edge">
<title>separated/summary&#45;details&#45;render&#45;component/src/listeners/summary&#45;text.js&#45;&gt;separated/summary&#45;details&#45;render&#45;component/src/handlers/summary&#45;text.js</title>
<path fill="none" stroke="#000000" stroke-width="2" stroke-opacity="0.200000" d="M178.44,-254.66C193.13,-249.71 211.29,-243.59 226.8,-238.36"/>
<polygon fill="#000000" fill-opacity="0.200000" stroke="#000000" stroke-width="2" stroke-opacity="0.200000" points="227.8,-240.24 232.81,-236.33 226.46,-236.26 227.8,-240.24"/>
</g>
<!-- separated/summary&#45;details&#45;render&#45;component/src/init/log&#45;state.js&#45;&gt;lib/logger.js -->
<g id="edge19" class="edge">
<title>separated/summary&#45;details&#45;render&#45;component/src/init/log&#45;state.js&#45;&gt;lib/logger.js</title>
<path fill="none" stroke="#000000" stroke-width="2" stroke-opacity="0.200000" d="M167.76,-100.65C178.44,-94.94 192.6,-87.67 205.49,-82 246.54,-63.94 295.29,-46.47 326.61,-35.73"/>
<polygon fill="#000000" fill-opacity="0.200000" stroke="#000000" stroke-width="2" stroke-opacity="0.200000" points="327.63,-37.6 332.63,-33.67 326.27,-33.63 327.63,-37.6"/>
</g>
<!-- separated/summary&#45;details&#45;render&#45;component/src/init/log&#45;state.js&#45;&gt;separated/summary&#45;details&#45;render&#45;component/src/data.js -->
<g id="edge20" class="edge">
<title>separated/summary&#45;details&#45;render&#45;component/src/init/log&#45;state.js&#45;&gt;separated/summary&#45;details&#45;render&#45;component/src/data.js</title>
<path fill="none" stroke="#000000" stroke-width="2" stroke-opacity="0.200000" d="M179.54,-101.57C212.47,-93.39 267.54,-84.2 312.01,-99 324.67,-103.21 336.67,-112.35 345.34,-120.23"/>
<polygon fill="#000000" fill-opacity="0.200000" stroke="#000000" stroke-width="2" stroke-opacity="0.200000" points="344,-121.84 349.8,-124.44 346.88,-118.79 344,-121.84"/>
</g>
<!-- separated/summary&#45;details&#45;render&#45;component/src/init/ui.js&#45;&gt;separated/summary&#45;details&#45;render&#45;component/src/components/info&#45;element.js -->
<g id="edge21" class="edge">
<title>separated/summary&#45;details&#45;render&#45;component/src/init/ui.js&#45;&gt;separated/summary&#45;details&#45;render&#45;component/src/components/info&#45;element.js</title>
<path fill="none" stroke="#000000" stroke-width="2" stroke-opacity="0.200000" d="M166.6,-150.34C177.28,-157.54 190.61,-168.55 197.49,-182 206.03,-198.69 192.41,-252.57 205.49,-266 222.13,-283.08 288.72,-273.89 312.01,-279 316.69,-280.03 321.57,-281.33 326.34,-282.73"/>
<polygon fill="#000000" fill-opacity="0.200000" stroke="#000000" stroke-width="2" stroke-opacity="0.200000" points="325.94,-284.81 332.3,-284.55 327.17,-280.79 325.94,-284.81"/>
</g>
<!-- separated/summary&#45;details&#45;render&#45;component/src/init/ui.js&#45;&gt;separated/summary&#45;details&#45;render&#45;component/src/data.js -->
<g id="edge22" class="edge">
<title>separated/summary&#45;details&#45;render&#45;component/src/init/ui.js&#45;&gt;separated/summary&#45;details&#45;render&#45;component/src/data.js</title>
<path fill="none" stroke="#000000" stroke-width="2" stroke-opacity="0.200000" d="M176.87,-135.16C184,-132.77 191.42,-129.48 197.49,-125 202.36,-121.41 200.11,-116.74 205.49,-114 247.68,-92.52 265.63,-104.5 312.01,-114 320.14,-115.67 328.61,-118.81 336.06,-122.11"/>
<polygon fill="#000000" fill-opacity="0.200000" stroke="#000000" stroke-width="2" stroke-opacity="0.200000" points="335.22,-124.04 341.55,-124.65 336.98,-120.23 335.22,-124.04"/>
</g>
</g>
</svg>
