<?xml version="1.0" encoding="UTF-8" standalone="no"?>
<!DOCTYPE svg PUBLIC "-//W3C//DTD SVG 1.1//EN"
 "http://www.w3.org/Graphics/SVG/1.1/DTD/svg11.dtd">
<!-- Generated by graphviz version 2.44.0 (20200408.0750)
 -->
<!-- Title: dependency&#45;cruiser output Pages: 1 -->
<svg width="142pt" height="208pt"
 viewBox="0.00 0.00 142.00 208.00" xmlns="http://www.w3.org/2000/svg" xmlns:xlink="http://www.w3.org/1999/xlink">
<g id="graph0" class="graph" transform="scale(1 1) rotate(0) translate(4 204)">
<title>dependency&#45;cruiser output</title>
<polygon fill="white" stroke="transparent" points="-4,4 -4,-204 138,-204 138,4 -4,4"/>
<g id="clust1" class="cluster">
<title>cluster_reverse&#45;engineering</title>
<path fill="#ffffff" stroke="black" stroke-width="2" d="M20,-8C20,-8 114,-8 114,-8 120,-8 126,-14 126,-20 126,-20 126,-180 126,-180 126,-186 120,-192 114,-192 114,-192 20,-192 20,-192 14,-192 8,-186 8,-180 8,-180 8,-20 8,-20 8,-14 14,-8 20,-8"/>
<text text-anchor="middle" x="67" y="-179.9" font-family="Helvetica,sans-Serif" font-weight="bold" font-size="9.00">reverse&#45;engineering</text>
</g>
<g id="clust2" class="cluster">
<title>cluster_reverse&#45;engineering/template</title>
<path fill="#ffffff" stroke="black" stroke-width="2" d="M28,-16C28,-16 106,-16 106,-16 112,-16 118,-22 118,-28 118,-28 118,-153 118,-153 118,-159 112,-165 106,-165 106,-165 28,-165 28,-165 22,-165 16,-159 16,-153 16,-153 16,-28 16,-28 16,-22 22,-16 28,-16"/>
<text text-anchor="middle" x="67" y="-152.9" font-family="Helvetica,sans-Serif" font-weight="bold" font-size="9.00">template</text>
</g>
<g id="clust3" class="cluster">
<title>cluster_reverse&#45;engineering/template/src</title>
<path fill="#ffffff" stroke="black" stroke-width="2" d="M36,-24C36,-24 98,-24 98,-24 104,-24 110,-30 110,-36 110,-36 110,-126 110,-126 110,-132 104,-138 98,-138 98,-138 36,-138 36,-138 30,-138 24,-132 24,-126 24,-126 24,-36 24,-36 24,-30 30,-24 36,-24"/>
<text text-anchor="middle" x="67" y="-125.9" font-family="Helvetica,sans-Serif" font-weight="bold" font-size="9.00">src</text>
</g>
<g id="clust4" class="cluster">
<title>cluster_reverse&#45;engineering/template/src/init</title>
<path fill="#ffffff" stroke="black" stroke-width="2" d="M44,-58C44,-58 90,-58 90,-58 96,-58 102,-64 102,-70 102,-70 102,-99 102,-99 102,-105 96,-111 90,-111 90,-111 44,-111 44,-111 38,-111 32,-105 32,-99 32,-99 32,-70 32,-70 32,-64 38,-58 44,-58"/>
<text text-anchor="middle" x="67" y="-98.9" font-family="Helvetica,sans-Serif" font-weight="bold" font-size="9.00">init</text>
</g>
<!-- reverse&#45;engineering/template/src/data.js -->
<g id="node1" class="node">
<title>reverse&#45;engineering/template/src/data.js</title>
<g id="a_node1"><a xlink:href="reverse-engineering/template/src/data.js" xlink:title="data.js">
<path fill="#ccffcc" stroke="black" d="M87.8,-50.3C87.8,-50.3 46.2,-50.3 46.2,-50.3 43.1,-50.3 40,-47.2 40,-44.1 40,-44.1 40,-37.9 40,-37.9 40,-34.8 43.1,-31.7 46.2,-31.7 46.2,-31.7 87.8,-31.7 87.8,-31.7 90.9,-31.7 94,-34.8 94,-37.9 94,-37.9 94,-44.1 94,-44.1 94,-47.2 90.9,-50.3 87.8,-50.3"/>
<text text-anchor="middle" x="67" y="-38.3" font-family="Helvetica,sans-Serif" font-size="9.00">data.js</text>
</a>
</g>
</g>
<!-- reverse&#45;engineering/template/src/init/index.js -->
<g id="node2" class="node">
<title>reverse&#45;engineering/template/src/init/index.js</title>
<g id="a_node2"><a xlink:href="reverse-engineering/template/src/init/index.js" xlink:title="index.js">
<path fill="#ccffcc" stroke="black" d="M87.8,-84.3C87.8,-84.3 46.2,-84.3 46.2,-84.3 43.1,-84.3 40,-81.2 40,-78.1 40,-78.1 40,-71.9 40,-71.9 40,-68.8 43.1,-65.7 46.2,-65.7 46.2,-65.7 87.8,-65.7 87.8,-65.7 90.9,-65.7 94,-68.8 94,-71.9 94,-71.9 94,-78.1 94,-78.1 94,-81.2 90.9,-84.3 87.8,-84.3"/>
<text text-anchor="middle" x="67" y="-72.3" font-family="Helvetica,sans-Serif" font-size="9.00">index.js</text>
</a>
</g>
</g>
</g>
</svg>
