<?xml version="1.0" encoding="UTF-8" standalone="no"?>
<!DOCTYPE svg PUBLIC "-//W3C//DTD SVG 1.1//EN"
 "http://www.w3.org/Graphics/SVG/1.1/DTD/svg11.dtd">
<!-- Generated by graphviz version 2.44.0 (20200408.0750)
 -->
<!-- Title: dependency&#45;cruiser output Pages: 1 -->
<svg width="459pt" height="444pt"
 viewBox="0.00 0.00 459.03 444.00" xmlns="http://www.w3.org/2000/svg" xmlns:xlink="http://www.w3.org/1999/xlink">
<g id="graph0" class="graph" transform="scale(1 1) rotate(0) translate(4 440)">
<title>dependency&#45;cruiser output</title>
<polygon fill="white" stroke="transparent" points="-4,4 -4,-440 455.03,-440 455.03,4 -4,4"/>
<g id="clust1" class="cluster">
<title>cluster_</title>
<path fill="#ffffff" stroke="black" stroke-width="2" d="M361.03,-8C361.03,-8 423.03,-8 423.03,-8 429.03,-8 435.03,-14 435.03,-20 435.03,-20 435.03,-65 435.03,-65 435.03,-71 429.03,-77 423.03,-77 423.03,-77 361.03,-77 361.03,-77 355.03,-77 349.03,-71 349.03,-65 349.03,-65 349.03,-20 349.03,-20 349.03,-14 355.03,-8 361.03,-8"/>
</g>
<g id="clust2" class="cluster">
<title>cluster_/.lib</title>
<path fill="#ffffff" stroke="black" stroke-width="2" d="M369.03,-16C369.03,-16 415.03,-16 415.03,-16 421.03,-16 427.03,-22 427.03,-28 427.03,-28 427.03,-57 427.03,-57 427.03,-63 421.03,-69 415.03,-69 415.03,-69 369.03,-69 369.03,-69 363.03,-69 357.03,-63 357.03,-57 357.03,-57 357.03,-28 357.03,-28 357.03,-22 363.03,-16 369.03,-16"/>
<text text-anchor="middle" x="392.03" y="-56.9" font-family="Helvetica,sans-Serif" font-weight="bold" font-size="9.00">.lib</text>
</g>
<g id="clust3" class="cluster">
<title>cluster_separated</title>
<path fill="#ffffff" stroke="black" stroke-width="2" d="M20,-85C20,-85 431.03,-85 431.03,-85 437.03,-85 443.03,-91 443.03,-97 443.03,-97 443.03,-416 443.03,-416 443.03,-422 437.03,-428 431.03,-428 431.03,-428 20,-428 20,-428 14,-428 8,-422 8,-416 8,-416 8,-97 8,-97 8,-91 14,-85 20,-85"/>
<text text-anchor="middle" x="225.52" y="-415.9" font-family="Helvetica,sans-Serif" font-weight="bold" font-size="9.00">separated</text>
</g>
<g id="clust4" class="cluster">
<title>cluster_separated/summary&#45;details&#45;update&#45;dom</title>
<path fill="#ffffff" stroke="black" stroke-width="2" d="M28,-93C28,-93 423.03,-93 423.03,-93 429.03,-93 435.03,-99 435.03,-105 435.03,-105 435.03,-389 435.03,-389 435.03,-395 429.03,-401 423.03,-401 423.03,-401 28,-401 28,-401 22,-401 16,-395 16,-389 16,-389 16,-105 16,-105 16,-99 22,-93 28,-93"/>
<text text-anchor="middle" x="225.52" y="-388.9" font-family="Helvetica,sans-Serif" font-weight="bold" font-size="9.00">summary&#45;details&#45;update&#45;dom</text>
</g>
<g id="clust5" class="cluster">
<title>cluster_separated/summary&#45;details&#45;update&#45;dom/src</title>
<path fill="#ffffff" stroke="black" stroke-width="2" d="M36,-101C36,-101 415.03,-101 415.03,-101 421.03,-101 427.03,-107 427.03,-113 427.03,-113 427.03,-362 427.03,-362 427.03,-368 421.03,-374 415.03,-374 415.03,-374 36,-374 36,-374 30,-374 24,-368 24,-362 24,-362 24,-113 24,-113 24,-107 30,-101 36,-101"/>
<text text-anchor="middle" x="225.52" y="-361.9" font-family="Helvetica,sans-Serif" font-weight="bold" font-size="9.00">src</text>
</g>
<g id="clust6" class="cluster">
<title>cluster_separated/summary&#45;details&#45;update&#45;dom/src/handlers</title>
<path fill="#ffffff" stroke="black" stroke-width="2" d="M252.02,-109C252.02,-109 329.03,-109 329.03,-109 335.03,-109 341.03,-115 341.03,-121 341.03,-121 341.03,-243 341.03,-243 341.03,-249 335.03,-255 329.03,-255 329.03,-255 252.02,-255 252.02,-255 246.02,-255 240.02,-249 240.02,-243 240.02,-243 240.02,-121 240.02,-121 240.02,-115 246.02,-109 252.02,-109"/>
<text text-anchor="middle" x="290.52" y="-242.9" font-family="Helvetica,sans-Serif" font-weight="bold" font-size="9.00">handlers</text>
</g>
<g id="clust7" class="cluster">
<title>cluster_separated/summary&#45;details&#45;update&#45;dom/src/init</title>
<path fill="#ffffff" stroke="black" stroke-width="2" d="M44,-263C44,-263 192.76,-263 192.76,-263 198.76,-263 204.76,-269 204.76,-275 204.76,-275 204.76,-335 204.76,-335 204.76,-341 198.76,-347 192.76,-347 192.76,-347 44,-347 44,-347 38,-347 32,-341 32,-335 32,-335 32,-275 32,-275 32,-269 38,-263 44,-263"/>
<text text-anchor="middle" x="118.38" y="-334.9" font-family="Helvetica,sans-Serif" font-weight="bold" font-size="9.00">init</text>
</g>
<g id="clust8" class="cluster">
<title>cluster_separated/summary&#45;details&#45;update&#45;dom/src/listeners</title>
<path fill="#ffffff" stroke="black" stroke-width="2" d="M114,-109C114,-109 220.02,-109 220.02,-109 226.02,-109 232.02,-115 232.02,-121 232.02,-121 232.02,-243 232.02,-243 232.02,-249 226.02,-255 220.02,-255 220.02,-255 114,-255 114,-255 108,-255 102,-249 102,-243 102,-243 102,-121 102,-121 102,-115 108,-109 114,-109"/>
<text text-anchor="middle" x="167.01" y="-242.9" font-family="Helvetica,sans-Serif" font-weight="bold" font-size="9.00">listeners</text>
</g>
<!-- /.lib/logger.js -->
<g id="node1" class="node">
<title>/.lib/logger.js</title>
<polygon fill="#ffffcc" stroke="red" points="419.03,-42.3 417.48,-44.37 406.63,-44.37 405.08,-42.3 365.03,-42.3 365.03,-23.7 419.03,-23.7 419.03,-42.3"/>
<text text-anchor="middle" x="392.03" y="-30.3" font-family="Helvetica,sans-Serif" font-size="9.00" fill="red">logger.js</text>
</g>
<!-- separated/summary&#45;details&#45;update&#45;dom/src/data.js -->
<g id="node2" class="node">
<title>separated/summary&#45;details&#45;update&#45;dom/src/data.js</title>
<g id="a_node2"><a xlink:href="separated/summary-details-update-dom/src/data.js" xlink:title="data.js">
<path fill="#ffffcc" stroke="black" d="M412.83,-228.3C412.83,-228.3 371.23,-228.3 371.23,-228.3 368.13,-228.3 365.03,-225.2 365.03,-222.1 365.03,-222.1 365.03,-215.9 365.03,-215.9 365.03,-212.8 368.13,-209.7 371.23,-209.7 371.23,-209.7 412.83,-209.7 412.83,-209.7 415.93,-209.7 419.03,-212.8 419.03,-215.9 419.03,-215.9 419.03,-222.1 419.03,-222.1 419.03,-225.2 415.93,-228.3 412.83,-228.3"/>
<text text-anchor="middle" x="392.03" y="-216.3" font-family="Helvetica,sans-Serif" font-size="9.00">data.js</text>
</a>
</g>
</g>
<!-- separated/summary&#45;details&#45;update&#45;dom/src/handlers/main&#45;text.js -->
<g id="node3" class="node">
<title>separated/summary&#45;details&#45;update&#45;dom/src/handlers/main&#45;text.js</title>
<g id="a_node3"><a xlink:href="separated/summary-details-update-dom/src/handlers/main-text.js" xlink:title="main&#45;text.js">
<path fill="#ffffcc" stroke="black" d="M315.32,-197.3C315.32,-197.3 265.73,-197.3 265.73,-197.3 262.63,-197.3 259.53,-194.2 259.53,-191.1 259.53,-191.1 259.53,-184.9 259.53,-184.9 259.53,-181.8 262.63,-178.7 265.73,-178.7 265.73,-178.7 315.32,-178.7 315.32,-178.7 318.42,-178.7 321.52,-181.8 321.52,-184.9 321.52,-184.9 321.52,-191.1 321.52,-191.1 321.52,-194.2 318.42,-197.3 315.32,-197.3"/>
<text text-anchor="middle" x="290.52" y="-185.3" font-family="Helvetica,sans-Serif" font-size="9.00">main&#45;text.js</text>
</a>
</g>
</g>
<!-- separated/summary&#45;details&#45;update&#45;dom/src/handlers/main&#45;text.js&#45;&gt;/.lib/logger.js -->
<g id="edge2" class="edge">
<title>separated/summary&#45;details&#45;update&#45;dom/src/handlers/main&#45;text.js&#45;&gt;/.lib/logger.js</title>
<path fill="none" stroke="#000000" stroke-width="2" stroke-opacity="0.200000" d="M321.54,-184.18C328.93,-181.81 336.13,-178.03 341.03,-172 351.47,-159.17 343.51,-113.59 349.03,-98 355.79,-78.94 369.12,-59.83 378.95,-47.31"/>
<polygon fill="#000000" fill-opacity="0.200000" stroke="#000000" stroke-width="2" stroke-opacity="0.200000" points="380.8,-48.36 382.93,-42.37 377.53,-45.73 380.8,-48.36"/>
</g>
<!-- separated/summary&#45;details&#45;update&#45;dom/src/handlers/main&#45;text.js&#45;&gt;separated/summary&#45;details&#45;update&#45;dom/src/data.js -->
<g id="edge1" class="edge">
<title>separated/summary&#45;details&#45;update&#45;dom/src/handlers/main&#45;text.js&#45;&gt;separated/summary&#45;details&#45;update&#45;dom/src/data.js</title>
<path fill="none" stroke="#000000" stroke-width="2" stroke-opacity="0.200000" d="M321.65,-197.39C333.45,-201.06 347,-205.28 358.98,-209.01"/>
<polygon fill="#000000" fill-opacity="0.200000" stroke="#000000" stroke-width="2" stroke-opacity="0.200000" points="358.36,-211.02 364.72,-210.8 359.61,-207.01 358.36,-211.02"/>
</g>
<!-- separated/summary&#45;details&#45;update&#45;dom/src/handlers/open&#45;close.js -->
<g id="node4" class="node">
<title>separated/summary&#45;details&#45;update&#45;dom/src/handlers/open&#45;close.js</title>
<g id="a_node4"><a xlink:href="separated/summary-details-update-dom/src/handlers/open-close.js" xlink:title="open&#45;close.js">
<path fill="#ffffcc" stroke="black" d="M318.83,-166.3C318.83,-166.3 262.21,-166.3 262.21,-166.3 259.11,-166.3 256.01,-163.2 256.01,-160.1 256.01,-160.1 256.01,-153.9 256.01,-153.9 256.01,-150.8 259.11,-147.7 262.21,-147.7 262.21,-147.7 318.83,-147.7 318.83,-147.7 321.93,-147.7 325.03,-150.8 325.03,-153.9 325.03,-153.9 325.03,-160.1 325.03,-160.1 325.03,-163.2 321.93,-166.3 318.83,-166.3"/>
<text text-anchor="middle" x="290.52" y="-154.3" font-family="Helvetica,sans-Serif" font-size="9.00">open&#45;close.js</text>
</a>
</g>
</g>
<!-- separated/summary&#45;details&#45;update&#45;dom/src/handlers/open&#45;close.js&#45;&gt;/.lib/logger.js -->
<g id="edge4" class="edge">
<title>separated/summary&#45;details&#45;update&#45;dom/src/handlers/open&#45;close.js&#45;&gt;/.lib/logger.js</title>
<path fill="none" stroke="#000000" stroke-width="2" stroke-opacity="0.200000" d="M325.09,-151.56C331.1,-149.19 336.8,-145.82 341.03,-141 353.87,-126.4 341.84,-116.06 349.03,-98 356.51,-79.21 369.71,-60.05 379.32,-47.45"/>
<polygon fill="#000000" fill-opacity="0.200000" stroke="#000000" stroke-width="2" stroke-opacity="0.200000" points="381.17,-48.49 383.19,-42.47 377.85,-45.91 381.17,-48.49"/>
</g>
<!-- separated/summary&#45;details&#45;update&#45;dom/src/handlers/open&#45;close.js&#45;&gt;separated/summary&#45;details&#45;update&#45;dom/src/data.js -->
<g id="edge3" class="edge">
<title>separated/summary&#45;details&#45;update&#45;dom/src/handlers/open&#45;close.js&#45;&gt;separated/summary&#45;details&#45;update&#45;dom/src/data.js</title>
<path fill="none" stroke="#000000" stroke-width="2" stroke-opacity="0.200000" d="M325.13,-165.68C330.62,-167.71 336.12,-170.13 341.03,-173 355.57,-181.48 369.43,-194.79 378.85,-204.92"/>
<polygon fill="#000000" fill-opacity="0.200000" stroke="#000000" stroke-width="2" stroke-opacity="0.200000" points="377.52,-206.57 383.11,-209.6 380.63,-203.75 377.52,-206.57"/>
</g>
<!-- separated/summary&#45;details&#45;update&#45;dom/src/handlers/prevent&#45;default.js -->
<g id="node5" class="node">
<title>separated/summary&#45;details&#45;update&#45;dom/src/handlers/prevent&#45;default.js</title>
<g id="a_node5"><a xlink:href="separated/summary-details-update-dom/src/handlers/prevent-default.js" xlink:title="prevent&#45;default.js">
<path fill="#ffffcc" stroke="black" d="M326.84,-135.3C326.84,-135.3 254.21,-135.3 254.21,-135.3 251.11,-135.3 248.01,-132.2 248.01,-129.1 248.01,-129.1 248.01,-122.9 248.01,-122.9 248.01,-119.8 251.11,-116.7 254.21,-116.7 254.21,-116.7 326.84,-116.7 326.84,-116.7 329.94,-116.7 333.04,-119.8 333.04,-122.9 333.04,-122.9 333.04,-129.1 333.04,-129.1 333.04,-132.2 329.94,-135.3 326.84,-135.3"/>
<text text-anchor="middle" x="290.52" y="-123.3" font-family="Helvetica,sans-Serif" font-size="9.00">prevent&#45;default.js</text>
</a>
</g>
</g>
<!-- separated/summary&#45;details&#45;update&#45;dom/src/handlers/prevent&#45;default.js&#45;&gt;/.lib/logger.js -->
<g id="edge5" class="edge">
<title>separated/summary&#45;details&#45;update&#45;dom/src/handlers/prevent&#45;default.js&#45;&gt;/.lib/logger.js</title>
<path fill="none" stroke="#000000" stroke-width="2" stroke-opacity="0.200000" d="M301.8,-116.4C319.54,-99.81 355.99,-65.75 376.38,-46.69"/>
<polygon fill="#000000" fill-opacity="0.200000" stroke="#000000" stroke-width="2" stroke-opacity="0.200000" points="378.01,-48.04 380.96,-42.41 375.14,-44.97 378.01,-48.04"/>
</g>
<!-- separated/summary&#45;details&#45;update&#45;dom/src/handlers/summary&#45;text.js -->
<g id="node6" class="node">
<title>separated/summary&#45;details&#45;update&#45;dom/src/handlers/summary&#45;text.js</title>
<g id="a_node6"><a xlink:href="separated/summary-details-update-dom/src/handlers/summary-text.js" xlink:title="summary&#45;text.js">
<path fill="#ffffcc" stroke="black" d="M324.32,-228.3C324.32,-228.3 256.73,-228.3 256.73,-228.3 253.63,-228.3 250.53,-225.2 250.53,-222.1 250.53,-222.1 250.53,-215.9 250.53,-215.9 250.53,-212.8 253.63,-209.7 256.73,-209.7 256.73,-209.7 324.32,-209.7 324.32,-209.7 327.42,-209.7 330.52,-212.8 330.52,-215.9 330.52,-215.9 330.52,-222.1 330.52,-222.1 330.52,-225.2 327.42,-228.3 324.32,-228.3"/>
<text text-anchor="middle" x="290.52" y="-216.3" font-family="Helvetica,sans-Serif" font-size="9.00">summary&#45;text.js</text>
</a>
</g>
</g>
<!-- separated/summary&#45;details&#45;update&#45;dom/src/handlers/summary&#45;text.js&#45;&gt;/.lib/logger.js -->
<g id="edge7" class="edge">
<title>separated/summary&#45;details&#45;update&#45;dom/src/handlers/summary&#45;text.js&#45;&gt;/.lib/logger.js</title>
<path fill="none" stroke="#000000" stroke-width="2" stroke-opacity="0.200000" d="M330.68,-211.49C334.65,-209.32 338.24,-206.55 341.03,-203 355.51,-184.62 341.56,-120.18 349.03,-98 355.49,-78.84 368.87,-59.74 378.8,-47.26"/>
<polygon fill="#000000" fill-opacity="0.200000" stroke="#000000" stroke-width="2" stroke-opacity="0.200000" points="380.65,-48.31 382.82,-42.33 377.4,-45.65 380.65,-48.31"/>
</g>
<!-- separated/summary&#45;details&#45;update&#45;dom/src/handlers/summary&#45;text.js&#45;&gt;separated/summary&#45;details&#45;update&#45;dom/src/data.js -->
<g id="edge6" class="edge">
<title>separated/summary&#45;details&#45;update&#45;dom/src/handlers/summary&#45;text.js&#45;&gt;separated/summary&#45;details&#45;update&#45;dom/src/data.js</title>
<path fill="none" stroke="#000000" stroke-width="2" stroke-opacity="0.200000" d="M330.28,-219C339.68,-219 349.63,-219 358.7,-219"/>
<polygon fill="#000000" fill-opacity="0.200000" stroke="#000000" stroke-width="2" stroke-opacity="0.200000" points="358.82,-221.1 364.82,-219 358.82,-216.9 358.82,-221.1"/>
</g>
<!-- separated/summary&#45;details&#45;update&#45;dom/src/init/index.js -->
<g id="node7" class="node">
<title>separated/summary&#45;details&#45;update&#45;dom/src/init/index.js</title>
<g id="a_node7"><a xlink:href="separated/summary-details-update-dom/src/init/index.js" xlink:title="index.js">
<path fill="#ffffcc" stroke="black" d="M87.8,-289.3C87.8,-289.3 46.2,-289.3 46.2,-289.3 43.1,-289.3 40,-286.2 40,-283.1 40,-283.1 40,-276.9 40,-276.9 40,-273.8 43.1,-270.7 46.2,-270.7 46.2,-270.7 87.8,-270.7 87.8,-270.7 90.9,-270.7 94,-273.8 94,-276.9 94,-276.9 94,-283.1 94,-283.1 94,-286.2 90.9,-289.3 87.8,-289.3"/>
<text text-anchor="middle" x="67" y="-277.3" font-family="Helvetica,sans-Serif" font-size="9.00">index.js</text>
</a>
</g>
</g>
<!-- separated/summary&#45;details&#45;update&#45;dom/src/listeners/details&#45;prevent&#45;default.js -->
<g id="node8" class="node">
<title>separated/summary&#45;details&#45;update&#45;dom/src/listeners/details&#45;prevent&#45;default.js</title>
<g id="a_node8"><a xlink:href="separated/summary-details-update-dom/src/listeners/details-prevent-default.js" xlink:title="details&#45;prevent&#45;default.js">
<path fill="#ffffcc" stroke="black" d="M217.82,-135.3C217.82,-135.3 116.19,-135.3 116.19,-135.3 113.09,-135.3 109.99,-132.2 109.99,-129.1 109.99,-129.1 109.99,-122.9 109.99,-122.9 109.99,-119.8 113.09,-116.7 116.19,-116.7 116.19,-116.7 217.82,-116.7 217.82,-116.7 220.92,-116.7 224.02,-119.8 224.02,-122.9 224.02,-122.9 224.02,-129.1 224.02,-129.1 224.02,-132.2 220.92,-135.3 217.82,-135.3"/>
<text text-anchor="middle" x="167.01" y="-123.3" font-family="Helvetica,sans-Serif" font-size="9.00">details&#45;prevent&#45;default.js</text>
</a>
</g>
</g>
<!-- separated/summary&#45;details&#45;update&#45;dom/src/init/index.js&#45;&gt;separated/summary&#45;details&#45;update&#45;dom/src/listeners/details&#45;prevent&#45;default.js -->
<g id="edge8" class="edge">
<title>separated/summary&#45;details&#45;update&#45;dom/src/init/index.js&#45;&gt;separated/summary&#45;details&#45;update&#45;dom/src/listeners/details&#45;prevent&#45;default.js</title>
<path fill="none" stroke="#000000" stroke-width="2" stroke-opacity="0.200000" d="M69.08,-270.42C72.44,-242.23 83.62,-160.44 102,-142 103.13,-140.86 104.33,-139.8 105.59,-138.82"/>
<polygon fill="#000000" fill-opacity="0.200000" stroke="#000000" stroke-width="2" stroke-opacity="0.200000" points="106.91,-140.46 110.69,-135.35 104.55,-136.98 106.91,-140.46"/>
</g>
<!-- separated/summary&#45;details&#45;update&#45;dom/src/listeners/main&#45;text.js -->
<g id="node9" class="node">
<title>separated/summary&#45;details&#45;update&#45;dom/src/listeners/main&#45;text.js</title>
<g id="a_node9"><a xlink:href="separated/summary-details-update-dom/src/listeners/main-text.js" xlink:title="main&#45;text.js">
<path fill="#ffffcc" stroke="black" d="M191.81,-197.3C191.81,-197.3 142.21,-197.3 142.21,-197.3 139.11,-197.3 136.01,-194.2 136.01,-191.1 136.01,-191.1 136.01,-184.9 136.01,-184.9 136.01,-181.8 139.11,-178.7 142.21,-178.7 142.21,-178.7 191.81,-178.7 191.81,-178.7 194.91,-178.7 198.01,-181.8 198.01,-184.9 198.01,-184.9 198.01,-191.1 198.01,-191.1 198.01,-194.2 194.91,-197.3 191.81,-197.3"/>
<text text-anchor="middle" x="167.01" y="-185.3" font-family="Helvetica,sans-Serif" font-size="9.00">main&#45;text.js</text>
</a>
</g>
</g>
<!-- separated/summary&#45;details&#45;update&#45;dom/src/init/index.js&#45;&gt;separated/summary&#45;details&#45;update&#45;dom/src/listeners/main&#45;text.js -->
<g id="edge9" class="edge">
<title>separated/summary&#45;details&#45;update&#45;dom/src/init/index.js&#45;&gt;separated/summary&#45;details&#45;update&#45;dom/src/listeners/main&#45;text.js</title>
<path fill="none" stroke="#000000" stroke-width="2" stroke-opacity="0.200000" d="M69.51,-270.46C72.6,-254.26 81.17,-221.46 102,-204 109.78,-197.48 119.84,-193.56 129.67,-191.21"/>
<polygon fill="#000000" fill-opacity="0.200000" stroke="#000000" stroke-width="2" stroke-opacity="0.200000" points="130.3,-193.23 135.75,-189.95 129.44,-189.12 130.3,-193.23"/>
</g>
<!-- separated/summary&#45;details&#45;update&#45;dom/src/listeners/open&#45;close.js -->
<g id="node10" class="node">
<title>separated/summary&#45;details&#45;update&#45;dom/src/listeners/open&#45;close.js</title>
<g id="a_node10"><a xlink:href="separated/summary-details-update-dom/src/listeners/open-close.js" xlink:title="open&#45;close.js">
<path fill="#ffffcc" stroke="black" d="M195.32,-166.3C195.32,-166.3 138.7,-166.3 138.7,-166.3 135.6,-166.3 132.5,-163.2 132.5,-160.1 132.5,-160.1 132.5,-153.9 132.5,-153.9 132.5,-150.8 135.6,-147.7 138.7,-147.7 138.7,-147.7 195.32,-147.7 195.32,-147.7 198.42,-147.7 201.52,-150.8 201.52,-153.9 201.52,-153.9 201.52,-160.1 201.52,-160.1 201.52,-163.2 198.42,-166.3 195.32,-166.3"/>
<text text-anchor="middle" x="167.01" y="-154.3" font-family="Helvetica,sans-Serif" font-size="9.00">open&#45;close.js</text>
</a>
</g>
</g>
<!-- separated/summary&#45;details&#45;update&#45;dom/src/init/index.js&#45;&gt;separated/summary&#45;details&#45;update&#45;dom/src/listeners/open&#45;close.js -->
<g id="edge10" class="edge">
<title>separated/summary&#45;details&#45;update&#45;dom/src/init/index.js&#45;&gt;separated/summary&#45;details&#45;update&#45;dom/src/listeners/open&#45;close.js</title>
<path fill="none" stroke="#000000" stroke-width="2" stroke-opacity="0.200000" d="M68.1,-270.4C68.86,-249.48 73.73,-199.55 102,-173 108.71,-166.7 117.52,-162.77 126.45,-160.36"/>
<polygon fill="#000000" fill-opacity="0.200000" stroke="#000000" stroke-width="2" stroke-opacity="0.200000" points="126.95,-162.4 132.31,-158.98 125.99,-158.31 126.95,-162.4"/>
</g>
<!-- separated/summary&#45;details&#45;update&#45;dom/src/listeners/summary&#45;text.js -->
<g id="node11" class="node">
<title>separated/summary&#45;details&#45;update&#45;dom/src/listeners/summary&#45;text.js</title>
<g id="a_node11"><a xlink:href="separated/summary-details-update-dom/src/listeners/summary-text.js" xlink:title="summary&#45;text.js">
<path fill="#ffffcc" stroke="black" d="M200.8,-228.3C200.8,-228.3 133.21,-228.3 133.21,-228.3 130.11,-228.3 127.01,-225.2 127.01,-222.1 127.01,-222.1 127.01,-215.9 127.01,-215.9 127.01,-212.8 130.11,-209.7 133.21,-209.7 133.21,-209.7 200.8,-209.7 200.8,-209.7 203.9,-209.7 207,-212.8 207,-215.9 207,-215.9 207,-222.1 207,-222.1 207,-225.2 203.9,-228.3 200.8,-228.3"/>
<text text-anchor="middle" x="167.01" y="-216.3" font-family="Helvetica,sans-Serif" font-size="9.00">summary&#45;text.js</text>
</a>
</g>
</g>
<!-- separated/summary&#45;details&#45;update&#45;dom/src/init/index.js&#45;&gt;separated/summary&#45;details&#45;update&#45;dom/src/listeners/summary&#45;text.js -->
<g id="edge11" class="edge">
<title>separated/summary&#45;details&#45;update&#45;dom/src/init/index.js&#45;&gt;separated/summary&#45;details&#45;update&#45;dom/src/listeners/summary&#45;text.js</title>
<path fill="none" stroke="#000000" stroke-width="2" stroke-opacity="0.200000" d="M83.31,-270.47C100,-260.08 126.79,-243.41 145.33,-231.87"/>
<polygon fill="#000000" fill-opacity="0.200000" stroke="#000000" stroke-width="2" stroke-opacity="0.200000" points="146.82,-233.42 150.8,-228.46 144.6,-229.85 146.82,-233.42"/>
</g>
<!-- separated/summary&#45;details&#45;update&#45;dom/src/init/log&#45;state.js -->
<g id="node12" class="node">
<title>separated/summary&#45;details&#45;update&#45;dom/src/init/log&#45;state.js</title>
<g id="a_node12"><a xlink:href="separated/summary-details-update-dom/src/init/log-state.js" xlink:title="log&#45;state.js">
<path fill="#ffffcc" stroke="black" d="M190.32,-289.3C190.32,-289.3 143.7,-289.3 143.7,-289.3 140.6,-289.3 137.5,-286.2 137.5,-283.1 137.5,-283.1 137.5,-276.9 137.5,-276.9 137.5,-273.8 140.6,-270.7 143.7,-270.7 143.7,-270.7 190.32,-270.7 190.32,-270.7 193.42,-270.7 196.52,-273.8 196.52,-276.9 196.52,-276.9 196.52,-283.1 196.52,-283.1 196.52,-286.2 193.42,-289.3 190.32,-289.3"/>
<text text-anchor="middle" x="167.01" y="-277.3" font-family="Helvetica,sans-Serif" font-size="9.00">log&#45;state.js</text>
</a>
</g>
</g>
<!-- separated/summary&#45;details&#45;update&#45;dom/src/init/index.js&#45;&gt;separated/summary&#45;details&#45;update&#45;dom/src/init/log&#45;state.js -->
<g id="edge12" class="edge">
<title>separated/summary&#45;details&#45;update&#45;dom/src/init/index.js&#45;&gt;separated/summary&#45;details&#45;update&#45;dom/src/init/log&#45;state.js</title>
<path fill="none" stroke="#000000" stroke-width="2" stroke-opacity="0.200000" d="M94.01,-280C105.4,-280 118.95,-280 131.2,-280"/>
<polygon fill="#000000" fill-opacity="0.200000" stroke="#000000" stroke-width="2" stroke-opacity="0.200000" points="131.46,-282.1 137.46,-280 131.46,-277.9 131.46,-282.1"/>
</g>
<!-- separated/summary&#45;details&#45;update&#45;dom/src/init/ui.js -->
<g id="node13" class="node">
<title>separated/summary&#45;details&#45;update&#45;dom/src/init/ui.js</title>
<g id="a_node13"><a xlink:href="separated/summary-details-update-dom/src/init/ui.js" xlink:title="ui.js">
<path fill="#ffffcc" stroke="black" d="M187.81,-320.3C187.81,-320.3 146.21,-320.3 146.21,-320.3 143.11,-320.3 140.01,-317.2 140.01,-314.1 140.01,-314.1 140.01,-307.9 140.01,-307.9 140.01,-304.8 143.11,-301.7 146.21,-301.7 146.21,-301.7 187.81,-301.7 187.81,-301.7 190.91,-301.7 194.01,-304.8 194.01,-307.9 194.01,-307.9 194.01,-314.1 194.01,-314.1 194.01,-317.2 190.91,-320.3 187.81,-320.3"/>
<text text-anchor="middle" x="167.01" y="-308.3" font-family="Helvetica,sans-Serif" font-size="9.00">ui.js</text>
</a>
</g>
</g>
<!-- separated/summary&#45;details&#45;update&#45;dom/src/init/index.js&#45;&gt;separated/summary&#45;details&#45;update&#45;dom/src/init/ui.js -->
<g id="edge13" class="edge">
<title>separated/summary&#45;details&#45;update&#45;dom/src/init/index.js&#45;&gt;separated/summary&#45;details&#45;update&#45;dom/src/init/ui.js</title>
<path fill="none" stroke="#000000" stroke-width="2" stroke-opacity="0.200000" d="M87.55,-289.3C92.22,-291.34 97.24,-293.37 102,-295 112.24,-298.51 123.63,-301.61 133.94,-304.12"/>
<polygon fill="#000000" fill-opacity="0.200000" stroke="#000000" stroke-width="2" stroke-opacity="0.200000" points="133.54,-306.18 139.87,-305.53 134.51,-302.1 133.54,-306.18"/>
</g>
<!-- separated/summary&#45;details&#45;update&#45;dom/src/listeners/details&#45;prevent&#45;default.js&#45;&gt;separated/summary&#45;details&#45;update&#45;dom/src/handlers/prevent&#45;default.js -->
<g id="edge17" class="edge">
<title>separated/summary&#45;details&#45;update&#45;dom/src/listeners/details&#45;prevent&#45;default.js&#45;&gt;separated/summary&#45;details&#45;update&#45;dom/src/handlers/prevent&#45;default.js</title>
<path fill="none" stroke="#000000" stroke-width="2" stroke-opacity="0.200000" d="M224.14,-126C229.99,-126 235.89,-126 241.63,-126"/>
<polygon fill="#000000" fill-opacity="0.200000" stroke="#000000" stroke-width="2" stroke-opacity="0.200000" points="241.79,-128.1 247.79,-126 241.79,-123.9 241.79,-128.1"/>
</g>
<!-- separated/summary&#45;details&#45;update&#45;dom/src/listeners/main&#45;text.js&#45;&gt;separated/summary&#45;details&#45;update&#45;dom/src/handlers/main&#45;text.js -->
<g id="edge18" class="edge">
<title>separated/summary&#45;details&#45;update&#45;dom/src/listeners/main&#45;text.js&#45;&gt;separated/summary&#45;details&#45;update&#45;dom/src/handlers/main&#45;text.js</title>
<path fill="none" stroke="#000000" stroke-width="2" stroke-opacity="0.200000" d="M198.05,-188C214.7,-188 235.52,-188 253.1,-188"/>
<polygon fill="#000000" fill-opacity="0.200000" stroke="#000000" stroke-width="2" stroke-opacity="0.200000" points="253.41,-190.1 259.41,-188 253.41,-185.9 253.41,-190.1"/>
</g>
<!-- separated/summary&#45;details&#45;update&#45;dom/src/listeners/open&#45;close.js&#45;&gt;separated/summary&#45;details&#45;update&#45;dom/src/handlers/open&#45;close.js -->
<g id="edge19" class="edge">
<title>separated/summary&#45;details&#45;update&#45;dom/src/listeners/open&#45;close.js&#45;&gt;separated/summary&#45;details&#45;update&#45;dom/src/handlers/open&#45;close.js</title>
<path fill="none" stroke="#000000" stroke-width="2" stroke-opacity="0.200000" d="M201.53,-157C216.42,-157 234.05,-157 249.61,-157"/>
<polygon fill="#000000" fill-opacity="0.200000" stroke="#000000" stroke-width="2" stroke-opacity="0.200000" points="249.69,-159.1 255.69,-157 249.69,-154.9 249.69,-159.1"/>
</g>
<!-- separated/summary&#45;details&#45;update&#45;dom/src/listeners/summary&#45;text.js&#45;&gt;separated/summary&#45;details&#45;update&#45;dom/src/handlers/summary&#45;text.js -->
<g id="edge20" class="edge">
<title>separated/summary&#45;details&#45;update&#45;dom/src/listeners/summary&#45;text.js&#45;&gt;separated/summary&#45;details&#45;update&#45;dom/src/handlers/summary&#45;text.js</title>
<path fill="none" stroke="#000000" stroke-width="2" stroke-opacity="0.200000" d="M206.79,-219C218.85,-219 232.24,-219 244.68,-219"/>
<polygon fill="#000000" fill-opacity="0.200000" stroke="#000000" stroke-width="2" stroke-opacity="0.200000" points="244.69,-221.1 250.69,-219 244.69,-216.9 244.69,-221.1"/>
</g>
<!-- separated/summary&#45;details&#45;update&#45;dom/src/init/log&#45;state.js&#45;&gt;/.lib/logger.js -->
<g id="edge15" class="edge">
<title>separated/summary&#45;details&#45;update&#45;dom/src/init/log&#45;state.js&#45;&gt;/.lib/logger.js</title>
<path fill="none" stroke="#000000" stroke-width="2" stroke-opacity="0.200000" d="M196.81,-277.29C209.66,-274.52 223.74,-268.98 232.02,-258 252.38,-230.99 221.29,-134.17 240.02,-106 266.98,-65.42 323.21,-46.7 358.93,-38.6"/>
<polygon fill="#000000" fill-opacity="0.200000" stroke="#000000" stroke-width="2" stroke-opacity="0.200000" points="359.5,-40.63 364.91,-37.3 358.61,-36.52 359.5,-40.63"/>
</g>
<!-- separated/summary&#45;details&#45;update&#45;dom/src/init/log&#45;state.js&#45;&gt;separated/summary&#45;details&#45;update&#45;dom/src/data.js -->
<g id="edge14" class="edge">
<title>separated/summary&#45;details&#45;update&#45;dom/src/init/log&#45;state.js&#45;&gt;separated/summary&#45;details&#45;update&#45;dom/src/data.js</title>
<path fill="none" stroke="#000000" stroke-width="2" stroke-opacity="0.200000" d="M196.76,-280.92C232.09,-281.03 293.23,-277.9 341.03,-258 354.88,-252.24 368.15,-241.56 377.54,-232.83"/>
<polygon fill="#000000" fill-opacity="0.200000" stroke="#000000" stroke-width="2" stroke-opacity="0.200000" points="379.19,-234.15 382.07,-228.48 376.29,-231.12 379.19,-234.15"/>
</g>
<!-- separated/summary&#45;details&#45;update&#45;dom/src/init/ui.js&#45;&gt;separated/summary&#45;details&#45;update&#45;dom/src/data.js -->
<g id="edge16" class="edge">
<title>separated/summary&#45;details&#45;update&#45;dom/src/init/ui.js&#45;&gt;separated/summary&#45;details&#45;update&#45;dom/src/data.js</title>
<path fill="none" stroke="#000000" stroke-width="2" stroke-opacity="0.200000" d="M194.04,-309.84C229.46,-307.26 293.82,-298.92 341.03,-272 357.76,-262.46 372.28,-245.52 381.3,-233.36"/>
<polygon fill="#000000" fill-opacity="0.200000" stroke="#000000" stroke-width="2" stroke-opacity="0.200000" points="383.01,-234.57 384.81,-228.47 379.6,-232.12 383.01,-234.57"/>
</g>
</g>
</svg>
