<?xml version="1.0" encoding="UTF-8" standalone="no"?>
<!DOCTYPE svg PUBLIC "-//W3C//DTD SVG 1.1//EN"
 "http://www.w3.org/Graphics/SVG/1.1/DTD/svg11.dtd">
<!-- Generated by graphviz version 2.44.0 (20200408.0750)
 -->
<!-- Title: dependency&#45;cruiser output Pages: 1 -->
<svg width="537pt" height="428pt"
 viewBox="0.00 0.00 536.55 428.00" xmlns="http://www.w3.org/2000/svg" xmlns:xlink="http://www.w3.org/1999/xlink">
<g id="graph0" class="graph" transform="scale(1 1) rotate(0) translate(4 424)">
<title>dependency&#45;cruiser output</title>
<polygon fill="white" stroke="transparent" points="-4,4 -4,-424 532.55,-424 532.55,4 -4,4"/>
<g id="clust1" class="cluster">
<title>cluster_lib</title>
<path fill="#ffffff" stroke="black" stroke-width="2" d="M361.03,-8C361.03,-8 508.55,-8 508.55,-8 514.55,-8 520.55,-14 520.55,-20 520.55,-20 520.55,-49 520.55,-49 520.55,-55 514.55,-61 508.55,-61 508.55,-61 361.03,-61 361.03,-61 355.03,-61 349.03,-55 349.03,-49 349.03,-49 349.03,-20 349.03,-20 349.03,-14 355.03,-8 361.03,-8"/>
<text text-anchor="middle" x="434.79" y="-48.9" font-family="Helvetica,sans-Serif" font-weight="bold" font-size="9.00">lib</text>
</g>
<g id="clust2" class="cluster">
<title>cluster_separated</title>
<path fill="#ffffff" stroke="black" stroke-width="2" d="M20,-69C20,-69 423.03,-69 423.03,-69 429.03,-69 435.03,-75 435.03,-81 435.03,-81 435.03,-400 435.03,-400 435.03,-406 429.03,-412 423.03,-412 423.03,-412 20,-412 20,-412 14,-412 8,-406 8,-400 8,-400 8,-81 8,-81 8,-75 14,-69 20,-69"/>
<text text-anchor="middle" x="221.52" y="-399.9" font-family="Helvetica,sans-Serif" font-weight="bold" font-size="9.00">separated</text>
</g>
<g id="clust3" class="cluster">
<title>cluster_separated/summary&#45;details&#45;update&#45;dom</title>
<path fill="#ffffff" stroke="black" stroke-width="2" d="M28,-77C28,-77 415.03,-77 415.03,-77 421.03,-77 427.03,-83 427.03,-89 427.03,-89 427.03,-373 427.03,-373 427.03,-379 421.03,-385 415.03,-385 415.03,-385 28,-385 28,-385 22,-385 16,-379 16,-373 16,-373 16,-89 16,-89 16,-83 22,-77 28,-77"/>
<text text-anchor="middle" x="221.52" y="-372.9" font-family="Helvetica,sans-Serif" font-weight="bold" font-size="9.00">summary&#45;details&#45;update&#45;dom</text>
</g>
<g id="clust4" class="cluster">
<title>cluster_separated/summary&#45;details&#45;update&#45;dom/src</title>
<path fill="#ffffff" stroke="black" stroke-width="2" d="M36,-85C36,-85 407.03,-85 407.03,-85 413.03,-85 419.03,-91 419.03,-97 419.03,-97 419.03,-346 419.03,-346 419.03,-352 413.03,-358 407.03,-358 407.03,-358 36,-358 36,-358 30,-358 24,-352 24,-346 24,-346 24,-97 24,-97 24,-91 30,-85 36,-85"/>
<text text-anchor="middle" x="221.52" y="-345.9" font-family="Helvetica,sans-Serif" font-weight="bold" font-size="9.00">src</text>
</g>
<g id="clust5" class="cluster">
<title>cluster_separated/summary&#45;details&#45;update&#45;dom/src/handlers</title>
<path fill="#ffffff" stroke="black" stroke-width="2" d="M252.02,-93C252.02,-93 329.03,-93 329.03,-93 335.03,-93 341.03,-99 341.03,-105 341.03,-105 341.03,-227 341.03,-227 341.03,-233 335.03,-239 329.03,-239 329.03,-239 252.02,-239 252.02,-239 246.02,-239 240.02,-233 240.02,-227 240.02,-227 240.02,-105 240.02,-105 240.02,-99 246.02,-93 252.02,-93"/>
<text text-anchor="middle" x="290.52" y="-226.9" font-family="Helvetica,sans-Serif" font-weight="bold" font-size="9.00">handlers</text>
</g>
<g id="clust6" class="cluster">
<title>cluster_separated/summary&#45;details&#45;update&#45;dom/src/init</title>
<path fill="#ffffff" stroke="black" stroke-width="2" d="M44,-247C44,-247 192.76,-247 192.76,-247 198.76,-247 204.76,-253 204.76,-259 204.76,-259 204.76,-319 204.76,-319 204.76,-325 198.76,-331 192.76,-331 192.76,-331 44,-331 44,-331 38,-331 32,-325 32,-319 32,-319 32,-259 32,-259 32,-253 38,-247 44,-247"/>
<text text-anchor="middle" x="118.38" y="-318.9" font-family="Helvetica,sans-Serif" font-weight="bold" font-size="9.00">init</text>
</g>
<g id="clust7" class="cluster">
<title>cluster_separated/summary&#45;details&#45;update&#45;dom/src/listeners</title>
<path fill="#ffffff" stroke="black" stroke-width="2" d="M114,-93C114,-93 220.02,-93 220.02,-93 226.02,-93 232.02,-99 232.02,-105 232.02,-105 232.02,-227 232.02,-227 232.02,-233 226.02,-239 220.02,-239 220.02,-239 114,-239 114,-239 108,-239 102,-233 102,-227 102,-227 102,-105 102,-105 102,-99 108,-93 114,-93"/>
<text text-anchor="middle" x="167.01" y="-226.9" font-family="Helvetica,sans-Serif" font-weight="bold" font-size="9.00">listeners</text>
</g>
<!-- lib/deep&#45;clone.js -->
<g id="node1" class="node">
<title>lib/deep&#45;clone.js</title>
<g id="a_node1"><a xlink:href="lib/deep-clone.js" xlink:title="deep&#45;clone.js">
<path fill="#ffffcc" stroke="black" d="M506.1,-34.3C506.1,-34.3 449.47,-34.3 449.47,-34.3 446.37,-34.3 443.27,-31.2 443.27,-28.1 443.27,-28.1 443.27,-21.9 443.27,-21.9 443.27,-18.8 446.37,-15.7 449.47,-15.7 449.47,-15.7 506.1,-15.7 506.1,-15.7 509.2,-15.7 512.3,-18.8 512.3,-21.9 512.3,-21.9 512.3,-28.1 512.3,-28.1 512.3,-31.2 509.2,-34.3 506.1,-34.3"/>
<text text-anchor="middle" x="477.79" y="-22.3" font-family="Helvetica,sans-Serif" font-size="9.00">deep&#45;clone.js</text>
</a>
</g>
</g>
<!-- lib/logger.js -->
<g id="node2" class="node">
<title>lib/logger.js</title>
<g id="a_node2"><a xlink:href="lib/logger.js" xlink:title="logger.js">
<path fill="#ffffcc" stroke="black" d="M404.83,-34.3C404.83,-34.3 363.23,-34.3 363.23,-34.3 360.13,-34.3 357.03,-31.2 357.03,-28.1 357.03,-28.1 357.03,-21.9 357.03,-21.9 357.03,-18.8 360.13,-15.7 363.23,-15.7 363.23,-15.7 404.83,-15.7 404.83,-15.7 407.93,-15.7 411.03,-18.8 411.03,-21.9 411.03,-21.9 411.03,-28.1 411.03,-28.1 411.03,-31.2 407.93,-34.3 404.83,-34.3"/>
<text text-anchor="middle" x="384.03" y="-22.3" font-family="Helvetica,sans-Serif" font-size="9.00">logger.js</text>
</a>
</g>
</g>
<!-- lib/logger.js&#45;&gt;lib/deep&#45;clone.js -->
<g id="edge1" class="edge">
<title>lib/logger.js&#45;&gt;lib/deep&#45;clone.js</title>
<path fill="none" stroke="#000000" stroke-width="2" stroke-opacity="0.200000" d="M411.08,-25C419.17,-25 428.29,-25 437.09,-25"/>
<polygon fill="#000000" fill-opacity="0.200000" stroke="#000000" stroke-width="2" stroke-opacity="0.200000" points="437.12,-27.1 443.12,-25 437.12,-22.9 437.12,-27.1"/>
</g>
<!-- separated/summary&#45;details&#45;update&#45;dom/src/data.js -->
<g id="node3" class="node">
<title>separated/summary&#45;details&#45;update&#45;dom/src/data.js</title>
<g id="a_node3"><a xlink:href="separated/summary-details-update-dom/src/data.js" xlink:title="data.js">
<path fill="#ffffcc" stroke="black" d="M404.83,-212.3C404.83,-212.3 363.23,-212.3 363.23,-212.3 360.13,-212.3 357.03,-209.2 357.03,-206.1 357.03,-206.1 357.03,-199.9 357.03,-199.9 357.03,-196.8 360.13,-193.7 363.23,-193.7 363.23,-193.7 404.83,-193.7 404.83,-193.7 407.93,-193.7 411.03,-196.8 411.03,-199.9 411.03,-199.9 411.03,-206.1 411.03,-206.1 411.03,-209.2 407.93,-212.3 404.83,-212.3"/>
<text text-anchor="middle" x="384.03" y="-200.3" font-family="Helvetica,sans-Serif" font-size="9.00">data.js</text>
</a>
</g>
</g>
<!-- separated/summary&#45;details&#45;update&#45;dom/src/handlers/main&#45;text.js -->
<g id="node4" class="node">
<title>separated/summary&#45;details&#45;update&#45;dom/src/handlers/main&#45;text.js</title>
<g id="a_node4"><a xlink:href="separated/summary-details-update-dom/src/handlers/main-text.js" xlink:title="main&#45;text.js">
<path fill="#ffffcc" stroke="black" d="M315.32,-181.3C315.32,-181.3 265.73,-181.3 265.73,-181.3 262.63,-181.3 259.53,-178.2 259.53,-175.1 259.53,-175.1 259.53,-168.9 259.53,-168.9 259.53,-165.8 262.63,-162.7 265.73,-162.7 265.73,-162.7 315.32,-162.7 315.32,-162.7 318.42,-162.7 321.52,-165.8 321.52,-168.9 321.52,-168.9 321.52,-175.1 321.52,-175.1 321.52,-178.2 318.42,-181.3 315.32,-181.3"/>
<text text-anchor="middle" x="290.52" y="-169.3" font-family="Helvetica,sans-Serif" font-size="9.00">main&#45;text.js</text>
</a>
</g>
</g>
<!-- separated/summary&#45;details&#45;update&#45;dom/src/handlers/main&#45;text.js&#45;&gt;lib/logger.js -->
<g id="edge2" class="edge">
<title>separated/summary&#45;details&#45;update&#45;dom/src/handlers/main&#45;text.js&#45;&gt;lib/logger.js</title>
<path fill="none" stroke="#000000" stroke-width="2" stroke-opacity="0.200000" d="M321.54,-168.18C328.93,-165.81 336.13,-162.03 341.03,-156 351.47,-143.17 343.79,-97.69 349.03,-82 354.25,-66.41 364.21,-50.5 372.01,-39.46"/>
<polygon fill="#000000" fill-opacity="0.200000" stroke="#000000" stroke-width="2" stroke-opacity="0.200000" points="373.81,-40.55 375.63,-34.46 370.41,-38.08 373.81,-40.55"/>
</g>
<!-- separated/summary&#45;details&#45;update&#45;dom/src/handlers/main&#45;text.js&#45;&gt;separated/summary&#45;details&#45;update&#45;dom/src/data.js -->
<g id="edge3" class="edge">
<title>separated/summary&#45;details&#45;update&#45;dom/src/handlers/main&#45;text.js&#45;&gt;separated/summary&#45;details&#45;update&#45;dom/src/data.js</title>
<path fill="none" stroke="#000000" stroke-width="2" stroke-opacity="0.200000" d="M320.89,-181.33C327.53,-183.48 334.53,-185.79 341.03,-188 344.41,-189.15 347.94,-190.37 351.45,-191.6"/>
<polygon fill="#000000" fill-opacity="0.200000" stroke="#000000" stroke-width="2" stroke-opacity="0.200000" points="350.95,-193.66 357.31,-193.67 352.35,-189.7 350.95,-193.66"/>
</g>
<!-- separated/summary&#45;details&#45;update&#45;dom/src/handlers/open&#45;close.js -->
<g id="node5" class="node">
<title>separated/summary&#45;details&#45;update&#45;dom/src/handlers/open&#45;close.js</title>
<g id="a_node5"><a xlink:href="separated/summary-details-update-dom/src/handlers/open-close.js" xlink:title="open&#45;close.js">
<path fill="#ffffcc" stroke="black" d="M318.83,-150.3C318.83,-150.3 262.21,-150.3 262.21,-150.3 259.11,-150.3 256.01,-147.2 256.01,-144.1 256.01,-144.1 256.01,-137.9 256.01,-137.9 256.01,-134.8 259.11,-131.7 262.21,-131.7 262.21,-131.7 318.83,-131.7 318.83,-131.7 321.93,-131.7 325.03,-134.8 325.03,-137.9 325.03,-137.9 325.03,-144.1 325.03,-144.1 325.03,-147.2 321.93,-150.3 318.83,-150.3"/>
<text text-anchor="middle" x="290.52" y="-138.3" font-family="Helvetica,sans-Serif" font-size="9.00">open&#45;close.js</text>
</a>
</g>
</g>
<!-- separated/summary&#45;details&#45;update&#45;dom/src/handlers/open&#45;close.js&#45;&gt;lib/logger.js -->
<g id="edge4" class="edge">
<title>separated/summary&#45;details&#45;update&#45;dom/src/handlers/open&#45;close.js&#45;&gt;lib/logger.js</title>
<path fill="none" stroke="#000000" stroke-width="2" stroke-opacity="0.200000" d="M325.09,-135.56C331.1,-133.19 336.8,-129.82 341.03,-125 353.87,-110.4 342.17,-100.19 349.03,-82 354.84,-66.62 364.73,-50.68 372.35,-39.58"/>
<polygon fill="#000000" fill-opacity="0.200000" stroke="#000000" stroke-width="2" stroke-opacity="0.200000" points="374.16,-40.66 375.88,-34.55 370.72,-38.25 374.16,-40.66"/>
</g>
<!-- separated/summary&#45;details&#45;update&#45;dom/src/handlers/open&#45;close.js&#45;&gt;separated/summary&#45;details&#45;update&#45;dom/src/data.js -->
<g id="edge5" class="edge">
<title>separated/summary&#45;details&#45;update&#45;dom/src/handlers/open&#45;close.js&#45;&gt;separated/summary&#45;details&#45;update&#45;dom/src/data.js</title>
<path fill="none" stroke="#000000" stroke-width="2" stroke-opacity="0.200000" d="M325.09,-149.22C330.65,-151.31 336.17,-153.87 341.03,-157 353.89,-165.27 365.35,-178.43 373.04,-188.56"/>
<polygon fill="#000000" fill-opacity="0.200000" stroke="#000000" stroke-width="2" stroke-opacity="0.200000" points="371.46,-189.96 376.71,-193.54 374.84,-187.47 371.46,-189.96"/>
</g>
<!-- separated/summary&#45;details&#45;update&#45;dom/src/handlers/prevent&#45;default.js -->
<g id="node6" class="node">
<title>separated/summary&#45;details&#45;update&#45;dom/src/handlers/prevent&#45;default.js</title>
<g id="a_node6"><a xlink:href="separated/summary-details-update-dom/src/handlers/prevent-default.js" xlink:title="prevent&#45;default.js">
<path fill="#ffffcc" stroke="black" d="M326.84,-119.3C326.84,-119.3 254.21,-119.3 254.21,-119.3 251.11,-119.3 248.01,-116.2 248.01,-113.1 248.01,-113.1 248.01,-106.9 248.01,-106.9 248.01,-103.8 251.11,-100.7 254.21,-100.7 254.21,-100.7 326.84,-100.7 326.84,-100.7 329.94,-100.7 333.04,-103.8 333.04,-106.9 333.04,-106.9 333.04,-113.1 333.04,-113.1 333.04,-116.2 329.94,-119.3 326.84,-119.3"/>
<text text-anchor="middle" x="290.52" y="-107.3" font-family="Helvetica,sans-Serif" font-size="9.00">prevent&#45;default.js</text>
</a>
</g>
</g>
<!-- separated/summary&#45;details&#45;update&#45;dom/src/handlers/prevent&#45;default.js&#45;&gt;lib/logger.js -->
<g id="edge6" class="edge">
<title>separated/summary&#45;details&#45;update&#45;dom/src/handlers/prevent&#45;default.js&#45;&gt;lib/logger.js</title>
<path fill="none" stroke="#000000" stroke-width="2" stroke-opacity="0.200000" d="M301.67,-100.58C317.88,-85.52 349.72,-55.95 368.4,-38.6"/>
<polygon fill="#000000" fill-opacity="0.200000" stroke="#000000" stroke-width="2" stroke-opacity="0.200000" points="369.88,-40.09 372.84,-34.46 367.02,-37.01 369.88,-40.09"/>
</g>
<!-- separated/summary&#45;details&#45;update&#45;dom/src/handlers/summary&#45;text.js -->
<g id="node7" class="node">
<title>separated/summary&#45;details&#45;update&#45;dom/src/handlers/summary&#45;text.js</title>
<g id="a_node7"><a xlink:href="separated/summary-details-update-dom/src/handlers/summary-text.js" xlink:title="summary&#45;text.js">
<path fill="#ffffcc" stroke="black" d="M324.32,-212.3C324.32,-212.3 256.73,-212.3 256.73,-212.3 253.63,-212.3 250.53,-209.2 250.53,-206.1 250.53,-206.1 250.53,-199.9 250.53,-199.9 250.53,-196.8 253.63,-193.7 256.73,-193.7 256.73,-193.7 324.32,-193.7 324.32,-193.7 327.42,-193.7 330.52,-196.8 330.52,-199.9 330.52,-199.9 330.52,-206.1 330.52,-206.1 330.52,-209.2 327.42,-212.3 324.32,-212.3"/>
<text text-anchor="middle" x="290.52" y="-200.3" font-family="Helvetica,sans-Serif" font-size="9.00">summary&#45;text.js</text>
</a>
</g>
</g>
<!-- separated/summary&#45;details&#45;update&#45;dom/src/handlers/summary&#45;text.js&#45;&gt;lib/logger.js -->
<g id="edge7" class="edge">
<title>separated/summary&#45;details&#45;update&#45;dom/src/handlers/summary&#45;text.js&#45;&gt;lib/logger.js</title>
<path fill="none" stroke="#000000" stroke-width="2" stroke-opacity="0.200000" d="M330.68,-195.49C334.65,-193.32 338.24,-190.55 341.03,-187 355.51,-168.62 341.96,-104.31 349.03,-82 354,-66.33 363.99,-50.42 371.86,-39.41"/>
<polygon fill="#000000" fill-opacity="0.200000" stroke="#000000" stroke-width="2" stroke-opacity="0.200000" points="373.67,-40.5 375.52,-34.42 370.28,-38.02 373.67,-40.5"/>
</g>
<!-- separated/summary&#45;details&#45;update&#45;dom/src/handlers/summary&#45;text.js&#45;&gt;separated/summary&#45;details&#45;update&#45;dom/src/data.js -->
<g id="edge8" class="edge">
<title>separated/summary&#45;details&#45;update&#45;dom/src/handlers/summary&#45;text.js&#45;&gt;separated/summary&#45;details&#45;update&#45;dom/src/data.js</title>
<path fill="none" stroke="#000000" stroke-width="2" stroke-opacity="0.200000" d="M330.33,-203C337.05,-203 343.98,-203 350.51,-203"/>
<polygon fill="#000000" fill-opacity="0.200000" stroke="#000000" stroke-width="2" stroke-opacity="0.200000" points="350.89,-205.1 356.89,-203 350.89,-200.9 350.89,-205.1"/>
</g>
<!-- separated/summary&#45;details&#45;update&#45;dom/src/init/index.js -->
<g id="node8" class="node">
<title>separated/summary&#45;details&#45;update&#45;dom/src/init/index.js</title>
<g id="a_node8"><a xlink:href="separated/summary-details-update-dom/src/init/index.js" xlink:title="index.js">
<path fill="#ffffcc" stroke="black" d="M87.8,-273.3C87.8,-273.3 46.2,-273.3 46.2,-273.3 43.1,-273.3 40,-270.2 40,-267.1 40,-267.1 40,-260.9 40,-260.9 40,-257.8 43.1,-254.7 46.2,-254.7 46.2,-254.7 87.8,-254.7 87.8,-254.7 90.9,-254.7 94,-257.8 94,-260.9 94,-260.9 94,-267.1 94,-267.1 94,-270.2 90.9,-273.3 87.8,-273.3"/>
<text text-anchor="middle" x="67" y="-261.3" font-family="Helvetica,sans-Serif" font-size="9.00">index.js</text>
</a>
</g>
</g>
<!-- separated/summary&#45;details&#45;update&#45;dom/src/listeners/details&#45;prevent&#45;default.js -->
<g id="node9" class="node">
<title>separated/summary&#45;details&#45;update&#45;dom/src/listeners/details&#45;prevent&#45;default.js</title>
<g id="a_node9"><a xlink:href="separated/summary-details-update-dom/src/listeners/details-prevent-default.js" xlink:title="details&#45;prevent&#45;default.js">
<path fill="#ffffcc" stroke="black" d="M217.82,-119.3C217.82,-119.3 116.19,-119.3 116.19,-119.3 113.09,-119.3 109.99,-116.2 109.99,-113.1 109.99,-113.1 109.99,-106.9 109.99,-106.9 109.99,-103.8 113.09,-100.7 116.19,-100.7 116.19,-100.7 217.82,-100.7 217.82,-100.7 220.92,-100.7 224.02,-103.8 224.02,-106.9 224.02,-106.9 224.02,-113.1 224.02,-113.1 224.02,-116.2 220.92,-119.3 217.82,-119.3"/>
<text text-anchor="middle" x="167.01" y="-107.3" font-family="Helvetica,sans-Serif" font-size="9.00">details&#45;prevent&#45;default.js</text>
</a>
</g>
</g>
<!-- separated/summary&#45;details&#45;update&#45;dom/src/init/index.js&#45;&gt;separated/summary&#45;details&#45;update&#45;dom/src/listeners/details&#45;prevent&#45;default.js -->
<g id="edge9" class="edge">
<title>separated/summary&#45;details&#45;update&#45;dom/src/init/index.js&#45;&gt;separated/summary&#45;details&#45;update&#45;dom/src/listeners/details&#45;prevent&#45;default.js</title>
<path fill="none" stroke="#000000" stroke-width="2" stroke-opacity="0.200000" d="M69.08,-254.42C72.44,-226.23 83.62,-144.44 102,-126 103.13,-124.86 104.33,-123.8 105.59,-122.82"/>
<polygon fill="#000000" fill-opacity="0.200000" stroke="#000000" stroke-width="2" stroke-opacity="0.200000" points="106.91,-124.46 110.69,-119.35 104.55,-120.98 106.91,-124.46"/>
</g>
<!-- separated/summary&#45;details&#45;update&#45;dom/src/listeners/main&#45;text.js -->
<g id="node10" class="node">
<title>separated/summary&#45;details&#45;update&#45;dom/src/listeners/main&#45;text.js</title>
<g id="a_node10"><a xlink:href="separated/summary-details-update-dom/src/listeners/main-text.js" xlink:title="main&#45;text.js">
<path fill="#ffffcc" stroke="black" d="M191.81,-181.3C191.81,-181.3 142.21,-181.3 142.21,-181.3 139.11,-181.3 136.01,-178.2 136.01,-175.1 136.01,-175.1 136.01,-168.9 136.01,-168.9 136.01,-165.8 139.11,-162.7 142.21,-162.7 142.21,-162.7 191.81,-162.7 191.81,-162.7 194.91,-162.7 198.01,-165.8 198.01,-168.9 198.01,-168.9 198.01,-175.1 198.01,-175.1 198.01,-178.2 194.91,-181.3 191.81,-181.3"/>
<text text-anchor="middle" x="167.01" y="-169.3" font-family="Helvetica,sans-Serif" font-size="9.00">main&#45;text.js</text>
</a>
</g>
</g>
<!-- separated/summary&#45;details&#45;update&#45;dom/src/init/index.js&#45;&gt;separated/summary&#45;details&#45;update&#45;dom/src/listeners/main&#45;text.js -->
<g id="edge10" class="edge">
<title>separated/summary&#45;details&#45;update&#45;dom/src/init/index.js&#45;&gt;separated/summary&#45;details&#45;update&#45;dom/src/listeners/main&#45;text.js</title>
<path fill="none" stroke="#000000" stroke-width="2" stroke-opacity="0.200000" d="M69.51,-254.46C72.6,-238.26 81.17,-205.46 102,-188 109.78,-181.48 119.84,-177.56 129.67,-175.21"/>
<polygon fill="#000000" fill-opacity="0.200000" stroke="#000000" stroke-width="2" stroke-opacity="0.200000" points="130.3,-177.23 135.75,-173.95 129.44,-173.12 130.3,-177.23"/>
</g>
<!-- separated/summary&#45;details&#45;update&#45;dom/src/listeners/open&#45;close.js -->
<g id="node11" class="node">
<title>separated/summary&#45;details&#45;update&#45;dom/src/listeners/open&#45;close.js</title>
<g id="a_node11"><a xlink:href="separated/summary-details-update-dom/src/listeners/open-close.js" xlink:title="open&#45;close.js">
<path fill="#ffffcc" stroke="black" d="M195.32,-150.3C195.32,-150.3 138.7,-150.3 138.7,-150.3 135.6,-150.3 132.5,-147.2 132.5,-144.1 132.5,-144.1 132.5,-137.9 132.5,-137.9 132.5,-134.8 135.6,-131.7 138.7,-131.7 138.7,-131.7 195.32,-131.7 195.32,-131.7 198.42,-131.7 201.52,-134.8 201.52,-137.9 201.52,-137.9 201.52,-144.1 201.52,-144.1 201.52,-147.2 198.42,-150.3 195.32,-150.3"/>
<text text-anchor="middle" x="167.01" y="-138.3" font-family="Helvetica,sans-Serif" font-size="9.00">open&#45;close.js</text>
</a>
</g>
</g>
<!-- separated/summary&#45;details&#45;update&#45;dom/src/init/index.js&#45;&gt;separated/summary&#45;details&#45;update&#45;dom/src/listeners/open&#45;close.js -->
<g id="edge11" class="edge">
<title>separated/summary&#45;details&#45;update&#45;dom/src/init/index.js&#45;&gt;separated/summary&#45;details&#45;update&#45;dom/src/listeners/open&#45;close.js</title>
<path fill="none" stroke="#000000" stroke-width="2" stroke-opacity="0.200000" d="M68.1,-254.4C68.86,-233.48 73.73,-183.55 102,-157 108.71,-150.7 117.52,-146.77 126.45,-144.36"/>
<polygon fill="#000000" fill-opacity="0.200000" stroke="#000000" stroke-width="2" stroke-opacity="0.200000" points="126.95,-146.4 132.31,-142.98 125.99,-142.31 126.95,-146.4"/>
</g>
<!-- separated/summary&#45;details&#45;update&#45;dom/src/listeners/summary&#45;text.js -->
<g id="node12" class="node">
<title>separated/summary&#45;details&#45;update&#45;dom/src/listeners/summary&#45;text.js</title>
<g id="a_node12"><a xlink:href="separated/summary-details-update-dom/src/listeners/summary-text.js" xlink:title="summary&#45;text.js">
<path fill="#ffffcc" stroke="black" d="M200.8,-212.3C200.8,-212.3 133.21,-212.3 133.21,-212.3 130.11,-212.3 127.01,-209.2 127.01,-206.1 127.01,-206.1 127.01,-199.9 127.01,-199.9 127.01,-196.8 130.11,-193.7 133.21,-193.7 133.21,-193.7 200.8,-193.7 200.8,-193.7 203.9,-193.7 207,-196.8 207,-199.9 207,-199.9 207,-206.1 207,-206.1 207,-209.2 203.9,-212.3 200.8,-212.3"/>
<text text-anchor="middle" x="167.01" y="-200.3" font-family="Helvetica,sans-Serif" font-size="9.00">summary&#45;text.js</text>
</a>
</g>
</g>
<!-- separated/summary&#45;details&#45;update&#45;dom/src/init/index.js&#45;&gt;separated/summary&#45;details&#45;update&#45;dom/src/listeners/summary&#45;text.js -->
<g id="edge12" class="edge">
<title>separated/summary&#45;details&#45;update&#45;dom/src/init/index.js&#45;&gt;separated/summary&#45;details&#45;update&#45;dom/src/listeners/summary&#45;text.js</title>
<path fill="none" stroke="#000000" stroke-width="2" stroke-opacity="0.200000" d="M83.31,-254.47C100,-244.08 126.79,-227.41 145.33,-215.87"/>
<polygon fill="#000000" fill-opacity="0.200000" stroke="#000000" stroke-width="2" stroke-opacity="0.200000" points="146.82,-217.42 150.8,-212.46 144.6,-213.85 146.82,-217.42"/>
</g>
<!-- separated/summary&#45;details&#45;update&#45;dom/src/init/log&#45;state.js -->
<g id="node13" class="node">
<title>separated/summary&#45;details&#45;update&#45;dom/src/init/log&#45;state.js</title>
<g id="a_node13"><a xlink:href="separated/summary-details-update-dom/src/init/log-state.js" xlink:title="log&#45;state.js">
<path fill="#ffffcc" stroke="black" d="M190.32,-273.3C190.32,-273.3 143.7,-273.3 143.7,-273.3 140.6,-273.3 137.5,-270.2 137.5,-267.1 137.5,-267.1 137.5,-260.9 137.5,-260.9 137.5,-257.8 140.6,-254.7 143.7,-254.7 143.7,-254.7 190.32,-254.7 190.32,-254.7 193.42,-254.7 196.52,-257.8 196.52,-260.9 196.52,-260.9 196.52,-267.1 196.52,-267.1 196.52,-270.2 193.42,-273.3 190.32,-273.3"/>
<text text-anchor="middle" x="167.01" y="-261.3" font-family="Helvetica,sans-Serif" font-size="9.00">log&#45;state.js</text>
</a>
</g>
</g>
<!-- separated/summary&#45;details&#45;update&#45;dom/src/init/index.js&#45;&gt;separated/summary&#45;details&#45;update&#45;dom/src/init/log&#45;state.js -->
<g id="edge13" class="edge">
<title>separated/summary&#45;details&#45;update&#45;dom/src/init/index.js&#45;&gt;separated/summary&#45;details&#45;update&#45;dom/src/init/log&#45;state.js</title>
<path fill="none" stroke="#000000" stroke-width="2" stroke-opacity="0.200000" d="M94.01,-264C105.4,-264 118.95,-264 131.2,-264"/>
<polygon fill="#000000" fill-opacity="0.200000" stroke="#000000" stroke-width="2" stroke-opacity="0.200000" points="131.46,-266.1 137.46,-264 131.46,-261.9 131.46,-266.1"/>
</g>
<!-- separated/summary&#45;details&#45;update&#45;dom/src/init/ui.js -->
<g id="node14" class="node">
<title>separated/summary&#45;details&#45;update&#45;dom/src/init/ui.js</title>
<g id="a_node14"><a xlink:href="separated/summary-details-update-dom/src/init/ui.js" xlink:title="ui.js">
<path fill="#ffffcc" stroke="black" d="M187.81,-304.3C187.81,-304.3 146.21,-304.3 146.21,-304.3 143.11,-304.3 140.01,-301.2 140.01,-298.1 140.01,-298.1 140.01,-291.9 140.01,-291.9 140.01,-288.8 143.11,-285.7 146.21,-285.7 146.21,-285.7 187.81,-285.7 187.81,-285.7 190.91,-285.7 194.01,-288.8 194.01,-291.9 194.01,-291.9 194.01,-298.1 194.01,-298.1 194.01,-301.2 190.91,-304.3 187.81,-304.3"/>
<text text-anchor="middle" x="167.01" y="-292.3" font-family="Helvetica,sans-Serif" font-size="9.00">ui.js</text>
</a>
</g>
</g>
<!-- separated/summary&#45;details&#45;update&#45;dom/src/init/index.js&#45;&gt;separated/summary&#45;details&#45;update&#45;dom/src/init/ui.js -->
<g id="edge14" class="edge">
<title>separated/summary&#45;details&#45;update&#45;dom/src/init/index.js&#45;&gt;separated/summary&#45;details&#45;update&#45;dom/src/init/ui.js</title>
<path fill="none" stroke="#000000" stroke-width="2" stroke-opacity="0.200000" d="M87.55,-273.3C92.22,-275.34 97.24,-277.37 102,-279 112.24,-282.51 123.63,-285.61 133.94,-288.12"/>
<polygon fill="#000000" fill-opacity="0.200000" stroke="#000000" stroke-width="2" stroke-opacity="0.200000" points="133.54,-290.18 139.87,-289.53 134.51,-286.1 133.54,-290.18"/>
</g>
<!-- separated/summary&#45;details&#45;update&#45;dom/src/listeners/details&#45;prevent&#45;default.js&#45;&gt;separated/summary&#45;details&#45;update&#45;dom/src/handlers/prevent&#45;default.js -->
<g id="edge18" class="edge">
<title>separated/summary&#45;details&#45;update&#45;dom/src/listeners/details&#45;prevent&#45;default.js&#45;&gt;separated/summary&#45;details&#45;update&#45;dom/src/handlers/prevent&#45;default.js</title>
<path fill="none" stroke="#000000" stroke-width="2" stroke-opacity="0.200000" d="M224.14,-110C229.99,-110 235.89,-110 241.63,-110"/>
<polygon fill="#000000" fill-opacity="0.200000" stroke="#000000" stroke-width="2" stroke-opacity="0.200000" points="241.79,-112.1 247.79,-110 241.79,-107.9 241.79,-112.1"/>
</g>
<!-- separated/summary&#45;details&#45;update&#45;dom/src/listeners/main&#45;text.js&#45;&gt;separated/summary&#45;details&#45;update&#45;dom/src/handlers/main&#45;text.js -->
<g id="edge19" class="edge">
<title>separated/summary&#45;details&#45;update&#45;dom/src/listeners/main&#45;text.js&#45;&gt;separated/summary&#45;details&#45;update&#45;dom/src/handlers/main&#45;text.js</title>
<path fill="none" stroke="#000000" stroke-width="2" stroke-opacity="0.200000" d="M198.05,-172C214.7,-172 235.52,-172 253.1,-172"/>
<polygon fill="#000000" fill-opacity="0.200000" stroke="#000000" stroke-width="2" stroke-opacity="0.200000" points="253.41,-174.1 259.41,-172 253.41,-169.9 253.41,-174.1"/>
</g>
<!-- separated/summary&#45;details&#45;update&#45;dom/src/listeners/open&#45;close.js&#45;&gt;separated/summary&#45;details&#45;update&#45;dom/src/handlers/open&#45;close.js -->
<g id="edge20" class="edge">
<title>separated/summary&#45;details&#45;update&#45;dom/src/listeners/open&#45;close.js&#45;&gt;separated/summary&#45;details&#45;update&#45;dom/src/handlers/open&#45;close.js</title>
<path fill="none" stroke="#000000" stroke-width="2" stroke-opacity="0.200000" d="M201.53,-141C216.42,-141 234.05,-141 249.61,-141"/>
<polygon fill="#000000" fill-opacity="0.200000" stroke="#000000" stroke-width="2" stroke-opacity="0.200000" points="249.69,-143.1 255.69,-141 249.69,-138.9 249.69,-143.1"/>
</g>
<!-- separated/summary&#45;details&#45;update&#45;dom/src/listeners/summary&#45;text.js&#45;&gt;separated/summary&#45;details&#45;update&#45;dom/src/handlers/summary&#45;text.js -->
<g id="edge21" class="edge">
<title>separated/summary&#45;details&#45;update&#45;dom/src/listeners/summary&#45;text.js&#45;&gt;separated/summary&#45;details&#45;update&#45;dom/src/handlers/summary&#45;text.js</title>
<path fill="none" stroke="#000000" stroke-width="2" stroke-opacity="0.200000" d="M206.79,-203C218.85,-203 232.24,-203 244.68,-203"/>
<polygon fill="#000000" fill-opacity="0.200000" stroke="#000000" stroke-width="2" stroke-opacity="0.200000" points="244.69,-205.1 250.69,-203 244.69,-200.9 244.69,-205.1"/>
</g>
<!-- separated/summary&#45;details&#45;update&#45;dom/src/init/log&#45;state.js&#45;&gt;lib/logger.js -->
<g id="edge15" class="edge">
<title>separated/summary&#45;details&#45;update&#45;dom/src/init/log&#45;state.js&#45;&gt;lib/logger.js</title>
<path fill="none" stroke="#000000" stroke-width="2" stroke-opacity="0.200000" d="M196.81,-261.29C209.66,-258.52 223.74,-252.98 232.02,-242 252.38,-214.99 220.96,-117.95 240.02,-90 265.25,-52.98 316.99,-36.71 350.83,-29.8"/>
<polygon fill="#000000" fill-opacity="0.200000" stroke="#000000" stroke-width="2" stroke-opacity="0.200000" points="351.44,-31.82 356.93,-28.61 350.64,-27.7 351.44,-31.82"/>
</g>
<!-- separated/summary&#45;details&#45;update&#45;dom/src/init/log&#45;state.js&#45;&gt;separated/summary&#45;details&#45;update&#45;dom/src/data.js -->
<g id="edge16" class="edge">
<title>separated/summary&#45;details&#45;update&#45;dom/src/init/log&#45;state.js&#45;&gt;separated/summary&#45;details&#45;update&#45;dom/src/data.js</title>
<path fill="none" stroke="#000000" stroke-width="2" stroke-opacity="0.200000" d="M196.74,-265.58C232.32,-266.4 293.99,-264 341.03,-242 353.2,-236.31 364.21,-225.78 371.91,-217.09"/>
<polygon fill="#000000" fill-opacity="0.200000" stroke="#000000" stroke-width="2" stroke-opacity="0.200000" points="373.53,-218.42 375.83,-212.49 370.34,-215.7 373.53,-218.42"/>
</g>
<!-- separated/summary&#45;details&#45;update&#45;dom/src/init/ui.js&#45;&gt;separated/summary&#45;details&#45;update&#45;dom/src/data.js -->
<g id="edge17" class="edge">
<title>separated/summary&#45;details&#45;update&#45;dom/src/init/ui.js&#45;&gt;separated/summary&#45;details&#45;update&#45;dom/src/data.js</title>
<path fill="none" stroke="#000000" stroke-width="2" stroke-opacity="0.200000" d="M194.12,-294.68C229.91,-293.1 295,-286.05 341.03,-257 356.19,-247.44 368.07,-230.39 375.27,-218"/>
<polygon fill="#000000" fill-opacity="0.200000" stroke="#000000" stroke-width="2" stroke-opacity="0.200000" points="377.15,-218.94 378.24,-212.68 373.48,-216.89 377.15,-218.94"/>
</g>
</g>
</svg>
