<?xml version="1.0" encoding="UTF-8" standalone="no"?>
<!DOCTYPE svg PUBLIC "-//W3C//DTD SVG 1.1//EN"
 "http://www.w3.org/Graphics/SVG/1.1/DTD/svg11.dtd">
<!-- Generated by graphviz version 2.44.0 (20200408.0750)
 -->
<!-- Title: dependency&#45;cruiser output Pages: 1 -->
<svg width="186pt" height="240pt"
 viewBox="0.00 0.00 185.51 240.00" xmlns="http://www.w3.org/2000/svg" xmlns:xlink="http://www.w3.org/1999/xlink">
<g id="graph0" class="graph" transform="scale(1 1) rotate(0) translate(4 236)">
<title>dependency&#45;cruiser output</title>
<polygon fill="white" stroke="transparent" points="-4,4 -4,-236 181.51,-236 181.51,4 -4,4"/>
<g id="clust1" class="cluster">
<title>cluster_es5&#45;vs&#45;es6</title>
<path fill="#ffffff" stroke="black" stroke-width="2" d="M12,-8C12,-8 165.51,-8 165.51,-8 171.51,-8 177.51,-14 177.51,-20 177.51,-20 177.51,-212 177.51,-212 177.51,-218 171.51,-224 165.51,-224 165.51,-224 12,-224 12,-224 6,-224 0,-218 0,-212 0,-212 0,-20 0,-20 0,-14 6,-8 12,-8"/>
<text text-anchor="middle" x="88.75" y="-211.9" font-family="Helvetica,sans-Serif" font-weight="bold" font-size="9.00">es5&#45;vs&#45;es6</text>
</g>
<g id="clust2" class="cluster">
<title>cluster_es5&#45;vs&#45;es6/reverse&#45;or&#45;devowel&#45;es5&#45;declarations</title>
<path fill="#ffffff" stroke="black" stroke-width="2" d="M20,-16C20,-16 157.51,-16 157.51,-16 163.51,-16 169.51,-22 169.51,-28 169.51,-28 169.51,-185 169.51,-185 169.51,-191 163.51,-197 157.51,-197 157.51,-197 20,-197 20,-197 14,-197 8,-191 8,-185 8,-185 8,-28 8,-28 8,-22 14,-16 20,-16"/>
<text text-anchor="middle" x="88.75" y="-184.9" font-family="Helvetica,sans-Serif" font-weight="bold" font-size="9.00">reverse&#45;or&#45;devowel&#45;es5&#45;declarations</text>
</g>
<g id="clust3" class="cluster">
<title>cluster_es5&#45;vs&#45;es6/reverse&#45;or&#45;devowel&#45;es5&#45;declarations/src</title>
<path fill="#ffffff" stroke="black" stroke-width="2" d="M63,-24C63,-24 114.51,-24 114.51,-24 120.51,-24 126.51,-30 126.51,-36 126.51,-36 126.51,-158 126.51,-158 126.51,-164 120.51,-170 114.51,-170 114.51,-170 63,-170 63,-170 57,-170 51,-164 51,-158 51,-158 51,-36 51,-36 51,-30 57,-24 63,-24"/>
<text text-anchor="middle" x="88.75" y="-157.9" font-family="Helvetica,sans-Serif" font-weight="bold" font-size="9.00">src</text>
</g>
<!-- es5&#45;vs&#45;es6/reverse&#45;or&#45;devowel&#45;es5&#45;declarations/src/handlers.js -->
<g id="node1" class="node">
<title>es5&#45;vs&#45;es6/reverse&#45;or&#45;devowel&#45;es5&#45;declarations/src/handlers.js</title>
<g id="a_node1"><a xlink:href="es5-vs-es6/reverse-or-devowel-es5-declarations/src/handlers.js" xlink:title="handlers.js">
<path fill="#ccffcc" stroke="black" d="M112.06,-143.3C112.06,-143.3 65.45,-143.3 65.45,-143.3 62.34,-143.3 59.24,-140.2 59.24,-137.1 59.24,-137.1 59.24,-130.9 59.24,-130.9 59.24,-127.8 62.34,-124.7 65.45,-124.7 65.45,-124.7 112.06,-124.7 112.06,-124.7 115.16,-124.7 118.26,-127.8 118.26,-130.9 118.26,-130.9 118.26,-137.1 118.26,-137.1 118.26,-140.2 115.16,-143.3 112.06,-143.3"/>
<text text-anchor="middle" x="88.75" y="-131.3" font-family="Helvetica,sans-Serif" font-size="9.00">handlers.js</text>
</a>
</g>
</g>
<!-- es5&#45;vs&#45;es6/reverse&#45;or&#45;devowel&#45;es5&#45;declarations/src/init.js -->
<g id="node2" class="node">
<title>es5&#45;vs&#45;es6/reverse&#45;or&#45;devowel&#45;es5&#45;declarations/src/init.js</title>
<g id="a_node2"><a xlink:href="es5-vs-es6/reverse-or-devowel-es5-declarations/src/init.js" xlink:title="init.js">
<path fill="#ccffcc" stroke="black" d="M109.55,-112.3C109.55,-112.3 67.95,-112.3 67.95,-112.3 64.85,-112.3 61.75,-109.2 61.75,-106.1 61.75,-106.1 61.75,-99.9 61.75,-99.9 61.75,-96.8 64.85,-93.7 67.95,-93.7 67.95,-93.7 109.55,-93.7 109.55,-93.7 112.65,-93.7 115.75,-96.8 115.75,-99.9 115.75,-99.9 115.75,-106.1 115.75,-106.1 115.75,-109.2 112.65,-112.3 109.55,-112.3"/>
<text text-anchor="middle" x="88.75" y="-100.3" font-family="Helvetica,sans-Serif" font-size="9.00">init.js</text>
</a>
</g>
</g>
<!-- es5&#45;vs&#45;es6/reverse&#45;or&#45;devowel&#45;es5&#45;declarations/src/listeners.js -->
<g id="node3" class="node">
<title>es5&#45;vs&#45;es6/reverse&#45;or&#45;devowel&#45;es5&#45;declarations/src/listeners.js</title>
<g id="a_node3"><a xlink:href="es5-vs-es6/reverse-or-devowel-es5-declarations/src/listeners.js" xlink:title="listeners.js">
<path fill="#ccffcc" stroke="black" d="M112.05,-81.3C112.05,-81.3 65.45,-81.3 65.45,-81.3 62.35,-81.3 59.25,-78.2 59.25,-75.1 59.25,-75.1 59.25,-68.9 59.25,-68.9 59.25,-65.8 62.35,-62.7 65.45,-62.7 65.45,-62.7 112.05,-62.7 112.05,-62.7 115.15,-62.7 118.25,-65.8 118.25,-68.9 118.25,-68.9 118.25,-75.1 118.25,-75.1 118.25,-78.2 115.15,-81.3 112.05,-81.3"/>
<text text-anchor="middle" x="88.75" y="-69.3" font-family="Helvetica,sans-Serif" font-size="9.00">listeners.js</text>
</a>
</g>
</g>
<!-- es5&#45;vs&#45;es6/reverse&#45;or&#45;devowel&#45;es5&#45;declarations/src/utils.js -->
<g id="node4" class="node">
<title>es5&#45;vs&#45;es6/reverse&#45;or&#45;devowel&#45;es5&#45;declarations/src/utils.js</title>
<g id="a_node4"><a xlink:href="es5-vs-es6/reverse-or-devowel-es5-declarations/src/utils.js" xlink:title="utils.js">
<path fill="#ccffcc" stroke="black" d="M109.55,-50.3C109.55,-50.3 67.95,-50.3 67.95,-50.3 64.85,-50.3 61.75,-47.2 61.75,-44.1 61.75,-44.1 61.75,-37.9 61.75,-37.9 61.75,-34.8 64.85,-31.7 67.95,-31.7 67.95,-31.7 109.55,-31.7 109.55,-31.7 112.65,-31.7 115.75,-34.8 115.75,-37.9 115.75,-37.9 115.75,-44.1 115.75,-44.1 115.75,-47.2 112.65,-50.3 109.55,-50.3"/>
<text text-anchor="middle" x="88.75" y="-38.3" font-family="Helvetica,sans-Serif" font-size="9.00">utils.js</text>
</a>
</g>
</g>
</g>
</svg>
