<?xml version="1.0" encoding="UTF-8" standalone="no"?>
<!DOCTYPE svg PUBLIC "-//W3C//DTD SVG 1.1//EN"
 "http://www.w3.org/Graphics/SVG/1.1/DTD/svg11.dtd">
<!-- Generated by graphviz version 2.44.0 (20200408.0750)
 -->
<!-- Title: dependency&#45;cruiser output Pages: 1 -->
<svg width="186pt" height="209pt"
 viewBox="0.00 0.00 186.01 209.00" xmlns="http://www.w3.org/2000/svg" xmlns:xlink="http://www.w3.org/1999/xlink">
<g id="graph0" class="graph" transform="scale(1 1) rotate(0) translate(4 205)">
<title>dependency&#45;cruiser output</title>
<polygon fill="white" stroke="transparent" points="-4,4 -4,-205 182.01,-205 182.01,4 -4,4"/>
<g id="clust1" class="cluster">
<title>cluster_es5&#45;vs&#45;es6</title>
<path fill="#ffffff" stroke="black" stroke-width="2" d="M12,-8C12,-8 166.01,-8 166.01,-8 172.01,-8 178.01,-14 178.01,-20 178.01,-20 178.01,-181 178.01,-181 178.01,-187 172.01,-193 166.01,-193 166.01,-193 12,-193 12,-193 6,-193 0,-187 0,-181 0,-181 0,-20 0,-20 0,-14 6,-8 12,-8"/>
<text text-anchor="middle" x="89" y="-180.9" font-family="Helvetica,sans-Serif" font-weight="bold" font-size="9.00">es5&#45;vs&#45;es6</text>
</g>
<g id="clust2" class="cluster">
<title>cluster_es5&#45;vs&#45;es6/reverse&#45;or&#45;devowel&#45;es5&#45;declarations</title>
<path fill="#ffffff" stroke="black" stroke-width="2" d="M20,-16C20,-16 158.01,-16 158.01,-16 164.01,-16 170.01,-22 170.01,-28 170.01,-28 170.01,-154 170.01,-154 170.01,-160 164.01,-166 158.01,-166 158.01,-166 20,-166 20,-166 14,-166 8,-160 8,-154 8,-154 8,-28 8,-28 8,-22 14,-16 20,-16"/>
<text text-anchor="middle" x="89" y="-153.9" font-family="Helvetica,sans-Serif" font-weight="bold" font-size="9.00">reverse&#45;or&#45;devowel&#45;es5&#45;declarations</text>
</g>
<g id="clust3" class="cluster">
<title>cluster_es5&#45;vs&#45;es6/reverse&#45;or&#45;devowel&#45;es5&#45;declarations/src</title>
<path fill="#ffffff" stroke="black" stroke-width="2" d="M65,-24C65,-24 112.01,-24 112.01,-24 118.01,-24 124.01,-30 124.01,-36 124.01,-36 124.01,-127 124.01,-127 124.01,-133 118.01,-139 112.01,-139 112.01,-139 65,-139 65,-139 59,-139 53,-133 53,-127 53,-127 53,-36 53,-36 53,-30 59,-24 65,-24"/>
<text text-anchor="middle" x="88.5" y="-126.9" font-family="Helvetica,sans-Serif" font-weight="bold" font-size="9.00">src</text>
</g>
<!-- es5&#45;vs&#45;es6/reverse&#45;or&#45;devowel&#45;es5&#45;declarations/src/handler.js -->
<g id="node1" class="node">
<title>es5&#45;vs&#45;es6/reverse&#45;or&#45;devowel&#45;es5&#45;declarations/src/handler.js</title>
<g id="a_node1"><a xlink:href="es5-vs-es6/reverse-or-devowel-es5-declarations/src/handler.js" xlink:title="handler.js">
<path fill="#ccffcc" stroke="black" d="M109.81,-112.3C109.81,-112.3 67.2,-112.3 67.2,-112.3 64.1,-112.3 61,-109.2 61,-106.1 61,-106.1 61,-99.9 61,-99.9 61,-96.8 64.1,-93.7 67.2,-93.7 67.2,-93.7 109.81,-93.7 109.81,-93.7 112.91,-93.7 116.01,-96.8 116.01,-99.9 116.01,-99.9 116.01,-106.1 116.01,-106.1 116.01,-109.2 112.91,-112.3 109.81,-112.3"/>
<text text-anchor="middle" x="88.5" y="-100.3" font-family="Helvetica,sans-Serif" font-size="9.00">handler.js</text>
</a>
</g>
</g>
<!-- es5&#45;vs&#45;es6/reverse&#45;or&#45;devowel&#45;es5&#45;declarations/src/listener.js -->
<g id="node2" class="node">
<title>es5&#45;vs&#45;es6/reverse&#45;or&#45;devowel&#45;es5&#45;declarations/src/listener.js</title>
<g id="a_node2"><a xlink:href="es5-vs-es6/reverse-or-devowel-es5-declarations/src/listener.js" xlink:title="listener.js">
<path fill="#ccffcc" stroke="black" d="M109.3,-81.3C109.3,-81.3 67.7,-81.3 67.7,-81.3 64.6,-81.3 61.5,-78.2 61.5,-75.1 61.5,-75.1 61.5,-68.9 61.5,-68.9 61.5,-65.8 64.6,-62.7 67.7,-62.7 67.7,-62.7 109.3,-62.7 109.3,-62.7 112.4,-62.7 115.5,-65.8 115.5,-68.9 115.5,-68.9 115.5,-75.1 115.5,-75.1 115.5,-78.2 112.4,-81.3 109.3,-81.3"/>
<text text-anchor="middle" x="88.5" y="-69.3" font-family="Helvetica,sans-Serif" font-size="9.00">listener.js</text>
</a>
</g>
</g>
<!-- es5&#45;vs&#45;es6/reverse&#45;or&#45;devowel&#45;es5&#45;declarations/src/logic.js -->
<g id="node3" class="node">
<title>es5&#45;vs&#45;es6/reverse&#45;or&#45;devowel&#45;es5&#45;declarations/src/logic.js</title>
<g id="a_node3"><a xlink:href="es5-vs-es6/reverse-or-devowel-es5-declarations/src/logic.js" xlink:title="logic.js">
<path fill="#ccffcc" stroke="black" d="M109.3,-50.3C109.3,-50.3 67.7,-50.3 67.7,-50.3 64.6,-50.3 61.5,-47.2 61.5,-44.1 61.5,-44.1 61.5,-37.9 61.5,-37.9 61.5,-34.8 64.6,-31.7 67.7,-31.7 67.7,-31.7 109.3,-31.7 109.3,-31.7 112.4,-31.7 115.5,-34.8 115.5,-37.9 115.5,-37.9 115.5,-44.1 115.5,-44.1 115.5,-47.2 112.4,-50.3 109.3,-50.3"/>
<text text-anchor="middle" x="88.5" y="-38.3" font-family="Helvetica,sans-Serif" font-size="9.00">logic.js</text>
</a>
</g>
</g>
</g>
</svg>
