<?xml version="1.0" encoding="UTF-8" standalone="no"?>
<!DOCTYPE svg PUBLIC "-//W3C//DTD SVG 1.1//EN"
 "http://www.w3.org/Graphics/SVG/1.1/DTD/svg11.dtd">
<!-- Generated by graphviz version 2.44.0 (20200408.0750)
 -->
<!-- Title: dependency&#45;cruiser output Pages: 1 -->
<svg width="293pt" height="297pt"
 viewBox="0.00 0.00 293.01 297.40" xmlns="http://www.w3.org/2000/svg" xmlns:xlink="http://www.w3.org/1999/xlink">
<g id="graph0" class="graph" transform="scale(1 1) rotate(0) translate(4 293.4)">
<title>dependency&#45;cruiser output</title>
<polygon fill="white" stroke="transparent" points="-4,4 -4,-293.4 289.01,-293.4 289.01,4 -4,4"/>
<g id="clust1" class="cluster">
<title>cluster_refactoring</title>
<path fill="#ffffff" stroke="black" stroke-width="2" d="M20,-26.4C20,-26.4 265.01,-26.4 265.01,-26.4 271.01,-26.4 277.01,-32.4 277.01,-38.4 277.01,-38.4 277.01,-269.4 277.01,-269.4 277.01,-275.4 271.01,-281.4 265.01,-281.4 265.01,-281.4 20,-281.4 20,-281.4 14,-281.4 8,-275.4 8,-269.4 8,-269.4 8,-38.4 8,-38.4 8,-32.4 14,-26.4 20,-26.4"/>
<text text-anchor="middle" x="142.5" y="-269.3" font-family="Helvetica,sans-Serif" font-weight="bold" font-size="9.00">refactoring</text>
</g>
<g id="clust2" class="cluster">
<title>cluster_refactoring/exercises</title>
<path fill="#ffffff" stroke="black" stroke-width="2" d="M28,-34.4C28,-34.4 257.01,-34.4 257.01,-34.4 263.01,-34.4 269.01,-40.4 269.01,-46.4 269.01,-46.4 269.01,-242.4 269.01,-242.4 269.01,-248.4 263.01,-254.4 257.01,-254.4 257.01,-254.4 28,-254.4 28,-254.4 22,-254.4 16,-248.4 16,-242.4 16,-242.4 16,-46.4 16,-46.4 16,-40.4 22,-34.4 28,-34.4"/>
<text text-anchor="middle" x="142.5" y="-242.3" font-family="Helvetica,sans-Serif" font-weight="bold" font-size="9.00">exercises</text>
</g>
<g id="clust3" class="cluster">
<title>cluster_refactoring/exercises/data</title>
<path fill="#ffffff" stroke="black" stroke-width="2" d="M36,-42.4C36,-42.4 249.01,-42.4 249.01,-42.4 255.01,-42.4 261.01,-48.4 261.01,-54.4 261.01,-54.4 261.01,-215.4 261.01,-215.4 261.01,-221.4 255.01,-227.4 249.01,-227.4 249.01,-227.4 36,-227.4 36,-227.4 30,-227.4 24,-221.4 24,-215.4 24,-215.4 24,-54.4 24,-54.4 24,-48.4 30,-42.4 36,-42.4"/>
<text text-anchor="middle" x="142.5" y="-215.3" font-family="Helvetica,sans-Serif" font-weight="bold" font-size="9.00">data</text>
</g>
<g id="clust4" class="cluster">
<title>cluster_refactoring/exercises/data/running&#45;average</title>
<path fill="#ffffff" stroke="black" stroke-width="2" d="M44,-50.4C44,-50.4 241.01,-50.4 241.01,-50.4 247.01,-50.4 253.01,-56.4 253.01,-62.4 253.01,-62.4 253.01,-188.4 253.01,-188.4 253.01,-194.4 247.01,-200.4 241.01,-200.4 241.01,-200.4 44,-200.4 44,-200.4 38,-200.4 32,-194.4 32,-188.4 32,-188.4 32,-62.4 32,-62.4 32,-56.4 38,-50.4 44,-50.4"/>
<text text-anchor="middle" x="142.5" y="-188.3" font-family="Helvetica,sans-Serif" font-weight="bold" font-size="9.00">running&#45;average</text>
</g>
<g id="clust5" class="cluster">
<title>cluster_refactoring/exercises/data/running&#45;average/src</title>
<path fill="#ffffff" stroke="black" stroke-width="2" d="M52,-58.4C52,-58.4 233.01,-58.4 233.01,-58.4 239.01,-58.4 245.01,-64.4 245.01,-70.4 245.01,-70.4 245.01,-161.4 245.01,-161.4 245.01,-167.4 239.01,-173.4 233.01,-173.4 233.01,-173.4 52,-173.4 52,-173.4 46,-173.4 40,-167.4 40,-161.4 40,-161.4 40,-70.4 40,-70.4 40,-64.4 46,-58.4 52,-58.4"/>
<text text-anchor="middle" x="142.5" y="-161.3" font-family="Helvetica,sans-Serif" font-weight="bold" font-size="9.00">src</text>
</g>
<!-- ./utils.js -->
<g id="node1" class="node">
<title>./utils.js</title>
<path fill="#ffffcc" stroke="red" d="M230.81,-18.7C230.81,-18.7 189.21,-18.7 189.21,-18.7 186.11,-18.7 183.01,-15.6 183.01,-12.5 183.01,-12.5 183.01,-6.3 183.01,-6.3 183.01,-3.2 186.11,-0.1 189.21,-0.1 189.21,-0.1 230.81,-0.1 230.81,-0.1 233.91,-0.1 237.01,-3.2 237.01,-6.3 237.01,-6.3 237.01,-12.5 237.01,-12.5 237.01,-15.6 233.91,-18.7 230.81,-18.7"/>
<text text-anchor="middle" x="210.01" y="-6.7" font-family="Helvetica,sans-Serif" font-size="9.00" fill="red">utils.js</text>
</g>
<!-- refactoring/exercises/data/running&#45;average/src/data.js -->
<g id="node2" class="node">
<title>refactoring/exercises/data/running&#45;average/src/data.js</title>
<g id="a_node2"><a xlink:href="refactoring/exercises/data/running-average/src/data.js" xlink:title="data.js">
<path fill="#ffffcc" stroke="black" d="M230.81,-99.7C230.81,-99.7 189.21,-99.7 189.21,-99.7 186.11,-99.7 183.01,-96.6 183.01,-93.5 183.01,-93.5 183.01,-87.3 183.01,-87.3 183.01,-84.2 186.11,-81.1 189.21,-81.1 189.21,-81.1 230.81,-81.1 230.81,-81.1 233.91,-81.1 237.01,-84.2 237.01,-87.3 237.01,-87.3 237.01,-93.5 237.01,-93.5 237.01,-96.6 233.91,-99.7 230.81,-99.7"/>
<text text-anchor="middle" x="210.01" y="-87.7" font-family="Helvetica,sans-Serif" font-size="9.00">data.js</text>
</a>
</g>
</g>
<!-- refactoring/exercises/data/running&#45;average/src/handler.js -->
<g id="node3" class="node">
<title>refactoring/exercises/data/running&#45;average/src/handler.js</title>
<g id="a_node3"><a xlink:href="refactoring/exercises/data/running-average/src/handler.js" xlink:title="handler.js">
<path fill="#ffffcc" stroke="black" d="M163.81,-99.7C163.81,-99.7 121.2,-99.7 121.2,-99.7 118.1,-99.7 115,-96.6 115,-93.5 115,-93.5 115,-87.3 115,-87.3 115,-84.2 118.1,-81.1 121.2,-81.1 121.2,-81.1 163.81,-81.1 163.81,-81.1 166.91,-81.1 170.01,-84.2 170.01,-87.3 170.01,-87.3 170.01,-93.5 170.01,-93.5 170.01,-96.6 166.91,-99.7 163.81,-99.7"/>
<text text-anchor="middle" x="142.5" y="-87.7" font-family="Helvetica,sans-Serif" font-size="9.00">handler.js</text>
</a>
</g>
</g>
<!-- refactoring/exercises/data/running&#45;average/src/handler.js&#45;&gt;./utils.js -->
<g id="edge2" class="edge">
<title>refactoring/exercises/data/running&#45;average/src/handler.js&#45;&gt;./utils.js</title>
<path fill="none" stroke="#000000" stroke-width="2" stroke-opacity="0.200000" d="M151.27,-80.79C162.7,-66.66 184.11,-40.19 197.4,-23.75"/>
<polygon fill="#000000" fill-opacity="0.200000" stroke="#000000" stroke-width="2" stroke-opacity="0.200000" points="199.11,-24.98 201.25,-19 195.84,-22.34 199.11,-24.98"/>
</g>
<!-- refactoring/exercises/data/running&#45;average/src/handler.js&#45;&gt;refactoring/exercises/data/running&#45;average/src/data.js -->
<g id="edge1" class="edge">
<title>refactoring/exercises/data/running&#45;average/src/handler.js&#45;&gt;refactoring/exercises/data/running&#45;average/src/data.js</title>
<path fill="none" stroke="#000000" stroke-width="2" stroke-opacity="0.200000" d="M170.15,-90.4C172.2,-90.4 174.29,-90.4 176.38,-90.4"/>
<polygon fill="#000000" fill-opacity="0.200000" stroke="#000000" stroke-width="2" stroke-opacity="0.200000" points="176.6,-92.5 182.6,-90.4 176.6,-88.3 176.6,-92.5"/>
</g>
<!-- refactoring/exercises/data/running&#45;average/src/init.js -->
<g id="node4" class="node">
<title>refactoring/exercises/data/running&#45;average/src/init.js</title>
<g id="a_node4"><a xlink:href="refactoring/exercises/data/running-average/src/init.js" xlink:title="init.js">
<path fill="#ccffcc" stroke="black" d="M95.8,-146.7C95.8,-146.7 54.2,-146.7 54.2,-146.7 51.1,-146.7 48,-143.6 48,-140.5 48,-140.5 48,-134.3 48,-134.3 48,-131.2 51.1,-128.1 54.2,-128.1 54.2,-128.1 95.8,-128.1 95.8,-128.1 98.9,-128.1 102,-131.2 102,-134.3 102,-134.3 102,-140.5 102,-140.5 102,-143.6 98.9,-146.7 95.8,-146.7"/>
<text text-anchor="middle" x="75" y="-134.7" font-family="Helvetica,sans-Serif" font-size="9.00">init.js</text>
</a>
</g>
</g>
<!-- refactoring/exercises/data/running&#45;average/src/listener.js -->
<g id="node5" class="node">
<title>refactoring/exercises/data/running&#45;average/src/listener.js</title>
<g id="a_node5"><a xlink:href="refactoring/exercises/data/running-average/src/listener.js" xlink:title="listener.js">
<path fill="#ffffcc" stroke="black" d="M95.8,-115.7C95.8,-115.7 54.2,-115.7 54.2,-115.7 51.1,-115.7 48,-112.6 48,-109.5 48,-109.5 48,-103.3 48,-103.3 48,-100.2 51.1,-97.1 54.2,-97.1 54.2,-97.1 95.8,-97.1 95.8,-97.1 98.9,-97.1 102,-100.2 102,-103.3 102,-103.3 102,-109.5 102,-109.5 102,-112.6 98.9,-115.7 95.8,-115.7"/>
<text text-anchor="middle" x="75" y="-103.7" font-family="Helvetica,sans-Serif" font-size="9.00">listener.js</text>
</a>
</g>
</g>
<!-- refactoring/exercises/data/running&#45;average/src/listener.js&#45;&gt;refactoring/exercises/data/running&#45;average/src/handler.js -->
<g id="edge3" class="edge">
<title>refactoring/exercises/data/running&#45;average/src/listener.js&#45;&gt;refactoring/exercises/data/running&#45;average/src/handler.js</title>
<path fill="none" stroke="#000000" stroke-width="2" stroke-opacity="0.200000" d="M102.27,-99.98C104.46,-99.45 106.69,-98.9 108.93,-98.36"/>
<polygon fill="#000000" fill-opacity="0.200000" stroke="#000000" stroke-width="2" stroke-opacity="0.200000" points="109.47,-100.39 114.8,-96.92 108.48,-96.31 109.47,-100.39"/>
</g>
<!-- refactoring/exercises/data/running&#45;average/src/logic.js -->
<g id="node6" class="node">
<title>refactoring/exercises/data/running&#45;average/src/logic.js</title>
<g id="a_node6"><a xlink:href="refactoring/exercises/data/running-average/src/logic.js" xlink:title="logic.js">
<path fill="#ccffcc" stroke="black" d="M95.8,-84.7C95.8,-84.7 54.2,-84.7 54.2,-84.7 51.1,-84.7 48,-81.6 48,-78.5 48,-78.5 48,-72.3 48,-72.3 48,-69.2 51.1,-66.1 54.2,-66.1 54.2,-66.1 95.8,-66.1 95.8,-66.1 98.9,-66.1 102,-69.2 102,-72.3 102,-72.3 102,-78.5 102,-78.5 102,-81.6 98.9,-84.7 95.8,-84.7"/>
<text text-anchor="middle" x="75" y="-72.7" font-family="Helvetica,sans-Serif" font-size="9.00">logic.js</text>
</a>
</g>
</g>
</g>
</svg>
