<?xml version="1.0" encoding="UTF-8" standalone="no"?>
<!DOCTYPE svg PUBLIC "-//W3C//DTD SVG 1.1//EN"
 "http://www.w3.org/Graphics/SVG/1.1/DTD/svg11.dtd">
<!-- Generated by graphviz version 2.44.0 (20200408.0750)
 -->
<!-- Title: dependency&#45;cruiser output Pages: 1 -->
<svg width="437pt" height="248pt"
 viewBox="0.00 0.00 437.01 248.00" xmlns="http://www.w3.org/2000/svg" xmlns:xlink="http://www.w3.org/1999/xlink">
<g id="graph0" class="graph" transform="scale(1 1) rotate(0) translate(4 244)">
<title>dependency&#45;cruiser output</title>
<polygon fill="white" stroke="transparent" points="-4,4 -4,-244 433.01,-244 433.01,4 -4,4"/>
<g id="clust1" class="cluster">
<title>cluster_refactoring</title>
<path fill="#ffffff" stroke="black" stroke-width="2" d="M20,-8C20,-8 409.01,-8 409.01,-8 415.01,-8 421.01,-14 421.01,-20 421.01,-20 421.01,-220 421.01,-220 421.01,-226 415.01,-232 409.01,-232 409.01,-232 20,-232 20,-232 14,-232 8,-226 8,-220 8,-220 8,-20 8,-20 8,-14 14,-8 20,-8"/>
<text text-anchor="middle" x="214.5" y="-219.9" font-family="Helvetica,sans-Serif" font-weight="bold" font-size="9.00">refactoring</text>
</g>
<g id="clust2" class="cluster">
<title>cluster_refactoring/exercises</title>
<path fill="#ffffff" stroke="black" stroke-width="2" d="M28,-16C28,-16 401.01,-16 401.01,-16 407.01,-16 413.01,-22 413.01,-28 413.01,-28 413.01,-193 413.01,-193 413.01,-199 407.01,-205 401.01,-205 401.01,-205 28,-205 28,-205 22,-205 16,-199 16,-193 16,-193 16,-28 16,-28 16,-22 22,-16 28,-16"/>
<text text-anchor="middle" x="214.5" y="-192.9" font-family="Helvetica,sans-Serif" font-weight="bold" font-size="9.00">exercises</text>
</g>
<g id="clust3" class="cluster">
<title>cluster_refactoring/exercises/data</title>
<path fill="#ffffff" stroke="black" stroke-width="2" d="M36,-24C36,-24 393.01,-24 393.01,-24 399.01,-24 405.01,-30 405.01,-36 405.01,-36 405.01,-166 405.01,-166 405.01,-172 399.01,-178 393.01,-178 393.01,-178 36,-178 36,-178 30,-178 24,-172 24,-166 24,-166 24,-36 24,-36 24,-30 30,-24 36,-24"/>
<text text-anchor="middle" x="214.5" y="-165.9" font-family="Helvetica,sans-Serif" font-weight="bold" font-size="9.00">data</text>
</g>
<g id="clust4" class="cluster">
<title>cluster_refactoring/exercises/data/no&#45;copies</title>
<path fill="#ffffff" stroke="black" stroke-width="2" d="M44,-32C44,-32 385.01,-32 385.01,-32 391.01,-32 397.01,-38 397.01,-44 397.01,-44 397.01,-139 397.01,-139 397.01,-145 391.01,-151 385.01,-151 385.01,-151 44,-151 44,-151 38,-151 32,-145 32,-139 32,-139 32,-44 32,-44 32,-38 38,-32 44,-32"/>
<text text-anchor="middle" x="214.5" y="-138.9" font-family="Helvetica,sans-Serif" font-weight="bold" font-size="9.00">no&#45;copies</text>
</g>
<g id="clust5" class="cluster">
<title>cluster_refactoring/exercises/data/no&#45;copies/src</title>
<path fill="#ffffff" stroke="black" stroke-width="2" d="M52,-40C52,-40 377.01,-40 377.01,-40 383.01,-40 389.01,-46 389.01,-52 389.01,-52 389.01,-112 389.01,-112 389.01,-118 383.01,-124 377.01,-124 377.01,-124 52,-124 52,-124 46,-124 40,-118 40,-112 40,-112 40,-52 40,-52 40,-46 46,-40 52,-40"/>
<text text-anchor="middle" x="214.5" y="-111.9" font-family="Helvetica,sans-Serif" font-weight="bold" font-size="9.00">src</text>
</g>
<!-- refactoring/exercises/data/no&#45;copies/src/data.js -->
<g id="node1" class="node">
<title>refactoring/exercises/data/no&#45;copies/src/data.js</title>
<g id="a_node1"><a xlink:href="refactoring/exercises/data/no-copies/src/data.js" xlink:title="data.js">
<path fill="#ffffcc" stroke="black" d="M374.81,-86.3C374.81,-86.3 333.21,-86.3 333.21,-86.3 330.11,-86.3 327.01,-83.2 327.01,-80.1 327.01,-80.1 327.01,-73.9 327.01,-73.9 327.01,-70.8 330.11,-67.7 333.21,-67.7 333.21,-67.7 374.81,-67.7 374.81,-67.7 377.91,-67.7 381.01,-70.8 381.01,-73.9 381.01,-73.9 381.01,-80.1 381.01,-80.1 381.01,-83.2 377.91,-86.3 374.81,-86.3"/>
<text text-anchor="middle" x="354.01" y="-74.3" font-family="Helvetica,sans-Serif" font-size="9.00">data.js</text>
</a>
</g>
</g>
<!-- refactoring/exercises/data/no&#45;copies/src/handler.js -->
<g id="node2" class="node">
<title>refactoring/exercises/data/no&#45;copies/src/handler.js</title>
<g id="a_node2"><a xlink:href="refactoring/exercises/data/no-copies/src/handler.js" xlink:title="handler.js">
<path fill="#ffffcc" stroke="black" d="M235.81,-97.3C235.81,-97.3 193.2,-97.3 193.2,-97.3 190.1,-97.3 187,-94.2 187,-91.1 187,-91.1 187,-84.9 187,-84.9 187,-81.8 190.1,-78.7 193.2,-78.7 193.2,-78.7 235.81,-78.7 235.81,-78.7 238.91,-78.7 242.01,-81.8 242.01,-84.9 242.01,-84.9 242.01,-91.1 242.01,-91.1 242.01,-94.2 238.91,-97.3 235.81,-97.3"/>
<text text-anchor="middle" x="214.5" y="-85.3" font-family="Helvetica,sans-Serif" font-size="9.00">handler.js</text>
</a>
</g>
</g>
<!-- refactoring/exercises/data/no&#45;copies/src/handler.js&#45;&gt;refactoring/exercises/data/no&#45;copies/src/data.js -->
<g id="edge1" class="edge">
<title>refactoring/exercises/data/no&#45;copies/src/handler.js&#45;&gt;refactoring/exercises/data/no&#45;copies/src/data.js</title>
<path fill="none" stroke="#000000" stroke-width="2" stroke-opacity="0.200000" d="M242.28,-86.32C262.1,-85.03 289.75,-83.11 314.01,-81 316.24,-80.81 318.54,-80.6 320.86,-80.38"/>
<polygon fill="#000000" fill-opacity="0.200000" stroke="#000000" stroke-width="2" stroke-opacity="0.200000" points="321.23,-82.45 327,-79.78 320.83,-78.27 321.23,-82.45"/>
</g>
<!-- refactoring/exercises/data/no&#45;copies/src/logic.js -->
<g id="node3" class="node">
<title>refactoring/exercises/data/no&#45;copies/src/logic.js</title>
<g id="a_node3"><a xlink:href="refactoring/exercises/data/no-copies/src/logic.js" xlink:title="logic.js">
<path fill="#ffffcc" stroke="black" d="M307.81,-75.3C307.81,-75.3 266.21,-75.3 266.21,-75.3 263.11,-75.3 260.01,-72.2 260.01,-69.1 260.01,-69.1 260.01,-62.9 260.01,-62.9 260.01,-59.8 263.11,-56.7 266.21,-56.7 266.21,-56.7 307.81,-56.7 307.81,-56.7 310.91,-56.7 314.01,-59.8 314.01,-62.9 314.01,-62.9 314.01,-69.1 314.01,-69.1 314.01,-72.2 310.91,-75.3 307.81,-75.3"/>
<text text-anchor="middle" x="287.01" y="-63.3" font-family="Helvetica,sans-Serif" font-size="9.00">logic.js</text>
</a>
</g>
</g>
<!-- refactoring/exercises/data/no&#45;copies/src/handler.js&#45;&gt;refactoring/exercises/data/no&#45;copies/src/logic.js -->
<g id="edge2" class="edge">
<title>refactoring/exercises/data/no&#45;copies/src/handler.js&#45;&gt;refactoring/exercises/data/no&#45;copies/src/logic.js</title>
<path fill="none" stroke="#000000" stroke-width="2" stroke-opacity="0.200000" d="M242.16,-79.68C246.03,-78.47 250.06,-77.22 254.03,-75.98"/>
<polygon fill="#000000" fill-opacity="0.200000" stroke="#000000" stroke-width="2" stroke-opacity="0.200000" points="254.68,-77.98 259.78,-74.18 253.43,-73.97 254.68,-77.98"/>
</g>
<!-- refactoring/exercises/data/no&#45;copies/src/logic.js&#45;&gt;refactoring/exercises/data/no&#45;copies/src/data.js -->
<g id="edge5" class="edge">
<title>refactoring/exercises/data/no&#45;copies/src/logic.js&#45;&gt;refactoring/exercises/data/no&#45;copies/src/data.js</title>
<path fill="none" stroke="#000000" stroke-width="2" stroke-opacity="0.200000" d="M314.07,-70.41C316.32,-70.79 318.62,-71.18 320.91,-71.57"/>
<polygon fill="#000000" fill-opacity="0.200000" stroke="#000000" stroke-width="2" stroke-opacity="0.200000" points="320.67,-73.66 326.94,-72.59 321.37,-69.52 320.67,-73.66"/>
</g>
<!-- refactoring/exercises/data/no&#45;copies/src/init.js -->
<g id="node4" class="node">
<title>refactoring/exercises/data/no&#45;copies/src/init.js</title>
<g id="a_node4"><a xlink:href="refactoring/exercises/data/no-copies/src/init.js" xlink:title="init.js">
<path fill="#ffffcc" stroke="black" d="M95.8,-97.3C95.8,-97.3 54.2,-97.3 54.2,-97.3 51.1,-97.3 48,-94.2 48,-91.1 48,-91.1 48,-84.9 48,-84.9 48,-81.8 51.1,-78.7 54.2,-78.7 54.2,-78.7 95.8,-78.7 95.8,-78.7 98.9,-78.7 102,-81.8 102,-84.9 102,-84.9 102,-91.1 102,-91.1 102,-94.2 98.9,-97.3 95.8,-97.3"/>
<text text-anchor="middle" x="75" y="-85.3" font-family="Helvetica,sans-Serif" font-size="9.00">init.js</text>
</a>
</g>
</g>
<!-- refactoring/exercises/data/no&#45;copies/src/listener.js -->
<g id="node5" class="node">
<title>refactoring/exercises/data/no&#45;copies/src/listener.js</title>
<g id="a_node5"><a xlink:href="refactoring/exercises/data/no-copies/src/listener.js" xlink:title="listener.js">
<path fill="#ffffcc" stroke="black" d="M162.8,-97.3C162.8,-97.3 121.2,-97.3 121.2,-97.3 118.1,-97.3 115,-94.2 115,-91.1 115,-91.1 115,-84.9 115,-84.9 115,-81.8 118.1,-78.7 121.2,-78.7 121.2,-78.7 162.8,-78.7 162.8,-78.7 165.9,-78.7 169,-81.8 169,-84.9 169,-84.9 169,-91.1 169,-91.1 169,-94.2 165.9,-97.3 162.8,-97.3"/>
<text text-anchor="middle" x="142" y="-85.3" font-family="Helvetica,sans-Serif" font-size="9.00">listener.js</text>
</a>
</g>
</g>
<!-- refactoring/exercises/data/no&#45;copies/src/init.js&#45;&gt;refactoring/exercises/data/no&#45;copies/src/listener.js -->
<g id="edge3" class="edge">
<title>refactoring/exercises/data/no&#45;copies/src/init.js&#45;&gt;refactoring/exercises/data/no&#45;copies/src/listener.js</title>
<path fill="none" stroke="#000000" stroke-width="2" stroke-opacity="0.200000" d="M102.06,-88C104.32,-88 106.61,-88 108.9,-88"/>
<polygon fill="#000000" fill-opacity="0.200000" stroke="#000000" stroke-width="2" stroke-opacity="0.200000" points="108.93,-90.1 114.93,-88 108.93,-85.9 108.93,-90.1"/>
</g>
<!-- refactoring/exercises/data/no&#45;copies/src/listener.js&#45;&gt;refactoring/exercises/data/no&#45;copies/src/handler.js -->
<g id="edge4" class="edge">
<title>refactoring/exercises/data/no&#45;copies/src/listener.js&#45;&gt;refactoring/exercises/data/no&#45;copies/src/handler.js</title>
<path fill="none" stroke="#000000" stroke-width="2" stroke-opacity="0.200000" d="M169.25,-88C173.06,-88 177.01,-88 180.92,-88"/>
<polygon fill="#000000" fill-opacity="0.200000" stroke="#000000" stroke-width="2" stroke-opacity="0.200000" points="180.99,-90.1 186.99,-88 180.99,-85.9 180.99,-90.1"/>
</g>
<!-- refactoring/exercises/data/no&#45;copies/src/logic.spec.js -->
<g id="node6" class="node">
<title>refactoring/exercises/data/no&#45;copies/src/logic.spec.js</title>
<g id="a_node6"><a xlink:href="refactoring/exercises/data/no-copies/src/logic.spec.js" xlink:title="logic.spec.js">
<path fill="#ffffcc" stroke="black" d="M240.81,-66.3C240.81,-66.3 188.2,-66.3 188.2,-66.3 185.1,-66.3 182,-63.2 182,-60.1 182,-60.1 182,-53.9 182,-53.9 182,-50.8 185.1,-47.7 188.2,-47.7 188.2,-47.7 240.81,-47.7 240.81,-47.7 243.91,-47.7 247.01,-50.8 247.01,-53.9 247.01,-53.9 247.01,-60.1 247.01,-60.1 247.01,-63.2 243.91,-66.3 240.81,-66.3"/>
<text text-anchor="middle" x="214.5" y="-54.3" font-family="Helvetica,sans-Serif" font-size="9.00">logic.spec.js</text>
</a>
</g>
</g>
<!-- refactoring/exercises/data/no&#45;copies/src/logic.spec.js&#45;&gt;refactoring/exercises/data/no&#45;copies/src/logic.js -->
<g id="edge6" class="edge">
<title>refactoring/exercises/data/no&#45;copies/src/logic.spec.js&#45;&gt;refactoring/exercises/data/no&#45;copies/src/logic.js</title>
<path fill="none" stroke="#000000" stroke-width="2" stroke-opacity="0.200000" d="M247.04,-61.03C249.17,-61.3 251.31,-61.57 253.45,-61.84"/>
<polygon fill="#000000" fill-opacity="0.200000" stroke="#000000" stroke-width="2" stroke-opacity="0.200000" points="253.55,-63.97 259.77,-62.65 254.08,-59.81 253.55,-63.97"/>
</g>
</g>
</svg>
