<?xml version="1.0" encoding="UTF-8" standalone="no"?>
<!DOCTYPE svg PUBLIC "-//W3C//DTD SVG 1.1//EN"
 "http://www.w3.org/Graphics/SVG/1.1/DTD/svg11.dtd">
<!-- Generated by graphviz version 2.44.0 (20200408.0750)
 -->
<!-- Title: dependency&#45;cruiser output Pages: 1 -->
<svg width="158pt" height="304pt"
 viewBox="0.00 0.00 158.00 304.00" xmlns="http://www.w3.org/2000/svg" xmlns:xlink="http://www.w3.org/1999/xlink">
<g id="graph0" class="graph" transform="scale(1 1) rotate(0) translate(4 300)">
<title>dependency&#45;cruiser output</title>
<polygon fill="white" stroke="transparent" points="-4,4 -4,-300 154,-300 154,4 -4,4"/>
<g id="clust1" class="cluster">
<title>cluster_reverse&#45;engineering</title>
<path fill="#ffffff" stroke="black" stroke-width="2" d="M20,-8C20,-8 130,-8 130,-8 136,-8 142,-14 142,-20 142,-20 142,-276 142,-276 142,-282 136,-288 130,-288 130,-288 20,-288 20,-288 14,-288 8,-282 8,-276 8,-276 8,-20 8,-20 8,-14 14,-8 20,-8"/>
<text text-anchor="middle" x="75" y="-275.9" font-family="Helvetica,sans-Serif" font-weight="bold" font-size="9.00">reverse&#45;engineering</text>
</g>
<g id="clust2" class="cluster">
<title>cluster_reverse&#45;engineering/level&#45;4</title>
<path fill="#ffffff" stroke="black" stroke-width="2" d="M28,-16C28,-16 122,-16 122,-16 128,-16 134,-22 134,-28 134,-28 134,-249 134,-249 134,-255 128,-261 122,-261 122,-261 28,-261 28,-261 22,-261 16,-255 16,-249 16,-249 16,-28 16,-28 16,-22 22,-16 28,-16"/>
<text text-anchor="middle" x="75" y="-248.9" font-family="Helvetica,sans-Serif" font-weight="bold" font-size="9.00">level&#45;4</text>
</g>
<g id="clust3" class="cluster">
<title>cluster_reverse&#45;engineering/level&#45;4/memory&#45;game</title>
<path fill="#ffffff" stroke="black" stroke-width="2" d="M36,-24C36,-24 114,-24 114,-24 120,-24 126,-30 126,-36 126,-36 126,-222 126,-222 126,-228 120,-234 114,-234 114,-234 36,-234 36,-234 30,-234 24,-228 24,-222 24,-222 24,-36 24,-36 24,-30 30,-24 36,-24"/>
<text text-anchor="middle" x="75" y="-221.9" font-family="Helvetica,sans-Serif" font-weight="bold" font-size="9.00">memory&#45;game</text>
</g>
<g id="clust4" class="cluster">
<title>cluster_reverse&#45;engineering/level&#45;4/memory&#45;game/src</title>
<path fill="#ffffff" stroke="black" stroke-width="2" d="M44,-32C44,-32 106,-32 106,-32 112,-32 118,-38 118,-44 118,-44 118,-195 118,-195 118,-201 112,-207 106,-207 106,-207 44,-207 44,-207 38,-207 32,-201 32,-195 32,-195 32,-44 32,-44 32,-38 38,-32 44,-32"/>
<text text-anchor="middle" x="75" y="-194.9" font-family="Helvetica,sans-Serif" font-weight="bold" font-size="9.00">src</text>
</g>
<g id="clust5" class="cluster">
<title>cluster_reverse&#45;engineering/level&#45;4/memory&#45;game/src/components</title>
<path fill="#ffffff" stroke="black" stroke-width="2" d="M52,-127C52,-127 98,-127 98,-127 104,-127 110,-133 110,-139 110,-139 110,-168 110,-168 110,-174 104,-180 98,-180 98,-180 52,-180 52,-180 46,-180 40,-174 40,-168 40,-168 40,-139 40,-139 40,-133 46,-127 52,-127"/>
<text text-anchor="middle" x="75" y="-167.9" font-family="Helvetica,sans-Serif" font-weight="bold" font-size="9.00">components</text>
</g>
<g id="clust6" class="cluster">
<title>cluster_reverse&#45;engineering/level&#45;4/memory&#45;game/src/init</title>
<path fill="#ffffff" stroke="black" stroke-width="2" d="M52,-66C52,-66 98,-66 98,-66 104,-66 110,-72 110,-78 110,-78 110,-107 110,-107 110,-113 104,-119 98,-119 98,-119 52,-119 52,-119 46,-119 40,-113 40,-107 40,-107 40,-78 40,-78 40,-72 46,-66 52,-66"/>
<text text-anchor="middle" x="75" y="-106.9" font-family="Helvetica,sans-Serif" font-weight="bold" font-size="9.00">init</text>
</g>
<!-- reverse&#45;engineering/level&#45;4/memory&#45;game/src/components/board.js -->
<g id="node1" class="node">
<title>reverse&#45;engineering/level&#45;4/memory&#45;game/src/components/board.js</title>
<g id="a_node1"><a xlink:href="reverse-engineering/level-4/memory-game/src/components/board.js" xlink:title="board.js">
<path fill="#ccffcc" stroke="black" d="M95.8,-153.3C95.8,-153.3 54.2,-153.3 54.2,-153.3 51.1,-153.3 48,-150.2 48,-147.1 48,-147.1 48,-140.9 48,-140.9 48,-137.8 51.1,-134.7 54.2,-134.7 54.2,-134.7 95.8,-134.7 95.8,-134.7 98.9,-134.7 102,-137.8 102,-140.9 102,-140.9 102,-147.1 102,-147.1 102,-150.2 98.9,-153.3 95.8,-153.3"/>
<text text-anchor="middle" x="75" y="-141.3" font-family="Helvetica,sans-Serif" font-size="9.00">board.js</text>
</a>
</g>
</g>
<!-- reverse&#45;engineering/level&#45;4/memory&#45;game/src/data.js -->
<g id="node2" class="node">
<title>reverse&#45;engineering/level&#45;4/memory&#45;game/src/data.js</title>
<g id="a_node2"><a xlink:href="reverse-engineering/level-4/memory-game/src/data.js" xlink:title="data.js">
<path fill="#ccffcc" stroke="black" d="M95.8,-58.3C95.8,-58.3 54.2,-58.3 54.2,-58.3 51.1,-58.3 48,-55.2 48,-52.1 48,-52.1 48,-45.9 48,-45.9 48,-42.8 51.1,-39.7 54.2,-39.7 54.2,-39.7 95.8,-39.7 95.8,-39.7 98.9,-39.7 102,-42.8 102,-45.9 102,-45.9 102,-52.1 102,-52.1 102,-55.2 98.9,-58.3 95.8,-58.3"/>
<text text-anchor="middle" x="75" y="-46.3" font-family="Helvetica,sans-Serif" font-size="9.00">data.js</text>
</a>
</g>
</g>
<!-- reverse&#45;engineering/level&#45;4/memory&#45;game/src/init/index.js -->
<g id="node3" class="node">
<title>reverse&#45;engineering/level&#45;4/memory&#45;game/src/init/index.js</title>
<g id="a_node3"><a xlink:href="reverse-engineering/level-4/memory-game/src/init/index.js" xlink:title="index.js">
<path fill="#ccffcc" stroke="black" d="M95.8,-92.3C95.8,-92.3 54.2,-92.3 54.2,-92.3 51.1,-92.3 48,-89.2 48,-86.1 48,-86.1 48,-79.9 48,-79.9 48,-76.8 51.1,-73.7 54.2,-73.7 54.2,-73.7 95.8,-73.7 95.8,-73.7 98.9,-73.7 102,-76.8 102,-79.9 102,-79.9 102,-86.1 102,-86.1 102,-89.2 98.9,-92.3 95.8,-92.3"/>
<text text-anchor="middle" x="75" y="-80.3" font-family="Helvetica,sans-Serif" font-size="9.00">index.js</text>
</a>
</g>
</g>
</g>
</svg>
