<?xml version="1.0" encoding="UTF-8" standalone="no"?>
<!DOCTYPE svg PUBLIC "-//W3C//DTD SVG 1.1//EN"
 "http://www.w3.org/Graphics/SVG/1.1/DTD/svg11.dtd">
<!-- Generated by graphviz version 2.44.0 (20200408.0750)
 -->
<!-- Title: dependency&#45;cruiser output Pages: 1 -->
<svg width="241pt" height="304pt"
 viewBox="0.00 0.00 240.51 304.00" xmlns="http://www.w3.org/2000/svg" xmlns:xlink="http://www.w3.org/1999/xlink">
<g id="graph0" class="graph" transform="scale(1 1) rotate(0) translate(4 300)">
<title>dependency&#45;cruiser output</title>
<polygon fill="white" stroke="transparent" points="-4,4 -4,-300 236.51,-300 236.51,4 -4,4"/>
<g id="clust1" class="cluster">
<title>cluster_reverse&#45;engineering</title>
<path fill="#ffffff" stroke="black" stroke-width="2" d="M20,-8C20,-8 212.51,-8 212.51,-8 218.51,-8 224.51,-14 224.51,-20 224.51,-20 224.51,-276 224.51,-276 224.51,-282 218.51,-288 212.51,-288 212.51,-288 20,-288 20,-288 14,-288 8,-282 8,-276 8,-276 8,-20 8,-20 8,-14 14,-8 20,-8"/>
<text text-anchor="middle" x="116.26" y="-275.9" font-family="Helvetica,sans-Serif" font-weight="bold" font-size="9.00">reverse&#45;engineering</text>
</g>
<g id="clust2" class="cluster">
<title>cluster_reverse&#45;engineering/level&#45;3</title>
<path fill="#ffffff" stroke="black" stroke-width="2" d="M28,-16C28,-16 204.51,-16 204.51,-16 210.51,-16 216.51,-22 216.51,-28 216.51,-28 216.51,-249 216.51,-249 216.51,-255 210.51,-261 204.51,-261 204.51,-261 28,-261 28,-261 22,-261 16,-255 16,-249 16,-249 16,-28 16,-28 16,-22 22,-16 28,-16"/>
<text text-anchor="middle" x="116.26" y="-248.9" font-family="Helvetica,sans-Serif" font-weight="bold" font-size="9.00">level&#45;3</text>
</g>
<g id="clust3" class="cluster">
<title>cluster_reverse&#45;engineering/level&#45;3/memory&#45;game</title>
<path fill="#ffffff" stroke="black" stroke-width="2" d="M36,-24C36,-24 196.51,-24 196.51,-24 202.51,-24 208.51,-30 208.51,-36 208.51,-36 208.51,-222 208.51,-222 208.51,-228 202.51,-234 196.51,-234 196.51,-234 36,-234 36,-234 30,-234 24,-228 24,-222 24,-222 24,-36 24,-36 24,-30 30,-24 36,-24"/>
<text text-anchor="middle" x="116.26" y="-221.9" font-family="Helvetica,sans-Serif" font-weight="bold" font-size="9.00">memory&#45;game</text>
</g>
<g id="clust4" class="cluster">
<title>cluster_reverse&#45;engineering/level&#45;3/memory&#45;game/src</title>
<path fill="#ffffff" stroke="black" stroke-width="2" d="M44,-32C44,-32 188.51,-32 188.51,-32 194.51,-32 200.51,-38 200.51,-44 200.51,-44 200.51,-195 200.51,-195 200.51,-201 194.51,-207 188.51,-207 188.51,-207 44,-207 44,-207 38,-207 32,-201 32,-195 32,-195 32,-44 32,-44 32,-38 38,-32 44,-32"/>
<text text-anchor="middle" x="116.26" y="-194.9" font-family="Helvetica,sans-Serif" font-weight="bold" font-size="9.00">src</text>
</g>
<g id="clust5" class="cluster">
<title>cluster_reverse&#45;engineering/level&#45;3/memory&#45;game/src/components</title>
<path fill="#ffffff" stroke="black" stroke-width="2" d="M52,-127C52,-127 180.51,-127 180.51,-127 186.51,-127 192.51,-133 192.51,-139 192.51,-139 192.51,-168 192.51,-168 192.51,-174 186.51,-180 180.51,-180 180.51,-180 52,-180 52,-180 46,-180 40,-174 40,-168 40,-168 40,-139 40,-139 40,-133 46,-127 52,-127"/>
<text text-anchor="middle" x="116.26" y="-167.9" font-family="Helvetica,sans-Serif" font-weight="bold" font-size="9.00">components</text>
</g>
<g id="clust6" class="cluster">
<title>cluster_reverse&#45;engineering/level&#45;3/memory&#45;game/src/init</title>
<path fill="#ffffff" stroke="black" stroke-width="2" d="M59.76,-66C59.76,-66 105.76,-66 105.76,-66 111.76,-66 117.76,-72 117.76,-78 117.76,-78 117.76,-107 117.76,-107 117.76,-113 111.76,-119 105.76,-119 105.76,-119 59.76,-119 59.76,-119 53.76,-119 47.76,-113 47.76,-107 47.76,-107 47.76,-78 47.76,-78 47.76,-72 53.76,-66 59.76,-66"/>
<text text-anchor="middle" x="82.76" y="-106.9" font-family="Helvetica,sans-Serif" font-weight="bold" font-size="9.00">init</text>
</g>
<!-- reverse&#45;engineering/level&#45;3/memory&#45;game/src/components/board.js -->
<g id="node1" class="node">
<title>reverse&#45;engineering/level&#45;3/memory&#45;game/src/components/board.js</title>
<g id="a_node1"><a xlink:href="reverse-engineering/level-3/memory-game/src/components/board.js" xlink:title="board.js">
<path fill="#ffffcc" stroke="black" d="M178.31,-153.3C178.31,-153.3 136.71,-153.3 136.71,-153.3 133.61,-153.3 130.51,-150.2 130.51,-147.1 130.51,-147.1 130.51,-140.9 130.51,-140.9 130.51,-137.8 133.61,-134.7 136.71,-134.7 136.71,-134.7 178.31,-134.7 178.31,-134.7 181.41,-134.7 184.51,-137.8 184.51,-140.9 184.51,-140.9 184.51,-147.1 184.51,-147.1 184.51,-150.2 181.41,-153.3 178.31,-153.3"/>
<text text-anchor="middle" x="157.51" y="-141.3" font-family="Helvetica,sans-Serif" font-size="9.00">board.js</text>
</a>
</g>
</g>
<!-- reverse&#45;engineering/level&#45;3/memory&#45;game/src/components/board.spec.js -->
<g id="node2" class="node">
<title>reverse&#45;engineering/level&#45;3/memory&#45;game/src/components/board.spec.js</title>
<g id="a_node2"><a xlink:href="reverse-engineering/level-3/memory-game/src/components/board.spec.js" xlink:title="board.spec.js">
<path fill="#ffffcc" stroke="black" d="M111.07,-153.3C111.07,-153.3 54.44,-153.3 54.44,-153.3 51.34,-153.3 48.24,-150.2 48.24,-147.1 48.24,-147.1 48.24,-140.9 48.24,-140.9 48.24,-137.8 51.34,-134.7 54.44,-134.7 54.44,-134.7 111.07,-134.7 111.07,-134.7 114.17,-134.7 117.27,-137.8 117.27,-140.9 117.27,-140.9 117.27,-147.1 117.27,-147.1 117.27,-150.2 114.17,-153.3 111.07,-153.3"/>
<text text-anchor="middle" x="82.76" y="-141.3" font-family="Helvetica,sans-Serif" font-size="9.00">board.spec.js</text>
</a>
</g>
</g>
<!-- reverse&#45;engineering/level&#45;3/memory&#45;game/src/components/board.spec.js&#45;&gt;reverse&#45;engineering/level&#45;3/memory&#45;game/src/components/board.js -->
<g id="edge1" class="edge">
<title>reverse&#45;engineering/level&#45;3/memory&#45;game/src/components/board.spec.js&#45;&gt;reverse&#45;engineering/level&#45;3/memory&#45;game/src/components/board.js</title>
<path fill="none" stroke="#000000" stroke-width="2" stroke-opacity="0.200000" d="M117.58,-144C119.73,-144 121.9,-144 124.04,-144"/>
<polygon fill="#000000" fill-opacity="0.200000" stroke="#000000" stroke-width="2" stroke-opacity="0.200000" points="124.39,-146.1 130.39,-144 124.39,-141.9 124.39,-146.1"/>
</g>
<!-- reverse&#45;engineering/level&#45;3/memory&#45;game/src/data.js -->
<g id="node3" class="node">
<title>reverse&#45;engineering/level&#45;3/memory&#45;game/src/data.js</title>
<g id="a_node3"><a xlink:href="reverse-engineering/level-3/memory-game/src/data.js" xlink:title="data.js">
<path fill="#ccffcc" stroke="black" d="M103.56,-58.3C103.56,-58.3 61.96,-58.3 61.96,-58.3 58.86,-58.3 55.76,-55.2 55.76,-52.1 55.76,-52.1 55.76,-45.9 55.76,-45.9 55.76,-42.8 58.86,-39.7 61.96,-39.7 61.96,-39.7 103.56,-39.7 103.56,-39.7 106.66,-39.7 109.76,-42.8 109.76,-45.9 109.76,-45.9 109.76,-52.1 109.76,-52.1 109.76,-55.2 106.66,-58.3 103.56,-58.3"/>
<text text-anchor="middle" x="82.76" y="-46.3" font-family="Helvetica,sans-Serif" font-size="9.00">data.js</text>
</a>
</g>
</g>
<!-- reverse&#45;engineering/level&#45;3/memory&#45;game/src/init/index.js -->
<g id="node4" class="node">
<title>reverse&#45;engineering/level&#45;3/memory&#45;game/src/init/index.js</title>
<g id="a_node4"><a xlink:href="reverse-engineering/level-3/memory-game/src/init/index.js" xlink:title="index.js">
<path fill="#ccffcc" stroke="black" d="M103.56,-92.3C103.56,-92.3 61.96,-92.3 61.96,-92.3 58.86,-92.3 55.76,-89.2 55.76,-86.1 55.76,-86.1 55.76,-79.9 55.76,-79.9 55.76,-76.8 58.86,-73.7 61.96,-73.7 61.96,-73.7 103.56,-73.7 103.56,-73.7 106.66,-73.7 109.76,-76.8 109.76,-79.9 109.76,-79.9 109.76,-86.1 109.76,-86.1 109.76,-89.2 106.66,-92.3 103.56,-92.3"/>
<text text-anchor="middle" x="82.76" y="-80.3" font-family="Helvetica,sans-Serif" font-size="9.00">index.js</text>
</a>
</g>
</g>
</g>
</svg>
