<?xml version="1.0" encoding="UTF-8" standalone="no"?>
<!DOCTYPE svg PUBLIC "-//W3C//DTD SVG 1.1//EN"
 "http://www.w3.org/Graphics/SVG/1.1/DTD/svg11.dtd">
<!-- Generated by graphviz version 2.44.0 (20200408.0750)
 -->
<!-- Title: dependency&#45;cruiser output Pages: 1 -->
<svg width="475pt" height="366pt"
 viewBox="0.00 0.00 475.49 366.00" xmlns="http://www.w3.org/2000/svg" xmlns:xlink="http://www.w3.org/1999/xlink">
<g id="graph0" class="graph" transform="scale(1 1) rotate(0) translate(4 362)">
<title>dependency&#45;cruiser output</title>
<polygon fill="white" stroke="transparent" points="-4,4 -4,-362 471.49,-362 471.49,4 -4,4"/>
<g id="clust1" class="cluster">
<title>cluster_lib</title>
<path fill="#ffffff" stroke="black" stroke-width="2" d="M299.98,-8C299.98,-8 447.49,-8 447.49,-8 453.49,-8 459.49,-14 459.49,-20 459.49,-20 459.49,-49 459.49,-49 459.49,-55 453.49,-61 447.49,-61 447.49,-61 299.98,-61 299.98,-61 293.98,-61 287.98,-55 287.98,-49 287.98,-49 287.98,-20 287.98,-20 287.98,-14 293.98,-8 299.98,-8"/>
<text text-anchor="middle" x="373.74" y="-48.9" font-family="Helvetica,sans-Serif" font-weight="bold" font-size="9.00">lib</text>
</g>
<g id="clust2" class="cluster">
<title>cluster_separated</title>
<path fill="#ffffff" stroke="black" stroke-width="2" d="M20,-69C20,-69 361.98,-69 361.98,-69 367.98,-69 373.98,-75 373.98,-81 373.98,-81 373.98,-338 373.98,-338 373.98,-344 367.98,-350 361.98,-350 361.98,-350 20,-350 20,-350 14,-350 8,-344 8,-338 8,-338 8,-81 8,-81 8,-75 14,-69 20,-69"/>
<text text-anchor="middle" x="190.99" y="-337.9" font-family="Helvetica,sans-Serif" font-weight="bold" font-size="9.00">separated</text>
</g>
<g id="clust3" class="cluster">
<title>cluster_separated/filter&#45;words</title>
<path fill="#ffffff" stroke="black" stroke-width="2" d="M28,-77C28,-77 353.98,-77 353.98,-77 359.98,-77 365.98,-83 365.98,-89 365.98,-89 365.98,-311 365.98,-311 365.98,-317 359.98,-323 353.98,-323 353.98,-323 28,-323 28,-323 22,-323 16,-317 16,-311 16,-311 16,-89 16,-89 16,-83 22,-77 28,-77"/>
<text text-anchor="middle" x="190.99" y="-310.9" font-family="Helvetica,sans-Serif" font-weight="bold" font-size="9.00">filter&#45;words</text>
</g>
<g id="clust4" class="cluster">
<title>cluster_separated/filter&#45;words/src</title>
<path fill="#ffffff" stroke="black" stroke-width="2" d="M36,-85C36,-85 345.98,-85 345.98,-85 351.98,-85 357.98,-91 357.98,-97 357.98,-97 357.98,-284 357.98,-284 357.98,-290 351.98,-296 345.98,-296 345.98,-296 36,-296 36,-296 30,-296 24,-290 24,-284 24,-284 24,-97 24,-97 24,-91 30,-85 36,-85"/>
<text text-anchor="middle" x="190.99" y="-283.9" font-family="Helvetica,sans-Serif" font-weight="bold" font-size="9.00">src</text>
</g>
<g id="clust5" class="cluster">
<title>cluster_separated/filter&#45;words/src/handlers</title>
<path fill="#ffffff" stroke="black" stroke-width="2" d="M206.99,-93C206.99,-93 267.98,-93 267.98,-93 273.98,-93 279.98,-99 279.98,-105 279.98,-105 279.98,-196 279.98,-196 279.98,-202 273.98,-208 267.98,-208 267.98,-208 206.99,-208 206.99,-208 200.99,-208 194.99,-202 194.99,-196 194.99,-196 194.99,-105 194.99,-105 194.99,-99 200.99,-93 206.99,-93"/>
<text text-anchor="middle" x="237.48" y="-195.9" font-family="Helvetica,sans-Serif" font-weight="bold" font-size="9.00">handlers</text>
</g>
<g id="clust6" class="cluster">
<title>cluster_separated/filter&#45;words/src/init</title>
<path fill="#ffffff" stroke="black" stroke-width="2" d="M44,-216C44,-216 170.25,-216 170.25,-216 176.25,-216 182.25,-222 182.25,-228 182.25,-228 182.25,-257 182.25,-257 182.25,-263 176.25,-269 170.25,-269 170.25,-269 44,-269 44,-269 38,-269 32,-263 32,-257 32,-257 32,-228 32,-228 32,-222 38,-216 44,-216"/>
<text text-anchor="middle" x="107.12" y="-256.9" font-family="Helvetica,sans-Serif" font-weight="bold" font-size="9.00">init</text>
</g>
<g id="clust7" class="cluster">
<title>cluster_separated/filter&#45;words/src/listeners</title>
<path fill="#ffffff" stroke="black" stroke-width="2" d="M114,-93C114,-93 174.99,-93 174.99,-93 180.99,-93 186.99,-99 186.99,-105 186.99,-105 186.99,-196 186.99,-196 186.99,-202 180.99,-208 174.99,-208 174.99,-208 114,-208 114,-208 108,-208 102,-202 102,-196 102,-196 102,-105 102,-105 102,-99 108,-93 114,-93"/>
<text text-anchor="middle" x="144.49" y="-195.9" font-family="Helvetica,sans-Serif" font-weight="bold" font-size="9.00">listeners</text>
</g>
<!-- lib/deep&#45;clone.js -->
<g id="node1" class="node">
<title>lib/deep&#45;clone.js</title>
<g id="a_node1"><a xlink:href="lib/deep-clone.js" xlink:title="deep&#45;clone.js">
<path fill="#ffffcc" stroke="black" d="M445.05,-34.3C445.05,-34.3 388.42,-34.3 388.42,-34.3 385.32,-34.3 382.22,-31.2 382.22,-28.1 382.22,-28.1 382.22,-21.9 382.22,-21.9 382.22,-18.8 385.32,-15.7 388.42,-15.7 388.42,-15.7 445.05,-15.7 445.05,-15.7 448.15,-15.7 451.25,-18.8 451.25,-21.9 451.25,-21.9 451.25,-28.1 451.25,-28.1 451.25,-31.2 448.15,-34.3 445.05,-34.3"/>
<text text-anchor="middle" x="416.74" y="-22.3" font-family="Helvetica,sans-Serif" font-size="9.00">deep&#45;clone.js</text>
</a>
</g>
</g>
<!-- lib/logger.js -->
<g id="node2" class="node">
<title>lib/logger.js</title>
<g id="a_node2"><a xlink:href="lib/logger.js" xlink:title="logger.js">
<path fill="#ffffcc" stroke="black" d="M343.78,-34.3C343.78,-34.3 302.18,-34.3 302.18,-34.3 299.08,-34.3 295.98,-31.2 295.98,-28.1 295.98,-28.1 295.98,-21.9 295.98,-21.9 295.98,-18.8 299.08,-15.7 302.18,-15.7 302.18,-15.7 343.78,-15.7 343.78,-15.7 346.88,-15.7 349.98,-18.8 349.98,-21.9 349.98,-21.9 349.98,-28.1 349.98,-28.1 349.98,-31.2 346.88,-34.3 343.78,-34.3"/>
<text text-anchor="middle" x="322.98" y="-22.3" font-family="Helvetica,sans-Serif" font-size="9.00">logger.js</text>
</a>
</g>
</g>
<!-- lib/logger.js&#45;&gt;lib/deep&#45;clone.js -->
<g id="edge1" class="edge">
<title>lib/logger.js&#45;&gt;lib/deep&#45;clone.js</title>
<path fill="none" stroke="#000000" stroke-width="2" stroke-opacity="0.200000" d="M350.03,-25C358.12,-25 367.23,-25 376.04,-25"/>
<polygon fill="#000000" fill-opacity="0.200000" stroke="#000000" stroke-width="2" stroke-opacity="0.200000" points="376.07,-27.1 382.07,-25 376.06,-22.9 376.07,-27.1"/>
</g>
<!-- separated/filter&#45;words/src/data.js -->
<g id="node3" class="node">
<title>separated/filter&#45;words/src/data.js</title>
<g id="a_node3"><a xlink:href="separated/filter-words/src/data.js" xlink:title="data.js">
<path fill="#ffffcc" stroke="black" d="M343.78,-165.3C343.78,-165.3 302.18,-165.3 302.18,-165.3 299.08,-165.3 295.98,-162.2 295.98,-159.1 295.98,-159.1 295.98,-152.9 295.98,-152.9 295.98,-149.8 299.08,-146.7 302.18,-146.7 302.18,-146.7 343.78,-146.7 343.78,-146.7 346.88,-146.7 349.98,-149.8 349.98,-152.9 349.98,-152.9 349.98,-159.1 349.98,-159.1 349.98,-162.2 346.88,-165.3 343.78,-165.3"/>
<text text-anchor="middle" x="322.98" y="-153.3" font-family="Helvetica,sans-Serif" font-size="9.00">data.js</text>
</a>
</g>
</g>
<!-- separated/filter&#45;words/src/handlers/add&#45;word.js -->
<g id="node4" class="node">
<title>separated/filter&#45;words/src/handlers/add&#45;word.js</title>
<g id="a_node4"><a xlink:href="separated/filter-words/src/handlers/add-word.js" xlink:title="add&#45;word.js">
<path fill="#ffffcc" stroke="black" d="M262.29,-181.3C262.29,-181.3 212.68,-181.3 212.68,-181.3 209.58,-181.3 206.48,-178.2 206.48,-175.1 206.48,-175.1 206.48,-168.9 206.48,-168.9 206.48,-165.8 209.58,-162.7 212.68,-162.7 212.68,-162.7 262.29,-162.7 262.29,-162.7 265.39,-162.7 268.49,-165.8 268.49,-168.9 268.49,-168.9 268.49,-175.1 268.49,-175.1 268.49,-178.2 265.39,-181.3 262.29,-181.3"/>
<text text-anchor="middle" x="237.48" y="-169.3" font-family="Helvetica,sans-Serif" font-size="9.00">add&#45;word.js</text>
</a>
</g>
</g>
<!-- separated/filter&#45;words/src/handlers/add&#45;word.js&#45;&gt;lib/logger.js -->
<g id="edge2" class="edge">
<title>separated/filter&#45;words/src/handlers/add&#45;word.js&#45;&gt;lib/logger.js</title>
<path fill="none" stroke="#000000" stroke-width="2" stroke-opacity="0.200000" d="M268.83,-164.9C273.12,-162.69 277.06,-159.8 279.98,-156 290.06,-142.89 282.73,-97.69 287.98,-82 293.19,-66.41 303.15,-50.5 310.95,-39.46"/>
<polygon fill="#000000" fill-opacity="0.200000" stroke="#000000" stroke-width="2" stroke-opacity="0.200000" points="312.76,-40.55 314.58,-34.46 309.36,-38.08 312.76,-40.55"/>
</g>
<!-- separated/filter&#45;words/src/handlers/add&#45;word.js&#45;&gt;separated/filter&#45;words/src/data.js -->
<g id="edge3" class="edge">
<title>separated/filter&#45;words/src/handlers/add&#45;word.js&#45;&gt;separated/filter&#45;words/src/data.js</title>
<path fill="none" stroke="#000000" stroke-width="2" stroke-opacity="0.200000" d="M268.63,-166.22C275.42,-164.92 282.66,-163.53 289.55,-162.21"/>
<polygon fill="#000000" fill-opacity="0.200000" stroke="#000000" stroke-width="2" stroke-opacity="0.200000" points="290.25,-164.22 295.75,-161.03 289.46,-160.09 290.25,-164.22"/>
</g>
<!-- separated/filter&#45;words/src/handlers/filter&#45;words.js -->
<g id="node5" class="node">
<title>separated/filter&#45;words/src/handlers/filter&#45;words.js</title>
<g id="a_node5"><a xlink:href="separated/filter-words/src/handlers/filter-words.js" xlink:title="filter&#45;words.js">
<path fill="#ffffcc" stroke="black" d="M265.77,-150.3C265.77,-150.3 209.2,-150.3 209.2,-150.3 206.1,-150.3 202.99,-147.2 202.99,-144.1 202.99,-144.1 202.99,-137.9 202.99,-137.9 202.99,-134.8 206.1,-131.7 209.2,-131.7 209.2,-131.7 265.77,-131.7 265.77,-131.7 268.87,-131.7 271.97,-134.8 271.97,-137.9 271.97,-137.9 271.97,-144.1 271.97,-144.1 271.97,-147.2 268.87,-150.3 265.77,-150.3"/>
<text text-anchor="middle" x="237.48" y="-138.3" font-family="Helvetica,sans-Serif" font-size="9.00">filter&#45;words.js</text>
</a>
</g>
</g>
<!-- separated/filter&#45;words/src/handlers/filter&#45;words.js&#45;&gt;lib/logger.js -->
<g id="edge4" class="edge">
<title>separated/filter&#45;words/src/handlers/filter&#45;words.js&#45;&gt;lib/logger.js</title>
<path fill="none" stroke="#000000" stroke-width="2" stroke-opacity="0.200000" d="M272.26,-131.63C275.16,-129.8 277.81,-127.61 279.98,-125 292.4,-110.05 281.11,-100.19 287.98,-82 293.78,-66.62 303.68,-50.68 311.3,-39.58"/>
<polygon fill="#000000" fill-opacity="0.200000" stroke="#000000" stroke-width="2" stroke-opacity="0.200000" points="313.11,-40.66 314.83,-34.55 309.67,-38.25 313.11,-40.66"/>
</g>
<!-- separated/filter&#45;words/src/handlers/filter&#45;words.js&#45;&gt;separated/filter&#45;words/src/data.js -->
<g id="edge5" class="edge">
<title>separated/filter&#45;words/src/handlers/filter&#45;words.js&#45;&gt;separated/filter&#45;words/src/data.js</title>
<path fill="none" stroke="#000000" stroke-width="2" stroke-opacity="0.200000" d="M272.44,-147.1C278.15,-148.13 284.05,-149.19 289.71,-150.2"/>
<polygon fill="#000000" fill-opacity="0.200000" stroke="#000000" stroke-width="2" stroke-opacity="0.200000" points="289.46,-152.29 295.73,-151.28 290.2,-148.16 289.46,-152.29"/>
</g>
<!-- separated/filter&#45;words/src/handlers/reset.js -->
<g id="node6" class="node">
<title>separated/filter&#45;words/src/handlers/reset.js</title>
<g id="a_node6"><a xlink:href="separated/filter-words/src/handlers/reset.js" xlink:title="reset.js">
<path fill="#ffffcc" stroke="black" d="M258.28,-119.3C258.28,-119.3 216.68,-119.3 216.68,-119.3 213.58,-119.3 210.48,-116.2 210.48,-113.1 210.48,-113.1 210.48,-106.9 210.48,-106.9 210.48,-103.8 213.58,-100.7 216.68,-100.7 216.68,-100.7 258.28,-100.7 258.28,-100.7 261.38,-100.7 264.48,-103.8 264.48,-106.9 264.48,-106.9 264.48,-113.1 264.48,-113.1 264.48,-116.2 261.38,-119.3 258.28,-119.3"/>
<text text-anchor="middle" x="237.48" y="-107.3" font-family="Helvetica,sans-Serif" font-size="9.00">reset.js</text>
</a>
</g>
</g>
<!-- separated/filter&#45;words/src/handlers/reset.js&#45;&gt;lib/logger.js -->
<g id="edge6" class="edge">
<title>separated/filter&#45;words/src/handlers/reset.js&#45;&gt;lib/logger.js</title>
<path fill="none" stroke="#000000" stroke-width="2" stroke-opacity="0.200000" d="M247.74,-100.58C262.41,-85.64 291.09,-56.45 308.19,-39.04"/>
<polygon fill="#000000" fill-opacity="0.200000" stroke="#000000" stroke-width="2" stroke-opacity="0.200000" points="309.98,-40.22 312.68,-34.46 306.98,-37.27 309.98,-40.22"/>
</g>
<!-- separated/filter&#45;words/src/handlers/reset.js&#45;&gt;separated/filter&#45;words/src/data.js -->
<g id="edge7" class="edge">
<title>separated/filter&#45;words/src/handlers/reset.js&#45;&gt;separated/filter&#45;words/src/data.js</title>
<path fill="none" stroke="#000000" stroke-width="2" stroke-opacity="0.200000" d="M264.83,-119.01C269.96,-121.08 275.22,-123.44 279.98,-126 288.82,-130.77 297.98,-137.11 305.47,-142.74"/>
<polygon fill="#000000" fill-opacity="0.200000" stroke="#000000" stroke-width="2" stroke-opacity="0.200000" points="304.33,-144.51 310.37,-146.49 306.89,-141.18 304.33,-144.51"/>
</g>
<!-- separated/filter&#45;words/src/init/index.js -->
<g id="node7" class="node">
<title>separated/filter&#45;words/src/init/index.js</title>
<g id="a_node7"><a xlink:href="separated/filter-words/src/init/index.js" xlink:title="index.js">
<path fill="#ffffcc" stroke="black" d="M87.8,-242.3C87.8,-242.3 46.2,-242.3 46.2,-242.3 43.1,-242.3 40,-239.2 40,-236.1 40,-236.1 40,-229.9 40,-229.9 40,-226.8 43.1,-223.7 46.2,-223.7 46.2,-223.7 87.8,-223.7 87.8,-223.7 90.9,-223.7 94,-226.8 94,-229.9 94,-229.9 94,-236.1 94,-236.1 94,-239.2 90.9,-242.3 87.8,-242.3"/>
<text text-anchor="middle" x="67" y="-230.3" font-family="Helvetica,sans-Serif" font-size="9.00">index.js</text>
</a>
</g>
</g>
<!-- separated/filter&#45;words/src/listeners/add&#45;word.js -->
<g id="node8" class="node">
<title>separated/filter&#45;words/src/listeners/add&#45;word.js</title>
<g id="a_node8"><a xlink:href="separated/filter-words/src/listeners/add-word.js" xlink:title="add&#45;word.js">
<path fill="#ffffcc" stroke="black" d="M169.3,-181.3C169.3,-181.3 119.69,-181.3 119.69,-181.3 116.59,-181.3 113.49,-178.2 113.49,-175.1 113.49,-175.1 113.49,-168.9 113.49,-168.9 113.49,-165.8 116.59,-162.7 119.69,-162.7 119.69,-162.7 169.3,-162.7 169.3,-162.7 172.4,-162.7 175.5,-165.8 175.5,-168.9 175.5,-168.9 175.5,-175.1 175.5,-175.1 175.5,-178.2 172.4,-181.3 169.3,-181.3"/>
<text text-anchor="middle" x="144.49" y="-169.3" font-family="Helvetica,sans-Serif" font-size="9.00">add&#45;word.js</text>
</a>
</g>
</g>
<!-- separated/filter&#45;words/src/init/index.js&#45;&gt;separated/filter&#45;words/src/listeners/add&#45;word.js -->
<g id="edge8" class="edge">
<title>separated/filter&#45;words/src/init/index.js&#45;&gt;separated/filter&#45;words/src/listeners/add&#45;word.js</title>
<path fill="none" stroke="#000000" stroke-width="2" stroke-opacity="0.200000" d="M79.8,-223.47C92.35,-213.32 112.34,-197.17 126.57,-185.67"/>
<polygon fill="#000000" fill-opacity="0.200000" stroke="#000000" stroke-width="2" stroke-opacity="0.200000" points="128.19,-187.07 131.53,-181.67 125.55,-183.8 128.19,-187.07"/>
</g>
<!-- separated/filter&#45;words/src/listeners/filter&#45;words.js -->
<g id="node9" class="node">
<title>separated/filter&#45;words/src/listeners/filter&#45;words.js</title>
<g id="a_node9"><a xlink:href="separated/filter-words/src/listeners/filter-words.js" xlink:title="filter&#45;words.js">
<path fill="#ffffcc" stroke="black" d="M172.78,-150.3C172.78,-150.3 116.21,-150.3 116.21,-150.3 113.11,-150.3 110.01,-147.2 110.01,-144.1 110.01,-144.1 110.01,-137.9 110.01,-137.9 110.01,-134.8 113.11,-131.7 116.21,-131.7 116.21,-131.7 172.78,-131.7 172.78,-131.7 175.88,-131.7 178.98,-134.8 178.98,-137.9 178.98,-137.9 178.98,-144.1 178.98,-144.1 178.98,-147.2 175.88,-150.3 172.78,-150.3"/>
<text text-anchor="middle" x="144.49" y="-138.3" font-family="Helvetica,sans-Serif" font-size="9.00">filter&#45;words.js</text>
</a>
</g>
</g>
<!-- separated/filter&#45;words/src/init/index.js&#45;&gt;separated/filter&#45;words/src/listeners/filter&#45;words.js -->
<g id="edge9" class="edge">
<title>separated/filter&#45;words/src/init/index.js&#45;&gt;separated/filter&#45;words/src/listeners/filter&#45;words.js</title>
<path fill="none" stroke="#000000" stroke-width="2" stroke-opacity="0.200000" d="M69.8,-223.47C73.29,-207.58 82.39,-175.6 102,-157 103.26,-155.8 104.62,-154.7 106.05,-153.67"/>
<polygon fill="#000000" fill-opacity="0.200000" stroke="#000000" stroke-width="2" stroke-opacity="0.200000" points="107.18,-155.44 111.15,-150.47 104.95,-151.88 107.18,-155.44"/>
</g>
<!-- separated/filter&#45;words/src/listeners/reset.js -->
<g id="node10" class="node">
<title>separated/filter&#45;words/src/listeners/reset.js</title>
<g id="a_node10"><a xlink:href="separated/filter-words/src/listeners/reset.js" xlink:title="reset.js">
<path fill="#ffffcc" stroke="black" d="M165.29,-119.3C165.29,-119.3 123.7,-119.3 123.7,-119.3 120.6,-119.3 117.49,-116.2 117.49,-113.1 117.49,-113.1 117.49,-106.9 117.49,-106.9 117.49,-103.8 120.6,-100.7 123.7,-100.7 123.7,-100.7 165.29,-100.7 165.29,-100.7 168.39,-100.7 171.49,-103.8 171.49,-106.9 171.49,-106.9 171.49,-113.1 171.49,-113.1 171.49,-116.2 168.39,-119.3 165.29,-119.3"/>
<text text-anchor="middle" x="144.49" y="-107.3" font-family="Helvetica,sans-Serif" font-size="9.00">reset.js</text>
</a>
</g>
</g>
<!-- separated/filter&#45;words/src/init/index.js&#45;&gt;separated/filter&#45;words/src/listeners/reset.js -->
<g id="edge10" class="edge">
<title>separated/filter&#45;words/src/init/index.js&#45;&gt;separated/filter&#45;words/src/listeners/reset.js</title>
<path fill="none" stroke="#000000" stroke-width="2" stroke-opacity="0.200000" d="M68.35,-223.65C69.62,-203.23 75.41,-154.24 102,-126 104.77,-123.05 108.15,-120.64 111.77,-118.67"/>
<polygon fill="#000000" fill-opacity="0.200000" stroke="#000000" stroke-width="2" stroke-opacity="0.200000" points="112.68,-120.56 117.2,-116.09 110.88,-116.77 112.68,-120.56"/>
</g>
<!-- separated/filter&#45;words/src/init/log&#45;state.js -->
<g id="node11" class="node">
<title>separated/filter&#45;words/src/init/log&#45;state.js</title>
<g id="a_node11"><a xlink:href="separated/filter-words/src/init/log-state.js" xlink:title="log&#45;state.js">
<path fill="#ffffcc" stroke="black" d="M167.8,-242.3C167.8,-242.3 121.19,-242.3 121.19,-242.3 118.09,-242.3 114.99,-239.2 114.99,-236.1 114.99,-236.1 114.99,-229.9 114.99,-229.9 114.99,-226.8 118.09,-223.7 121.19,-223.7 121.19,-223.7 167.8,-223.7 167.8,-223.7 170.9,-223.7 174,-226.8 174,-229.9 174,-229.9 174,-236.1 174,-236.1 174,-239.2 170.9,-242.3 167.8,-242.3"/>
<text text-anchor="middle" x="144.49" y="-230.3" font-family="Helvetica,sans-Serif" font-size="9.00">log&#45;state.js</text>
</a>
</g>
</g>
<!-- separated/filter&#45;words/src/init/index.js&#45;&gt;separated/filter&#45;words/src/init/log&#45;state.js -->
<g id="edge11" class="edge">
<title>separated/filter&#45;words/src/init/index.js&#45;&gt;separated/filter&#45;words/src/init/log&#45;state.js</title>
<path fill="none" stroke="#000000" stroke-width="2" stroke-opacity="0.200000" d="M94.4,-233C99.07,-233 103.99,-233 108.84,-233"/>
<polygon fill="#000000" fill-opacity="0.200000" stroke="#000000" stroke-width="2" stroke-opacity="0.200000" points="108.92,-235.1 114.92,-233 108.92,-230.9 108.92,-235.1"/>
</g>
<!-- separated/filter&#45;words/src/listeners/add&#45;word.js&#45;&gt;separated/filter&#45;words/src/handlers/add&#45;word.js -->
<g id="edge14" class="edge">
<title>separated/filter&#45;words/src/listeners/add&#45;word.js&#45;&gt;separated/filter&#45;words/src/handlers/add&#45;word.js</title>
<path fill="none" stroke="#000000" stroke-width="2" stroke-opacity="0.200000" d="M175.54,-172C183.46,-172 192.09,-172 200.3,-172"/>
<polygon fill="#000000" fill-opacity="0.200000" stroke="#000000" stroke-width="2" stroke-opacity="0.200000" points="200.47,-174.1 206.47,-172 200.47,-169.9 200.47,-174.1"/>
</g>
<!-- separated/filter&#45;words/src/listeners/filter&#45;words.js&#45;&gt;separated/filter&#45;words/src/handlers/filter&#45;words.js -->
<g id="edge15" class="edge">
<title>separated/filter&#45;words/src/listeners/filter&#45;words.js&#45;&gt;separated/filter&#45;words/src/handlers/filter&#45;words.js</title>
<path fill="none" stroke="#000000" stroke-width="2" stroke-opacity="0.200000" d="M179.12,-141C184.77,-141 190.68,-141 196.47,-141"/>
<polygon fill="#000000" fill-opacity="0.200000" stroke="#000000" stroke-width="2" stroke-opacity="0.200000" points="196.7,-143.1 202.7,-141 196.7,-138.9 196.7,-143.1"/>
</g>
<!-- separated/filter&#45;words/src/listeners/reset.js&#45;&gt;separated/filter&#45;words/src/handlers/reset.js -->
<g id="edge16" class="edge">
<title>separated/filter&#45;words/src/listeners/reset.js&#45;&gt;separated/filter&#45;words/src/handlers/reset.js</title>
<path fill="none" stroke="#000000" stroke-width="2" stroke-opacity="0.200000" d="M171.81,-110C181.9,-110 193.54,-110 204.13,-110"/>
<polygon fill="#000000" fill-opacity="0.200000" stroke="#000000" stroke-width="2" stroke-opacity="0.200000" points="204.23,-112.1 210.23,-110 204.23,-107.9 204.23,-112.1"/>
</g>
<!-- separated/filter&#45;words/src/init/log&#45;state.js&#45;&gt;lib/logger.js -->
<g id="edge12" class="edge">
<title>separated/filter&#45;words/src/init/log&#45;state.js&#45;&gt;lib/logger.js</title>
<path fill="none" stroke="#000000" stroke-width="2" stroke-opacity="0.200000" d="M172.77,-223.63C178.33,-220.47 183.53,-216.34 186.99,-211 201.64,-188.38 180.18,-112.51 194.99,-90 216.56,-57.22 260.07,-40.12 290.1,-31.84"/>
<polygon fill="#000000" fill-opacity="0.200000" stroke="#000000" stroke-width="2" stroke-opacity="0.200000" points="290.65,-33.87 295.92,-30.3 289.58,-29.81 290.65,-33.87"/>
</g>
<!-- separated/filter&#45;words/src/init/log&#45;state.js&#45;&gt;separated/filter&#45;words/src/data.js -->
<g id="edge13" class="edge">
<title>separated/filter&#45;words/src/init/log&#45;state.js&#45;&gt;separated/filter&#45;words/src/data.js</title>
<path fill="none" stroke="#000000" stroke-width="2" stroke-opacity="0.200000" d="M174.08,-234.26C202.82,-234.22 247.42,-230.54 279.98,-211 295.7,-201.57 307.61,-183.83 314.66,-171.05"/>
<polygon fill="#000000" fill-opacity="0.200000" stroke="#000000" stroke-width="2" stroke-opacity="0.200000" points="316.6,-171.86 317.55,-165.57 312.89,-169.89 316.6,-171.86"/>
</g>
</g>
</svg>
