<?xml version="1.0" encoding="UTF-8" standalone="no"?>
<!DOCTYPE svg PUBLIC "-//W3C//DTD SVG 1.1//EN"
 "http://www.w3.org/Graphics/SVG/1.1/DTD/svg11.dtd">
<!-- Generated by graphviz version 2.44.0 (20200408.0750)
 -->
<!-- Title: dependency&#45;cruiser output Pages: 1 -->
<svg width="398pt" height="382pt"
 viewBox="0.00 0.00 397.98 382.00" xmlns="http://www.w3.org/2000/svg" xmlns:xlink="http://www.w3.org/1999/xlink">
<g id="graph0" class="graph" transform="scale(1 1) rotate(0) translate(4 378)">
<title>dependency&#45;cruiser output</title>
<polygon fill="white" stroke="transparent" points="-4,4 -4,-378 393.98,-378 393.98,4 -4,4"/>
<g id="clust1" class="cluster">
<title>cluster_</title>
<path fill="#ffffff" stroke="black" stroke-width="2" d="M299.98,-8C299.98,-8 361.98,-8 361.98,-8 367.98,-8 373.98,-14 373.98,-20 373.98,-20 373.98,-65 373.98,-65 373.98,-71 367.98,-77 361.98,-77 361.98,-77 299.98,-77 299.98,-77 293.98,-77 287.98,-71 287.98,-65 287.98,-65 287.98,-20 287.98,-20 287.98,-14 293.98,-8 299.98,-8"/>
</g>
<g id="clust2" class="cluster">
<title>cluster_/.lib</title>
<path fill="#ffffff" stroke="black" stroke-width="2" d="M307.98,-16C307.98,-16 353.98,-16 353.98,-16 359.98,-16 365.98,-22 365.98,-28 365.98,-28 365.98,-57 365.98,-57 365.98,-63 359.98,-69 353.98,-69 353.98,-69 307.98,-69 307.98,-69 301.98,-69 295.98,-63 295.98,-57 295.98,-57 295.98,-28 295.98,-28 295.98,-22 301.98,-16 307.98,-16"/>
<text text-anchor="middle" x="330.98" y="-56.9" font-family="Helvetica,sans-Serif" font-weight="bold" font-size="9.00">.lib</text>
</g>
<g id="clust3" class="cluster">
<title>cluster_separated</title>
<path fill="#ffffff" stroke="black" stroke-width="2" d="M20,-85C20,-85 369.98,-85 369.98,-85 375.98,-85 381.98,-91 381.98,-97 381.98,-97 381.98,-354 381.98,-354 381.98,-360 375.98,-366 369.98,-366 369.98,-366 20,-366 20,-366 14,-366 8,-360 8,-354 8,-354 8,-97 8,-97 8,-91 14,-85 20,-85"/>
<text text-anchor="middle" x="194.99" y="-353.9" font-family="Helvetica,sans-Serif" font-weight="bold" font-size="9.00">separated</text>
</g>
<g id="clust4" class="cluster">
<title>cluster_separated/filter&#45;words</title>
<path fill="#ffffff" stroke="black" stroke-width="2" d="M28,-93C28,-93 361.98,-93 361.98,-93 367.98,-93 373.98,-99 373.98,-105 373.98,-105 373.98,-327 373.98,-327 373.98,-333 367.98,-339 361.98,-339 361.98,-339 28,-339 28,-339 22,-339 16,-333 16,-327 16,-327 16,-105 16,-105 16,-99 22,-93 28,-93"/>
<text text-anchor="middle" x="194.99" y="-326.9" font-family="Helvetica,sans-Serif" font-weight="bold" font-size="9.00">filter&#45;words</text>
</g>
<g id="clust5" class="cluster">
<title>cluster_separated/filter&#45;words/src</title>
<path fill="#ffffff" stroke="black" stroke-width="2" d="M36,-101C36,-101 353.98,-101 353.98,-101 359.98,-101 365.98,-107 365.98,-113 365.98,-113 365.98,-300 365.98,-300 365.98,-306 359.98,-312 353.98,-312 353.98,-312 36,-312 36,-312 30,-312 24,-306 24,-300 24,-300 24,-113 24,-113 24,-107 30,-101 36,-101"/>
<text text-anchor="middle" x="194.99" y="-299.9" font-family="Helvetica,sans-Serif" font-weight="bold" font-size="9.00">src</text>
</g>
<g id="clust6" class="cluster">
<title>cluster_separated/filter&#45;words/src/handlers</title>
<path fill="#ffffff" stroke="black" stroke-width="2" d="M206.99,-109C206.99,-109 267.98,-109 267.98,-109 273.98,-109 279.98,-115 279.98,-121 279.98,-121 279.98,-212 279.98,-212 279.98,-218 273.98,-224 267.98,-224 267.98,-224 206.99,-224 206.99,-224 200.99,-224 194.99,-218 194.99,-212 194.99,-212 194.99,-121 194.99,-121 194.99,-115 200.99,-109 206.99,-109"/>
<text text-anchor="middle" x="237.48" y="-211.9" font-family="Helvetica,sans-Serif" font-weight="bold" font-size="9.00">handlers</text>
</g>
<g id="clust7" class="cluster">
<title>cluster_separated/filter&#45;words/src/init</title>
<path fill="#ffffff" stroke="black" stroke-width="2" d="M44,-232C44,-232 170.25,-232 170.25,-232 176.25,-232 182.25,-238 182.25,-244 182.25,-244 182.25,-273 182.25,-273 182.25,-279 176.25,-285 170.25,-285 170.25,-285 44,-285 44,-285 38,-285 32,-279 32,-273 32,-273 32,-244 32,-244 32,-238 38,-232 44,-232"/>
<text text-anchor="middle" x="107.12" y="-272.9" font-family="Helvetica,sans-Serif" font-weight="bold" font-size="9.00">init</text>
</g>
<g id="clust8" class="cluster">
<title>cluster_separated/filter&#45;words/src/listeners</title>
<path fill="#ffffff" stroke="black" stroke-width="2" d="M114,-109C114,-109 174.99,-109 174.99,-109 180.99,-109 186.99,-115 186.99,-121 186.99,-121 186.99,-212 186.99,-212 186.99,-218 180.99,-224 174.99,-224 174.99,-224 114,-224 114,-224 108,-224 102,-218 102,-212 102,-212 102,-121 102,-121 102,-115 108,-109 114,-109"/>
<text text-anchor="middle" x="144.49" y="-211.9" font-family="Helvetica,sans-Serif" font-weight="bold" font-size="9.00">listeners</text>
</g>
<!-- /.lib/logger.js -->
<g id="node1" class="node">
<title>/.lib/logger.js</title>
<polygon fill="#ffffcc" stroke="red" points="357.98,-42.3 356.43,-44.37 345.58,-44.37 344.03,-42.3 303.98,-42.3 303.98,-23.7 357.98,-23.7 357.98,-42.3"/>
<text text-anchor="middle" x="330.98" y="-30.3" font-family="Helvetica,sans-Serif" font-size="9.00" fill="red">logger.js</text>
</g>
<!-- separated/filter&#45;words/src/data.js -->
<g id="node2" class="node">
<title>separated/filter&#45;words/src/data.js</title>
<g id="a_node2"><a xlink:href="separated/filter-words/src/data.js" xlink:title="data.js">
<path fill="#ffffcc" stroke="black" d="M351.78,-181.3C351.78,-181.3 310.18,-181.3 310.18,-181.3 307.08,-181.3 303.98,-178.2 303.98,-175.1 303.98,-175.1 303.98,-168.9 303.98,-168.9 303.98,-165.8 307.08,-162.7 310.18,-162.7 310.18,-162.7 351.78,-162.7 351.78,-162.7 354.88,-162.7 357.98,-165.8 357.98,-168.9 357.98,-168.9 357.98,-175.1 357.98,-175.1 357.98,-178.2 354.88,-181.3 351.78,-181.3"/>
<text text-anchor="middle" x="330.98" y="-169.3" font-family="Helvetica,sans-Serif" font-size="9.00">data.js</text>
</a>
</g>
</g>
<!-- separated/filter&#45;words/src/handlers/add&#45;word.js -->
<g id="node3" class="node">
<title>separated/filter&#45;words/src/handlers/add&#45;word.js</title>
<g id="a_node3"><a xlink:href="separated/filter-words/src/handlers/add-word.js" xlink:title="add&#45;word.js">
<path fill="#ffffcc" stroke="black" d="M262.29,-197.3C262.29,-197.3 212.68,-197.3 212.68,-197.3 209.58,-197.3 206.48,-194.2 206.48,-191.1 206.48,-191.1 206.48,-184.9 206.48,-184.9 206.48,-181.8 209.58,-178.7 212.68,-178.7 212.68,-178.7 262.29,-178.7 262.29,-178.7 265.39,-178.7 268.49,-181.8 268.49,-184.9 268.49,-184.9 268.49,-191.1 268.49,-191.1 268.49,-194.2 265.39,-197.3 262.29,-197.3"/>
<text text-anchor="middle" x="237.48" y="-185.3" font-family="Helvetica,sans-Serif" font-size="9.00">add&#45;word.js</text>
</a>
</g>
</g>
<!-- separated/filter&#45;words/src/handlers/add&#45;word.js&#45;&gt;/.lib/logger.js -->
<g id="edge2" class="edge">
<title>separated/filter&#45;words/src/handlers/add&#45;word.js&#45;&gt;/.lib/logger.js</title>
<path fill="none" stroke="#000000" stroke-width="2" stroke-opacity="0.200000" d="M268.83,-180.9C273.12,-178.69 277.06,-175.8 279.98,-172 290.06,-158.89 282.45,-113.59 287.98,-98 294.73,-78.94 308.06,-59.83 317.9,-47.31"/>
<polygon fill="#000000" fill-opacity="0.200000" stroke="#000000" stroke-width="2" stroke-opacity="0.200000" points="319.75,-48.36 321.87,-42.37 316.48,-45.73 319.75,-48.36"/>
</g>
<!-- separated/filter&#45;words/src/handlers/add&#45;word.js&#45;&gt;separated/filter&#45;words/src/data.js -->
<g id="edge1" class="edge">
<title>separated/filter&#45;words/src/handlers/add&#45;word.js&#45;&gt;separated/filter&#45;words/src/data.js</title>
<path fill="none" stroke="#000000" stroke-width="2" stroke-opacity="0.200000" d="M268.7,-182.72C278,-181.09 288.29,-179.29 297.73,-177.64"/>
<polygon fill="#000000" fill-opacity="0.200000" stroke="#000000" stroke-width="2" stroke-opacity="0.200000" points="298.24,-179.68 303.79,-176.58 297.52,-175.54 298.24,-179.68"/>
</g>
<!-- separated/filter&#45;words/src/handlers/filter&#45;words.js -->
<g id="node4" class="node">
<title>separated/filter&#45;words/src/handlers/filter&#45;words.js</title>
<g id="a_node4"><a xlink:href="separated/filter-words/src/handlers/filter-words.js" xlink:title="filter&#45;words.js">
<path fill="#ffffcc" stroke="black" d="M265.77,-166.3C265.77,-166.3 209.2,-166.3 209.2,-166.3 206.1,-166.3 202.99,-163.2 202.99,-160.1 202.99,-160.1 202.99,-153.9 202.99,-153.9 202.99,-150.8 206.1,-147.7 209.2,-147.7 209.2,-147.7 265.77,-147.7 265.77,-147.7 268.87,-147.7 271.97,-150.8 271.97,-153.9 271.97,-153.9 271.97,-160.1 271.97,-160.1 271.97,-163.2 268.87,-166.3 265.77,-166.3"/>
<text text-anchor="middle" x="237.48" y="-154.3" font-family="Helvetica,sans-Serif" font-size="9.00">filter&#45;words.js</text>
</a>
</g>
</g>
<!-- separated/filter&#45;words/src/handlers/filter&#45;words.js&#45;&gt;/.lib/logger.js -->
<g id="edge4" class="edge">
<title>separated/filter&#45;words/src/handlers/filter&#45;words.js&#45;&gt;/.lib/logger.js</title>
<path fill="none" stroke="#000000" stroke-width="2" stroke-opacity="0.200000" d="M272.26,-147.63C275.16,-145.8 277.81,-143.61 279.98,-141 292.4,-126.05 280.79,-116.06 287.98,-98 295.46,-79.21 308.66,-60.05 318.27,-47.45"/>
<polygon fill="#000000" fill-opacity="0.200000" stroke="#000000" stroke-width="2" stroke-opacity="0.200000" points="320.12,-48.49 322.14,-42.47 316.8,-45.91 320.12,-48.49"/>
</g>
<!-- separated/filter&#45;words/src/handlers/filter&#45;words.js&#45;&gt;separated/filter&#45;words/src/data.js -->
<g id="edge3" class="edge">
<title>separated/filter&#45;words/src/handlers/filter&#45;words.js&#45;&gt;separated/filter&#45;words/src/data.js</title>
<path fill="none" stroke="#000000" stroke-width="2" stroke-opacity="0.200000" d="M272.03,-162.5C280.41,-163.87 289.37,-165.34 297.68,-166.7"/>
<polygon fill="#000000" fill-opacity="0.200000" stroke="#000000" stroke-width="2" stroke-opacity="0.200000" points="297.62,-168.82 303.88,-167.72 298.3,-164.68 297.62,-168.82"/>
</g>
<!-- separated/filter&#45;words/src/handlers/reset.js -->
<g id="node5" class="node">
<title>separated/filter&#45;words/src/handlers/reset.js</title>
<g id="a_node5"><a xlink:href="separated/filter-words/src/handlers/reset.js" xlink:title="reset.js">
<path fill="#ffffcc" stroke="black" d="M258.28,-135.3C258.28,-135.3 216.68,-135.3 216.68,-135.3 213.58,-135.3 210.48,-132.2 210.48,-129.1 210.48,-129.1 210.48,-122.9 210.48,-122.9 210.48,-119.8 213.58,-116.7 216.68,-116.7 216.68,-116.7 258.28,-116.7 258.28,-116.7 261.38,-116.7 264.48,-119.8 264.48,-122.9 264.48,-122.9 264.48,-129.1 264.48,-129.1 264.48,-132.2 261.38,-135.3 258.28,-135.3"/>
<text text-anchor="middle" x="237.48" y="-123.3" font-family="Helvetica,sans-Serif" font-size="9.00">reset.js</text>
</a>
</g>
</g>
<!-- separated/filter&#45;words/src/handlers/reset.js&#45;&gt;/.lib/logger.js -->
<g id="edge6" class="edge">
<title>separated/filter&#45;words/src/handlers/reset.js&#45;&gt;/.lib/logger.js</title>
<path fill="none" stroke="#000000" stroke-width="2" stroke-opacity="0.200000" d="M247.93,-116.4C264.18,-99.88 297.47,-66.04 316.27,-46.93"/>
<polygon fill="#000000" fill-opacity="0.200000" stroke="#000000" stroke-width="2" stroke-opacity="0.200000" points="318.01,-48.16 320.72,-42.41 315.01,-45.22 318.01,-48.16"/>
</g>
<!-- separated/filter&#45;words/src/handlers/reset.js&#45;&gt;separated/filter&#45;words/src/data.js -->
<g id="edge5" class="edge">
<title>separated/filter&#45;words/src/handlers/reset.js&#45;&gt;separated/filter&#45;words/src/data.js</title>
<path fill="none" stroke="#000000" stroke-width="2" stroke-opacity="0.200000" d="M264.68,-135.31C269.82,-137.36 275.12,-139.63 279.98,-142 290.47,-147.12 301.66,-153.72 310.79,-159.42"/>
<polygon fill="#000000" fill-opacity="0.200000" stroke="#000000" stroke-width="2" stroke-opacity="0.200000" points="309.71,-161.23 315.9,-162.66 311.96,-157.68 309.71,-161.23"/>
</g>
<!-- separated/filter&#45;words/src/init/index.js -->
<g id="node6" class="node">
<title>separated/filter&#45;words/src/init/index.js</title>
<g id="a_node6"><a xlink:href="separated/filter-words/src/init/index.js" xlink:title="index.js">
<path fill="#ffffcc" stroke="black" d="M87.8,-258.3C87.8,-258.3 46.2,-258.3 46.2,-258.3 43.1,-258.3 40,-255.2 40,-252.1 40,-252.1 40,-245.9 40,-245.9 40,-242.8 43.1,-239.7 46.2,-239.7 46.2,-239.7 87.8,-239.7 87.8,-239.7 90.9,-239.7 94,-242.8 94,-245.9 94,-245.9 94,-252.1 94,-252.1 94,-255.2 90.9,-258.3 87.8,-258.3"/>
<text text-anchor="middle" x="67" y="-246.3" font-family="Helvetica,sans-Serif" font-size="9.00">index.js</text>
</a>
</g>
</g>
<!-- separated/filter&#45;words/src/listeners/add&#45;word.js -->
<g id="node7" class="node">
<title>separated/filter&#45;words/src/listeners/add&#45;word.js</title>
<g id="a_node7"><a xlink:href="separated/filter-words/src/listeners/add-word.js" xlink:title="add&#45;word.js">
<path fill="#ffffcc" stroke="black" d="M169.3,-197.3C169.3,-197.3 119.69,-197.3 119.69,-197.3 116.59,-197.3 113.49,-194.2 113.49,-191.1 113.49,-191.1 113.49,-184.9 113.49,-184.9 113.49,-181.8 116.59,-178.7 119.69,-178.7 119.69,-178.7 169.3,-178.7 169.3,-178.7 172.4,-178.7 175.5,-181.8 175.5,-184.9 175.5,-184.9 175.5,-191.1 175.5,-191.1 175.5,-194.2 172.4,-197.3 169.3,-197.3"/>
<text text-anchor="middle" x="144.49" y="-185.3" font-family="Helvetica,sans-Serif" font-size="9.00">add&#45;word.js</text>
</a>
</g>
</g>
<!-- separated/filter&#45;words/src/init/index.js&#45;&gt;separated/filter&#45;words/src/listeners/add&#45;word.js -->
<g id="edge7" class="edge">
<title>separated/filter&#45;words/src/init/index.js&#45;&gt;separated/filter&#45;words/src/listeners/add&#45;word.js</title>
<path fill="none" stroke="#000000" stroke-width="2" stroke-opacity="0.200000" d="M79.8,-239.47C92.35,-229.32 112.34,-213.17 126.57,-201.67"/>
<polygon fill="#000000" fill-opacity="0.200000" stroke="#000000" stroke-width="2" stroke-opacity="0.200000" points="128.19,-203.07 131.53,-197.67 125.55,-199.8 128.19,-203.07"/>
</g>
<!-- separated/filter&#45;words/src/listeners/filter&#45;words.js -->
<g id="node8" class="node">
<title>separated/filter&#45;words/src/listeners/filter&#45;words.js</title>
<g id="a_node8"><a xlink:href="separated/filter-words/src/listeners/filter-words.js" xlink:title="filter&#45;words.js">
<path fill="#ffffcc" stroke="black" d="M172.78,-166.3C172.78,-166.3 116.21,-166.3 116.21,-166.3 113.11,-166.3 110.01,-163.2 110.01,-160.1 110.01,-160.1 110.01,-153.9 110.01,-153.9 110.01,-150.8 113.11,-147.7 116.21,-147.7 116.21,-147.7 172.78,-147.7 172.78,-147.7 175.88,-147.7 178.98,-150.8 178.98,-153.9 178.98,-153.9 178.98,-160.1 178.98,-160.1 178.98,-163.2 175.88,-166.3 172.78,-166.3"/>
<text text-anchor="middle" x="144.49" y="-154.3" font-family="Helvetica,sans-Serif" font-size="9.00">filter&#45;words.js</text>
</a>
</g>
</g>
<!-- separated/filter&#45;words/src/init/index.js&#45;&gt;separated/filter&#45;words/src/listeners/filter&#45;words.js -->
<g id="edge8" class="edge">
<title>separated/filter&#45;words/src/init/index.js&#45;&gt;separated/filter&#45;words/src/listeners/filter&#45;words.js</title>
<path fill="none" stroke="#000000" stroke-width="2" stroke-opacity="0.200000" d="M69.8,-239.47C73.29,-223.58 82.39,-191.6 102,-173 103.26,-171.8 104.62,-170.7 106.05,-169.67"/>
<polygon fill="#000000" fill-opacity="0.200000" stroke="#000000" stroke-width="2" stroke-opacity="0.200000" points="107.18,-171.44 111.15,-166.47 104.95,-167.88 107.18,-171.44"/>
</g>
<!-- separated/filter&#45;words/src/listeners/reset.js -->
<g id="node9" class="node">
<title>separated/filter&#45;words/src/listeners/reset.js</title>
<g id="a_node9"><a xlink:href="separated/filter-words/src/listeners/reset.js" xlink:title="reset.js">
<path fill="#ffffcc" stroke="black" d="M165.29,-135.3C165.29,-135.3 123.7,-135.3 123.7,-135.3 120.6,-135.3 117.49,-132.2 117.49,-129.1 117.49,-129.1 117.49,-122.9 117.49,-122.9 117.49,-119.8 120.6,-116.7 123.7,-116.7 123.7,-116.7 165.29,-116.7 165.29,-116.7 168.39,-116.7 171.49,-119.8 171.49,-122.9 171.49,-122.9 171.49,-129.1 171.49,-129.1 171.49,-132.2 168.39,-135.3 165.29,-135.3"/>
<text text-anchor="middle" x="144.49" y="-123.3" font-family="Helvetica,sans-Serif" font-size="9.00">reset.js</text>
</a>
</g>
</g>
<!-- separated/filter&#45;words/src/init/index.js&#45;&gt;separated/filter&#45;words/src/listeners/reset.js -->
<g id="edge9" class="edge">
<title>separated/filter&#45;words/src/init/index.js&#45;&gt;separated/filter&#45;words/src/listeners/reset.js</title>
<path fill="none" stroke="#000000" stroke-width="2" stroke-opacity="0.200000" d="M68.35,-239.65C69.62,-219.23 75.41,-170.24 102,-142 104.77,-139.05 108.15,-136.64 111.77,-134.67"/>
<polygon fill="#000000" fill-opacity="0.200000" stroke="#000000" stroke-width="2" stroke-opacity="0.200000" points="112.68,-136.56 117.2,-132.09 110.88,-132.77 112.68,-136.56"/>
</g>
<!-- separated/filter&#45;words/src/init/log&#45;state.js -->
<g id="node10" class="node">
<title>separated/filter&#45;words/src/init/log&#45;state.js</title>
<g id="a_node10"><a xlink:href="separated/filter-words/src/init/log-state.js" xlink:title="log&#45;state.js">
<path fill="#ffffcc" stroke="black" d="M167.8,-258.3C167.8,-258.3 121.19,-258.3 121.19,-258.3 118.09,-258.3 114.99,-255.2 114.99,-252.1 114.99,-252.1 114.99,-245.9 114.99,-245.9 114.99,-242.8 118.09,-239.7 121.19,-239.7 121.19,-239.7 167.8,-239.7 167.8,-239.7 170.9,-239.7 174,-242.8 174,-245.9 174,-245.9 174,-252.1 174,-252.1 174,-255.2 170.9,-258.3 167.8,-258.3"/>
<text text-anchor="middle" x="144.49" y="-246.3" font-family="Helvetica,sans-Serif" font-size="9.00">log&#45;state.js</text>
</a>
</g>
</g>
<!-- separated/filter&#45;words/src/init/index.js&#45;&gt;separated/filter&#45;words/src/init/log&#45;state.js -->
<g id="edge10" class="edge">
<title>separated/filter&#45;words/src/init/index.js&#45;&gt;separated/filter&#45;words/src/init/log&#45;state.js</title>
<path fill="none" stroke="#000000" stroke-width="2" stroke-opacity="0.200000" d="M94.4,-249C99.07,-249 103.99,-249 108.84,-249"/>
<polygon fill="#000000" fill-opacity="0.200000" stroke="#000000" stroke-width="2" stroke-opacity="0.200000" points="108.92,-251.1 114.92,-249 108.92,-246.9 108.92,-251.1"/>
</g>
<!-- separated/filter&#45;words/src/listeners/add&#45;word.js&#45;&gt;separated/filter&#45;words/src/handlers/add&#45;word.js -->
<g id="edge13" class="edge">
<title>separated/filter&#45;words/src/listeners/add&#45;word.js&#45;&gt;separated/filter&#45;words/src/handlers/add&#45;word.js</title>
<path fill="none" stroke="#000000" stroke-width="2" stroke-opacity="0.200000" d="M175.54,-188C183.46,-188 192.09,-188 200.3,-188"/>
<polygon fill="#000000" fill-opacity="0.200000" stroke="#000000" stroke-width="2" stroke-opacity="0.200000" points="200.47,-190.1 206.47,-188 200.47,-185.9 200.47,-190.1"/>
</g>
<!-- separated/filter&#45;words/src/listeners/filter&#45;words.js&#45;&gt;separated/filter&#45;words/src/handlers/filter&#45;words.js -->
<g id="edge14" class="edge">
<title>separated/filter&#45;words/src/listeners/filter&#45;words.js&#45;&gt;separated/filter&#45;words/src/handlers/filter&#45;words.js</title>
<path fill="none" stroke="#000000" stroke-width="2" stroke-opacity="0.200000" d="M179.12,-157C184.77,-157 190.68,-157 196.47,-157"/>
<polygon fill="#000000" fill-opacity="0.200000" stroke="#000000" stroke-width="2" stroke-opacity="0.200000" points="196.7,-159.1 202.7,-157 196.7,-154.9 196.7,-159.1"/>
</g>
<!-- separated/filter&#45;words/src/listeners/reset.js&#45;&gt;separated/filter&#45;words/src/handlers/reset.js -->
<g id="edge15" class="edge">
<title>separated/filter&#45;words/src/listeners/reset.js&#45;&gt;separated/filter&#45;words/src/handlers/reset.js</title>
<path fill="none" stroke="#000000" stroke-width="2" stroke-opacity="0.200000" d="M171.81,-126C181.9,-126 193.54,-126 204.13,-126"/>
<polygon fill="#000000" fill-opacity="0.200000" stroke="#000000" stroke-width="2" stroke-opacity="0.200000" points="204.23,-128.1 210.23,-126 204.23,-123.9 204.23,-128.1"/>
</g>
<!-- separated/filter&#45;words/src/init/log&#45;state.js&#45;&gt;/.lib/logger.js -->
<g id="edge12" class="edge">
<title>separated/filter&#45;words/src/init/log&#45;state.js&#45;&gt;/.lib/logger.js</title>
<path fill="none" stroke="#000000" stroke-width="2" stroke-opacity="0.200000" d="M172.77,-239.63C178.33,-236.47 183.53,-232.34 186.99,-227 201.64,-204.38 180.44,-128.68 194.99,-106 218.29,-69.69 266.12,-50.11 298.13,-40.62"/>
<polygon fill="#000000" fill-opacity="0.200000" stroke="#000000" stroke-width="2" stroke-opacity="0.200000" points="298.72,-42.63 303.91,-38.96 297.56,-38.6 298.72,-42.63"/>
</g>
<!-- separated/filter&#45;words/src/init/log&#45;state.js&#45;&gt;separated/filter&#45;words/src/data.js -->
<g id="edge11" class="edge">
<title>separated/filter&#45;words/src/init/log&#45;state.js&#45;&gt;separated/filter&#45;words/src/data.js</title>
<path fill="none" stroke="#000000" stroke-width="2" stroke-opacity="0.200000" d="M174.01,-249.66C202.5,-249.14 246.72,-245.07 279.98,-227 297.44,-217.51 311.99,-199.54 320.81,-186.72"/>
<polygon fill="#000000" fill-opacity="0.200000" stroke="#000000" stroke-width="2" stroke-opacity="0.200000" points="322.65,-187.74 324.23,-181.58 319.16,-185.41 322.65,-187.74"/>
</g>
</g>
</svg>
