<?xml version="1.0" encoding="UTF-8" standalone="no"?>
<!DOCTYPE svg PUBLIC "-//W3C//DTD SVG 1.1//EN"
 "http://www.w3.org/Graphics/SVG/1.1/DTD/svg11.dtd">
<!-- Generated by graphviz version 2.44.0 (20200408.0750)
 -->
<!-- Title: dependency&#45;cruiser output Pages: 1 -->
<svg width="142pt" height="240pt"
 viewBox="0.00 0.00 141.51 240.00" xmlns="http://www.w3.org/2000/svg" xmlns:xlink="http://www.w3.org/1999/xlink">
<g id="graph0" class="graph" transform="scale(1 1) rotate(0) translate(4 236)">
<title>dependency&#45;cruiser output</title>
<polygon fill="white" stroke="transparent" points="-4,4 -4,-236 137.51,-236 137.51,4 -4,4"/>
<g id="clust1" class="cluster">
<title>cluster_es5&#45;vs&#45;es6</title>
<path fill="#ffffff" stroke="black" stroke-width="2" d="M12,-8C12,-8 121.51,-8 121.51,-8 127.51,-8 133.51,-14 133.51,-20 133.51,-20 133.51,-212 133.51,-212 133.51,-218 127.51,-224 121.51,-224 121.51,-224 12,-224 12,-224 6,-224 0,-218 0,-212 0,-212 0,-20 0,-20 0,-14 6,-8 12,-8"/>
<text text-anchor="middle" x="66.75" y="-211.9" font-family="Helvetica,sans-Serif" font-weight="bold" font-size="9.00">es5&#45;vs&#45;es6</text>
</g>
<g id="clust2" class="cluster">
<title>cluster_es5&#45;vs&#45;es6/remover&#45;es5&#45;declarations</title>
<path fill="#ffffff" stroke="black" stroke-width="2" d="M20,-16C20,-16 113.51,-16 113.51,-16 119.51,-16 125.51,-22 125.51,-28 125.51,-28 125.51,-185 125.51,-185 125.51,-191 119.51,-197 113.51,-197 113.51,-197 20,-197 20,-197 14,-197 8,-191 8,-185 8,-185 8,-28 8,-28 8,-22 14,-16 20,-16"/>
<text text-anchor="middle" x="66.75" y="-184.9" font-family="Helvetica,sans-Serif" font-weight="bold" font-size="9.00">remover&#45;es5&#45;declarations</text>
</g>
<g id="clust3" class="cluster">
<title>cluster_es5&#45;vs&#45;es6/remover&#45;es5&#45;declarations/src</title>
<path fill="#ffffff" stroke="black" stroke-width="2" d="M41,-24C41,-24 92.51,-24 92.51,-24 98.51,-24 104.51,-30 104.51,-36 104.51,-36 104.51,-158 104.51,-158 104.51,-164 98.51,-170 92.51,-170 92.51,-170 41,-170 41,-170 35,-170 29,-164 29,-158 29,-158 29,-36 29,-36 29,-30 35,-24 41,-24"/>
<text text-anchor="middle" x="66.75" y="-157.9" font-family="Helvetica,sans-Serif" font-weight="bold" font-size="9.00">src</text>
</g>
<!-- es5&#45;vs&#45;es6/remover&#45;es5&#45;declarations/src/data.js -->
<g id="node1" class="node">
<title>es5&#45;vs&#45;es6/remover&#45;es5&#45;declarations/src/data.js</title>
<g id="a_node1"><a xlink:href="es5-vs-es6/remover-es5-declarations/src/data.js" xlink:title="data.js">
<path fill="#ccffcc" stroke="black" d="M87.55,-143.3C87.55,-143.3 45.95,-143.3 45.95,-143.3 42.85,-143.3 39.75,-140.2 39.75,-137.1 39.75,-137.1 39.75,-130.9 39.75,-130.9 39.75,-127.8 42.85,-124.7 45.95,-124.7 45.95,-124.7 87.55,-124.7 87.55,-124.7 90.65,-124.7 93.75,-127.8 93.75,-130.9 93.75,-130.9 93.75,-137.1 93.75,-137.1 93.75,-140.2 90.65,-143.3 87.55,-143.3"/>
<text text-anchor="middle" x="66.75" y="-131.3" font-family="Helvetica,sans-Serif" font-size="9.00">data.js</text>
</a>
</g>
</g>
<!-- es5&#45;vs&#45;es6/remover&#45;es5&#45;declarations/src/handlers.js -->
<g id="node2" class="node">
<title>es5&#45;vs&#45;es6/remover&#45;es5&#45;declarations/src/handlers.js</title>
<g id="a_node2"><a xlink:href="es5-vs-es6/remover-es5-declarations/src/handlers.js" xlink:title="handlers.js">
<path fill="#ccffcc" stroke="black" d="M90.06,-112.3C90.06,-112.3 43.45,-112.3 43.45,-112.3 40.34,-112.3 37.24,-109.2 37.24,-106.1 37.24,-106.1 37.24,-99.9 37.24,-99.9 37.24,-96.8 40.34,-93.7 43.45,-93.7 43.45,-93.7 90.06,-93.7 90.06,-93.7 93.16,-93.7 96.26,-96.8 96.26,-99.9 96.26,-99.9 96.26,-106.1 96.26,-106.1 96.26,-109.2 93.16,-112.3 90.06,-112.3"/>
<text text-anchor="middle" x="66.75" y="-100.3" font-family="Helvetica,sans-Serif" font-size="9.00">handlers.js</text>
</a>
</g>
</g>
<!-- es5&#45;vs&#45;es6/remover&#45;es5&#45;declarations/src/init.js -->
<g id="node3" class="node">
<title>es5&#45;vs&#45;es6/remover&#45;es5&#45;declarations/src/init.js</title>
<g id="a_node3"><a xlink:href="es5-vs-es6/remover-es5-declarations/src/init.js" xlink:title="init.js">
<path fill="#ccffcc" stroke="black" d="M87.55,-81.3C87.55,-81.3 45.95,-81.3 45.95,-81.3 42.85,-81.3 39.75,-78.2 39.75,-75.1 39.75,-75.1 39.75,-68.9 39.75,-68.9 39.75,-65.8 42.85,-62.7 45.95,-62.7 45.95,-62.7 87.55,-62.7 87.55,-62.7 90.65,-62.7 93.75,-65.8 93.75,-68.9 93.75,-68.9 93.75,-75.1 93.75,-75.1 93.75,-78.2 90.65,-81.3 87.55,-81.3"/>
<text text-anchor="middle" x="66.75" y="-69.3" font-family="Helvetica,sans-Serif" font-size="9.00">init.js</text>
</a>
</g>
</g>
<!-- es5&#45;vs&#45;es6/remover&#45;es5&#45;declarations/src/listeners.js -->
<g id="node4" class="node">
<title>es5&#45;vs&#45;es6/remover&#45;es5&#45;declarations/src/listeners.js</title>
<g id="a_node4"><a xlink:href="es5-vs-es6/remover-es5-declarations/src/listeners.js" xlink:title="listeners.js">
<path fill="#ccffcc" stroke="black" d="M90.05,-50.3C90.05,-50.3 43.45,-50.3 43.45,-50.3 40.35,-50.3 37.25,-47.2 37.25,-44.1 37.25,-44.1 37.25,-37.9 37.25,-37.9 37.25,-34.8 40.35,-31.7 43.45,-31.7 43.45,-31.7 90.05,-31.7 90.05,-31.7 93.15,-31.7 96.25,-34.8 96.25,-37.9 96.25,-37.9 96.25,-44.1 96.25,-44.1 96.25,-47.2 93.15,-50.3 90.05,-50.3"/>
<text text-anchor="middle" x="66.75" y="-38.3" font-family="Helvetica,sans-Serif" font-size="9.00">listeners.js</text>
</a>
</g>
</g>
</g>
</svg>
