<?xml version="1.0" encoding="UTF-8" standalone="no"?>
<!DOCTYPE svg PUBLIC "-//W3C//DTD SVG 1.1//EN"
 "http://www.w3.org/Graphics/SVG/1.1/DTD/svg11.dtd">
<!-- Generated by graphviz version 2.44.0 (20200408.0750)
 -->
<!-- Title: dependency&#45;cruiser output Pages: 1 -->
<svg width="236pt" height="310pt"
 viewBox="0.00 0.00 236.01 310.00" xmlns="http://www.w3.org/2000/svg" xmlns:xlink="http://www.w3.org/1999/xlink">
<g id="graph0" class="graph" transform="scale(1 1) rotate(0) translate(4 306)">
<title>dependency&#45;cruiser output</title>
<polygon fill="white" stroke="transparent" points="-4,4 -4,-306 232.01,-306 232.01,4 -4,4"/>
<g id="clust1" class="cluster">
<title>cluster_refactoring</title>
<path fill="#ffffff" stroke="black" stroke-width="2" d="M20,-8C20,-8 208.01,-8 208.01,-8 214.01,-8 220.01,-14 220.01,-20 220.01,-20 220.01,-282 220.01,-282 220.01,-288 214.01,-294 208.01,-294 208.01,-294 20,-294 20,-294 14,-294 8,-288 8,-282 8,-282 8,-20 8,-20 8,-14 14,-8 20,-8"/>
<text text-anchor="middle" x="114" y="-281.9" font-family="Helvetica,sans-Serif" font-weight="bold" font-size="9.00">refactoring</text>
</g>
<g id="clust2" class="cluster">
<title>cluster_refactoring/exercises</title>
<path fill="#ffffff" stroke="black" stroke-width="2" d="M28,-16C28,-16 200.01,-16 200.01,-16 206.01,-16 212.01,-22 212.01,-28 212.01,-28 212.01,-255 212.01,-255 212.01,-261 206.01,-267 200.01,-267 200.01,-267 28,-267 28,-267 22,-267 16,-261 16,-255 16,-255 16,-28 16,-28 16,-22 22,-16 28,-16"/>
<text text-anchor="middle" x="114" y="-254.9" font-family="Helvetica,sans-Serif" font-weight="bold" font-size="9.00">exercises</text>
</g>
<g id="clust3" class="cluster">
<title>cluster_refactoring/exercises/dom&#45;and&#45;events</title>
<path fill="#ffffff" stroke="black" stroke-width="2" d="M36,-24C36,-24 192.01,-24 192.01,-24 198.01,-24 204.01,-30 204.01,-36 204.01,-36 204.01,-228 204.01,-228 204.01,-234 198.01,-240 192.01,-240 192.01,-240 36,-240 36,-240 30,-240 24,-234 24,-228 24,-228 24,-36 24,-36 24,-30 30,-24 36,-24"/>
<text text-anchor="middle" x="114" y="-227.9" font-family="Helvetica,sans-Serif" font-weight="bold" font-size="9.00">dom&#45;and&#45;events</text>
</g>
<g id="clust4" class="cluster">
<title>cluster_refactoring/exercises/dom&#45;and&#45;events/flip&#45;book</title>
<path fill="#ffffff" stroke="black" stroke-width="2" d="M44,-32C44,-32 184.01,-32 184.01,-32 190.01,-32 196.01,-38 196.01,-44 196.01,-44 196.01,-201 196.01,-201 196.01,-207 190.01,-213 184.01,-213 184.01,-213 44,-213 44,-213 38,-213 32,-207 32,-201 32,-201 32,-44 32,-44 32,-38 38,-32 44,-32"/>
<text text-anchor="middle" x="114" y="-200.9" font-family="Helvetica,sans-Serif" font-weight="bold" font-size="9.00">flip&#45;book</text>
</g>
<g id="clust5" class="cluster">
<title>cluster_refactoring/exercises/dom&#45;and&#45;events/flip&#45;book/src</title>
<path fill="#ffffff" stroke="black" stroke-width="2" d="M52,-40C52,-40 176.01,-40 176.01,-40 182.01,-40 188.01,-46 188.01,-52 188.01,-52 188.01,-174 188.01,-174 188.01,-180 182.01,-186 176.01,-186 176.01,-186 52,-186 52,-186 46,-186 40,-180 40,-174 40,-174 40,-52 40,-52 40,-46 46,-40 52,-40"/>
<text text-anchor="middle" x="114" y="-173.9" font-family="Helvetica,sans-Serif" font-weight="bold" font-size="9.00">src</text>
</g>
<!-- refactoring/exercises/dom&#45;and&#45;events/flip&#45;book/src/handler.js -->
<g id="node1" class="node">
<title>refactoring/exercises/dom&#45;and&#45;events/flip&#45;book/src/handler.js</title>
<g id="a_node1"><a xlink:href="refactoring/exercises/dom-and-events/flip-book/src/handler.js" xlink:title="handler.js">
<path fill="#ccffcc" stroke="black" d="M101.81,-159.3C101.81,-159.3 59.2,-159.3 59.2,-159.3 56.1,-159.3 53,-156.2 53,-153.1 53,-153.1 53,-146.9 53,-146.9 53,-143.8 56.1,-140.7 59.2,-140.7 59.2,-140.7 101.81,-140.7 101.81,-140.7 104.91,-140.7 108.01,-143.8 108.01,-146.9 108.01,-146.9 108.01,-153.1 108.01,-153.1 108.01,-156.2 104.91,-159.3 101.81,-159.3"/>
<text text-anchor="middle" x="80.5" y="-147.3" font-family="Helvetica,sans-Serif" font-size="9.00">handler.js</text>
</a>
</g>
</g>
<!-- refactoring/exercises/dom&#45;and&#45;events/flip&#45;book/src/init.js -->
<g id="node2" class="node">
<title>refactoring/exercises/dom&#45;and&#45;events/flip&#45;book/src/init.js</title>
<g id="a_node2"><a xlink:href="refactoring/exercises/dom-and-events/flip-book/src/init.js" xlink:title="init.js">
<path fill="#ccffcc" stroke="black" d="M101.3,-128.3C101.3,-128.3 59.7,-128.3 59.7,-128.3 56.6,-128.3 53.5,-125.2 53.5,-122.1 53.5,-122.1 53.5,-115.9 53.5,-115.9 53.5,-112.8 56.6,-109.7 59.7,-109.7 59.7,-109.7 101.3,-109.7 101.3,-109.7 104.4,-109.7 107.5,-112.8 107.5,-115.9 107.5,-115.9 107.5,-122.1 107.5,-122.1 107.5,-125.2 104.4,-128.3 101.3,-128.3"/>
<text text-anchor="middle" x="80.5" y="-116.3" font-family="Helvetica,sans-Serif" font-size="9.00">init.js</text>
</a>
</g>
</g>
<!-- refactoring/exercises/dom&#45;and&#45;events/flip&#45;book/src/listener.js -->
<g id="node3" class="node">
<title>refactoring/exercises/dom&#45;and&#45;events/flip&#45;book/src/listener.js</title>
<g id="a_node3"><a xlink:href="refactoring/exercises/dom-and-events/flip-book/src/listener.js" xlink:title="listener.js">
<path fill="#ccffcc" stroke="black" d="M101.3,-97.3C101.3,-97.3 59.7,-97.3 59.7,-97.3 56.6,-97.3 53.5,-94.2 53.5,-91.1 53.5,-91.1 53.5,-84.9 53.5,-84.9 53.5,-81.8 56.6,-78.7 59.7,-78.7 59.7,-78.7 101.3,-78.7 101.3,-78.7 104.4,-78.7 107.5,-81.8 107.5,-84.9 107.5,-84.9 107.5,-91.1 107.5,-91.1 107.5,-94.2 104.4,-97.3 101.3,-97.3"/>
<text text-anchor="middle" x="80.5" y="-85.3" font-family="Helvetica,sans-Serif" font-size="9.00">listener.js</text>
</a>
</g>
</g>
<!-- refactoring/exercises/dom&#45;and&#45;events/flip&#45;book/src/logic.js -->
<g id="node4" class="node">
<title>refactoring/exercises/dom&#45;and&#45;events/flip&#45;book/src/logic.js</title>
<g id="a_node4"><a xlink:href="refactoring/exercises/dom-and-events/flip-book/src/logic.js" xlink:title="logic.js">
<path fill="#ffffcc" stroke="black" d="M173.81,-66.3C173.81,-66.3 132.21,-66.3 132.21,-66.3 129.11,-66.3 126.01,-63.2 126.01,-60.1 126.01,-60.1 126.01,-53.9 126.01,-53.9 126.01,-50.8 129.11,-47.7 132.21,-47.7 132.21,-47.7 173.81,-47.7 173.81,-47.7 176.91,-47.7 180.01,-50.8 180.01,-53.9 180.01,-53.9 180.01,-60.1 180.01,-60.1 180.01,-63.2 176.91,-66.3 173.81,-66.3"/>
<text text-anchor="middle" x="153.01" y="-54.3" font-family="Helvetica,sans-Serif" font-size="9.00">logic.js</text>
</a>
</g>
</g>
<!-- refactoring/exercises/dom&#45;and&#45;events/flip&#45;book/src/logic.spec.js -->
<g id="node5" class="node">
<title>refactoring/exercises/dom&#45;and&#45;events/flip&#45;book/src/logic.spec.js</title>
<g id="a_node5"><a xlink:href="refactoring/exercises/dom-and-events/flip-book/src/logic.spec.js" xlink:title="logic.spec.js">
<path fill="#ffffcc" stroke="black" d="M106.81,-66.3C106.81,-66.3 54.2,-66.3 54.2,-66.3 51.1,-66.3 48,-63.2 48,-60.1 48,-60.1 48,-53.9 48,-53.9 48,-50.8 51.1,-47.7 54.2,-47.7 54.2,-47.7 106.81,-47.7 106.81,-47.7 109.91,-47.7 113.01,-50.8 113.01,-53.9 113.01,-53.9 113.01,-60.1 113.01,-60.1 113.01,-63.2 109.91,-66.3 106.81,-66.3"/>
<text text-anchor="middle" x="80.5" y="-54.3" font-family="Helvetica,sans-Serif" font-size="9.00">logic.spec.js</text>
</a>
</g>
</g>
<!-- refactoring/exercises/dom&#45;and&#45;events/flip&#45;book/src/logic.spec.js&#45;&gt;refactoring/exercises/dom&#45;and&#45;events/flip&#45;book/src/logic.js -->
<g id="edge1" class="edge">
<title>refactoring/exercises/dom&#45;and&#45;events/flip&#45;book/src/logic.spec.js&#45;&gt;refactoring/exercises/dom&#45;and&#45;events/flip&#45;book/src/logic.js</title>
<path fill="none" stroke="#000000" stroke-width="2" stroke-opacity="0.200000" d="M113.04,-57C115.17,-57 117.31,-57 119.45,-57"/>
<polygon fill="#000000" fill-opacity="0.200000" stroke="#000000" stroke-width="2" stroke-opacity="0.200000" points="119.77,-59.1 125.77,-57 119.77,-54.9 119.77,-59.1"/>
</g>
</g>
</svg>
