<?xml version="1.0" encoding="UTF-8" standalone="no"?>
<!DOCTYPE svg PUBLIC "-//W3C//DTD SVG 1.1//EN"
 "http://www.w3.org/Graphics/SVG/1.1/DTD/svg11.dtd">
<!-- Generated by graphviz version 2.44.0 (20200408.0750)
 -->
<!-- Title: dependency&#45;cruiser output Pages: 1 -->
<svg width="159pt" height="310pt"
 viewBox="0.00 0.00 159.01 310.00" xmlns="http://www.w3.org/2000/svg" xmlns:xlink="http://www.w3.org/1999/xlink">
<g id="graph0" class="graph" transform="scale(1 1) rotate(0) translate(4 306)">
<title>dependency&#45;cruiser output</title>
<polygon fill="white" stroke="transparent" points="-4,4 -4,-306 155.01,-306 155.01,4 -4,4"/>
<g id="clust1" class="cluster">
<title>cluster_refactoring</title>
<path fill="#ffffff" stroke="black" stroke-width="2" d="M20,-8C20,-8 131.01,-8 131.01,-8 137.01,-8 143.01,-14 143.01,-20 143.01,-20 143.01,-282 143.01,-282 143.01,-288 137.01,-294 131.01,-294 131.01,-294 20,-294 20,-294 14,-294 8,-288 8,-282 8,-282 8,-20 8,-20 8,-14 14,-8 20,-8"/>
<text text-anchor="middle" x="75.5" y="-281.9" font-family="Helvetica,sans-Serif" font-weight="bold" font-size="9.00">refactoring</text>
</g>
<g id="clust2" class="cluster">
<title>cluster_refactoring/exercises</title>
<path fill="#ffffff" stroke="black" stroke-width="2" d="M28,-16C28,-16 123.01,-16 123.01,-16 129.01,-16 135.01,-22 135.01,-28 135.01,-28 135.01,-255 135.01,-255 135.01,-261 129.01,-267 123.01,-267 123.01,-267 28,-267 28,-267 22,-267 16,-261 16,-255 16,-255 16,-28 16,-28 16,-22 22,-16 28,-16"/>
<text text-anchor="middle" x="75.5" y="-254.9" font-family="Helvetica,sans-Serif" font-weight="bold" font-size="9.00">exercises</text>
</g>
<g id="clust3" class="cluster">
<title>cluster_refactoring/exercises/dom&#45;and&#45;events</title>
<path fill="#ffffff" stroke="black" stroke-width="2" d="M36,-24C36,-24 115.01,-24 115.01,-24 121.01,-24 127.01,-30 127.01,-36 127.01,-36 127.01,-228 127.01,-228 127.01,-234 121.01,-240 115.01,-240 115.01,-240 36,-240 36,-240 30,-240 24,-234 24,-228 24,-228 24,-36 24,-36 24,-30 30,-24 36,-24"/>
<text text-anchor="middle" x="75.5" y="-227.9" font-family="Helvetica,sans-Serif" font-weight="bold" font-size="9.00">dom&#45;and&#45;events</text>
</g>
<g id="clust4" class="cluster">
<title>cluster_refactoring/exercises/dom&#45;and&#45;events/flip&#45;book</title>
<path fill="#ffffff" stroke="black" stroke-width="2" d="M44,-32C44,-32 107.01,-32 107.01,-32 113.01,-32 119.01,-38 119.01,-44 119.01,-44 119.01,-201 119.01,-201 119.01,-207 113.01,-213 107.01,-213 107.01,-213 44,-213 44,-213 38,-213 32,-207 32,-201 32,-201 32,-44 32,-44 32,-38 38,-32 44,-32"/>
<text text-anchor="middle" x="75.5" y="-200.9" font-family="Helvetica,sans-Serif" font-weight="bold" font-size="9.00">flip&#45;book</text>
</g>
<g id="clust5" class="cluster">
<title>cluster_refactoring/exercises/dom&#45;and&#45;events/flip&#45;book/src</title>
<path fill="#ffffff" stroke="black" stroke-width="2" d="M52,-40C52,-40 99.01,-40 99.01,-40 105.01,-40 111.01,-46 111.01,-52 111.01,-52 111.01,-174 111.01,-174 111.01,-180 105.01,-186 99.01,-186 99.01,-186 52,-186 52,-186 46,-186 40,-180 40,-174 40,-174 40,-52 40,-52 40,-46 46,-40 52,-40"/>
<text text-anchor="middle" x="75.5" y="-173.9" font-family="Helvetica,sans-Serif" font-weight="bold" font-size="9.00">src</text>
</g>
<!-- refactoring/exercises/dom&#45;and&#45;events/flip&#45;book/src/handler.js -->
<g id="node1" class="node">
<title>refactoring/exercises/dom&#45;and&#45;events/flip&#45;book/src/handler.js</title>
<g id="a_node1"><a xlink:href="refactoring/exercises/dom-and-events/flip-book/src/handler.js" xlink:title="handler.js">
<path fill="#ccffcc" stroke="black" d="M96.81,-159.3C96.81,-159.3 54.2,-159.3 54.2,-159.3 51.1,-159.3 48,-156.2 48,-153.1 48,-153.1 48,-146.9 48,-146.9 48,-143.8 51.1,-140.7 54.2,-140.7 54.2,-140.7 96.81,-140.7 96.81,-140.7 99.91,-140.7 103.01,-143.8 103.01,-146.9 103.01,-146.9 103.01,-153.1 103.01,-153.1 103.01,-156.2 99.91,-159.3 96.81,-159.3"/>
<text text-anchor="middle" x="75.5" y="-147.3" font-family="Helvetica,sans-Serif" font-size="9.00">handler.js</text>
</a>
</g>
</g>
<!-- refactoring/exercises/dom&#45;and&#45;events/flip&#45;book/src/init.js -->
<g id="node2" class="node">
<title>refactoring/exercises/dom&#45;and&#45;events/flip&#45;book/src/init.js</title>
<g id="a_node2"><a xlink:href="refactoring/exercises/dom-and-events/flip-book/src/init.js" xlink:title="init.js">
<path fill="#ccffcc" stroke="black" d="M96.3,-128.3C96.3,-128.3 54.7,-128.3 54.7,-128.3 51.6,-128.3 48.5,-125.2 48.5,-122.1 48.5,-122.1 48.5,-115.9 48.5,-115.9 48.5,-112.8 51.6,-109.7 54.7,-109.7 54.7,-109.7 96.3,-109.7 96.3,-109.7 99.4,-109.7 102.5,-112.8 102.5,-115.9 102.5,-115.9 102.5,-122.1 102.5,-122.1 102.5,-125.2 99.4,-128.3 96.3,-128.3"/>
<text text-anchor="middle" x="75.5" y="-116.3" font-family="Helvetica,sans-Serif" font-size="9.00">init.js</text>
</a>
</g>
</g>
<!-- refactoring/exercises/dom&#45;and&#45;events/flip&#45;book/src/listener.js -->
<g id="node3" class="node">
<title>refactoring/exercises/dom&#45;and&#45;events/flip&#45;book/src/listener.js</title>
<g id="a_node3"><a xlink:href="refactoring/exercises/dom-and-events/flip-book/src/listener.js" xlink:title="listener.js">
<path fill="#ccffcc" stroke="black" d="M96.3,-97.3C96.3,-97.3 54.7,-97.3 54.7,-97.3 51.6,-97.3 48.5,-94.2 48.5,-91.1 48.5,-91.1 48.5,-84.9 48.5,-84.9 48.5,-81.8 51.6,-78.7 54.7,-78.7 54.7,-78.7 96.3,-78.7 96.3,-78.7 99.4,-78.7 102.5,-81.8 102.5,-84.9 102.5,-84.9 102.5,-91.1 102.5,-91.1 102.5,-94.2 99.4,-97.3 96.3,-97.3"/>
<text text-anchor="middle" x="75.5" y="-85.3" font-family="Helvetica,sans-Serif" font-size="9.00">listener.js</text>
</a>
</g>
</g>
<!-- refactoring/exercises/dom&#45;and&#45;events/flip&#45;book/src/logic.js -->
<g id="node4" class="node">
<title>refactoring/exercises/dom&#45;and&#45;events/flip&#45;book/src/logic.js</title>
<g id="a_node4"><a xlink:href="refactoring/exercises/dom-and-events/flip-book/src/logic.js" xlink:title="logic.js">
<path fill="#ccffcc" stroke="black" d="M96.3,-66.3C96.3,-66.3 54.7,-66.3 54.7,-66.3 51.6,-66.3 48.5,-63.2 48.5,-60.1 48.5,-60.1 48.5,-53.9 48.5,-53.9 48.5,-50.8 51.6,-47.7 54.7,-47.7 54.7,-47.7 96.3,-47.7 96.3,-47.7 99.4,-47.7 102.5,-50.8 102.5,-53.9 102.5,-53.9 102.5,-60.1 102.5,-60.1 102.5,-63.2 99.4,-66.3 96.3,-66.3"/>
<text text-anchor="middle" x="75.5" y="-54.3" font-family="Helvetica,sans-Serif" font-size="9.00">logic.js</text>
</a>
</g>
</g>
</g>
</svg>
