<?xml version="1.0" encoding="UTF-8" standalone="no"?>
<!DOCTYPE svg PUBLIC "-//W3C//DTD SVG 1.1//EN"
 "http://www.w3.org/Graphics/SVG/1.1/DTD/svg11.dtd">
<!-- Generated by graphviz version 2.44.0 (20200408.0750)
 -->
<!-- Title: dependency&#45;cruiser output Pages: 1 -->
<svg width="410pt" height="382pt"
 viewBox="0.00 0.00 410.47 382.00" xmlns="http://www.w3.org/2000/svg" xmlns:xlink="http://www.w3.org/1999/xlink">
<g id="graph0" class="graph" transform="scale(1 1) rotate(0) translate(4 378)">
<title>dependency&#45;cruiser output</title>
<polygon fill="white" stroke="transparent" points="-4,4 -4,-378 406.47,-378 406.47,4 -4,4"/>
<g id="clust1" class="cluster">
<title>cluster_</title>
<path fill="#ffffff" stroke="black" stroke-width="2" d="M299.98,-8C299.98,-8 361.98,-8 361.98,-8 367.98,-8 373.98,-14 373.98,-20 373.98,-20 373.98,-65 373.98,-65 373.98,-71 367.98,-77 361.98,-77 361.98,-77 299.98,-77 299.98,-77 293.98,-77 287.98,-71 287.98,-65 287.98,-65 287.98,-20 287.98,-20 287.98,-14 293.98,-8 299.98,-8"/>
</g>
<g id="clust2" class="cluster">
<title>cluster_/.lib</title>
<path fill="#ffffff" stroke="black" stroke-width="2" d="M307.98,-16C307.98,-16 353.98,-16 353.98,-16 359.98,-16 365.98,-22 365.98,-28 365.98,-28 365.98,-57 365.98,-57 365.98,-63 359.98,-69 353.98,-69 353.98,-69 307.98,-69 307.98,-69 301.98,-69 295.98,-63 295.98,-57 295.98,-57 295.98,-28 295.98,-28 295.98,-22 301.98,-16 307.98,-16"/>
<text text-anchor="middle" x="330.98" y="-56.9" font-family="Helvetica,sans-Serif" font-weight="bold" font-size="9.00">.lib</text>
</g>
<g id="clust3" class="cluster">
<title>cluster_separated</title>
<path fill="#ffffff" stroke="black" stroke-width="2" d="M20,-85C20,-85 382.47,-85 382.47,-85 388.47,-85 394.47,-91 394.47,-97 394.47,-97 394.47,-354 394.47,-354 394.47,-360 388.47,-366 382.47,-366 382.47,-366 20,-366 20,-366 14,-366 8,-360 8,-354 8,-354 8,-97 8,-97 8,-91 14,-85 20,-85"/>
<text text-anchor="middle" x="201.24" y="-353.9" font-family="Helvetica,sans-Serif" font-weight="bold" font-size="9.00">separated</text>
</g>
<g id="clust4" class="cluster">
<title>cluster_separated/list&#45;component</title>
<path fill="#ffffff" stroke="black" stroke-width="2" d="M28,-93C28,-93 374.47,-93 374.47,-93 380.47,-93 386.47,-99 386.47,-105 386.47,-105 386.47,-327 386.47,-327 386.47,-333 380.47,-339 374.47,-339 374.47,-339 28,-339 28,-339 22,-339 16,-333 16,-327 16,-327 16,-105 16,-105 16,-99 22,-93 28,-93"/>
<text text-anchor="middle" x="201.24" y="-326.9" font-family="Helvetica,sans-Serif" font-weight="bold" font-size="9.00">list&#45;component</text>
</g>
<g id="clust5" class="cluster">
<title>cluster_separated/list&#45;component/src</title>
<path fill="#ffffff" stroke="black" stroke-width="2" d="M36,-101C36,-101 366.47,-101 366.47,-101 372.47,-101 378.47,-107 378.47,-113 378.47,-113 378.47,-300 378.47,-300 378.47,-306 372.47,-312 366.47,-312 366.47,-312 36,-312 36,-312 30,-312 24,-306 24,-300 24,-300 24,-113 24,-113 24,-107 30,-101 36,-101"/>
<text text-anchor="middle" x="201.24" y="-299.9" font-family="Helvetica,sans-Serif" font-weight="bold" font-size="9.00">src</text>
</g>
<g id="clust6" class="cluster">
<title>cluster_separated/list&#45;component/src/components</title>
<path fill="#ffffff" stroke="black" stroke-width="2" d="M303.48,-169C303.48,-169 358.47,-169 358.47,-169 364.47,-169 370.47,-175 370.47,-181 370.47,-181 370.47,-210 370.47,-210 370.47,-216 364.47,-222 358.47,-222 358.47,-222 303.48,-222 303.48,-222 297.48,-222 291.48,-216 291.48,-210 291.48,-210 291.48,-181 291.48,-181 291.48,-175 297.48,-169 303.48,-169"/>
<text text-anchor="middle" x="330.98" y="-209.9" font-family="Helvetica,sans-Serif" font-weight="bold" font-size="9.00">components</text>
</g>
<g id="clust7" class="cluster">
<title>cluster_separated/list&#45;component/src/handlers</title>
<path fill="#ffffff" stroke="black" stroke-width="2" d="M206.99,-135C206.99,-135 267.98,-135 267.98,-135 273.98,-135 279.98,-141 279.98,-147 279.98,-147 279.98,-238 279.98,-238 279.98,-244 273.98,-250 267.98,-250 267.98,-250 206.99,-250 206.99,-250 200.99,-250 194.99,-244 194.99,-238 194.99,-238 194.99,-147 194.99,-147 194.99,-141 200.99,-135 206.99,-135"/>
<text text-anchor="middle" x="237.48" y="-237.9" font-family="Helvetica,sans-Serif" font-weight="bold" font-size="9.00">handlers</text>
</g>
<g id="clust8" class="cluster">
<title>cluster_separated/list&#45;component/src/init</title>
<path fill="#ffffff" stroke="black" stroke-width="2" d="M44,-109C44,-109 170.25,-109 170.25,-109 176.25,-109 182.25,-115 182.25,-121 182.25,-121 182.25,-150 182.25,-150 182.25,-156 176.25,-162 170.25,-162 170.25,-162 44,-162 44,-162 38,-162 32,-156 32,-150 32,-150 32,-121 32,-121 32,-115 38,-109 44,-109"/>
<text text-anchor="middle" x="107.12" y="-149.9" font-family="Helvetica,sans-Serif" font-weight="bold" font-size="9.00">init</text>
</g>
<g id="clust9" class="cluster">
<title>cluster_separated/list&#45;component/src/listeners</title>
<path fill="#ffffff" stroke="black" stroke-width="2" d="M114,-170C114,-170 174.99,-170 174.99,-170 180.99,-170 186.99,-176 186.99,-182 186.99,-182 186.99,-273 186.99,-273 186.99,-279 180.99,-285 174.99,-285 174.99,-285 114,-285 114,-285 108,-285 102,-279 102,-273 102,-273 102,-182 102,-182 102,-176 108,-170 114,-170"/>
<text text-anchor="middle" x="144.49" y="-272.9" font-family="Helvetica,sans-Serif" font-weight="bold" font-size="9.00">listeners</text>
</g>
<!-- /.lib/logger.js -->
<g id="node1" class="node">
<title>/.lib/logger.js</title>
<polygon fill="#ffffcc" stroke="red" points="357.98,-42.3 356.43,-44.37 345.58,-44.37 344.03,-42.3 303.98,-42.3 303.98,-23.7 357.98,-23.7 357.98,-42.3"/>
<text text-anchor="middle" x="330.98" y="-30.3" font-family="Helvetica,sans-Serif" font-size="9.00" fill="red">logger.js</text>
</g>
<!-- separated/list&#45;component/src/components/words&#45;list.js -->
<g id="node2" class="node">
<title>separated/list&#45;component/src/components/words&#45;list.js</title>
<g id="a_node2"><a xlink:href="separated/list-component/src/components/words-list.js" xlink:title="words&#45;list.js">
<path fill="#ffffcc" stroke="black" d="M356.27,-195.3C356.27,-195.3 305.69,-195.3 305.69,-195.3 302.59,-195.3 299.49,-192.2 299.49,-189.1 299.49,-189.1 299.49,-182.9 299.49,-182.9 299.49,-179.8 302.59,-176.7 305.69,-176.7 305.69,-176.7 356.27,-176.7 356.27,-176.7 359.37,-176.7 362.47,-179.8 362.47,-182.9 362.47,-182.9 362.47,-189.1 362.47,-189.1 362.47,-192.2 359.37,-195.3 356.27,-195.3"/>
<text text-anchor="middle" x="330.98" y="-183.3" font-family="Helvetica,sans-Serif" font-size="9.00">words&#45;list.js</text>
</a>
</g>
</g>
<!-- separated/list&#45;component/src/data.js -->
<g id="node3" class="node">
<title>separated/list&#45;component/src/data.js</title>
<g id="a_node3"><a xlink:href="separated/list-component/src/data.js" xlink:title="data.js">
<path fill="#ffffcc" stroke="black" d="M351.78,-161.3C351.78,-161.3 310.18,-161.3 310.18,-161.3 307.08,-161.3 303.98,-158.2 303.98,-155.1 303.98,-155.1 303.98,-148.9 303.98,-148.9 303.98,-145.8 307.08,-142.7 310.18,-142.7 310.18,-142.7 351.78,-142.7 351.78,-142.7 354.88,-142.7 357.98,-145.8 357.98,-148.9 357.98,-148.9 357.98,-155.1 357.98,-155.1 357.98,-158.2 354.88,-161.3 351.78,-161.3"/>
<text text-anchor="middle" x="330.98" y="-149.3" font-family="Helvetica,sans-Serif" font-size="9.00">data.js</text>
</a>
</g>
</g>
<!-- separated/list&#45;component/src/handlers/add&#45;word.js -->
<g id="node4" class="node">
<title>separated/list&#45;component/src/handlers/add&#45;word.js</title>
<g id="a_node4"><a xlink:href="separated/list-component/src/handlers/add-word.js" xlink:title="add&#45;word.js">
<path fill="#ffffcc" stroke="black" d="M262.29,-223.3C262.29,-223.3 212.68,-223.3 212.68,-223.3 209.58,-223.3 206.48,-220.2 206.48,-217.1 206.48,-217.1 206.48,-210.9 206.48,-210.9 206.48,-207.8 209.58,-204.7 212.68,-204.7 212.68,-204.7 262.29,-204.7 262.29,-204.7 265.39,-204.7 268.49,-207.8 268.49,-210.9 268.49,-210.9 268.49,-217.1 268.49,-217.1 268.49,-220.2 265.39,-223.3 262.29,-223.3"/>
<text text-anchor="middle" x="237.48" y="-211.3" font-family="Helvetica,sans-Serif" font-size="9.00">add&#45;word.js</text>
</a>
</g>
</g>
<!-- separated/list&#45;component/src/handlers/add&#45;word.js&#45;&gt;/.lib/logger.js -->
<g id="edge3" class="edge">
<title>separated/list&#45;component/src/handlers/add&#45;word.js&#45;&gt;/.lib/logger.js</title>
<path fill="none" stroke="#000000" stroke-width="2" stroke-opacity="0.200000" d="M268.51,-207.18C272.95,-204.94 277.02,-201.96 279.98,-198 293.32,-180.14 280.82,-119.11 287.98,-98 294.47,-78.85 307.84,-59.75 317.77,-47.26"/>
<polygon fill="#000000" fill-opacity="0.200000" stroke="#000000" stroke-width="2" stroke-opacity="0.200000" points="319.62,-48.31 321.78,-42.33 316.36,-45.66 319.62,-48.31"/>
</g>
<!-- separated/list&#45;component/src/handlers/add&#45;word.js&#45;&gt;separated/list&#45;component/src/components/words&#45;list.js -->
<g id="edge1" class="edge">
<title>separated/list&#45;component/src/handlers/add&#45;word.js&#45;&gt;separated/list&#45;component/src/components/words&#45;list.js</title>
<path fill="none" stroke="#000000" stroke-width="2" stroke-opacity="0.200000" d="M268.7,-204.75C276.58,-202.34 285.16,-199.72 293.33,-197.22"/>
<polygon fill="#000000" fill-opacity="0.200000" stroke="#000000" stroke-width="2" stroke-opacity="0.200000" points="294.36,-199.1 299.49,-195.33 293.13,-195.08 294.36,-199.1"/>
</g>
<!-- separated/list&#45;component/src/handlers/add&#45;word.js&#45;&gt;separated/list&#45;component/src/data.js -->
<g id="edge2" class="edge">
<title>separated/list&#45;component/src/handlers/add&#45;word.js&#45;&gt;separated/list&#45;component/src/data.js</title>
<path fill="none" stroke="#000000" stroke-width="2" stroke-opacity="0.200000" d="M268.81,-206.33C273,-204.19 276.91,-201.47 279.98,-198 289.69,-187.02 278.02,-176.76 287.98,-166 290.79,-162.97 294.27,-160.59 298.01,-158.73"/>
<polygon fill="#000000" fill-opacity="0.200000" stroke="#000000" stroke-width="2" stroke-opacity="0.200000" points="298.93,-160.62 303.64,-156.36 297.3,-156.75 298.93,-160.62"/>
</g>
<!-- separated/list&#45;component/src/handlers/filter&#45;words.js -->
<g id="node5" class="node">
<title>separated/list&#45;component/src/handlers/filter&#45;words.js</title>
<g id="a_node5"><a xlink:href="separated/list-component/src/handlers/filter-words.js" xlink:title="filter&#45;words.js">
<path fill="#ffffcc" stroke="black" d="M265.77,-192.3C265.77,-192.3 209.2,-192.3 209.2,-192.3 206.1,-192.3 202.99,-189.2 202.99,-186.1 202.99,-186.1 202.99,-179.9 202.99,-179.9 202.99,-176.8 206.1,-173.7 209.2,-173.7 209.2,-173.7 265.77,-173.7 265.77,-173.7 268.87,-173.7 271.97,-176.8 271.97,-179.9 271.97,-179.9 271.97,-186.1 271.97,-186.1 271.97,-189.2 268.87,-192.3 265.77,-192.3"/>
<text text-anchor="middle" x="237.48" y="-180.3" font-family="Helvetica,sans-Serif" font-size="9.00">filter&#45;words.js</text>
</a>
</g>
</g>
<!-- separated/list&#45;component/src/handlers/filter&#45;words.js&#45;&gt;/.lib/logger.js -->
<g id="edge6" class="edge">
<title>separated/list&#45;component/src/handlers/filter&#45;words.js&#45;&gt;/.lib/logger.js</title>
<path fill="none" stroke="#000000" stroke-width="2" stroke-opacity="0.200000" d="M272.05,-174.03C275.07,-172.12 277.8,-169.81 279.98,-167 289.43,-154.8 282.76,-112.53 287.98,-98 294.81,-78.97 308.12,-59.85 317.94,-47.32"/>
<polygon fill="#000000" fill-opacity="0.200000" stroke="#000000" stroke-width="2" stroke-opacity="0.200000" points="319.79,-48.37 321.9,-42.38 316.51,-45.75 319.79,-48.37"/>
</g>
<!-- separated/list&#45;component/src/handlers/filter&#45;words.js&#45;&gt;separated/list&#45;component/src/components/words&#45;list.js -->
<g id="edge4" class="edge">
<title>separated/list&#45;component/src/handlers/filter&#45;words.js&#45;&gt;separated/list&#45;component/src/components/words&#45;list.js</title>
<path fill="none" stroke="#000000" stroke-width="2" stroke-opacity="0.200000" d="M272.03,-184.1C278.91,-184.33 286.17,-184.56 293.15,-184.79"/>
<polygon fill="#000000" fill-opacity="0.200000" stroke="#000000" stroke-width="2" stroke-opacity="0.200000" points="293.4,-186.9 299.46,-185 293.54,-182.7 293.4,-186.9"/>
</g>
<!-- separated/list&#45;component/src/handlers/filter&#45;words.js&#45;&gt;separated/list&#45;component/src/data.js -->
<g id="edge5" class="edge">
<title>separated/list&#45;component/src/handlers/filter&#45;words.js&#45;&gt;separated/list&#45;component/src/data.js</title>
<path fill="none" stroke="#000000" stroke-width="2" stroke-opacity="0.200000" d="M265.44,-173.69C272.75,-171.18 280.66,-168.48 287.98,-166 291.16,-164.92 294.49,-163.8 297.81,-162.69"/>
<polygon fill="#000000" fill-opacity="0.200000" stroke="#000000" stroke-width="2" stroke-opacity="0.200000" points="298.73,-164.6 303.75,-160.7 297.4,-160.61 298.73,-164.6"/>
</g>
<!-- separated/list&#45;component/src/handlers/reset.js -->
<g id="node6" class="node">
<title>separated/list&#45;component/src/handlers/reset.js</title>
<g id="a_node6"><a xlink:href="separated/list-component/src/handlers/reset.js" xlink:title="reset.js">
<path fill="#ffffcc" stroke="black" d="M258.28,-161.3C258.28,-161.3 216.68,-161.3 216.68,-161.3 213.58,-161.3 210.48,-158.2 210.48,-155.1 210.48,-155.1 210.48,-148.9 210.48,-148.9 210.48,-145.8 213.58,-142.7 216.68,-142.7 216.68,-142.7 258.28,-142.7 258.28,-142.7 261.38,-142.7 264.48,-145.8 264.48,-148.9 264.48,-148.9 264.48,-155.1 264.48,-155.1 264.48,-158.2 261.38,-161.3 258.28,-161.3"/>
<text text-anchor="middle" x="237.48" y="-149.3" font-family="Helvetica,sans-Serif" font-size="9.00">reset.js</text>
</a>
</g>
</g>
<!-- separated/list&#45;component/src/handlers/reset.js&#45;&gt;/.lib/logger.js -->
<g id="edge9" class="edge">
<title>separated/list&#45;component/src/handlers/reset.js&#45;&gt;/.lib/logger.js</title>
<path fill="none" stroke="#000000" stroke-width="2" stroke-opacity="0.200000" d="M245.66,-142.66C261.55,-122 299.79,-72.27 318.82,-47.51"/>
<polygon fill="#000000" fill-opacity="0.200000" stroke="#000000" stroke-width="2" stroke-opacity="0.200000" points="320.59,-48.66 322.58,-42.62 317.26,-46.1 320.59,-48.66"/>
</g>
<!-- separated/list&#45;component/src/handlers/reset.js&#45;&gt;separated/list&#45;component/src/components/words&#45;list.js -->
<g id="edge7" class="edge">
<title>separated/list&#45;component/src/handlers/reset.js&#45;&gt;separated/list&#45;component/src/components/words&#45;list.js</title>
<path fill="none" stroke="#000000" stroke-width="2" stroke-opacity="0.200000" d="M264.71,-161.24C269.85,-163.29 275.14,-165.58 279.98,-168 283.73,-169.87 284.17,-171.25 287.98,-173 289.78,-173.83 291.65,-174.62 293.56,-175.38"/>
<polygon fill="#000000" fill-opacity="0.200000" stroke="#000000" stroke-width="2" stroke-opacity="0.200000" points="292.99,-177.41 299.35,-177.54 294.46,-173.47 292.99,-177.41"/>
</g>
<!-- separated/list&#45;component/src/handlers/reset.js&#45;&gt;separated/list&#45;component/src/data.js -->
<g id="edge8" class="edge">
<title>separated/list&#45;component/src/handlers/reset.js&#45;&gt;separated/list&#45;component/src/data.js</title>
<path fill="none" stroke="#000000" stroke-width="2" stroke-opacity="0.200000" d="M264.95,-152C275.18,-152 287,-152 297.72,-152"/>
<polygon fill="#000000" fill-opacity="0.200000" stroke="#000000" stroke-width="2" stroke-opacity="0.200000" points="297.89,-154.1 303.89,-152 297.89,-149.9 297.89,-154.1"/>
</g>
<!-- separated/list&#45;component/src/init/index.js -->
<g id="node7" class="node">
<title>separated/list&#45;component/src/init/index.js</title>
<g id="a_node7"><a xlink:href="separated/list-component/src/init/index.js" xlink:title="index.js">
<path fill="#ffffcc" stroke="black" d="M87.8,-135.3C87.8,-135.3 46.2,-135.3 46.2,-135.3 43.1,-135.3 40,-132.2 40,-129.1 40,-129.1 40,-122.9 40,-122.9 40,-119.8 43.1,-116.7 46.2,-116.7 46.2,-116.7 87.8,-116.7 87.8,-116.7 90.9,-116.7 94,-119.8 94,-122.9 94,-122.9 94,-129.1 94,-129.1 94,-132.2 90.9,-135.3 87.8,-135.3"/>
<text text-anchor="middle" x="67" y="-123.3" font-family="Helvetica,sans-Serif" font-size="9.00">index.js</text>
</a>
</g>
</g>
<!-- separated/list&#45;component/src/listeners/add&#45;word.js -->
<g id="node8" class="node">
<title>separated/list&#45;component/src/listeners/add&#45;word.js</title>
<g id="a_node8"><a xlink:href="separated/list-component/src/listeners/add-word.js" xlink:title="add&#45;word.js">
<path fill="#ffffcc" stroke="black" d="M169.3,-258.3C169.3,-258.3 119.69,-258.3 119.69,-258.3 116.59,-258.3 113.49,-255.2 113.49,-252.1 113.49,-252.1 113.49,-245.9 113.49,-245.9 113.49,-242.8 116.59,-239.7 119.69,-239.7 119.69,-239.7 169.3,-239.7 169.3,-239.7 172.4,-239.7 175.5,-242.8 175.5,-245.9 175.5,-245.9 175.5,-252.1 175.5,-252.1 175.5,-255.2 172.4,-258.3 169.3,-258.3"/>
<text text-anchor="middle" x="144.49" y="-246.3" font-family="Helvetica,sans-Serif" font-size="9.00">add&#45;word.js</text>
</a>
</g>
</g>
<!-- separated/list&#45;component/src/init/index.js&#45;&gt;separated/list&#45;component/src/listeners/add&#45;word.js -->
<g id="edge10" class="edge">
<title>separated/list&#45;component/src/init/index.js&#45;&gt;separated/list&#45;component/src/listeners/add&#45;word.js</title>
<path fill="none" stroke="#000000" stroke-width="2" stroke-opacity="0.200000" d="M68.35,-135.35C69.62,-155.77 75.41,-204.76 102,-233 103.79,-234.9 105.82,-236.57 108.01,-238.05"/>
<polygon fill="#000000" fill-opacity="0.200000" stroke="#000000" stroke-width="2" stroke-opacity="0.200000" points="107.11,-239.96 113.35,-241.16 109.22,-236.33 107.11,-239.96"/>
</g>
<!-- separated/list&#45;component/src/listeners/filter&#45;words.js -->
<g id="node9" class="node">
<title>separated/list&#45;component/src/listeners/filter&#45;words.js</title>
<g id="a_node9"><a xlink:href="separated/list-component/src/listeners/filter-words.js" xlink:title="filter&#45;words.js">
<path fill="#ffffcc" stroke="black" d="M172.78,-227.3C172.78,-227.3 116.21,-227.3 116.21,-227.3 113.11,-227.3 110.01,-224.2 110.01,-221.1 110.01,-221.1 110.01,-214.9 110.01,-214.9 110.01,-211.8 113.11,-208.7 116.21,-208.7 116.21,-208.7 172.78,-208.7 172.78,-208.7 175.88,-208.7 178.98,-211.8 178.98,-214.9 178.98,-214.9 178.98,-221.1 178.98,-221.1 178.98,-224.2 175.88,-227.3 172.78,-227.3"/>
<text text-anchor="middle" x="144.49" y="-215.3" font-family="Helvetica,sans-Serif" font-size="9.00">filter&#45;words.js</text>
</a>
</g>
</g>
<!-- separated/list&#45;component/src/init/index.js&#45;&gt;separated/list&#45;component/src/listeners/filter&#45;words.js -->
<g id="edge11" class="edge">
<title>separated/list&#45;component/src/init/index.js&#45;&gt;separated/list&#45;component/src/listeners/filter&#45;words.js</title>
<path fill="none" stroke="#000000" stroke-width="2" stroke-opacity="0.200000" d="M69.8,-135.53C73.29,-151.42 82.39,-183.4 102,-202 103.26,-203.2 104.62,-204.3 106.05,-205.33"/>
<polygon fill="#000000" fill-opacity="0.200000" stroke="#000000" stroke-width="2" stroke-opacity="0.200000" points="104.95,-207.12 111.15,-208.53 107.18,-203.56 104.95,-207.12"/>
</g>
<!-- separated/list&#45;component/src/listeners/reset.js -->
<g id="node10" class="node">
<title>separated/list&#45;component/src/listeners/reset.js</title>
<g id="a_node10"><a xlink:href="separated/list-component/src/listeners/reset.js" xlink:title="reset.js">
<path fill="#ffffcc" stroke="black" d="M165.29,-196.3C165.29,-196.3 123.7,-196.3 123.7,-196.3 120.6,-196.3 117.49,-193.2 117.49,-190.1 117.49,-190.1 117.49,-183.9 117.49,-183.9 117.49,-180.8 120.6,-177.7 123.7,-177.7 123.7,-177.7 165.29,-177.7 165.29,-177.7 168.39,-177.7 171.49,-180.8 171.49,-183.9 171.49,-183.9 171.49,-190.1 171.49,-190.1 171.49,-193.2 168.39,-196.3 165.29,-196.3"/>
<text text-anchor="middle" x="144.49" y="-184.3" font-family="Helvetica,sans-Serif" font-size="9.00">reset.js</text>
</a>
</g>
</g>
<!-- separated/list&#45;component/src/init/index.js&#45;&gt;separated/list&#45;component/src/listeners/reset.js -->
<g id="edge12" class="edge">
<title>separated/list&#45;component/src/init/index.js&#45;&gt;separated/list&#45;component/src/listeners/reset.js</title>
<path fill="none" stroke="#000000" stroke-width="2" stroke-opacity="0.200000" d="M74.73,-135.55C81.06,-144.04 91.16,-156.4 102,-165 106.5,-168.57 111.67,-171.85 116.8,-174.71"/>
<polygon fill="#000000" fill-opacity="0.200000" stroke="#000000" stroke-width="2" stroke-opacity="0.200000" points="116.03,-176.69 122.32,-177.66 118.01,-172.98 116.03,-176.69"/>
</g>
<!-- separated/list&#45;component/src/init/log&#45;state.js -->
<g id="node11" class="node">
<title>separated/list&#45;component/src/init/log&#45;state.js</title>
<g id="a_node11"><a xlink:href="separated/list-component/src/init/log-state.js" xlink:title="log&#45;state.js">
<path fill="#ffffcc" stroke="black" d="M167.8,-135.3C167.8,-135.3 121.19,-135.3 121.19,-135.3 118.09,-135.3 114.99,-132.2 114.99,-129.1 114.99,-129.1 114.99,-122.9 114.99,-122.9 114.99,-119.8 118.09,-116.7 121.19,-116.7 121.19,-116.7 167.8,-116.7 167.8,-116.7 170.9,-116.7 174,-119.8 174,-122.9 174,-122.9 174,-129.1 174,-129.1 174,-132.2 170.9,-135.3 167.8,-135.3"/>
<text text-anchor="middle" x="144.49" y="-123.3" font-family="Helvetica,sans-Serif" font-size="9.00">log&#45;state.js</text>
</a>
</g>
</g>
<!-- separated/list&#45;component/src/init/index.js&#45;&gt;separated/list&#45;component/src/init/log&#45;state.js -->
<g id="edge13" class="edge">
<title>separated/list&#45;component/src/init/index.js&#45;&gt;separated/list&#45;component/src/init/log&#45;state.js</title>
<path fill="none" stroke="#000000" stroke-width="2" stroke-opacity="0.200000" d="M94.4,-126C99.07,-126 103.99,-126 108.84,-126"/>
<polygon fill="#000000" fill-opacity="0.200000" stroke="#000000" stroke-width="2" stroke-opacity="0.200000" points="108.92,-128.1 114.92,-126 108.92,-123.9 108.92,-128.1"/>
</g>
<!-- separated/list&#45;component/src/listeners/add&#45;word.js&#45;&gt;separated/list&#45;component/src/handlers/add&#45;word.js -->
<g id="edge16" class="edge">
<title>separated/list&#45;component/src/listeners/add&#45;word.js&#45;&gt;separated/list&#45;component/src/handlers/add&#45;word.js</title>
<path fill="none" stroke="#000000" stroke-width="2" stroke-opacity="0.200000" d="M169.88,-239.62C181.1,-235.31 194.52,-230.14 206.36,-225.59"/>
<polygon fill="#000000" fill-opacity="0.200000" stroke="#000000" stroke-width="2" stroke-opacity="0.200000" points="207.19,-227.52 212.03,-223.41 205.68,-223.6 207.19,-227.52"/>
</g>
<!-- separated/list&#45;component/src/listeners/filter&#45;words.js&#45;&gt;separated/list&#45;component/src/handlers/filter&#45;words.js -->
<g id="edge17" class="edge">
<title>separated/list&#45;component/src/listeners/filter&#45;words.js&#45;&gt;separated/list&#45;component/src/handlers/filter&#45;words.js</title>
<path fill="none" stroke="#000000" stroke-width="2" stroke-opacity="0.200000" d="M169.88,-208.62C181.1,-204.31 194.52,-199.14 206.36,-194.59"/>
<polygon fill="#000000" fill-opacity="0.200000" stroke="#000000" stroke-width="2" stroke-opacity="0.200000" points="207.19,-196.52 212.03,-192.41 205.68,-192.6 207.19,-196.52"/>
</g>
<!-- separated/list&#45;component/src/listeners/reset.js&#45;&gt;separated/list&#45;component/src/handlers/reset.js -->
<g id="edge18" class="edge">
<title>separated/list&#45;component/src/listeners/reset.js&#45;&gt;separated/list&#45;component/src/handlers/reset.js</title>
<path fill="none" stroke="#000000" stroke-width="2" stroke-opacity="0.200000" d="M169.88,-177.62C181.1,-173.31 194.52,-168.14 206.36,-163.59"/>
<polygon fill="#000000" fill-opacity="0.200000" stroke="#000000" stroke-width="2" stroke-opacity="0.200000" points="207.19,-165.52 212.03,-161.41 205.68,-161.6 207.19,-165.52"/>
</g>
<!-- separated/list&#45;component/src/init/log&#45;state.js&#45;&gt;/.lib/logger.js -->
<g id="edge15" class="edge">
<title>separated/list&#45;component/src/init/log&#45;state.js&#45;&gt;/.lib/logger.js</title>
<path fill="none" stroke="#000000" stroke-width="2" stroke-opacity="0.200000" d="M161.4,-116.65C171.03,-111.07 183.62,-103.95 194.99,-98 232.22,-78.53 276.2,-57.76 303.6,-45.07"/>
<polygon fill="#000000" fill-opacity="0.200000" stroke="#000000" stroke-width="2" stroke-opacity="0.200000" points="304.62,-46.91 309.19,-42.49 302.86,-43.1 304.62,-46.91"/>
</g>
<!-- separated/list&#45;component/src/init/log&#45;state.js&#45;&gt;separated/list&#45;component/src/data.js -->
<g id="edge14" class="edge">
<title>separated/list&#45;component/src/init/log&#45;state.js&#45;&gt;separated/list&#45;component/src/data.js</title>
<path fill="none" stroke="#000000" stroke-width="2" stroke-opacity="0.200000" d="M174.18,-124.53C201.66,-123.76 244.11,-124.26 279.98,-132 288.43,-133.82 297.29,-136.94 305.17,-140.17"/>
<polygon fill="#000000" fill-opacity="0.200000" stroke="#000000" stroke-width="2" stroke-opacity="0.200000" points="304.64,-142.23 310.98,-142.65 306.29,-138.37 304.64,-142.23"/>
</g>
</g>
</svg>
