<?xml version="1.0" encoding="UTF-8" standalone="no"?>
<!DOCTYPE svg PUBLIC "-//W3C//DTD SVG 1.1//EN"
 "http://www.w3.org/Graphics/SVG/1.1/DTD/svg11.dtd">
<!-- Generated by graphviz version 2.44.0 (20200408.0750)
 -->
<!-- Title: dependency&#45;cruiser output Pages: 1 -->
<svg width="497pt" height="376pt"
 viewBox="0.00 0.00 496.99 376.00" xmlns="http://www.w3.org/2000/svg" xmlns:xlink="http://www.w3.org/1999/xlink">
<g id="graph0" class="graph" transform="scale(1 1) rotate(0) translate(4 372)">
<title>dependency&#45;cruiser output</title>
<polygon fill="white" stroke="transparent" points="-4,4 -4,-372 492.99,-372 492.99,4 -4,4"/>
<g id="clust1" class="cluster">
<title>cluster_lib</title>
<path fill="#ffffff" stroke="black" stroke-width="2" d="M308.98,-8C308.98,-8 468.99,-8 468.99,-8 474.99,-8 480.99,-14 480.99,-20 480.99,-20 480.99,-49 480.99,-49 480.99,-55 474.99,-61 468.99,-61 468.99,-61 308.98,-61 308.98,-61 302.98,-61 296.98,-55 296.98,-49 296.98,-49 296.98,-20 296.98,-20 296.98,-14 302.98,-8 308.98,-8"/>
<text text-anchor="middle" x="388.98" y="-48.9" font-family="Helvetica,sans-Serif" font-weight="bold" font-size="9.00">lib</text>
</g>
<g id="clust2" class="cluster">
<title>cluster_separated</title>
<path fill="#ffffff" stroke="black" stroke-width="2" d="M20,-69C20,-69 383.47,-69 383.47,-69 389.47,-69 395.47,-75 395.47,-81 395.47,-81 395.47,-348 395.47,-348 395.47,-354 389.47,-360 383.47,-360 383.47,-360 20,-360 20,-360 14,-360 8,-354 8,-348 8,-348 8,-81 8,-81 8,-75 14,-69 20,-69"/>
<text text-anchor="middle" x="201.74" y="-347.9" font-family="Helvetica,sans-Serif" font-weight="bold" font-size="9.00">separated</text>
</g>
<g id="clust3" class="cluster">
<title>cluster_separated/list&#45;component</title>
<path fill="#ffffff" stroke="black" stroke-width="2" d="M28,-77C28,-77 375.47,-77 375.47,-77 381.47,-77 387.47,-83 387.47,-89 387.47,-89 387.47,-321 387.47,-321 387.47,-327 381.47,-333 375.47,-333 375.47,-333 28,-333 28,-333 22,-333 16,-327 16,-321 16,-321 16,-89 16,-89 16,-83 22,-77 28,-77"/>
<text text-anchor="middle" x="201.74" y="-320.9" font-family="Helvetica,sans-Serif" font-weight="bold" font-size="9.00">list&#45;component</text>
</g>
<g id="clust4" class="cluster">
<title>cluster_separated/list&#45;component/src</title>
<path fill="#ffffff" stroke="black" stroke-width="2" d="M36,-85C36,-85 367.47,-85 367.47,-85 373.47,-85 379.47,-91 379.47,-97 379.47,-97 379.47,-294 379.47,-294 379.47,-300 373.47,-306 367.47,-306 367.47,-306 36,-306 36,-306 30,-306 24,-300 24,-294 24,-294 24,-97 24,-97 24,-91 30,-85 36,-85"/>
<text text-anchor="middle" x="201.74" y="-293.9" font-family="Helvetica,sans-Serif" font-weight="bold" font-size="9.00">src</text>
</g>
<g id="clust5" class="cluster">
<title>cluster_separated/list&#45;component/src/components</title>
<path fill="#ffffff" stroke="black" stroke-width="2" d="M206.99,-226C206.99,-226 359.47,-226 359.47,-226 365.47,-226 371.47,-232 371.47,-238 371.47,-238 371.47,-267 371.47,-267 371.47,-273 365.47,-279 359.47,-279 359.47,-279 206.99,-279 206.99,-279 200.99,-279 194.99,-273 194.99,-267 194.99,-267 194.99,-238 194.99,-238 194.99,-232 200.99,-226 206.99,-226"/>
<text text-anchor="middle" x="283.23" y="-266.9" font-family="Helvetica,sans-Serif" font-weight="bold" font-size="9.00">components</text>
</g>
<g id="clust6" class="cluster">
<title>cluster_separated/list&#45;component/src/handlers</title>
<path fill="#ffffff" stroke="black" stroke-width="2" d="M214.74,-103C214.74,-103 275.73,-103 275.73,-103 281.73,-103 287.73,-109 287.73,-115 287.73,-115 287.73,-206 287.73,-206 287.73,-212 281.73,-218 275.73,-218 275.73,-218 214.74,-218 214.74,-218 208.74,-218 202.74,-212 202.74,-206 202.74,-206 202.74,-115 202.74,-115 202.74,-109 208.74,-103 214.74,-103"/>
<text text-anchor="middle" x="245.24" y="-205.9" font-family="Helvetica,sans-Serif" font-weight="bold" font-size="9.00">handlers</text>
</g>
<g id="clust7" class="cluster">
<title>cluster_separated/list&#45;component/src/init</title>
<path fill="#ffffff" stroke="black" stroke-width="2" d="M44,-93C44,-93 170.25,-93 170.25,-93 176.25,-93 182.25,-99 182.25,-105 182.25,-105 182.25,-134 182.25,-134 182.25,-140 176.25,-146 170.25,-146 170.25,-146 44,-146 44,-146 38,-146 32,-140 32,-134 32,-134 32,-105 32,-105 32,-99 38,-93 44,-93"/>
<text text-anchor="middle" x="107.12" y="-133.9" font-family="Helvetica,sans-Serif" font-weight="bold" font-size="9.00">init</text>
</g>
<g id="clust8" class="cluster">
<title>cluster_separated/list&#45;component/src/listeners</title>
<path fill="#ffffff" stroke="black" stroke-width="2" d="M114,-154C114,-154 174.99,-154 174.99,-154 180.99,-154 186.99,-160 186.99,-166 186.99,-166 186.99,-257 186.99,-257 186.99,-263 180.99,-269 174.99,-269 174.99,-269 114,-269 114,-269 108,-269 102,-263 102,-257 102,-257 102,-166 102,-166 102,-160 108,-154 114,-154"/>
<text text-anchor="middle" x="144.49" y="-256.9" font-family="Helvetica,sans-Serif" font-weight="bold" font-size="9.00">listeners</text>
</g>
<!-- lib/deep&#45;clone.js -->
<g id="node1" class="node">
<title>lib/deep&#45;clone.js</title>
<g id="a_node1"><a xlink:href="lib/deep-clone.js" xlink:title="deep&#45;clone.js">
<path fill="#ffffcc" stroke="black" d="M466.55,-34.3C466.55,-34.3 409.92,-34.3 409.92,-34.3 406.82,-34.3 403.72,-31.2 403.72,-28.1 403.72,-28.1 403.72,-21.9 403.72,-21.9 403.72,-18.8 406.82,-15.7 409.92,-15.7 409.92,-15.7 466.55,-15.7 466.55,-15.7 469.65,-15.7 472.75,-18.8 472.75,-21.9 472.75,-21.9 472.75,-28.1 472.75,-28.1 472.75,-31.2 469.65,-34.3 466.55,-34.3"/>
<text text-anchor="middle" x="438.23" y="-22.3" font-family="Helvetica,sans-Serif" font-size="9.00">deep&#45;clone.js</text>
</a>
</g>
</g>
<!-- lib/logger.js -->
<g id="node2" class="node">
<title>lib/logger.js</title>
<g id="a_node2"><a xlink:href="lib/logger.js" xlink:title="logger.js">
<path fill="#ffffcc" stroke="black" d="M352.78,-34.3C352.78,-34.3 311.18,-34.3 311.18,-34.3 308.08,-34.3 304.98,-31.2 304.98,-28.1 304.98,-28.1 304.98,-21.9 304.98,-21.9 304.98,-18.8 308.08,-15.7 311.18,-15.7 311.18,-15.7 352.78,-15.7 352.78,-15.7 355.88,-15.7 358.98,-18.8 358.98,-21.9 358.98,-21.9 358.98,-28.1 358.98,-28.1 358.98,-31.2 355.88,-34.3 352.78,-34.3"/>
<text text-anchor="middle" x="331.98" y="-22.3" font-family="Helvetica,sans-Serif" font-size="9.00">logger.js</text>
</a>
</g>
</g>
<!-- lib/logger.js&#45;&gt;lib/deep&#45;clone.js -->
<g id="edge1" class="edge">
<title>lib/logger.js&#45;&gt;lib/deep&#45;clone.js</title>
<path fill="none" stroke="#000000" stroke-width="2" stroke-opacity="0.200000" d="M359.02,-25C370.63,-25 384.56,-25 397.44,-25"/>
<polygon fill="#000000" fill-opacity="0.200000" stroke="#000000" stroke-width="2" stroke-opacity="0.200000" points="397.65,-27.1 403.65,-25 397.65,-22.9 397.65,-27.1"/>
</g>
<!-- separated/list&#45;component/src/components/words&#45;list.js -->
<g id="node3" class="node">
<title>separated/list&#45;component/src/components/words&#45;list.js</title>
<g id="a_node3"><a xlink:href="separated/list-component/src/components/words-list.js" xlink:title="words&#45;list.js">
<path fill="#ffffcc" stroke="black" d="M357.27,-252.3C357.27,-252.3 306.69,-252.3 306.69,-252.3 303.59,-252.3 300.49,-249.2 300.49,-246.1 300.49,-246.1 300.49,-239.9 300.49,-239.9 300.49,-236.8 303.59,-233.7 306.69,-233.7 306.69,-233.7 357.27,-233.7 357.27,-233.7 360.37,-233.7 363.47,-236.8 363.47,-239.9 363.47,-239.9 363.47,-246.1 363.47,-246.1 363.47,-249.2 360.37,-252.3 357.27,-252.3"/>
<text text-anchor="middle" x="331.98" y="-240.3" font-family="Helvetica,sans-Serif" font-size="9.00">words&#45;list.js</text>
</a>
</g>
</g>
<!-- separated/list&#45;component/src/components/words&#45;list.spec.js -->
<g id="node4" class="node">
<title>separated/list&#45;component/src/components/words&#45;list.spec.js</title>
<g id="a_node4"><a xlink:href="separated/list-component/src/components/words-list.spec.js" xlink:title="words&#45;list.spec.js">
<path fill="#ffffcc" stroke="black" d="M281.53,-252.3C281.53,-252.3 208.94,-252.3 208.94,-252.3 205.84,-252.3 202.74,-249.2 202.74,-246.1 202.74,-246.1 202.74,-239.9 202.74,-239.9 202.74,-236.8 205.84,-233.7 208.94,-233.7 208.94,-233.7 281.53,-233.7 281.53,-233.7 284.63,-233.7 287.74,-236.8 287.74,-239.9 287.74,-239.9 287.74,-246.1 287.74,-246.1 287.74,-249.2 284.63,-252.3 281.53,-252.3"/>
<text text-anchor="middle" x="245.24" y="-240.3" font-family="Helvetica,sans-Serif" font-size="9.00">words&#45;list.spec.js</text>
</a>
</g>
</g>
<!-- separated/list&#45;component/src/components/words&#45;list.spec.js&#45;&gt;separated/list&#45;component/src/components/words&#45;list.js -->
<g id="edge2" class="edge">
<title>separated/list&#45;component/src/components/words&#45;list.spec.js&#45;&gt;separated/list&#45;component/src/components/words&#45;list.js</title>
<path fill="none" stroke="#000000" stroke-width="2" stroke-opacity="0.200000" d="M287.62,-243C289.72,-243 291.82,-243 293.91,-243"/>
<polygon fill="#000000" fill-opacity="0.200000" stroke="#000000" stroke-width="2" stroke-opacity="0.200000" points="294.09,-245.1 300.09,-243 294.09,-240.9 294.09,-245.1"/>
</g>
<!-- separated/list&#45;component/src/data.js -->
<g id="node5" class="node">
<title>separated/list&#45;component/src/data.js</title>
<g id="a_node5"><a xlink:href="separated/list-component/src/data.js" xlink:title="data.js">
<path fill="#ffffcc" stroke="black" d="M352.78,-144.3C352.78,-144.3 311.18,-144.3 311.18,-144.3 308.08,-144.3 304.98,-141.2 304.98,-138.1 304.98,-138.1 304.98,-131.9 304.98,-131.9 304.98,-128.8 308.08,-125.7 311.18,-125.7 311.18,-125.7 352.78,-125.7 352.78,-125.7 355.88,-125.7 358.98,-128.8 358.98,-131.9 358.98,-131.9 358.98,-138.1 358.98,-138.1 358.98,-141.2 355.88,-144.3 352.78,-144.3"/>
<text text-anchor="middle" x="331.98" y="-132.3" font-family="Helvetica,sans-Serif" font-size="9.00">data.js</text>
</a>
</g>
</g>
<!-- separated/list&#45;component/src/handlers/add&#45;word.js -->
<g id="node6" class="node">
<title>separated/list&#45;component/src/handlers/add&#45;word.js</title>
<g id="a_node6"><a xlink:href="separated/list-component/src/handlers/add-word.js" xlink:title="add&#45;word.js">
<path fill="#ffffcc" stroke="black" d="M270.04,-129.3C270.04,-129.3 220.43,-129.3 220.43,-129.3 217.33,-129.3 214.23,-126.2 214.23,-123.1 214.23,-123.1 214.23,-116.9 214.23,-116.9 214.23,-113.8 217.33,-110.7 220.43,-110.7 220.43,-110.7 270.04,-110.7 270.04,-110.7 273.14,-110.7 276.24,-113.8 276.24,-116.9 276.24,-116.9 276.24,-123.1 276.24,-123.1 276.24,-126.2 273.14,-129.3 270.04,-129.3"/>
<text text-anchor="middle" x="245.24" y="-117.3" font-family="Helvetica,sans-Serif" font-size="9.00">add&#45;word.js</text>
</a>
</g>
</g>
<!-- separated/list&#45;component/src/handlers/add&#45;word.js&#45;&gt;lib/logger.js -->
<g id="edge3" class="edge">
<title>separated/list&#45;component/src/handlers/add&#45;word.js&#45;&gt;lib/logger.js</title>
<path fill="none" stroke="#000000" stroke-width="2" stroke-opacity="0.200000" d="M254.67,-110.54C269.65,-93.76 300.94,-58.67 318.44,-39.05"/>
<polygon fill="#000000" fill-opacity="0.200000" stroke="#000000" stroke-width="2" stroke-opacity="0.200000" points="320.15,-40.29 322.58,-34.42 317.02,-37.5 320.15,-40.29"/>
</g>
<!-- separated/list&#45;component/src/handlers/add&#45;word.js&#45;&gt;separated/list&#45;component/src/components/words&#45;list.js -->
<g id="edge4" class="edge">
<title>separated/list&#45;component/src/handlers/add&#45;word.js&#45;&gt;separated/list&#45;component/src/components/words&#45;list.js</title>
<path fill="none" stroke="#000000" stroke-width="2" stroke-opacity="0.200000" d="M276.62,-127.08C280.91,-129.29 284.83,-132.19 287.73,-136 311.96,-167.84 275.27,-194.06 296.77,-228.41"/>
<polygon fill="#000000" fill-opacity="0.200000" stroke="#000000" stroke-width="2" stroke-opacity="0.200000" points="295.2,-229.84 300.37,-233.54 298.64,-227.42 295.2,-229.84"/>
</g>
<!-- separated/list&#45;component/src/handlers/add&#45;word.js&#45;&gt;separated/list&#45;component/src/data.js -->
<g id="edge5" class="edge">
<title>separated/list&#45;component/src/handlers/add&#45;word.js&#45;&gt;separated/list&#45;component/src/data.js</title>
<path fill="none" stroke="#000000" stroke-width="2" stroke-opacity="0.200000" d="M276.35,-125.33C283.64,-126.62 291.45,-128 298.83,-129.31"/>
<polygon fill="#000000" fill-opacity="0.200000" stroke="#000000" stroke-width="2" stroke-opacity="0.200000" points="298.62,-131.4 304.9,-130.38 299.35,-127.27 298.62,-131.4"/>
</g>
<!-- separated/list&#45;component/src/handlers/filter&#45;words.js -->
<g id="node7" class="node">
<title>separated/list&#45;component/src/handlers/filter&#45;words.js</title>
<g id="a_node7"><a xlink:href="separated/list-component/src/handlers/filter-words.js" xlink:title="filter&#45;words.js">
<path fill="#ffffcc" stroke="black" d="M273.53,-191.3C273.53,-191.3 216.95,-191.3 216.95,-191.3 213.85,-191.3 210.75,-188.2 210.75,-185.1 210.75,-185.1 210.75,-178.9 210.75,-178.9 210.75,-175.8 213.85,-172.7 216.95,-172.7 216.95,-172.7 273.53,-172.7 273.53,-172.7 276.63,-172.7 279.73,-175.8 279.73,-178.9 279.73,-178.9 279.73,-185.1 279.73,-185.1 279.73,-188.2 276.63,-191.3 273.53,-191.3"/>
<text text-anchor="middle" x="245.24" y="-179.3" font-family="Helvetica,sans-Serif" font-size="9.00">filter&#45;words.js</text>
</a>
</g>
</g>
<!-- separated/list&#45;component/src/handlers/filter&#45;words.js&#45;&gt;lib/logger.js -->
<g id="edge6" class="edge">
<title>separated/list&#45;component/src/handlers/filter&#45;words.js&#45;&gt;lib/logger.js</title>
<path fill="none" stroke="#000000" stroke-width="2" stroke-opacity="0.200000" d="M279.82,-173.04C282.84,-171.13 285.57,-168.81 287.73,-166 299.19,-151.12 291.01,-99.8 296.98,-82 302.21,-66.42 312.17,-50.5 319.96,-39.46"/>
<polygon fill="#000000" fill-opacity="0.200000" stroke="#000000" stroke-width="2" stroke-opacity="0.200000" points="321.77,-40.55 323.58,-34.46 318.37,-38.09 321.77,-40.55"/>
</g>
<!-- separated/list&#45;component/src/handlers/filter&#45;words.js&#45;&gt;separated/list&#45;component/src/components/words&#45;list.js -->
<g id="edge7" class="edge">
<title>separated/list&#45;component/src/handlers/filter&#45;words.js&#45;&gt;separated/list&#45;component/src/components/words&#45;list.js</title>
<path fill="none" stroke="#000000" stroke-width="2" stroke-opacity="0.200000" d="M255.36,-191.47C267.35,-203.76 287.95,-224.32 296.98,-230 297.36,-230.24 297.75,-230.48 298.14,-230.71"/>
<polygon fill="#000000" fill-opacity="0.200000" stroke="#000000" stroke-width="2" stroke-opacity="0.200000" points="297.15,-232.56 303.43,-233.56 299.14,-228.86 297.15,-232.56"/>
</g>
<!-- separated/list&#45;component/src/handlers/filter&#45;words.js&#45;&gt;separated/list&#45;component/src/data.js -->
<g id="edge8" class="edge">
<title>separated/list&#45;component/src/handlers/filter&#45;words.js&#45;&gt;separated/list&#45;component/src/data.js</title>
<path fill="none" stroke="#000000" stroke-width="2" stroke-opacity="0.200000" d="M273.47,-172.64C278.32,-170.66 283.25,-168.42 287.73,-166 296.98,-161.01 306.55,-154.33 314.33,-148.45"/>
<polygon fill="#000000" fill-opacity="0.200000" stroke="#000000" stroke-width="2" stroke-opacity="0.200000" points="315.93,-149.87 319.4,-144.54 313.36,-146.54 315.93,-149.87"/>
</g>
<!-- separated/list&#45;component/src/handlers/reset.js -->
<g id="node8" class="node">
<title>separated/list&#45;component/src/handlers/reset.js</title>
<g id="a_node8"><a xlink:href="separated/list-component/src/handlers/reset.js" xlink:title="reset.js">
<path fill="#ffffcc" stroke="black" d="M266.04,-160.3C266.04,-160.3 224.44,-160.3 224.44,-160.3 221.34,-160.3 218.24,-157.2 218.24,-154.1 218.24,-154.1 218.24,-147.9 218.24,-147.9 218.24,-144.8 221.34,-141.7 224.44,-141.7 224.44,-141.7 266.04,-141.7 266.04,-141.7 269.14,-141.7 272.24,-144.8 272.24,-147.9 272.24,-147.9 272.24,-154.1 272.24,-154.1 272.24,-157.2 269.14,-160.3 266.04,-160.3"/>
<text text-anchor="middle" x="245.24" y="-148.3" font-family="Helvetica,sans-Serif" font-size="9.00">reset.js</text>
</a>
</g>
</g>
<!-- separated/list&#45;component/src/handlers/reset.js&#45;&gt;lib/logger.js -->
<g id="edge9" class="edge">
<title>separated/list&#45;component/src/handlers/reset.js&#45;&gt;lib/logger.js</title>
<path fill="none" stroke="#000000" stroke-width="2" stroke-opacity="0.200000" d="M272.55,-145.48C278.29,-143.12 283.81,-139.77 287.73,-135 302.91,-116.52 288.66,-104.42 296.98,-82 302.7,-66.59 312.6,-50.65 320.25,-39.56"/>
<polygon fill="#000000" fill-opacity="0.200000" stroke="#000000" stroke-width="2" stroke-opacity="0.200000" points="322.06,-40.65 323.8,-34.53 318.62,-38.23 322.06,-40.65"/>
</g>
<!-- separated/list&#45;component/src/handlers/reset.js&#45;&gt;separated/list&#45;component/src/components/words&#45;list.js -->
<g id="edge10" class="edge">
<title>separated/list&#45;component/src/handlers/reset.js&#45;&gt;separated/list&#45;component/src/components/words&#45;list.js</title>
<path fill="none" stroke="#000000" stroke-width="2" stroke-opacity="0.200000" d="M272.64,-156.45C278.38,-158.8 283.88,-162.17 287.73,-167 304.23,-187.64 282.56,-205.41 296.83,-228.47"/>
<polygon fill="#000000" fill-opacity="0.200000" stroke="#000000" stroke-width="2" stroke-opacity="0.200000" points="295.23,-229.85 300.45,-233.48 298.64,-227.39 295.23,-229.85"/>
</g>
<!-- separated/list&#45;component/src/handlers/reset.js&#45;&gt;separated/list&#45;component/src/data.js -->
<g id="edge11" class="edge">
<title>separated/list&#45;component/src/handlers/reset.js&#45;&gt;separated/list&#45;component/src/data.js</title>
<path fill="none" stroke="#000000" stroke-width="2" stroke-opacity="0.200000" d="M272.59,-146.03C280.96,-144.45 290.3,-142.68 299.02,-141.03"/>
<polygon fill="#000000" fill-opacity="0.200000" stroke="#000000" stroke-width="2" stroke-opacity="0.200000" points="299.43,-143.09 304.94,-139.92 298.65,-138.97 299.43,-143.09"/>
</g>
<!-- separated/list&#45;component/src/init/index.js -->
<g id="node9" class="node">
<title>separated/list&#45;component/src/init/index.js</title>
<g id="a_node9"><a xlink:href="separated/list-component/src/init/index.js" xlink:title="index.js">
<path fill="#ffffcc" stroke="black" d="M87.8,-119.3C87.8,-119.3 46.2,-119.3 46.2,-119.3 43.1,-119.3 40,-116.2 40,-113.1 40,-113.1 40,-106.9 40,-106.9 40,-103.8 43.1,-100.7 46.2,-100.7 46.2,-100.7 87.8,-100.7 87.8,-100.7 90.9,-100.7 94,-103.8 94,-106.9 94,-106.9 94,-113.1 94,-113.1 94,-116.2 90.9,-119.3 87.8,-119.3"/>
<text text-anchor="middle" x="67" y="-107.3" font-family="Helvetica,sans-Serif" font-size="9.00">index.js</text>
</a>
</g>
</g>
<!-- separated/list&#45;component/src/listeners/add&#45;word.js -->
<g id="node10" class="node">
<title>separated/list&#45;component/src/listeners/add&#45;word.js</title>
<g id="a_node10"><a xlink:href="separated/list-component/src/listeners/add-word.js" xlink:title="add&#45;word.js">
<path fill="#ffffcc" stroke="black" d="M169.3,-180.3C169.3,-180.3 119.69,-180.3 119.69,-180.3 116.59,-180.3 113.49,-177.2 113.49,-174.1 113.49,-174.1 113.49,-167.9 113.49,-167.9 113.49,-164.8 116.59,-161.7 119.69,-161.7 119.69,-161.7 169.3,-161.7 169.3,-161.7 172.4,-161.7 175.5,-164.8 175.5,-167.9 175.5,-167.9 175.5,-174.1 175.5,-174.1 175.5,-177.2 172.4,-180.3 169.3,-180.3"/>
<text text-anchor="middle" x="144.49" y="-168.3" font-family="Helvetica,sans-Serif" font-size="9.00">add&#45;word.js</text>
</a>
</g>
</g>
<!-- separated/list&#45;component/src/init/index.js&#45;&gt;separated/list&#45;component/src/listeners/add&#45;word.js -->
<g id="edge12" class="edge">
<title>separated/list&#45;component/src/init/index.js&#45;&gt;separated/list&#45;component/src/listeners/add&#45;word.js</title>
<path fill="none" stroke="#000000" stroke-width="2" stroke-opacity="0.200000" d="M74.73,-119.55C81.06,-128.04 91.16,-140.4 102,-149 106.5,-152.57 111.67,-155.85 116.8,-158.71"/>
<polygon fill="#000000" fill-opacity="0.200000" stroke="#000000" stroke-width="2" stroke-opacity="0.200000" points="116.03,-160.69 122.32,-161.66 118.01,-156.98 116.03,-160.69"/>
</g>
<!-- separated/list&#45;component/src/listeners/filter&#45;words.js -->
<g id="node11" class="node">
<title>separated/list&#45;component/src/listeners/filter&#45;words.js</title>
<g id="a_node11"><a xlink:href="separated/list-component/src/listeners/filter-words.js" xlink:title="filter&#45;words.js">
<path fill="#ffffcc" stroke="black" d="M172.78,-242.3C172.78,-242.3 116.21,-242.3 116.21,-242.3 113.11,-242.3 110.01,-239.2 110.01,-236.1 110.01,-236.1 110.01,-229.9 110.01,-229.9 110.01,-226.8 113.11,-223.7 116.21,-223.7 116.21,-223.7 172.78,-223.7 172.78,-223.7 175.88,-223.7 178.98,-226.8 178.98,-229.9 178.98,-229.9 178.98,-236.1 178.98,-236.1 178.98,-239.2 175.88,-242.3 172.78,-242.3"/>
<text text-anchor="middle" x="144.49" y="-230.3" font-family="Helvetica,sans-Serif" font-size="9.00">filter&#45;words.js</text>
</a>
</g>
</g>
<!-- separated/list&#45;component/src/init/index.js&#45;&gt;separated/list&#45;component/src/listeners/filter&#45;words.js -->
<g id="edge13" class="edge">
<title>separated/list&#45;component/src/init/index.js&#45;&gt;separated/list&#45;component/src/listeners/filter&#45;words.js</title>
<path fill="none" stroke="#000000" stroke-width="2" stroke-opacity="0.200000" d="M68.35,-119.35C69.62,-139.77 75.41,-188.76 102,-217 103.07,-218.13 104.22,-219.18 105.44,-220.16"/>
<polygon fill="#000000" fill-opacity="0.200000" stroke="#000000" stroke-width="2" stroke-opacity="0.200000" points="104.31,-221.93 110.45,-223.58 106.68,-218.47 104.31,-221.93"/>
</g>
<!-- separated/list&#45;component/src/listeners/reset.js -->
<g id="node12" class="node">
<title>separated/list&#45;component/src/listeners/reset.js</title>
<g id="a_node12"><a xlink:href="separated/list-component/src/listeners/reset.js" xlink:title="reset.js">
<path fill="#ffffcc" stroke="black" d="M165.29,-211.3C165.29,-211.3 123.7,-211.3 123.7,-211.3 120.6,-211.3 117.49,-208.2 117.49,-205.1 117.49,-205.1 117.49,-198.9 117.49,-198.9 117.49,-195.8 120.6,-192.7 123.7,-192.7 123.7,-192.7 165.29,-192.7 165.29,-192.7 168.39,-192.7 171.49,-195.8 171.49,-198.9 171.49,-198.9 171.49,-205.1 171.49,-205.1 171.49,-208.2 168.39,-211.3 165.29,-211.3"/>
<text text-anchor="middle" x="144.49" y="-199.3" font-family="Helvetica,sans-Serif" font-size="9.00">reset.js</text>
</a>
</g>
</g>
<!-- separated/list&#45;component/src/init/index.js&#45;&gt;separated/list&#45;component/src/listeners/reset.js -->
<g id="edge14" class="edge">
<title>separated/list&#45;component/src/init/index.js&#45;&gt;separated/list&#45;component/src/listeners/reset.js</title>
<path fill="none" stroke="#000000" stroke-width="2" stroke-opacity="0.200000" d="M69.8,-119.53C73.29,-135.42 82.39,-167.4 102,-186 104.79,-188.65 108.07,-190.88 111.54,-192.74"/>
<polygon fill="#000000" fill-opacity="0.200000" stroke="#000000" stroke-width="2" stroke-opacity="0.200000" points="110.79,-194.71 117.11,-195.38 112.59,-190.91 110.79,-194.71"/>
</g>
<!-- separated/list&#45;component/src/init/log&#45;state.js -->
<g id="node13" class="node">
<title>separated/list&#45;component/src/init/log&#45;state.js</title>
<g id="a_node13"><a xlink:href="separated/list-component/src/init/log-state.js" xlink:title="log&#45;state.js">
<path fill="#ffffcc" stroke="black" d="M167.8,-119.3C167.8,-119.3 121.19,-119.3 121.19,-119.3 118.09,-119.3 114.99,-116.2 114.99,-113.1 114.99,-113.1 114.99,-106.9 114.99,-106.9 114.99,-103.8 118.09,-100.7 121.19,-100.7 121.19,-100.7 167.8,-100.7 167.8,-100.7 170.9,-100.7 174,-103.8 174,-106.9 174,-106.9 174,-113.1 174,-113.1 174,-116.2 170.9,-119.3 167.8,-119.3"/>
<text text-anchor="middle" x="144.49" y="-107.3" font-family="Helvetica,sans-Serif" font-size="9.00">log&#45;state.js</text>
</a>
</g>
</g>
<!-- separated/list&#45;component/src/init/index.js&#45;&gt;separated/list&#45;component/src/init/log&#45;state.js -->
<g id="edge15" class="edge">
<title>separated/list&#45;component/src/init/index.js&#45;&gt;separated/list&#45;component/src/init/log&#45;state.js</title>
<path fill="none" stroke="#000000" stroke-width="2" stroke-opacity="0.200000" d="M94.4,-110C99.07,-110 103.99,-110 108.84,-110"/>
<polygon fill="#000000" fill-opacity="0.200000" stroke="#000000" stroke-width="2" stroke-opacity="0.200000" points="108.92,-112.1 114.92,-110 108.92,-107.9 108.92,-112.1"/>
</g>
<!-- separated/list&#45;component/src/listeners/add&#45;word.js&#45;&gt;separated/list&#45;component/src/handlers/add&#45;word.js -->
<g id="edge18" class="edge">
<title>separated/list&#45;component/src/listeners/add&#45;word.js&#45;&gt;separated/list&#45;component/src/handlers/add&#45;word.js</title>
<path fill="none" stroke="#000000" stroke-width="2" stroke-opacity="0.200000" d="M168.46,-161.58C174.92,-158.23 181.64,-154.02 186.99,-149 191.94,-144.36 189.66,-140.19 194.99,-136 199,-132.84 203.66,-130.3 208.47,-128.25"/>
<polygon fill="#000000" fill-opacity="0.200000" stroke="#000000" stroke-width="2" stroke-opacity="0.200000" points="209.32,-130.18 214.17,-126.07 207.81,-126.26 209.32,-130.18"/>
</g>
<!-- separated/list&#45;component/src/listeners/filter&#45;words.js&#45;&gt;separated/list&#45;component/src/handlers/filter&#45;words.js -->
<g id="edge19" class="edge">
<title>separated/list&#45;component/src/listeners/filter&#45;words.js&#45;&gt;separated/list&#45;component/src/handlers/filter&#45;words.js</title>
<path fill="none" stroke="#000000" stroke-width="2" stroke-opacity="0.200000" d="M172.14,-223.55C177.15,-221.54 182.28,-219.32 186.99,-217 200.28,-210.44 214.49,-201.76 225.43,-194.69"/>
<polygon fill="#000000" fill-opacity="0.200000" stroke="#000000" stroke-width="2" stroke-opacity="0.200000" points="226.65,-196.4 230.52,-191.36 224.35,-192.88 226.65,-196.4"/>
</g>
<!-- separated/list&#45;component/src/listeners/reset.js&#45;&gt;separated/list&#45;component/src/handlers/reset.js -->
<g id="edge20" class="edge">
<title>separated/list&#45;component/src/listeners/reset.js&#45;&gt;separated/list&#45;component/src/handlers/reset.js</title>
<path fill="none" stroke="#000000" stroke-width="2" stroke-opacity="0.200000" d="M171.51,-195.63C177.13,-193.32 182.67,-190.19 186.99,-186 193.57,-179.62 188.24,-173.2 194.99,-167 199.85,-162.53 205.99,-159.31 212.25,-156.98"/>
<polygon fill="#000000" fill-opacity="0.200000" stroke="#000000" stroke-width="2" stroke-opacity="0.200000" points="212.97,-158.96 218.02,-155.09 211.66,-154.97 212.97,-158.96"/>
</g>
<!-- separated/list&#45;component/src/init/log&#45;state.js&#45;&gt;lib/logger.js -->
<g id="edge16" class="edge">
<title>separated/list&#45;component/src/init/log&#45;state.js&#45;&gt;lib/logger.js</title>
<path fill="none" stroke="#000000" stroke-width="2" stroke-opacity="0.200000" d="M160.85,-100.69C170.49,-95 183.29,-87.74 194.99,-82 230.4,-64.64 272.43,-47.53 300.3,-36.66"/>
<polygon fill="#000000" fill-opacity="0.200000" stroke="#000000" stroke-width="2" stroke-opacity="0.200000" points="301.19,-38.57 306.02,-34.44 299.67,-34.65 301.19,-38.57"/>
</g>
<!-- separated/list&#45;component/src/init/log&#45;state.js&#45;&gt;separated/list&#45;component/src/data.js -->
<g id="edge17" class="edge">
<title>separated/list&#45;component/src/init/log&#45;state.js&#45;&gt;separated/list&#45;component/src/data.js</title>
<path fill="none" stroke="#000000" stroke-width="2" stroke-opacity="0.200000" d="M174.2,-101.4C203.59,-94.09 250.16,-86.7 287.73,-100 299.5,-104.16 310.4,-113.04 318.32,-120.81"/>
<polygon fill="#000000" fill-opacity="0.200000" stroke="#000000" stroke-width="2" stroke-opacity="0.200000" points="317.15,-122.62 322.84,-125.45 320.16,-119.69 317.15,-122.62"/>
</g>
</g>
</svg>
