<?xml version="1.0" encoding="UTF-8" standalone="no"?>
<!DOCTYPE svg PUBLIC "-//W3C//DTD SVG 1.1//EN"
 "http://www.w3.org/Graphics/SVG/1.1/DTD/svg11.dtd">
<!-- Generated by graphviz version 2.44.0 (20200408.0750)
 -->
<!-- Title: dependency&#45;cruiser output Pages: 1 -->
<svg width="328pt" height="161pt"
 viewBox="0.00 0.00 328.01 161.00" xmlns="http://www.w3.org/2000/svg" xmlns:xlink="http://www.w3.org/1999/xlink">
<g id="graph0" class="graph" transform="scale(1 1) rotate(0) translate(4 157)">
<title>dependency&#45;cruiser output</title>
<polygon fill="white" stroke="transparent" points="-4,4 -4,-157 324.01,-157 324.01,4 -4,4"/>
<g id="clust1" class="cluster">
<title>cluster_es5&#45;vs&#45;es6</title>
<path fill="#ffffff" stroke="black" stroke-width="2" d="M20,-8C20,-8 300.01,-8 300.01,-8 306.01,-8 312.01,-14 312.01,-20 312.01,-20 312.01,-133 312.01,-133 312.01,-139 306.01,-145 300.01,-145 300.01,-145 20,-145 20,-145 14,-145 8,-139 8,-133 8,-133 8,-20 8,-20 8,-14 14,-8 20,-8"/>
<text text-anchor="middle" x="160" y="-132.9" font-family="Helvetica,sans-Serif" font-weight="bold" font-size="9.00">es5&#45;vs&#45;es6</text>
</g>
<g id="clust2" class="cluster">
<title>cluster_es5&#45;vs&#45;es6/remover&#45;es6</title>
<path fill="#ffffff" stroke="black" stroke-width="2" d="M28,-16C28,-16 292.01,-16 292.01,-16 298.01,-16 304.01,-22 304.01,-28 304.01,-28 304.01,-106 304.01,-106 304.01,-112 298.01,-118 292.01,-118 292.01,-118 28,-118 28,-118 22,-118 16,-112 16,-106 16,-106 16,-28 16,-28 16,-22 22,-16 28,-16"/>
<text text-anchor="middle" x="160" y="-105.9" font-family="Helvetica,sans-Serif" font-weight="bold" font-size="9.00">remover&#45;es6</text>
</g>
<g id="clust3" class="cluster">
<title>cluster_es5&#45;vs&#45;es6/remover&#45;es6/src</title>
<path fill="#ffffff" stroke="black" stroke-width="2" d="M36,-24C36,-24 284.01,-24 284.01,-24 290.01,-24 296.01,-30 296.01,-36 296.01,-36 296.01,-79 296.01,-79 296.01,-85 290.01,-91 284.01,-91 284.01,-91 36,-91 36,-91 30,-91 24,-85 24,-79 24,-79 24,-36 24,-36 24,-30 30,-24 36,-24"/>
<text text-anchor="middle" x="160" y="-78.9" font-family="Helvetica,sans-Serif" font-weight="bold" font-size="9.00">src</text>
</g>
<!-- es5&#45;vs&#45;es6/remover&#45;es6/src/data.js -->
<g id="node1" class="node">
<title>es5&#45;vs&#45;es6/remover&#45;es6/src/data.js</title>
<g id="a_node1"><a xlink:href="es5-vs-es6/remover-es6/src/data.js" xlink:title="data.js">
<path fill="#ffffcc" stroke="black" d="M281.81,-57.3C281.81,-57.3 240.21,-57.3 240.21,-57.3 237.11,-57.3 234.01,-54.2 234.01,-51.1 234.01,-51.1 234.01,-44.9 234.01,-44.9 234.01,-41.8 237.11,-38.7 240.21,-38.7 240.21,-38.7 281.81,-38.7 281.81,-38.7 284.91,-38.7 288.01,-41.8 288.01,-44.9 288.01,-44.9 288.01,-51.1 288.01,-51.1 288.01,-54.2 284.91,-57.3 281.81,-57.3"/>
<text text-anchor="middle" x="261.01" y="-45.3" font-family="Helvetica,sans-Serif" font-size="9.00">data.js</text>
</a>
</g>
</g>
<!-- es5&#45;vs&#45;es6/remover&#45;es6/src/handler.js -->
<g id="node2" class="node">
<title>es5&#45;vs&#45;es6/remover&#45;es6/src/handler.js</title>
<g id="a_node2"><a xlink:href="es5-vs-es6/remover-es6/src/handler.js" xlink:title="handler.js">
<path fill="#ffffcc" stroke="black" d="M214.81,-64.3C214.81,-64.3 172.2,-64.3 172.2,-64.3 169.1,-64.3 166,-61.2 166,-58.1 166,-58.1 166,-51.9 166,-51.9 166,-48.8 169.1,-45.7 172.2,-45.7 172.2,-45.7 214.81,-45.7 214.81,-45.7 217.91,-45.7 221.01,-48.8 221.01,-51.9 221.01,-51.9 221.01,-58.1 221.01,-58.1 221.01,-61.2 217.91,-64.3 214.81,-64.3"/>
<text text-anchor="middle" x="193.5" y="-52.3" font-family="Helvetica,sans-Serif" font-size="9.00">handler.js</text>
</a>
</g>
</g>
<!-- es5&#45;vs&#45;es6/remover&#45;es6/src/handler.js&#45;&gt;es5&#45;vs&#45;es6/remover&#45;es6/src/data.js -->
<g id="edge1" class="edge">
<title>es5&#45;vs&#45;es6/remover&#45;es6/src/handler.js&#45;&gt;es5&#45;vs&#45;es6/remover&#45;es6/src/data.js</title>
<path fill="none" stroke="#000000" stroke-width="2" stroke-opacity="0.200000" d="M221.15,-52.15C223.2,-51.93 225.29,-51.71 227.38,-51.49"/>
<polygon fill="#000000" fill-opacity="0.200000" stroke="#000000" stroke-width="2" stroke-opacity="0.200000" points="227.86,-53.55 233.6,-50.82 227.41,-49.37 227.86,-53.55"/>
</g>
<!-- es5&#45;vs&#45;es6/remover&#45;es6/src/init.js -->
<g id="node3" class="node">
<title>es5&#45;vs&#45;es6/remover&#45;es6/src/init.js</title>
<g id="a_node3"><a xlink:href="es5-vs-es6/remover-es6/src/init.js" xlink:title="init.js">
<path fill="#ffffcc" stroke="black" d="M79.8,-57.3C79.8,-57.3 38.2,-57.3 38.2,-57.3 35.1,-57.3 32,-54.2 32,-51.1 32,-51.1 32,-44.9 32,-44.9 32,-41.8 35.1,-38.7 38.2,-38.7 38.2,-38.7 79.8,-38.7 79.8,-38.7 82.9,-38.7 86,-41.8 86,-44.9 86,-44.9 86,-51.1 86,-51.1 86,-54.2 82.9,-57.3 79.8,-57.3"/>
<text text-anchor="middle" x="59" y="-45.3" font-family="Helvetica,sans-Serif" font-size="9.00">init.js</text>
</a>
</g>
</g>
<!-- es5&#45;vs&#45;es6/remover&#45;es6/src/init.js&#45;&gt;es5&#45;vs&#45;es6/remover&#45;es6/src/data.js -->
<g id="edge2" class="edge">
<title>es5&#45;vs&#45;es6/remover&#45;es6/src/init.js&#45;&gt;es5&#45;vs&#45;es6/remover&#45;es6/src/data.js</title>
<path fill="none" stroke="#000000" stroke-width="2" stroke-opacity="0.200000" d="M86.32,-41.85C90.54,-41.08 94.87,-40.42 99,-40 152.95,-34.52 167.06,-34.52 221.01,-40 223.2,-40.22 225.45,-40.51 227.71,-40.85"/>
<polygon fill="#000000" fill-opacity="0.200000" stroke="#000000" stroke-width="2" stroke-opacity="0.200000" points="227.42,-42.93 233.69,-41.85 228.11,-38.79 227.42,-42.93"/>
</g>
<!-- es5&#45;vs&#45;es6/remover&#45;es6/src/listener.js -->
<g id="node4" class="node">
<title>es5&#45;vs&#45;es6/remover&#45;es6/src/listener.js</title>
<g id="a_node4"><a xlink:href="es5-vs-es6/remover-es6/src/listener.js" xlink:title="listener.js">
<path fill="#ffffcc" stroke="black" d="M146.8,-64.3C146.8,-64.3 105.2,-64.3 105.2,-64.3 102.1,-64.3 99,-61.2 99,-58.1 99,-58.1 99,-51.9 99,-51.9 99,-48.8 102.1,-45.7 105.2,-45.7 105.2,-45.7 146.8,-45.7 146.8,-45.7 149.9,-45.7 153,-48.8 153,-51.9 153,-51.9 153,-58.1 153,-58.1 153,-61.2 149.9,-64.3 146.8,-64.3"/>
<text text-anchor="middle" x="126" y="-52.3" font-family="Helvetica,sans-Serif" font-size="9.00">listener.js</text>
</a>
</g>
</g>
<!-- es5&#45;vs&#45;es6/remover&#45;es6/src/init.js&#45;&gt;es5&#45;vs&#45;es6/remover&#45;es6/src/listener.js -->
<g id="edge3" class="edge">
<title>es5&#45;vs&#45;es6/remover&#45;es6/src/init.js&#45;&gt;es5&#45;vs&#45;es6/remover&#45;es6/src/listener.js</title>
<path fill="none" stroke="#000000" stroke-width="2" stroke-opacity="0.200000" d="M86.06,-50.81C88.32,-51.05 90.61,-51.3 92.9,-51.54"/>
<polygon fill="#000000" fill-opacity="0.200000" stroke="#000000" stroke-width="2" stroke-opacity="0.200000" points="92.74,-53.64 98.93,-52.19 93.19,-49.46 92.74,-53.64"/>
</g>
<!-- es5&#45;vs&#45;es6/remover&#45;es6/src/listener.js&#45;&gt;es5&#45;vs&#45;es6/remover&#45;es6/src/handler.js -->
<g id="edge4" class="edge">
<title>es5&#45;vs&#45;es6/remover&#45;es6/src/listener.js&#45;&gt;es5&#45;vs&#45;es6/remover&#45;es6/src/handler.js</title>
<path fill="none" stroke="#000000" stroke-width="2" stroke-opacity="0.200000" d="M153.27,-55C155.33,-55 157.43,-55 159.53,-55"/>
<polygon fill="#000000" fill-opacity="0.200000" stroke="#000000" stroke-width="2" stroke-opacity="0.200000" points="159.8,-57.1 165.8,-55 159.8,-52.9 159.8,-57.1"/>
</g>
</g>
</svg>
