<?xml version="1.0" encoding="UTF-8" standalone="no"?>
<!DOCTYPE svg PUBLIC "-//W3C//DTD SVG 1.1//EN"
 "http://www.w3.org/Graphics/SVG/1.1/DTD/svg11.dtd">
<!-- Generated by graphviz version 2.44.0 (20200408.0750)
 -->
<!-- Title: dependency&#45;cruiser output Pages: 1 -->
<svg width="448pt" height="397pt"
 viewBox="0.00 0.00 448.27 397.00" xmlns="http://www.w3.org/2000/svg" xmlns:xlink="http://www.w3.org/1999/xlink">
<g id="graph0" class="graph" transform="scale(1 1) rotate(0) translate(4 393)">
<title>dependency&#45;cruiser output</title>
<polygon fill="white" stroke="transparent" points="-4,4 -4,-393 444.27,-393 444.27,4 -4,4"/>
<g id="clust1" class="cluster">
<title>cluster_lib</title>
<path fill="#ffffff" stroke="black" stroke-width="2" d="M272.75,-8C272.75,-8 420.27,-8 420.27,-8 426.27,-8 432.27,-14 432.27,-20 432.27,-20 432.27,-49 432.27,-49 432.27,-55 426.27,-61 420.27,-61 420.27,-61 272.75,-61 272.75,-61 266.75,-61 260.75,-55 260.75,-49 260.75,-49 260.75,-20 260.75,-20 260.75,-14 266.75,-8 272.75,-8"/>
<text text-anchor="middle" x="346.51" y="-48.9" font-family="Helvetica,sans-Serif" font-weight="bold" font-size="9.00">lib</text>
</g>
<g id="clust2" class="cluster">
<title>cluster_separated</title>
<path fill="#ffffff" stroke="black" stroke-width="2" d="M20,-69C20,-69 334.75,-69 334.75,-69 340.75,-69 346.75,-75 346.75,-81 346.75,-81 346.75,-369 346.75,-369 346.75,-375 340.75,-381 334.75,-381 334.75,-381 20,-381 20,-381 14,-381 8,-375 8,-369 8,-369 8,-81 8,-81 8,-75 14,-69 20,-69"/>
<text text-anchor="middle" x="177.38" y="-368.9" font-family="Helvetica,sans-Serif" font-weight="bold" font-size="9.00">separated</text>
</g>
<g id="clust3" class="cluster">
<title>cluster_separated/up&#45;down</title>
<path fill="#ffffff" stroke="black" stroke-width="2" d="M28,-77C28,-77 326.75,-77 326.75,-77 332.75,-77 338.75,-83 338.75,-89 338.75,-89 338.75,-342 338.75,-342 338.75,-348 332.75,-354 326.75,-354 326.75,-354 28,-354 28,-354 22,-354 16,-348 16,-342 16,-342 16,-89 16,-89 16,-83 22,-77 28,-77"/>
<text text-anchor="middle" x="177.38" y="-341.9" font-family="Helvetica,sans-Serif" font-weight="bold" font-size="9.00">up&#45;down</text>
</g>
<g id="clust4" class="cluster">
<title>cluster_separated/up&#45;down/src</title>
<path fill="#ffffff" stroke="black" stroke-width="2" d="M36,-85C36,-85 318.75,-85 318.75,-85 324.75,-85 330.75,-91 330.75,-97 330.75,-97 330.75,-315 330.75,-315 330.75,-321 324.75,-327 318.75,-327 318.75,-327 36,-327 36,-327 30,-327 24,-321 24,-315 24,-315 24,-97 24,-97 24,-91 30,-85 36,-85"/>
<text text-anchor="middle" x="177.38" y="-314.9" font-family="Helvetica,sans-Serif" font-weight="bold" font-size="9.00">src</text>
</g>
<g id="clust5" class="cluster">
<title>cluster_separated/up&#45;down/src/handlers</title>
<path fill="#ffffff" stroke="black" stroke-width="2" d="M194.75,-93C194.75,-93 240.75,-93 240.75,-93 246.75,-93 252.75,-99 252.75,-105 252.75,-105 252.75,-196 252.75,-196 252.75,-202 246.75,-208 240.75,-208 240.75,-208 194.75,-208 194.75,-208 188.75,-208 182.75,-202 182.75,-196 182.75,-196 182.75,-105 182.75,-105 182.75,-99 188.75,-93 194.75,-93"/>
<text text-anchor="middle" x="217.75" y="-195.9" font-family="Helvetica,sans-Serif" font-weight="bold" font-size="9.00">handlers</text>
</g>
<g id="clust6" class="cluster">
<title>cluster_separated/up&#45;down/src/init</title>
<path fill="#ffffff" stroke="black" stroke-width="2" d="M44,-216C44,-216 162.75,-216 162.75,-216 168.75,-216 174.75,-222 174.75,-228 174.75,-228 174.75,-288 174.75,-288 174.75,-294 168.75,-300 162.75,-300 162.75,-300 44,-300 44,-300 38,-300 32,-294 32,-288 32,-288 32,-228 32,-228 32,-222 38,-216 44,-216"/>
<text text-anchor="middle" x="103.38" y="-287.9" font-family="Helvetica,sans-Serif" font-weight="bold" font-size="9.00">init</text>
</g>
<g id="clust7" class="cluster">
<title>cluster_separated/up&#45;down/src/listeners</title>
<path fill="#ffffff" stroke="black" stroke-width="2" d="M114,-93C114,-93 160,-93 160,-93 166,-93 172,-99 172,-105 172,-105 172,-196 172,-196 172,-202 166,-208 160,-208 160,-208 114,-208 114,-208 108,-208 102,-202 102,-196 102,-196 102,-105 102,-105 102,-99 108,-93 114,-93"/>
<text text-anchor="middle" x="137" y="-195.9" font-family="Helvetica,sans-Serif" font-weight="bold" font-size="9.00">listeners</text>
</g>
<!-- lib/deep&#45;clone.js -->
<g id="node1" class="node">
<title>lib/deep&#45;clone.js</title>
<g id="a_node1"><a xlink:href="lib/deep-clone.js" xlink:title="deep&#45;clone.js">
<path fill="#ffffcc" stroke="black" d="M417.82,-34.3C417.82,-34.3 361.2,-34.3 361.2,-34.3 358.1,-34.3 354.99,-31.2 354.99,-28.1 354.99,-28.1 354.99,-21.9 354.99,-21.9 354.99,-18.8 358.1,-15.7 361.2,-15.7 361.2,-15.7 417.82,-15.7 417.82,-15.7 420.92,-15.7 424.02,-18.8 424.02,-21.9 424.02,-21.9 424.02,-28.1 424.02,-28.1 424.02,-31.2 420.92,-34.3 417.82,-34.3"/>
<text text-anchor="middle" x="389.51" y="-22.3" font-family="Helvetica,sans-Serif" font-size="9.00">deep&#45;clone.js</text>
</a>
</g>
</g>
<!-- lib/logger.js -->
<g id="node2" class="node">
<title>lib/logger.js</title>
<g id="a_node2"><a xlink:href="lib/logger.js" xlink:title="logger.js">
<path fill="#ffffcc" stroke="black" d="M316.55,-34.3C316.55,-34.3 274.95,-34.3 274.95,-34.3 271.85,-34.3 268.75,-31.2 268.75,-28.1 268.75,-28.1 268.75,-21.9 268.75,-21.9 268.75,-18.8 271.85,-15.7 274.95,-15.7 274.95,-15.7 316.55,-15.7 316.55,-15.7 319.65,-15.7 322.75,-18.8 322.75,-21.9 322.75,-21.9 322.75,-28.1 322.75,-28.1 322.75,-31.2 319.65,-34.3 316.55,-34.3"/>
<text text-anchor="middle" x="295.75" y="-22.3" font-family="Helvetica,sans-Serif" font-size="9.00">logger.js</text>
</a>
</g>
</g>
<!-- lib/logger.js&#45;&gt;lib/deep&#45;clone.js -->
<g id="edge1" class="edge">
<title>lib/logger.js&#45;&gt;lib/deep&#45;clone.js</title>
<path fill="none" stroke="#000000" stroke-width="2" stroke-opacity="0.200000" d="M322.8,-25C330.89,-25 340.01,-25 348.81,-25"/>
<polygon fill="#000000" fill-opacity="0.200000" stroke="#000000" stroke-width="2" stroke-opacity="0.200000" points="348.84,-27.1 354.84,-25 348.84,-22.9 348.84,-27.1"/>
</g>
<!-- separated/up&#45;down/src/data.js -->
<g id="node3" class="node">
<title>separated/up&#45;down/src/data.js</title>
<g id="a_node3"><a xlink:href="separated/up-down/src/data.js" xlink:title="data.js">
<path fill="#ffffcc" stroke="black" d="M316.55,-181.3C316.55,-181.3 274.95,-181.3 274.95,-181.3 271.85,-181.3 268.75,-178.2 268.75,-175.1 268.75,-175.1 268.75,-168.9 268.75,-168.9 268.75,-165.8 271.85,-162.7 274.95,-162.7 274.95,-162.7 316.55,-162.7 316.55,-162.7 319.65,-162.7 322.75,-165.8 322.75,-168.9 322.75,-168.9 322.75,-175.1 322.75,-175.1 322.75,-178.2 319.65,-181.3 316.55,-181.3"/>
<text text-anchor="middle" x="295.75" y="-169.3" font-family="Helvetica,sans-Serif" font-size="9.00">data.js</text>
</a>
</g>
</g>
<!-- separated/up&#45;down/src/handlers/down.js -->
<g id="node4" class="node">
<title>separated/up&#45;down/src/handlers/down.js</title>
<g id="a_node4"><a xlink:href="separated/up-down/src/handlers/down.js" xlink:title="down.js">
<path fill="#ffffcc" stroke="black" d="M238.55,-150.3C238.55,-150.3 196.95,-150.3 196.95,-150.3 193.85,-150.3 190.75,-147.2 190.75,-144.1 190.75,-144.1 190.75,-137.9 190.75,-137.9 190.75,-134.8 193.85,-131.7 196.95,-131.7 196.95,-131.7 238.55,-131.7 238.55,-131.7 241.65,-131.7 244.75,-134.8 244.75,-137.9 244.75,-137.9 244.75,-144.1 244.75,-144.1 244.75,-147.2 241.65,-150.3 238.55,-150.3"/>
<text text-anchor="middle" x="217.75" y="-138.3" font-family="Helvetica,sans-Serif" font-size="9.00">down.js</text>
</a>
</g>
</g>
<!-- separated/up&#45;down/src/handlers/down.js&#45;&gt;lib/logger.js -->
<g id="edge2" class="edge">
<title>separated/up&#45;down/src/handlers/down.js&#45;&gt;lib/logger.js</title>
<path fill="none" stroke="#000000" stroke-width="2" stroke-opacity="0.200000" d="M244.83,-132.04C247.84,-130.11 250.6,-127.79 252.75,-125 264.63,-109.61 253.89,-100.19 260.75,-82 266.56,-66.62 276.45,-50.68 284.07,-39.58"/>
<polygon fill="#000000" fill-opacity="0.200000" stroke="#000000" stroke-width="2" stroke-opacity="0.200000" points="285.88,-40.66 287.61,-34.55 282.44,-38.25 285.88,-40.66"/>
</g>
<!-- separated/up&#45;down/src/handlers/down.js&#45;&gt;separated/up&#45;down/src/data.js -->
<g id="edge3" class="edge">
<title>separated/up&#45;down/src/handlers/down.js&#45;&gt;separated/up&#45;down/src/data.js</title>
<path fill="none" stroke="#000000" stroke-width="2" stroke-opacity="0.200000" d="M241.97,-150.47C249.55,-153.56 258.07,-157.04 266.01,-160.27"/>
<polygon fill="#000000" fill-opacity="0.200000" stroke="#000000" stroke-width="2" stroke-opacity="0.200000" points="265.59,-162.37 271.94,-162.7 267.18,-158.48 265.59,-162.37"/>
</g>
<!-- separated/up&#45;down/src/handlers/reset.js -->
<g id="node5" class="node">
<title>separated/up&#45;down/src/handlers/reset.js</title>
<g id="a_node5"><a xlink:href="separated/up-down/src/handlers/reset.js" xlink:title="reset.js">
<path fill="#ffffcc" stroke="black" d="M238.55,-119.3C238.55,-119.3 196.95,-119.3 196.95,-119.3 193.85,-119.3 190.75,-116.2 190.75,-113.1 190.75,-113.1 190.75,-106.9 190.75,-106.9 190.75,-103.8 193.85,-100.7 196.95,-100.7 196.95,-100.7 238.55,-100.7 238.55,-100.7 241.65,-100.7 244.75,-103.8 244.75,-106.9 244.75,-106.9 244.75,-113.1 244.75,-113.1 244.75,-116.2 241.65,-119.3 238.55,-119.3"/>
<text text-anchor="middle" x="217.75" y="-107.3" font-family="Helvetica,sans-Serif" font-size="9.00">reset.js</text>
</a>
</g>
</g>
<!-- separated/up&#45;down/src/handlers/reset.js&#45;&gt;lib/logger.js -->
<g id="edge4" class="edge">
<title>separated/up&#45;down/src/handlers/reset.js&#45;&gt;lib/logger.js</title>
<path fill="none" stroke="#000000" stroke-width="2" stroke-opacity="0.200000" d="M227.18,-100.58C240.53,-85.64 266.64,-56.45 282.2,-39.04"/>
<polygon fill="#000000" fill-opacity="0.200000" stroke="#000000" stroke-width="2" stroke-opacity="0.200000" points="283.86,-40.34 286.29,-34.46 280.73,-37.54 283.86,-40.34"/>
</g>
<!-- separated/up&#45;down/src/handlers/reset.js&#45;&gt;separated/up&#45;down/src/data.js -->
<g id="edge5" class="edge">
<title>separated/up&#45;down/src/handlers/reset.js&#45;&gt;separated/up&#45;down/src/data.js</title>
<path fill="none" stroke="#000000" stroke-width="2" stroke-opacity="0.200000" d="M241.77,-119.32C245.59,-121.28 249.39,-123.52 252.75,-126 264.91,-134.96 276.3,-147.84 284.15,-157.69"/>
<polygon fill="#000000" fill-opacity="0.200000" stroke="#000000" stroke-width="2" stroke-opacity="0.200000" points="282.57,-159.08 287.91,-162.53 285.88,-156.5 282.57,-159.08"/>
</g>
<!-- separated/up&#45;down/src/handlers/up.js -->
<g id="node6" class="node">
<title>separated/up&#45;down/src/handlers/up.js</title>
<g id="a_node6"><a xlink:href="separated/up-down/src/handlers/up.js" xlink:title="up.js">
<path fill="#ffffcc" stroke="black" d="M238.55,-181.3C238.55,-181.3 196.95,-181.3 196.95,-181.3 193.85,-181.3 190.75,-178.2 190.75,-175.1 190.75,-175.1 190.75,-168.9 190.75,-168.9 190.75,-165.8 193.85,-162.7 196.95,-162.7 196.95,-162.7 238.55,-162.7 238.55,-162.7 241.65,-162.7 244.75,-165.8 244.75,-168.9 244.75,-168.9 244.75,-175.1 244.75,-175.1 244.75,-178.2 241.65,-181.3 238.55,-181.3"/>
<text text-anchor="middle" x="217.75" y="-169.3" font-family="Helvetica,sans-Serif" font-size="9.00">up.js</text>
</a>
</g>
</g>
<!-- separated/up&#45;down/src/handlers/up.js&#45;&gt;lib/logger.js -->
<g id="edge6" class="edge">
<title>separated/up&#45;down/src/handlers/up.js&#45;&gt;lib/logger.js</title>
<path fill="none" stroke="#000000" stroke-width="2" stroke-opacity="0.200000" d="M245.03,-163.19C248.01,-161.24 250.71,-158.87 252.75,-156 262.35,-142.53 255.51,-97.69 260.75,-82 265.97,-66.41 275.93,-50.5 283.73,-39.46"/>
<polygon fill="#000000" fill-opacity="0.200000" stroke="#000000" stroke-width="2" stroke-opacity="0.200000" points="285.53,-40.55 287.35,-34.46 282.13,-38.08 285.53,-40.55"/>
</g>
<!-- separated/up&#45;down/src/handlers/up.js&#45;&gt;separated/up&#45;down/src/data.js -->
<g id="edge7" class="edge">
<title>separated/up&#45;down/src/handlers/up.js&#45;&gt;separated/up&#45;down/src/data.js</title>
<path fill="none" stroke="#000000" stroke-width="2" stroke-opacity="0.200000" d="M244.91,-172C250.52,-172 256.52,-172 262.33,-172"/>
<polygon fill="#000000" fill-opacity="0.200000" stroke="#000000" stroke-width="2" stroke-opacity="0.200000" points="262.55,-174.1 268.55,-172 262.55,-169.9 262.55,-174.1"/>
</g>
<!-- separated/up&#45;down/src/init/index.js -->
<g id="node7" class="node">
<title>separated/up&#45;down/src/init/index.js</title>
<g id="a_node7"><a xlink:href="separated/up-down/src/init/index.js" xlink:title="index.js">
<path fill="#ffffcc" stroke="black" d="M87.8,-242.3C87.8,-242.3 46.2,-242.3 46.2,-242.3 43.1,-242.3 40,-239.2 40,-236.1 40,-236.1 40,-229.9 40,-229.9 40,-226.8 43.1,-223.7 46.2,-223.7 46.2,-223.7 87.8,-223.7 87.8,-223.7 90.9,-223.7 94,-226.8 94,-229.9 94,-229.9 94,-236.1 94,-236.1 94,-239.2 90.9,-242.3 87.8,-242.3"/>
<text text-anchor="middle" x="67" y="-230.3" font-family="Helvetica,sans-Serif" font-size="9.00">index.js</text>
</a>
</g>
</g>
<!-- separated/up&#45;down/src/listeners/down.js -->
<g id="node8" class="node">
<title>separated/up&#45;down/src/listeners/down.js</title>
<g id="a_node8"><a xlink:href="separated/up-down/src/listeners/down.js" xlink:title="down.js">
<path fill="#ffffcc" stroke="black" d="M157.8,-150.3C157.8,-150.3 116.2,-150.3 116.2,-150.3 113.1,-150.3 110,-147.2 110,-144.1 110,-144.1 110,-137.9 110,-137.9 110,-134.8 113.1,-131.7 116.2,-131.7 116.2,-131.7 157.8,-131.7 157.8,-131.7 160.9,-131.7 164,-134.8 164,-137.9 164,-137.9 164,-144.1 164,-144.1 164,-147.2 160.9,-150.3 157.8,-150.3"/>
<text text-anchor="middle" x="137" y="-138.3" font-family="Helvetica,sans-Serif" font-size="9.00">down.js</text>
</a>
</g>
</g>
<!-- separated/up&#45;down/src/init/index.js&#45;&gt;separated/up&#45;down/src/listeners/down.js -->
<g id="edge8" class="edge">
<title>separated/up&#45;down/src/init/index.js&#45;&gt;separated/up&#45;down/src/listeners/down.js</title>
<path fill="none" stroke="#000000" stroke-width="2" stroke-opacity="0.200000" d="M69.95,-223.62C73.65,-207.95 83.07,-176.3 102,-157 103.08,-155.9 104.25,-154.87 105.48,-153.9"/>
<polygon fill="#000000" fill-opacity="0.200000" stroke="#000000" stroke-width="2" stroke-opacity="0.200000" points="106.74,-155.58 110.51,-150.47 104.37,-152.12 106.74,-155.58"/>
</g>
<!-- separated/up&#45;down/src/listeners/reset.js -->
<g id="node9" class="node">
<title>separated/up&#45;down/src/listeners/reset.js</title>
<g id="a_node9"><a xlink:href="separated/up-down/src/listeners/reset.js" xlink:title="reset.js">
<path fill="#ffffcc" stroke="black" d="M157.8,-119.3C157.8,-119.3 116.2,-119.3 116.2,-119.3 113.1,-119.3 110,-116.2 110,-113.1 110,-113.1 110,-106.9 110,-106.9 110,-103.8 113.1,-100.7 116.2,-100.7 116.2,-100.7 157.8,-100.7 157.8,-100.7 160.9,-100.7 164,-103.8 164,-106.9 164,-106.9 164,-113.1 164,-113.1 164,-116.2 160.9,-119.3 157.8,-119.3"/>
<text text-anchor="middle" x="137" y="-107.3" font-family="Helvetica,sans-Serif" font-size="9.00">reset.js</text>
</a>
</g>
</g>
<!-- separated/up&#45;down/src/init/index.js&#45;&gt;separated/up&#45;down/src/listeners/reset.js -->
<g id="edge9" class="edge">
<title>separated/up&#45;down/src/init/index.js&#45;&gt;separated/up&#45;down/src/listeners/reset.js</title>
<path fill="none" stroke="#000000" stroke-width="2" stroke-opacity="0.200000" d="M68.53,-223.48C70.14,-203.16 76.57,-155.03 102,-126 102.84,-125.04 103.75,-124.14 104.71,-123.29"/>
<polygon fill="#000000" fill-opacity="0.200000" stroke="#000000" stroke-width="2" stroke-opacity="0.200000" points="106.34,-124.69 109.9,-119.43 103.83,-121.32 106.34,-124.69"/>
</g>
<!-- separated/up&#45;down/src/listeners/up.js -->
<g id="node10" class="node">
<title>separated/up&#45;down/src/listeners/up.js</title>
<g id="a_node10"><a xlink:href="separated/up-down/src/listeners/up.js" xlink:title="up.js">
<path fill="#ffffcc" stroke="black" d="M157.8,-181.3C157.8,-181.3 116.2,-181.3 116.2,-181.3 113.1,-181.3 110,-178.2 110,-175.1 110,-175.1 110,-168.9 110,-168.9 110,-165.8 113.1,-162.7 116.2,-162.7 116.2,-162.7 157.8,-162.7 157.8,-162.7 160.9,-162.7 164,-165.8 164,-168.9 164,-168.9 164,-175.1 164,-175.1 164,-178.2 160.9,-181.3 157.8,-181.3"/>
<text text-anchor="middle" x="137" y="-169.3" font-family="Helvetica,sans-Serif" font-size="9.00">up.js</text>
</a>
</g>
</g>
<!-- separated/up&#45;down/src/init/index.js&#45;&gt;separated/up&#45;down/src/listeners/up.js -->
<g id="edge10" class="edge">
<title>separated/up&#45;down/src/init/index.js&#45;&gt;separated/up&#45;down/src/listeners/up.js</title>
<path fill="none" stroke="#000000" stroke-width="2" stroke-opacity="0.200000" d="M78.62,-223.47C89.94,-213.32 107.94,-197.17 120.76,-185.67"/>
<polygon fill="#000000" fill-opacity="0.200000" stroke="#000000" stroke-width="2" stroke-opacity="0.200000" points="122.16,-187.24 125.23,-181.67 119.36,-184.11 122.16,-187.24"/>
</g>
<!-- separated/up&#45;down/src/init/log&#45;state.js -->
<g id="node11" class="node">
<title>separated/up&#45;down/src/init/log&#45;state.js</title>
<g id="a_node11"><a xlink:href="separated/up-down/src/init/log-state.js" xlink:title="log&#45;state.js">
<path fill="#ffffcc" stroke="black" d="M160.31,-242.3C160.31,-242.3 113.69,-242.3 113.69,-242.3 110.59,-242.3 107.49,-239.2 107.49,-236.1 107.49,-236.1 107.49,-229.9 107.49,-229.9 107.49,-226.8 110.59,-223.7 113.69,-223.7 113.69,-223.7 160.31,-223.7 160.31,-223.7 163.41,-223.7 166.51,-226.8 166.51,-229.9 166.51,-229.9 166.51,-236.1 166.51,-236.1 166.51,-239.2 163.41,-242.3 160.31,-242.3"/>
<text text-anchor="middle" x="137" y="-230.3" font-family="Helvetica,sans-Serif" font-size="9.00">log&#45;state.js</text>
</a>
</g>
</g>
<!-- separated/up&#45;down/src/init/index.js&#45;&gt;separated/up&#45;down/src/init/log&#45;state.js -->
<g id="edge11" class="edge">
<title>separated/up&#45;down/src/init/index.js&#45;&gt;separated/up&#45;down/src/init/log&#45;state.js</title>
<path fill="none" stroke="#000000" stroke-width="2" stroke-opacity="0.200000" d="M94.1,-233C96.4,-233 98.76,-233 101.13,-233"/>
<polygon fill="#000000" fill-opacity="0.200000" stroke="#000000" stroke-width="2" stroke-opacity="0.200000" points="101.37,-235.1 107.37,-233 101.37,-230.9 101.37,-235.1"/>
</g>
<!-- separated/up&#45;down/src/init/ui.js -->
<g id="node12" class="node">
<title>separated/up&#45;down/src/init/ui.js</title>
<g id="a_node12"><a xlink:href="separated/up-down/src/init/ui.js" xlink:title="ui.js">
<path fill="#ffffcc" stroke="black" d="M157.8,-273.3C157.8,-273.3 116.2,-273.3 116.2,-273.3 113.1,-273.3 110,-270.2 110,-267.1 110,-267.1 110,-260.9 110,-260.9 110,-257.8 113.1,-254.7 116.2,-254.7 116.2,-254.7 157.8,-254.7 157.8,-254.7 160.9,-254.7 164,-257.8 164,-260.9 164,-260.9 164,-267.1 164,-267.1 164,-270.2 160.9,-273.3 157.8,-273.3"/>
<text text-anchor="middle" x="137" y="-261.3" font-family="Helvetica,sans-Serif" font-size="9.00">ui.js</text>
</a>
</g>
</g>
<!-- separated/up&#45;down/src/init/index.js&#45;&gt;separated/up&#45;down/src/init/ui.js -->
<g id="edge12" class="edge">
<title>separated/up&#45;down/src/init/index.js&#45;&gt;separated/up&#45;down/src/init/ui.js</title>
<path fill="none" stroke="#000000" stroke-width="2" stroke-opacity="0.200000" d="M88.77,-242.47C95.36,-245.47 102.74,-248.84 109.67,-252"/>
<polygon fill="#000000" fill-opacity="0.200000" stroke="#000000" stroke-width="2" stroke-opacity="0.200000" points="109.02,-254.01 115.36,-254.59 110.77,-250.19 109.02,-254.01"/>
</g>
<!-- separated/up&#45;down/src/listeners/down.js&#45;&gt;separated/up&#45;down/src/handlers/down.js -->
<g id="edge16" class="edge">
<title>separated/up&#45;down/src/listeners/down.js&#45;&gt;separated/up&#45;down/src/handlers/down.js</title>
<path fill="none" stroke="#000000" stroke-width="2" stroke-opacity="0.200000" d="M164.22,-141C170.73,-141 177.78,-141 184.54,-141"/>
<polygon fill="#000000" fill-opacity="0.200000" stroke="#000000" stroke-width="2" stroke-opacity="0.200000" points="184.64,-143.1 190.64,-141 184.64,-138.9 184.64,-143.1"/>
</g>
<!-- separated/up&#45;down/src/listeners/reset.js&#45;&gt;separated/up&#45;down/src/handlers/reset.js -->
<g id="edge17" class="edge">
<title>separated/up&#45;down/src/listeners/reset.js&#45;&gt;separated/up&#45;down/src/handlers/reset.js</title>
<path fill="none" stroke="#000000" stroke-width="2" stroke-opacity="0.200000" d="M164.22,-110C170.73,-110 177.78,-110 184.54,-110"/>
<polygon fill="#000000" fill-opacity="0.200000" stroke="#000000" stroke-width="2" stroke-opacity="0.200000" points="184.64,-112.1 190.64,-110 184.64,-107.9 184.64,-112.1"/>
</g>
<!-- separated/up&#45;down/src/listeners/up.js&#45;&gt;separated/up&#45;down/src/handlers/up.js -->
<g id="edge18" class="edge">
<title>separated/up&#45;down/src/listeners/up.js&#45;&gt;separated/up&#45;down/src/handlers/up.js</title>
<path fill="none" stroke="#000000" stroke-width="2" stroke-opacity="0.200000" d="M164.22,-172C170.73,-172 177.78,-172 184.54,-172"/>
<polygon fill="#000000" fill-opacity="0.200000" stroke="#000000" stroke-width="2" stroke-opacity="0.200000" points="184.64,-174.1 190.64,-172 184.64,-169.9 184.64,-174.1"/>
</g>
<!-- separated/up&#45;down/src/init/log&#45;state.js&#45;&gt;lib/logger.js -->
<g id="edge13" class="edge">
<title>separated/up&#45;down/src/init/log&#45;state.js&#45;&gt;lib/logger.js</title>
<path fill="none" stroke="#000000" stroke-width="2" stroke-opacity="0.200000" d="M161.45,-223.54C166.66,-220.33 171.57,-216.2 174.75,-211 188.81,-188.01 168.54,-112.9 182.75,-90 200.61,-61.23 236.22,-43.82 262.51,-34.35"/>
<polygon fill="#000000" fill-opacity="0.200000" stroke="#000000" stroke-width="2" stroke-opacity="0.200000" points="263.33,-36.29 268.31,-32.34 261.95,-32.32 263.33,-36.29"/>
</g>
<!-- separated/up&#45;down/src/init/log&#45;state.js&#45;&gt;separated/up&#45;down/src/data.js -->
<g id="edge14" class="edge">
<title>separated/up&#45;down/src/init/log&#45;state.js&#45;&gt;separated/up&#45;down/src/data.js</title>
<path fill="none" stroke="#000000" stroke-width="2" stroke-opacity="0.200000" d="M166.77,-231.88C190.88,-229.94 225.61,-224.75 252.75,-211 264.74,-204.93 275.76,-194.42 283.51,-185.83"/>
<polygon fill="#000000" fill-opacity="0.200000" stroke="#000000" stroke-width="2" stroke-opacity="0.200000" points="285.09,-187.21 287.46,-181.3 281.93,-184.45 285.09,-187.21"/>
</g>
<!-- separated/up&#45;down/src/init/ui.js&#45;&gt;separated/up&#45;down/src/data.js -->
<g id="edge15" class="edge">
<title>separated/up&#45;down/src/init/ui.js&#45;&gt;separated/up&#45;down/src/data.js</title>
<path fill="none" stroke="#000000" stroke-width="2" stroke-opacity="0.200000" d="M164.06,-259.24C188.64,-253.79 225.67,-243.07 252.75,-224 266.78,-214.13 278.61,-198.32 286.1,-186.72"/>
<polygon fill="#000000" fill-opacity="0.200000" stroke="#000000" stroke-width="2" stroke-opacity="0.200000" points="288.03,-187.61 289.43,-181.41 284.46,-185.38 288.03,-187.61"/>
</g>
</g>
</svg>
