<?xml version="1.0" encoding="UTF-8" standalone="no"?>
<!DOCTYPE svg PUBLIC "-//W3C//DTD SVG 1.1//EN"
 "http://www.w3.org/Graphics/SVG/1.1/DTD/svg11.dtd">
<!-- Generated by graphviz version 2.44.0 (20200408.0750)
 -->
<!-- Title: dependency&#45;cruiser output Pages: 1 -->
<svg width="371pt" height="413pt"
 viewBox="0.00 0.00 370.75 413.00" xmlns="http://www.w3.org/2000/svg" xmlns:xlink="http://www.w3.org/1999/xlink">
<g id="graph0" class="graph" transform="scale(1 1) rotate(0) translate(4 409)">
<title>dependency&#45;cruiser output</title>
<polygon fill="white" stroke="transparent" points="-4,4 -4,-409 366.75,-409 366.75,4 -4,4"/>
<g id="clust1" class="cluster">
<title>cluster_</title>
<path fill="#ffffff" stroke="black" stroke-width="2" d="M272.75,-8C272.75,-8 334.75,-8 334.75,-8 340.75,-8 346.75,-14 346.75,-20 346.75,-20 346.75,-65 346.75,-65 346.75,-71 340.75,-77 334.75,-77 334.75,-77 272.75,-77 272.75,-77 266.75,-77 260.75,-71 260.75,-65 260.75,-65 260.75,-20 260.75,-20 260.75,-14 266.75,-8 272.75,-8"/>
</g>
<g id="clust2" class="cluster">
<title>cluster_/.lib</title>
<path fill="#ffffff" stroke="black" stroke-width="2" d="M280.75,-16C280.75,-16 326.75,-16 326.75,-16 332.75,-16 338.75,-22 338.75,-28 338.75,-28 338.75,-57 338.75,-57 338.75,-63 332.75,-69 326.75,-69 326.75,-69 280.75,-69 280.75,-69 274.75,-69 268.75,-63 268.75,-57 268.75,-57 268.75,-28 268.75,-28 268.75,-22 274.75,-16 280.75,-16"/>
<text text-anchor="middle" x="303.75" y="-56.9" font-family="Helvetica,sans-Serif" font-weight="bold" font-size="9.00">.lib</text>
</g>
<g id="clust3" class="cluster">
<title>cluster_separated</title>
<path fill="#ffffff" stroke="black" stroke-width="2" d="M20,-85C20,-85 342.75,-85 342.75,-85 348.75,-85 354.75,-91 354.75,-97 354.75,-97 354.75,-385 354.75,-385 354.75,-391 348.75,-397 342.75,-397 342.75,-397 20,-397 20,-397 14,-397 8,-391 8,-385 8,-385 8,-97 8,-97 8,-91 14,-85 20,-85"/>
<text text-anchor="middle" x="181.38" y="-384.9" font-family="Helvetica,sans-Serif" font-weight="bold" font-size="9.00">separated</text>
</g>
<g id="clust4" class="cluster">
<title>cluster_separated/up&#45;down</title>
<path fill="#ffffff" stroke="black" stroke-width="2" d="M28,-93C28,-93 334.75,-93 334.75,-93 340.75,-93 346.75,-99 346.75,-105 346.75,-105 346.75,-358 346.75,-358 346.75,-364 340.75,-370 334.75,-370 334.75,-370 28,-370 28,-370 22,-370 16,-364 16,-358 16,-358 16,-105 16,-105 16,-99 22,-93 28,-93"/>
<text text-anchor="middle" x="181.38" y="-357.9" font-family="Helvetica,sans-Serif" font-weight="bold" font-size="9.00">up&#45;down</text>
</g>
<g id="clust5" class="cluster">
<title>cluster_separated/up&#45;down/src</title>
<path fill="#ffffff" stroke="black" stroke-width="2" d="M36,-101C36,-101 326.75,-101 326.75,-101 332.75,-101 338.75,-107 338.75,-113 338.75,-113 338.75,-331 338.75,-331 338.75,-337 332.75,-343 326.75,-343 326.75,-343 36,-343 36,-343 30,-343 24,-337 24,-331 24,-331 24,-113 24,-113 24,-107 30,-101 36,-101"/>
<text text-anchor="middle" x="181.38" y="-330.9" font-family="Helvetica,sans-Serif" font-weight="bold" font-size="9.00">src</text>
</g>
<g id="clust6" class="cluster">
<title>cluster_separated/up&#45;down/src/handlers</title>
<path fill="#ffffff" stroke="black" stroke-width="2" d="M194.75,-109C194.75,-109 240.75,-109 240.75,-109 246.75,-109 252.75,-115 252.75,-121 252.75,-121 252.75,-212 252.75,-212 252.75,-218 246.75,-224 240.75,-224 240.75,-224 194.75,-224 194.75,-224 188.75,-224 182.75,-218 182.75,-212 182.75,-212 182.75,-121 182.75,-121 182.75,-115 188.75,-109 194.75,-109"/>
<text text-anchor="middle" x="217.75" y="-211.9" font-family="Helvetica,sans-Serif" font-weight="bold" font-size="9.00">handlers</text>
</g>
<g id="clust7" class="cluster">
<title>cluster_separated/up&#45;down/src/init</title>
<path fill="#ffffff" stroke="black" stroke-width="2" d="M44,-232C44,-232 162.75,-232 162.75,-232 168.75,-232 174.75,-238 174.75,-244 174.75,-244 174.75,-304 174.75,-304 174.75,-310 168.75,-316 162.75,-316 162.75,-316 44,-316 44,-316 38,-316 32,-310 32,-304 32,-304 32,-244 32,-244 32,-238 38,-232 44,-232"/>
<text text-anchor="middle" x="103.38" y="-303.9" font-family="Helvetica,sans-Serif" font-weight="bold" font-size="9.00">init</text>
</g>
<g id="clust8" class="cluster">
<title>cluster_separated/up&#45;down/src/listeners</title>
<path fill="#ffffff" stroke="black" stroke-width="2" d="M114,-109C114,-109 160,-109 160,-109 166,-109 172,-115 172,-121 172,-121 172,-212 172,-212 172,-218 166,-224 160,-224 160,-224 114,-224 114,-224 108,-224 102,-218 102,-212 102,-212 102,-121 102,-121 102,-115 108,-109 114,-109"/>
<text text-anchor="middle" x="137" y="-211.9" font-family="Helvetica,sans-Serif" font-weight="bold" font-size="9.00">listeners</text>
</g>
<!-- /.lib/logger.js -->
<g id="node1" class="node">
<title>/.lib/logger.js</title>
<polygon fill="#ffffcc" stroke="red" points="330.75,-42.3 329.2,-44.37 318.35,-44.37 316.8,-42.3 276.75,-42.3 276.75,-23.7 330.75,-23.7 330.75,-42.3"/>
<text text-anchor="middle" x="303.75" y="-30.3" font-family="Helvetica,sans-Serif" font-size="9.00" fill="red">logger.js</text>
</g>
<!-- separated/up&#45;down/src/data.js -->
<g id="node2" class="node">
<title>separated/up&#45;down/src/data.js</title>
<g id="a_node2"><a xlink:href="separated/up-down/src/data.js" xlink:title="data.js">
<path fill="#ffffcc" stroke="black" d="M324.55,-197.3C324.55,-197.3 282.95,-197.3 282.95,-197.3 279.85,-197.3 276.75,-194.2 276.75,-191.1 276.75,-191.1 276.75,-184.9 276.75,-184.9 276.75,-181.8 279.85,-178.7 282.95,-178.7 282.95,-178.7 324.55,-178.7 324.55,-178.7 327.65,-178.7 330.75,-181.8 330.75,-184.9 330.75,-184.9 330.75,-191.1 330.75,-191.1 330.75,-194.2 327.65,-197.3 324.55,-197.3"/>
<text text-anchor="middle" x="303.75" y="-185.3" font-family="Helvetica,sans-Serif" font-size="9.00">data.js</text>
</a>
</g>
</g>
<!-- separated/up&#45;down/src/handlers/down.js -->
<g id="node3" class="node">
<title>separated/up&#45;down/src/handlers/down.js</title>
<g id="a_node3"><a xlink:href="separated/up-down/src/handlers/down.js" xlink:title="down.js">
<path fill="#ffffcc" stroke="black" d="M238.55,-166.3C238.55,-166.3 196.95,-166.3 196.95,-166.3 193.85,-166.3 190.75,-163.2 190.75,-160.1 190.75,-160.1 190.75,-153.9 190.75,-153.9 190.75,-150.8 193.85,-147.7 196.95,-147.7 196.95,-147.7 238.55,-147.7 238.55,-147.7 241.65,-147.7 244.75,-150.8 244.75,-153.9 244.75,-153.9 244.75,-160.1 244.75,-160.1 244.75,-163.2 241.65,-166.3 238.55,-166.3"/>
<text text-anchor="middle" x="217.75" y="-154.3" font-family="Helvetica,sans-Serif" font-size="9.00">down.js</text>
</a>
</g>
</g>
<!-- separated/up&#45;down/src/handlers/down.js&#45;&gt;/.lib/logger.js -->
<g id="edge2" class="edge">
<title>separated/up&#45;down/src/handlers/down.js&#45;&gt;/.lib/logger.js</title>
<path fill="none" stroke="#000000" stroke-width="2" stroke-opacity="0.200000" d="M244.83,-148.04C247.84,-146.11 250.6,-143.79 252.75,-141 264.63,-125.61 253.56,-116.06 260.75,-98 268.23,-79.21 281.43,-60.05 291.04,-47.45"/>
<polygon fill="#000000" fill-opacity="0.200000" stroke="#000000" stroke-width="2" stroke-opacity="0.200000" points="292.89,-48.49 294.91,-42.47 289.57,-45.91 292.89,-48.49"/>
</g>
<!-- separated/up&#45;down/src/handlers/down.js&#45;&gt;separated/up&#45;down/src/data.js -->
<g id="edge1" class="edge">
<title>separated/up&#45;down/src/handlers/down.js&#45;&gt;separated/up&#45;down/src/data.js</title>
<path fill="none" stroke="#000000" stroke-width="2" stroke-opacity="0.200000" d="M244.41,-166.47C253.04,-169.65 262.76,-173.24 271.75,-176.56"/>
<polygon fill="#000000" fill-opacity="0.200000" stroke="#000000" stroke-width="2" stroke-opacity="0.200000" points="271.18,-178.59 277.54,-178.7 272.64,-174.65 271.18,-178.59"/>
</g>
<!-- separated/up&#45;down/src/handlers/reset.js -->
<g id="node4" class="node">
<title>separated/up&#45;down/src/handlers/reset.js</title>
<g id="a_node4"><a xlink:href="separated/up-down/src/handlers/reset.js" xlink:title="reset.js">
<path fill="#ffffcc" stroke="black" d="M238.55,-135.3C238.55,-135.3 196.95,-135.3 196.95,-135.3 193.85,-135.3 190.75,-132.2 190.75,-129.1 190.75,-129.1 190.75,-122.9 190.75,-122.9 190.75,-119.8 193.85,-116.7 196.95,-116.7 196.95,-116.7 238.55,-116.7 238.55,-116.7 241.65,-116.7 244.75,-119.8 244.75,-122.9 244.75,-122.9 244.75,-129.1 244.75,-129.1 244.75,-132.2 241.65,-135.3 238.55,-135.3"/>
<text text-anchor="middle" x="217.75" y="-123.3" font-family="Helvetica,sans-Serif" font-size="9.00">reset.js</text>
</a>
</g>
</g>
<!-- separated/up&#45;down/src/handlers/reset.js&#45;&gt;/.lib/logger.js -->
<g id="edge4" class="edge">
<title>separated/up&#45;down/src/handlers/reset.js&#45;&gt;/.lib/logger.js</title>
<path fill="none" stroke="#000000" stroke-width="2" stroke-opacity="0.200000" d="M227.43,-116.4C242.34,-99.88 272.91,-66.04 290.17,-46.93"/>
<polygon fill="#000000" fill-opacity="0.200000" stroke="#000000" stroke-width="2" stroke-opacity="0.200000" points="291.79,-48.27 294.25,-42.41 288.67,-45.46 291.79,-48.27"/>
</g>
<!-- separated/up&#45;down/src/handlers/reset.js&#45;&gt;separated/up&#45;down/src/data.js -->
<g id="edge3" class="edge">
<title>separated/up&#45;down/src/handlers/reset.js&#45;&gt;separated/up&#45;down/src/data.js</title>
<path fill="none" stroke="#000000" stroke-width="2" stroke-opacity="0.200000" d="M241.23,-135.39C245.19,-137.37 249.18,-139.6 252.75,-142 266.55,-151.27 280.31,-164.28 289.89,-174.1"/>
<polygon fill="#000000" fill-opacity="0.200000" stroke="#000000" stroke-width="2" stroke-opacity="0.200000" points="288.57,-175.75 294.24,-178.63 291.6,-172.85 288.57,-175.75"/>
</g>
<!-- separated/up&#45;down/src/handlers/up.js -->
<g id="node5" class="node">
<title>separated/up&#45;down/src/handlers/up.js</title>
<g id="a_node5"><a xlink:href="separated/up-down/src/handlers/up.js" xlink:title="up.js">
<path fill="#ffffcc" stroke="black" d="M238.55,-197.3C238.55,-197.3 196.95,-197.3 196.95,-197.3 193.85,-197.3 190.75,-194.2 190.75,-191.1 190.75,-191.1 190.75,-184.9 190.75,-184.9 190.75,-181.8 193.85,-178.7 196.95,-178.7 196.95,-178.7 238.55,-178.7 238.55,-178.7 241.65,-178.7 244.75,-181.8 244.75,-184.9 244.75,-184.9 244.75,-191.1 244.75,-191.1 244.75,-194.2 241.65,-197.3 238.55,-197.3"/>
<text text-anchor="middle" x="217.75" y="-185.3" font-family="Helvetica,sans-Serif" font-size="9.00">up.js</text>
</a>
</g>
</g>
<!-- separated/up&#45;down/src/handlers/up.js&#45;&gt;/.lib/logger.js -->
<g id="edge6" class="edge">
<title>separated/up&#45;down/src/handlers/up.js&#45;&gt;/.lib/logger.js</title>
<path fill="none" stroke="#000000" stroke-width="2" stroke-opacity="0.200000" d="M245.03,-179.19C248.01,-177.24 250.71,-174.87 252.75,-172 262.35,-158.53 255.23,-113.59 260.75,-98 267.51,-78.94 280.84,-59.83 290.68,-47.31"/>
<polygon fill="#000000" fill-opacity="0.200000" stroke="#000000" stroke-width="2" stroke-opacity="0.200000" points="292.53,-48.36 294.65,-42.37 289.25,-45.73 292.53,-48.36"/>
</g>
<!-- separated/up&#45;down/src/handlers/up.js&#45;&gt;separated/up&#45;down/src/data.js -->
<g id="edge5" class="edge">
<title>separated/up&#45;down/src/handlers/up.js&#45;&gt;separated/up&#45;down/src/data.js</title>
<path fill="none" stroke="#000000" stroke-width="2" stroke-opacity="0.200000" d="M244.87,-188C252.93,-188 261.9,-188 270.33,-188"/>
<polygon fill="#000000" fill-opacity="0.200000" stroke="#000000" stroke-width="2" stroke-opacity="0.200000" points="270.65,-190.1 276.65,-188 270.65,-185.9 270.65,-190.1"/>
</g>
<!-- separated/up&#45;down/src/init/index.js -->
<g id="node6" class="node">
<title>separated/up&#45;down/src/init/index.js</title>
<g id="a_node6"><a xlink:href="separated/up-down/src/init/index.js" xlink:title="index.js">
<path fill="#ffffcc" stroke="black" d="M87.8,-258.3C87.8,-258.3 46.2,-258.3 46.2,-258.3 43.1,-258.3 40,-255.2 40,-252.1 40,-252.1 40,-245.9 40,-245.9 40,-242.8 43.1,-239.7 46.2,-239.7 46.2,-239.7 87.8,-239.7 87.8,-239.7 90.9,-239.7 94,-242.8 94,-245.9 94,-245.9 94,-252.1 94,-252.1 94,-255.2 90.9,-258.3 87.8,-258.3"/>
<text text-anchor="middle" x="67" y="-246.3" font-family="Helvetica,sans-Serif" font-size="9.00">index.js</text>
</a>
</g>
</g>
<!-- separated/up&#45;down/src/listeners/down.js -->
<g id="node7" class="node">
<title>separated/up&#45;down/src/listeners/down.js</title>
<g id="a_node7"><a xlink:href="separated/up-down/src/listeners/down.js" xlink:title="down.js">
<path fill="#ffffcc" stroke="black" d="M157.8,-166.3C157.8,-166.3 116.2,-166.3 116.2,-166.3 113.1,-166.3 110,-163.2 110,-160.1 110,-160.1 110,-153.9 110,-153.9 110,-150.8 113.1,-147.7 116.2,-147.7 116.2,-147.7 157.8,-147.7 157.8,-147.7 160.9,-147.7 164,-150.8 164,-153.9 164,-153.9 164,-160.1 164,-160.1 164,-163.2 160.9,-166.3 157.8,-166.3"/>
<text text-anchor="middle" x="137" y="-154.3" font-family="Helvetica,sans-Serif" font-size="9.00">down.js</text>
</a>
</g>
</g>
<!-- separated/up&#45;down/src/init/index.js&#45;&gt;separated/up&#45;down/src/listeners/down.js -->
<g id="edge7" class="edge">
<title>separated/up&#45;down/src/init/index.js&#45;&gt;separated/up&#45;down/src/listeners/down.js</title>
<path fill="none" stroke="#000000" stroke-width="2" stroke-opacity="0.200000" d="M69.95,-239.62C73.65,-223.95 83.07,-192.3 102,-173 103.08,-171.9 104.25,-170.87 105.48,-169.9"/>
<polygon fill="#000000" fill-opacity="0.200000" stroke="#000000" stroke-width="2" stroke-opacity="0.200000" points="106.74,-171.58 110.51,-166.47 104.37,-168.12 106.74,-171.58"/>
</g>
<!-- separated/up&#45;down/src/listeners/reset.js -->
<g id="node8" class="node">
<title>separated/up&#45;down/src/listeners/reset.js</title>
<g id="a_node8"><a xlink:href="separated/up-down/src/listeners/reset.js" xlink:title="reset.js">
<path fill="#ffffcc" stroke="black" d="M157.8,-135.3C157.8,-135.3 116.2,-135.3 116.2,-135.3 113.1,-135.3 110,-132.2 110,-129.1 110,-129.1 110,-122.9 110,-122.9 110,-119.8 113.1,-116.7 116.2,-116.7 116.2,-116.7 157.8,-116.7 157.8,-116.7 160.9,-116.7 164,-119.8 164,-122.9 164,-122.9 164,-129.1 164,-129.1 164,-132.2 160.9,-135.3 157.8,-135.3"/>
<text text-anchor="middle" x="137" y="-123.3" font-family="Helvetica,sans-Serif" font-size="9.00">reset.js</text>
</a>
</g>
</g>
<!-- separated/up&#45;down/src/init/index.js&#45;&gt;separated/up&#45;down/src/listeners/reset.js -->
<g id="edge8" class="edge">
<title>separated/up&#45;down/src/init/index.js&#45;&gt;separated/up&#45;down/src/listeners/reset.js</title>
<path fill="none" stroke="#000000" stroke-width="2" stroke-opacity="0.200000" d="M68.53,-239.48C70.14,-219.16 76.57,-171.03 102,-142 102.84,-141.04 103.75,-140.14 104.71,-139.29"/>
<polygon fill="#000000" fill-opacity="0.200000" stroke="#000000" stroke-width="2" stroke-opacity="0.200000" points="106.34,-140.69 109.9,-135.43 103.83,-137.32 106.34,-140.69"/>
</g>
<!-- separated/up&#45;down/src/listeners/up.js -->
<g id="node9" class="node">
<title>separated/up&#45;down/src/listeners/up.js</title>
<g id="a_node9"><a xlink:href="separated/up-down/src/listeners/up.js" xlink:title="up.js">
<path fill="#ffffcc" stroke="black" d="M157.8,-197.3C157.8,-197.3 116.2,-197.3 116.2,-197.3 113.1,-197.3 110,-194.2 110,-191.1 110,-191.1 110,-184.9 110,-184.9 110,-181.8 113.1,-178.7 116.2,-178.7 116.2,-178.7 157.8,-178.7 157.8,-178.7 160.9,-178.7 164,-181.8 164,-184.9 164,-184.9 164,-191.1 164,-191.1 164,-194.2 160.9,-197.3 157.8,-197.3"/>
<text text-anchor="middle" x="137" y="-185.3" font-family="Helvetica,sans-Serif" font-size="9.00">up.js</text>
</a>
</g>
</g>
<!-- separated/up&#45;down/src/init/index.js&#45;&gt;separated/up&#45;down/src/listeners/up.js -->
<g id="edge9" class="edge">
<title>separated/up&#45;down/src/init/index.js&#45;&gt;separated/up&#45;down/src/listeners/up.js</title>
<path fill="none" stroke="#000000" stroke-width="2" stroke-opacity="0.200000" d="M78.62,-239.47C89.94,-229.32 107.94,-213.17 120.76,-201.67"/>
<polygon fill="#000000" fill-opacity="0.200000" stroke="#000000" stroke-width="2" stroke-opacity="0.200000" points="122.16,-203.24 125.23,-197.67 119.36,-200.11 122.16,-203.24"/>
</g>
<!-- separated/up&#45;down/src/init/log&#45;state.js -->
<g id="node10" class="node">
<title>separated/up&#45;down/src/init/log&#45;state.js</title>
<g id="a_node10"><a xlink:href="separated/up-down/src/init/log-state.js" xlink:title="log&#45;state.js">
<path fill="#ffffcc" stroke="black" d="M160.31,-258.3C160.31,-258.3 113.69,-258.3 113.69,-258.3 110.59,-258.3 107.49,-255.2 107.49,-252.1 107.49,-252.1 107.49,-245.9 107.49,-245.9 107.49,-242.8 110.59,-239.7 113.69,-239.7 113.69,-239.7 160.31,-239.7 160.31,-239.7 163.41,-239.7 166.51,-242.8 166.51,-245.9 166.51,-245.9 166.51,-252.1 166.51,-252.1 166.51,-255.2 163.41,-258.3 160.31,-258.3"/>
<text text-anchor="middle" x="137" y="-246.3" font-family="Helvetica,sans-Serif" font-size="9.00">log&#45;state.js</text>
</a>
</g>
</g>
<!-- separated/up&#45;down/src/init/index.js&#45;&gt;separated/up&#45;down/src/init/log&#45;state.js -->
<g id="edge10" class="edge">
<title>separated/up&#45;down/src/init/index.js&#45;&gt;separated/up&#45;down/src/init/log&#45;state.js</title>
<path fill="none" stroke="#000000" stroke-width="2" stroke-opacity="0.200000" d="M94.1,-249C96.4,-249 98.76,-249 101.13,-249"/>
<polygon fill="#000000" fill-opacity="0.200000" stroke="#000000" stroke-width="2" stroke-opacity="0.200000" points="101.37,-251.1 107.37,-249 101.37,-246.9 101.37,-251.1"/>
</g>
<!-- separated/up&#45;down/src/init/ui.js -->
<g id="node11" class="node">
<title>separated/up&#45;down/src/init/ui.js</title>
<g id="a_node11"><a xlink:href="separated/up-down/src/init/ui.js" xlink:title="ui.js">
<path fill="#ffffcc" stroke="black" d="M157.8,-289.3C157.8,-289.3 116.2,-289.3 116.2,-289.3 113.1,-289.3 110,-286.2 110,-283.1 110,-283.1 110,-276.9 110,-276.9 110,-273.8 113.1,-270.7 116.2,-270.7 116.2,-270.7 157.8,-270.7 157.8,-270.7 160.9,-270.7 164,-273.8 164,-276.9 164,-276.9 164,-283.1 164,-283.1 164,-286.2 160.9,-289.3 157.8,-289.3"/>
<text text-anchor="middle" x="137" y="-277.3" font-family="Helvetica,sans-Serif" font-size="9.00">ui.js</text>
</a>
</g>
</g>
<!-- separated/up&#45;down/src/init/index.js&#45;&gt;separated/up&#45;down/src/init/ui.js -->
<g id="edge11" class="edge">
<title>separated/up&#45;down/src/init/index.js&#45;&gt;separated/up&#45;down/src/init/ui.js</title>
<path fill="none" stroke="#000000" stroke-width="2" stroke-opacity="0.200000" d="M88.77,-258.47C95.36,-261.47 102.74,-264.84 109.67,-268"/>
<polygon fill="#000000" fill-opacity="0.200000" stroke="#000000" stroke-width="2" stroke-opacity="0.200000" points="109.02,-270.01 115.36,-270.59 110.77,-266.19 109.02,-270.01"/>
</g>
<!-- separated/up&#45;down/src/listeners/down.js&#45;&gt;separated/up&#45;down/src/handlers/down.js -->
<g id="edge15" class="edge">
<title>separated/up&#45;down/src/listeners/down.js&#45;&gt;separated/up&#45;down/src/handlers/down.js</title>
<path fill="none" stroke="#000000" stroke-width="2" stroke-opacity="0.200000" d="M164.22,-157C170.73,-157 177.78,-157 184.54,-157"/>
<polygon fill="#000000" fill-opacity="0.200000" stroke="#000000" stroke-width="2" stroke-opacity="0.200000" points="184.64,-159.1 190.64,-157 184.64,-154.9 184.64,-159.1"/>
</g>
<!-- separated/up&#45;down/src/listeners/reset.js&#45;&gt;separated/up&#45;down/src/handlers/reset.js -->
<g id="edge16" class="edge">
<title>separated/up&#45;down/src/listeners/reset.js&#45;&gt;separated/up&#45;down/src/handlers/reset.js</title>
<path fill="none" stroke="#000000" stroke-width="2" stroke-opacity="0.200000" d="M164.22,-126C170.73,-126 177.78,-126 184.54,-126"/>
<polygon fill="#000000" fill-opacity="0.200000" stroke="#000000" stroke-width="2" stroke-opacity="0.200000" points="184.64,-128.1 190.64,-126 184.64,-123.9 184.64,-128.1"/>
</g>
<!-- separated/up&#45;down/src/listeners/up.js&#45;&gt;separated/up&#45;down/src/handlers/up.js -->
<g id="edge17" class="edge">
<title>separated/up&#45;down/src/listeners/up.js&#45;&gt;separated/up&#45;down/src/handlers/up.js</title>
<path fill="none" stroke="#000000" stroke-width="2" stroke-opacity="0.200000" d="M164.22,-188C170.73,-188 177.78,-188 184.54,-188"/>
<polygon fill="#000000" fill-opacity="0.200000" stroke="#000000" stroke-width="2" stroke-opacity="0.200000" points="184.64,-190.1 190.64,-188 184.64,-185.9 184.64,-190.1"/>
</g>
<!-- separated/up&#45;down/src/init/log&#45;state.js&#45;&gt;/.lib/logger.js -->
<g id="edge13" class="edge">
<title>separated/up&#45;down/src/init/log&#45;state.js&#45;&gt;/.lib/logger.js</title>
<path fill="none" stroke="#000000" stroke-width="2" stroke-opacity="0.200000" d="M161.45,-239.54C166.66,-236.33 171.57,-232.2 174.75,-227 188.81,-204.01 168.78,-129.04 182.75,-106 202.41,-73.59 242.44,-53.62 270.85,-42.94"/>
<polygon fill="#000000" fill-opacity="0.200000" stroke="#000000" stroke-width="2" stroke-opacity="0.200000" points="271.81,-44.83 276.73,-40.8 270.37,-40.88 271.81,-44.83"/>
</g>
<!-- separated/up&#45;down/src/init/log&#45;state.js&#45;&gt;separated/up&#45;down/src/data.js -->
<g id="edge12" class="edge">
<title>separated/up&#45;down/src/init/log&#45;state.js&#45;&gt;separated/up&#45;down/src/data.js</title>
<path fill="none" stroke="#000000" stroke-width="2" stroke-opacity="0.200000" d="M166.96,-247.23C190.87,-244.89 225.23,-239.49 252.75,-227 266.24,-220.88 279.36,-210.42 288.78,-201.87"/>
<polygon fill="#000000" fill-opacity="0.200000" stroke="#000000" stroke-width="2" stroke-opacity="0.200000" points="290.39,-203.24 293.34,-197.61 287.53,-200.17 290.39,-203.24"/>
</g>
<!-- separated/up&#45;down/src/init/ui.js&#45;&gt;separated/up&#45;down/src/data.js -->
<g id="edge14" class="edge">
<title>separated/up&#45;down/src/init/ui.js&#45;&gt;separated/up&#45;down/src/data.js</title>
<path fill="none" stroke="#000000" stroke-width="2" stroke-opacity="0.200000" d="M164.17,-274.59C188.5,-268.73 225.05,-257.77 252.75,-240 268.48,-229.92 282.85,-213.93 292.11,-202.34"/>
<polygon fill="#000000" fill-opacity="0.200000" stroke="#000000" stroke-width="2" stroke-opacity="0.200000" points="293.96,-203.39 295.99,-197.37 290.65,-200.81 293.96,-203.39"/>
</g>
</g>
</svg>
