<?xml version="1.0" encoding="UTF-8" standalone="no"?>
<!DOCTYPE svg PUBLIC "-//W3C//DTD SVG 1.1//EN"
 "http://www.w3.org/Graphics/SVG/1.1/DTD/svg11.dtd">
<!-- Generated by graphviz version 2.44.0 (20200408.0750)
 -->
<!-- Title: dependency&#45;cruiser output Pages: 1 -->
<svg width="413pt" height="244pt"
 viewBox="0.00 0.00 413.00 244.00" xmlns="http://www.w3.org/2000/svg" xmlns:xlink="http://www.w3.org/1999/xlink">
<g id="graph0" class="graph" transform="scale(1 1) rotate(0) translate(4 240)">
<title>dependency&#45;cruiser output</title>
<polygon fill="white" stroke="transparent" points="-4,4 -4,-240 409,-240 409,4 -4,4"/>
<g id="clust1" class="cluster">
<title>cluster_function&#45;roles</title>
<path fill="#ffffff" stroke="black" stroke-width="2" d="M20,-8C20,-8 385,-8 385,-8 391,-8 397,-14 397,-20 397,-20 397,-216 397,-216 397,-222 391,-228 385,-228 385,-228 20,-228 20,-228 14,-228 8,-222 8,-216 8,-216 8,-20 8,-20 8,-14 14,-8 20,-8"/>
<text text-anchor="middle" x="202.5" y="-215.9" font-family="Helvetica,sans-Serif" font-weight="bold" font-size="9.00">function&#45;roles</text>
</g>
<g id="clust2" class="cluster">
<title>cluster_function&#45;roles/2&#45;handlers</title>
<path fill="#ffffff" stroke="black" stroke-width="2" d="M28,-16C28,-16 315,-16 315,-16 321,-16 327,-22 327,-28 327,-28 327,-189 327,-189 327,-195 321,-201 315,-201 315,-201 28,-201 28,-201 22,-201 16,-195 16,-189 16,-189 16,-28 16,-28 16,-22 22,-16 28,-16"/>
<text text-anchor="middle" x="171.5" y="-188.9" font-family="Helvetica,sans-Serif" font-weight="bold" font-size="9.00">2&#45;handlers</text>
</g>
<g id="clust3" class="cluster">
<title>cluster_function&#45;roles/2&#45;handlers/src</title>
<path fill="#ffffff" stroke="black" stroke-width="2" d="M36,-24C36,-24 307,-24 307,-24 313,-24 319,-30 319,-36 319,-36 319,-162 319,-162 319,-168 313,-174 307,-174 307,-174 36,-174 36,-174 30,-174 24,-168 24,-162 24,-162 24,-36 24,-36 24,-30 30,-24 36,-24"/>
<text text-anchor="middle" x="171.5" y="-161.9" font-family="Helvetica,sans-Serif" font-weight="bold" font-size="9.00">src</text>
</g>
<g id="clust4" class="cluster">
<title>cluster_function&#45;roles/2&#45;handlers/src/handlers</title>
<path fill="#ffffff" stroke="black" stroke-width="2" d="M218.5,-32C218.5,-32 299,-32 299,-32 305,-32 311,-38 311,-44 311,-44 311,-135 311,-135 311,-141 305,-147 299,-147 299,-147 218.5,-147 218.5,-147 212.5,-147 206.5,-141 206.5,-135 206.5,-135 206.5,-44 206.5,-44 206.5,-38 212.5,-32 218.5,-32"/>
<text text-anchor="middle" x="258.75" y="-134.9" font-family="Helvetica,sans-Serif" font-weight="bold" font-size="9.00">handlers</text>
</g>
<g id="clust5" class="cluster">
<title>cluster_function&#45;roles/2&#45;handlers/src/listeners</title>
<path fill="#ffffff" stroke="black" stroke-width="2" d="M106,-32C106,-32 186.5,-32 186.5,-32 192.5,-32 198.5,-38 198.5,-44 198.5,-44 198.5,-135 198.5,-135 198.5,-141 192.5,-147 186.5,-147 186.5,-147 106,-147 106,-147 100,-147 94,-141 94,-135 94,-135 94,-44 94,-44 94,-38 100,-32 106,-32"/>
<text text-anchor="middle" x="146.25" y="-134.9" font-family="Helvetica,sans-Serif" font-weight="bold" font-size="9.00">listeners</text>
</g>
<!-- function&#45;roles/2&#45;handlers/src/handlers/add&#45;number.js -->
<g id="node1" class="node">
<title>function&#45;roles/2&#45;handlers/src/handlers/add&#45;number.js</title>
<g id="a_node1"><a xlink:href="function-roles/2-handlers/src/handlers/add-number.js" xlink:title="add&#45;number.js">
<path fill="#ffffcc" stroke="black" d="M289.06,-120.3C289.06,-120.3 228.44,-120.3 228.44,-120.3 225.34,-120.3 222.24,-117.2 222.24,-114.1 222.24,-114.1 222.24,-107.9 222.24,-107.9 222.24,-104.8 225.34,-101.7 228.44,-101.7 228.44,-101.7 289.06,-101.7 289.06,-101.7 292.16,-101.7 295.26,-104.8 295.26,-107.9 295.26,-107.9 295.26,-114.1 295.26,-114.1 295.26,-117.2 292.16,-120.3 289.06,-120.3"/>
<text text-anchor="middle" x="258.75" y="-108.3" font-family="Helvetica,sans-Serif" font-size="9.00">add&#45;number.js</text>
</a>
</g>
</g>
<!-- function&#45;roles/data.js -->
<g id="node2" class="node">
<title>function&#45;roles/data.js</title>
<g id="a_node2"><a xlink:href="function-roles/data.js" xlink:title="data.js">
<path fill="#ffffcc" stroke="black" d="M382.8,-89.3C382.8,-89.3 341.2,-89.3 341.2,-89.3 338.1,-89.3 335,-86.2 335,-83.1 335,-83.1 335,-76.9 335,-76.9 335,-73.8 338.1,-70.7 341.2,-70.7 341.2,-70.7 382.8,-70.7 382.8,-70.7 385.9,-70.7 389,-73.8 389,-76.9 389,-76.9 389,-83.1 389,-83.1 389,-86.2 385.9,-89.3 382.8,-89.3"/>
<text text-anchor="middle" x="362" y="-77.3" font-family="Helvetica,sans-Serif" font-size="9.00">data.js</text>
</a>
</g>
</g>
<!-- function&#45;roles/2&#45;handlers/src/handlers/add&#45;number.js&#45;&gt;function&#45;roles/data.js -->
<g id="edge1" class="edge">
<title>function&#45;roles/2&#45;handlers/src/handlers/add&#45;number.js&#45;&gt;function&#45;roles/data.js</title>
<path fill="none" stroke="#000000" stroke-width="2" stroke-opacity="0.200000" d="M295.34,-103.81C305.66,-101.38 316.88,-98.41 327,-95 329.83,-94.05 332.75,-92.95 335.64,-91.79"/>
<polygon fill="#000000" fill-opacity="0.200000" stroke="#000000" stroke-width="2" stroke-opacity="0.200000" points="336.74,-93.6 341.46,-89.34 335.12,-89.73 336.74,-93.6"/>
</g>
<!-- function&#45;roles/2&#45;handlers/src/handlers/load.js -->
<g id="node3" class="node">
<title>function&#45;roles/2&#45;handlers/src/handlers/load.js</title>
<g id="a_node3"><a xlink:href="function-roles/2-handlers/src/handlers/load.js" xlink:title="load.js">
<path fill="#ffffcc" stroke="black" d="M279.55,-89.3C279.55,-89.3 237.95,-89.3 237.95,-89.3 234.85,-89.3 231.75,-86.2 231.75,-83.1 231.75,-83.1 231.75,-76.9 231.75,-76.9 231.75,-73.8 234.85,-70.7 237.95,-70.7 237.95,-70.7 279.55,-70.7 279.55,-70.7 282.65,-70.7 285.75,-73.8 285.75,-76.9 285.75,-76.9 285.75,-83.1 285.75,-83.1 285.75,-86.2 282.65,-89.3 279.55,-89.3"/>
<text text-anchor="middle" x="258.75" y="-77.3" font-family="Helvetica,sans-Serif" font-size="9.00">load.js</text>
</a>
</g>
</g>
<!-- function&#45;roles/2&#45;handlers/src/handlers/remove&#45;number.js -->
<g id="node4" class="node">
<title>function&#45;roles/2&#45;handlers/src/handlers/remove&#45;number.js</title>
<g id="a_node4"><a xlink:href="function-roles/2-handlers/src/handlers/remove-number.js" xlink:title="remove&#45;number.js">
<path fill="#ffffcc" stroke="black" d="M296.55,-58.3C296.55,-58.3 220.95,-58.3 220.95,-58.3 217.85,-58.3 214.75,-55.2 214.75,-52.1 214.75,-52.1 214.75,-45.9 214.75,-45.9 214.75,-42.8 217.85,-39.7 220.95,-39.7 220.95,-39.7 296.55,-39.7 296.55,-39.7 299.65,-39.7 302.75,-42.8 302.75,-45.9 302.75,-45.9 302.75,-52.1 302.75,-52.1 302.75,-55.2 299.65,-58.3 296.55,-58.3"/>
<text text-anchor="middle" x="258.75" y="-46.3" font-family="Helvetica,sans-Serif" font-size="9.00">remove&#45;number.js</text>
</a>
</g>
</g>
<!-- function&#45;roles/2&#45;handlers/src/handlers/remove&#45;number.js&#45;&gt;function&#45;roles/data.js -->
<g id="edge2" class="edge">
<title>function&#45;roles/2&#45;handlers/src/handlers/remove&#45;number.js&#45;&gt;function&#45;roles/data.js</title>
<path fill="none" stroke="#000000" stroke-width="2" stroke-opacity="0.200000" d="M302.77,-58C310.9,-60.05 319.27,-62.4 327,-65 329.83,-65.95 332.75,-67.05 335.64,-68.21"/>
<polygon fill="#000000" fill-opacity="0.200000" stroke="#000000" stroke-width="2" stroke-opacity="0.200000" points="335.12,-70.27 341.46,-70.66 336.74,-66.4 335.12,-70.27"/>
</g>
<!-- function&#45;roles/2&#45;handlers/src/init.js -->
<g id="node5" class="node">
<title>function&#45;roles/2&#45;handlers/src/init.js</title>
<g id="a_node5"><a xlink:href="function-roles/2-handlers/src/init.js" xlink:title="init.js">
<path fill="#ffffcc" stroke="black" d="M79.8,-89.3C79.8,-89.3 38.2,-89.3 38.2,-89.3 35.1,-89.3 32,-86.2 32,-83.1 32,-83.1 32,-76.9 32,-76.9 32,-73.8 35.1,-70.7 38.2,-70.7 38.2,-70.7 79.8,-70.7 79.8,-70.7 82.9,-70.7 86,-73.8 86,-76.9 86,-76.9 86,-83.1 86,-83.1 86,-86.2 82.9,-89.3 79.8,-89.3"/>
<text text-anchor="middle" x="59" y="-77.3" font-family="Helvetica,sans-Serif" font-size="9.00">init.js</text>
</a>
</g>
</g>
<!-- function&#45;roles/2&#45;handlers/src/listeners/add&#45;number.js -->
<g id="node6" class="node">
<title>function&#45;roles/2&#45;handlers/src/listeners/add&#45;number.js</title>
<g id="a_node6"><a xlink:href="function-roles/2-handlers/src/listeners/add-number.js" xlink:title="add&#45;number.js">
<path fill="#ffffcc" stroke="black" d="M176.56,-120.3C176.56,-120.3 115.94,-120.3 115.94,-120.3 112.84,-120.3 109.74,-117.2 109.74,-114.1 109.74,-114.1 109.74,-107.9 109.74,-107.9 109.74,-104.8 112.84,-101.7 115.94,-101.7 115.94,-101.7 176.56,-101.7 176.56,-101.7 179.66,-101.7 182.76,-104.8 182.76,-107.9 182.76,-107.9 182.76,-114.1 182.76,-114.1 182.76,-117.2 179.66,-120.3 176.56,-120.3"/>
<text text-anchor="middle" x="146.25" y="-108.3" font-family="Helvetica,sans-Serif" font-size="9.00">add&#45;number.js</text>
</a>
</g>
</g>
<!-- function&#45;roles/2&#45;handlers/src/init.js&#45;&gt;function&#45;roles/2&#45;handlers/src/listeners/add&#45;number.js -->
<g id="edge3" class="edge">
<title>function&#45;roles/2&#45;handlers/src/init.js&#45;&gt;function&#45;roles/2&#45;handlers/src/listeners/add&#45;number.js</title>
<path fill="none" stroke="#000000" stroke-width="2" stroke-opacity="0.200000" d="M80.34,-89.42C84.8,-91.36 89.53,-93.32 94,-95 98.36,-96.64 102.96,-98.24 107.56,-99.77"/>
<polygon fill="#000000" fill-opacity="0.200000" stroke="#000000" stroke-width="2" stroke-opacity="0.200000" points="106.99,-101.79 113.35,-101.65 108.29,-97.8 106.99,-101.79"/>
</g>
<!-- function&#45;roles/2&#45;handlers/src/listeners/load.js -->
<g id="node7" class="node">
<title>function&#45;roles/2&#45;handlers/src/listeners/load.js</title>
<g id="a_node7"><a xlink:href="function-roles/2-handlers/src/listeners/load.js" xlink:title="load.js">
<path fill="#ffffcc" stroke="black" d="M167.05,-89.3C167.05,-89.3 125.45,-89.3 125.45,-89.3 122.35,-89.3 119.25,-86.2 119.25,-83.1 119.25,-83.1 119.25,-76.9 119.25,-76.9 119.25,-73.8 122.35,-70.7 125.45,-70.7 125.45,-70.7 167.05,-70.7 167.05,-70.7 170.15,-70.7 173.25,-73.8 173.25,-76.9 173.25,-76.9 173.25,-83.1 173.25,-83.1 173.25,-86.2 170.15,-89.3 167.05,-89.3"/>
<text text-anchor="middle" x="146.25" y="-77.3" font-family="Helvetica,sans-Serif" font-size="9.00">load.js</text>
</a>
</g>
</g>
<!-- function&#45;roles/2&#45;handlers/src/init.js&#45;&gt;function&#45;roles/2&#45;handlers/src/listeners/load.js -->
<g id="edge4" class="edge">
<title>function&#45;roles/2&#45;handlers/src/init.js&#45;&gt;function&#45;roles/2&#45;handlers/src/listeners/load.js</title>
<path fill="none" stroke="#000000" stroke-width="2" stroke-opacity="0.200000" d="M86.04,-80C94.56,-80 104.11,-80 113.03,-80"/>
<polygon fill="#000000" fill-opacity="0.200000" stroke="#000000" stroke-width="2" stroke-opacity="0.200000" points="113.07,-82.1 119.07,-80 113.07,-77.9 113.07,-82.1"/>
</g>
<!-- function&#45;roles/2&#45;handlers/src/listeners/remove&#45;number.js -->
<g id="node8" class="node">
<title>function&#45;roles/2&#45;handlers/src/listeners/remove&#45;number.js</title>
<g id="a_node8"><a xlink:href="function-roles/2-handlers/src/listeners/remove-number.js" xlink:title="remove&#45;number.js">
<path fill="#ffffcc" stroke="black" d="M184.05,-58.3C184.05,-58.3 108.45,-58.3 108.45,-58.3 105.35,-58.3 102.25,-55.2 102.25,-52.1 102.25,-52.1 102.25,-45.9 102.25,-45.9 102.25,-42.8 105.35,-39.7 108.45,-39.7 108.45,-39.7 184.05,-39.7 184.05,-39.7 187.15,-39.7 190.25,-42.8 190.25,-45.9 190.25,-45.9 190.25,-52.1 190.25,-52.1 190.25,-55.2 187.15,-58.3 184.05,-58.3"/>
<text text-anchor="middle" x="146.25" y="-46.3" font-family="Helvetica,sans-Serif" font-size="9.00">remove&#45;number.js</text>
</a>
</g>
</g>
<!-- function&#45;roles/2&#45;handlers/src/init.js&#45;&gt;function&#45;roles/2&#45;handlers/src/listeners/remove&#45;number.js -->
<g id="edge5" class="edge">
<title>function&#45;roles/2&#45;handlers/src/init.js&#45;&gt;function&#45;roles/2&#45;handlers/src/listeners/remove&#45;number.js</title>
<path fill="none" stroke="#000000" stroke-width="2" stroke-opacity="0.200000" d="M80.34,-70.58C84.8,-68.64 89.53,-66.68 94,-65 98.36,-63.36 102.96,-61.76 107.56,-60.23"/>
<polygon fill="#000000" fill-opacity="0.200000" stroke="#000000" stroke-width="2" stroke-opacity="0.200000" points="108.29,-62.2 113.35,-58.35 106.99,-58.21 108.29,-62.2"/>
</g>
<!-- function&#45;roles/2&#45;handlers/src/listeners/add&#45;number.js&#45;&gt;function&#45;roles/2&#45;handlers/src/handlers/add&#45;number.js -->
<g id="edge6" class="edge">
<title>function&#45;roles/2&#45;handlers/src/listeners/add&#45;number.js&#45;&gt;function&#45;roles/2&#45;handlers/src/handlers/add&#45;number.js</title>
<path fill="none" stroke="#000000" stroke-width="2" stroke-opacity="0.200000" d="M182.82,-111C193.26,-111 204.79,-111 215.6,-111"/>
<polygon fill="#000000" fill-opacity="0.200000" stroke="#000000" stroke-width="2" stroke-opacity="0.200000" points="215.87,-113.1 221.87,-111 215.87,-108.9 215.87,-113.1"/>
</g>
<!-- function&#45;roles/2&#45;handlers/src/listeners/load.js&#45;&gt;function&#45;roles/2&#45;handlers/src/handlers/load.js -->
<g id="edge7" class="edge">
<title>function&#45;roles/2&#45;handlers/src/listeners/load.js&#45;&gt;function&#45;roles/2&#45;handlers/src/handlers/load.js</title>
<path fill="none" stroke="#000000" stroke-width="2" stroke-opacity="0.200000" d="M173.44,-80C188.88,-80 208.54,-80 225,-80"/>
<polygon fill="#000000" fill-opacity="0.200000" stroke="#000000" stroke-width="2" stroke-opacity="0.200000" points="225.37,-82.1 231.37,-80 225.37,-77.9 225.37,-82.1"/>
</g>
<!-- function&#45;roles/2&#45;handlers/src/listeners/remove&#45;number.js&#45;&gt;function&#45;roles/2&#45;handlers/src/handlers/remove&#45;number.js -->
<g id="edge8" class="edge">
<title>function&#45;roles/2&#45;handlers/src/listeners/remove&#45;number.js&#45;&gt;function&#45;roles/2&#45;handlers/src/handlers/remove&#45;number.js</title>
<path fill="none" stroke="#000000" stroke-width="2" stroke-opacity="0.200000" d="M190.29,-49C196.29,-49 202.49,-49 208.59,-49"/>
<polygon fill="#000000" fill-opacity="0.200000" stroke="#000000" stroke-width="2" stroke-opacity="0.200000" points="208.65,-51.1 214.65,-49 208.65,-46.9 208.65,-51.1"/>
</g>
</g>
</svg>
