<?xml version="1.0" encoding="UTF-8" standalone="no"?>
<!DOCTYPE svg PUBLIC "-//W3C//DTD SVG 1.1//EN"
 "http://www.w3.org/Graphics/SVG/1.1/DTD/svg11.dtd">
<!-- Generated by graphviz version 2.44.0 (20200408.0750)
 -->
<!-- Title: dependency&#45;cruiser output Pages: 1 -->
<svg width="188pt" height="147pt"
 viewBox="0.00 0.00 188.00 147.00" xmlns="http://www.w3.org/2000/svg" xmlns:xlink="http://www.w3.org/1999/xlink">
<g id="graph0" class="graph" transform="scale(1 1) rotate(0) translate(4 143)">
<title>dependency&#45;cruiser output</title>
<polygon fill="white" stroke="transparent" points="-4,4 -4,-143 184,-143 184,4 -4,4"/>
<g id="clust1" class="cluster">
<title>cluster_function&#45;roles</title>
<path fill="#ffffff" stroke="black" stroke-width="2" d="M20,-8C20,-8 160,-8 160,-8 166,-8 172,-14 172,-20 172,-20 172,-119 172,-119 172,-125 166,-131 160,-131 160,-131 20,-131 20,-131 14,-131 8,-125 8,-119 8,-119 8,-20 8,-20 8,-14 14,-8 20,-8"/>
<text text-anchor="middle" x="90" y="-118.9" font-family="Helvetica,sans-Serif" font-weight="bold" font-size="9.00">function&#45;roles</text>
</g>
<g id="clust2" class="cluster">
<title>cluster_function&#45;roles/0&#45;init</title>
<path fill="#ffffff" stroke="black" stroke-width="2" d="M28,-16C28,-16 90,-16 90,-16 96,-16 102,-22 102,-28 102,-28 102,-92 102,-92 102,-98 96,-104 90,-104 90,-104 28,-104 28,-104 22,-104 16,-98 16,-92 16,-92 16,-28 16,-28 16,-22 22,-16 28,-16"/>
<text text-anchor="middle" x="59" y="-91.9" font-family="Helvetica,sans-Serif" font-weight="bold" font-size="9.00">0&#45;init</text>
</g>
<g id="clust3" class="cluster">
<title>cluster_function&#45;roles/0&#45;init/src</title>
<path fill="#ffffff" stroke="black" stroke-width="2" d="M36,-24C36,-24 82,-24 82,-24 88,-24 94,-30 94,-36 94,-36 94,-65 94,-65 94,-71 88,-77 82,-77 82,-77 36,-77 36,-77 30,-77 24,-71 24,-65 24,-65 24,-36 24,-36 24,-30 30,-24 36,-24"/>
<text text-anchor="middle" x="59" y="-64.9" font-family="Helvetica,sans-Serif" font-weight="bold" font-size="9.00">src</text>
</g>
<!-- function&#45;roles/0&#45;init/src/init.js -->
<g id="node1" class="node">
<title>function&#45;roles/0&#45;init/src/init.js</title>
<g id="a_node1"><a xlink:href="function-roles/0-init/src/init.js" xlink:title="init.js">
<path fill="#ffffcc" stroke="black" d="M79.8,-50.3C79.8,-50.3 38.2,-50.3 38.2,-50.3 35.1,-50.3 32,-47.2 32,-44.1 32,-44.1 32,-37.9 32,-37.9 32,-34.8 35.1,-31.7 38.2,-31.7 38.2,-31.7 79.8,-31.7 79.8,-31.7 82.9,-31.7 86,-34.8 86,-37.9 86,-37.9 86,-44.1 86,-44.1 86,-47.2 82.9,-50.3 79.8,-50.3"/>
<text text-anchor="middle" x="59" y="-38.3" font-family="Helvetica,sans-Serif" font-size="9.00">init.js</text>
</a>
</g>
</g>
<!-- function&#45;roles/data.js -->
<g id="node2" class="node">
<title>function&#45;roles/data.js</title>
<g id="a_node2"><a xlink:href="function-roles/data.js" xlink:title="data.js">
<path fill="#ffffcc" stroke="black" d="M157.8,-50.3C157.8,-50.3 116.2,-50.3 116.2,-50.3 113.1,-50.3 110,-47.2 110,-44.1 110,-44.1 110,-37.9 110,-37.9 110,-34.8 113.1,-31.7 116.2,-31.7 116.2,-31.7 157.8,-31.7 157.8,-31.7 160.9,-31.7 164,-34.8 164,-37.9 164,-37.9 164,-44.1 164,-44.1 164,-47.2 160.9,-50.3 157.8,-50.3"/>
<text text-anchor="middle" x="137" y="-38.3" font-family="Helvetica,sans-Serif" font-size="9.00">data.js</text>
</a>
</g>
</g>
<!-- function&#45;roles/0&#45;init/src/init.js&#45;&gt;function&#45;roles/data.js -->
<g id="edge1" class="edge">
<title>function&#45;roles/0&#45;init/src/init.js&#45;&gt;function&#45;roles/data.js</title>
<path fill="none" stroke="#000000" stroke-width="2" stroke-opacity="0.200000" d="M86.15,-41C91.77,-41 97.76,-41 103.58,-41"/>
<polygon fill="#000000" fill-opacity="0.200000" stroke="#000000" stroke-width="2" stroke-opacity="0.200000" points="103.8,-43.1 109.8,-41 103.8,-38.9 103.8,-43.1"/>
</g>
</g>
</svg>
