<?xml version="1.0" encoding="UTF-8" standalone="no"?>
<!DOCTYPE svg PUBLIC "-//W3C//DTD SVG 1.1//EN"
 "http://www.w3.org/Graphics/SVG/1.1/DTD/svg11.dtd">
<!-- Generated by graphviz version 2.44.0 (20200408.0750)
 -->
<!-- Title: dependency&#45;cruiser output Pages: 1 -->
<svg width="337pt" height="147pt"
 viewBox="0.00 0.00 337.01 147.00" xmlns="http://www.w3.org/2000/svg" xmlns:xlink="http://www.w3.org/1999/xlink">
<g id="graph0" class="graph" transform="scale(1 1) rotate(0) translate(4 143)">
<title>dependency&#45;cruiser output</title>
<polygon fill="white" stroke="transparent" points="-4,4 -4,-143 333.01,-143 333.01,4 -4,4"/>
<g id="clust1" class="cluster">
<title>cluster_es5&#45;vs&#45;es6</title>
<path fill="#ffffff" stroke="black" stroke-width="2" d="M20,-8C20,-8 309.01,-8 309.01,-8 315.01,-8 321.01,-14 321.01,-20 321.01,-20 321.01,-119 321.01,-119 321.01,-125 315.01,-131 309.01,-131 309.01,-131 20,-131 20,-131 14,-131 8,-125 8,-119 8,-119 8,-20 8,-20 8,-14 14,-8 20,-8"/>
<text text-anchor="middle" x="164.5" y="-118.9" font-family="Helvetica,sans-Serif" font-weight="bold" font-size="9.00">es5&#45;vs&#45;es6</text>
</g>
<g id="clust2" class="cluster">
<title>cluster_es5&#45;vs&#45;es6/reverse&#45;or&#45;devowel&#45;es6</title>
<path fill="#ffffff" stroke="black" stroke-width="2" d="M28,-16C28,-16 301.01,-16 301.01,-16 307.01,-16 313.01,-22 313.01,-28 313.01,-28 313.01,-92 313.01,-92 313.01,-98 307.01,-104 301.01,-104 301.01,-104 28,-104 28,-104 22,-104 16,-98 16,-92 16,-92 16,-28 16,-28 16,-22 22,-16 28,-16"/>
<text text-anchor="middle" x="164.5" y="-91.9" font-family="Helvetica,sans-Serif" font-weight="bold" font-size="9.00">reverse&#45;or&#45;devowel&#45;es6</text>
</g>
<g id="clust3" class="cluster">
<title>cluster_es5&#45;vs&#45;es6/reverse&#45;or&#45;devowel&#45;es6/src</title>
<path fill="#ffffff" stroke="black" stroke-width="2" d="M36,-24C36,-24 293.01,-24 293.01,-24 299.01,-24 305.01,-30 305.01,-36 305.01,-36 305.01,-65 305.01,-65 305.01,-71 299.01,-77 293.01,-77 293.01,-77 36,-77 36,-77 30,-77 24,-71 24,-65 24,-65 24,-36 24,-36 24,-30 30,-24 36,-24"/>
<text text-anchor="middle" x="164.5" y="-64.9" font-family="Helvetica,sans-Serif" font-weight="bold" font-size="9.00">src</text>
</g>
<!-- es5&#45;vs&#45;es6/reverse&#45;or&#45;devowel&#45;es6/src/handlers.js -->
<g id="node1" class="node">
<title>es5&#45;vs&#45;es6/reverse&#45;or&#45;devowel&#45;es6/src/handlers.js</title>
<g id="a_node1"><a xlink:href="es5-vs-es6/reverse-or-devowel-es6/src/handlers.js" xlink:title="handlers.js">
<path fill="#ffffcc" stroke="black" d="M223.56,-50.3C223.56,-50.3 176.94,-50.3 176.94,-50.3 173.84,-50.3 170.74,-47.2 170.74,-44.1 170.74,-44.1 170.74,-37.9 170.74,-37.9 170.74,-34.8 173.84,-31.7 176.94,-31.7 176.94,-31.7 223.56,-31.7 223.56,-31.7 226.66,-31.7 229.76,-34.8 229.76,-37.9 229.76,-37.9 229.76,-44.1 229.76,-44.1 229.76,-47.2 226.66,-50.3 223.56,-50.3"/>
<text text-anchor="middle" x="200.25" y="-38.3" font-family="Helvetica,sans-Serif" font-size="9.00">handlers.js</text>
</a>
</g>
</g>
<!-- es5&#45;vs&#45;es6/reverse&#45;or&#45;devowel&#45;es6/src/utils.js -->
<g id="node2" class="node">
<title>es5&#45;vs&#45;es6/reverse&#45;or&#45;devowel&#45;es6/src/utils.js</title>
<g id="a_node2"><a xlink:href="es5-vs-es6/reverse-or-devowel-es6/src/utils.js" xlink:title="utils.js">
<path fill="#ffffcc" stroke="black" d="M290.81,-50.3C290.81,-50.3 249.21,-50.3 249.21,-50.3 246.11,-50.3 243.01,-47.2 243.01,-44.1 243.01,-44.1 243.01,-37.9 243.01,-37.9 243.01,-34.8 246.11,-31.7 249.21,-31.7 249.21,-31.7 290.81,-31.7 290.81,-31.7 293.91,-31.7 297.01,-34.8 297.01,-37.9 297.01,-37.9 297.01,-44.1 297.01,-44.1 297.01,-47.2 293.91,-50.3 290.81,-50.3"/>
<text text-anchor="middle" x="270.01" y="-38.3" font-family="Helvetica,sans-Serif" font-size="9.00">utils.js</text>
</a>
</g>
</g>
<!-- es5&#45;vs&#45;es6/reverse&#45;or&#45;devowel&#45;es6/src/handlers.js&#45;&gt;es5&#45;vs&#45;es6/reverse&#45;or&#45;devowel&#45;es6/src/utils.js -->
<g id="edge1" class="edge">
<title>es5&#45;vs&#45;es6/reverse&#45;or&#45;devowel&#45;es6/src/handlers.js&#45;&gt;es5&#45;vs&#45;es6/reverse&#45;or&#45;devowel&#45;es6/src/utils.js</title>
<path fill="none" stroke="#000000" stroke-width="2" stroke-opacity="0.200000" d="M229.99,-41C232.08,-41 234.2,-41 236.31,-41"/>
<polygon fill="#000000" fill-opacity="0.200000" stroke="#000000" stroke-width="2" stroke-opacity="0.200000" points="236.6,-43.1 242.6,-41 236.6,-38.9 236.6,-43.1"/>
</g>
<!-- es5&#45;vs&#45;es6/reverse&#45;or&#45;devowel&#45;es6/src/init.js -->
<g id="node3" class="node">
<title>es5&#45;vs&#45;es6/reverse&#45;or&#45;devowel&#45;es6/src/init.js</title>
<g id="a_node3"><a xlink:href="es5-vs-es6/reverse-or-devowel-es6/src/init.js" xlink:title="init.js">
<path fill="#ffffcc" stroke="black" d="M79.8,-50.3C79.8,-50.3 38.2,-50.3 38.2,-50.3 35.1,-50.3 32,-47.2 32,-44.1 32,-44.1 32,-37.9 32,-37.9 32,-34.8 35.1,-31.7 38.2,-31.7 38.2,-31.7 79.8,-31.7 79.8,-31.7 82.9,-31.7 86,-34.8 86,-37.9 86,-37.9 86,-44.1 86,-44.1 86,-47.2 82.9,-50.3 79.8,-50.3"/>
<text text-anchor="middle" x="59" y="-38.3" font-family="Helvetica,sans-Serif" font-size="9.00">init.js</text>
</a>
</g>
</g>
<!-- es5&#45;vs&#45;es6/reverse&#45;or&#45;devowel&#45;es6/src/listeners.js -->
<g id="node4" class="node">
<title>es5&#45;vs&#45;es6/reverse&#45;or&#45;devowel&#45;es6/src/listeners.js</title>
<g id="a_node4"><a xlink:href="es5-vs-es6/reverse-or-devowel-es6/src/listeners.js" xlink:title="listeners.js">
<path fill="#ffffcc" stroke="black" d="M151.55,-50.3C151.55,-50.3 104.95,-50.3 104.95,-50.3 101.85,-50.3 98.75,-47.2 98.75,-44.1 98.75,-44.1 98.75,-37.9 98.75,-37.9 98.75,-34.8 101.85,-31.7 104.95,-31.7 104.95,-31.7 151.55,-31.7 151.55,-31.7 154.65,-31.7 157.75,-34.8 157.75,-37.9 157.75,-37.9 157.75,-44.1 157.75,-44.1 157.75,-47.2 154.65,-50.3 151.55,-50.3"/>
<text text-anchor="middle" x="128.25" y="-38.3" font-family="Helvetica,sans-Serif" font-size="9.00">listeners.js</text>
</a>
</g>
</g>
<!-- es5&#45;vs&#45;es6/reverse&#45;or&#45;devowel&#45;es6/src/init.js&#45;&gt;es5&#45;vs&#45;es6/reverse&#45;or&#45;devowel&#45;es6/src/listeners.js -->
<g id="edge2" class="edge">
<title>es5&#45;vs&#45;es6/reverse&#45;or&#45;devowel&#45;es6/src/init.js&#45;&gt;es5&#45;vs&#45;es6/reverse&#45;or&#45;devowel&#45;es6/src/listeners.js</title>
<path fill="none" stroke="#000000" stroke-width="2" stroke-opacity="0.200000" d="M86.19,-41C88.26,-41 90.36,-41 92.47,-41"/>
<polygon fill="#000000" fill-opacity="0.200000" stroke="#000000" stroke-width="2" stroke-opacity="0.200000" points="92.79,-43.1 98.79,-41 92.79,-38.9 92.79,-43.1"/>
</g>
<!-- es5&#45;vs&#45;es6/reverse&#45;or&#45;devowel&#45;es6/src/listeners.js&#45;&gt;es5&#45;vs&#45;es6/reverse&#45;or&#45;devowel&#45;es6/src/handlers.js -->
<g id="edge3" class="edge">
<title>es5&#45;vs&#45;es6/reverse&#45;or&#45;devowel&#45;es6/src/listeners.js&#45;&gt;es5&#45;vs&#45;es6/reverse&#45;or&#45;devowel&#45;es6/src/handlers.js</title>
<path fill="none" stroke="#000000" stroke-width="2" stroke-opacity="0.200000" d="M157.72,-41C159.97,-41 162.26,-41 164.55,-41"/>
<polygon fill="#000000" fill-opacity="0.200000" stroke="#000000" stroke-width="2" stroke-opacity="0.200000" points="164.58,-43.1 170.58,-41 164.58,-38.9 164.58,-43.1"/>
</g>
</g>
</svg>
