<?xml version="1.0" encoding="UTF-8" standalone="no"?>
<!DOCTYPE svg PUBLIC "-//W3C//DTD SVG 1.1//EN"
 "http://www.w3.org/Graphics/SVG/1.1/DTD/svg11.dtd">
<!-- Generated by graphviz version 2.44.0 (20200408.0750)
 -->
<!-- Title: dependency&#45;cruiser output Pages: 1 -->
<svg width="328pt" height="147pt"
 viewBox="0.00 0.00 328.01 147.00" xmlns="http://www.w3.org/2000/svg" xmlns:xlink="http://www.w3.org/1999/xlink">
<g id="graph0" class="graph" transform="scale(1 1) rotate(0) translate(4 143)">
<title>dependency&#45;cruiser output</title>
<polygon fill="white" stroke="transparent" points="-4,4 -4,-143 324.01,-143 324.01,4 -4,4"/>
<g id="clust1" class="cluster">
<title>cluster_es5&#45;vs&#45;es6</title>
<path fill="#ffffff" stroke="black" stroke-width="2" d="M20,-8C20,-8 300.01,-8 300.01,-8 306.01,-8 312.01,-14 312.01,-20 312.01,-20 312.01,-119 312.01,-119 312.01,-125 306.01,-131 300.01,-131 300.01,-131 20,-131 20,-131 14,-131 8,-125 8,-119 8,-119 8,-20 8,-20 8,-14 14,-8 20,-8"/>
<text text-anchor="middle" x="160" y="-118.9" font-family="Helvetica,sans-Serif" font-weight="bold" font-size="9.00">es5&#45;vs&#45;es6</text>
</g>
<g id="clust2" class="cluster">
<title>cluster_es5&#45;vs&#45;es6/reverse&#45;or&#45;devowel&#45;es6</title>
<path fill="#ffffff" stroke="black" stroke-width="2" d="M28,-16C28,-16 292.01,-16 292.01,-16 298.01,-16 304.01,-22 304.01,-28 304.01,-28 304.01,-92 304.01,-92 304.01,-98 298.01,-104 292.01,-104 292.01,-104 28,-104 28,-104 22,-104 16,-98 16,-92 16,-92 16,-28 16,-28 16,-22 22,-16 28,-16"/>
<text text-anchor="middle" x="160" y="-91.9" font-family="Helvetica,sans-Serif" font-weight="bold" font-size="9.00">reverse&#45;or&#45;devowel&#45;es6</text>
</g>
<g id="clust3" class="cluster">
<title>cluster_es5&#45;vs&#45;es6/reverse&#45;or&#45;devowel&#45;es6/src</title>
<path fill="#ffffff" stroke="black" stroke-width="2" d="M36,-24C36,-24 284.01,-24 284.01,-24 290.01,-24 296.01,-30 296.01,-36 296.01,-36 296.01,-65 296.01,-65 296.01,-71 290.01,-77 284.01,-77 284.01,-77 36,-77 36,-77 30,-77 24,-71 24,-65 24,-65 24,-36 24,-36 24,-30 30,-24 36,-24"/>
<text text-anchor="middle" x="160" y="-64.9" font-family="Helvetica,sans-Serif" font-weight="bold" font-size="9.00">src</text>
</g>
<!-- es5&#45;vs&#45;es6/reverse&#45;or&#45;devowel&#45;es6/src/handler.js -->
<g id="node1" class="node">
<title>es5&#45;vs&#45;es6/reverse&#45;or&#45;devowel&#45;es6/src/handler.js</title>
<g id="a_node1"><a xlink:href="es5-vs-es6/reverse-or-devowel-es6/src/handler.js" xlink:title="handler.js">
<path fill="#ffffcc" stroke="black" d="M214.81,-50.3C214.81,-50.3 172.2,-50.3 172.2,-50.3 169.1,-50.3 166,-47.2 166,-44.1 166,-44.1 166,-37.9 166,-37.9 166,-34.8 169.1,-31.7 172.2,-31.7 172.2,-31.7 214.81,-31.7 214.81,-31.7 217.91,-31.7 221.01,-34.8 221.01,-37.9 221.01,-37.9 221.01,-44.1 221.01,-44.1 221.01,-47.2 217.91,-50.3 214.81,-50.3"/>
<text text-anchor="middle" x="193.5" y="-38.3" font-family="Helvetica,sans-Serif" font-size="9.00">handler.js</text>
</a>
</g>
</g>
<!-- es5&#45;vs&#45;es6/reverse&#45;or&#45;devowel&#45;es6/src/logic.js -->
<g id="node2" class="node">
<title>es5&#45;vs&#45;es6/reverse&#45;or&#45;devowel&#45;es6/src/logic.js</title>
<g id="a_node2"><a xlink:href="es5-vs-es6/reverse-or-devowel-es6/src/logic.js" xlink:title="logic.js">
<path fill="#ffffcc" stroke="black" d="M281.81,-50.3C281.81,-50.3 240.21,-50.3 240.21,-50.3 237.11,-50.3 234.01,-47.2 234.01,-44.1 234.01,-44.1 234.01,-37.9 234.01,-37.9 234.01,-34.8 237.11,-31.7 240.21,-31.7 240.21,-31.7 281.81,-31.7 281.81,-31.7 284.91,-31.7 288.01,-34.8 288.01,-37.9 288.01,-37.9 288.01,-44.1 288.01,-44.1 288.01,-47.2 284.91,-50.3 281.81,-50.3"/>
<text text-anchor="middle" x="261.01" y="-38.3" font-family="Helvetica,sans-Serif" font-size="9.00">logic.js</text>
</a>
</g>
</g>
<!-- es5&#45;vs&#45;es6/reverse&#45;or&#45;devowel&#45;es6/src/handler.js&#45;&gt;es5&#45;vs&#45;es6/reverse&#45;or&#45;devowel&#45;es6/src/logic.js -->
<g id="edge1" class="edge">
<title>es5&#45;vs&#45;es6/reverse&#45;or&#45;devowel&#45;es6/src/handler.js&#45;&gt;es5&#45;vs&#45;es6/reverse&#45;or&#45;devowel&#45;es6/src/logic.js</title>
<path fill="none" stroke="#000000" stroke-width="2" stroke-opacity="0.200000" d="M221.15,-41C223.2,-41 225.29,-41 227.38,-41"/>
<polygon fill="#000000" fill-opacity="0.200000" stroke="#000000" stroke-width="2" stroke-opacity="0.200000" points="227.6,-43.1 233.6,-41 227.6,-38.9 227.6,-43.1"/>
</g>
<!-- es5&#45;vs&#45;es6/reverse&#45;or&#45;devowel&#45;es6/src/init.js -->
<g id="node3" class="node">
<title>es5&#45;vs&#45;es6/reverse&#45;or&#45;devowel&#45;es6/src/init.js</title>
<g id="a_node3"><a xlink:href="es5-vs-es6/reverse-or-devowel-es6/src/init.js" xlink:title="init.js">
<path fill="#ffffcc" stroke="black" d="M79.8,-50.3C79.8,-50.3 38.2,-50.3 38.2,-50.3 35.1,-50.3 32,-47.2 32,-44.1 32,-44.1 32,-37.9 32,-37.9 32,-34.8 35.1,-31.7 38.2,-31.7 38.2,-31.7 79.8,-31.7 79.8,-31.7 82.9,-31.7 86,-34.8 86,-37.9 86,-37.9 86,-44.1 86,-44.1 86,-47.2 82.9,-50.3 79.8,-50.3"/>
<text text-anchor="middle" x="59" y="-38.3" font-family="Helvetica,sans-Serif" font-size="9.00">init.js</text>
</a>
</g>
</g>
<!-- es5&#45;vs&#45;es6/reverse&#45;or&#45;devowel&#45;es6/src/listener.js -->
<g id="node4" class="node">
<title>es5&#45;vs&#45;es6/reverse&#45;or&#45;devowel&#45;es6/src/listener.js</title>
<g id="a_node4"><a xlink:href="es5-vs-es6/reverse-or-devowel-es6/src/listener.js" xlink:title="listener.js">
<path fill="#ffffcc" stroke="black" d="M146.8,-50.3C146.8,-50.3 105.2,-50.3 105.2,-50.3 102.1,-50.3 99,-47.2 99,-44.1 99,-44.1 99,-37.9 99,-37.9 99,-34.8 102.1,-31.7 105.2,-31.7 105.2,-31.7 146.8,-31.7 146.8,-31.7 149.9,-31.7 153,-34.8 153,-37.9 153,-37.9 153,-44.1 153,-44.1 153,-47.2 149.9,-50.3 146.8,-50.3"/>
<text text-anchor="middle" x="126" y="-38.3" font-family="Helvetica,sans-Serif" font-size="9.00">listener.js</text>
</a>
</g>
</g>
<!-- es5&#45;vs&#45;es6/reverse&#45;or&#45;devowel&#45;es6/src/init.js&#45;&gt;es5&#45;vs&#45;es6/reverse&#45;or&#45;devowel&#45;es6/src/listener.js -->
<g id="edge2" class="edge">
<title>es5&#45;vs&#45;es6/reverse&#45;or&#45;devowel&#45;es6/src/init.js&#45;&gt;es5&#45;vs&#45;es6/reverse&#45;or&#45;devowel&#45;es6/src/listener.js</title>
<path fill="none" stroke="#000000" stroke-width="2" stroke-opacity="0.200000" d="M86.06,-41C88.32,-41 90.61,-41 92.9,-41"/>
<polygon fill="#000000" fill-opacity="0.200000" stroke="#000000" stroke-width="2" stroke-opacity="0.200000" points="92.93,-43.1 98.93,-41 92.93,-38.9 92.93,-43.1"/>
</g>
<!-- es5&#45;vs&#45;es6/reverse&#45;or&#45;devowel&#45;es6/src/listener.js&#45;&gt;es5&#45;vs&#45;es6/reverse&#45;or&#45;devowel&#45;es6/src/handler.js -->
<g id="edge3" class="edge">
<title>es5&#45;vs&#45;es6/reverse&#45;or&#45;devowel&#45;es6/src/listener.js&#45;&gt;es5&#45;vs&#45;es6/reverse&#45;or&#45;devowel&#45;es6/src/handler.js</title>
<path fill="none" stroke="#000000" stroke-width="2" stroke-opacity="0.200000" d="M153.27,-41C155.33,-41 157.43,-41 159.53,-41"/>
<polygon fill="#000000" fill-opacity="0.200000" stroke="#000000" stroke-width="2" stroke-opacity="0.200000" points="159.8,-43.1 165.8,-41 159.8,-38.9 159.8,-43.1"/>
</g>
</g>
</svg>
