<?xml version="1.0" encoding="UTF-8" standalone="no"?>
<!DOCTYPE svg PUBLIC "-//W3C//DTD SVG 1.1//EN"
 "http://www.w3.org/Graphics/SVG/1.1/DTD/svg11.dtd">
<!-- Generated by graphviz version 2.44.0 (20200408.0750)
 -->
<!-- Title: dependency&#45;cruiser output Pages: 1 -->
<svg width="169pt" height="341pt"
 viewBox="0.00 0.00 169.01 341.00" xmlns="http://www.w3.org/2000/svg" xmlns:xlink="http://www.w3.org/1999/xlink">
<g id="graph0" class="graph" transform="scale(1 1) rotate(0) translate(4 337)">
<title>dependency&#45;cruiser output</title>
<polygon fill="white" stroke="transparent" points="-4,4 -4,-337 165.01,-337 165.01,4 -4,4"/>
<g id="clust1" class="cluster">
<title>cluster_stepped</title>
<path fill="#ffffff" stroke="black" stroke-width="2" d="M20,-8C20,-8 141.01,-8 141.01,-8 147.01,-8 153.01,-14 153.01,-20 153.01,-20 153.01,-313 153.01,-313 153.01,-319 147.01,-325 141.01,-325 141.01,-325 20,-325 20,-325 14,-325 8,-319 8,-313 8,-313 8,-20 8,-20 8,-14 14,-8 20,-8"/>
<text text-anchor="middle" x="80.5" y="-312.9" font-family="Helvetica,sans-Serif" font-weight="bold" font-size="9.00">stepped</text>
</g>
<g id="clust2" class="cluster">
<title>cluster_stepped/3&#45;separated</title>
<path fill="#ffffff" stroke="black" stroke-width="2" d="M28,-16C28,-16 133.01,-16 133.01,-16 139.01,-16 145.01,-22 145.01,-28 145.01,-28 145.01,-286 145.01,-286 145.01,-292 139.01,-298 133.01,-298 133.01,-298 28,-298 28,-298 22,-298 16,-292 16,-286 16,-286 16,-28 16,-28 16,-22 22,-16 28,-16"/>
<text text-anchor="middle" x="80.5" y="-285.9" font-family="Helvetica,sans-Serif" font-weight="bold" font-size="9.00">3&#45;separated</text>
</g>
<g id="clust3" class="cluster">
<title>cluster_stepped/3&#45;separated/madlibs</title>
<path fill="#ffffff" stroke="black" stroke-width="2" d="M36,-24C36,-24 125.01,-24 125.01,-24 131.01,-24 137.01,-30 137.01,-36 137.01,-36 137.01,-259 137.01,-259 137.01,-265 131.01,-271 125.01,-271 125.01,-271 36,-271 36,-271 30,-271 24,-265 24,-259 24,-259 24,-36 24,-36 24,-30 30,-24 36,-24"/>
<text text-anchor="middle" x="80.5" y="-258.9" font-family="Helvetica,sans-Serif" font-weight="bold" font-size="9.00">madlibs</text>
</g>
<g id="clust4" class="cluster">
<title>cluster_stepped/3&#45;separated/madlibs/1&#45;dom</title>
<path fill="#ffffff" stroke="black" stroke-width="2" d="M44,-32C44,-32 117.01,-32 117.01,-32 123.01,-32 129.01,-38 129.01,-44 129.01,-44 129.01,-232 129.01,-232 129.01,-238 123.01,-244 117.01,-244 117.01,-244 44,-244 44,-244 38,-244 32,-238 32,-232 32,-232 32,-44 32,-44 32,-38 38,-32 44,-32"/>
<text text-anchor="middle" x="80.5" y="-231.9" font-family="Helvetica,sans-Serif" font-weight="bold" font-size="9.00">1&#45;dom</text>
</g>
<g id="clust5" class="cluster">
<title>cluster_stepped/3&#45;separated/madlibs/1&#45;dom/src</title>
<path fill="#ffffff" stroke="black" stroke-width="2" d="M52,-40C52,-40 109.01,-40 109.01,-40 115.01,-40 121.01,-46 121.01,-52 121.01,-52 121.01,-205 121.01,-205 121.01,-211 115.01,-217 109.01,-217 109.01,-217 52,-217 52,-217 46,-217 40,-211 40,-205 40,-205 40,-52 40,-52 40,-46 46,-40 52,-40"/>
<text text-anchor="middle" x="80.5" y="-204.9" font-family="Helvetica,sans-Serif" font-weight="bold" font-size="9.00">src</text>
</g>
<!-- stepped/3&#45;separated/madlibs/1&#45;dom/src/handler.js -->
<g id="node1" class="node">
<title>stepped/3&#45;separated/madlibs/1&#45;dom/src/handler.js</title>
<g id="a_node1"><a xlink:href="stepped/3-separated/madlibs/1-dom/src/handler.js" xlink:title="handler.js">
<path fill="#ccffcc" stroke="black" d="M101.81,-190.3C101.81,-190.3 59.2,-190.3 59.2,-190.3 56.1,-190.3 53,-187.2 53,-184.1 53,-184.1 53,-177.9 53,-177.9 53,-174.8 56.1,-171.7 59.2,-171.7 59.2,-171.7 101.81,-171.7 101.81,-171.7 104.91,-171.7 108.01,-174.8 108.01,-177.9 108.01,-177.9 108.01,-184.1 108.01,-184.1 108.01,-187.2 104.91,-190.3 101.81,-190.3"/>
<text text-anchor="middle" x="80.5" y="-178.3" font-family="Helvetica,sans-Serif" font-size="9.00">handler.js</text>
</a>
</g>
</g>
<!-- stepped/3&#45;separated/madlibs/1&#45;dom/src/init.js -->
<g id="node2" class="node">
<title>stepped/3&#45;separated/madlibs/1&#45;dom/src/init.js</title>
<g id="a_node2"><a xlink:href="stepped/3-separated/madlibs/1-dom/src/init.js" xlink:title="init.js">
<path fill="#ccffcc" stroke="black" d="M101.3,-159.3C101.3,-159.3 59.7,-159.3 59.7,-159.3 56.6,-159.3 53.5,-156.2 53.5,-153.1 53.5,-153.1 53.5,-146.9 53.5,-146.9 53.5,-143.8 56.6,-140.7 59.7,-140.7 59.7,-140.7 101.3,-140.7 101.3,-140.7 104.4,-140.7 107.5,-143.8 107.5,-146.9 107.5,-146.9 107.5,-153.1 107.5,-153.1 107.5,-156.2 104.4,-159.3 101.3,-159.3"/>
<text text-anchor="middle" x="80.5" y="-147.3" font-family="Helvetica,sans-Serif" font-size="9.00">init.js</text>
</a>
</g>
</g>
<!-- stepped/3&#45;separated/madlibs/1&#45;dom/src/listener.js -->
<g id="node3" class="node">
<title>stepped/3&#45;separated/madlibs/1&#45;dom/src/listener.js</title>
<g id="a_node3"><a xlink:href="stepped/3-separated/madlibs/1-dom/src/listener.js" xlink:title="listener.js">
<path fill="#ccffcc" stroke="black" d="M101.3,-128.3C101.3,-128.3 59.7,-128.3 59.7,-128.3 56.6,-128.3 53.5,-125.2 53.5,-122.1 53.5,-122.1 53.5,-115.9 53.5,-115.9 53.5,-112.8 56.6,-109.7 59.7,-109.7 59.7,-109.7 101.3,-109.7 101.3,-109.7 104.4,-109.7 107.5,-112.8 107.5,-115.9 107.5,-115.9 107.5,-122.1 107.5,-122.1 107.5,-125.2 104.4,-128.3 101.3,-128.3"/>
<text text-anchor="middle" x="80.5" y="-116.3" font-family="Helvetica,sans-Serif" font-size="9.00">listener.js</text>
</a>
</g>
</g>
<!-- stepped/3&#45;separated/madlibs/1&#45;dom/src/logic.js -->
<g id="node4" class="node">
<title>stepped/3&#45;separated/madlibs/1&#45;dom/src/logic.js</title>
<g id="a_node4"><a xlink:href="stepped/3-separated/madlibs/1-dom/src/logic.js" xlink:title="logic.js">
<path fill="#ccffcc" stroke="black" d="M101.3,-97.3C101.3,-97.3 59.7,-97.3 59.7,-97.3 56.6,-97.3 53.5,-94.2 53.5,-91.1 53.5,-91.1 53.5,-84.9 53.5,-84.9 53.5,-81.8 56.6,-78.7 59.7,-78.7 59.7,-78.7 101.3,-78.7 101.3,-78.7 104.4,-78.7 107.5,-81.8 107.5,-84.9 107.5,-84.9 107.5,-91.1 107.5,-91.1 107.5,-94.2 104.4,-97.3 101.3,-97.3"/>
<text text-anchor="middle" x="80.5" y="-85.3" font-family="Helvetica,sans-Serif" font-size="9.00">logic.js</text>
</a>
</g>
</g>
<!-- stepped/3&#45;separated/madlibs/1&#45;dom/src/logic.spec.js -->
<g id="node5" class="node">
<title>stepped/3&#45;separated/madlibs/1&#45;dom/src/logic.spec.js</title>
<g id="a_node5"><a xlink:href="stepped/3-separated/madlibs/1-dom/src/logic.spec.js" xlink:title="logic.spec.js">
<path fill="#ccffcc" stroke="black" d="M106.81,-66.3C106.81,-66.3 54.2,-66.3 54.2,-66.3 51.1,-66.3 48,-63.2 48,-60.1 48,-60.1 48,-53.9 48,-53.9 48,-50.8 51.1,-47.7 54.2,-47.7 54.2,-47.7 106.81,-47.7 106.81,-47.7 109.91,-47.7 113.01,-50.8 113.01,-53.9 113.01,-53.9 113.01,-60.1 113.01,-60.1 113.01,-63.2 109.91,-66.3 106.81,-66.3"/>
<text text-anchor="middle" x="80.5" y="-54.3" font-family="Helvetica,sans-Serif" font-size="9.00">logic.spec.js</text>
</a>
</g>
</g>
</g>
</svg>
