<?xml version="1.0" encoding="UTF-8" standalone="no"?>
<!DOCTYPE svg PUBLIC "-//W3C//DTD SVG 1.1//EN"
 "http://www.w3.org/Graphics/SVG/1.1/DTD/svg11.dtd">
<!-- Generated by graphviz version 2.44.0 (20200408.0750)
 -->
<!-- Title: dependency&#45;cruiser output Pages: 1 -->
<svg width="389pt" height="266pt"
 viewBox="0.00 0.00 389.02 266.40" xmlns="http://www.w3.org/2000/svg" xmlns:xlink="http://www.w3.org/1999/xlink">
<g id="graph0" class="graph" transform="scale(1 1) rotate(0) translate(4 262.4)">
<title>dependency&#45;cruiser output</title>
<polygon fill="white" stroke="transparent" points="-4,4 -4,-262.4 385.02,-262.4 385.02,4 -4,4"/>
<g id="clust1" class="cluster">
<title>cluster_refactoring</title>
<path fill="#ffffff" stroke="black" stroke-width="2" d="M20,-26.4C20,-26.4 361.02,-26.4 361.02,-26.4 367.02,-26.4 373.02,-32.4 373.02,-38.4 373.02,-38.4 373.02,-238.4 373.02,-238.4 373.02,-244.4 367.02,-250.4 361.02,-250.4 361.02,-250.4 20,-250.4 20,-250.4 14,-250.4 8,-244.4 8,-238.4 8,-238.4 8,-38.4 8,-38.4 8,-32.4 14,-26.4 20,-26.4"/>
<text text-anchor="middle" x="190.51" y="-238.3" font-family="Helvetica,sans-Serif" font-weight="bold" font-size="9.00">refactoring</text>
</g>
<g id="clust2" class="cluster">
<title>cluster_refactoring/refactored&#45;tutorials</title>
<path fill="#ffffff" stroke="black" stroke-width="2" d="M28,-34.4C28,-34.4 353.02,-34.4 353.02,-34.4 359.02,-34.4 365.02,-40.4 365.02,-46.4 365.02,-46.4 365.02,-211.4 365.02,-211.4 365.02,-217.4 359.02,-223.4 353.02,-223.4 353.02,-223.4 28,-223.4 28,-223.4 22,-223.4 16,-217.4 16,-211.4 16,-211.4 16,-46.4 16,-46.4 16,-40.4 22,-34.4 28,-34.4"/>
<text text-anchor="middle" x="190.51" y="-211.3" font-family="Helvetica,sans-Serif" font-weight="bold" font-size="9.00">refactored&#45;tutorials</text>
</g>
<g id="clust3" class="cluster">
<title>cluster_refactoring/refactored&#45;tutorials/traversy&#45;rock&#45;paper&#45;scissors</title>
<path fill="#ffffff" stroke="black" stroke-width="2" d="M36,-42.4C36,-42.4 345.02,-42.4 345.02,-42.4 351.02,-42.4 357.02,-48.4 357.02,-54.4 357.02,-54.4 357.02,-184.4 357.02,-184.4 357.02,-190.4 351.02,-196.4 345.02,-196.4 345.02,-196.4 36,-196.4 36,-196.4 30,-196.4 24,-190.4 24,-184.4 24,-184.4 24,-54.4 24,-54.4 24,-48.4 30,-42.4 36,-42.4"/>
<text text-anchor="middle" x="190.51" y="-184.3" font-family="Helvetica,sans-Serif" font-weight="bold" font-size="9.00">traversy&#45;rock&#45;paper&#45;scissors</text>
</g>
<g id="clust4" class="cluster">
<title>cluster_refactoring/refactored&#45;tutorials/traversy&#45;rock&#45;paper&#45;scissors/separated</title>
<path fill="#ffffff" stroke="black" stroke-width="2" d="M44,-50.4C44,-50.4 337.02,-50.4 337.02,-50.4 343.02,-50.4 349.02,-56.4 349.02,-62.4 349.02,-62.4 349.02,-157.4 349.02,-157.4 349.02,-163.4 343.02,-169.4 337.02,-169.4 337.02,-169.4 44,-169.4 44,-169.4 38,-169.4 32,-163.4 32,-157.4 32,-157.4 32,-62.4 32,-62.4 32,-56.4 38,-50.4 44,-50.4"/>
<text text-anchor="middle" x="190.51" y="-157.3" font-family="Helvetica,sans-Serif" font-weight="bold" font-size="9.00">separated</text>
</g>
<g id="clust5" class="cluster">
<title>cluster_refactoring/refactored&#45;tutorials/traversy&#45;rock&#45;paper&#45;scissors/separated/src</title>
<path fill="#ffffff" stroke="black" stroke-width="2" d="M52,-58.4C52,-58.4 329.02,-58.4 329.02,-58.4 335.02,-58.4 341.02,-64.4 341.02,-70.4 341.02,-70.4 341.02,-130.4 341.02,-130.4 341.02,-136.4 335.02,-142.4 329.02,-142.4 329.02,-142.4 52,-142.4 52,-142.4 46,-142.4 40,-136.4 40,-130.4 40,-130.4 40,-70.4 40,-70.4 40,-64.4 46,-58.4 52,-58.4"/>
<text text-anchor="middle" x="190.51" y="-130.3" font-family="Helvetica,sans-Serif" font-weight="bold" font-size="9.00">src</text>
</g>
<!-- ./utils.js -->
<g id="node1" class="node">
<title>./utils.js</title>
<path fill="#ffffcc" stroke="red" d="M316.81,-18.7C316.81,-18.7 275.21,-18.7 275.21,-18.7 272.11,-18.7 269.01,-15.6 269.01,-12.5 269.01,-12.5 269.01,-6.3 269.01,-6.3 269.01,-3.2 272.11,-0.1 275.21,-0.1 275.21,-0.1 316.81,-0.1 316.81,-0.1 319.91,-0.1 323.01,-3.2 323.01,-6.3 323.01,-6.3 323.01,-12.5 323.01,-12.5 323.01,-15.6 319.91,-18.7 316.81,-18.7"/>
<text text-anchor="middle" x="296.01" y="-6.7" font-family="Helvetica,sans-Serif" font-size="9.00" fill="red">utils.js</text>
</g>
<!-- refactoring/refactored&#45;tutorials/traversy&#45;rock&#45;paper&#45;scissors/separated/src/components.js -->
<g id="node2" class="node">
<title>refactoring/refactored&#45;tutorials/traversy&#45;rock&#45;paper&#45;scissors/separated/src/components.js</title>
<g id="a_node2"><a xlink:href="refactoring/refactored-tutorials/traversy-rock-paper-scissors/separated/src/components.js" xlink:title="components.js">
<path fill="#ffffcc" stroke="black" d="M326.83,-84.7C326.83,-84.7 265.2,-84.7 265.2,-84.7 262.1,-84.7 259,-81.6 259,-78.5 259,-78.5 259,-72.3 259,-72.3 259,-69.2 262.1,-66.1 265.2,-66.1 265.2,-66.1 326.83,-66.1 326.83,-66.1 329.93,-66.1 333.03,-69.2 333.03,-72.3 333.03,-72.3 333.03,-78.5 333.03,-78.5 333.03,-81.6 329.93,-84.7 326.83,-84.7"/>
<text text-anchor="middle" x="296.01" y="-72.7" font-family="Helvetica,sans-Serif" font-size="9.00">components.js</text>
</a>
</g>
</g>
<!-- refactoring/refactored&#45;tutorials/traversy&#45;rock&#45;paper&#45;scissors/separated/src/data.js -->
<g id="node3" class="node">
<title>refactoring/refactored&#45;tutorials/traversy&#45;rock&#45;paper&#45;scissors/separated/src/data.js</title>
<g id="a_node3"><a xlink:href="refactoring/refactored-tutorials/traversy-rock-paper-scissors/separated/src/data.js" xlink:title="data.js">
<path fill="#ffffcc" stroke="black" d="M316.81,-115.7C316.81,-115.7 275.21,-115.7 275.21,-115.7 272.11,-115.7 269.01,-112.6 269.01,-109.5 269.01,-109.5 269.01,-103.3 269.01,-103.3 269.01,-100.2 272.11,-97.1 275.21,-97.1 275.21,-97.1 316.81,-97.1 316.81,-97.1 319.91,-97.1 323.01,-100.2 323.01,-103.3 323.01,-103.3 323.01,-109.5 323.01,-109.5 323.01,-112.6 319.91,-115.7 316.81,-115.7"/>
<text text-anchor="middle" x="296.01" y="-103.7" font-family="Helvetica,sans-Serif" font-size="9.00">data.js</text>
</a>
</g>
</g>
<!-- refactoring/refactored&#45;tutorials/traversy&#45;rock&#45;paper&#45;scissors/separated/src/handlers.js -->
<g id="node4" class="node">
<title>refactoring/refactored&#45;tutorials/traversy&#45;rock&#45;paper&#45;scissors/separated/src/handlers.js</title>
<g id="a_node4"><a xlink:href="refactoring/refactored-tutorials/traversy-rock-paper-scissors/separated/src/handlers.js" xlink:title="handlers.js">
<path fill="#ffffcc" stroke="black" d="M239.56,-99.7C239.56,-99.7 192.94,-99.7 192.94,-99.7 189.84,-99.7 186.74,-96.6 186.74,-93.5 186.74,-93.5 186.74,-87.3 186.74,-87.3 186.74,-84.2 189.84,-81.1 192.94,-81.1 192.94,-81.1 239.56,-81.1 239.56,-81.1 242.66,-81.1 245.76,-84.2 245.76,-87.3 245.76,-87.3 245.76,-93.5 245.76,-93.5 245.76,-96.6 242.66,-99.7 239.56,-99.7"/>
<text text-anchor="middle" x="216.25" y="-87.7" font-family="Helvetica,sans-Serif" font-size="9.00">handlers.js</text>
</a>
</g>
</g>
<!-- refactoring/refactored&#45;tutorials/traversy&#45;rock&#45;paper&#45;scissors/separated/src/handlers.js&#45;&gt;./utils.js -->
<g id="edge3" class="edge">
<title>refactoring/refactored&#45;tutorials/traversy&#45;rock&#45;paper&#45;scissors/separated/src/handlers.js&#45;&gt;./utils.js</title>
<path fill="none" stroke="#000000" stroke-width="2" stroke-opacity="0.200000" d="M226.48,-80.79C240.16,-66.54 265.9,-39.73 281.64,-23.33"/>
<polygon fill="#000000" fill-opacity="0.200000" stroke="#000000" stroke-width="2" stroke-opacity="0.200000" points="283.16,-24.78 285.8,-19 280.13,-21.87 283.16,-24.78"/>
</g>
<!-- refactoring/refactored&#45;tutorials/traversy&#45;rock&#45;paper&#45;scissors/separated/src/handlers.js&#45;&gt;refactoring/refactored&#45;tutorials/traversy&#45;rock&#45;paper&#45;scissors/separated/src/components.js -->
<g id="edge1" class="edge">
<title>refactoring/refactored&#45;tutorials/traversy&#45;rock&#45;paper&#45;scissors/separated/src/handlers.js&#45;&gt;refactoring/refactored&#45;tutorials/traversy&#45;rock&#45;paper&#45;scissors/separated/src/components.js</title>
<path fill="none" stroke="#000000" stroke-width="2" stroke-opacity="0.200000" d="M245.77,-84.9C248.02,-84.46 250.33,-84.02 252.65,-83.57"/>
<polygon fill="#000000" fill-opacity="0.200000" stroke="#000000" stroke-width="2" stroke-opacity="0.200000" points="253.33,-85.58 258.82,-82.38 252.53,-81.46 253.33,-85.58"/>
</g>
<!-- refactoring/refactored&#45;tutorials/traversy&#45;rock&#45;paper&#45;scissors/separated/src/handlers.js&#45;&gt;refactoring/refactored&#45;tutorials/traversy&#45;rock&#45;paper&#45;scissors/separated/src/data.js -->
<g id="edge2" class="edge">
<title>refactoring/refactored&#45;tutorials/traversy&#45;rock&#45;paper&#45;scissors/separated/src/handlers.js&#45;&gt;refactoring/refactored&#45;tutorials/traversy&#45;rock&#45;paper&#45;scissors/separated/src/data.js</title>
<path fill="none" stroke="#000000" stroke-width="2" stroke-opacity="0.200000" d="M245.77,-96.27C251.3,-97.41 257.15,-98.61 262.79,-99.77"/>
<polygon fill="#000000" fill-opacity="0.200000" stroke="#000000" stroke-width="2" stroke-opacity="0.200000" points="262.52,-101.86 268.82,-101.01 263.37,-97.75 262.52,-101.86"/>
</g>
<!-- refactoring/refactored&#45;tutorials/traversy&#45;rock&#45;paper&#45;scissors/separated/src/init.js -->
<g id="node5" class="node">
<title>refactoring/refactored&#45;tutorials/traversy&#45;rock&#45;paper&#45;scissors/separated/src/init.js</title>
<g id="a_node5"><a xlink:href="refactoring/refactored-tutorials/traversy-rock-paper-scissors/separated/src/init.js" xlink:title="init.js">
<path fill="#ffffcc" stroke="black" d="M95.8,-115.7C95.8,-115.7 54.2,-115.7 54.2,-115.7 51.1,-115.7 48,-112.6 48,-109.5 48,-109.5 48,-103.3 48,-103.3 48,-100.2 51.1,-97.1 54.2,-97.1 54.2,-97.1 95.8,-97.1 95.8,-97.1 98.9,-97.1 102,-100.2 102,-103.3 102,-103.3 102,-109.5 102,-109.5 102,-112.6 98.9,-115.7 95.8,-115.7"/>
<text text-anchor="middle" x="75" y="-103.7" font-family="Helvetica,sans-Serif" font-size="9.00">init.js</text>
</a>
</g>
</g>
<!-- refactoring/refactored&#45;tutorials/traversy&#45;rock&#45;paper&#45;scissors/separated/src/listeners.js -->
<g id="node6" class="node">
<title>refactoring/refactored&#45;tutorials/traversy&#45;rock&#45;paper&#45;scissors/separated/src/listeners.js</title>
<g id="a_node6"><a xlink:href="refactoring/refactored-tutorials/traversy-rock-paper-scissors/separated/src/listeners.js" xlink:title="listeners.js">
<path fill="#ffffcc" stroke="black" d="M167.55,-107.7C167.55,-107.7 120.95,-107.7 120.95,-107.7 117.85,-107.7 114.75,-104.6 114.75,-101.5 114.75,-101.5 114.75,-95.3 114.75,-95.3 114.75,-92.2 117.85,-89.1 120.95,-89.1 120.95,-89.1 167.55,-89.1 167.55,-89.1 170.65,-89.1 173.75,-92.2 173.75,-95.3 173.75,-95.3 173.75,-101.5 173.75,-101.5 173.75,-104.6 170.65,-107.7 167.55,-107.7"/>
<text text-anchor="middle" x="144.25" y="-95.7" font-family="Helvetica,sans-Serif" font-size="9.00">listeners.js</text>
</a>
</g>
</g>
<!-- refactoring/refactored&#45;tutorials/traversy&#45;rock&#45;paper&#45;scissors/separated/src/init.js&#45;&gt;refactoring/refactored&#45;tutorials/traversy&#45;rock&#45;paper&#45;scissors/separated/src/listeners.js -->
<g id="edge4" class="edge">
<title>refactoring/refactored&#45;tutorials/traversy&#45;rock&#45;paper&#45;scissors/separated/src/init.js&#45;&gt;refactoring/refactored&#45;tutorials/traversy&#45;rock&#45;paper&#45;scissors/separated/src/listeners.js</title>
<path fill="none" stroke="#000000" stroke-width="2" stroke-opacity="0.200000" d="M102.19,-103.28C104.26,-103.04 106.36,-102.79 108.47,-102.54"/>
<polygon fill="#000000" fill-opacity="0.200000" stroke="#000000" stroke-width="2" stroke-opacity="0.200000" points="109.08,-104.58 114.79,-101.79 108.58,-100.41 109.08,-104.58"/>
</g>
<!-- refactoring/refactored&#45;tutorials/traversy&#45;rock&#45;paper&#45;scissors/separated/src/listeners.js&#45;&gt;refactoring/refactored&#45;tutorials/traversy&#45;rock&#45;paper&#45;scissors/separated/src/handlers.js -->
<g id="edge5" class="edge">
<title>refactoring/refactored&#45;tutorials/traversy&#45;rock&#45;paper&#45;scissors/separated/src/listeners.js&#45;&gt;refactoring/refactored&#45;tutorials/traversy&#45;rock&#45;paper&#45;scissors/separated/src/handlers.js</title>
<path fill="none" stroke="#000000" stroke-width="2" stroke-opacity="0.200000" d="M173.72,-95.15C175.97,-94.89 178.26,-94.63 180.55,-94.37"/>
<polygon fill="#000000" fill-opacity="0.200000" stroke="#000000" stroke-width="2" stroke-opacity="0.200000" points="180.85,-96.44 186.58,-93.68 180.38,-92.27 180.85,-96.44"/>
</g>
<!-- refactoring/refactored&#45;tutorials/traversy&#45;rock&#45;paper&#45;scissors/separated/src/logic.js -->
<g id="node7" class="node">
<title>refactoring/refactored&#45;tutorials/traversy&#45;rock&#45;paper&#45;scissors/separated/src/logic.js</title>
<g id="a_node7"><a xlink:href="refactoring/refactored-tutorials/traversy-rock-paper-scissors/separated/src/logic.js" xlink:title="logic.js">
<path fill="#ccffcc" stroke="black" d="M95.8,-84.7C95.8,-84.7 54.2,-84.7 54.2,-84.7 51.1,-84.7 48,-81.6 48,-78.5 48,-78.5 48,-72.3 48,-72.3 48,-69.2 51.1,-66.1 54.2,-66.1 54.2,-66.1 95.8,-66.1 95.8,-66.1 98.9,-66.1 102,-69.2 102,-72.3 102,-72.3 102,-78.5 102,-78.5 102,-81.6 98.9,-84.7 95.8,-84.7"/>
<text text-anchor="middle" x="75" y="-72.7" font-family="Helvetica,sans-Serif" font-size="9.00">logic.js</text>
</a>
</g>
</g>
</g>
</svg>
