<?xml version="1.0" encoding="UTF-8" standalone="no"?>
<!DOCTYPE svg PUBLIC "-//W3C//DTD SVG 1.1//EN"
 "http://www.w3.org/Graphics/SVG/1.1/DTD/svg11.dtd">
<!-- Generated by graphviz version 2.44.0 (20200408.0750)
 -->
<!-- Title: dependency&#45;cruiser output Pages: 1 -->
<svg width="389pt" height="279pt"
 viewBox="0.00 0.00 389.02 279.00" xmlns="http://www.w3.org/2000/svg" xmlns:xlink="http://www.w3.org/1999/xlink">
<g id="graph0" class="graph" transform="scale(1 1) rotate(0) translate(4 275)">
<title>dependency&#45;cruiser output</title>
<polygon fill="white" stroke="transparent" points="-4,4 -4,-275 385.02,-275 385.02,4 -4,4"/>
<g id="clust1" class="cluster">
<title>cluster_refactoring</title>
<path fill="#ffffff" stroke="black" stroke-width="2" d="M20,-8C20,-8 361.02,-8 361.02,-8 367.02,-8 373.02,-14 373.02,-20 373.02,-20 373.02,-251 373.02,-251 373.02,-257 367.02,-263 361.02,-263 361.02,-263 20,-263 20,-263 14,-263 8,-257 8,-251 8,-251 8,-20 8,-20 8,-14 14,-8 20,-8"/>
<text text-anchor="middle" x="190.51" y="-250.9" font-family="Helvetica,sans-Serif" font-weight="bold" font-size="9.00">refactoring</text>
</g>
<g id="clust2" class="cluster">
<title>cluster_refactoring/examples</title>
<path fill="#ffffff" stroke="black" stroke-width="2" d="M28,-16C28,-16 353.02,-16 353.02,-16 359.02,-16 365.02,-22 365.02,-28 365.02,-28 365.02,-224 365.02,-224 365.02,-230 359.02,-236 353.02,-236 353.02,-236 28,-236 28,-236 22,-236 16,-230 16,-224 16,-224 16,-28 16,-28 16,-22 22,-16 28,-16"/>
<text text-anchor="middle" x="190.51" y="-223.9" font-family="Helvetica,sans-Serif" font-weight="bold" font-size="9.00">examples</text>
</g>
<g id="clust3" class="cluster">
<title>cluster_refactoring/examples/traversy&#45;rock&#45;paper&#45;scissors</title>
<path fill="#ffffff" stroke="black" stroke-width="2" d="M36,-24C36,-24 345.02,-24 345.02,-24 351.02,-24 357.02,-30 357.02,-36 357.02,-36 357.02,-197 357.02,-197 357.02,-203 351.02,-209 345.02,-209 345.02,-209 36,-209 36,-209 30,-209 24,-203 24,-197 24,-197 24,-36 24,-36 24,-30 30,-24 36,-24"/>
<text text-anchor="middle" x="190.51" y="-196.9" font-family="Helvetica,sans-Serif" font-weight="bold" font-size="9.00">traversy&#45;rock&#45;paper&#45;scissors</text>
</g>
<g id="clust4" class="cluster">
<title>cluster_refactoring/examples/traversy&#45;rock&#45;paper&#45;scissors/separated</title>
<path fill="#ffffff" stroke="black" stroke-width="2" d="M44,-32C44,-32 337.02,-32 337.02,-32 343.02,-32 349.02,-38 349.02,-44 349.02,-44 349.02,-170 349.02,-170 349.02,-176 343.02,-182 337.02,-182 337.02,-182 44,-182 44,-182 38,-182 32,-176 32,-170 32,-170 32,-44 32,-44 32,-38 38,-32 44,-32"/>
<text text-anchor="middle" x="190.51" y="-169.9" font-family="Helvetica,sans-Serif" font-weight="bold" font-size="9.00">separated</text>
</g>
<g id="clust5" class="cluster">
<title>cluster_refactoring/examples/traversy&#45;rock&#45;paper&#45;scissors/separated/src</title>
<path fill="#ffffff" stroke="black" stroke-width="2" d="M52,-40C52,-40 329.02,-40 329.02,-40 335.02,-40 341.02,-46 341.02,-52 341.02,-52 341.02,-143 341.02,-143 341.02,-149 335.02,-155 329.02,-155 329.02,-155 52,-155 52,-155 46,-155 40,-149 40,-143 40,-143 40,-52 40,-52 40,-46 46,-40 52,-40"/>
<text text-anchor="middle" x="190.51" y="-142.9" font-family="Helvetica,sans-Serif" font-weight="bold" font-size="9.00">src</text>
</g>
<!-- refactoring/examples/traversy&#45;rock&#45;paper&#45;scissors/separated/src/components.js -->
<g id="node1" class="node">
<title>refactoring/examples/traversy&#45;rock&#45;paper&#45;scissors/separated/src/components.js</title>
<g id="a_node1"><a xlink:href="refactoring/examples/traversy-rock-paper-scissors/separated/src/components.js" xlink:title="components.js">
<path fill="#ffffcc" stroke="black" d="M326.83,-66.3C326.83,-66.3 265.2,-66.3 265.2,-66.3 262.1,-66.3 259,-63.2 259,-60.1 259,-60.1 259,-53.9 259,-53.9 259,-50.8 262.1,-47.7 265.2,-47.7 265.2,-47.7 326.83,-47.7 326.83,-47.7 329.93,-47.7 333.03,-50.8 333.03,-53.9 333.03,-53.9 333.03,-60.1 333.03,-60.1 333.03,-63.2 329.93,-66.3 326.83,-66.3"/>
<text text-anchor="middle" x="296.01" y="-54.3" font-family="Helvetica,sans-Serif" font-size="9.00">components.js</text>
</a>
</g>
</g>
<!-- refactoring/examples/traversy&#45;rock&#45;paper&#45;scissors/separated/src/data.js -->
<g id="node2" class="node">
<title>refactoring/examples/traversy&#45;rock&#45;paper&#45;scissors/separated/src/data.js</title>
<g id="a_node2"><a xlink:href="refactoring/examples/traversy-rock-paper-scissors/separated/src/data.js" xlink:title="data.js">
<path fill="#ffffcc" stroke="black" d="M316.81,-97.3C316.81,-97.3 275.21,-97.3 275.21,-97.3 272.11,-97.3 269.01,-94.2 269.01,-91.1 269.01,-91.1 269.01,-84.9 269.01,-84.9 269.01,-81.8 272.11,-78.7 275.21,-78.7 275.21,-78.7 316.81,-78.7 316.81,-78.7 319.91,-78.7 323.01,-81.8 323.01,-84.9 323.01,-84.9 323.01,-91.1 323.01,-91.1 323.01,-94.2 319.91,-97.3 316.81,-97.3"/>
<text text-anchor="middle" x="296.01" y="-85.3" font-family="Helvetica,sans-Serif" font-size="9.00">data.js</text>
</a>
</g>
</g>
<!-- refactoring/examples/traversy&#45;rock&#45;paper&#45;scissors/separated/src/handlers.js -->
<g id="node3" class="node">
<title>refactoring/examples/traversy&#45;rock&#45;paper&#45;scissors/separated/src/handlers.js</title>
<g id="a_node3"><a xlink:href="refactoring/examples/traversy-rock-paper-scissors/separated/src/handlers.js" xlink:title="handlers.js">
<path fill="#ffffcc" stroke="black" d="M239.56,-97.3C239.56,-97.3 192.94,-97.3 192.94,-97.3 189.84,-97.3 186.74,-94.2 186.74,-91.1 186.74,-91.1 186.74,-84.9 186.74,-84.9 186.74,-81.8 189.84,-78.7 192.94,-78.7 192.94,-78.7 239.56,-78.7 239.56,-78.7 242.66,-78.7 245.76,-81.8 245.76,-84.9 245.76,-84.9 245.76,-91.1 245.76,-91.1 245.76,-94.2 242.66,-97.3 239.56,-97.3"/>
<text text-anchor="middle" x="216.25" y="-85.3" font-family="Helvetica,sans-Serif" font-size="9.00">handlers.js</text>
</a>
</g>
</g>
<!-- refactoring/examples/traversy&#45;rock&#45;paper&#45;scissors/separated/src/handlers.js&#45;&gt;refactoring/examples/traversy&#45;rock&#45;paper&#45;scissors/separated/src/components.js -->
<g id="edge1" class="edge">
<title>refactoring/examples/traversy&#45;rock&#45;paper&#45;scissors/separated/src/handlers.js&#45;&gt;refactoring/examples/traversy&#45;rock&#45;paper&#45;scissors/separated/src/components.js</title>
<path fill="none" stroke="#000000" stroke-width="2" stroke-opacity="0.200000" d="M241.01,-78.53C248.92,-75.38 257.82,-71.83 266.08,-68.54"/>
<polygon fill="#000000" fill-opacity="0.200000" stroke="#000000" stroke-width="2" stroke-opacity="0.200000" points="266.88,-70.48 271.67,-66.3 265.32,-66.58 266.88,-70.48"/>
</g>
<!-- refactoring/examples/traversy&#45;rock&#45;paper&#45;scissors/separated/src/handlers.js&#45;&gt;refactoring/examples/traversy&#45;rock&#45;paper&#45;scissors/separated/src/data.js -->
<g id="edge2" class="edge">
<title>refactoring/examples/traversy&#45;rock&#45;paper&#45;scissors/separated/src/handlers.js&#45;&gt;refactoring/examples/traversy&#45;rock&#45;paper&#45;scissors/separated/src/data.js</title>
<path fill="none" stroke="#000000" stroke-width="2" stroke-opacity="0.200000" d="M245.77,-88C251.3,-88 257.15,-88 262.79,-88"/>
<polygon fill="#000000" fill-opacity="0.200000" stroke="#000000" stroke-width="2" stroke-opacity="0.200000" points="262.82,-90.1 268.82,-88 262.82,-85.9 262.82,-90.1"/>
</g>
<!-- refactoring/examples/traversy&#45;rock&#45;paper&#45;scissors/separated/src/logic.js -->
<g id="node4" class="node">
<title>refactoring/examples/traversy&#45;rock&#45;paper&#45;scissors/separated/src/logic.js</title>
<g id="a_node4"><a xlink:href="refactoring/examples/traversy-rock-paper-scissors/separated/src/logic.js" xlink:title="logic.js">
<path fill="#ffffcc" stroke="black" d="M316.81,-128.3C316.81,-128.3 275.21,-128.3 275.21,-128.3 272.11,-128.3 269.01,-125.2 269.01,-122.1 269.01,-122.1 269.01,-115.9 269.01,-115.9 269.01,-112.8 272.11,-109.7 275.21,-109.7 275.21,-109.7 316.81,-109.7 316.81,-109.7 319.91,-109.7 323.01,-112.8 323.01,-115.9 323.01,-115.9 323.01,-122.1 323.01,-122.1 323.01,-125.2 319.91,-128.3 316.81,-128.3"/>
<text text-anchor="middle" x="296.01" y="-116.3" font-family="Helvetica,sans-Serif" font-size="9.00">logic.js</text>
</a>
</g>
</g>
<!-- refactoring/examples/traversy&#45;rock&#45;paper&#45;scissors/separated/src/handlers.js&#45;&gt;refactoring/examples/traversy&#45;rock&#45;paper&#45;scissors/separated/src/logic.js -->
<g id="edge3" class="edge">
<title>refactoring/examples/traversy&#45;rock&#45;paper&#45;scissors/separated/src/handlers.js&#45;&gt;refactoring/examples/traversy&#45;rock&#45;paper&#45;scissors/separated/src/logic.js</title>
<path fill="none" stroke="#000000" stroke-width="2" stroke-opacity="0.200000" d="M241.01,-97.47C248.92,-100.62 257.82,-104.17 266.08,-107.46"/>
<polygon fill="#000000" fill-opacity="0.200000" stroke="#000000" stroke-width="2" stroke-opacity="0.200000" points="265.32,-109.42 271.67,-109.7 266.88,-105.52 265.32,-109.42"/>
</g>
<!-- refactoring/examples/traversy&#45;rock&#45;paper&#45;scissors/separated/src/init.js -->
<g id="node5" class="node">
<title>refactoring/examples/traversy&#45;rock&#45;paper&#45;scissors/separated/src/init.js</title>
<g id="a_node5"><a xlink:href="refactoring/examples/traversy-rock-paper-scissors/separated/src/init.js" xlink:title="init.js">
<path fill="#ffffcc" stroke="black" d="M95.8,-97.3C95.8,-97.3 54.2,-97.3 54.2,-97.3 51.1,-97.3 48,-94.2 48,-91.1 48,-91.1 48,-84.9 48,-84.9 48,-81.8 51.1,-78.7 54.2,-78.7 54.2,-78.7 95.8,-78.7 95.8,-78.7 98.9,-78.7 102,-81.8 102,-84.9 102,-84.9 102,-91.1 102,-91.1 102,-94.2 98.9,-97.3 95.8,-97.3"/>
<text text-anchor="middle" x="75" y="-85.3" font-family="Helvetica,sans-Serif" font-size="9.00">init.js</text>
</a>
</g>
</g>
<!-- refactoring/examples/traversy&#45;rock&#45;paper&#45;scissors/separated/src/listeners.js -->
<g id="node6" class="node">
<title>refactoring/examples/traversy&#45;rock&#45;paper&#45;scissors/separated/src/listeners.js</title>
<g id="a_node6"><a xlink:href="refactoring/examples/traversy-rock-paper-scissors/separated/src/listeners.js" xlink:title="listeners.js">
<path fill="#ffffcc" stroke="black" d="M167.55,-97.3C167.55,-97.3 120.95,-97.3 120.95,-97.3 117.85,-97.3 114.75,-94.2 114.75,-91.1 114.75,-91.1 114.75,-84.9 114.75,-84.9 114.75,-81.8 117.85,-78.7 120.95,-78.7 120.95,-78.7 167.55,-78.7 167.55,-78.7 170.65,-78.7 173.75,-81.8 173.75,-84.9 173.75,-84.9 173.75,-91.1 173.75,-91.1 173.75,-94.2 170.65,-97.3 167.55,-97.3"/>
<text text-anchor="middle" x="144.25" y="-85.3" font-family="Helvetica,sans-Serif" font-size="9.00">listeners.js</text>
</a>
</g>
</g>
<!-- refactoring/examples/traversy&#45;rock&#45;paper&#45;scissors/separated/src/init.js&#45;&gt;refactoring/examples/traversy&#45;rock&#45;paper&#45;scissors/separated/src/listeners.js -->
<g id="edge4" class="edge">
<title>refactoring/examples/traversy&#45;rock&#45;paper&#45;scissors/separated/src/init.js&#45;&gt;refactoring/examples/traversy&#45;rock&#45;paper&#45;scissors/separated/src/listeners.js</title>
<path fill="none" stroke="#000000" stroke-width="2" stroke-opacity="0.200000" d="M102.19,-88C104.26,-88 106.36,-88 108.47,-88"/>
<polygon fill="#000000" fill-opacity="0.200000" stroke="#000000" stroke-width="2" stroke-opacity="0.200000" points="108.79,-90.1 114.79,-88 108.79,-85.9 108.79,-90.1"/>
</g>
<!-- refactoring/examples/traversy&#45;rock&#45;paper&#45;scissors/separated/src/listeners.js&#45;&gt;refactoring/examples/traversy&#45;rock&#45;paper&#45;scissors/separated/src/handlers.js -->
<g id="edge5" class="edge">
<title>refactoring/examples/traversy&#45;rock&#45;paper&#45;scissors/separated/src/listeners.js&#45;&gt;refactoring/examples/traversy&#45;rock&#45;paper&#45;scissors/separated/src/handlers.js</title>
<path fill="none" stroke="#000000" stroke-width="2" stroke-opacity="0.200000" d="M173.72,-88C175.97,-88 178.26,-88 180.55,-88"/>
<polygon fill="#000000" fill-opacity="0.200000" stroke="#000000" stroke-width="2" stroke-opacity="0.200000" points="180.58,-90.1 186.58,-88 180.58,-85.9 180.58,-90.1"/>
</g>
</g>
</svg>
