<?xml version="1.0" encoding="UTF-8" standalone="no"?>
<!DOCTYPE svg PUBLIC "-//W3C//DTD SVG 1.1//EN"
 "http://www.w3.org/Graphics/SVG/1.1/DTD/svg11.dtd">
<!-- Generated by graphviz version 2.44.0 (20200408.0750)
 -->
<!-- Title: dependency&#45;cruiser output Pages: 1 -->
<svg width="304pt" height="279pt"
 viewBox="0.00 0.00 304.01 279.00" xmlns="http://www.w3.org/2000/svg" xmlns:xlink="http://www.w3.org/1999/xlink">
<g id="graph0" class="graph" transform="scale(1 1) rotate(0) translate(4 275)">
<title>dependency&#45;cruiser output</title>
<polygon fill="white" stroke="transparent" points="-4,4 -4,-275 300.01,-275 300.01,4 -4,4"/>
<g id="clust1" class="cluster">
<title>cluster_stepped</title>
<path fill="#ffffff" stroke="black" stroke-width="2" d="M20,-8C20,-8 276.01,-8 276.01,-8 282.01,-8 288.01,-14 288.01,-20 288.01,-20 288.01,-251 288.01,-251 288.01,-257 282.01,-263 276.01,-263 276.01,-263 20,-263 20,-263 14,-263 8,-257 8,-251 8,-251 8,-20 8,-20 8,-14 14,-8 20,-8"/>
<text text-anchor="middle" x="148.01" y="-250.9" font-family="Helvetica,sans-Serif" font-weight="bold" font-size="9.00">stepped</text>
</g>
<g id="clust2" class="cluster">
<title>cluster_stepped/3&#45;separated</title>
<path fill="#ffffff" stroke="black" stroke-width="2" d="M28,-16C28,-16 268.01,-16 268.01,-16 274.01,-16 280.01,-22 280.01,-28 280.01,-28 280.01,-224 280.01,-224 280.01,-230 274.01,-236 268.01,-236 268.01,-236 28,-236 28,-236 22,-236 16,-230 16,-224 16,-224 16,-28 16,-28 16,-22 22,-16 28,-16"/>
<text text-anchor="middle" x="148.01" y="-223.9" font-family="Helvetica,sans-Serif" font-weight="bold" font-size="9.00">3&#45;separated</text>
</g>
<g id="clust3" class="cluster">
<title>cluster_stepped/3&#45;separated/madlibs</title>
<path fill="#ffffff" stroke="black" stroke-width="2" d="M36,-24C36,-24 260.01,-24 260.01,-24 266.01,-24 272.01,-30 272.01,-36 272.01,-36 272.01,-197 272.01,-197 272.01,-203 266.01,-209 260.01,-209 260.01,-209 36,-209 36,-209 30,-209 24,-203 24,-197 24,-197 24,-36 24,-36 24,-30 30,-24 36,-24"/>
<text text-anchor="middle" x="148.01" y="-196.9" font-family="Helvetica,sans-Serif" font-weight="bold" font-size="9.00">madlibs</text>
</g>
<g id="clust4" class="cluster">
<title>cluster_stepped/3&#45;separated/madlibs/4&#45;handler</title>
<path fill="#ffffff" stroke="black" stroke-width="2" d="M44,-32C44,-32 252.01,-32 252.01,-32 258.01,-32 264.01,-38 264.01,-44 264.01,-44 264.01,-170 264.01,-170 264.01,-176 258.01,-182 252.01,-182 252.01,-182 44,-182 44,-182 38,-182 32,-176 32,-170 32,-170 32,-44 32,-44 32,-38 38,-32 44,-32"/>
<text text-anchor="middle" x="148.01" y="-169.9" font-family="Helvetica,sans-Serif" font-weight="bold" font-size="9.00">4&#45;handler</text>
</g>
<g id="clust5" class="cluster">
<title>cluster_stepped/3&#45;separated/madlibs/4&#45;handler/src</title>
<path fill="#ffffff" stroke="black" stroke-width="2" d="M52,-40C52,-40 244.01,-40 244.01,-40 250.01,-40 256.01,-46 256.01,-52 256.01,-52 256.01,-143 256.01,-143 256.01,-149 250.01,-155 244.01,-155 244.01,-155 52,-155 52,-155 46,-155 40,-149 40,-143 40,-143 40,-52 40,-52 40,-46 46,-40 52,-40"/>
<text text-anchor="middle" x="148.01" y="-142.9" font-family="Helvetica,sans-Serif" font-weight="bold" font-size="9.00">src</text>
</g>
<!-- stepped/3&#45;separated/madlibs/4&#45;handler/src/handler.js -->
<g id="node1" class="node">
<title>stepped/3&#45;separated/madlibs/4&#45;handler/src/handler.js</title>
<g id="a_node1"><a xlink:href="stepped/3-separated/madlibs/4-handler/src/handler.js" xlink:title="handler.js">
<path fill="#ffffcc" stroke="black" d="M241.82,-128.3C241.82,-128.3 199.2,-128.3 199.2,-128.3 196.1,-128.3 193,-125.2 193,-122.1 193,-122.1 193,-115.9 193,-115.9 193,-112.8 196.1,-109.7 199.2,-109.7 199.2,-109.7 241.82,-109.7 241.82,-109.7 244.92,-109.7 248.02,-112.8 248.02,-115.9 248.02,-115.9 248.02,-122.1 248.02,-122.1 248.02,-125.2 244.92,-128.3 241.82,-128.3"/>
<text text-anchor="middle" x="220.51" y="-116.3" font-family="Helvetica,sans-Serif" font-size="9.00">handler.js</text>
</a>
</g>
</g>
<!-- stepped/3&#45;separated/madlibs/4&#45;handler/src/init.js -->
<g id="node2" class="node">
<title>stepped/3&#45;separated/madlibs/4&#45;handler/src/init.js</title>
<g id="a_node2"><a xlink:href="stepped/3-separated/madlibs/4-handler/src/init.js" xlink:title="init.js">
<path fill="#ffffcc" stroke="black" d="M101.3,-128.3C101.3,-128.3 59.7,-128.3 59.7,-128.3 56.6,-128.3 53.5,-125.2 53.5,-122.1 53.5,-122.1 53.5,-115.9 53.5,-115.9 53.5,-112.8 56.6,-109.7 59.7,-109.7 59.7,-109.7 101.3,-109.7 101.3,-109.7 104.4,-109.7 107.5,-112.8 107.5,-115.9 107.5,-115.9 107.5,-122.1 107.5,-122.1 107.5,-125.2 104.4,-128.3 101.3,-128.3"/>
<text text-anchor="middle" x="80.5" y="-116.3" font-family="Helvetica,sans-Serif" font-size="9.00">init.js</text>
</a>
</g>
</g>
<!-- stepped/3&#45;separated/madlibs/4&#45;handler/src/listener.js -->
<g id="node3" class="node">
<title>stepped/3&#45;separated/madlibs/4&#45;handler/src/listener.js</title>
<g id="a_node3"><a xlink:href="stepped/3-separated/madlibs/4-handler/src/listener.js" xlink:title="listener.js">
<path fill="#ffffcc" stroke="black" d="M173.81,-128.3C173.81,-128.3 132.21,-128.3 132.21,-128.3 129.11,-128.3 126.01,-125.2 126.01,-122.1 126.01,-122.1 126.01,-115.9 126.01,-115.9 126.01,-112.8 129.11,-109.7 132.21,-109.7 132.21,-109.7 173.81,-109.7 173.81,-109.7 176.91,-109.7 180.01,-112.8 180.01,-115.9 180.01,-115.9 180.01,-122.1 180.01,-122.1 180.01,-125.2 176.91,-128.3 173.81,-128.3"/>
<text text-anchor="middle" x="153.01" y="-116.3" font-family="Helvetica,sans-Serif" font-size="9.00">listener.js</text>
</a>
</g>
</g>
<!-- stepped/3&#45;separated/madlibs/4&#45;handler/src/init.js&#45;&gt;stepped/3&#45;separated/madlibs/4&#45;handler/src/listener.js -->
<g id="edge1" class="edge">
<title>stepped/3&#45;separated/madlibs/4&#45;handler/src/init.js&#45;&gt;stepped/3&#45;separated/madlibs/4&#45;handler/src/listener.js</title>
<path fill="none" stroke="#000000" stroke-width="2" stroke-opacity="0.200000" d="M107.76,-119C111.66,-119 115.72,-119 119.74,-119"/>
<polygon fill="#000000" fill-opacity="0.200000" stroke="#000000" stroke-width="2" stroke-opacity="0.200000" points="119.97,-121.1 125.97,-119 119.97,-116.9 119.97,-121.1"/>
</g>
<!-- stepped/3&#45;separated/madlibs/4&#45;handler/src/listener.js&#45;&gt;stepped/3&#45;separated/madlibs/4&#45;handler/src/handler.js -->
<g id="edge2" class="edge">
<title>stepped/3&#45;separated/madlibs/4&#45;handler/src/listener.js&#45;&gt;stepped/3&#45;separated/madlibs/4&#45;handler/src/handler.js</title>
<path fill="none" stroke="#000000" stroke-width="2" stroke-opacity="0.200000" d="M180.27,-119C182.34,-119 184.44,-119 186.54,-119"/>
<polygon fill="#000000" fill-opacity="0.200000" stroke="#000000" stroke-width="2" stroke-opacity="0.200000" points="186.81,-121.1 192.81,-119 186.81,-116.9 186.81,-121.1"/>
</g>
<!-- stepped/3&#45;separated/madlibs/4&#45;handler/src/logic.js -->
<g id="node4" class="node">
<title>stepped/3&#45;separated/madlibs/4&#45;handler/src/logic.js</title>
<g id="a_node4"><a xlink:href="stepped/3-separated/madlibs/4-handler/src/logic.js" xlink:title="logic.js">
<path fill="#ccffcc" stroke="black" d="M101.3,-97.3C101.3,-97.3 59.7,-97.3 59.7,-97.3 56.6,-97.3 53.5,-94.2 53.5,-91.1 53.5,-91.1 53.5,-84.9 53.5,-84.9 53.5,-81.8 56.6,-78.7 59.7,-78.7 59.7,-78.7 101.3,-78.7 101.3,-78.7 104.4,-78.7 107.5,-81.8 107.5,-84.9 107.5,-84.9 107.5,-91.1 107.5,-91.1 107.5,-94.2 104.4,-97.3 101.3,-97.3"/>
<text text-anchor="middle" x="80.5" y="-85.3" font-family="Helvetica,sans-Serif" font-size="9.00">logic.js</text>
</a>
</g>
</g>
<!-- stepped/3&#45;separated/madlibs/4&#45;handler/src/logic.spec.js -->
<g id="node5" class="node">
<title>stepped/3&#45;separated/madlibs/4&#45;handler/src/logic.spec.js</title>
<g id="a_node5"><a xlink:href="stepped/3-separated/madlibs/4-handler/src/logic.spec.js" xlink:title="logic.spec.js">
<path fill="#ccffcc" stroke="black" d="M106.81,-66.3C106.81,-66.3 54.2,-66.3 54.2,-66.3 51.1,-66.3 48,-63.2 48,-60.1 48,-60.1 48,-53.9 48,-53.9 48,-50.8 51.1,-47.7 54.2,-47.7 54.2,-47.7 106.81,-47.7 106.81,-47.7 109.91,-47.7 113.01,-50.8 113.01,-53.9 113.01,-53.9 113.01,-60.1 113.01,-60.1 113.01,-63.2 109.91,-66.3 106.81,-66.3"/>
<text text-anchor="middle" x="80.5" y="-54.3" font-family="Helvetica,sans-Serif" font-size="9.00">logic.spec.js</text>
</a>
</g>
</g>
</g>
</svg>
