<?xml version="1.0" encoding="UTF-8" standalone="no"?>
<!DOCTYPE svg PUBLIC "-//W3C//DTD SVG 1.1//EN"
 "http://www.w3.org/Graphics/SVG/1.1/DTD/svg11.dtd">
<!-- Generated by graphviz version 2.44.0 (20200408.0750)
 -->
<!-- Title: dependency&#45;cruiser output Pages: 1 -->
<svg width="288pt" height="244pt"
 viewBox="0.00 0.00 288.01 244.00" xmlns="http://www.w3.org/2000/svg" xmlns:xlink="http://www.w3.org/1999/xlink">
<g id="graph0" class="graph" transform="scale(1 1) rotate(0) translate(4 240)">
<title>dependency&#45;cruiser output</title>
<polygon fill="white" stroke="transparent" points="-4,4 -4,-240 284.01,-240 284.01,4 -4,4"/>
<g id="clust1" class="cluster">
<title>cluster_stepped</title>
<path fill="#ffffff" stroke="black" stroke-width="2" d="M20,-8C20,-8 260.01,-8 260.01,-8 266.01,-8 272.01,-14 272.01,-20 272.01,-20 272.01,-216 272.01,-216 272.01,-222 266.01,-228 260.01,-228 260.01,-228 20,-228 20,-228 14,-228 8,-222 8,-216 8,-216 8,-20 8,-20 8,-14 14,-8 20,-8"/>
<text text-anchor="middle" x="140.01" y="-215.9" font-family="Helvetica,sans-Serif" font-weight="bold" font-size="9.00">stepped</text>
</g>
<g id="clust2" class="cluster">
<title>cluster_stepped/madlibs&#45;separated</title>
<path fill="#ffffff" stroke="black" stroke-width="2" d="M28,-16C28,-16 252.01,-16 252.01,-16 258.01,-16 264.01,-22 264.01,-28 264.01,-28 264.01,-189 264.01,-189 264.01,-195 258.01,-201 252.01,-201 252.01,-201 28,-201 28,-201 22,-201 16,-195 16,-189 16,-189 16,-28 16,-28 16,-22 22,-16 28,-16"/>
<text text-anchor="middle" x="140.01" y="-188.9" font-family="Helvetica,sans-Serif" font-weight="bold" font-size="9.00">madlibs&#45;separated</text>
</g>
<g id="clust3" class="cluster">
<title>cluster_stepped/madlibs&#45;separated/4&#45;handler</title>
<path fill="#ffffff" stroke="black" stroke-width="2" d="M36,-24C36,-24 244.01,-24 244.01,-24 250.01,-24 256.01,-30 256.01,-36 256.01,-36 256.01,-162 256.01,-162 256.01,-168 250.01,-174 244.01,-174 244.01,-174 36,-174 36,-174 30,-174 24,-168 24,-162 24,-162 24,-36 24,-36 24,-30 30,-24 36,-24"/>
<text text-anchor="middle" x="140.01" y="-161.9" font-family="Helvetica,sans-Serif" font-weight="bold" font-size="9.00">4&#45;handler</text>
</g>
<g id="clust4" class="cluster">
<title>cluster_stepped/madlibs&#45;separated/4&#45;handler/src</title>
<path fill="#ffffff" stroke="black" stroke-width="2" d="M44,-32C44,-32 236.01,-32 236.01,-32 242.01,-32 248.01,-38 248.01,-44 248.01,-44 248.01,-135 248.01,-135 248.01,-141 242.01,-147 236.01,-147 236.01,-147 44,-147 44,-147 38,-147 32,-141 32,-135 32,-135 32,-44 32,-44 32,-38 38,-32 44,-32"/>
<text text-anchor="middle" x="140.01" y="-134.9" font-family="Helvetica,sans-Serif" font-weight="bold" font-size="9.00">src</text>
</g>
<!-- stepped/madlibs&#45;separated/4&#45;handler/src/handler.js -->
<g id="node1" class="node">
<title>stepped/madlibs&#45;separated/4&#45;handler/src/handler.js</title>
<g id="a_node1"><a xlink:href="stepped/madlibs-separated/4-handler/src/handler.js" xlink:title="handler.js">
<path fill="#ffffcc" stroke="black" d="M233.82,-120.3C233.82,-120.3 191.2,-120.3 191.2,-120.3 188.1,-120.3 185,-117.2 185,-114.1 185,-114.1 185,-107.9 185,-107.9 185,-104.8 188.1,-101.7 191.2,-101.7 191.2,-101.7 233.82,-101.7 233.82,-101.7 236.92,-101.7 240.02,-104.8 240.02,-107.9 240.02,-107.9 240.02,-114.1 240.02,-114.1 240.02,-117.2 236.92,-120.3 233.82,-120.3"/>
<text text-anchor="middle" x="212.51" y="-108.3" font-family="Helvetica,sans-Serif" font-size="9.00">handler.js</text>
</a>
</g>
</g>
<!-- stepped/madlibs&#45;separated/4&#45;handler/src/init.js -->
<g id="node2" class="node">
<title>stepped/madlibs&#45;separated/4&#45;handler/src/init.js</title>
<g id="a_node2"><a xlink:href="stepped/madlibs-separated/4-handler/src/init.js" xlink:title="init.js">
<path fill="#ffffcc" stroke="black" d="M93.3,-120.3C93.3,-120.3 51.7,-120.3 51.7,-120.3 48.6,-120.3 45.5,-117.2 45.5,-114.1 45.5,-114.1 45.5,-107.9 45.5,-107.9 45.5,-104.8 48.6,-101.7 51.7,-101.7 51.7,-101.7 93.3,-101.7 93.3,-101.7 96.4,-101.7 99.5,-104.8 99.5,-107.9 99.5,-107.9 99.5,-114.1 99.5,-114.1 99.5,-117.2 96.4,-120.3 93.3,-120.3"/>
<text text-anchor="middle" x="72.5" y="-108.3" font-family="Helvetica,sans-Serif" font-size="9.00">init.js</text>
</a>
</g>
</g>
<!-- stepped/madlibs&#45;separated/4&#45;handler/src/listener.js -->
<g id="node3" class="node">
<title>stepped/madlibs&#45;separated/4&#45;handler/src/listener.js</title>
<g id="a_node3"><a xlink:href="stepped/madlibs-separated/4-handler/src/listener.js" xlink:title="listener.js">
<path fill="#ffffcc" stroke="black" d="M165.81,-120.3C165.81,-120.3 124.21,-120.3 124.21,-120.3 121.11,-120.3 118.01,-117.2 118.01,-114.1 118.01,-114.1 118.01,-107.9 118.01,-107.9 118.01,-104.8 121.11,-101.7 124.21,-101.7 124.21,-101.7 165.81,-101.7 165.81,-101.7 168.91,-101.7 172.01,-104.8 172.01,-107.9 172.01,-107.9 172.01,-114.1 172.01,-114.1 172.01,-117.2 168.91,-120.3 165.81,-120.3"/>
<text text-anchor="middle" x="145.01" y="-108.3" font-family="Helvetica,sans-Serif" font-size="9.00">listener.js</text>
</a>
</g>
</g>
<!-- stepped/madlibs&#45;separated/4&#45;handler/src/init.js&#45;&gt;stepped/madlibs&#45;separated/4&#45;handler/src/listener.js -->
<g id="edge1" class="edge">
<title>stepped/madlibs&#45;separated/4&#45;handler/src/init.js&#45;&gt;stepped/madlibs&#45;separated/4&#45;handler/src/listener.js</title>
<path fill="none" stroke="#000000" stroke-width="2" stroke-opacity="0.200000" d="M99.76,-111C103.66,-111 107.72,-111 111.74,-111"/>
<polygon fill="#000000" fill-opacity="0.200000" stroke="#000000" stroke-width="2" stroke-opacity="0.200000" points="111.97,-113.1 117.97,-111 111.97,-108.9 111.97,-113.1"/>
</g>
<!-- stepped/madlibs&#45;separated/4&#45;handler/src/listener.js&#45;&gt;stepped/madlibs&#45;separated/4&#45;handler/src/handler.js -->
<g id="edge2" class="edge">
<title>stepped/madlibs&#45;separated/4&#45;handler/src/listener.js&#45;&gt;stepped/madlibs&#45;separated/4&#45;handler/src/handler.js</title>
<path fill="none" stroke="#000000" stroke-width="2" stroke-opacity="0.200000" d="M172.27,-111C174.34,-111 176.44,-111 178.54,-111"/>
<polygon fill="#000000" fill-opacity="0.200000" stroke="#000000" stroke-width="2" stroke-opacity="0.200000" points="178.81,-113.1 184.81,-111 178.81,-108.9 178.81,-113.1"/>
</g>
<!-- stepped/madlibs&#45;separated/4&#45;handler/src/logic.js -->
<g id="node4" class="node">
<title>stepped/madlibs&#45;separated/4&#45;handler/src/logic.js</title>
<g id="a_node4"><a xlink:href="stepped/madlibs-separated/4-handler/src/logic.js" xlink:title="logic.js">
<path fill="#ccffcc" stroke="black" d="M93.3,-89.3C93.3,-89.3 51.7,-89.3 51.7,-89.3 48.6,-89.3 45.5,-86.2 45.5,-83.1 45.5,-83.1 45.5,-76.9 45.5,-76.9 45.5,-73.8 48.6,-70.7 51.7,-70.7 51.7,-70.7 93.3,-70.7 93.3,-70.7 96.4,-70.7 99.5,-73.8 99.5,-76.9 99.5,-76.9 99.5,-83.1 99.5,-83.1 99.5,-86.2 96.4,-89.3 93.3,-89.3"/>
<text text-anchor="middle" x="72.5" y="-77.3" font-family="Helvetica,sans-Serif" font-size="9.00">logic.js</text>
</a>
</g>
</g>
<!-- stepped/madlibs&#45;separated/4&#45;handler/src/logic.spec.js -->
<g id="node5" class="node">
<title>stepped/madlibs&#45;separated/4&#45;handler/src/logic.spec.js</title>
<g id="a_node5"><a xlink:href="stepped/madlibs-separated/4-handler/src/logic.spec.js" xlink:title="logic.spec.js">
<path fill="#ccffcc" stroke="black" d="M98.81,-58.3C98.81,-58.3 46.2,-58.3 46.2,-58.3 43.1,-58.3 40,-55.2 40,-52.1 40,-52.1 40,-45.9 40,-45.9 40,-42.8 43.1,-39.7 46.2,-39.7 46.2,-39.7 98.81,-39.7 98.81,-39.7 101.91,-39.7 105.01,-42.8 105.01,-45.9 105.01,-45.9 105.01,-52.1 105.01,-52.1 105.01,-55.2 101.91,-58.3 98.81,-58.3"/>
<text text-anchor="middle" x="72.5" y="-46.3" font-family="Helvetica,sans-Serif" font-size="9.00">logic.spec.js</text>
</a>
</g>
</g>
</g>
</svg>
