<?xml version="1.0" encoding="UTF-8" standalone="no"?>
<!DOCTYPE svg PUBLIC "-//W3C//DTD SVG 1.1//EN"
 "http://www.w3.org/Graphics/SVG/1.1/DTD/svg11.dtd">
<!-- Generated by graphviz version 2.44.0 (20200408.0750)
 -->
<!-- Title: dependency&#45;cruiser output Pages: 1 -->
<svg width="357pt" height="138pt"
 viewBox="0.00 0.00 356.52 138.00" xmlns="http://www.w3.org/2000/svg" xmlns:xlink="http://www.w3.org/1999/xlink">
<g id="graph0" class="graph" transform="scale(1 1) rotate(0) translate(4 134)">
<title>dependency&#45;cruiser output</title>
<polygon fill="white" stroke="transparent" points="-4,4 -4,-134 352.52,-134 352.52,4 -4,4"/>
<g id="clust1" class="cluster">
<title>cluster_src</title>
<path fill="#ffffff" stroke="black" stroke-width="2" d="M20,-8C20,-8 328.52,-8 328.52,-8 334.52,-8 340.52,-14 340.52,-20 340.52,-20 340.52,-110 340.52,-110 340.52,-116 334.52,-122 328.52,-122 328.52,-122 20,-122 20,-122 14,-122 8,-116 8,-110 8,-110 8,-20 8,-20 8,-14 14,-8 20,-8"/>
<text text-anchor="middle" x="174.26" y="-109.9" font-family="Helvetica,sans-Serif" font-weight="bold" font-size="9.00">src</text>
</g>
<g id="clust2" class="cluster">
<title>cluster_src/handlers</title>
<path fill="#ffffff" stroke="black" stroke-width="2" d="M184,-29C184,-29 231.01,-29 231.01,-29 237.01,-29 243.01,-35 243.01,-41 243.01,-41 243.01,-70 243.01,-70 243.01,-76 237.01,-82 231.01,-82 231.01,-82 184,-82 184,-82 178,-82 172,-76 172,-70 172,-70 172,-41 172,-41 172,-35 178,-29 184,-29"/>
<text text-anchor="middle" x="207.5" y="-69.9" font-family="Helvetica,sans-Serif" font-weight="bold" font-size="9.00">handlers</text>
</g>
<g id="clust3" class="cluster">
<title>cluster_src/init</title>
<path fill="#ffffff" stroke="black" stroke-width="2" d="M28,-29C28,-29 74,-29 74,-29 80,-29 86,-35 86,-41 86,-41 86,-70 86,-70 86,-76 80,-82 74,-82 74,-82 28,-82 28,-82 22,-82 16,-76 16,-70 16,-70 16,-41 16,-41 16,-35 22,-29 28,-29"/>
<text text-anchor="middle" x="51" y="-69.9" font-family="Helvetica,sans-Serif" font-weight="bold" font-size="9.00">init</text>
</g>
<g id="clust4" class="cluster">
<title>cluster_src/listeners</title>
<path fill="#ffffff" stroke="black" stroke-width="2" d="M106,-29C106,-29 152,-29 152,-29 158,-29 164,-35 164,-41 164,-41 164,-70 164,-70 164,-76 158,-82 152,-82 152,-82 106,-82 106,-82 100,-82 94,-76 94,-70 94,-70 94,-41 94,-41 94,-35 100,-29 106,-29"/>
<text text-anchor="middle" x="129" y="-69.9" font-family="Helvetica,sans-Serif" font-weight="bold" font-size="9.00">listeners</text>
</g>
<g id="clust5" class="cluster">
<title>cluster_src/procedures</title>
<path fill="#ffffff" stroke="black" stroke-width="2" d="M263.01,-42C263.01,-42 320.52,-42 320.52,-42 326.52,-42 332.52,-48 332.52,-54 332.52,-54 332.52,-83 332.52,-83 332.52,-89 326.52,-95 320.52,-95 320.52,-95 263.01,-95 263.01,-95 257.01,-95 251.01,-89 251.01,-83 251.01,-83 251.01,-54 251.01,-54 251.01,-48 257.01,-42 263.01,-42"/>
<text text-anchor="middle" x="291.76" y="-82.9" font-family="Helvetica,sans-Serif" font-weight="bold" font-size="9.00">procedures</text>
</g>
<!-- src/data.js -->
<g id="node1" class="node">
<title>src/data.js</title>
<g id="a_node1"><a xlink:href="src/data.js" xlink:title="data.js">
<path fill="#ffffcc" stroke="black" d="M312.56,-34.3C312.56,-34.3 270.96,-34.3 270.96,-34.3 267.86,-34.3 264.76,-31.2 264.76,-28.1 264.76,-28.1 264.76,-21.9 264.76,-21.9 264.76,-18.8 267.86,-15.7 270.96,-15.7 270.96,-15.7 312.56,-15.7 312.56,-15.7 315.66,-15.7 318.76,-18.8 318.76,-21.9 318.76,-21.9 318.76,-28.1 318.76,-28.1 318.76,-31.2 315.66,-34.3 312.56,-34.3"/>
<text text-anchor="middle" x="291.76" y="-22.3" font-family="Helvetica,sans-Serif" font-size="9.00">data.js</text>
</a>
</g>
</g>
<!-- src/handlers/handler.js -->
<g id="node2" class="node">
<title>src/handlers/handler.js</title>
<g id="a_node2"><a xlink:href="src/handlers/handler.js" xlink:title="handler.js">
<path fill="#ffffcc" stroke="black" d="M228.81,-55.3C228.81,-55.3 186.2,-55.3 186.2,-55.3 183.1,-55.3 180,-52.2 180,-49.1 180,-49.1 180,-42.9 180,-42.9 180,-39.8 183.1,-36.7 186.2,-36.7 186.2,-36.7 228.81,-36.7 228.81,-36.7 231.91,-36.7 235.01,-39.8 235.01,-42.9 235.01,-42.9 235.01,-49.1 235.01,-49.1 235.01,-52.2 231.91,-55.3 228.81,-55.3"/>
<text text-anchor="middle" x="207.5" y="-43.3" font-family="Helvetica,sans-Serif" font-size="9.00">handler.js</text>
</a>
</g>
</g>
<!-- src/handlers/handler.js&#45;&gt;src/data.js -->
<g id="edge1" class="edge">
<title>src/handlers/handler.js&#45;&gt;src/data.js</title>
<path fill="none" stroke="#000000" stroke-width="2" stroke-opacity="0.200000" d="M235.44,-39.12C242.76,-37.25 250.76,-35.21 258.35,-33.27"/>
<polygon fill="#000000" fill-opacity="0.200000" stroke="#000000" stroke-width="2" stroke-opacity="0.200000" points="259.31,-35.2 264.61,-31.68 258.27,-31.13 259.31,-35.2"/>
</g>
<!-- src/procedures/procedure.js -->
<g id="node3" class="node">
<title>src/procedures/procedure.js</title>
<g id="a_node3"><a xlink:href="src/procedures/procedure.js" xlink:title="procedure.js">
<path fill="#ffffcc" stroke="black" d="M318.07,-68.3C318.07,-68.3 265.45,-68.3 265.45,-68.3 262.35,-68.3 259.25,-65.2 259.25,-62.1 259.25,-62.1 259.25,-55.9 259.25,-55.9 259.25,-52.8 262.35,-49.7 265.45,-49.7 265.45,-49.7 318.07,-49.7 318.07,-49.7 321.17,-49.7 324.27,-52.8 324.27,-55.9 324.27,-55.9 324.27,-62.1 324.27,-62.1 324.27,-65.2 321.17,-68.3 318.07,-68.3"/>
<text text-anchor="middle" x="291.76" y="-56.3" font-family="Helvetica,sans-Serif" font-size="9.00">procedure.js</text>
</a>
</g>
</g>
<!-- src/handlers/handler.js&#45;&gt;src/procedures/procedure.js -->
<g id="edge2" class="edge">
<title>src/handlers/handler.js&#45;&gt;src/procedures/procedure.js</title>
<path fill="none" stroke="#000000" stroke-width="2" stroke-opacity="0.200000" d="M235.44,-50.26C241.13,-51.16 247.24,-52.12 253.24,-53.07"/>
<polygon fill="#000000" fill-opacity="0.200000" stroke="#000000" stroke-width="2" stroke-opacity="0.200000" points="252.94,-55.15 259.19,-54.01 253.59,-51 252.94,-55.15"/>
</g>
<!-- src/init/index.js -->
<g id="node4" class="node">
<title>src/init/index.js</title>
<g id="a_node4"><a xlink:href="src/init/index.js" xlink:title="index.js">
<path fill="#ffffcc" stroke="black" d="M71.8,-55.3C71.8,-55.3 30.2,-55.3 30.2,-55.3 27.1,-55.3 24,-52.2 24,-49.1 24,-49.1 24,-42.9 24,-42.9 24,-39.8 27.1,-36.7 30.2,-36.7 30.2,-36.7 71.8,-36.7 71.8,-36.7 74.9,-36.7 78,-39.8 78,-42.9 78,-42.9 78,-49.1 78,-49.1 78,-52.2 74.9,-55.3 71.8,-55.3"/>
<text text-anchor="middle" x="51" y="-43.3" font-family="Helvetica,sans-Serif" font-size="9.00">index.js</text>
</a>
</g>
</g>
<!-- src/listeners/listener.js -->
<g id="node5" class="node">
<title>src/listeners/listener.js</title>
<g id="a_node5"><a xlink:href="src/listeners/listener.js" xlink:title="listener.js">
<path fill="#ffffcc" stroke="black" d="M149.8,-55.3C149.8,-55.3 108.2,-55.3 108.2,-55.3 105.1,-55.3 102,-52.2 102,-49.1 102,-49.1 102,-42.9 102,-42.9 102,-39.8 105.1,-36.7 108.2,-36.7 108.2,-36.7 149.8,-36.7 149.8,-36.7 152.9,-36.7 156,-39.8 156,-42.9 156,-42.9 156,-49.1 156,-49.1 156,-52.2 152.9,-55.3 149.8,-55.3"/>
<text text-anchor="middle" x="129" y="-43.3" font-family="Helvetica,sans-Serif" font-size="9.00">listener.js</text>
</a>
</g>
</g>
<!-- src/init/index.js&#45;&gt;src/listeners/listener.js -->
<g id="edge3" class="edge">
<title>src/init/index.js&#45;&gt;src/listeners/listener.js</title>
<path fill="none" stroke="#000000" stroke-width="2" stroke-opacity="0.200000" d="M78.15,-46C83.77,-46 89.76,-46 95.58,-46"/>
<polygon fill="#000000" fill-opacity="0.200000" stroke="#000000" stroke-width="2" stroke-opacity="0.200000" points="95.8,-48.1 101.8,-46 95.8,-43.9 95.8,-48.1"/>
</g>
<!-- src/listeners/listener.js&#45;&gt;src/handlers/handler.js -->
<g id="edge4" class="edge">
<title>src/listeners/listener.js&#45;&gt;src/handlers/handler.js</title>
<path fill="none" stroke="#000000" stroke-width="2" stroke-opacity="0.200000" d="M156.33,-46C161.91,-46 167.88,-46 173.67,-46"/>
<polygon fill="#000000" fill-opacity="0.200000" stroke="#000000" stroke-width="2" stroke-opacity="0.200000" points="173.87,-48.1 179.87,-46 173.87,-43.9 173.87,-48.1"/>
</g>
</g>
</svg>
